<svg width="176" height="32" fill="none" xmlns="http://www.w3.org/2000/svg"><path d="M81.272 15.003v16.574h4.72v-15.44a2.361 2.361 0 012.36-2.36h4.878v-4.66h-6.069a5.885 5.885 0 00-5.889 5.886zM20.145 8.627c-5.4 0-9.572 3.94-9.572 8.857v7.231c-.018.378-.19.758-.399 1.093a2.813 2.813 0 01-2.445 1.364h-.046a2.804 2.804 0 01-2.435-1.413l-.092-.162a2.295 2.295 0 01-.307-1.146v-.754h.004V9.124H.003V21.48H0v2.679a7.54 7.54 0 001.015 3.778l.078.137c1.342 2.323 3.837 3.736 6.523 3.775h.116a7.494 7.494 0 006.425-3.585 7.87 7.87 0 00.976-2.347c.123-.535.159-1.089.159-1.639v-6.163c0-1.91.923-5.17 4.853-5.17 2.607 0 4.313 1.93 4.313 5.17v13.438h4.81v-14.07c0-5.26-4.179-8.856-9.123-8.856zm22.234 17.978L36.413 9.128H31.38l7.436 20.218a3.774 3.774 0 007.08.008l7.482-20.226H48.3l-5.921 17.477zM66.023 8.627c-6.654 0-11.056 5.033-11.056 11.687C54.967 26.922 59.373 32 66.023 32c6.65 0 11.055-5.078 11.055-11.686 0-6.65-4.405-11.687-11.055-11.687zm0 18.968c-3.595 0-6.337-3.101-6.337-7.281 0-4.226 2.742-7.281 6.337-7.281 3.64 0 6.336 3.055 6.336 7.28 0 4.18-2.696 7.282-6.336 7.282zM2.411 4.814h.04A2.408 2.408 0 002.45 0h-.04a2.408 2.408 0 000 4.814zm97.113 0h.039a2.408 2.408 0 000-4.814h-.039a2.408 2.408 0 000 4.814zm73.537 22.006h-.039a2.408 2.408 0 000 4.813h.039a2.408 2.408 0 002.407-2.407 2.408 2.408 0 00-2.407-2.407zM157.413 8.627c-2.861 0-5.367 1.114-7.101 2.883-1.688-1.815-4.141-2.883-6.83-2.883-5.399 0-9.572 3.94-9.572 8.853v14.07h4.719V18.115c0-1.91.923-5.17 4.853-5.17 2.608 0 4.314 1.93 4.314 5.17v13.438h4.81v-14.07c0-.027-.003-.052-.003-.08.215-1.91 1.335-4.458 4.81-4.458 2.608 0 4.314 1.93 4.314 5.17v13.438h4.81v-14.07c0-5.26-4.179-8.856-9.124-8.856zm-37.663-.045c-6.456 0-10.583 4.965-10.604 11.77h-.004v3.193a3.504 3.504 0 01-3.499 3.503h-.004a3.495 3.495 0 01-2.682-1.25 3.498 3.498 0 01-.821-2.256V16.98h-.004V9.11h-4.779v14.538h.008a8.284 8.284 0 001.948 5.23 8.26 8.26 0 006.334 2.946h.007a8.272 8.272 0 006.336-2.957c.035-.042.067-.092.102-.137 1.9 2.047 4.631 3.22 7.933 3.22 3.866 0 7.281-1.754 8.853-4.493l-3.594-2.202c-.945 1.392-2.608 2.562-5.079 2.562-3.595 0-5.931-2.203-6.428-6.023h15.732c.853-7.415-2.608-13.212-9.755-13.212zm-5.935 9.709c.585-3.415 2.696-5.618 5.977-5.618 3.687 0 5.438 2.876 5.438 5.618h-11.415z" fill="#145"/></svg>