<svg width="32" height="32" fill="none" xmlns="http://www.w3.org/2000/svg"><path d="M18.314 15.145c.346 0 .58-.166.815-.608.842-1.574 1.533-1.685 1.905-.331.373 1.325 1.782 1.463 1.782.18 0-1.423-2.237-2.583-3.839-2.003-1.187.442-1.74 2.762-.663 2.762zm-7.401.427c0-1.228.842-1.725 1.243-.745.456 1.09 1.256 1.408 1.56.607.566-1.463-2.471-2.9-3.838-1.822-.539.428-1.022 1.684-.829 2.181.235.622 1.864.415 1.864-.22zm.953 6.932c3.7 1.643 7.456 1.146 9.928-1.312 2.596-2.582 1.602-5.274-1.754-4.764-.317.042-1.256.387-2.071.76-1.657.746-2.679.8-4.97.248-3.77-.883-4.737 3.48-1.133 5.068zm9.555-5.012c.635.8.345 2.168-.635 3.093-.65.607-.58.662-1.022-.856-.193-.677-.414-1.367-.497-1.547-.248-.635 1.712-1.256 2.154-.69zm-4.142.952c.814-.22.814-.234 1.187 1.547.414 1.96.414 1.988-.29 2.237-1.367.483-1.215.455-1.546-3.618l.649-.166zm-3.3.152h1.532c0 2.886.042 2.845.249 3.894l-.746-.138c-1.146-.207-1.035-.29-1.035-3.756zm-1.575-.455c.484.124.69 3.535.221 3.535-.441 0-1.463-1.257-1.601-1.989-.221-1.201.331-1.823 1.38-1.546z" fill="#006B99"/><path d="M20.855 7.288c-2.168-1.091-2.223-.677-.18 1.311 6.394 6.2 4.668 15.534-2.996 16.294-5.951.593-10.19-3.08-10.08-8.603.083-4.39 2.97-8.989 7.72-9.54.952-.111.98-.139.551-.374-.662-.373-2.595-.303-3.77.11-1.532.553-3.092 1.685-4.307 3.149-3.052 3.645-2.72 9.376-.318 12.772 2.997 4.24 13.035 4.971 16.556 1.202 4.418-4.723 2.734-13.339-3.176-16.321z" fill="#006B99"/></svg>