<svg width="31" height="36" fill="none" xmlns="http://www.w3.org/2000/svg"><path fill-rule="evenodd" clip-rule="evenodd" d="M18.53 5.617a13.098 13.098 0 00-11.629.767L5.135 7.41 3.096 3.855 4.862 2.83a17.152 17.152 0 0115.23-1.005 17.257 17.257 0 016.368 4.594 17.405 17.405 0 013.694 6.956 17.48 17.48 0 01.256 7.883 17.422 17.422 0 01-3.233 7.184 17.278 17.278 0 01-6.057 5.003c-2.374 1.179-5.435 1.791-7.631 1.791-2.196 0-3.478-.331-5.162-1.033a13.483 13.483 0 01-4.376-2.943 13.584 13.584 0 01-2.924-4.405 13.655 13.655 0 010-10.392 13.584 13.584 0 012.924-4.405 13.483 13.483 0 014.376-2.943 13.412 13.412 0 0110.324 0 13.482 13.482 0 014.376 2.943 13.582 13.582 0 013.614 6.588 13.344 13.344 0 00-.426-4.208 13.29 13.29 0 00-2.82-5.312 13.18 13.18 0 00-4.864-3.508zM5.345 26.404c.232-4.413 3.86-7.92 8.302-7.92 4.27 0 7.788 3.241 8.259 7.413a9.516 9.516 0 00.995-4.24 9.527 9.527 0 00-.717-3.624 9.477 9.477 0 00-2.04-3.073 9.405 9.405 0 00-3.053-2.054 9.356 9.356 0 00-7.203 0 9.405 9.405 0 00-3.053 2.054 9.478 9.478 0 00-2.04 3.073 9.527 9.527 0 00.55 8.371zm12.537.448c0 2.354-1.896 4.263-4.235 4.263-2.34 0-4.235-1.909-4.235-4.263s1.896-4.263 4.235-4.263c2.338 0 4.235 1.909 4.235 4.263z" fill="#006B99"/></svg>