<svg width="320" height="60" fill="none" xmlns="http://www.w3.org/2000/svg"><path fill="#BAEF00" d="M0 0h320v60H0z"/><path d="M118.449 37.418v-14.93h5.732c1.164 0 2.101.149 2.811.452a3.6 3.6 0 011.653 1.393c.4.626.6 1.286.6 1.972 0 .64-.18 1.239-.531 1.804-.351.566-.889 1.017-1.605 1.367.923.262 1.633.713 2.129 1.353.496.639.744 1.393.744 2.261 0 .7-.152 1.346-.455 1.952-.303.606-.675 1.064-1.123 1.387-.448.323-.999.572-1.674.74-.668.169-1.495.25-2.466.25h-5.815zm2.019-8.656h3.3c.895 0 1.536-.06 1.929-.175.516-.148.902-.397 1.164-.74.262-.344.393-.781.393-1.306 0-.498-.124-.929-.366-1.306a1.849 1.849 0 00-1.04-.774c-.454-.141-1.226-.209-2.321-.209h-3.052v4.51h-.007zm0 6.893h3.803c.654 0 1.109-.027 1.377-.074.469-.081.855-.216 1.165-.404a2.17 2.17 0 00.771-.828c.2-.363.303-.78.303-1.259 0-.558-.144-1.043-.44-1.454-.29-.41-.696-.7-1.213-.868-.517-.168-1.261-.25-2.232-.25h-3.534v5.137zm12.552 1.763v-14.93h11.043v1.764h-9.018v4.57h8.454v1.75h-8.454v5.083h9.377v1.763H133.02zm15.521-14.929h9.563v14.923h-2.019v-13.16h-5.525v7.687c0 1.562-.076 2.706-.227 3.433-.152.727-.462 1.292-.944 1.696-.482.404-1.089.606-1.826.606-.448 0-.978-.08-1.605-.242l.344-1.75c.331.134.621.202.855.202.461 0 .799-.169 1.033-.505.227-.337.345-1.131.345-2.376V22.489h.006zm12.491 7.66c0-2.477.682-4.416 2.039-5.816 1.364-1.4 3.121-2.1 5.27-2.1 1.413 0 2.68.33 3.817.99a6.516 6.516 0 012.59 2.752c.593 1.178.889 2.511.889 4.005 0 1.515-.31 2.868-.937 4.06-.627 1.19-1.509 2.1-2.659 2.712a7.748 7.748 0 01-3.707.922c-1.439 0-2.721-.336-3.858-1.016a6.63 6.63 0 01-2.576-2.78 8.331 8.331 0 01-.868-3.73zm2.08.027c0 1.797.496 3.217 1.488 4.247.993 1.037 2.233 1.555 3.728 1.555 1.522 0 2.776-.525 3.754-1.568.985-1.044 1.475-2.531 1.475-4.45 0-1.211-.214-2.275-.634-3.184-.421-.908-1.034-1.608-1.847-2.106-.806-.498-1.715-.748-2.728-.748-1.433 0-2.659.478-3.692 1.44-1.027.964-1.544 2.572-1.544 4.814zm14.661 2.444l1.908-.162c.09.747.303 1.36.634 1.837.331.478.84.868 1.536 1.158.696.296 1.475.444 2.343.444.771 0 1.453-.114 2.039-.336.592-.222 1.026-.532 1.316-.923a2.1 2.1 0 00.434-1.279c0-.47-.138-.875-.414-1.225-.275-.35-.737-.646-1.378-.881-.413-.155-1.315-.398-2.721-.727-1.405-.33-2.383-.64-2.948-.93-.731-.37-1.275-.834-1.633-1.386a3.341 3.341 0 01-.538-1.858c0-.753.221-1.46.655-2.113.441-.653 1.075-1.151 1.915-1.495.841-.336 1.778-.511 2.804-.511 1.13 0 2.129.175 2.997.532.868.357 1.529.881 1.998 1.575.468.693.716 1.474.751 2.349l-1.936.141c-.103-.942-.455-1.656-1.061-2.14-.599-.485-1.488-.72-2.659-.72-1.22 0-2.115.222-2.673.66-.558.437-.841.962-.841 1.581 0 .539.2.976.593 1.326.385.343 1.405.7 3.045 1.064 1.639.363 2.769.68 3.382.949.889.403 1.544.908 1.971 1.52.42.613.633 1.32.633 2.121 0 .794-.234 1.542-.695 2.248-.469.7-1.137 1.252-2.005 1.643-.875.39-1.853.585-2.942.585-1.385 0-2.542-.195-3.472-.592-.937-.39-1.667-.983-2.198-1.777-.537-.78-.813-1.676-.84-2.679zm15.198 4.798v-14.93h2.018v6.133h7.943v-6.132h2.019v14.923h-2.019v-7.028h-7.943v7.034h-2.018zm14.942-7.269c0-2.477.682-4.416 2.04-5.816 1.364-1.4 3.12-2.1 5.27-2.1 1.412 0 2.68.33 3.817.99a6.528 6.528 0 012.59 2.752c.592 1.178.889 2.511.889 4.005 0 1.515-.31 2.868-.937 4.06-.627 1.19-1.509 2.1-2.66 2.712a7.741 7.741 0 01-3.706.922c-1.44 0-2.721-.336-3.858-1.016a6.633 6.633 0 01-2.577-2.78 8.44 8.44 0 01-.868-3.73zm2.088.027c0 1.797.496 3.217 1.488 4.247.992 1.037 2.232 1.555 3.727 1.555 1.523 0 2.776-.525 3.755-1.568.985-1.044 1.474-2.531 1.474-4.45 0-1.211-.214-2.275-.634-3.184-.42-.908-1.033-1.608-1.846-2.106-.806-.498-1.716-.748-2.728-.748-1.433 0-2.66.478-3.693 1.44-1.026.964-1.543 2.572-1.543 4.814zm15.342 7.242v-14.93h5.76c1.013 0 1.791.048 2.321.142.751.121 1.378.357 1.888.7.51.343.916.821 1.226 1.44.31.62.462 1.3.462 2.033 0 1.273-.413 2.343-1.24 3.225-.827.881-2.322 1.319-4.478 1.319h-3.92v6.065h-2.019v.006zm2.019-7.828h3.947c1.309 0 2.233-.235 2.784-.713.551-.478.82-1.145.82-2.006 0-.626-.159-1.158-.483-1.602a2.273 2.273 0 00-1.274-.882c-.338-.088-.972-.135-1.888-.135h-3.906v5.338z" fill="#263238"/><rect x="101" y="23.279" width="13" height="13" rx="6.5" stroke="#263238" stroke-width="2"/><rect x="84" y="23.279" width="13" height="13" rx="6.5" stroke="#263238" stroke-width="2"/></svg>