<svg width="48" height="48" fill="none" xmlns="http://www.w3.org/2000/svg"><g clip-path="url(#clip0_1_10111)"><path d="M33.295 48c11.019 0 17.307-12.625 13.672-25.747-3.634-13.122-13.001-4.927-20.3-17.027C18.654-8.064 1.387 6.339 0 22.253.53 30.835 7.93 48 33.295 48z" fill="#E8F3FE"/><path d="M20.373 12.9l-.878 1.13-.002.003a.913.913 0 01-.418.301l-1.336.478 2.634-1.912zm0 0a1.844 1.844 0 011.984-.628h.002l1.356.39c.17.055.363.055.532 0l1.357-.39h.001c.736-.217 1.53.04 1.984.627l.878 1.131.003.003c.104.13.243.243.417.301l1.336.478a1.848 1.848 0 011.231 1.67l.044 1.41c0 .189.056.36.17.505l.808 1.169.002.002c.434.606.434 1.45 0 2.055l-.002.003-.812 1.174v.002a.893.893 0 00-.166.498l-.044 1.41a1.847 1.847 0 01-1.23 1.67l-9.85-13.48zm0 0l9.851 13.48-9.85-13.48zm-3.864 3.58v.001l-.044 1.41a.893.893 0 01-.165.498v.002l-.81 1.17a1.942 1.942 0 00.02 2.088l.807 1.166a.8.8 0 01.17.505l.044 1.41v.001c.02.743.514 1.413 1.23 1.67l.7.238.19.064-.07.188-2.523 6.827a.446.446 0 00.122.482c.14.123.342.154.514.077a2.643 2.643 0 013.505 1.27c.075.162.24.257.415.257h.013c.2-.02.36-.132.417-.302l.001-.005 2.524-6.87.026-.074.07-.035.044-.021.012-.006.013-.005a.879.879 0 01.536 0l1.357.39c.737.217 1.53-.04 1.985-.628l.79-1.022.217-.28.121.332 2.02 5.501.102.28-.298-.018a3.635 3.635 0 00-2.75.99l-.214.206-.104-.279-1.14-3.065c-.097-.254-.36-.366-.58-.279-.247.099-.369.365-.285.572l.002.006 1.558 4.261c.058.16.227.288.418.307h.013a.466.466 0 00.417-.26 2.643 2.643 0 013.504-1.266L16.51 16.48zm0 0l14.893 17.754L16.508 16.48zm0 0a1.847 1.847 0 011.23-1.67l-1.23 1.67zm14.893 17.754a.482.482 0 00.513-.078.446.446 0 00.122-.481l-2.502-6.85-.068-.186.188-.065.57-.195 1.177 7.855zm0 0l-1.178-7.855 1.178 7.855zm-11.71-6.857l-.216-.274-.12.327-2.019 5.435-.098.263h.544c.42 0 .834.063 1.226.205.487.19.921.438 1.27.783l.215.213.105-.285 1.777-4.826.097-.263h-.28c-.064 0-.127.006-.18.011h-.004c-.048.006-.096.01-.145.01a1.892 1.892 0 01-1.47-.708l-.703-.891zm8.445-6.771c0-2.262-1.866-4.109-4.145-4.109-2.278 0-4.144 1.847-4.144 4.109s1.866 4.109 4.144 4.109c2.28 0 4.145-1.847 4.145-4.11v.001zM23.53 19.52c0-.26.196-.457.463-.457s.463.197.463.457v2.174c0 .26-.196.457-.463.457a.448.448 0 01-.463-.457V19.52z" fill="#2C70C1" stroke="#2C70C1" stroke-width=".391"/></g><defs><clipPath id="clip0_1_10111"><path fill="#fff" d="M0 0h48v48H0z"/></clipPath></defs></svg>