<svg width="500" height="460" fill="none" xmlns="http://www.w3.org/2000/svg"><g clip-path="url(#clip0_1_124)"><path fill-rule="evenodd" clip-rule="evenodd" d="M213.703 366.878a192.913 192.913 0 00-40.683 4.748c-15.201 3.438-24.899 15.321-22.713 27.834 2.45 14.039 15.685 25.324 33.046 28.181 6.715 1.105 14.344 2.089 22.891 2.953 38.828 3.925 72.215 1.521 91.935 1.521s17.034-.741 39.085-1.521c22.05-.779 12.545-.266 44.203-1.422 11.618-.425 23.234-.869 34.849-1.333a35.73 35.73 0 003.659-.334c16.542 1.828 38.722 7.914 34.501 4.113-3.054-2.752-7.742-8.238-14.063-16.459 2.122-3.447 3.11-7.269 2.872-11.106l-.863-14.417c-.704-11.745-12.491-21.121-27.179-21.619-22.343-.759-41.875-1.139-58.599-1.139-34.363 0-31.451 2.138-68.596 2.138s-40.093-2.492-74.345-2.138z" fill="#F1F6D2"/><path d="M210.327 380.436h-4.113v11.408h-1.679v-11.408h-4.104v-1.389h9.896v1.389zm3.83 3.049c.72-.884 1.658-1.327 2.812-1.327 2.01 0 3.024 1.134 3.041 3.402v6.284h-1.626v-6.293c-.006-.686-.164-1.193-.474-1.521-.305-.328-.783-.492-1.433-.492-.527 0-.99.141-1.389.422-.398.281-.709.65-.931 1.107v6.777h-1.626v-13.5h1.626v5.141zm10.614 8.359h-1.626v-9.51h1.626v9.51zm-1.757-12.032a.98.98 0 01.237-.668c.164-.182.404-.273.721-.273.316 0 .556.091.72.273a.959.959 0 01.246.668.93.93 0 01-.246.659c-.164.175-.404.263-.72.263-.317 0-.557-.088-.721-.263a.95.95 0 01-.237-.659zm10.465 9.509c0-.439-.167-.779-.501-1.019-.328-.246-.905-.457-1.732-.633-.82-.176-1.473-.387-1.96-.633-.48-.246-.837-.539-1.072-.879-.228-.34-.343-.744-.343-1.213 0-.779.329-1.438.985-1.977.662-.539 1.506-.809 2.531-.809 1.078 0 1.951.279 2.619.835.674.557 1.011 1.269 1.011 2.136h-1.635c0-.445-.19-.829-.571-1.151-.375-.323-.85-.484-1.424-.484-.592 0-1.055.129-1.389.387a1.218 1.218 0 00-.501 1.011c0 .392.156.688.466.887.311.2.87.39 1.679.572.814.181 1.474.398 1.977.65.504.252.876.557 1.117.914.246.352.369.782.369 1.292 0 .85-.34 1.532-1.02 2.048-.679.51-1.561.765-2.645.765-.762 0-1.436-.135-2.022-.405-.586-.269-1.046-.644-1.38-1.125a2.76 2.76 0 01-.492-1.573h1.626c.029.545.246.979.651 1.301.41.316.949.474 1.617.474.615 0 1.107-.123 1.476-.369.375-.252.563-.586.563-1.002zm15.2 2.523c-.094-.188-.17-.522-.229-1.002-.755.785-1.658 1.178-2.707 1.178-.937 0-1.708-.264-2.311-.791-.598-.534-.897-1.208-.897-2.022 0-.99.375-1.758 1.125-2.303.756-.55 1.817-.826 3.182-.826h1.582v-.747c0-.568-.17-1.019-.51-1.353-.34-.34-.841-.51-1.503-.51-.58 0-1.066.146-1.459.439-.392.293-.589.648-.589 1.064h-1.634c0-.475.167-.932.501-1.371.34-.446.797-.797 1.371-1.055a4.64 4.64 0 011.907-.387c1.096 0 1.954.276 2.575.826.621.545.944 1.298.967 2.259v4.377c0 .873.111 1.568.334 2.083v.141h-1.705zm-2.698-1.24c.509 0 .993-.131 1.45-.395.457-.264.788-.606.993-1.028v-1.952h-1.274c-1.993 0-2.989.583-2.989 1.75 0 .509.17.908.51 1.195.34.287.776.43 1.31.43zm10.992.088c.58 0 1.087-.175 1.521-.527.433-.352.674-.791.72-1.318h1.539c-.03.545-.217 1.063-.563 1.555a3.694 3.694 0 01-1.389 1.178 3.965 3.965 0 01-1.828.44c-1.295 0-2.326-.431-3.093-1.292-.762-.868-1.143-2.051-1.143-3.551v-.273c0-.925.17-1.749.51-2.469.34-.721.826-1.281 1.459-1.679.638-.399 1.391-.598 2.258-.598 1.067 0 1.952.32 2.655.958.709.639 1.087 1.468 1.134 2.488h-1.539c-.046-.616-.281-1.12-.703-1.512-.416-.399-.931-.598-1.547-.598-.826 0-1.467.299-1.924.897-.451.591-.677 1.45-.677 2.575v.307c0 1.096.226 1.94.677 2.532.451.591 1.095.887 1.933.887zm7.706-8.358l.053 1.195c.726-.914 1.675-1.371 2.847-1.371 2.01 0 3.024 1.134 3.041 3.402v6.284h-1.626v-6.293c-.006-.686-.164-1.193-.474-1.521-.305-.328-.783-.492-1.433-.492-.527 0-.99.141-1.389.422-.398.281-.709.65-.931 1.107v6.777h-1.626v-9.51h1.538zm12.9 9.686c-1.289 0-2.338-.422-3.147-1.266-.808-.85-1.213-1.983-1.213-3.401v-.299c0-.944.179-1.784.536-2.523.364-.744.868-1.324 1.512-1.74a3.804 3.804 0 012.109-.633c1.237 0 2.198.407 2.883 1.222.686.814 1.029 1.98 1.029 3.498v.677h-6.443c.024.937.296 1.696.818 2.276.527.574 1.195.861 2.004.861.574 0 1.06-.117 1.459-.351a3.664 3.664 0 001.045-.932l.994.774c-.797 1.224-1.993 1.837-3.586 1.837zm-.203-8.526a2.16 2.16 0 00-1.652.721c-.445.474-.721 1.142-.826 2.004h4.764v-.123c-.047-.826-.27-1.465-.668-1.916-.399-.457-.938-.686-1.618-.686zm12.915-1.16l.044 1.055c.698-.821 1.638-1.231 2.822-1.231 1.33 0 2.235.51 2.715 1.53a3.61 3.61 0 011.231-1.108c.51-.281 1.11-.422 1.802-.422 2.086 0 3.146 1.105 3.181 3.314v6.372h-1.626v-6.276c0-.679-.155-1.186-.465-1.52-.311-.34-.833-.51-1.565-.51-.603 0-1.104.182-1.503.545-.398.357-.63.841-.694 1.45v6.311h-1.635v-6.232c0-1.383-.677-2.074-2.03-2.074-1.067 0-1.796.454-2.189 1.362v6.944h-1.626v-9.51h1.538zm18.763 9.686c-1.29 0-2.338-.422-3.147-1.266-.809-.85-1.213-1.983-1.213-3.401v-.299c0-.944.179-1.784.536-2.523.364-.744.868-1.324 1.512-1.74a3.802 3.802 0 012.109-.633c1.237 0 2.198.407 2.883 1.222.686.814 1.029 1.98 1.029 3.498v.677h-6.443c.024.937.296 1.696.818 2.276.527.574 1.195.861 2.003.861.575 0 1.061-.117 1.459-.351a3.654 3.654 0 001.046-.932l.993.774c-.796 1.224-1.992 1.837-3.585 1.837zm-.203-8.526a2.16 2.16 0 00-1.652.721c-.445.474-.721 1.142-.826 2.004h4.764v-.123c-.047-.826-.27-1.465-.668-1.916-.399-.457-.938-.686-1.618-.686zm5.966 3.516c0-1.459.345-2.631 1.037-3.516.691-.89 1.596-1.336 2.716-1.336 1.113 0 1.995.381 2.645 1.143v-4.957h1.626v13.5h-1.494l-.079-1.02c-.651.797-1.556 1.196-2.716 1.196-1.102 0-2.001-.452-2.698-1.354-.692-.902-1.037-2.08-1.037-3.533v-.123zm1.626.184c0 1.078.222 1.922.668 2.532.445.609 1.06.914 1.845.914 1.032 0 1.785-.463 2.259-1.389v-4.368c-.486-.897-1.233-1.345-2.241-1.345-.797 0-1.418.308-1.863.923-.446.615-.668 1.526-.668 2.733zm11.256 4.65h-1.626v-9.51h1.626v9.51zm-1.758-12.032a.98.98 0 01.237-.668c.164-.182.405-.273.721-.273.317 0 .557.091.721.273a.959.959 0 01.246.668.93.93 0 01-.246.659c-.164.175-.404.263-.721.263-.316 0-.557-.088-.721-.263a.95.95 0 01-.237-.659zm8.743 10.88c.58 0 1.087-.175 1.52-.527.434-.352.674-.791.721-1.318h1.538c-.029.545-.217 1.063-.562 1.555a3.694 3.694 0 01-1.389 1.178 3.968 3.968 0 01-1.828.44c-1.295 0-2.326-.431-3.094-1.292-.762-.868-1.143-2.051-1.143-3.551v-.273c0-.925.17-1.749.51-2.469.34-.721.826-1.281 1.459-1.679.639-.399 1.392-.598 2.259-.598 1.066 0 1.951.32 2.654.958.709.639 1.087 1.468 1.134 2.488h-1.538c-.047-.616-.281-1.12-.703-1.512-.416-.399-.932-.598-1.547-.598-.826 0-1.468.299-1.925.897-.451.591-.677 1.45-.677 2.575v.307c0 1.096.226 1.94.677 2.532.451.591 1.096.887 1.934.887zm7.934 1.152h-1.626v-9.51h1.626v9.51zm-1.758-12.032a.98.98 0 01.237-.668c.164-.182.405-.273.721-.273.316 0 .557.091.721.273a.959.959 0 01.246.668.93.93 0 01-.246.659c-.164.175-.405.263-.721.263-.316 0-.557-.088-.721-.263a.95.95 0 01-.237-.659zm6.466 2.522l.053 1.195c.727-.914 1.676-1.371 2.848-1.371 2.009 0 3.023 1.134 3.041 3.402v6.284h-1.626v-6.293c-.006-.686-.164-1.193-.475-1.521-.305-.328-.782-.492-1.433-.492-.527 0-.99.141-1.388.422a2.86 2.86 0 00-.932 1.107v6.777h-1.626v-9.51h1.538zm12.9 9.686c-1.289 0-2.338-.422-3.146-1.266-.809-.85-1.213-1.983-1.213-3.401v-.299c0-.944.178-1.784.536-2.523.363-.744.867-1.324 1.512-1.74a3.8 3.8 0 012.109-.633c1.236 0 2.197.407 2.883 1.222.685.814 1.028 1.98 1.028 3.498v.677h-6.442c.023.937.296 1.696.817 2.276.527.574 1.195.861 2.004.861.574 0 1.06-.117 1.459-.351a3.68 3.68 0 001.046-.932l.993.774c-.797 1.224-1.992 1.837-3.586 1.837zm-.202-8.526a2.16 2.16 0 00-1.652.721c-.446.474-.721 1.142-.827 2.004h4.764v-.123c-.047-.826-.269-1.465-.668-1.916-.398-.457-.937-.686-1.617-.686zm13.152 8.35h-1.626v-9.51h1.626v9.51zm-1.758-12.032c0-.264.079-.487.238-.668.164-.182.404-.273.72-.273.317 0 .557.091.721.273a.959.959 0 01.246.668.93.93 0 01-.246.659c-.164.175-.404.263-.721.263-.316 0-.556-.088-.72-.263a.947.947 0 01-.238-.659zm10.466 9.509c0-.439-.167-.779-.501-1.019-.329-.246-.906-.457-1.732-.633-.82-.176-1.473-.387-1.96-.633-.48-.246-.838-.539-1.072-.879-.229-.34-.343-.744-.343-1.213 0-.779.328-1.438.985-1.977.662-.539 1.505-.809 2.531-.809 1.078 0 1.951.279 2.619.835.674.557 1.011 1.269 1.011 2.136h-1.635c0-.445-.191-.829-.571-1.151-.375-.323-.85-.484-1.424-.484-.592 0-1.055.129-1.389.387a1.218 1.218 0 00-.501 1.011c0 .392.155.688.466.887.311.2.87.39 1.679.572.814.181 1.473.398 1.977.65s.876.557 1.116.914c.247.352.37.782.37 1.292 0 .85-.34 1.532-1.02 2.048-.68.51-1.561.765-2.645.765-.762 0-1.436-.135-2.022-.405-.586-.269-1.046-.644-1.38-1.125a2.76 2.76 0 01-.492-1.573h1.626c.029.545.246.979.65 1.301.41.316.95.474 1.618.474.615 0 1.107-.123 1.476-.369.375-.252.563-.586.563-1.002zm-174.782 24.582c-.633.744-1.562 1.117-2.787 1.117-1.013 0-1.787-.293-2.32-.879-.527-.592-.794-1.465-.8-2.62v-6.187h1.626v6.144c0 1.441.586 2.162 1.758 2.162 1.242 0 2.068-.463 2.479-1.389v-6.917h1.626v9.51h-1.547l-.035-.941zm12.653-3.709c0 1.448-.331 2.614-.993 3.498-.662.885-1.558 1.328-2.689 1.328-1.155 0-2.063-.367-2.725-1.099v4.579h-1.626v-13.166h1.485l.08 1.055c.662-.821 1.582-1.231 2.759-1.231 1.143 0 2.045.431 2.707 1.292.668.862 1.002 2.06 1.002 3.595v.149zm-1.626-.184c0-1.072-.228-1.919-.685-2.54-.457-.621-1.084-.932-1.881-.932-.984 0-1.723.437-2.215 1.31v4.544c.486.867 1.231 1.3 2.233 1.3.779 0 1.397-.307 1.854-.922.463-.622.694-1.541.694-2.76zm9.798 2.311c0-.439-.167-.779-.501-1.019-.328-.246-.906-.457-1.732-.633-.82-.176-1.473-.387-1.96-.633-.48-.246-.838-.539-1.072-.879-.229-.34-.343-.744-.343-1.213 0-.779.328-1.438.985-1.977.662-.539 1.505-.809 2.531-.809 1.078 0 1.951.279 2.619.835.674.557 1.011 1.269 1.011 2.136h-1.635c0-.445-.19-.829-.571-1.151-.375-.323-.85-.484-1.424-.484-.592 0-1.055.129-1.389.387a1.218 1.218 0 00-.501 1.011c0 .392.155.688.466.887.311.2.87.39 1.679.572.814.181 1.473.398 1.977.65s.876.557 1.116.914c.247.352.37.782.37 1.292 0 .85-.34 1.532-1.02 2.048-.68.51-1.561.765-2.645.765-.762 0-1.436-.135-2.022-.405-.586-.269-1.046-.644-1.38-1.125a2.76 2.76 0 01-.492-1.573h1.626c.029.545.246.979.65 1.301.411.316.95.474 1.618.474.615 0 1.107-.123 1.476-.369.375-.252.563-.586.563-1.002zm8.25 2.699c-1.289 0-2.338-.422-3.146-1.266-.809-.85-1.213-1.983-1.213-3.401v-.299c0-.944.178-1.784.536-2.523.363-.744.867-1.324 1.512-1.74a3.8 3.8 0 012.109-.633c1.236 0 2.197.407 2.883 1.222.685.814 1.028 1.98 1.028 3.498v.677h-6.442c.023.937.296 1.696.817 2.276.527.574 1.195.861 2.004.861.574 0 1.061-.117 1.459-.351a3.68 3.68 0 001.046-.932l.993.774c-.797 1.224-1.992 1.837-3.586 1.837zm-.202-8.526a2.16 2.16 0 00-1.652.721c-.446.474-.721 1.142-.827 2.004h4.764v-.123c-.047-.826-.269-1.465-.668-1.916-.398-.457-.937-.686-1.617-.686zm8.567-3.463v2.303h1.775v1.257h-1.775v5.897c0 .381.079.668.237.862.158.187.428.281.809.281.187 0 .445-.035.773-.106v1.319a4.725 4.725 0 01-1.248.176c-.727 0-1.274-.22-1.644-.66-.369-.439-.553-1.063-.553-1.872v-5.897h-1.732v-1.257h1.732v-2.303h1.626zm6.448 0v2.303h1.776v1.257h-1.776v5.897c0 .381.08.668.238.862.158.187.427.281.808.281.188 0 .446-.035.774-.106v1.319a4.725 4.725 0 01-1.248.176c-.727 0-1.275-.22-1.644-.66-.369-.439-.554-1.063-.554-1.872v-5.897h-1.731v-1.257h1.731v-2.303h1.626zm6.01 11.813h-1.626v-9.51H257v9.51zm-1.758-12.032a.98.98 0 01.237-.668c.164-.182.404-.273.721-.273.316 0 .556.091.721.273a.959.959 0 01.246.668.93.93 0 01-.246.659c-.165.175-.405.263-.721.263-.317 0-.557-.088-.721-.263a.95.95 0 01-.237-.659zm6.466 2.522l.053 1.195c.726-.914 1.676-1.371 2.847-1.371 2.01 0 3.024 1.134 3.041 3.402v6.284h-1.625v-6.293c-.006-.686-.165-1.193-.475-1.521-.305-.328-.782-.492-1.433-.492-.527 0-.99.141-1.388.422a2.86 2.86 0 00-.932 1.107v6.777h-1.626v-9.51h1.538zm8.567 4.676c0-1.483.343-2.66 1.028-3.533.686-.879 1.594-1.319 2.725-1.319 1.16 0 2.065.41 2.716 1.231l.079-1.055h1.485v9.281c0 1.231-.366 2.2-1.099 2.909-.726.709-1.705 1.064-2.935 1.064a4.894 4.894 0 01-2.013-.44c-.656-.293-1.157-.694-1.503-1.204l.844-.975c.697.861 1.55 1.292 2.558 1.292.791 0 1.406-.223 1.845-.668.446-.446.668-1.072.668-1.881v-.817c-.65.75-1.538 1.125-2.663 1.125-1.113 0-2.015-.449-2.707-1.345-.685-.897-1.028-2.118-1.028-3.665zm1.635.184c0 1.073.219 1.916.659 2.532.439.609 1.055.914 1.846.914 1.025 0 1.778-.466 2.258-1.398V407.9c-.498-.908-1.245-1.362-2.241-1.362-.791 0-1.409.308-1.854.923-.446.615-.668 1.526-.668 2.733zm15.973-4.86l.044 1.055c.697-.821 1.638-1.231 2.821-1.231 1.331 0 2.236.51 2.716 1.53a3.61 3.61 0 011.231-1.108c.509-.281 1.11-.422 1.801-.422 2.086 0 3.147 1.105 3.182 3.314v6.372h-1.626v-6.276c0-.679-.155-1.186-.466-1.52-.31-.34-.832-.51-1.564-.51-.604 0-1.105.182-1.503.545-.398.357-.63.841-.694 1.45v6.311h-1.635v-6.232c0-1.383-.677-2.074-2.03-2.074-1.067 0-1.796.454-2.189 1.362v6.944h-1.626v-9.51h1.538zm17.927 7.128l2.215-7.128h1.74l-3.823 10.978c-.592 1.582-1.532 2.373-2.821 2.373l-.308-.027-.606-.114v-1.318l.439.035c.551 0 .979-.112 1.284-.334.31-.223.565-.63.764-1.222l.361-.967-3.393-9.404h1.775l2.373 7.128zm16.536-.141c0-.439-.167-.779-.501-1.019-.328-.246-.905-.457-1.731-.633-.82-.176-1.474-.387-1.96-.633-.48-.246-.838-.539-1.072-.879-.229-.34-.343-.744-.343-1.213 0-.779.328-1.438.984-1.977.662-.539 1.506-.809 2.532-.809 1.078 0 1.951.279 2.619.835.674.557 1.01 1.269 1.01 2.136h-1.634c0-.445-.191-.829-.572-1.151-.375-.323-.849-.484-1.423-.484-.592 0-1.055.129-1.389.387a1.218 1.218 0 00-.501 1.011c0 .392.155.688.466.887.31.2.87.39 1.678.572.815.181 1.474.398 1.978.65s.876.557 1.116.914c.246.352.369.782.369 1.292 0 .85-.339 1.532-1.019 2.048-.68.51-1.562.765-2.646.765-.761 0-1.435-.135-2.021-.405-.586-.269-1.046-.644-1.38-1.125a2.76 2.76 0 01-.492-1.573h1.626c.029.545.246.979.65 1.301.41.316.949.474 1.617.474.616 0 1.108-.123 1.477-.369.375-.252.562-.586.562-1.002zm6.511-9.29v2.303h1.775v1.257h-1.775v5.897c0 .381.079.668.237.862.158.187.428.281.808.281.188 0 .446-.035.774-.106v1.319a4.725 4.725 0 01-1.248.176c-.727 0-1.275-.22-1.644-.66-.369-.439-.553-1.063-.553-1.872v-5.897h-1.732v-1.257h1.732v-2.303h1.626zm3.636 6.97c0-.932.181-1.77.545-2.514.369-.744.879-1.318 1.529-1.722.656-.405 1.403-.607 2.241-.607 1.295 0 2.341.448 3.138 1.345.803.896 1.204 2.089 1.204 3.577v.114c0 .926-.179 1.758-.536 2.496a4.006 4.006 0 01-1.521 1.714c-.656.41-1.412.616-2.267.616-1.289 0-2.335-.449-3.138-1.345-.797-.897-1.195-2.083-1.195-3.56v-.114zm1.635.193c0 1.055.243 1.902.729 2.54.492.639 1.148.958 1.969.958.826 0 1.482-.322 1.969-.966.486-.651.729-1.559.729-2.725 0-1.043-.249-1.887-.747-2.531-.492-.651-1.148-.976-1.969-.976-.803 0-1.45.319-1.942.958s-.738 1.553-.738 2.742zm11.15-4.86l.044 1.055c.698-.821 1.638-1.231 2.822-1.231 1.33 0 2.235.51 2.715 1.53a3.61 3.61 0 011.231-1.108c.51-.281 1.11-.422 1.802-.422 2.086 0 3.146 1.105 3.181 3.314v6.372h-1.626v-6.276c0-.679-.155-1.186-.466-1.52-.31-.34-.832-.51-1.564-.51-.603 0-1.104.182-1.503.545-.398.357-.63.841-.694 1.45v6.311h-1.635v-6.232c0-1.383-.677-2.074-2.03-2.074-1.067 0-1.796.454-2.189 1.362v6.944h-1.626v-9.51h1.538zm20.687 9.51c-.093-.188-.17-.522-.228-1.002-.756.785-1.658 1.178-2.707 1.178-.938 0-1.708-.264-2.312-.791-.597-.534-.896-1.208-.896-2.022 0-.99.375-1.758 1.125-2.303.756-.55 1.816-.826 3.181-.826h1.582v-.747c0-.568-.169-1.019-.509-1.353-.34-.34-.841-.51-1.503-.51-.58 0-1.067.146-1.459.439-.393.293-.589.648-.589 1.064h-1.635c0-.475.167-.932.501-1.371.34-.446.797-.797 1.371-1.055a4.64 4.64 0 011.907-.387c1.096 0 1.955.276 2.576.826.621.545.943 1.298.966 2.259v4.377c0 .873.112 1.568.334 2.083v.141h-1.705zm-2.698-1.24c.51 0 .993-.131 1.45-.395.457-.264.788-.606.993-1.028v-1.952h-1.274c-1.992 0-2.988.583-2.988 1.75 0 .509.17.908.51 1.195.339.287.776.43 1.309.43zm10.993.088c.58 0 1.087-.175 1.52-.527.434-.352.674-.791.721-1.318h1.538c-.029.545-.217 1.063-.563 1.555a3.683 3.683 0 01-1.388 1.178 3.968 3.968 0 01-1.828.44c-1.295 0-2.326-.431-3.094-1.292-.762-.868-1.143-2.051-1.143-3.551v-.273c0-.925.17-1.749.51-2.469.34-.721.826-1.281 1.459-1.679.639-.399 1.392-.598 2.259-.598 1.066 0 1.951.32 2.654.958.709.639 1.087 1.468 1.134 2.488h-1.538c-.047-.616-.281-1.12-.703-1.512-.416-.399-.932-.598-1.547-.598-.826 0-1.468.299-1.925.897-.451.591-.677 1.45-.677 2.575v.307c0 1.096.226 1.94.677 2.532.451.591 1.096.887 1.934.887zm7.793-7.207c.721-.884 1.658-1.327 2.813-1.327 2.009 0 3.023 1.134 3.041 3.402v6.284h-1.626v-6.293c-.006-.686-.164-1.193-.475-1.521-.305-.328-.782-.492-1.433-.492-.527 0-.99.141-1.388.422a2.86 2.86 0 00-.932 1.107v6.777h-1.626v-13.5h1.626v5.141zm8.883 7.506c0-.281.082-.515.246-.703.17-.187.422-.281.756-.281s.586.094.756.281a.988.988 0 01.264.703c0 .27-.088.495-.264.677-.17.182-.422.272-.756.272s-.586-.09-.756-.272a.973.973 0 01-.246-.677z" fill="#0B4A72"/></g><g clip-path="url(#clip1_1_124)"><path fill-rule="evenodd" clip-rule="evenodd" d="M268.986 248.882a213.95 213.95 0 0145.352 5.323c16.946 3.856 27.756 17.179 25.32 31.208-2.732 15.741-17.485 28.394-36.839 31.597-7.485 1.239-15.99 2.343-25.518 3.311-43.283 4.401-80.501 1.705-102.484 1.705-21.983 0-18.988-.831-43.57-1.705-24.58-.873-13.984-.298-49.276-1.594-12.95-.476-25.9-.975-38.848-1.495a39.327 39.327 0 01-4.078-.374c-18.441 2.049-43.166 8.873-38.461 4.612 3.405-3.086 8.63-9.237 15.677-18.454-2.365-3.865-3.467-8.151-3.202-12.453l.963-16.164c.784-13.168 13.924-23.681 30.298-24.239 24.906-.852 46.68-1.278 65.323-1.278 38.307 0 35.06 2.397 76.468 2.397 41.407 0 44.693-2.793 82.875-2.397z" fill="#F8E2EE"/><path d="M53.665 269.047l4.184 10.441 4.183-10.441h2.189v12.797h-1.688v-4.984l.158-5.379-4.2 10.363h-1.293l-4.192-10.336.167 5.352v4.984h-1.688v-12.797h2.18zm16.952 10.415l2.215-7.128h1.74l-3.823 10.978c-.592 1.582-1.533 2.373-2.822 2.373l-.307-.027-.607-.114v-1.318l.44.035c.55 0 .978-.112 1.283-.334.31-.223.565-.63.764-1.222l.36-.967-3.392-9.404h1.776l2.373 7.128zm12.528-7.128l.044 1.055c.697-.821 1.638-1.231 2.821-1.231 1.33 0 2.235.51 2.716 1.53a3.604 3.604 0 011.23-1.108c.51-.281 1.11-.422 1.802-.422 2.086 0 3.147 1.105 3.182 3.314v6.372h-1.626v-6.276c0-.679-.155-1.186-.466-1.52-.31-.34-.832-.51-1.564-.51-.604 0-1.105.182-1.503.545-.399.357-.63.841-.695 1.45v6.311h-1.635v-6.232c0-1.383-.676-2.074-2.03-2.074-1.066 0-1.796.454-2.188 1.362v6.944h-1.626v-9.51h1.538zm18.762 9.686c-1.289 0-2.338-.422-3.147-1.266-.808-.85-1.212-1.983-1.212-3.401v-.299c0-.944.178-1.784.536-2.523.363-.744.867-1.324 1.511-1.74a3.802 3.802 0 012.11-.633c1.236 0 2.197.407 2.883 1.222.685.814 1.028 1.98 1.028 3.498v.677h-6.442c.023.937.295 1.696.817 2.276.527.574 1.195.861 2.004.861.574 0 1.06-.117 1.459-.351a3.68 3.68 0 001.046-.932l.993.774c-.797 1.224-1.992 1.837-3.586 1.837zm-.202-8.526a2.16 2.16 0 00-1.652.721c-.446.474-.721 1.142-.827 2.004h4.764v-.123c-.047-.826-.27-1.465-.668-1.916-.398-.457-.937-.686-1.617-.686zm5.965 3.516c0-1.459.346-2.631 1.037-3.516.692-.89 1.597-1.336 2.716-1.336 1.113 0 1.995.381 2.646 1.143v-4.957h1.626v13.5H114.2l-.079-1.02c-.65.797-1.555 1.196-2.716 1.196-1.101 0-2.001-.452-2.698-1.354-.691-.902-1.037-2.08-1.037-3.533v-.123zm1.626.184c0 1.078.223 1.922.668 2.532.445.609 1.061.914 1.846.914 1.031 0 1.784-.463 2.259-1.389v-4.368c-.487-.897-1.234-1.345-2.242-1.345-.797 0-1.418.308-1.863.923-.445.615-.668 1.526-.668 2.733zm11.256 4.65h-1.626v-9.51h1.626v9.51zm-1.757-12.032a.98.98 0 01.237-.668c.164-.182.404-.273.721-.273.316 0 .556.091.72.273a.959.959 0 01.246.668.93.93 0 01-.246.659c-.164.175-.404.263-.72.263-.317 0-.557-.088-.721-.263a.95.95 0 01-.237-.659zm8.742 10.88c.58 0 1.087-.175 1.521-.527.433-.352.674-.791.72-1.318h1.538c-.029.545-.216 1.063-.562 1.555a3.694 3.694 0 01-1.389 1.178 3.965 3.965 0 01-1.828.44c-1.295 0-2.326-.431-3.094-1.292-.761-.868-1.142-2.051-1.142-3.551v-.273c0-.925.17-1.749.51-2.469.339-.721.826-1.281 1.459-1.679.638-.399 1.391-.598 2.258-.598 1.067 0 1.952.32 2.655.958.709.639 1.087 1.468 1.133 2.488h-1.538c-.046-.616-.281-1.12-.703-1.512-.416-.399-.931-.598-1.547-.598-.826 0-1.467.299-1.924.897-.452.591-.677 1.45-.677 2.575v.307c0 1.096.225 1.94.677 2.532.451.591 1.095.887 1.933.887zm7.934 1.152h-1.626v-9.51h1.626v9.51zm-1.758-12.032c0-.264.08-.487.238-.668.164-.182.404-.273.72-.273.317 0 .557.091.721.273a.959.959 0 01.246.668.93.93 0 01-.246.659c-.164.175-.404.263-.721.263-.316 0-.556-.088-.72-.263a.951.951 0 01-.238-.659zm6.467 2.522l.052 1.195c.727-.914 1.676-1.371 2.848-1.371 2.01 0 3.023 1.134 3.041 3.402v6.284h-1.626v-6.293c-.006-.686-.164-1.193-.475-1.521-.304-.328-.782-.492-1.432-.492-.527 0-.99.141-1.389.422-.398.281-.709.65-.931 1.107v6.777h-1.626v-9.51h1.538zm12.899 9.686c-1.289 0-2.337-.422-3.146-1.266-.809-.85-1.213-1.983-1.213-3.401v-.299c0-.944.179-1.784.536-2.523.364-.744.867-1.324 1.512-1.74a3.8 3.8 0 012.109-.633c1.237 0 2.198.407 2.883 1.222.686.814 1.028 1.98 1.028 3.498v.677h-6.442c.024.937.296 1.696.817 2.276.528.574 1.196.861 2.004.861.575 0 1.061-.117 1.459-.351a3.668 3.668 0 001.046-.932l.993.774c-.796 1.224-1.992 1.837-3.586 1.837zm-.202-8.526a2.16 2.16 0 00-1.652.721c-.445.474-.721 1.142-.826 2.004h4.763v-.123c-.046-.826-.269-1.465-.667-1.916-.399-.457-.938-.686-1.618-.686zm10.99 3.516c0-1.459.346-2.631 1.038-3.516.691-.89 1.596-1.336 2.715-1.336 1.114 0 1.996.381 2.646 1.143v-4.957h1.626v13.5h-1.494l-.079-1.02c-.651.797-1.556 1.196-2.716 1.196-1.102 0-2.001-.452-2.698-1.354-.692-.902-1.038-2.08-1.038-3.533v-.123zm1.626.184c0 1.078.223 1.922.668 2.532.446.609 1.061.914 1.846.914 1.031 0 1.784-.463 2.259-1.389v-4.368c-.486-.897-1.233-1.345-2.241-1.345-.797 0-1.418.308-1.864.923-.445.615-.668 1.526-.668 2.733zm9.059-.193c0-.932.182-1.77.545-2.514.37-.744.879-1.318 1.53-1.722.656-.405 1.403-.607 2.241-.607 1.295 0 2.341.448 3.138 1.345.802.896 1.204 2.089 1.204 3.577v.114c0 .926-.179 1.758-.536 2.496a4.006 4.006 0 01-1.521 1.714c-.656.41-1.412.616-2.268.616-1.289 0-2.334-.449-3.137-1.345-.797-.897-1.196-2.083-1.196-3.56v-.114zm1.635.193c0 1.055.243 1.902.73 2.54.492.639 1.148.958 1.968.958.827 0 1.483-.322 1.969-.966.487-.651.73-1.559.73-2.725 0-1.043-.249-1.887-.747-2.531-.493-.651-1.149-.976-1.969-.976-.803 0-1.45.319-1.942.958-.493.639-.739 1.553-.739 2.742zm13.568 4.826c-1.289 0-2.338-.422-3.146-1.266-.809-.85-1.213-1.983-1.213-3.401v-.299c0-.944.178-1.784.536-2.523.363-.744.867-1.324 1.512-1.74a3.8 3.8 0 012.109-.633c1.236 0 2.197.407 2.883 1.222.685.814 1.028 1.98 1.028 3.498v.677h-6.442c.023.937.296 1.696.817 2.276.527.574 1.195.861 2.004.861.574 0 1.06-.117 1.459-.351a3.68 3.68 0 001.046-.932l.993.774c-.797 1.224-1.992 1.837-3.586 1.837zm-.202-8.526a2.16 2.16 0 00-1.652.721c-.446.474-.721 1.142-.827 2.004h4.764v-.123c-.047-.826-.269-1.465-.668-1.916-.398-.457-.937-.686-1.617-.686zm11.898 5.827c0-.439-.167-.779-.501-1.019-.328-.246-.905-.457-1.732-.633-.82-.176-1.473-.387-1.96-.633-.48-.246-.837-.539-1.072-.879-.228-.34-.343-.744-.343-1.213 0-.779.328-1.438.985-1.977.662-.539 1.506-.809 2.531-.809 1.078 0 1.951.279 2.619.835.674.557 1.011 1.269 1.011 2.136h-1.635c0-.445-.19-.829-.571-1.151-.375-.323-.85-.484-1.424-.484-.592 0-1.055.129-1.389.387a1.218 1.218 0 00-.501 1.011c0 .392.156.688.466.887.311.2.87.39 1.679.572.814.181 1.473.398 1.977.65s.876.557 1.117.914c.246.352.369.782.369 1.292 0 .85-.34 1.532-1.02 2.048-.679.51-1.561.765-2.645.765-.762 0-1.436-.135-2.022-.405-.586-.269-1.046-.644-1.38-1.125a2.76 2.76 0 01-.492-1.573h1.626c.029.545.246.979.651 1.301.41.316.949.474 1.617.474.615 0 1.107-.123 1.476-.369.375-.252.563-.586.563-1.002zm5.842-6.987l.053 1.195c.726-.914 1.676-1.371 2.847-1.371 2.01 0 3.024 1.134 3.041 3.402v6.284h-1.626v-6.293c-.005-.686-.164-1.193-.474-1.521-.305-.328-.782-.492-1.433-.492-.527 0-.99.141-1.388.422a2.86 2.86 0 00-.932 1.107v6.777h-1.626v-9.51h1.538zm8.365.316l-.923-.632c.545-.762.826-1.565.844-2.409v-1.265h1.608v1.142a4.062 4.062 0 01-.439 1.758c-.282.58-.645 1.049-1.09 1.406zm6.255-2.619v2.303h1.775v1.257h-1.775v5.897c0 .381.079.668.237.862.159.187.428.281.809.281.187 0 .445-.035.773-.106v1.319a4.714 4.714 0 01-1.248.176c-.726 0-1.274-.22-1.643-.66-.369-.439-.554-1.063-.554-1.872v-5.897h-1.731v-1.257h1.731v-2.303h1.626zm14.805 9.29c0-.439-.167-.779-.501-1.019-.329-.246-.906-.457-1.732-.633-.82-.176-1.473-.387-1.96-.633-.48-.246-.838-.539-1.072-.879-.229-.34-.343-.744-.343-1.213 0-.779.328-1.438.985-1.977.662-.539 1.505-.809 2.531-.809 1.078 0 1.951.279 2.619.835.674.557 1.011 1.269 1.011 2.136h-1.635c0-.445-.191-.829-.571-1.151-.375-.323-.85-.484-1.424-.484-.592 0-1.055.129-1.389.387a1.218 1.218 0 00-.501 1.011c0 .392.155.688.466.887.31.2.87.39 1.679.572.814.181 1.473.398 1.977.65s.876.557 1.116.914c.247.352.37.782.37 1.292 0 .85-.34 1.532-1.02 2.048-.68.51-1.562.765-2.645.765-.762 0-1.436-.135-2.022-.405-.586-.269-1.046-.644-1.38-1.125a2.76 2.76 0 01-.492-1.573h1.626c.029.545.246.979.65 1.301.41.316.95.474 1.618.474.615 0 1.107-.123 1.476-.369.375-.252.563-.586.563-1.002zm8.25 2.699c-1.289 0-2.338-.422-3.146-1.266-.809-.85-1.213-1.983-1.213-3.401v-.299c0-.944.178-1.784.536-2.523.363-.744.867-1.324 1.511-1.74a3.805 3.805 0 012.11-.633c1.236 0 2.197.407 2.883 1.222.685.814 1.028 1.98 1.028 3.498v.677h-6.442c.023.937.296 1.696.817 2.276.527.574 1.195.861 2.004.861.574 0 1.06-.117 1.459-.351a3.68 3.68 0 001.046-.932l.993.774c-.797 1.224-1.992 1.837-3.586 1.837zm-.202-8.526a2.16 2.16 0 00-1.652.721c-.446.474-.721 1.142-.827 2.004h4.764v-.123c-.047-.826-.27-1.465-.668-1.916-.398-.457-.937-.686-1.617-.686zm10.307 8.526c-1.289 0-2.338-.422-3.147-1.266-.808-.85-1.212-1.983-1.212-3.401v-.299c0-.944.178-1.784.536-2.523.363-.744.867-1.324 1.511-1.74a3.805 3.805 0 012.11-.633c1.236 0 2.197.407 2.883 1.222.685.814 1.028 1.98 1.028 3.498v.677h-6.442c.023.937.295 1.696.817 2.276.527.574 1.195.861 2.004.861.574 0 1.06-.117 1.459-.351a3.68 3.68 0 001.046-.932l.993.774c-.797 1.224-1.992 1.837-3.586 1.837zm-.202-8.526c-.656 0-1.207.24-1.653.721-.445.474-.72 1.142-.826 2.004h4.764v-.123c-.047-.826-.27-1.465-.668-1.916-.398-.457-.938-.686-1.617-.686zm7.89-1.16l.044 1.055c.697-.821 1.638-1.231 2.821-1.231 1.33 0 2.235.51 2.716 1.53a3.598 3.598 0 011.23-1.108c.51-.281 1.111-.422 1.802-.422 2.086 0 3.147 1.105 3.182 3.314v6.372h-1.626v-6.276c0-.679-.155-1.186-.466-1.52-.311-.34-.832-.51-1.564-.51-.604 0-1.105.182-1.503.545-.399.357-.63.841-.695 1.45v6.311h-1.634v-6.232c0-1.383-.677-2.074-2.031-2.074-1.066 0-1.796.454-2.188 1.362v6.944h-1.626v-9.51h1.538zM53.436 293.031v2.303h1.776v1.257h-1.776v5.897c0 .381.08.668.238.862.158.187.428.281.808.281.188 0 .446-.035.774-.106v1.319a4.723 4.723 0 01-1.248.176c-.727 0-1.275-.22-1.644-.66-.369-.439-.553-1.063-.553-1.872v-5.897h-1.732v-1.257h1.731v-2.303h1.627zm3.637 6.97c0-.932.181-1.77.545-2.514.369-.744.878-1.318 1.529-1.722.656-.405 1.403-.607 2.241-.607 1.295 0 2.34.448 3.138 1.345.803.896 1.204 2.089 1.204 3.577v.114c0 .926-.179 1.758-.536 2.496a4.001 4.001 0 01-1.52 1.714c-.657.41-1.413.616-2.268.616-1.29 0-2.335-.449-3.138-1.345-.797-.897-1.195-2.083-1.195-3.56v-.114zm1.635.193c0 1.055.243 1.902.729 2.54.492.639 1.148.958 1.969.958.826 0 1.482-.322 1.968-.966.487-.651.73-1.559.73-2.725 0-1.043-.25-1.887-.747-2.531-.492-.651-1.149-.976-1.969-.976-.803 0-1.45.319-1.942.958s-.738 1.553-.738 2.742zm22.697 0c0 1.453-.334 2.622-1.002 3.507-.668.879-1.565 1.319-2.69 1.319-1.201 0-2.13-.425-2.786-1.275l-.079 1.099h-1.494v-13.5h1.626v5.036c.656-.815 1.561-1.222 2.716-1.222 1.154 0 2.06.437 2.715 1.31.663.873.994 2.068.994 3.586v.14zm-1.626-.184c0-1.108-.214-1.963-.642-2.567-.428-.603-1.043-.905-1.846-.905-1.072 0-1.842.498-2.311 1.494v4.114c.498.996 1.274 1.494 2.329 1.494.78 0 1.386-.302 1.82-.906.433-.603.65-1.511.65-2.724zm8.189 5.01c-1.29 0-2.338-.422-3.147-1.266-.808-.85-1.213-1.983-1.213-3.401v-.299c0-.944.179-1.784.536-2.523.364-.744.867-1.324 1.512-1.74a3.802 3.802 0 012.11-.633c1.236 0 2.197.407 2.882 1.222.686.814 1.029 1.98 1.029 3.498v.677h-6.443c.024.937.296 1.696.818 2.276.527.574 1.195.861 2.003.861.575 0 1.061-.117 1.46-.351a3.671 3.671 0 001.045-.932l.993.774c-.796 1.224-1.992 1.837-3.585 1.837zm-.203-8.526a2.16 2.16 0 00-1.652.721c-.445.474-.72 1.142-.826 2.004h4.763v-.123c-.046-.826-.269-1.465-.667-1.916-.399-.457-.938-.686-1.618-.686zm19.806 6.109l1.828-7.269h1.626l-2.769 9.51h-1.318l-2.311-7.207-2.25 7.207h-1.319l-2.76-9.51h1.618l1.872 7.119 2.215-7.119h1.309l2.259 7.269zm5.245-2.602c0-.932.181-1.77.544-2.514.37-.744.879-1.318 1.53-1.722.656-.405 1.403-.607 2.241-.607 1.295 0 2.341.448 3.138 1.345.802.896 1.204 2.089 1.204 3.577v.114c0 .926-.179 1.758-.536 2.496a4.006 4.006 0 01-1.521 1.714c-.656.41-1.412.616-2.267.616-1.29 0-2.335-.449-3.138-1.345-.797-.897-1.195-2.083-1.195-3.56v-.114zm1.634.193c0 1.055.243 1.902.73 2.54.492.639 1.148.958 1.969.958.826 0 1.482-.322 1.968-.966.487-.651.73-1.559.73-2.725 0-1.043-.249-1.887-.747-2.531-.493-.651-1.149-.976-1.969-.976-.803 0-1.45.319-1.942.958-.493.639-.739 1.553-.739 2.742zm14.218-3.401a4.862 4.862 0 00-.799-.062c-1.067 0-1.79.455-2.171 1.363v6.75h-1.626v-9.51h1.582l.026 1.099c.533-.85 1.289-1.275 2.268-1.275.316 0 .556.041.72.123v1.512zm4.718 3.647l-1.02 1.064v3.34h-1.626v-13.5h1.626v8.165l.87-1.046 2.962-3.129h1.978l-3.7 3.973 4.13 5.537h-1.907l-3.313-4.404zm8.795 4.404h-1.626v-9.51h1.626v9.51zm-1.758-12.032c0-.264.079-.487.238-.668.164-.182.404-.273.72-.273.317 0 .557.091.721.273a.959.959 0 01.246.668.93.93 0 01-.246.659c-.164.175-.404.263-.721.263-.316 0-.556-.088-.72-.263a.947.947 0 01-.238-.659zm6.466 2.522l.053 1.195c.727-.914 1.676-1.371 2.848-1.371 2.01 0 3.023 1.134 3.041 3.402v6.284h-1.626v-6.293c-.006-.686-.164-1.193-.475-1.521-.304-.328-.782-.492-1.432-.492-.528 0-.991.141-1.389.422a2.87 2.87 0 00-.932 1.107v6.777h-1.626v-9.51h1.538zm8.567 4.676c0-1.483.343-2.66 1.029-3.533.685-.879 1.593-1.319 2.724-1.319 1.16 0 2.066.41 2.716 1.231l.079-1.055h1.486v9.281c0 1.231-.367 2.2-1.099 2.909-.727.709-1.705 1.064-2.936 1.064a4.89 4.89 0 01-2.012-.44c-.657-.293-1.158-.694-1.503-1.204l.843-.975c.698.861 1.55 1.292 2.558 1.292.791 0 1.406-.223 1.846-.668.445-.446.668-1.072.668-1.881v-.817c-.651.75-1.538 1.125-2.663 1.125-1.114 0-2.016-.449-2.707-1.345-.686-.897-1.029-2.118-1.029-3.665zm1.635.184c0 1.073.22 1.916.659 2.532.44.609 1.055.914 1.846.914 1.025 0 1.778-.466 2.259-1.398V297.9c-.498-.908-1.245-1.362-2.241-1.362-.791 0-1.41.308-1.855.923-.445.615-.668 1.526-.668 2.733zm9.455 3.797c0-.281.082-.515.246-.703.17-.187.422-.281.756-.281s.586.094.755.281a.988.988 0 01.264.703c0 .27-.088.495-.264.677-.169.182-.421.272-.755.272s-.586-.09-.756-.272a.973.973 0 01-.246-.677z" fill="#0B4A72"/></g><g clip-path="url(#clip2_1_124)"><path fill-rule="evenodd" clip-rule="evenodd" d="M214.957 145.878a203.377 203.377 0 00-41.484 4.675c-15.501 3.387-25.389 15.09-23.16 27.413 2.499 13.826 15.993 24.94 33.696 27.754 6.847 1.088 14.626 2.057 23.342 2.908 39.591 3.865 73.635 1.498 93.743 1.498 20.108 0 17.369-.73 39.854-1.498 22.483-.767 12.791-.262 45.073-1.4 11.846-.419 23.691-.856 35.534-1.313a37.629 37.629 0 003.73-.329c16.869 1.8 39.485 7.794 35.181 4.051-3.115-2.71-7.895-8.113-14.34-16.21 2.163-3.395 3.171-7.159 2.929-10.938l-.881-14.198c-.717-11.567-12.736-20.801-27.714-21.291-22.781-.749-42.698-1.122-59.751-1.122-35.039 0-32.069 2.105-69.945 2.105-37.876 0-40.882-2.454-75.807-2.105z" fill="#D7E0E9"/><path d="M203.296 171.844h-1.688v-12.797h1.688v12.797zm10.05-8.359c.72-.884 1.658-1.327 2.812-1.327 2.01 0 3.024 1.134 3.041 3.402v6.284h-1.626v-6.293c-.006-.686-.164-1.193-.474-1.521-.305-.328-.783-.492-1.433-.492-.527 0-.99.141-1.389.422-.398.281-.709.65-.931 1.107v6.777h-1.626v-13.5h1.626v5.141zm14.719 8.359c-.094-.188-.17-.522-.229-1.002-.756.785-1.658 1.178-2.707 1.178-.937 0-1.708-.264-2.311-.791-.598-.534-.897-1.208-.897-2.022 0-.99.375-1.758 1.125-2.303.756-.55 1.817-.826 3.182-.826h1.582v-.747c0-.568-.17-1.019-.51-1.353-.34-.34-.841-.51-1.503-.51-.58 0-1.066.146-1.459.439-.392.293-.589.648-.589 1.064h-1.634c0-.475.167-.932.501-1.371.339-.446.796-.797 1.371-1.055a4.637 4.637 0 011.907-.387c1.096 0 1.954.276 2.575.826.621.545.943 1.298.967 2.259v4.377c0 .873.111 1.568.334 2.083v.141h-1.705zm-2.698-1.24c.509 0 .993-.131 1.45-.395.457-.264.788-.606.993-1.028v-1.952h-1.275c-1.992 0-2.988.583-2.988 1.75 0 .509.17.908.51 1.195.34.287.776.43 1.31.43zm10.175-.966l2.355-7.304h1.661l-3.41 9.51h-1.239l-3.445-9.51h1.661l2.417 7.304zm9.964 2.382c-1.289 0-2.338-.422-3.146-1.266-.809-.85-1.213-1.983-1.213-3.401v-.299c0-.944.178-1.784.536-2.523.363-.744.867-1.324 1.512-1.74a3.8 3.8 0 012.109-.633c1.236 0 2.197.407 2.883 1.222.685.814 1.028 1.98 1.028 3.498v.677h-6.442c.023.937.296 1.696.817 2.276.527.574 1.195.861 2.004.861.574 0 1.06-.117 1.459-.351a3.68 3.68 0 001.046-.932l.993.774c-.797 1.224-1.992 1.837-3.586 1.837zm-.202-8.526a2.16 2.16 0 00-1.652.721c-.446.474-.721 1.142-.827 2.004h4.764v-.123c-.047-.826-.269-1.465-.668-1.916-.398-.457-.937-.686-1.617-.686zm17.257 8.35c-.094-.188-.17-.522-.229-1.002-.756.785-1.658 1.178-2.707 1.178-.937 0-1.708-.264-2.311-.791-.598-.534-.897-1.208-.897-2.022 0-.99.375-1.758 1.125-2.303.756-.55 1.816-.826 3.182-.826h1.582v-.747c0-.568-.17-1.019-.51-1.353-.34-.34-.841-.51-1.503-.51-.58 0-1.066.146-1.459.439-.393.293-.589.648-.589 1.064h-1.635c0-.475.167-.932.501-1.371.34-.446.797-.797 1.371-1.055a4.645 4.645 0 011.908-.387c1.095 0 1.954.276 2.575.826.621.545.943 1.298.967 2.259v4.377c0 .873.111 1.568.334 2.083v.141h-1.705zm-2.699-1.24c.51 0 .994-.131 1.451-.395.457-.264.788-.606.993-1.028v-1.952h-1.275c-1.992 0-2.988.583-2.988 1.75 0 .509.17.908.51 1.195.34.287.776.43 1.309.43zm13.829-7.119c.721-.884 1.659-1.327 2.813-1.327 2.01 0 3.023 1.134 3.041 3.402v6.284h-1.626v-6.293c-.006-.686-.164-1.193-.475-1.521-.304-.328-.782-.492-1.432-.492-.528 0-.991.141-1.389.422a2.87 2.87 0 00-.932 1.107v6.777h-1.626v-13.5h1.626v5.141zm12.795 8.535c-1.289 0-2.338-.422-3.147-1.266-.808-.85-1.213-1.983-1.213-3.401v-.299c0-.944.179-1.784.536-2.523.364-.744.868-1.324 1.512-1.74a3.805 3.805 0 012.11-.633c1.236 0 2.197.407 2.882 1.222.686.814 1.029 1.98 1.029 3.498v.677h-6.443c.024.937.296 1.696.818 2.276.527.574 1.195.861 2.004.861.574 0 1.06-.117 1.459-.351a3.68 3.68 0 001.046-.932l.993.774c-.797 1.224-1.993 1.837-3.586 1.837zm-.202-8.526c-.657 0-1.207.24-1.653.721-.445.474-.72 1.142-.826 2.004h4.764v-.123c-.047-.826-.27-1.465-.668-1.916-.399-.457-.938-.686-1.617-.686zm12.231 8.35c-.093-.188-.169-.522-.228-1.002-.756.785-1.658 1.178-2.707 1.178-.938 0-1.708-.264-2.312-.791-.597-.534-.896-1.208-.896-2.022 0-.99.375-1.758 1.125-2.303.756-.55 1.816-.826 3.182-.826h1.582v-.747c0-.568-.17-1.019-.51-1.353-.34-.34-.841-.51-1.503-.51-.58 0-1.067.146-1.459.439-.393.293-.589.648-.589 1.064h-1.635c0-.475.167-.932.501-1.371.34-.446.797-.797 1.371-1.055a4.642 4.642 0 011.908-.387c1.095 0 1.954.276 2.575.826.621.545.943 1.298.967 2.259v4.377c0 .873.111 1.568.334 2.083v.141h-1.706zm-2.698-1.24c.51 0 .993-.131 1.45-.395.457-.264.789-.606.994-1.028v-1.952h-1.275c-1.992 0-2.988.583-2.988 1.75 0 .509.17.908.51 1.195.34.287.776.43 1.309.43zm6.783-3.594c0-1.459.346-2.631 1.037-3.516.691-.89 1.597-1.336 2.716-1.336 1.113 0 1.995.381 2.645 1.143v-4.957h1.626v13.5h-1.494l-.079-1.02c-.65.797-1.556 1.196-2.716 1.196-1.101 0-2.001-.452-2.698-1.354-.691-.902-1.037-2.08-1.037-3.533v-.123zm1.626.184c0 1.078.223 1.922.668 2.532.445.609 1.06.914 1.846.914 1.031 0 1.784-.463 2.258-1.389v-4.368c-.486-.897-1.233-1.345-2.241-1.345-.797 0-1.418.308-1.863.923-.445.615-.668 1.526-.668 2.733zm15.361 4.65c-.094-.188-.17-.522-.229-1.002-.756.785-1.658 1.178-2.707 1.178-.937 0-1.708-.264-2.311-.791-.598-.534-.897-1.208-.897-2.022 0-.99.375-1.758 1.125-2.303.756-.55 1.816-.826 3.182-.826h1.582v-.747c0-.568-.17-1.019-.51-1.353-.34-.34-.841-.51-1.503-.51-.58 0-1.066.146-1.459.439-.393.293-.589.648-.589 1.064h-1.635c0-.475.167-.932.501-1.371.34-.446.797-.797 1.372-1.055a4.637 4.637 0 011.907-.387c1.095 0 1.954.276 2.575.826.621.545.943 1.298.967 2.259v4.377c0 .873.111 1.568.334 2.083v.141h-1.705zm-2.699-1.24c.51 0 .994-.131 1.451-.395.457-.264.788-.606.993-1.028v-1.952h-1.275c-1.992 0-2.988.583-2.988 1.75 0 .509.17.908.51 1.195.34.287.776.43 1.309.43zm10.993.088c.58 0 1.087-.175 1.521-.527.433-.352.673-.791.72-1.318h1.538c-.029.545-.216 1.063-.562 1.555a3.694 3.694 0 01-1.389 1.178 3.965 3.965 0 01-1.828.44c-1.295 0-2.326-.431-3.094-1.292-.761-.868-1.142-2.051-1.142-3.551v-.273c0-.925.17-1.749.509-2.469.34-.721.827-1.281 1.459-1.679.639-.399 1.392-.598 2.259-.598 1.067 0 1.951.32 2.655.958.709.639 1.086 1.468 1.133 2.488h-1.538c-.047-.616-.281-1.12-.703-1.512-.416-.399-.932-.598-1.547-.598-.826 0-1.468.299-1.925.897-.451.591-.676 1.45-.676 2.575v.307c0 1.096.225 1.94.676 2.532.452.591 1.096.887 1.934.887zm7.793-7.207c.721-.884 1.659-1.327 2.813-1.327 2.01 0 3.023 1.134 3.041 3.402v6.284h-1.626v-6.293c-.006-.686-.164-1.193-.475-1.521-.304-.328-.782-.492-1.432-.492-.528 0-.991.141-1.389.422a2.87 2.87 0 00-.932 1.107v6.777h-1.626v-13.5h1.626v5.141zm12.795 8.535c-1.289 0-2.338-.422-3.147-1.266-.808-.85-1.213-1.983-1.213-3.401v-.299c0-.944.179-1.784.537-2.523.363-.744.867-1.324 1.511-1.74a3.805 3.805 0 012.11-.633c1.236 0 2.197.407 2.882 1.222.686.814 1.029 1.98 1.029 3.498v.677h-6.443c.024.937.296 1.696.818 2.276.527.574 1.195.861 2.004.861.574 0 1.06-.117 1.459-.351a3.68 3.68 0 001.046-.932l.993.774c-.797 1.224-1.992 1.837-3.586 1.837zm-.202-8.526c-.657 0-1.207.24-1.653.721-.445.474-.72 1.142-.826 2.004h4.764v-.123c-.047-.826-.27-1.465-.668-1.916-.399-.457-.938-.686-1.617-.686zm6.308 10.899l-.923-.633c.551-.768.838-1.559.861-2.373v-1.468h1.591v1.274c0 .592-.146 1.184-.439 1.776-.288.592-.651 1.066-1.09 1.424zm12.985-3.701c.58 0 1.087-.175 1.52-.527.434-.352.674-.791.721-1.318h1.538c-.029.545-.217 1.063-.562 1.555a3.694 3.694 0 01-1.389 1.178 3.968 3.968 0 01-1.828.44c-1.295 0-2.326-.431-3.094-1.292-.762-.868-1.142-2.051-1.142-3.551v-.273c0-.925.17-1.749.509-2.469.34-.721.827-1.281 1.459-1.679.639-.399 1.392-.598 2.259-.598 1.067 0 1.951.32 2.654.958.709.639 1.087 1.468 1.134 2.488h-1.538c-.047-.616-.281-1.12-.703-1.512-.416-.399-.932-.598-1.547-.598-.826 0-1.468.299-1.925.897-.451.591-.676 1.45-.676 2.575v.307c0 1.096.225 1.94.676 2.532.451.591 1.096.887 1.934.887zm12.038 1.152c-.093-.188-.169-.522-.228-1.002-.756.785-1.658 1.178-2.707 1.178-.938 0-1.708-.264-2.312-.791-.597-.534-.896-1.208-.896-2.022 0-.99.375-1.758 1.125-2.303.756-.55 1.816-.826 3.182-.826h1.582v-.747c0-.568-.17-1.019-.51-1.353-.34-.34-.841-.51-1.503-.51-.58 0-1.067.146-1.459.439-.393.293-.589.648-.589 1.064h-1.635c0-.475.167-.932.501-1.371.34-.446.797-.797 1.371-1.055a4.642 4.642 0 011.908-.387c1.095 0 1.954.276 2.575.826.621.545.943 1.298.967 2.259v4.377c0 .873.111 1.568.334 2.083v.141h-1.706zm-2.698-1.24c.51 0 .993-.131 1.45-.395.457-.264.788-.606.994-1.028v-1.952h-1.275c-1.992 0-2.988.583-2.988 1.75 0 .509.17.908.51 1.195.339.287.776.43 1.309.43zm8.716-8.27l.053 1.195c.727-.914 1.676-1.371 2.848-1.371 2.01 0 3.023 1.134 3.041 3.402v6.284h-1.626v-6.293c-.006-.686-.164-1.193-.475-1.521-.304-.328-.782-.492-1.432-.492-.528 0-.991.141-1.389.422a2.87 2.87 0 00-.932 1.107v6.777h-1.626v-9.51h1.538zm16.044 9.51h-1.687v-12.797h1.687v12.797zm-198.223 11.187v2.303h1.775v1.257h-1.775v5.897c0 .381.079.668.237.862.158.187.428.281.808.281.188 0 .446-.035.774-.106v1.319a4.725 4.725 0 01-1.248.176c-.727 0-1.275-.22-1.644-.66-.369-.439-.553-1.063-.553-1.872v-5.897h-1.732v-1.257h1.732v-2.303h1.626zm10.113 11.813c-.094-.188-.17-.522-.228-1.002-.756.785-1.658 1.178-2.707 1.178-.938 0-1.708-.264-2.312-.791-.597-.534-.896-1.208-.896-2.022 0-.99.375-1.758 1.125-2.303.756-.55 1.816-.826 3.181-.826h1.582v-.747c0-.568-.17-1.019-.509-1.353-.34-.34-.841-.51-1.503-.51-.58 0-1.067.146-1.459.439-.393.293-.589.648-.589 1.064H207.6c0-.475.167-.932.501-1.371.34-.446.797-.797 1.371-1.055a4.64 4.64 0 011.907-.387c1.096 0 1.954.276 2.576.826.621.545.943 1.298.966 2.259v4.377c0 .873.112 1.568.334 2.083v.141h-1.705zm-2.698-1.24c.51 0 .993-.131 1.45-.395.457-.264.788-.606.993-1.028v-1.952h-1.274c-1.992 0-2.988.583-2.988 1.75 0 .509.17.908.509 1.195.34.287.777.43 1.31.43zm9.832-3.164l-1.019 1.064v3.34h-1.626v-13.5h1.626v8.165l.87-1.046 2.962-3.129h1.977l-3.7 3.973 4.131 5.537h-1.907l-3.314-4.404zm10.8 4.58c-1.289 0-2.338-.422-3.147-1.266-.808-.85-1.213-1.983-1.213-3.401v-.299c0-.944.179-1.784.536-2.523.364-.744.868-1.324 1.512-1.74a3.805 3.805 0 012.11-.633c1.236 0 2.197.407 2.882 1.222.686.814 1.029 1.98 1.029 3.498v.677h-6.443c.024.937.296 1.696.818 2.276.527.574 1.195.861 2.004.861.574 0 1.06-.117 1.459-.351a3.664 3.664 0 001.045-.932l.994.774c-.797 1.224-1.993 1.837-3.586 1.837zm-.202-8.526c-.657 0-1.207.24-1.653.721-.445.474-.72 1.142-.826 2.004h4.764v-.123c-.047-.826-.27-1.465-.668-1.916-.399-.457-.938-.686-1.617-.686zm18.706 5.01h-5.361l-1.204 3.34h-1.74l4.887-12.797h1.476l4.896 12.797h-1.732l-1.222-3.34zm-4.851-1.389h4.35l-2.179-5.985-2.171 5.985zm9.437-.105c0-1.459.346-2.631 1.037-3.516.691-.89 1.597-1.336 2.716-1.336 1.113 0 1.995.381 2.645 1.143v-4.957h1.626v13.5h-1.494l-.079-1.02c-.65.797-1.556 1.196-2.716 1.196-1.101 0-2.001-.452-2.698-1.354-.691-.902-1.037-2.08-1.037-3.533v-.123zm1.626.184c0 1.078.223 1.922.668 2.532.445.609 1.06.914 1.846.914 1.031 0 1.784-.463 2.258-1.389v-4.368c-.486-.897-1.233-1.345-2.241-1.345-.797 0-1.418.308-1.863.923-.445.615-.668 1.526-.668 2.733zm12.627 2.444l2.356-7.304h1.661l-3.41 9.51h-1.24l-3.445-9.51h1.661l2.417 7.304zm7.908 2.206h-1.626v-9.51h1.626v9.51zm-1.758-12.032a.98.98 0 01.237-.668c.164-.182.405-.273.721-.273.316 0 .557.091.721.273a.959.959 0 01.246.668.93.93 0 01-.246.659c-.164.175-.405.263-.721.263-.316 0-.557-.088-.721-.263a.95.95 0 01-.237-.659zm6.695 12.032h-1.626v-13.5h1.626v13.5zm5.077-3.604c.012-.697.091-1.248.238-1.652.146-.404.445-.853.896-1.345l1.152-1.186c.492-.557.738-1.155.738-1.793 0-.616-.161-1.096-.484-1.442-.322-.351-.791-.527-1.406-.527-.597 0-1.078.158-1.441.475-.363.316-.545.741-.545 1.274h-1.626c.012-.949.349-1.714 1.011-2.294.668-.586 1.535-.879 2.601-.879 1.108 0 1.969.299 2.584.897.621.591.932 1.406.932 2.443 0 1.025-.475 2.036-1.424 3.032l-.958.949c-.428.475-.642 1.158-.642 2.048h-1.626zm-.07 2.786a.95.95 0 01.237-.659c.164-.181.405-.272.721-.272.317 0 .557.091.721.272a.93.93 0 01.246.659.93.93 0 01-.246.66c-.164.169-.404.254-.721.254-.316 0-.557-.085-.721-.254a.951.951 0 01-.237-.66z" fill="#0B4A72"/></g><g clip-path="url(#clip3_1_124)"><path fill-rule="evenodd" clip-rule="evenodd" d="M268.986 37.88a222.496 222.496 0 0145.352 5.108c16.946 3.699 27.756 16.482 25.32 29.943-2.732 15.103-17.485 27.242-36.839 30.316-7.485 1.188-15.99 2.247-25.518 3.176-43.283 4.223-80.501 1.636-102.484 1.636-21.983 0-18.988-.797-43.57-1.636-24.58-.838-13.984-.285-49.276-1.529-12.95-.457-25.9-.935-38.848-1.434a41.032 41.032 0 01-4.078-.36c-18.441 1.967-43.166 8.514-38.461 4.425 3.405-2.96 8.63-8.862 15.677-17.706-2.365-3.708-3.467-7.82-3.202-11.948l.963-15.508c.784-12.635 13.924-22.721 30.298-23.257 24.906-.817 46.68-1.225 65.323-1.225 38.307 0 35.06 2.3 76.468 2.3 41.407 0 44.693-2.68 82.875-2.3z" fill="#FFF2CE"/><path d="M53.296 61.844h-1.688V49.047h1.688v12.797zm8.936-2.523c0-.44-.167-.779-.501-1.02-.328-.245-.905-.456-1.732-.632-.82-.176-1.473-.387-1.96-.633-.48-.246-.837-.539-1.072-.879-.228-.34-.343-.744-.343-1.213 0-.779.329-1.438.985-1.977.662-.54 1.506-.809 2.531-.809 1.078 0 1.951.279 2.62.835.673.557 1.01 1.269 1.01 2.136h-1.635c0-.445-.19-.83-.571-1.151-.375-.323-.85-.484-1.424-.484-.592 0-1.055.129-1.389.387a1.217 1.217 0 00-.5 1.01c0 .393.155.69.465.888.31.2.87.39 1.679.572.814.181 1.474.398 1.977.65.504.252.877.557 1.117.914.246.352.369.782.369 1.292 0 .85-.34 1.532-1.02 2.048-.68.51-1.561.764-2.645.764-.762 0-1.436-.134-2.022-.404-.586-.27-1.046-.644-1.38-1.125a2.76 2.76 0 01-.492-1.573h1.626c.03.545.246.978.65 1.3.41.317.95.475 1.618.475.615 0 1.107-.123 1.476-.369.375-.252.563-.586.563-1.002zm11.096 2.523H71.7v-9.51h1.627v9.51zM71.57 49.812a.98.98 0 01.237-.668c.164-.182.404-.273.72-.273.317 0 .557.09.721.273a.96.96 0 01.246.668.929.929 0 01-.246.659c-.164.176-.404.263-.72.263-.317 0-.557-.087-.721-.263a.949.949 0 01-.237-.66zm7.134.22v2.302h1.775v1.257h-1.775v5.897c0 .381.079.668.237.862.158.187.428.28.809.28.187 0 .445-.034.773-.105v1.319a4.717 4.717 0 01-1.248.175c-.726 0-1.274-.22-1.643-.659-.37-.44-.554-1.063-.554-1.872v-5.897h-1.732v-1.257h1.732v-2.303h1.626zM87.54 57c0-.932.181-1.77.545-2.514.369-.744.879-1.318 1.529-1.722.656-.405 1.403-.607 2.241-.607 1.295 0 2.34.448 3.138 1.345.802.896 1.204 2.089 1.204 3.577v.114c0 .926-.179 1.758-.536 2.496a4.005 4.005 0 01-1.52 1.714c-.657.41-1.413.615-2.268.615-1.29 0-2.335-.448-3.138-1.344-.797-.897-1.195-2.083-1.195-3.56V57zm1.634.193c0 1.055.244 1.902.73 2.54.492.639 1.148.958 1.969.958.826 0 1.482-.322 1.968-.966.487-.65.73-1.559.73-2.725 0-1.043-.25-1.887-.747-2.531-.492-.65-1.149-.976-1.969-.976-.803 0-1.45.32-1.942.958-.493.639-.739 1.553-.739 2.742zm12.276.246l-1.019 1.064v3.34h-1.626v-13.5h1.626v8.165l.87-1.046 2.962-3.129h1.977l-3.7 3.973 4.131 5.537h-1.907l-3.314-4.404zm12.9 4.404c-.094-.188-.17-.522-.228-1.002-.756.785-1.659 1.178-2.707 1.178-.938 0-1.708-.264-2.312-.792-.598-.533-.896-1.206-.896-2.021 0-.99.375-1.758 1.125-2.303.755-.55 1.816-.826 3.181-.826h1.582v-.747c0-.568-.17-1.02-.51-1.354-.339-.34-.84-.51-1.502-.51-.581 0-1.067.147-1.459.44-.393.293-.589.648-.589 1.064H108.4c0-.475.167-.932.501-1.371.34-.446.797-.797 1.371-1.055a4.643 4.643 0 011.907-.387c1.096 0 1.954.276 2.575.826.621.545.944 1.298.967 2.26v4.376c0 .873.112 1.568.334 2.083v.14h-1.705zm-2.698-1.24c.51 0 .993-.131 1.45-.395.457-.264.788-.607.993-1.028v-1.95h-1.274c-1.992 0-2.988.583-2.988 1.748 0 .51.169.909.509 1.196.34.287.777.43 1.31.43zm10.149-1.142l2.215-7.128h1.74l-3.823 10.977c-.592 1.583-1.533 2.374-2.822 2.374l-.307-.027-.607-.114v-1.318l.44.035c.55 0 .978-.112 1.283-.334.31-.223.565-.63.765-1.222l.36-.967-3.393-9.404h1.776l2.373 7.128zm13.205-9.43v2.302h1.775v1.257h-1.775v5.897c0 .381.079.668.237.862.158.187.428.28.809.28.187 0 .445-.034.773-.105v1.319a4.72 4.72 0 01-1.248.175c-.727 0-1.274-.22-1.644-.659-.369-.44-.553-1.063-.553-1.872V53.59h-1.732v-1.257h1.732V50.03h1.626zM138.643 57c0-.932.181-1.77.545-2.514.369-.744.879-1.318 1.529-1.722.656-.405 1.403-.607 2.241-.607 1.295 0 2.341.448 3.138 1.345.803.896 1.204 2.089 1.204 3.577v.114c0 .926-.179 1.758-.536 2.496a4.003 4.003 0 01-1.521 1.714c-.656.41-1.412.615-2.267.615-1.289 0-2.335-.448-3.138-1.344-.797-.897-1.195-2.083-1.195-3.56V57zm1.635.193c0 1.055.243 1.902.729 2.54.492.639 1.149.958 1.969.958.826 0 1.482-.322 1.969-.966.486-.65.729-1.559.729-2.725 0-1.043-.249-1.887-.747-2.531-.492-.65-1.148-.976-1.969-.976-.802 0-1.45.32-1.942.958-.492.639-.738 1.553-.738 2.742zm14.25-.184c0-1.46.346-2.631 1.038-3.516.691-.89 1.596-1.336 2.715-1.336 1.114 0 1.996.381 2.646 1.143v-4.957h1.626v13.5h-1.494l-.079-1.02c-.651.797-1.556 1.196-2.716 1.196-1.102 0-2.001-.452-2.698-1.354-.692-.902-1.038-2.08-1.038-3.533v-.123zm1.626.184c0 1.078.223 1.922.668 2.532.446.609 1.061.914 1.846.914 1.031 0 1.784-.463 2.259-1.389v-4.368c-.486-.897-1.233-1.345-2.241-1.345-.797 0-1.418.308-1.864.923-.445.615-.668 1.526-.668 2.733zm14.087-3.401a4.876 4.876 0 00-.8-.062c-1.066 0-1.79.454-2.171 1.363v6.75h-1.626v-9.51h1.582l.027 1.099c.533-.85 1.289-1.275 2.267-1.275.317 0 .557.041.721.123v1.512zm3.829 8.05h-1.626v-9.509h1.626v9.51zm-1.757-12.032a.98.98 0 01.237-.667c.164-.182.404-.273.721-.273.316 0 .556.09.72.273a.96.96 0 01.246.668.929.929 0 01-.246.659c-.164.176-.404.263-.72.263-.317 0-.557-.087-.721-.263a.95.95 0 01-.237-.66zm6.466 2.523l.053 1.195c.726-.914 1.675-1.37 2.847-1.37 2.01 0 3.024 1.133 3.041 3.4v6.285h-1.626V55.55c-.006-.686-.164-1.193-.474-1.52-.305-.329-.783-.493-1.433-.493-.527 0-.99.14-1.389.422-.398.281-.709.65-.931 1.107v6.777h-1.626v-9.51h1.538zm11.608 5.106l-1.02 1.064v3.34h-1.626v-13.5h1.626v8.165l.87-1.046 2.962-3.129h1.978l-3.701 3.973 4.131 5.537H193.7l-3.313-4.404zm20.473 2.163l1.828-7.269h1.626l-2.768 9.51h-1.319l-2.311-7.207-2.25 7.207h-1.319l-2.759-9.51h1.617l1.872 7.12 2.215-7.12h1.309l2.259 7.268zm7.442 2.24h-1.626v-9.509h1.626v9.51zm-1.758-12.032a.98.98 0 01.237-.667c.165-.182.405-.273.721-.273.317 0 .557.09.721.273a.96.96 0 01.246.668.929.929 0 01-.246.659c-.164.176-.404.263-.721.263-.316 0-.556-.087-.721-.263a.95.95 0 01-.237-.66zm7.134.22v2.303h1.776v1.257h-1.776v5.897c0 .381.08.668.238.862.158.187.427.28.808.28.188 0 .446-.034.774-.105v1.319a4.72 4.72 0 01-1.248.175c-.727 0-1.275-.22-1.644-.659-.369-.44-.554-1.063-.554-1.872V53.59h-1.731v-1.257h1.731V50.03h1.626zm5.869 3.454c.721-.884 1.658-1.327 2.812-1.327 2.01 0 3.024 1.134 3.042 3.402v6.284h-1.626V55.55c-.006-.686-.165-1.193-.475-1.52-.305-.329-.782-.493-1.433-.493-.527 0-.99.14-1.388.422a2.86 2.86 0 00-.932 1.107v6.777h-1.626v-13.5h1.626v5.141zM53.437 73.031v2.303h1.775v1.257h-1.776v5.897c0 .381.08.668.238.862.158.187.428.28.808.28.188 0 .446-.034.774-.105v1.319a4.718 4.718 0 01-1.248.175c-.727 0-1.275-.22-1.644-.659-.369-.44-.553-1.063-.553-1.872v-5.897h-1.732v-1.257h1.731v-2.303h1.627zm5.868 3.454c.72-.884 1.658-1.327 2.813-1.327 2.01 0 3.023 1.134 3.04 3.402v6.284h-1.625V78.55c-.006-.686-.164-1.193-.475-1.52-.305-.329-.782-.493-1.433-.493-.527 0-.99.14-1.388.422-.399.281-.71.65-.932 1.107v6.777H57.68v-13.5h1.626v5.141zM72.1 85.02c-1.29 0-2.338-.421-3.147-1.265-.809-.85-1.213-1.984-1.213-3.401v-.3c0-.943.179-1.784.536-2.522.364-.744.867-1.324 1.512-1.74a3.803 3.803 0 012.11-.633c1.236 0 2.197.407 2.882 1.222.686.814 1.028 1.98 1.028 3.498v.677h-6.442c.023.937.296 1.696.817 2.276.528.574 1.196.861 2.004.861.575 0 1.06-.117 1.46-.351a3.668 3.668 0 001.045-.932l.993.774c-.796 1.224-1.992 1.836-3.585 1.836zm-.203-8.525c-.656 0-1.207.24-1.652.72-.445.475-.72 1.143-.826 2.005h4.764v-.123c-.047-.827-.27-1.465-.669-1.916-.398-.457-.937-.686-1.617-.686zm11.898 5.827c0-.44-.167-.779-.5-1.02-.329-.245-.906-.456-1.732-.632-.82-.176-1.474-.387-1.96-.633-.48-.246-.838-.539-1.072-.879-.229-.34-.343-.744-.343-1.213 0-.779.328-1.438.984-1.977.662-.54 1.506-.809 2.531-.809 1.079 0 1.952.278 2.62.835.673.557 1.01 1.269 1.01 2.136H83.7c0-.445-.19-.83-.572-1.151-.375-.323-.85-.484-1.424-.484-.591 0-1.054.129-1.388.387a1.217 1.217 0 00-.501 1.01c0 .393.155.69.466.888.31.2.87.39 1.678.572.815.181 1.474.398 1.978.65s.876.557 1.116.914c.246.352.37.782.37 1.292 0 .85-.34 1.532-1.02 2.048-.68.51-1.562.764-2.646.764-.761 0-1.435-.134-2.021-.404-.586-.27-1.046-.644-1.38-1.125a2.76 2.76 0 01-.492-1.573h1.626c.029.545.246.978.65 1.3.41.317.95.475 1.617.475.615 0 1.108-.123 1.477-.369.375-.252.562-.586.562-1.002zm8.25 2.698c-1.288 0-2.337-.421-3.146-1.265-.808-.85-1.213-1.984-1.213-3.401v-.3c0-.943.179-1.784.536-2.522.364-.744.868-1.324 1.512-1.74a3.803 3.803 0 012.11-.633c1.236 0 2.197.407 2.882 1.222.686.814 1.029 1.98 1.029 3.498v.677h-6.443c.024.937.296 1.696.818 2.276.527.574 1.195.861 2.004.861.574 0 1.06-.117 1.459-.351a3.665 3.665 0 001.045-.932l.994.774c-.797 1.224-1.993 1.836-3.586 1.836zm-.201-8.525c-.657 0-1.207.24-1.653.72-.445.475-.72 1.143-.826 2.005h4.764v-.123c-.047-.827-.27-1.465-.668-1.916-.399-.457-.938-.686-1.617-.686zm19.418 3.7c0 1.448-.331 2.614-.993 3.498-.662.885-1.558 1.328-2.689 1.328-1.155 0-2.063-.367-2.725-1.1v4.58h-1.626V75.334h1.485l.08 1.055c.662-.82 1.582-1.23 2.759-1.23 1.143 0 2.045.43 2.707 1.291.668.861 1.002 2.06 1.002 3.595v.15zm-1.626-.184c0-1.073-.228-1.92-.685-2.54-.457-.621-1.084-.932-1.881-.932-.984 0-1.723.437-2.215 1.31v4.544c.486.867 1.231 1.3 2.233 1.3.779 0 1.397-.307 1.854-.922.463-.622.694-1.541.694-2.76zm6.027 4.834h-1.626v-9.51h1.626v9.51zm-1.758-12.032c0-.264.079-.487.238-.668.164-.182.404-.273.72-.273.317 0 .557.09.721.273a.96.96 0 01.246.667.929.929 0 01-.246.66c-.164.175-.404.263-.721.263-.316 0-.556-.087-.72-.263a.945.945 0 01-.238-.66zm6.695 12.032h-1.626v-13.5h1.626v13.5zm4.937 0h-1.626v-13.5h1.626v13.5zm8.708-2.523c0-.44-.167-.779-.501-1.02-.329-.245-.906-.456-1.732-.632-.82-.176-1.474-.387-1.96-.633-.48-.246-.838-.539-1.072-.879-.229-.34-.343-.744-.343-1.213 0-.779.328-1.438.984-1.977.663-.54 1.506-.809 2.532-.809 1.078 0 1.951.278 2.619.835.674.557 1.011 1.269 1.011 2.136h-1.635c0-.445-.191-.83-.571-1.151-.375-.323-.85-.484-1.424-.484-.592 0-1.055.129-1.389.387a1.217 1.217 0 00-.501 1.01c0 .393.155.69.466.888.31.2.87.39 1.679.572.814.181 1.473.398 1.977.65s.876.557 1.116.914c.246.352.37.782.37 1.292 0 .85-.34 1.532-1.02 2.048-.68.51-1.562.764-2.646.764-.761 0-1.435-.134-2.021-.404-.586-.27-1.046-.644-1.38-1.125a2.76 2.76 0 01-.492-1.573h1.626c.029.545.246.978.65 1.3.41.317.949.475 1.617.475.616 0 1.108-.123 1.477-.369.375-.252.563-.586.563-1.002zm6.211-1.08c.012-.698.091-1.249.237-1.653.147-.404.446-.853.897-1.345l1.151-1.186c.492-.557.738-1.155.738-1.793 0-.616-.161-1.096-.483-1.442-.322-.351-.791-.527-1.406-.527-.598 0-1.078.158-1.442.474-.363.317-.545.742-.545 1.275h-1.626c.012-.95.349-1.714 1.011-2.294.668-.586 1.535-.879 2.602-.879 1.107 0 1.968.299 2.584.897.621.591.931 1.406.931 2.443 0 1.025-.474 2.036-1.424 3.032l-.958.95c-.427.474-.641 1.157-.641 2.047h-1.626zm-.07 2.785a.95.95 0 01.237-.659c.164-.181.404-.272.721-.272.316 0 .556.09.72.272a.929.929 0 01.246.66.929.929 0 01-.246.659c-.164.17-.404.254-.72.254-.317 0-.557-.084-.721-.254a.95.95 0 01-.237-.66z" fill="#0B4A72"/></g><defs><clipPath id="clip0_1_124"><path fill="#fff" transform="translate(150 347.844)" d="M0 0h340v112H0z"/></clipPath><clipPath id="clip1_1_124"><path fill="#fff" transform="translate(0 237.844)" d="M0 0h340v112H0z"/></clipPath><clipPath id="clip2_1_124"><path fill="#fff" transform="translate(150 127.844)" d="M0 0h340v112H0z"/></clipPath><clipPath id="clip3_1_124"><path fill="#fff" transform="translate(0 17.844)" d="M0 0h340v112H0z"/></clipPath></defs></svg>