<svg width="30" height="30" fill="none" xmlns="http://www.w3.org/2000/svg"><path d="M15 15h14a22.966 22.966 0 01-3.096 4.51c-4.324 4.997-9.582 7.01-11.728 4.512C12.65 22.26 13.07 18.702 15 15z" stroke="#fff" stroke-miterlimit="10"/><path d="M15 15l7-14c.747 1.546 1.384 3.36 1.851 5.356 1.587 6.81.467 13.083-2.473 14-2.1.629-4.558-1.582-6.378-5.356z" stroke="#fff" stroke-miterlimit="10"/><path d="M15 15L8 1c1.54.036 3.22.305 4.931.827C18.827 3.66 22.98 7.9 22.187 11.316c-.56 2.39-3.454 3.756-7.187 3.684z" stroke="#fff" stroke-miterlimit="10"/><path d="M15 15H1a22.967 22.967 0 013.096-4.511c4.324-4.996 9.582-7.009 11.728-4.51 1.525 1.742 1.105 5.319-.824 9.02z" stroke="#fff" stroke-miterlimit="10"/><path d="M15 15L8 29c-.747-1.546-1.384-3.36-1.851-5.356-1.587-6.81-.467-13.083 2.473-14C10.722 8.997 13.18 11.226 15 15z" stroke="#fff" stroke-miterlimit="10"/><path d="M15 15l7 14c-1.54-.036-3.22-.306-4.931-.827C11.173 26.34 7.02 22.1 7.813 18.684 8.373 16.276 11.267 14.928 15 15z" stroke="#fff" stroke-miterlimit="10"/></svg>