<svg width="28" height="29" fill="none" xmlns="http://www.w3.org/2000/svg"><path d="M13.551 0l.851 9.796 4.19-8.91-2.602 9.473 7.037-6.96-5.745 8.024L26.3 7.25l-8.183 5.623 9.934-.886-9.64 2.513 9.64 2.53-9.934-.887L26.3 21.75l-9.018-4.173 5.745 8.04-7.037-6.96 2.602 9.473-4.19-8.91-.85 9.78-.852-9.78-4.19 8.91 2.62-9.473-7.055 6.96 5.745-8.04L.802 21.75l8.183-5.607-9.934.886 9.64-2.529-9.64-2.513 9.934.886L.802 7.25l9.018 4.173-5.745-8.024 7.054 6.96L8.511.886l4.19 8.91L13.55 0z" fill="#fff"/></svg>