<svg width="528" height="393" fill="none" xmlns="http://www.w3.org/2000/svg"><path d="M77.333 352.046c103.09 53.877 270.255 53.877 373.345 0 103.09-53.878 103.102-141.225 0-195.103-103.102-53.877-270.255-53.877-373.358 0-103.102 53.878-103.09 141.225.013 195.103z" fill="#F5F5F5"/><path d="M50.666 171.611s-.613-13.834-8.19-21.879c-7.578-8.046-16.148-6.022-19.152-4.293-3.004 1.729-4.819 6.316.637 9.247 5.457 2.932 17.055 8.769 19.226 14.399l7.479 2.526z" fill="#02897A"/><path d="M26.646 146.813c4.672 1.116 18.27 7.8 20.5 21.622" stroke="#fff" stroke-width=".997" stroke-miterlimit="10" stroke-linecap="round"/><path d="M47.147 168.435c-.65-3.471-4.132-5.703-9.895-4.428-5.763 1.276-4.904 1.08-12.163-.368-7.258-1.447-12.04 1.754-12.408 4.526-.417 3.017 5.48 4.023 9.931 5.74 4.451 1.717 7.578 4.035 6.744 8.008-.711 3.398 0 6.206 5.235 7.163 4.647.846 9.417-2.073 11.538 2.232a6.81 6.81 0 004.225 3.239 6.807 6.807 0 005.265-.786c9.76-11.185-8.472-25.326-8.472-25.326z" fill="#02897A"/><path d="M34.592 182.134a20.5 20.5 0 0110.544-5.163m-27.281-10.597c7.504.148 29.819 7.935 36.023 19.844" stroke="#fff" stroke-width=".997" stroke-miterlimit="10" stroke-linecap="round"/><path d="M62.006 244.499a28.26 28.26 0 01-8.165-3.52c-2.122-1.226-24.67-14.214-35.557-20.555a12.659 12.659 0 00-11.513-.172c-.74.4-1.36.994-1.79 1.717h-.405v1.398a4.303 4.303 0 002.563 3.496l35.703 20.629c1.877 1.067 5.15 3.053 5.947 4.672l-.552.319v1.411l16.761-9.677v-1.41l-2.992 1.692z" fill="#37474F"/><path d="M6.771 218.805c-3.065 1.766-2.894 4.722.368 6.611l35.704 20.592c2.648 1.52 8.092 4.905 5.394 6.402l16.761-9.677c-2.66 1.558-8.325-1.558-11.157-3.201-2.121-1.226-24.67-14.214-35.557-20.567a12.687 12.687 0 00-11.513-.16z" fill="#455A64"/><path d="M66.15 240.599l-16.258 9.395a5.548 5.548 0 00-2.947 4.905 5.555 5.555 0 002.947 4.906l21.8 12.596a6.526 6.526 0 005.91 0l16.258-9.395a5.543 5.543 0 000-9.811l-21.8-12.596a6.526 6.526 0 00-5.91 0z" fill="#37474F"/><path d="M49.893 249.994l16.258-9.395a6.526 6.526 0 015.91 0l21.8 12.583c1.63.945 1.63 2.453 0 3.422l-16.222 9.382a6.513 6.513 0 01-5.91 0l-21.836-12.62c-1.68-.907-1.68-2.453 0-3.372z" fill="#BA68C8"/><path d="M143.848 293.839h-.393a5.32 5.32 0 00-2.158-2.11l-43.955-25.387c-1.9-1.092-3.678-2.183-2.452-4.967v-1.398l-16.92 9.811v1.398a9.81 9.81 0 018.313 1.607c1.692 1.067 30.554 17.685 43.955 25.387a12.661 12.661 0 0011.452.209 3.68 3.68 0 002.182-3.103l-.024-1.447z" fill="#37474F"/><path d="M86.308 271.346c1.692 1.055 30.554 17.685 43.955 25.387a12.688 12.688 0 0011.452.209c3.053-1.766 2.894-4.734-.368-6.611l-43.955-25.387c-1.9-1.092-3.678-2.195-2.452-4.967l-16.92 9.811a9.802 9.802 0 018.288 1.558z" fill="#455A64"/><path d="M129.442 289.828a.727.727 0 00-.496.687.722.722 0 00.496.686 2.614 2.614 0 002.379 0 .722.722 0 000-1.373 2.631 2.631 0 00-2.379 0zm-8.313-4.795a.733.733 0 00-.354 1.116.733.733 0 00.354.269 2.614 2.614 0 002.378 0 .733.733 0 00.354-1.116.733.733 0 00-.354-.269 2.627 2.627 0 00-2.378 0zm-8.313-4.783a.727.727 0 00-.496.686.725.725 0 00.496.687 2.655 2.655 0 002.391 0 .727.727 0 00.496-.687.722.722 0 00-.496-.686 2.643 2.643 0 00-2.391 0zm-8.301-4.808a.726.726 0 000 1.373 2.618 2.618 0 002.379 0 .72.72 0 00.495-.686.726.726 0 00-.495-.687 2.63 2.63 0 00-2.379 0zm-8.313-4.758a.72.72 0 00-.496.686.727.727 0 00.496.687 2.629 2.629 0 002.378 0 .725.725 0 00.36-1.11.72.72 0 00-.36-.263 2.615 2.615 0 00-2.378 0z" fill="#37474F"/><path d="M74.648 266.011a5.369 5.369 0 01-2.612-.613l-21.8-12.596c-.551-.319-.883-.723-.883-1.104 0-.38.332-.797.883-1.116l16.258-9.394a5.872 5.872 0 015.223 0l21.862 12.595c.564.319.883.724.883 1.104 0 .38-.32.797-.883 1.116l-16.258 9.395a5.377 5.377 0 01-2.673.613z" fill="#F0F0F0"/><path d="M69.056 241.261a4.701 4.701 0 012.268.515l21.8 12.596c.442.258.54.478.54.527 0 .049-.098.258-.54.515l-16.258 9.395a5.253 5.253 0 01-4.536 0l-21.751-12.596c-.442-.257-.54-.478-.54-.515 0-.036.098-.269.54-.527l16.258-9.395a4.7 4.7 0 012.268-.515h-.049zm0-1.386a6.132 6.132 0 00-2.955.712l-16.258 9.394c-1.63.932-1.63 2.453 0 3.41l21.8 12.583a6.5 6.5 0 005.91 0l16.258-9.382c1.63-.945 1.63-2.453 0-3.422L72.06 240.599a6.13 6.13 0 00-3.004-.724z" fill="#fff"/><path d="M53.705 241.384l16.258-9.382a6.513 6.513 0 015.91 0l21.788 12.583c1.63.944 1.63 2.453 0 3.41l-16.246 9.394a6.526 6.526 0 01-5.91 0l-21.8-12.608c-1.63-.92-1.63-2.453 0-3.397z" fill="#37474F"/><path d="M68.346 250.524a.277.277 0 01-.166.038.657.657 0 01-.212-.085l-.084-.048c-.081-.047-.128-.086-.141-.118-.013-.037.006-.071.057-.101l.808-.468-3.295-1.894-.737.583c-.047.027-.126.024-.237-.011a1.444 1.444 0 01-.296-.125c-.077-.044-.081-.096-.013-.156l1.044-.932a.527.527 0 01.192-.06c.073-.012.129-.007.167.015l3.829 2.201.692-.402a.242.242 0 01.167-.03.53.53 0 01.211.078l.084.048c.081.046.128.088.141.125.013.032-.006.063-.057.093l-2.154 1.249zm2.788-1.617c-.038.022-.113.019-.225-.011a1.32 1.32 0 01-.282-.118c-.051-.029-.08-.053-.084-.07l-.639-2.07a1.486 1.486 0 00-.18-.422.922.922 0 00-.29-.248 1.113 1.113 0 00-.616-.147 1.33 1.33 0 00-.628.187.948.948 0 00-.308.252c-.05.08-.1.177-.147.293-.012.067-.032.108-.057.123-.052.03-.152.036-.302.019a.897.897 0 01-.314-.077c-.09-.052-.114-.135-.071-.248a.982.982 0 01.256-.371c.132-.132.281-.245.448-.342a2.628 2.628 0 011.225-.362 2.05 2.05 0 011.149.261c.15.086.267.178.353.277.09.096.165.221.225.374s.123.366.188.64l.458 1.345 1.544-.896a.248.248 0 01.16-.034c.06.005.131.031.213.077l.083.048c.082.047.129.089.142.126.013.032-.007.063-.058.093l-2.243 1.301zm.596-3.328c-.188.109-.335.132-.442.071l-.469-.27c-.107-.061-.067-.147.121-.256l.141-.081c.188-.11.336-.133.443-.072l.469.27c.107.061.066.147-.122.256l-.14.082zm2.596 1.491c-.188.109-.336.133-.443.072l-.469-.27c-.107-.061-.067-.147.121-.256l.141-.082c.188-.109.336-.132.443-.071l.469.27c.107.061.067.146-.121.256l-.141.081zm2.294-1.294c-.393.228-.894.298-1.501.211-.603-.09-1.288-.356-2.055-.797-.766-.44-1.229-.834-1.388-1.182-.155-.351-.035-.64.358-.868.397-.231.9-.302 1.507-.214.608.087 1.295.351 2.061.792.767.441 1.227.836 1.382 1.187.155.35.033.641-.364.871zm-.54-.317c.184-.107.194-.266.032-.478-.16-.215-.555-.504-1.19-.869-.633-.364-1.136-.592-1.508-.682-.368-.093-.644-.087-.828.02-.184.106-.194.266-.031.478.159.21.557.498 1.195.865.638.366 1.141.596 1.51.69.363.09.637.082.82-.024zm3.481-1.389c-.393.228-.893.298-1.5.21-.604-.09-1.289-.355-2.055-.796-.767-.441-1.23-.835-1.388-1.183-.155-.35-.036-.64.357-.868.397-.23.9-.302 1.507-.214.608.088 1.295.352 2.062.793.766.44 1.227.836 1.381 1.186.155.351.034.641-.364.872zm-.54-.318c.184-.106.195-.266.032-.478-.159-.214-.555-.504-1.189-.868-.633-.365-1.137-.592-1.509-.683-.368-.093-.644-.086-.828.02-.183.107-.194.266-.03.478.158.21.556.498 1.195.865.638.367 1.14.597 1.509.69.363.091.637.083.82-.024z" fill="#fff"/><path d="M204.663 237.422l-38.414 22.187a5.546 5.546 0 00-2.163 7.771 5.546 5.546 0 002.163 2.04l71.653 41.393a6.603 6.603 0 005.91 0l38.413-22.187a5.542 5.542 0 000-9.811l-71.652-41.393a6.528 6.528 0 00-5.91 0z" fill="#455A64"/><path d="M204.663 237.422l-38.414 22.187a5.546 5.546 0 00-2.163 7.771 5.546 5.546 0 002.163 2.04l71.653 41.393a6.603 6.603 0 005.91 0l38.413-22.187a5.542 5.542 0 000-9.811l-71.652-41.393a6.528 6.528 0 00-5.91 0z" fill="#455A64"/><path d="M204.663 237.422l-38.414 22.187a5.546 5.546 0 00-2.163 7.771 5.546 5.546 0 002.163 2.04l71.653 41.393a6.603 6.603 0 005.91 0l38.413-22.187a5.542 5.542 0 000-9.811l-71.652-41.393a6.528 6.528 0 00-5.91 0z" fill="#455A64"/><path opacity=".1" d="M204.663 237.422l-38.414 22.187a5.546 5.546 0 00-2.163 7.771 5.546 5.546 0 002.163 2.04l71.653 41.393a6.603 6.603 0 005.91 0l38.413-22.187a5.542 5.542 0 000-9.811l-71.652-41.393a6.528 6.528 0 00-5.91 0z" fill="#000"/><path d="M240.857 254.899l-30.284-17.477a6.528 6.528 0 00-5.91 0l-38.414 22.187a5.546 5.546 0 00-2.163 7.771 5.546 5.546 0 002.163 2.04l71.653 41.393a6.138 6.138 0 002.955.699v-56.613z" fill="#455A64"/><path d="M237.915 304.386l-71.666-41.392c-1.63-.932-1.63-2.453 0-3.41l38.414-22.162a6.524 6.524 0 015.91 0l71.652 41.393c1.631.932 1.631 2.453 0 3.409l-38.413 22.162a6.5 6.5 0 01-5.897 0z" fill="#455A64"/><path d="M237.915 304.386l-71.666-41.392c-1.63-.932-1.63-2.453 0-3.41l38.414-22.162a6.524 6.524 0 015.91 0l71.652 41.393c1.631.932 1.631 2.453 0 3.409l-38.413 22.162a6.5 6.5 0 01-5.897 0z" fill="#455A64"/><path d="M237.915 304.386l-71.666-41.392c-1.63-.932-1.63-2.453 0-3.41l38.414-22.162a6.524 6.524 0 015.91 0l71.652 41.393c1.631.932 1.631 2.453 0 3.409l-38.413 22.162a6.5 6.5 0 01-5.897 0z" fill="#455A64"/><path opacity=".2" d="M237.915 304.386l-71.666-41.392c-1.63-.932-1.63-2.453 0-3.41l38.414-22.162a6.524 6.524 0 015.91 0l71.652 41.393c1.631.932 1.631 2.453 0 3.409l-38.413 22.162a6.5 6.5 0 01-5.897 0z" fill="#fff"/><path d="M175.556 263.816l36.427-21.034a2.575 2.575 0 012.354 0l58.583 33.887a.72.72 0 01.478.68.721.721 0 01-.478.681l-36.415 21.033a2.594 2.594 0 01-2.367 0l-58.582-33.825a.724.724 0 010-1.422z" fill="#fff"/><path d="M260.646 291.888a4.158 4.158 0 01-3.8 0c-1.055-.601-1.055-1.582 0-2.195a4.233 4.233 0 013.8 0c1.055.613 1.055 1.594 0 2.195z" fill="#455A64"/><path opacity=".1" d="M260.646 291.888a4.158 4.158 0 01-3.8 0c-1.055-.601-1.055-1.582 0-2.195a4.233 4.233 0 013.8 0c1.055.613 1.055 1.594 0 2.195z" fill="#000"/><path d="M188.454 250.202a1.023 1.023 0 01-.956 0 .295.295 0 010-.552 1.02 1.02 0 01.956 0 .297.297 0 01.192.276.296.296 0 01-.192.276zm-1.533 4.39a2.155 2.155 0 01-1.937 0 .585.585 0 01-.401-.558.587.587 0 01.401-.557 2.159 2.159 0 011.937 0 .588.588 0 010 1.115zm1.362-1.949c-.356-.209-.344-.552 0-.773l6.351-3.679a1.518 1.518 0 011.324 0c.356.208.331.552 0 .772l-6.339 3.68a1.49 1.49 0 01-1.336 0z" fill="#455A64"/><path d="M188.453 249.687a.293.293 0 010 .552 1.02 1.02 0 01-.956 0m-.576 4.353a2.155 2.155 0 01-1.937 0 .585.585 0 01-.401-.558.587.587 0 01.401-.557 2.159 2.159 0 011.937 0 .588.588 0 010 1.115zm1.362-1.949c-.356-.209-.344-.552 0-.773l6.351-3.679a1.518 1.518 0 011.324 0c.356.208.331.552 0 .772l-6.339 3.68a1.49 1.49 0 01-1.336 0z" fill="#455A64"/><path d="M188.453 249.687a.293.293 0 010 .552 1.02 1.02 0 01-.956 0m-.576 4.353a2.155 2.155 0 01-1.937 0 .585.585 0 01-.401-.558.587.587 0 01.401-.557 2.159 2.159 0 011.937 0 .588.588 0 010 1.115zm1.362-1.949c-.356-.209-.344-.552 0-.773l6.351-3.679a1.518 1.518 0 011.324 0c.356.208.331.552 0 .772l-6.339 3.68a1.49 1.49 0 01-1.336 0z" fill="#455A64"/><path opacity=".1" d="M188.454 250.202a1.023 1.023 0 01-.956 0 .295.295 0 010-.552 1.02 1.02 0 01.956 0 .297.297 0 01.192.276.296.296 0 01-.192.276z" fill="#000"/><path opacity=".1" d="M188.453 249.687a.293.293 0 010 .552 1.02 1.02 0 01-.956 0m-.576 4.353a2.155 2.155 0 01-1.937 0 .585.585 0 01-.401-.558.587.587 0 01.401-.557 2.159 2.159 0 011.937 0 .588.588 0 010 1.115zm1.362-1.949c-.356-.209-.344-.552 0-.773l6.351-3.679a1.518 1.518 0 011.324 0c.356.208.331.552 0 .772l-6.339 3.68a1.49 1.49 0 01-1.336 0z" fill="#000"/><path d="M459.899 227.795l60.581 34.978a5.546 5.546 0 010 9.812l-93.833 54.196a6.528 6.528 0 01-5.91 0l-60.569-34.99a5.549 5.549 0 01-2.163-7.772 5.546 5.546 0 012.163-2.04l93.882-54.184a6.5 6.5 0 015.849 0z" fill="#455A64"/><path d="M459.899 227.795l60.581 34.978a5.546 5.546 0 010 9.812l-93.833 54.196a6.528 6.528 0 01-5.91 0l-60.569-34.99a5.549 5.549 0 01-2.163-7.772 5.546 5.546 0 012.163-2.04l93.882-54.184a6.5 6.5 0 015.849 0z" fill="#455A64"/><path opacity=".2" d="M459.899 227.795l60.581 34.978a5.546 5.546 0 010 9.812l-93.833 54.196a6.528 6.528 0 01-5.91 0l-60.569-34.99a5.549 5.549 0 01-2.163-7.772 5.546 5.546 0 012.163-2.04l93.882-54.184a6.5 6.5 0 015.849 0z" fill="#000"/><path d="M401.537 258.088l52.514-30.293a6.496 6.496 0 015.897 0l60.581 34.978a5.542 5.542 0 010 9.812l-93.832 54.196a6.127 6.127 0 01-2.955.699v-11.798l-22.205-57.594z" fill="#455A64"/><path d="M426.647 320.379l93.833-54.196c1.631-.933 1.631-2.453 0-3.41l-60.581-34.978a6.503 6.503 0 00-5.898 0l-93.833 54.196c-1.63.932-1.63 2.453 0 3.41l60.569 34.978a6.528 6.528 0 005.91 0z" fill="#455A64"/><path opacity=".1" d="M426.647 320.379l93.833-54.196c1.631-.933 1.631-2.453 0-3.41l-60.581-34.978a6.503 6.503 0 00-5.898 0l-93.833 54.196c-1.63.932-1.63 2.453 0 3.41l60.569 34.978a6.528 6.528 0 005.91 0z" fill="#000"/><path d="M511.174 267.004l-58.583-33.837a2.668 2.668 0 00-2.366 0l-80.751 46.605a.721.721 0 000 1.361l58.583 33.837a2.67 2.67 0 002.366 0l80.751-46.604a.722.722 0 00.478-.681.721.721 0 00-.478-.681z" fill="#FAFAFA"/><path d="M393.015 301.442a4.158 4.158 0 003.801 0 1.15 1.15 0 00.579-1.776 1.154 1.154 0 00-.579-.419 4.16 4.16 0 00-3.801 0 1.154 1.154 0 000 2.195z" fill="#455A64"/><path opacity=".3" d="M393.015 301.442a4.158 4.158 0 003.801 0 1.15 1.15 0 00.579-1.776 1.154 1.154 0 00-.579-.419 4.16 4.16 0 00-3.801 0 1.154 1.154 0 000 2.195z" fill="#000"/><path d="M486.885 247.234a1.05 1.05 0 00.969 0 .297.297 0 00.192-.276.296.296 0 00-.192-.276 1.05 1.05 0 00-.969 0 .297.297 0 00-.192.276.296.296 0 00.192.276zm1.496 4.415a2.129 2.129 0 001.925 0 .59.59 0 000-1.116 2.136 2.136 0 00-1.925 0 .588.588 0 000 1.116zm-1.312-1.962c.356-.209.331-.552 0-.773l-6.351-3.679a1.441 1.441 0 00-1.324 0c-.356.196-.343.54 0 .76l6.351 3.68a1.448 1.448 0 001.324.012z" fill="#455A64"/><path opacity=".3" d="M486.885 247.233a1.038 1.038 0 00.969 0 .296.296 0 00.139-.444.297.297 0 00-.139-.108 1.05 1.05 0 00-.969 0 .297.297 0 00-.192.276.296.296 0 00.192.276zm1.496 4.416a2.142 2.142 0 001.925 0 .598.598 0 00.401-.558.588.588 0 00-.401-.558 2.137 2.137 0 00-1.925 0 .588.588 0 000 1.116zm-1.312-1.962c.356-.209.331-.552 0-.773l-6.351-3.679a1.441 1.441 0 00-1.324 0c-.356.196-.343.54 0 .76l6.351 3.68a1.448 1.448 0 001.324.012z" fill="#000"/><path d="M154.797 131.813l-99.313 57.385a5.545 5.545 0 000 9.812l71.665 41.38a6.525 6.525 0 005.91 0l99.313-57.385a5.554 5.554 0 002.154-7.768 5.561 5.561 0 00-2.154-2.044l-71.665-41.38a6.528 6.528 0 00-5.91 0z" fill="#455A64"/><path opacity=".2" d="M154.797 131.813l-99.313 57.385a5.545 5.545 0 000 9.812l71.665 41.38a6.525 6.525 0 005.91 0l99.313-57.385a5.554 5.554 0 002.154-7.768 5.561 5.561 0 00-2.154-2.044l-71.665-41.38a6.528 6.528 0 00-5.91 0z" fill="#000"/><path d="M130.055 146.101l-74.62 43.097a5.546 5.546 0 000 9.812l71.665 41.38c.91.482 1.926.726 2.955.712v-95.001z" fill="#455A64"/><path opacity=".1" d="M130.055 146.101l-74.62 43.097a5.546 5.546 0 000 9.812l71.665 41.38c.91.482 1.926.726 2.955.712v-95.001z" fill="#000"/><path d="M55.435 189.198l99.313-57.385a6.528 6.528 0 015.91 0l71.665 41.38c1.631.945 1.631 2.453 0 3.41l-99.313 57.385a6.528 6.528 0 01-5.91 0l-71.665-41.38c-1.63-.944-1.63-2.477 0-3.41z" fill="#455A64"/><path d="M102.345 130.109L42.266 95.437a5.668 5.668 0 00-.71 2.882l5.137 85.974a6.831 6.831 0 002.979 5.004 6.34 6.34 0 005.714-.099l48.001-27.68-1.042-31.409z" fill="#455A64"/><path opacity=".2" d="M102.345 130.109L42.266 95.437a5.668 5.668 0 00-.71 2.882l5.137 85.974a6.831 6.831 0 002.979 5.004 6.34 6.34 0 005.714-.099l48.001-27.68-1.042-31.409z" fill="#000"/><path d="M66.519 189.199l88.279-50.984a6.523 6.523 0 015.909 0l2.453 1.386c1.63.945 1.63 2.453 0 3.41l-88.28 50.983a6.526 6.526 0 01-5.909 0l-2.452-1.386c-1.63-.944-1.63-2.477 0-3.409z" fill="#455A64"/><path opacity=".1" d="M66.519 189.199l88.279-50.984a6.523 6.523 0 015.909 0l2.453 1.386c1.63.945 1.63 2.453 0 3.41l-88.28 50.983a6.526 6.526 0 01-5.909 0l-2.452-1.386c-1.63-.944-1.63-2.477 0-3.409z" fill="#000"/><path d="M77.64 195.588l88.278-50.983a6.59 6.59 0 015.91 0l27.329 15.797c1.631.932 1.631 2.453 0 3.409l-88.278 50.983a6.515 6.515 0 01-5.91 0l-27.33-15.796c-1.667-.932-1.667-2.465 0-3.41z" fill="#455A64"/><path opacity=".1" d="M77.64 195.588l88.278-50.983a6.59 6.59 0 015.91 0l27.329 15.797c1.631.932 1.631 2.453 0 3.409l-88.278 50.983a6.515 6.515 0 01-5.91 0l-27.33-15.796c-1.667-.932-1.667-2.465 0-3.41z" fill="#000"/><path d="M149.623 198.789l27.33-15.784a6.523 6.523 0 015.909 0l10.704 6.194c1.631.932 1.631 2.452 0 3.409l-27.329 15.784a6.515 6.515 0 01-5.91 0l-10.716-6.193c-1.619-.932-1.619-2.465.012-3.41z" fill="#455A64"/><path opacity=".1" d="M149.623 198.789l27.33-15.784a6.523 6.523 0 015.909 0l10.704 6.194c1.631.932 1.631 2.452 0 3.409l-27.329 15.784a6.515 6.515 0 01-5.91 0l-10.716-6.193c-1.619-.932-1.619-2.465.012-3.41z" fill="#000"/><path d="M158.083 167.993l2.746-1.594c.123-.074.111-.184 0-.258l-3.494-1.987a.522.522 0 00-.466 0l-2.746 1.583c-.123.073-.099.196 0 .269l3.42 1.975a.542.542 0 00.54.012zm-6.045-6.61l-2.759 1.582c-.11.073-.098.184 0 .27l3.421 1.974a.486.486 0 00.454 0l2.759-1.582c.11-.073.098-.184 0-.27l-3.421-1.974a.486.486 0 00-.454 0zm-8.889 5.126l-4.659 2.698c-.123 0-.111.184 0 .258l3.421 1.975a.535.535 0 00.466 0l4.659-2.699c.11-.061.098-.184 0-.257l-3.421-1.975a.5.5 0 00-.466-.061v.061zm4.904-2.808l-2.758 1.594c-.111.061-.098.184 0 .258l3.457 1.962a.512.512 0 00.454 0l2.759-1.594c.11-.062.098-.184 0-.258l-3.421-1.975a.503.503 0 00-.527-.049l.036.062zm-10.802 6.23l-2.746 1.594c-.123.062-.11.184 0 .258l3.421 1.987a.522.522 0 00.466 0l2.746-1.582c.123-.074.098-.197 0-.27l-3.421-2.024a.539.539 0 00-.502-.024l.036.061zm-4.021 2.33l-2.747 1.582c-.122.074-.11.197 0 .27l3.421 1.975a.567.567 0 00.466 0l2.747-1.595c.122-.073.098-.184 0-.269l-3.421-1.975a.486.486 0 00-.503-.049l.037.061zm13.487 8.021l2.759-1.582c.11-.074.098-.184 0-.27l-3.421-1.974a.486.486 0 00-.454 0l-2.759 1.582c-.11.073-.098.184 0 .27l3.421 1.974a.492.492 0 00.405-.061l.049.061zm-4.022 2.33l2.759-1.594c.11-.061.098-.184 0-.258l-3.421-1.974a.46.46 0 00-.453 0l-2.759 1.594c-.11.062-.098.184 0 .258l3.421 1.974a.498.498 0 00.38-.061l.073.061zm-4.021 2.318l2.758-1.582c.111-.073.099-.196 0-.27l-3.506-2.072a.54.54 0 00-.454 0l-2.759 1.594c-.11.061-.098.184 0 .258l3.421 1.987a.51.51 0 00.242.078.5.5 0 00.249-.054l.049.061zm-4.022 2.331l2.759-1.595c.11-.073.098-.184 0-.27l-3.421-1.974a.486.486 0 00-.454 0l-2.758 1.582c-.111.074-.098.184 0 .27l3.421 1.974c.136.038.281.02.404-.049l.049.062zm19.458-16.888l2.747-1.595c.122 0 .11-.184 0-.257l-3.421-1.975a.524.524 0 00-.466 0l-2.746 1.594c-.123.062-.099.184 0 .258l3.42 1.975a.51.51 0 00.417-.062l.049.062zm-3.372 7.591l6.131-3.544c.123-.074.098-.184 0-.27l-8.313-4.795a.486.486 0 00-.454 0l-3.175 1.827c-.111.074-.098.184 0 .27l4.401 2.539c.135.073.148.196 0 .257l-2.538 1.472c-.11.061-.098.184 0 .257l3.421 1.975a.505.505 0 00.478-.049l.049.061zm-21.603-3.446l-2.747 1.594c-.122.062-.11.184 0 .258l3.421 1.974a.525.525 0 00.466 0l2.746-1.594c.123-.061.099-.184 0-.258l-3.42-1.974a.498.498 0 00-.466 0zm-4.022 2.33l-2.746 1.582c-.123.074-.111.184 0 .27l3.421 1.975a.52.52 0 00.465 0l2.747-1.582c.122-.074.098-.184 0-.27l-3.421-1.975a.497.497 0 00-.429 0h-.037zm-19.151 26.589a.482.482 0 00.453 0l2.747-1.582c.122-.073.11-.184 0-.27l-3.421-1.974a.51.51 0 00-.466 0l-2.746 1.582c-.123.074-.099.184 0 .27l3.433 1.974zm-13.022-8.008l-2.758 1.582c-.11.073-.098.184 0 .27l3.42 1.974a.485.485 0 00.454 0l2.759-1.582c.11-.073.098-.184 0-.27l-3.42-1.974a.485.485 0 00-.418 0h-.037zm7.075 5.789a.509.509 0 00.454 0l2.746-1.595c.123 0 .11-.184 0-.257l-3.433-1.975a.497.497 0 00-.454 0l-2.746 1.594c-.123.062-.11.184 0 .258l3.433 1.975zm13.401 3.838l2.759-1.594c.11-.061.098-.184 0-.258l-3.421-1.974a.496.496 0 00-.454 0l-2.758 1.594c-.111.062-.098.184 0 .258l3.421 1.974a.5.5 0 00.49 0h-.037zm-4.475 2.306a.486.486 0 00.454 0l2.758-1.582c.111-.074.098-.196 0-.27l-3.42-1.974a.544.544 0 00-.454 0l-2.759 1.594c-.11.073-.098.184 0 .257l3.421 1.975zm-11.979-14.264l-2.759 1.595c-.11.061-.098.184 0 .257l3.421 1.987a.485.485 0 00.454 0l2.759-1.594c.11 0 .098-.184 0-.258l-3.421-1.974a.53.53 0 00-.417-.013h-.037zm20.108-11.614l-2.759 1.594c-.11.062-.098.184 0 .258l3.421 1.987a.497.497 0 00.454 0l2.758-1.582c.111-.074.099-.196 0-.27l-3.42-1.975a.554.554 0 00-.417-.012h-.037zm-16.05 9.333l-2.758 1.595c-.11 0-.098.184 0 .257l3.421 1.975a.508.508 0 00.453 0l2.759-1.595c.11-.061.098-.184 0-.257l-3.421-1.975a.497.497 0 00-.454 0zm20.108-11.614l-2.746 1.594c-.123 0-.11.184 0 .258l3.421 1.974a.496.496 0 00.453 0l2.759-1.594c.11-.061.098-.184 0-.258l-3.421-1.974a.465.465 0 00-.466-.037v.037zm-8.043 4.648l-2.759 1.582c-.11.074-.098.184 0 .27l3.421 1.975a.54.54 0 00.454 0l2.759-1.595c.11-.073.098-.184 0-.27l-3.421-1.974a.48.48 0 00-.224-.068.505.505 0 00-.23.043v.037zm-4.021 2.318l-2.759 1.594c-.11.062-.098.184 0 .258l3.421 1.975a.509.509 0 00.453 0l2.759-1.595c.11-.061.098-.184 0-.257l-3.421-1.987a.504.504 0 00-.453-.025v.037zm-4.022 2.33l-2.759 1.582c-.11.074-.098.184 0 .27l3.421 1.975a.497.497 0 00.454 0l2.758-1.582c.111-.074.099-.184 0-.27l-3.42-1.975a.494.494 0 00-.454-.036v.036zm21.518 3.373l2.746-1.582c.123-.074.111-.184 0-.27l-3.42-1.974a.486.486 0 00-.454 0l-2.783 1.545c-.111.073-.098.184 0 .27l3.421 1.974a.49.49 0 00.49 0v.037zm34.331-35.653l-2.759 1.595c-.111.061-.098.184 0 .257l3.421 1.975a.508.508 0 00.453 0l2.759-1.594c.11 0 .098-.184 0-.258l-3.421-1.975a.46.46 0 00-.417-.036l-.036.036zm-4.905 2.809l-2.759 1.594c-.11.062-.098.184 0 .258l3.421 1.974a.5.5 0 00.454 0l2.759-1.594c.11 0 .098-.184 0-.257l-3.421-1.975a.498.498 0 00-.331-.037l-.123.037zm8.889-5.127l-2.636 1.546c-.11.073-.098.184 0 .27l3.421 1.974a.486.486 0 00.454 0l2.758-1.582c.111-.074.098-.184 0-.27l-3.42-1.974a.486.486 0 00-.503 0l-.074.036zm-20.206 21.831l2.759-1.594c.11-.074.098-.184 0-.27l-3.421-1.975a.497.497 0 00-.453 0l-2.759 1.582c-.11.074-.098.197 0 .27l3.421 1.975a.537.537 0 00.527-.025l-.074.037zm24.755-24.161a.509.509 0 00-.453 0l-2.759 1.595c-.111 0-.098.184 0 .257l3.421 1.975a.508.508 0 00.453 0l2.759-1.595c.11-.061.098-.184 0-.257l-3.421-1.975zm-38.842 37.959l2.758-1.595c.111 0 .098-.184 0-.257l-3.421-1.975a.495.495 0 00-.453 0l-2.783 1.558c-.111.061-.099.184 0 .257l3.42 1.975a.51.51 0 00.479.024v.013zm49.325-28.491l2.747-1.582c.122-.073.11-.184 0-.27l-3.421-1.974a.51.51 0 00-.466 0l-2.746 1.582c-.123.073-.099.184 0 .27l3.384 1.95a.487.487 0 00.502.012v.012zm-8.913-.49l2.758-1.595c.111-.073.098-.184 0-.269l-3.421-1.975a.482.482 0 00-.453 0l-2.734 1.558c-.111.073-.098.183 0 .269l3.42 1.975a.544.544 0 00.43.024v.013zm3.322-6.132a.538.538 0 00-.453 0l-2.759 1.594c-.11.061-.098.184 0 .257l3.421 1.987a.486.486 0 00.453 0l2.759-1.582c.11-.073.098-.196 0-.27l-3.421-1.986zm.846-.491l8.313 4.795a.5.5 0 00.454 0l2.746-1.594c.123-.061.111-.184 0-.258l-8.313-4.795a.46.46 0 00-.453 0l-2.759 1.594c-.135.025-.123.148.012.221v.037zm-9.343 5.114l-2.758 1.595c-.111 0-.098.184 0 .257l3.421 1.975a.508.508 0 00.453 0l2.759-1.595c.11-.061.098-.184 0-.257l-3.421-1.975a.499.499 0 00-.454-.037v.037zm-30.272 17.489l-2.734 1.546c-.11.073-.098.184 0 .269l3.421 1.975a.486.486 0 00.453 0l2.759-1.582c.111-.074.098-.184 0-.27l-3.421-1.975a.498.498 0 00-.478 0v.037zm39.885-13.159a.509.509 0 00.454 0l2.746-1.595c.123-.061.11-.184 0-.257l-3.421-1.975a.483.483 0 00-.466 0l-2.746 1.594c-.123 0-.098.184 0 .258l3.433 1.975zm-35.863 10.829l-2.759 1.594c-.11.062-.098.184 0 .258l3.421 1.975a.509.509 0 00.454 0l2.758-1.595c.111 0 .098-.184 0-.257l-3.421-1.975a.506.506 0 00-.453-.037v.037zm-29.549 26.982a.509.509 0 00.454 0l2.746-1.595c.123-.061.11-.184 0-.257l-3.421-1.975a.535.535 0 00-.466 0l-2.746 1.595c-.123.061-.098.184 0 .257l3.433 1.975zm-6.633-6.108l-2.747 1.582c-.122.074-.098.184 0 .27l3.421 1.975a.497.497 0 00.454 0l2.746-1.583c.123-.073.111-.184 0-.269l-3.421-1.975a.507.507 0 00-.453 0zm11.133 3.679l2.746-1.582c.123-.073.111-.184 0-.27l-3.421-1.974a.51.51 0 00-.466 0l-2.746 1.582c-.123.074-.098.184 0 .27l3.421 1.974a.486.486 0 00.441.049l.025-.049zm4.021-2.318l2.747-1.582c.122-.073.11-.196 0-.27l-3.421-1.974a.567.567 0 00-.466 0l-2.746 1.594c-.123.062-.098.184 0 .258l3.42 1.987a.498.498 0 00.442.036l.024-.049zm4.022-2.318l2.746-1.594c.123-.061.111-.184 0-.257l-3.42-1.987a.513.513 0 00-.466 0l-2.747 1.594c-.122.061-.098.184 0 .258l3.421 1.974a.544.544 0 00.441.061l.025-.049zm-15.155-1.422l-2.746 1.594c-.123 0-.098.184 0 .258l3.421 1.987a.497.497 0 00.453 0l2.747-1.583c.122-.073.11-.196 0-.269l-3.421-1.975a.575.575 0 00-.478.037l.024-.049zm4.022-2.318l-2.771 1.668c-.123.061-.098.184 0 .257l3.421 1.975a.509.509 0 00.453 0l2.747-1.594c.123-.062.11-.184 0-.258l-3.421-1.975a.492.492 0 00-.454-.024l.025-.049zm16.099-9.297l-2.759 1.595c-.11 0-.098.184 0 .257l3.421 1.987a.482.482 0 00.453 0l2.759-1.582c.11-.074.098-.196 0-.27l-3.494-1.913a.542.542 0 00-.405-.025l.025-.049zm-4.022 2.331l-2.759 1.582c-.11.073-.098.196 0 .27l3.421 1.974a.54.54 0 00.454 0l2.746-1.594c.123-.074.111-.184 0-.27l-3.433-1.913a.486.486 0 00-.454 0l.025-.049zm8.043-4.649l-2.759 1.595c-.11.061-.098.184 0 .257l3.421 1.975a.512.512 0 00.454 0l2.759-1.594c.11-.062.098-.184 0-.258l-3.421-1.975a.517.517 0 00-.417.049l-.037-.049zm-16.098 9.297l-2.747 1.582c-.123.074-.098.184 0 .27l3.421 1.974a.486.486 0 00.454 0l2.746-1.582c.123-.073.11-.184 0-.27l-3.421-1.974a.512.512 0 00-.478.049l.025-.049zm4.021-2.33l-2.746 1.594c-.123.061-.098.184 0 .258l3.42 1.974a.502.502 0 00.454 0l2.747-1.594c.122 0 .11-.184 0-.258l-3.421-1.974a.526.526 0 00-.478.049l.024-.049zm-1.974 16.949l2.759-1.582c.11-.074.098-.184 0-.27l-3.421-1.974a.486.486 0 00-.454 0l-2.758 1.582c-.111.073-.098.184 0 .269l3.42 1.975a.495.495 0 00.43.049l.024-.049zm-24.644-2.98l-3.421-1.975a.51.51 0 00-.454 0l-2.758 1.68c-.11.062-.099.184 0 .258l3.42 1.975a.51.51 0 00.454 0l2.759-1.595c.122-.098.11-.221-.025-.294l.025-.049zm6.375 1.962l-3.433-1.975a.497.497 0 00-.453 0l-4.23 2.453c-.123.062-.099.184 0 .258l3.42 1.987a.496.496 0 00.454 0l4.23-2.453c.135-.074.123-.074-.012-.221l.024-.049zm-11.672-5.764l-3.42-1.975a.496.496 0 00-.455 0l-3.396 1.95c-.11.074-.098.184 0 .27l3.482 2.036a.485.485 0 00.454 0l3.396-1.95c.061-.086.05-.196-.086-.282l.025-.049zm2.6-1.496a.51.51 0 00.453 0l2.746-1.595c.123-.061.11-.184 0-.257l-3.433-1.975a.497.497 0 00-.453 0l-2.747 1.594c-.122.062-.11.184 0 .258l3.433 1.975zm15.019 9.48l-3.433-1.987a.498.498 0 00-.454 0l-5.26 3.091c-.122.073-.11.184 0 .27l3.421 1.974a.51.51 0 00.466 0l5.284-3.054c.099-.049.086-.171-.049-.245l.025-.049zm2.979 3.925l-3.421-1.987a.482.482 0 00-.453 0l-3.396 1.95c-.111.073-.099.184 0 .27l3.42 1.974a.486.486 0 00.454 0l3.396-1.95c.135-.074.135-.073-.024-.208l.024-.049zm11.906-30.662a.536.536 0 00.453 0l2.747-1.594c.122 0 .11-.184 0-.257l-3.421-1.987a.51.51 0 00-.466 0l-2.746 1.582c-.123.073-.098.196 0 .27l3.433 1.986zm-8.093 4.685a.486.486 0 00.454 0l2.747-1.582c.122-.073.11-.184 0-.269l-3.434-1.975a.482.482 0 00-.453 0l-2.747 1.582c-.122.074-.11.184 0 .27l3.433 1.974zm-17.84 10.303a.496.496 0 00.454 0l2.747-1.583c.123-.073.11-.183 0-.269l-3.42-1.914a.522.522 0 00-.467 0l-2.746 1.583c-.123.073-.098.183 0 .269l3.433 1.914zm21.862-12.633a.46.46 0 00.454 0l2.746-1.594c.123-.061.11-.184 0-.258l-3.433-1.974a.496.496 0 00-.454 0l-2.746 1.594c-.123.061-.11.184 0 .258l3.433 1.974zm-8.055 4.648a.522.522 0 00.466 0l2.746-1.594c.123-.061.098-.184 0-.257l-3.421-1.975a.496.496 0 00-.453 0l-2.747 1.594c-.123 0-.11.184 0 .258l3.409 1.974zm2.452 24.063a.538.538 0 00-.466 0l-4.23 2.453c-.111 0-.098.184 0 .258l3.421 1.974a.536.536 0 00.453 0l4.23-2.453c.123-.061.111-.184 0-.257l-3.408-1.975zm-8.227-20.727a.537.537 0 00.453 0l2.747-1.594c.122-.074.11-.184 0-.258l-3.421-1.986a.51.51 0 00-.466 0l-2.746 1.582c-.123.073-.098.196 0 .27l3.433 1.986zm-4.022 2.318a.497.497 0 00.454 0l2.746-1.594c.123 0 .111-.184 0-.258l-3.42-1.974a.523.523 0 00-.466 0l-2.747 1.594c-.123.062-.098.184 0 .258l3.433 1.974zm86.783-24.627a.54.54 0 00-.454 0l-6.78 3.913c-.11.073-.098.184 0 .27l3.421 1.974a.537.537 0 00.453 0l6.781-3.912c.11-.074.098-.196 0-.27l-3.421-1.975zm-8.889 5.139a.512.512 0 00-.454 0l-2.759 1.595c-.11.061-.098.184 0 .257l3.421 1.975a.512.512 0 00.454 0l2.759-1.595c.11 0 .098-.184 0-.257l-3.421-1.975zm-54.574 30.097l2.759-1.594c.11-.062.098-.184 0-.258l-3.421-1.974a.497.497 0 00-.453 0l-2.759 1.594c-.11.061-.098.184 0 .258l3.421 1.974a.46.46 0 00.49 0h-.037zm46.531-25.461a.497.497 0 00-.454 0l-2.759 1.582c-.11.074-.098.197 0 .27l3.421 1.975a.54.54 0 00.454 0l2.758-1.595c.111 0 .098-.184 0-.257l-3.42-1.975zm20.954-12.093a.471.471 0 00-.454 0l-2.759 1.595c-.11.061-.098.184 0 .257l3.482 1.95a.5.5 0 00.454 0l2.759-1.594c.11-.061.098-.184 0-.258l-3.482-1.95zm7.442-.355l-8.276-4.796a.54.54 0 00-.454 0l-2.746 1.595c-.123.061-.111.184 0 .257l8.313 4.808a.494.494 0 00.453 0l2.759-1.582c.135-.086.135-.172-.012-.282h-.037zm-43.428 21.131a.497.497 0 00-.454 0l-3.396 1.95c-.111.074-.098.184 0 .27l3.421 1.975a.493.493 0 00.453 0l3.397-1.95c.11-.074.098-.184 0-.27l-3.421-1.975zm10.164-5.862a.52.52 0 00-.466 0l-4.23 2.453c-.11.073-.098.196 0 .27l3.421 1.974a.537.537 0 00.454 0l4.23-2.453c.122-.061.11-.184 0-.257l-3.409-1.987zm-19.483 11.246a.508.508 0 00-.453 0l-22.634 13.062c-.123.061-.11.184 0 .258l3.421 1.974a.52.52 0 00.466 0l22.646-13.086c.122 0 .098-.184 0-.258l-3.446-1.95zm-23.921 13.81a.496.496 0 00-.453 0l-3.384 1.95c-.123.074-.111.184 0 .27l3.433 1.975a.497.497 0 00.453 0l3.384-1.95c.123-.074.098-.184 0-.27l-3.433-1.975zm28.581-16.508a.497.497 0 00-.454 0l-3.384 1.95c-.123.074-.11.184 0 .27l3.421 1.975a.564.564 0 00.466 0l3.384-1.963c.11 0 .098-.184 0-.257l-3.433-1.975zm-33.203 19.219a.486.486 0 00-.454 0l-3.384 1.95c-.122.073-.098.184 0 .269l3.421 1.975a.54.54 0 00.454 0l3.384-1.962c.122-.062.11-.184 0-.258l-3.421-1.974zm42.558-24.529a.5.5 0 00-.454 0l-3.396 1.962c-.111.061-.098.184 0 .258l3.421 1.974a.495.495 0 00.453 0l3.396-1.962c.111-.061.099-.184 0-.258l-3.42-1.974zm14.394-8.377a.537.537 0 00-.454 0l-2.758 1.595c-.111.073-.098.184 0 .257l3.42 1.987a.498.498 0 00.454 0l2.759-1.582c.11-.074.098-.196 0-.27l-3.421-1.987zm8.73-6.451l2.746-1.594c.123-.062.098-.184 0-.258l-3.421-1.974a.495.495 0 00-.453 0l-2.747 1.594c-.122.061-.11.184 0 .258l3.421 1.974a.523.523 0 00.454 0zm-18.674-.515l2.747-1.582c.122-.074.11-.196 0-.27l-3.421-1.975a.567.567 0 00-.466 0l-2.746 1.595c-.123.073-.098.184 0 .257l3.42 1.987a.493.493 0 00.466-.012zm-8.447 16.164l8.043-4.648c.11 0 .098-.184 0-.257l-3.421-1.987a.486.486 0 00-.454 0l-8.043 4.648c-.122 0-.11.184 0 .258l3.421 1.974a.522.522 0 00.454.012zm22.609-13.343a.523.523 0 00.466 0l2.746-1.582c.123-.074.098-.184 0-.27l-3.421-1.975a.497.497 0 00-.453 0l-2.759 1.631c-.123.074-.11.184 0 .27l3.421 1.926zm-4.426-2.809l2.746-1.582c.123-.073.11-.196 0-.27l-3.433-1.974a.54.54 0 00-.454 0l-2.746 1.594c-.123.061-.111.184 0 .258l3.421 1.987a.489.489 0 00.49-.013h-.024zm-22.205 18.47l2.746-1.582c.123-.073.099-.184 0-.269l-3.42-1.975a.54.54 0 00-.454 0l-2.746 1.594c-.123.074-.111.184 0 .27l3.42 1.975a.517.517 0 00.479-.013h-.025zm17.766-10.498a.463.463 0 00.454 0l2.758-1.594c.111-.062.099-.184 0-.258l-3.469-1.987a.512.512 0 00-.454 0l-2.759 1.595c-.11 0-.098.184 0 .257l3.47 1.987zm-37.862 22.076l2.759-1.582c.11-.074.098-.184 0-.27l-3.421-1.974a.537.537 0 00-.453 0l-2.759 1.594c-.11.074-.098.184 0 .27l3.47 1.962a.483.483 0 00.404 0zm4.022-2.318l2.759-1.594c.11-.062.098-.184 0-.258l-3.507-1.962a.496.496 0 00-.454 0l-2.758 1.594c-.111 0-.098.184 0 .258l3.42 1.974a.503.503 0 00.54.025v-.037zm-8.043 4.648l2.758-1.594c.111 0 .099-.184 0-.258l-3.42-1.986a.486.486 0 00-.454 0l-2.759 1.582c-.11.073-.098.196 0 .269l3.421 1.975a.547.547 0 00.454.049v-.037zm16.098-9.296l2.747-1.594c.11-.062.098-.184 0-.258l-3.421-1.975a.509.509 0 00-.454 0l-2.746 1.595c-.123.061-.11.184 0 .257l3.421 1.975a.488.488 0 00.453.037v-.037zm-4.033 2.318l2.758-1.582c.111-.074.098-.184 0-.27l-3.421-1.975a.493.493 0 00-.453 0l-2.759 1.582c-.11.074-.098.184 0 .27l3.421 1.975a.488.488 0 00.454.037v-.037zm8.055-4.636l2.746-1.594c.123 0 .098-.184 0-.258l-3.42-1.987a.497.497 0 00-.454 0l-2.746 1.582c-.123.074-.111.196 0 .27l3.42 1.975a.564.564 0 00.454.049v-.037zm16.846-35.26a.497.497 0 00.454 0l2.759-1.582c.11-.074.098-.184 0-.27l-.907-.528a.525.525 0 00-.466 0l-2.747 1.595c-.122.061-.098.184 0 .257l.907.528zm-19.703 12.828a.486.486 0 00.454 0l2.759-1.582c.11-.073.098-.184 0-.27l-3.421-1.974a.486.486 0 00-.454 0l-2.759 1.582c-.11.073-.098.184 0 .27l3.421 1.974zm8.043-4.648a.54.54 0 00.454 0l2.759-1.594c.11 0 .098-.184 0-.258l-3.421-1.987a.497.497 0 00-.454 0l-2.758 1.582c-.111.074-.099.197 0 .27l3.42 1.987zm-12.947 7.481a.537.537 0 00.453 0l2.747-1.594c.123 0 .098-.184 0-.258l-3.421-1.986a.486.486 0 00-.454 0l-2.746 1.582c-.123.073-.11.196 0 .27l3.421 1.986zm8.926-5.163a.46.46 0 00.453 0l2.722-1.521c.111-.061.098-.184 0-.257l-3.42-1.975a.515.515 0 00-.454 0l-2.759 1.595c-.11.061-.098.183 0 .257l3.458 1.901zm-16.982 9.812a.525.525 0 00.466 0l2.747-1.583c.122-.073.098-.183 0-.269l-3.421-1.975a.498.498 0 00-.454 0l-2.746 1.582c-.123.074-.111.184 0 .27l3.408 1.975zm4.022-2.318a.522.522 0 00.466 0l2.746-1.595c.123-.061.098-.184 0-.257l-3.42-1.975a.515.515 0 00-.454 0l-2.747 1.594c-.122 0-.11.184 0 .258l3.409 1.975zm20.598-13.344a.498.498 0 00.454 0l2.746-1.582c.123-.074.111-.196 0-.27l-.907-.527a.51.51 0 00-.466 0l-2.746 1.582c-.123.073-.098.184 0 .27l.919.527zm12.065-6.979a.46.46 0 00.454 0l2.758-1.594c.111-.061.099-.184 0-.257l-.907-.528a.523.523 0 00-.466 0l-2.746 1.582c-.123.074-.098.184 0 .27l.907.527zm7.185 4.158a.537.537 0 00.454 0l2.758-1.594c.111-.074.098-.184 0-.27l-3.42-1.975a.5.5 0 00-.454 0l-2.759 1.582c-.11.074-.098.184 0 .27l3.421 1.987zm11.108 10.83l2.747-1.595c.122-.073.098-.184 0-.27l-3.421-1.974a.486.486 0 00-.454 0l-2.746 1.582c-.123.074-.11.184 0 .27l3.384 1.987a.56.56 0 00.49 0zm-26.336-10.327a.496.496 0 00.454 0l2.758-1.594c.111 0 .098-.184 0-.258l-.907-.527a.525.525 0 00-.466 0l-2.746 1.594c-.123 0-.099.184 0 .258l.907.527zm-32.663 20.31a.52.52 0 00.466 0l2.746-1.595c.123 0 .098-.184 0-.257l-3.421-1.975a.508.508 0 00-.453 0l-2.747 1.595c-.122 0-.11.184 0 .257l3.409 1.975z" fill="#393939"/><path d="M49.721 189.297a6.834 6.834 0 01-2.98-5.004l-5.136-85.974a6.133 6.133 0 012.93-5.249l99.313-57.385a6.266 6.266 0 015.493 0 6.879 6.879 0 012.98 5.016l5.137 85.973a6.133 6.133 0 01-2.759 5.115l-99.313 57.385a6.341 6.341 0 01-5.665.123z" fill="#455A64"/><path opacity=".4" d="M49.721 189.297a6.834 6.834 0 01-2.98-5.004l-5.136-85.974a6.133 6.133 0 012.93-5.249l99.313-57.385a6.266 6.266 0 015.493 0 6.879 6.879 0 012.98 5.016l5.137 85.973a6.133 6.133 0 01-2.759 5.115l-99.313 57.385a6.341 6.341 0 01-5.665.123z" fill="#fff"/><path d="M49.893 96.381l99.314-57.385a1.936 1.936 0 013.163 1.705l5.137 85.973a6.133 6.133 0 01-2.758 5.115l-99.314 57.385a1.941 1.941 0 01-2.146.203 1.943 1.943 0 01-1.005-1.908l-5.137-85.986a6.037 6.037 0 012.746-5.102z" fill="#455A64"/><path d="M52.247 98.454l95.377-55.08a1.545 1.545 0 012.526 1.362l4.475 74.948a4.905 4.905 0 01-2.194 4.084l-94.642 54.675a1.567 1.567 0 01-2.368-.475 1.57 1.57 0 01-.183-.887l-5.161-74.567a4.788 4.788 0 012.17-4.06z" fill="#fff"/><path d="M318.444 184.501l12.715-7.358a6.836 6.836 0 003.053-6.709l-4.684-24.357 5.542-3.201 27.685 22.407c.368 1.95 9.061 18.924 6.401 28.331-2.355 8.291-15.94 9.186-17.485 10.057l-33.227-12.792v-6.378z" fill="#455A64"/><path d="M351.671 203.695l12.702-7.358a6.83 6.83 0 002.518-2.904 6.827 6.827 0 00.547-3.805l-4.683-24.345 5.529-3.201 5.358 27.853a10.285 10.285 0 01-4.622 10.118l-17.349 10.02v-6.378z" fill="#455A64"/><path opacity=".3" d="M351.671 203.695l12.702-7.358a6.83 6.83 0 002.518-2.904 6.827 6.827 0 00.547-3.805l-4.683-24.345 5.529-3.201 5.358 27.853a10.285 10.285 0 01-4.622 10.118l-17.349 10.02v-6.378z" fill="#000"/><path d="M318.444 184.501l33.227 19.194v6.402l-33.227-19.194v-6.402z" fill="#455A64"/><path opacity=".4" d="M318.444 184.501l33.227 19.194v6.402l-33.227-19.194v-6.402z" fill="#fff"/><path d="M287.952 22.918a6.323 6.323 0 00-2.771 5.016V129.9a6.545 6.545 0 002.955 5.114l127.06 73.378a5.535 5.535 0 005.729.114 5.54 5.54 0 002.767-5.019V101.52a6.521 6.521 0 00-2.955-5.114L293.678 23.028a6.327 6.327 0 00-5.726-.11z" fill="#455A64"/><path d="M415.195 208.392a5.538 5.538 0 007.813-2.01 5.55 5.55 0 00.684-2.895V101.52a6.052 6.052 0 00-.858-2.906l-98.872 57.091 91.233 52.687z" fill="#455A64"/><path opacity=".2" d="M415.489 208.172a5.549 5.549 0 005.701.085 5.544 5.544 0 002.759-4.991l-.551-101.979a6.14 6.14 0 00-.883-2.906l-98.566 57.642 91.54 52.149z" fill="#22343D"/><path d="M285.181 129.9V27.934c0-1.889 1.324-2.65 2.955-1.717l127.06 73.39a6.516 6.516 0 012.954 5.114v101.967c0 1.888-1.324 2.649-2.954 1.704l-127.06-73.378a6.541 6.541 0 01-2.955-5.114z" fill="#455A64"/><path opacity=".4" d="M285.181 129.9V27.934c0-1.889 1.324-2.65 2.955-1.717l127.06 73.39a6.516 6.516 0 012.954 5.114v101.967c0 1.888-1.324 2.649-2.954 1.704l-127.06-73.378a6.541 6.541 0 01-2.955-5.114z" fill="#22343D"/><path d="M290.318 30.681l122.707 70.864a5.228 5.228 0 012.354 4.096v90.524c0 1.508-1.054 2.122-2.354 1.373l-122.707-70.863a5.226 5.226 0 01-2.367-4.097V32.042c0-1.508 1.055-2.121 2.367-1.361z" fill="#fff"/><path d="M271.154 179.779l-27.342 15.785a5.542 5.542 0 000 9.811l88.278 50.984a6.527 6.527 0 005.91 0l27.342-15.785a5.554 5.554 0 000-9.811l-88.279-50.984a6.497 6.497 0 00-5.909 0z" fill="#37474F"/><path d="M335.045 257.045a5.946 5.946 0 002.955-.711l27.342-15.784a5.559 5.559 0 000-9.812l-2.845-1.643h-27.452v27.95z" fill="#263238"/><path d="M365.355 230.787l-88.279-50.983a6.525 6.525 0 00-5.91 0l-27.341 15.797c-1.631.932-1.631 2.453 0 3.409l88.278 50.983a6.565 6.565 0 005.898 0l27.342-15.796c1.655-.932 1.655-2.465.012-3.41z" fill="#455A64"/><path d="M352.762 228.26a.537.537 0 01-.454 0l-2.709-1.569c-.111 0-.098-.184 0-.258l.895-.515a.509.509 0 01.453 0l2.71 1.57c.11.061.098.184 0 .257l-.895.515zm-3.96-2.281a.537.537 0 01-.454 0l-2.709-1.569c-.111 0-.098-.184 0-.258l.895-.515a.51.51 0 01.441 0l2.722 1.569c.111.062.098.184 0 .258l-.895.515zm7.921 4.575a.473.473 0 01-.442 0l-2.709-1.558c-.123-.073-.111-.183 0-.269l.895-.515a.486.486 0 01.454 0l2.709 1.557c.123.073.111.184 0 .27l-.907.515zm3.973 2.293a.544.544 0 01-.454 0l-2.71-1.557c-.122-.062-.098-.184 0-.258l.895-.515a.528.528 0 01.442 0l2.722 1.57c.11.073.098.184 0 .257l-.895.503zm-38.917-18.065l-3.384 1.938c-.122.086-.147.196 0 .27l4.586 2.649a.537.537 0 00.454 0l3.371-1.95c.135-.074.147-.184 0-.258l-4.598-2.649a.481.481 0 00-.429 0zm-51.545-29.766l-3.371 1.95c-.135.074-.147.197 0 .258l2.709 1.57a.512.512 0 00.454 0l3.372-1.95c.135-.074.147-.184 0-.258l-2.71-1.557a.503.503 0 00-.454-.013zm3.973 2.294l-3.372 1.95c-.135.074-.147.184 0 .258l2.71 1.569a.537.537 0 00.454 0l3.371-1.95c.135-.073.147-.196 0-.257l-2.722-1.57a.51.51 0 00-.441 0zm-7.271 10.866l3.371-1.95c.135-.086.148-.196 0-.257l-2.623-1.619a.462.462 0 00-.442 0l-3.372 1.95c-.134.073-.147.196 0 .257l2.588 1.619a.487.487 0 00.478 0zm3.96 2.232l3.372-1.95c.135-.073.147-.184 0-.257l-2.71-1.558a.497.497 0 00-.453 0l-3.372 1.95c-.135.074-.147.196 0 .258l2.722 1.57a.472.472 0 00.441-.013zm3.973 2.294l3.371-1.95c.123-.074.148-.197 0-.258l-2.709-1.57a.512.512 0 00-.454 0l-3.372 1.95c-.134.074-.147.184 0 .258l2.71 1.557a.503.503 0 00.454.013zm3.96 2.293l3.371-1.95c.135-.086.148-.196 0-.257l-2.721-1.57a.462.462 0 00-.442 0l-3.372 1.95c-.134.073-.147.196 0 .257l2.71 1.57a.486.486 0 00.454 0zm-.662-15.404l-3.372 1.95c-.135.086-.147.196 0 .258l2.722 1.569a.462.462 0 00.442 0l3.371-1.95c.135-.073.147-.196 0-.257l-2.709-1.57a.54.54 0 00-.454 0zm3.961 2.293l-3.409 1.951c-.135.073-.147.196 0 .257l2.71 1.57a.509.509 0 00.453 0l3.372-1.95c.123-.074.147-.184 0-.258l-2.71-1.557a.481.481 0 00-.416-.013zm27.819 27.142c.135-.074.148-.184 0-.258l-2.709-1.557a.486.486 0 00-.454 0l-3.372 1.95c-.134.073-.147.196 0 .257l2.71 1.57a.496.496 0 00.454 0l3.371-1.962zm3.9-8.831l-3.372 1.95c-.135.086-.147.196 0 .258l2.71 1.57a.493.493 0 00.453 0l3.372-1.95c.135-.074.147-.197 0-.258l-2.734-1.582a.495.495 0 00-.429.012zm-18.085 10.143l3.371-1.95c.135-.074.148-.196 0-.258l-2.672-1.557a.502.502 0 00-.454 0l-3.372 1.938c-.135.085-.147.196 0 .269l2.722 1.558a.47.47 0 00.405 0zm7.344.343c.122-.085.147-.196 0-.269l-2.71-1.558a.486.486 0 00-.454 0l-3.371 1.95c-.135.074-.147.196 0 .258l2.709 1.569a.5.5 0 00.454 0l3.372-1.95zm6.78-12.767l-3.372 1.95c-.135.074-.16.184 0 .258l2.71 1.557a.482.482 0 00.453 0l3.372-1.95c.135-.073.147-.196 0-.257l-2.71-1.57a.51.51 0 00-.453.012zm-19.826-11.455l-3.372 1.95c-.135.086-.147.196 0 .258l2.722 1.57a.469.469 0 00.441 0l3.372-1.951c.135-.073.147-.196 0-.257l-2.71-1.57a.537.537 0 00-.453 0zm15.853 9.162l-3.372 1.95c-.135.073-.147.196 0 .257l2.71 1.57a.472.472 0 00.441 0l3.384-1.938c.123-.085.148-.196 0-.269l-2.709-1.558a.497.497 0 00-.454-.012zm-19.838-11.443l-3.372 1.95c-.134.074-.147.184 0 .257l2.71 1.558a.486.486 0 00.454 0l3.372-1.95c.134-.074.147-.196 0-.258l-2.722-1.569a.515.515 0 00-.442.012zm7.946 4.575l-3.372 1.95c-.135.073-.147.196 0 .257l2.709 1.57a.487.487 0 00.442 0l3.384-1.95c.122-.074.147-.184 0-.258l-2.71-1.557a.48.48 0 00-.453-.012zm3.972 2.293l-3.335 1.95c-.135.074-.148.184 0 .258l2.709 1.557a.486.486 0 00.454 0l3.372-1.95c.134-.073.147-.196 0-.257l-2.722-1.57a.517.517 0 00-.478.012zm4.022 2.281l-3.372 1.95c-.135.086-.147.197 0 .258l2.71 1.57a.493.493 0 00.453 0l3.372-1.95c.135-.074.147-.197 0-.258l-2.71-1.57a.537.537 0 00-.453 0zm-15.253 6.243l3.372-1.95c.123-.074.147-.196 0-.258l-2.71-1.57a.509.509 0 00-.453 0l-3.348 1.975c-.134.074-.147.184 0 .257l2.71 1.558a.495.495 0 00.429-.012zm-3.973-2.294l3.372-1.95c.135-.073.147-.184 0-.257l-2.71-1.558a.497.497 0 00-.454 0l-3.335 2.024c-.134.073-.147.196 0 .257l2.722 1.57a.474.474 0 00.405-.086zm-7.687-13.871l-3.372 1.938c-.135.086-.147.196 0 .27l2.71 1.557a.482.482 0 00.453 0l3.372-1.95c.123-.073.147-.196 0-.257l-2.71-1.57a.498.498 0 00-.453.012zm-3.96-2.293l-3.372 1.95c-.135.074-.147.184 0 .257l2.722 1.57a.51.51 0 00.441 0l3.372-1.95c.135-.073.147-.196 0-.257l-2.71-1.57a.537.537 0 00-.453 0zm34.845 25.669c.135-.073.147-.196 0-.257l-2.71-1.57a.46.46 0 00-.441 0l-3.372 1.95c-.135.074-.159.196 0 .258l2.71 1.569a.486.486 0 00.453 0l3.36-1.95zm-7.344-.343l3.372-1.95c.122-.074.147-.196 0-.258l-2.71-1.57a.509.509 0 00-.453 0l-3.372 1.95c-.135.074-.147.184 0 .258l2.709 1.558a.473.473 0 00.454.012zm-3.985-2.318l3.372-1.95c.135-.074.147-.184 0-.258l-2.649-1.471a.482.482 0 00-.453 0l-3.372 1.95c-.135.073-.147.196 0 .257l2.71 1.57a.494.494 0 00.392-.098zm-3.936-2.257l3.372-1.95c.135-.086.147-.196 0-.257l-2.722-1.57a.462.462 0 00-.441 0l-3.372 1.95c-.135.086-.147.196 0 .257l2.71 1.57a.482.482 0 00.453 0zm8.166-4.722l-3.372 1.938c-.135.086-.147.196 0 .27l2.71 1.558a.466.466 0 00.441 0l3.384-1.95c.123-.074.147-.197 0-.258l-2.71-1.57a.51.51 0 00-.453.012zm-15.854-9.161l-3.372 1.95c-.134.074-.147.184 0 .258l2.722 1.569a.514.514 0 00.442 0l3.372-1.95c.134-.073.147-.196 0-.257l-2.71-1.57a.54.54 0 00-.454 0zm3.961 2.293l-3.372 1.938c-.134.086-.147.196 0 .27l2.71 1.558a.497.497 0 00.454 0l3.371-1.951c.123-.073.148-.196 0-.257l-2.709-1.57a.502.502 0 00-.454.012zm-7.921-4.55l-3.372 1.95c-.134.074-.147.197 0 .258l2.71 1.57a.509.509 0 00.454 0l3.372-1.938c.134-.086.147-.196 0-.27l-2.722-1.57a.473.473 0 00-.442 0zm15.854 9.125l-3.372 1.913c-.135.074-.147.184 0 .258l2.71 1.57a.536.536 0 00.453 0l3.372-1.95c.135-.074.147-.197 0-.258l-2.71-1.57a.547.547 0 00-.453.037zm-3.948-2.293l-3.372 1.95c-.135.073-.147.196 0 .257l2.709 1.57a.5.5 0 00.454 0l3.372-1.938c.135-.086.147-.196 0-.27l-2.722-1.557a.458.458 0 00-.441-.012zm23.774 13.674l-3.384 1.95c-.123.074-.147.197 0 .258l2.71 1.57a.508.508 0 00.453 0l3.372-1.938c.135-.086.147-.196 0-.27l-2.71-1.557a.458.458 0 00-.441-.013zm4.168 2.306l-5.493 3.177c-.135.073-.147.196 0 .257l2.71 1.57a.537.537 0 00.453 0l5.493-3.176c.135-.074.16-.184 0-.258l-2.709-1.57a.54.54 0 00-.454 0z" fill="#37474F"/><path d="M310.781 219.541l-3.371 1.938c-.135.073-.148.196 0 .257l5.897 3.422a.537.537 0 00.454 0l3.371-1.95c.135-.074.148-.196 0-.258l-5.909-3.409a.486.486 0 00-.442 0zm-7.921-10.18l-3.372 1.95c-.134.074-.159.197 0 .258l2.71 1.57a.509.509 0 00.454 0l3.372-1.938c.134-.086.147-.196 0-.27l-2.71-1.557a.47.47 0 00-.454-.013zm7.921 4.587l-3.371 1.938c-.135.086-.148.196 0 .257l2.709 1.57a.462.462 0 00.442 0l3.371-1.95c.135-.073.16-.196 0-.257l-2.709-1.57a.502.502 0 00-.442.012zm-3.961-2.281l-3.371 1.95c-.135.074-.148.184 0 .258l2.709 1.569a.54.54 0 00.454 0l3.372-1.95c.135-.073.147-.196 0-.257l-2.71-1.57a.54.54 0 00-.454 0zm-15.019 6.377l3.372-1.95c.135-.073.147-.196 0-.257l-2.722-1.57a.51.51 0 00-.441 0l-3.372 1.95c-.135.074-.147.184 0 .258l2.71 1.569a.537.537 0 00.453 0zm22.609-3.348l2.71 1.57a.472.472 0 00.441 0l3.372-1.95c.135-.074.16-.184 0-.257l-2.709-1.558a.489.489 0 00-.454 0l-3.372 1.95c-.123.061-.123.184.012.245zm-52.072-24.614l4.169 2.452a.486.486 0 00.454 0l3.372-1.95c.122-.073.147-.196 0-.257l-4.169-2.453a.54.54 0 00-.454 0l-3.372 1.95c-.11.074-.122.184 0 .258zm10.385-6.218l3.335 1.925a.5.5 0 00.454 0l3.433-1.962c.135-.086.147-.196 0-.27l-3.347-1.926a.524.524 0 00-.441 0l-3.372 1.951c-.196.098-.196.208-.062.282zm-15.522 8.903l5.21 3.018a.552.552 0 00.454 0l3.372-1.95c.135-.086.147-.197 0-.258l-5.223-3.017a.54.54 0 00-.454 0l-3.372 1.95c-.086.086-.11.196.013.257zm47.964 33.274l3.335 1.938a.54.54 0 00.454 0l3.372-1.95c.134-.074.147-.184 0-.258l-3.348-1.925a.493.493 0 00-.441 0l-3.372 1.95c-.098.073-.11.184 0 .245zm-52.783-30.477l3.335 1.925a.537.537 0 00.453 0l3.372-1.95c.135-.086.147-.196 0-.257l-3.335-1.938a.537.537 0 00-.453 0l-3.372 1.95c-.098.086-.123.196 0 .27zm50.404 1.484c.135-.074.148-.196 0-.258l-2.722-1.57a.48.48 0 00-.441 0l-3.372 1.938c-.135.086-.147.196 0 .27l2.71 1.558a.497.497 0 00.454 0l3.371-1.938zm7.934 4.574c.123-.073.147-.184 0-.257l-2.71-1.57a.537.537 0 00-.453 0l-3.372 1.95c-.135.074-.147.196 0 .258l2.71 1.569a.536.536 0 00.453 0l3.372-1.95zm-3.973-2.219c.135-.086.147-.197 0-.258l-2.709-1.57a.497.497 0 00-.454 0l-3.372 1.95c-.135.074-.147.196 0 .258l2.722 1.57a.511.511 0 00.442 0l3.371-1.95zm7.933 4.513c.135-.074.147-.196 0-.258l-2.722-1.57a.484.484 0 00-.441 0l-3.372 1.975c-.135.074-.147.184 0 .258l2.71 1.557a.482.482 0 00.453 0l3.372-1.962zm-15.118 24.173c-.135.074-.147.196 0 .258l4.169 2.452a.536.536 0 00.453 0l3.372-1.95c.135-.073.147-.196 0-.257l-4.181-2.453a.462.462 0 00-.441 0l-3.372 1.95zm-2.452-34.279c.123-.074.147-.184 0-.258l-2.636-1.508a.537.537 0 00-.453 0l-3.372 1.95c-.135.074-.147.184 0 .258l2.709 1.569a.514.514 0 00.442 0l3.31-2.011zm-3.923-2.281c.135-.086.147-.196 0-.27l-2.71-1.558a.497.497 0 00-.454 0l-3.371 1.95c-.135.074-.147.197 0 .258l2.722 1.57a.48.48 0 00.441 0l3.372-1.95zm-7.921-4.587c.123-.074.148-.184 0-.258l-2.709-1.57a.556.556 0 00-.227-.05.556.556 0 00-.227.05l-3.384 2.024c-.135.074-.147.184 0 .258l2.71 1.57a.551.551 0 00.453 0l3.384-2.024zm3.96 2.293c.135-.073.147-.196 0-.257l-2.722-1.57a.484.484 0 00-.441 0l-3.372 1.938c-.135.086-.147.196 0 .27l2.709 1.557a.486.486 0 00.454 0l3.372-1.938zm-1.385 26.516l3.372-1.938c.135-.086.147-.196 0-.27l-2.685-1.557a.486.486 0 00-.454 0l-3.372 1.95c-.134.074-.147.196 0 .257l2.71 1.57a.502.502 0 00.429-.012zm-30.235-11.884c-.135.074-.147.196 0 .257l3.335 1.938a.537.537 0 00.453 0l3.372-1.95c.123-.073.147-.196 0-.257l-3.335-1.999a.486.486 0 00-.453 0l-3.372 2.011zm-10.017-5.777c-.123.074-.147.184 0 .258l4.168 2.453a.497.497 0 00.454 0l3.372-1.95c.135-.074.147-.197 0-.258l-4.169-2.453a.509.509 0 00-.454 0l-3.371 1.95zm14.614 8.426c-.134.086-.147.196 0 .258l22.328 12.902a.523.523 0 00.441 0l3.372-1.95c.135-.074.159-.184 0-.258l-22.327-12.914a.5.5 0 00-.442 0l-3.372 1.962zm28.164 16.275c-.135.073-.148.184 0 .257l3.335 1.926a.508.508 0 00.453 0l3.372-1.938c.135-.086.147-.196 0-.27l-3.335-1.925a.54.54 0 00-.454 0l-3.371 1.95zm-4.599-2.662c-.122.086-.147.197 0 .27l3.335 1.926a.512.512 0 00.454 0l3.372-1.95c.135-.074.147-.184 0-.258l-3.335-1.925a.472.472 0 00-.442 0l-3.384 1.937zm9.184 5.311c-.134.074-.147.184 0 .258l3.335 1.925a.462.462 0 00.442 0l3.384-1.95c.122-.086.147-.196 0-.258l-3.335-1.937a.54.54 0 00-.454 0l-3.372 1.962zm-41.981-24.222c-.135.073-.147.196 0 .257l3.335 1.926a.497.497 0 00.454 0l3.371-1.95c.135-.074.148-.197 0-.258l-3.335-1.925a.482.482 0 00-.453 0l-3.372 1.95z" fill="#37474F"/><path d="M308.978 227.967l3.372-1.951c.135-.073.147-.184 0-.257l-7.884-4.575a.493.493 0 00-.453 0l-3.372 1.95c-.135.086-.147.197 0 .258l7.933 4.587a.543.543 0 00.404-.012zm-48.896-28.233l3.371-1.95c.135-.074.148-.197 0-.258l-2.709-1.57a.512.512 0 00-.454 0l-3.372 1.938c-.135.086-.147.196 0 .27l2.722 1.557a.478.478 0 00.442.013zm19.863 11.443l3.372-1.951c.135-.073.147-.183 0-.257l-2.722-1.57a.514.514 0 00-.442 0l-3.371 1.95c-.135.074-.148.184 0 .258l2.709 1.57c.071.032.149.05.227.05a.556.556 0 00.227-.05zm-3.998-2.294l3.372-1.938c.135-.086.147-.196 0-.27l-2.71-1.557a.482.482 0 00-.453 0l-3.372 1.95c-.123.073-.147.196 0 .257l2.71 1.57a.498.498 0 00.453-.012zm7.921 4.587l3.372-1.95c.135-.074.147-.196 0-.258l-2.71-1.57a.509.509 0 00-.453 0l-3.335 1.975c-.135.086-.148.196 0 .27l2.721 1.557a.463.463 0 00.405-.024zm-15.853-9.162l3.372-1.95c.135-.073.147-.184 0-.257l-2.722-1.57a.51.51 0 00-.441 0l-3.372 1.95c-.135.074-.147.184 0 .258l2.71 1.569a.536.536 0 00.453 0zm3.96 2.294l3.371-1.95c.135-.074.148-.196 0-.258l-2.709-1.57a.509.509 0 00-.454 0l-3.273 1.963c-.135.086-.148.196 0 .269l2.721 1.558a.47.47 0 00.344-.012zm-7.969-4.587l3.372-1.938c.135-.086.147-.196 0-.27l-2.71-1.557a.486.486 0 00-.454 0l-3.371 1.95c-.123.073-.148.196 0 .257l2.709 1.57a.505.505 0 00.454-.012zm63.266 25.387l3.372-1.95c.135-.073.147-.196 0-.257l-2.722-1.57a.51.51 0 00-.442 0l-3.371 1.95c-.135.073-.147.184 0 .257l2.709 1.57a.544.544 0 00.454 0zm5.064-6.537l-3.347 1.95c-.135.074-.148.197 0 .258l2.709 1.57a.54.54 0 00.454 0l3.372-1.95c.135-.074.147-.184 0-.258l-2.722-1.57a.522.522 0 00-.466 0zm4.009 2.294l-3.421 1.999c-.135.086-.147.196 0 .27l2.722 1.557a.462.462 0 00.442 0l3.371-1.95c.135-.073.147-.196 0-.257l-2.709-1.57a.501.501 0 00-.405-.049zm-5.113 6.537l3.372-1.95c.135-.074.147-.197 0-.258l-2.71-1.57a.509.509 0 00-.454 0l-3.371 1.938c-.135.086-.147.196 0 .27l2.722 1.557a.474.474 0 00.441.013zm-2.869-11.124l-3.371 1.95c-.135.074-.148.196 0 .258l2.709 1.569a.54.54 0 00.454 0l3.372-1.95c.135-.085.147-.196 0-.257l-2.71-1.57a.486.486 0 00-.454 0zm-22.67 13.086c-.122.074-.147.184 0 .258l2.71 1.569a.537.537 0 00.453 0l3.372-1.95c.135-.073.147-.184 0-.257l-2.709-1.57a.544.544 0 00-.454 0l-3.372 1.95zm7.957 4.538c-.135.073-.147.196 0 .257l2.722 1.57a.47.47 0 00.441 0l3.372-1.938c.135-.085.147-.196 0-.269l-2.71-1.558a.494.494 0 00-.453 0l-3.372 1.938zm-3.96-2.257c-.135.086-.147.196 0 .27l2.709 1.558a.497.497 0 00.454 0l3.372-1.95c.135-.074.147-.197 0-.258l-2.722-1.57a.484.484 0 00-.441 0l-3.372 1.95zm13.622-8.781l3.372-1.938c.135-.086.147-.196 0-.27l-2.71-1.557a.486.486 0 00-.453 0l-3.372 1.95c-.135.073-.147.196 0 .257l2.709 1.558a.512.512 0 00.454 0zm-2.306 5.862c.135-.073.147-.196 0-.257l-2.722-1.57a.472.472 0 00-.441 0l-3.372 1.938c-.135.086-.147.196 0 .27l2.71 1.557a.486.486 0 00.453 0l3.372-1.938zm24.265-9.431c.135-.086.147-.196 0-.27l-2.71-1.557a.486.486 0 00-.453 0l-3.311 1.962c-.135.073-.147.196 0 .257l2.71 1.57a.496.496 0 00.454 0l3.31-1.962zm-7.92-4.587c.122-.074.147-.184 0-.257l-2.71-1.57a.537.537 0 00-.453 0l-3.372 1.95c-.135.073-.147.196 0 .257l2.709 1.644a.544.544 0 00.454 0l3.372-2.024zm3.96 2.293c.135-.073.147-.196 0-.257l-2.722-1.57a.484.484 0 00-.442 0l-3.371 1.938c-.135.086-.147.196 0 .27l2.709 1.557a.486.486 0 00.454 0l3.372-1.938zm7.479 11.051l-3.372 1.937c-.135.086-.147.197 0 .27l2.71 1.558a.498.498 0 00.454 0l3.371-1.95c.135-.074.148-.196 0-.258l-2.709-1.57a.508.508 0 00-.454.013zm-7.332-.282c-.135.073-.147.184 0 .257l2.71 1.57a.537.537 0 00.454 0l3.371-1.95c.135-.074.148-.184 0-.258l-2.722-1.569a.51.51 0 00-.441 0l-3.372 1.95zm-6.511 7.358l3.372-1.95c.134-.073.147-.196 0-.257l-2.722-1.57a.472.472 0 00-.442 0l-3.371 1.95c-.135.073-.148.184 0 .257l2.709 1.558a.497.497 0 00.454.012zm8.755-.539l3.371-1.95c.135-.074.148-.197 0-.258l-2.709-1.57a.54.54 0 00-.454 0l-3.372 1.95c-.134.086-.147.196 0 .258l2.71 1.57a.497.497 0 00.454 0zm-7.063-4.097c-.135.074-.147.184 0 .258l2.71 1.57a.537.537 0 00.453 0l3.372-1.95c.135-.074.147-.197 0-.258l-2.722-1.57a.524.524 0 00-.441 0l-3.372 1.95zm5.641 4.931c.134-.086.147-.197 0-.258l-2.71-1.57a.497.497 0 00-.454 0l-3.372 1.95c-.134.074-.147.196 0 .258l2.71 1.57a.54.54 0 00.454 0l3.372-1.95zm-24.069 1.128c-.135.074-.147.184 0 .258l6.67 3.851a.497.497 0 00.454 0l3.372-1.95c.134-.074.147-.197 0-.258l-6.683-3.863a.536.536 0 00-.453 0l-3.36 1.962zm7.933 4.575c-.135.073-.147.196 0 .257l2.722 1.57a.472.472 0 00.441 0l3.372-1.938c.135-.086.147-.196 0-.27l-2.71-1.557a.486.486 0 00-.453 0l-3.372 1.938zm7.945-.982l3.372-1.937c.134-.086.147-.197 0-.27l-2.673-1.582a.486.486 0 00-.454 0l-3.372 1.95c-.135.073-.147.196 0 .257l2.722 1.57a.471.471 0 00.405.012zm6.768-16.679l-3.371 1.95c-.135.073-.147.196 0 .257l2.709 1.57a.475.475 0 00.442 0l3.384-1.938c.122-.085.147-.196 0-.269l-2.71-1.558a.493.493 0 00-.454-.012zm-4.819 2.784l-3.372 1.95c-.135.073-.147.196 0 .257l2.71 1.57a.496.496 0 00.454 0l3.371-1.937c.123-.086.148-.197 0-.27l-2.709-1.558a.497.497 0 00-.454-.012zm-6.498 7.371c.123-.074.147-.184 0-.258l-2.709-1.57a.54.54 0 00-.454 0l-3.372 1.95c-.135.074-.147.184 0 .258l2.71 1.57a.537.537 0 00.454 0l3.371-1.95zm1.447-.834l3.372-1.95c.122-.074.147-.184 0-.258l-2.686-1.582a.536.536 0 00-.453 0l-3.372 1.95c-.135.074-.147.196 0 .258l2.71 1.57a.509.509 0 00.429.012zm20.071 1.876l-2.71-1.557a.482.482 0 00-.453 0l-8.191 4.734c-.134.073-.147.196 0 .257l2.71 1.57a.54.54 0 00.454 0l8.19-4.734c.135-.086.159-.196 0-.27zm-20.979 9.051l2.71 1.57a.54.54 0 00.454 0l8.19-4.734c.135-.073.147-.184 0-.257l-2.636-1.632a.556.556 0 00-.227-.05.556.556 0 00-.227.05l-8.19 4.735c-.184.098-.196.208-.074.318zm25.81-11.565c.123-.086.147-.196 0-.27l-2.71-1.557a.486.486 0 00-.453 0l-3.372 1.95c-.135.073-.147.196 0 .257l2.71 1.57a.495.495 0 00.453 0l3.372-1.95zm-25.761 5.715l3.372-1.95c.135-.073.147-.196 0-.257l-2.722-1.57a.47.47 0 00-.441 0l-3.372 1.938c-.135.085-.147.196 0 .269l2.71 1.558a.493.493 0 00.453.012zm-9.391-32.746c.135-.073.147-.184 0-.257l-2.685-1.619a.51.51 0 00-.441 0l-3.335 2.023c-.135.074-.147.184 0 .258l2.709 1.57a.54.54 0 00.454 0l3.298-1.975zm7.932 4.587c.123-.086.147-.196 0-.27l-2.709-1.557a.489.489 0 00-.454 0l-3.372 1.95c-.135.073-.147.196 0 .257l2.71 1.57a.496.496 0 00.453 0l3.372-1.95zm-3.972-2.293c.135-.074.148-.196 0-.258l-2.709-1.57a.509.509 0 00-.454 0l-3.372 1.938c-.134.086-.147.196 0 .27l2.722 1.558a.473.473 0 00.442 0l3.371-1.938zm7.97 4.574c.135-.073.147-.184 0-.257l-2.722-1.57a.51.51 0 00-.441 0l-3.372 1.95c-.135.074-.147.184 0 .258l2.71 1.569a.537.537 0 00.453 0l3.372-1.95zm74.398-167.151v76.37a6.542 6.542 0 00.869 2.909 6.54 6.54 0 002.086 2.205l88.279 50.984c1.631.944 2.943.184 2.943-1.705V101.52a6.522 6.522 0 00-2.943-5.114L410.02 45.423c-1.63-.945-2.955-.184-2.955 1.705z" fill="#37474F"/><path d="M410.02 128.613l88.279 50.983c1.631.944 2.943.184 2.943-1.705v-73.378L407.065 50.12v73.378a6.538 6.538 0 002.955 5.115z" fill="#459CDE"/><path d="M414.385 60.741l29.696 17.17a3.91 3.91 0 011.778 3.067v5.506c0 1.14-.797 1.595-1.778 1.03l-29.696-17.17a3.92 3.92 0 01-1.778-3.066v-5.507c0-1.14.797-1.594 1.778-1.03z" fill="#EBEBEB"/><path d="M496.215 97.448a2.52 2.52 0 011.128 1.975c0 .723-.502 1.017-1.128.649a2.447 2.447 0 01-1.14-1.961c0-.724.503-1.018 1.14-.663zm-4.512-2.6a2.535 2.535 0 011.14 1.974c0 .724-.515 1.018-1.14.65a2.457 2.457 0 01-1.128-1.962c0-.723.503-1.017 1.128-.662zm-4.549-2.6a2.53 2.53 0 011.128 1.974c0 .724-.503 1.018-1.128.65a2.458 2.458 0 01-1.14-1.962c.049-.723.564-1.017 1.14-.662z" fill="#FAFAFA"/><path d="M414.385 73.533l40.78 23.548a3.895 3.895 0 011.766 3.017c0 1.103-.785 1.533-1.766.969l-40.78-23.548a3.862 3.862 0 01-1.778-3.017c0-1.104.797-1.533 1.778-.97zm0 8.867l40.78 23.548a3.858 3.858 0 011.766 3.017c0 1.104-.785 1.533-1.766.969l-40.78-23.548a3.902 3.902 0 01-1.778-3.017c0-1.104.797-1.533 1.778-.969zm0 8.855l40.78 23.523a3.894 3.894 0 011.766 3.017c0 1.104-.785 1.533-1.766.969l-40.78-23.548a3.861 3.861 0 01-1.778-3.017c0-1.079.797-1.508 1.778-.944zm0 8.867l40.78 23.548a3.852 3.852 0 011.766 3.017c0 1.092-.785 1.533-1.766.969l-40.78-23.548a3.893 3.893 0 01-1.778-3.017c0-1.104.797-1.533 1.778-.969zm.589 12.203l78.384 45.268a5.152 5.152 0 012.379 4.035v7.359c0 1.509-1.079 2.122-2.391 1.361l-78.286-45.292a5.237 5.237 0 01-2.367-4.084v-7.359c-.086-1.484.981-2.097 2.281-1.288z" fill="#EBEBEB"/><path d="M464.238 89.538l29.574 17.17a3.993 3.993 0 011.777 3.079l.123 40.619c0 1.129-.785 1.595-1.766 1.031l-29.695-17.171a3.911 3.911 0 01-1.778-3.066V90.556c0-1.128.797-1.533 1.765-1.018z" fill="#FAFAFA"/><path d="M468.015 106.671c4.205 2.453 7.614.454 7.614-4.402a15.52 15.52 0 00-2.134-7.36l-9.257-5.383c-.968-.564-1.765-.11-1.765 1.018v10.142a15.845 15.845 0 005.542 5.985zm27.636 24.86l-5.567-18.997c-.416-1.447-1.324-1.533-2.023-.196l-8.153 15.563-3.323-8.879c-.527-1.411-1.459-1.447-2.084-.074l-7.725 16.839 27.171 15.699c.821.478 1.508.208 1.704-.552v-19.403z" fill="#263238"/><path d="M193.358 19.95L227.418.327c1.3-.76 2.355-.148 2.355 1.361v71.33a5.238 5.238 0 01-2.355 4.096l-34.06 19.623c-1.3.748-2.367.135-2.367-1.373V24.02a5.262 5.262 0 012.367-4.072z" fill="#FFB900"/><path d="M190.991 34.115l38.782-22.395v51.192l-38.782 22.395V34.115z" fill="#FAFAFA"/><path d="M207.777 49.053c.417-1.447 1.422-1.594 2.244-.33l4.144 6.401 7.773-23.302c.478-1.435 1.423-1.509 2.121-.172l5.714 11.038v20.15l-31.216 18.03 9.22-31.815zm-16.786-2.073a6.13 6.13 0 005.542-.735 18.4 18.4 0 008.338-14.423 6.504 6.504 0 00-1.643-4.771l-12.261 7.064.024 12.865z" fill="#455A64"/><path d="M196.57 22.194c1.116-.65 2.023-.123 2.023 1.165a4.414 4.414 0 01-2.023 3.483c-1.115.638-2.01.123-2.01-1.226a4.43 4.43 0 012.01-3.422zm5.874-2.906l11.366-6.562c.465-.258.846-.074.846.43a1.816 1.816 0 01-.846 1.397l-11.366 6.562c-.466.27-.846.074-.846-.43a1.813 1.813 0 01.846-1.398zm0 3.127l6.253-3.68c.466-.27.846-.073.846.43a1.816 1.816 0 01-.846 1.398l-6.253 3.68c-.466.269-.846.085-.846-.418a1.814 1.814 0 01.846-1.41zm-3.361 67.245h-.662c-.858 0-1.888-.404-1.888-1.643a2.897 2.897 0 011.312-2.269c.564-.319 1.042-.184 1.226.282a2.883 2.883 0 011.226-1.692c.724-.417 1.312-.086 1.312.748a7.354 7.354 0 01-1.876 3.814l-.65.76zm9.932-10.682l4.758-2.734c.22-.135.392 0 .392.22v3.36a.89.89 0 01-.392.688l-4.758 2.734c-.208.135-.392 0-.392-.22v-3.36a.928.928 0 01.392-.688z" fill="#FAFAFA"/><path d="M209.738 83.749c0 .441.172.478.368.086l1.055-2.06-1.423.772v1.202zm15.928-12.325l-2.735-.884v1.313a5.59 5.59 0 00-2.672 3.03 2.134 2.134 0 00.266 1.665 2.159 2.159 0 001.389.959 2.03 2.03 0 01-.724-1.668c.16-1.153.81-1.558 1.741-1.963v1.533l2.735-3.985z" fill="#FAFAFA"/><path d="M176.34 2.976v76.37a6.526 6.526 0 01-2.943 5.115l-88.279 50.983c-1.63.944-2.942.184-2.942-1.705v-76.37a6.512 6.512 0 012.942-5.115l88.279-50.983c1.631-.944 2.943-.184 2.943 1.705z" fill="#404E4C"/><path d="M173.397 84.46l-88.279 50.984c-1.63.944-2.942.184-2.942-1.705V60.361L176.34 5.968v73.378a6.526 6.526 0 01-2.943 5.114z" fill="#02897A"/><path d="M169.032 16.59l-29.696 17.17a3.92 3.92 0 00-1.777 3.066v5.506c0 1.14.797 1.595 1.777 1.03l29.696-17.17a3.91 3.91 0 001.778-3.066V17.62c.013-1.14-.797-1.594-1.778-1.03z" fill="#EBEBEB"/><path d="M87.203 53.297a2.525 2.525 0 00-1.128 1.974c0 .723.503 1.017 1.128.65a2.452 2.452 0 001.14-1.962c0-.724-.502-1.018-1.14-.662zm4.512-2.6a2.539 2.539 0 00-1.14 1.974c0 .723.514 1.017 1.14.65a2.452 2.452 0 001.127-1.962c0-.724-.49-1.018-1.127-.662zm4.5-2.6a2.527 2.527 0 00-1.128 1.974c0 .723.503 1.017 1.128.65a2.451 2.451 0 001.14-1.962c0-.724-.515-1.018-1.14-.662z" fill="#FAFAFA"/><path d="M169.033 29.381l-40.78 23.548a3.895 3.895 0 00-1.766 3.017c0 1.104.785 1.533 1.766.969l40.78-23.548a3.862 3.862 0 001.778-3.017c.012-1.104-.797-1.533-1.778-.969zm0 8.867l-40.78 23.548a3.856 3.856 0 00-1.766 3.017c0 1.104.785 1.533 1.766.969l40.78-23.548a3.901 3.901 0 001.778-3.017c.012-1.104-.797-1.533-1.778-.969zm0 8.855l-40.78 23.523a3.895 3.895 0 00-1.766 3.017c0 1.104.785 1.533 1.766.97l40.78-23.548a3.862 3.862 0 001.778-3.017c.012-1.08-.797-1.509-1.778-.945zm0 8.867l-40.78 23.548a3.856 3.856 0 00-1.766 3.017c0 1.092.785 1.533 1.766.969l40.78-23.548a3.902 3.902 0 001.778-3.017c.012-1.104-.797-1.533-1.778-.969zm-.589 12.203L90.06 113.441a5.158 5.158 0 00-2.342 4.084v7.359c0 1.509 1.079 2.122 2.378 1.361l78.299-45.292a5.24 5.24 0 002.366-4.084V69.51c.061-1.533-1.018-2.146-2.317-1.337z" fill="#EBEBEB"/><path d="M119.179 45.386l-29.573 17.17a3.985 3.985 0 00-1.778 3.079l-.123 40.619c0 1.129.785 1.595 1.766 1.031l29.696-17.17a3.92 3.92 0 001.777-3.067V46.404c0-1.128-.797-1.533-1.765-1.018z" fill="#FAFAFA"/><path d="M115.403 62.52c-4.205 2.452-7.614.453-7.614-4.403a15.518 15.518 0 012.133-7.36l9.257-5.383c.969-.564 1.766-.11 1.766 1.018v10.142a15.853 15.853 0 01-5.542 5.986zM87.767 87.38l5.566-18.998c.417-1.447 1.324-1.533 2.023-.196l8.154 15.563 3.322-8.88c.528-1.41 1.459-1.447 2.085-.073l7.724 16.84-27.17 15.698c-.834.478-1.508.208-1.704-.552V87.379z" fill="#263238"/><path d="M356.882 80.033v71.023c0 .736-.515 1.031-1.14.663l-96.788-55.89a2.554 2.554 0 01-1.152-1.998V22.795c0-.736.515-1.03 1.152-.662l96.788 55.852a2.58 2.58 0 011.14 2.048z" fill="#F03E3D"/><path d="M258.954 22.145l96.788 55.84a2.577 2.577 0 011.14 1.999v5.04l-99.08-57.323v-4.906c0-.724.515-1.018 1.152-.65z" fill="#37474F"/><path d="M352.713 78.193a2.448 2.448 0 011.14 1.974c0 .724-.502 1.018-1.14.65a2.447 2.447 0 01-1.128-1.961c0-.724.503-1.018 1.128-.663zm-4.499-2.6a2.535 2.535 0 011.14 1.974c0 .724-.515 1.018-1.14.65a2.447 2.447 0 01-1.128-1.962c0-.723.503-1.017 1.128-.662zm-4.512-2.6a2.53 2.53 0 011.128 1.974c0 .724-.503 1.018-1.128.65a2.458 2.458 0 01-1.14-1.962c.012-.723.527-1.017 1.14-.662z" fill="#FAFAFA"/><path d="M276.831 45.264c-4.623-2.674-8.362-.503-8.362 4.82a18.458 18.458 0 008.362 14.484c4.61 2.661 8.349.502 8.349-4.832a18.484 18.484 0 00-8.349-14.472z" fill="#fff"/><path d="M276.266 49.102c-1.496-.87-2.709-.171-2.709 1.57a6.007 6.007 0 002.709 4.697c1.496.859 2.71.16 2.71-1.57a5.983 5.983 0 00-2.71-4.697zm-4.72 9.578c0-2.844 1.986-3.997 4.451-2.575l1.532.896a9.813 9.813 0 014.463 7.714v.76a6.35 6.35 0 01-5.162-.907 16.378 16.378 0 01-5.284-5.225v-.662z" fill="#263238"/><path d="M292.132 55.1l13.009 7.518a2.995 2.995 0 011.41 2.33c0 .846-.626 1.165-1.41.711l-13.009-7.518a2.964 2.964 0 01-1.41-2.33c0-.846.625-1.128 1.41-.711zm0 7.456l21.199 12.265a2.994 2.994 0 011.398 2.33c0 .846-.626 1.226-1.398.711l-21.199-12.264a2.964 2.964 0 01-1.41-2.33c0-.847.625-1.166 1.41-.712zm0 5.617l21.199 12.265a3.036 3.036 0 011.398 2.33c0 .846-.626 1.227-1.398.711l-21.199-12.264a3.016 3.016 0 01-1.41-2.343c0-.834.625-1.152 1.41-.699zm59.527 65.137v8.229c0 .748-.515 1.067-1.165.687l-23.295-13.43-2.073-1.226a2.61 2.61 0 01-1.226-2.048v-8.242c0-.748.528-1.055 1.226-.687l25.344 14.644a2.602 2.602 0 011.189 2.073zm0-43.44v35.664c0 .76-.515 1.067-1.165.687l-23.295-13.491-2.073-1.226a2.59 2.59 0 01-1.226-2.036V73.876c0-.76.528-1.054 1.226-.687l25.368 14.608a2.593 2.593 0 011.165 2.072z" fill="#fff"/><path d="M323.961 73.876v9.015a12.78 12.78 0 004.218 4.304c3.555 2.049 6.424.393 6.424-3.679a12.828 12.828 0 00-1.557-5.703l-7.896-4.562c-.662-.43-1.189-.172-1.189.625zm27.698 38.915v12.743c0 .761-.515 1.067-1.165.687l-23.296-13.491 6.977-14.717 4.414 9.591 7.037-14.252 6.033 19.439z" fill="#263238"/><path d="M264.79 63.942l51.937 29.987a3.528 3.528 0 011.766 2.624c0 .883-.785 1.14-1.766.577l-51.888-29.975a3.527 3.527 0 01-1.815-2.661c0-.858.785-1.128 1.766-.552zm0 8.021l51.937 29.962c.478.27.887.648 1.193 1.104.307.455.503.976.573 1.521 0 .883-.785 1.14-1.766.576L264.79 75.164a3.537 3.537 0 01-1.766-2.624c0-.884.785-1.141 1.766-.577zm0 8.021l51.937 29.974a3.522 3.522 0 011.766 2.613c0 .895-.785 1.152-1.766.588l-51.888-29.974a3.536 3.536 0 01-1.766-2.624c-.049-.884.736-1.141 1.717-.577zm0 8.033l51.937 29.962c.478.27.887.648 1.193 1.104.307.455.503.976.573 1.521 0 .883-.785 1.14-1.766.576l-51.888-29.962a3.536 3.536 0 01-1.766-2.624c-.049-.883.736-1.14 1.717-.577z" fill="#fff"/><path d="M224.231 277.368l-8.718-5.102a1.439 1.439 0 01-.71-2.201c.176-.244.425-.427.71-.522l34.061-19.623a5.17 5.17 0 014.721 0l8.717 5.102a1.432 1.432 0 01.71 2.2 1.434 1.434 0 01-.71.523l-34.061 19.623a5.242 5.242 0 01-4.72 0z" fill="#B9B9B9"/><path d="M218.91 269.604l6.633-3.826a3.475 3.475 0 013.114 0l6.633 3.826a.96.96 0 01.461 1.453.953.953 0 01-.461.35l-6.633 3.839a3.478 3.478 0 01-3.114 0l-6.633-3.839a.955.955 0 010-1.803z" fill="#fff"/><path d="M223.851 270.377l3.604 2.085a.567.567 0 00.761-.209l1.728-2.992c.148-.27 0-.442-.269-.38l-5.763 1.116c-.294.049-.368.233-.061.38z" fill="#37474F"/><path d="M234.297 263.938a2.719 2.719 0 002.452 0l16.295-9.407c.686-.404.723-1.03.073-1.41a2.693 2.693 0 00-2.452 0l-16.307 9.407c-.674.404-.711 1.03-.061 1.41zm4.365 2.49a2.719 2.719 0 002.452 0l7.356-4.293c.687-.405.724-1.03.074-1.398a2.684 2.684 0 00-2.452 0l-7.357 4.293c-.687.404-.723 1.03-.073 1.398z" fill="#fff"/><path d="M207.605 267.764l-8.718-5.089a1.453 1.453 0 01-.705-.528 1.454 1.454 0 010-1.679c.175-.245.421-.43.705-.528l34.061-19.623a5.245 5.245 0 014.721 0l8.717 5.102a1.443 1.443 0 01.973 1.367 1.447 1.447 0 01-.973 1.368l-34.061 19.623a5.167 5.167 0 01-4.72-.013z" fill="#FF7800"/><path d="M202.321 260.014l6.633-3.827a3.413 3.413 0 013.114 0l6.633 3.827a.957.957 0 010 1.802l-6.633 3.815a3.412 3.412 0 01-3.114 0l-6.633-3.827a.956.956 0 010-1.79z" fill="#fff"/><path d="M207.262 260.786l3.592 2.073a.57.57 0 00.43.056.56.56 0 00.342-.265l1.729-2.98c.147-.27 0-.442-.27-.38l-5.762 1.104c-.294.061-.331.233-.061.392z" fill="#37474F"/><path d="M217.708 254.335a2.719 2.719 0 002.452 0l16.295-9.419c.686-.393.723-1.03.073-1.398a2.679 2.679 0 00-2.452 0l-16.307 9.419c-.674.429-.711 1.03-.061 1.398zm4.365 2.502a2.678 2.678 0 002.452 0l7.356-4.28c.687-.405.724-1.031.074-1.411a2.696 2.696 0 00-2.452 0l-7.357 4.293c-.686.38-.723 1.018-.073 1.398z" fill="#fff"/><path d="M458.28 268.5l10.875-6.353c1.631-.944 1.631-2.452 0-3.409l-42.496-24.529a6.475 6.475 0 00-5.885 0l-10.863 6.353c-1.631.944-1.631 2.453 0 3.41l42.484 24.528a6.484 6.484 0 005.885 0z" fill="#37474F"/><path d="M434.825 241.592l-8.276-4.783a4.267 4.267 0 00-3.887 0l-8.276 4.783a1.223 1.223 0 00-.732 1.123 1.224 1.224 0 00.732 1.122l8.276 4.771a4.272 4.272 0 003.887 0l8.276-4.771a1.226 1.226 0 00.532-1.792c-.13-.2-.315-.357-.532-.453z" fill="#F03E3D"/><path d="M424.182 240.513l-3.335 1.926c-.662.38-.588.809.148.956l6.13 1.227c.748.147 1.018-.258.625-.896l-1.692-2.735a1.42 1.42 0 00-1.876-.478zm38.168 20.85a3.413 3.413 0 01-3.041 0l-20.328-11.75c-.871-.49-.908-1.226-.098-1.741a3.372 3.372 0 013.028 0l20.341 11.749c.871.491.907 1.276.098 1.742zm-16.466-3.287a3.371 3.371 0 01-3.041 0l-9.195-5.36c-.859-.491-.895-1.226-.086-1.742a3.384 3.384 0 013.028 0l9.208 5.36c.895.491.895 1.276.086 1.742z" fill="#fff"/><path d="M429.528 284.849l10.875-6.365c1.631-.945 1.631-2.453 0-3.41l-42.496-24.529a6.477 6.477 0 00-5.886 0l-10.887 6.353c-1.619.945-1.619 2.453 0 3.41l42.496 24.529a6.57 6.57 0 005.898.012z" fill="#37474F"/><path d="M401.977 255.537a13.477 13.477 0 00-12.162 0c-3.36 1.938-3.36 5.09 0 7.027a13.478 13.478 0 0012.162 0c3.36-1.937 3.36-5.089 0-7.027zm31.658 22.162a3.295 3.295 0 01-3.028 0l-20.341-11.75c-.859-.49-.895-1.226-.086-1.741a3.385 3.385 0 013.028 0l20.341 11.749c.883.491.883 1.276.086 1.742zm-16.454-3.287a3.339 3.339 0 01-3.041 0l-9.196-5.36c-.858-.49-.907-1.226-.085-1.741a3.372 3.372 0 013.028 0l9.208 5.359c.858.503.895 1.276.086 1.742z" fill="#fff"/><path d="M392.267 260.798l-.392-.821c-.515-1.08-.822-2.551.662-3.41a3.974 3.974 0 013.678 0c.785.454.956 1.116.515 1.668a4.081 4.081 0 012.894.295 1.113 1.113 0 01.751 1.054 1.12 1.12 0 01-.751 1.055c-1.447.834-3.997.675-5.886.38l-1.471-.221z" fill="#F03E3D"/></svg>