<svg width="150" height="32" fill="none" xmlns="http://www.w3.org/2000/svg"><g clip-path="url(#clip0_2_456)"><path d="M6.16 26H1.82V6.4h4.032l6.272 9.38 5.964-9.38h3.92V26h-4.34V14.24l-5.096 7.812h-1.148L6.16 14.156V26zm28.884-7.924L28.52 26h-3.444V11.44h4.06v7.924l6.524-7.924h3.444V26h-4.06v-7.924zm16.571-6.636h4.9l-5.572 7.056L56.767 26h-5.04l-3.332-4.452L44.951 26H40.08l5.824-7.476-5.544-7.084h5.012l3.108 3.948 3.136-3.948zm16.458 9.408l2.436 2.464c-1.55 1.941-3.64 2.912-6.272 2.912-2.334 0-4.228-.69-5.684-2.072-1.456-1.381-2.184-3.201-2.184-5.46 0-2.296.69-4.125 2.072-5.488 1.4-1.381 3.229-2.072 5.488-2.072 2.034 0 3.696.616 4.984 1.848 1.306 1.232 1.96 2.847 1.96 4.844 0 .523-.075 1.307-.224 2.352H60.625a2.547 2.547 0 001.316 1.708c.69.373 1.474.56 2.352.56 1.642 0 2.902-.532 3.78-1.596zm-4.284-6.076c-1.55 0-2.576.635-3.08 1.904h5.964c-.336-1.27-1.298-1.904-2.884-1.904zM85.746 26h-4.06V15.22h-3.948v.392c0 .784-.018 1.493-.056 2.128a36.74 36.74 0 01-.224 2.268c-.093.877-.27 1.652-.532 2.324a10.05 10.05 0 01-.952 1.904 3.837 3.837 0 01-1.512 1.428c-.634.317-1.372.476-2.212.476a7.141 7.141 0 01-1.456-.14v-3.64c.112.019.28.028.504.028.672 0 1.158-.205 1.456-.616.318-.41.57-1.008.756-1.792.262-1.101.392-2.893.392-5.376V11.44h11.844V26zm8.766 0h-6.244V11.44h4.06v3.864h2.38c1.96 0 3.51.43 4.648 1.288 1.138.84 1.708 2.184 1.708 4.032 0 1.83-.626 3.183-1.876 4.06-1.232.877-2.79 1.316-4.676 1.316zm-.084-6.916h-2.1v3.136h2.1c1.624 0 2.436-.523 2.436-1.568 0-.448-.14-.793-.42-1.036a1.695 1.695 0 00-.868-.448 6.424 6.424 0 00-1.148-.084zm19.113 1.456l2.968 1.764a6.982 6.982 0 01-2.716 2.884 7.492 7.492 0 01-3.864 1.036c-2.315 0-4.21-.69-5.684-2.072-1.475-1.381-2.212-3.201-2.212-5.46 0-2.221.728-4.032 2.184-5.432 1.474-1.419 3.313-2.128 5.516-2.128 1.456 0 2.79.299 4.004.896 1.232.597 2.118 1.512 2.66 2.744l-3.024 1.96c-.486-.635-.98-1.092-1.484-1.372-.504-.299-1.139-.448-1.904-.448-1.12 0-2.026.355-2.716 1.064-.691.69-1.036 1.596-1.036 2.716 0 1.101.41 2.007 1.232 2.716.821.69 1.792 1.036 2.912 1.036 1.344 0 2.398-.635 3.164-1.904zm3.449-1.848c0-2.24.756-4.06 2.268-5.46 1.512-1.4 3.378-2.1 5.6-2.1 2.258 0 4.144.71 5.656 2.128 1.512 1.4 2.268 3.21 2.268 5.432 0 2.24-.766 4.06-2.296 5.46-1.531 1.381-3.407 2.072-5.628 2.072-2.222 0-4.088-.71-5.6-2.128-1.512-1.419-2.268-3.22-2.268-5.404zm4.2 0c0 1.064.345 1.96 1.036 2.688.709.71 1.586 1.064 2.632 1.064 1.12 0 2.016-.345 2.688-1.036.69-.69 1.036-1.596 1.036-2.716 0-1.101-.346-2.007-1.036-2.716-.691-.71-1.587-1.064-2.688-1.064-1.102 0-1.988.355-2.66 1.064-.672.71-1.008 1.615-1.008 2.716zM148.28 26h-4.06v-5.46h-5.572V26h-4.06V11.44h4.06v5.32h5.572v-5.32h4.06V26z" fill="#000"/></g><defs><clipPath id="clip0_2_456"><path fill="#fff" d="M0 0h150v32H0z"/></clipPath></defs></svg>