<svg width="30" height="30" fill="none" xmlns="http://www.w3.org/2000/svg"><path d="M3.75 17.5a3.75 3.75 0 013.75-3.75h15a3.75 3.75 0 013.75 3.75v5c0 .69-.56 1.25-1.25 1.25h-2.5c-.69 0-1.25-.56-1.25-1.25v-1.25H8.75v1.25c0 .69-.56 1.25-1.25 1.25H5c-.69 0-1.25-.56-1.25-1.25v-5z" stroke="#fff" stroke-width="1.875" stroke-linejoin="round"/><path d="M6.25 13.75l1.93-5.79a2.5 2.5 0 012.372-1.71h8.896a2.5 2.5 0 012.372 1.71l1.93 5.79m0 0l2.5-1.25m-20 1.25l-2.5-1.25m3.75 5H10m10 0h2.5" stroke="#fff" stroke-width="1.875" stroke-linecap="round" stroke-linejoin="round"/></svg>