<svg width="237" height="44" viewBox="0 0 237 44" fill="none" xmlns="http://www.w3.org/2000/svg">
<path d="M14.6673 2.068L1.37932 22L14.6673 41.932L27.9553 22L14.6673 2.068ZM14.6673 0L29.334 22L14.6673 44L0.000652313 22L14.6673 0Z" fill="#FFC22D"/>
<path d="M10.6777 16.8521L9.36751 18.6121L8.81996 24.1854V18.0547L10.6777 16.8521Z" fill="#FFC22D"/>
<path d="M14.1191 11.4839L12.4178 13.2732L11.8409 15.9866V13.3612L13.1511 12.2466V12.3052L14.1191 11.4839Z" fill="#FFC22D"/>
<path d="M6.4052 24.1855H8.82031L6.61054 24.5962L5.67187 26.4002L6.4052 24.1855Z" fill="#FFC22D"/>
<path d="M12.8102 15.3558V13.7425L14.668 12.3052V14.1092L12.8102 15.3558Z" fill="#FFC22D"/>
<path d="M13.5625 26.2533H12.9856V24.4346L13.5625 24.376V26.2533Z" fill="#FFC22D"/>
<path d="M13.5625 22.308L12.9856 22.44V20.6214L13.5625 20.416V22.308Z" fill="#FFC22D"/>
<path d="M13.5625 18.6122L12.9856 18.8762V17.0429L13.5625 16.7202V18.6122Z" fill="#FFC22D"/>
<path d="M11.8809 26.2531H11.4115V24.6104L11.8809 24.5518V26.2531Z" fill="#FFC22D"/>
<path d="M11.8809 22.7038L11.4115 22.8064V21.1638L11.8809 21.0024V22.7038Z" fill="#FFC22D"/>
<path d="M11.8809 19.3747L11.4115 19.58V17.9373L11.8809 17.6733V19.3747Z" fill="#FFC22D"/>
<path d="M10.4336 26.2534H10.0425V24.7574L10.4336 24.7134V26.2534Z" fill="#FFC22D"/>
<path d="M10.4336 23.0415L10.0425 23.1295V21.6335L10.4336 21.5015V23.0415Z" fill="#FFC22D"/>
<path d="M10.4336 20.02L10.0425 20.196V18.7L10.4336 18.48V20.02Z" fill="#FFC22D"/>
<path d="M14.119 11.4841L14.6666 10.9561L13.151 12.2468V9.97344L14.6666 7.77344L16.1821 9.97344V12.2468L17.4923 13.3614V16.0014L20.5234 18.0401V24.1708H22.9288L23.6621 26.4001H20.5332H14.6666V14.2414V14.1094L16.5243 15.3561V13.7428L14.6666 12.3054V11.0294L14.119 11.4841ZM14.1874 10.3401L13.7279 10.7654V11.6454L14.1874 11.2494V10.3401ZM16.3483 17.0428L15.7617 16.7201V18.6121L16.3483 18.8761V17.0428ZM16.3483 20.6214L15.7617 20.4161V22.3081L16.3483 22.4401V20.6214ZM16.3483 24.4348L15.7617 24.3761V26.2534H16.3483V24.4348ZM18.9003 26.2534H19.2914V24.7574L18.9003 24.7134V26.2534ZM18.9003 23.0414L19.2914 23.1294V21.6334L18.9003 21.5014V23.0414ZM18.9003 20.0201L19.2914 20.1961V18.7001L18.9003 18.4801V20.0201ZM17.4532 26.2534H17.9323V24.6108L17.4532 24.5521V26.2534ZM17.4532 22.7041L17.9323 22.8214V21.1788L17.4532 21.0174V22.7041ZM17.4532 19.3748L17.9323 19.5948V17.9521L17.4532 17.6881V19.3748ZM15.0674 11.2641L15.527 11.6601V10.7801L15.0674 10.3548V11.2641Z" fill="#FFC22D"/>
<path d="M14.1204 11.484L13.1524 12.3054V12.2467L14.668 10.9707L14.1204 11.484Z" fill="#FFC22D"/>
<path d="M25.4727 26.3267L3.91265 26.4L14.6682 42.5333L25.4727 26.3267Z" fill="#FFC22D"/>
<path d="M52.1465 19.5C51.5527 16.2187 48.9277 14.2812 45.709 14.2812C41.6152 14.2812 38.6465 17.4375 38.6465 22.5C38.6465 27.5625 41.6152 30.7187 45.709 30.7187C48.9277 30.7187 51.5527 28.7812 52.1465 25.5H50.209C49.7402 27.7188 47.834 28.9062 45.709 28.9062C42.8027 28.9062 40.5215 26.6562 40.5215 22.5C40.5215 18.3438 42.8027 16.0937 45.709 16.0937C47.834 16.0937 49.7402 17.2812 50.209 19.5H52.1465ZM54.4023 16.2187H59.4336V30.5H61.3711V16.2187H66.4023V14.5H54.4023V16.2187ZM69.3926 30.5H71.3301V24.6562H74.8301C78.5566 24.6562 80.2363 22.3906 80.2363 19.5625C80.2363 16.7344 78.5566 14.5 74.7988 14.5H69.3926V30.5ZM71.3301 22.9375V16.2187H74.7363C77.3379 16.2187 78.3301 17.6406 78.3301 19.5625C78.3301 21.4844 77.3379 22.9375 74.7676 22.9375H71.3301ZM96.8574 22.5C96.8574 17.4375 93.8887 14.2812 89.7949 14.2812C85.7012 14.2812 82.7324 17.4375 82.7324 22.5C82.7324 27.5625 85.7012 30.7187 89.7949 30.7187C93.8887 30.7187 96.8574 27.5625 96.8574 22.5ZM94.9824 22.5C94.9824 26.6562 92.7012 28.9062 89.7949 28.9062C86.8887 28.9062 84.6074 26.6562 84.6074 22.5C84.6074 18.3438 86.8887 16.0937 89.7949 16.0937C92.7012 16.0937 94.9824 18.3438 94.9824 22.5ZM100.115 14.5V30.5H101.99L110.709 17.9375H110.865V30.5H112.803V14.5H110.928L102.178 27.0937H102.021V14.5H100.115ZM107.99 10.5C107.99 11.3125 107.553 12.0312 106.459 12.0312C105.365 12.0312 104.959 11.3125 104.959 10.5H103.24C103.24 12.1875 104.49 13.375 106.459 13.375C108.459 13.375 109.709 12.1875 109.709 10.5H107.99ZM126.086 30.5H128.398L121.711 21.5312L128.18 14.5H125.867L119.461 21.4375H118.617V14.5H116.68V30.5H118.617V23.1562H120.586L126.086 30.5ZM143.65 22.5C143.65 17.4375 140.682 14.2812 136.588 14.2812C132.494 14.2812 129.525 17.4375 129.525 22.5C129.525 27.5625 132.494 30.7187 136.588 30.7187C140.682 30.7187 143.65 27.5625 143.65 22.5ZM141.775 22.5C141.775 26.6562 139.494 28.9062 136.588 28.9062C133.682 28.9062 131.4 26.6562 131.4 22.5C131.4 18.3438 133.682 16.0937 136.588 16.0937C139.494 16.0937 141.775 18.3438 141.775 22.5ZM146.908 30.5H148.846V23.3437H157.377V30.5H159.314V14.5H157.377V21.625H148.846V14.5H146.908V30.5ZM162.318 16.2187H167.35V30.5H169.287V16.2187H174.318V14.5H162.318V16.2187ZM177.309 30.5H179.246V24.6562H182.746C186.473 24.6562 188.152 22.3906 188.152 19.5625C188.152 16.7344 186.473 14.5 182.715 14.5H177.309V30.5ZM179.246 22.9375V16.2187H182.652C185.254 16.2187 186.246 17.6406 186.246 19.5625C186.246 21.4844 185.254 22.9375 182.684 22.9375H179.246ZM204.773 22.5C204.773 17.4375 201.805 14.2812 197.711 14.2812C193.617 14.2812 190.648 17.4375 190.648 22.5C190.648 27.5625 193.617 30.7187 197.711 30.7187C201.805 30.7187 204.773 27.5625 204.773 22.5ZM202.898 22.5C202.898 26.6562 200.617 28.9062 197.711 28.9062C194.805 28.9062 192.523 26.6562 192.523 22.5C192.523 18.3438 194.805 16.0937 197.711 16.0937C200.617 16.0937 202.898 18.3438 202.898 22.5ZM206.656 30.5H207.25C210.781 30.5 211.492 27.625 211.688 22.5938L211.938 16.2187H217.906V30.5H219.844V14.5H210.094L209.813 22.2187C209.641 26.9375 209.125 28.7187 207.125 28.7187H206.656V30.5ZM225.652 21.2188V14.5H223.715V30.5H229.715C233.152 30.5 235.027 28.5625 235.027 25.7812C235.027 23 233.152 21.2188 229.715 21.2188H225.652ZM225.652 22.9375H229.715C231.902 22.9375 233.121 24.2187 233.121 25.75C233.121 27.3125 231.902 28.8125 229.715 28.8125H225.652V22.9375Z" fill="#212B31"/>
</svg>
