<svg width="30" height="44" viewBox="0 0 30 44" fill="none" xmlns="http://www.w3.org/2000/svg">
<path d="M14.6673 2.068L1.37932 22L14.6673 41.932L27.9553 22L14.6673 2.068ZM14.6673 0L29.334 22L14.6673 44L0.000652313 22L14.6673 0Z" fill="#FFC22D"/>
<path d="M10.6777 16.8521L9.36751 18.6121L8.81996 24.1854V18.0547L10.6777 16.8521Z" fill="#FFC22D"/>
<path d="M14.1191 11.4839L12.4178 13.2732L11.8409 15.9866V13.3612L13.1511 12.2466V12.3052L14.1191 11.4839Z" fill="#FFC22D"/>
<path d="M6.4052 24.1855H8.82031L6.61054 24.5962L5.67187 26.4002L6.4052 24.1855Z" fill="#FFC22D"/>
<path d="M12.8102 15.3558V13.7425L14.668 12.3052V14.1092L12.8102 15.3558Z" fill="#FFC22D"/>
<path d="M13.5625 26.2533H12.9856V24.4346L13.5625 24.376V26.2533Z" fill="#FFC22D"/>
<path d="M13.5625 22.308L12.9856 22.44V20.6214L13.5625 20.416V22.308Z" fill="#FFC22D"/>
<path d="M13.5625 18.6122L12.9856 18.8762V17.0429L13.5625 16.7202V18.6122Z" fill="#FFC22D"/>
<path d="M11.8809 26.2531H11.4115V24.6104L11.8809 24.5518V26.2531Z" fill="#FFC22D"/>
<path d="M11.8809 22.7038L11.4115 22.8064V21.1638L11.8809 21.0024V22.7038Z" fill="#FFC22D"/>
<path d="M11.8809 19.3747L11.4115 19.58V17.9373L11.8809 17.6733V19.3747Z" fill="#FFC22D"/>
<path d="M10.4336 26.2534H10.0425V24.7574L10.4336 24.7134V26.2534Z" fill="#FFC22D"/>
<path d="M10.4336 23.0415L10.0425 23.1295V21.6335L10.4336 21.5015V23.0415Z" fill="#FFC22D"/>
<path d="M10.4336 20.02L10.0425 20.196V18.7L10.4336 18.48V20.02Z" fill="#FFC22D"/>
<path d="M14.119 11.4841L14.6666 10.9561L13.151 12.2468V9.97344L14.6666 7.77344L16.1821 9.97344V12.2468L17.4923 13.3614V16.0014L20.5234 18.0401V24.1708H22.9288L23.6621 26.4001H20.5332H14.6666V14.2414V14.1094L16.5243 15.3561V13.7428L14.6666 12.3054V11.0294L14.119 11.4841ZM14.1874 10.3401L13.7279 10.7654V11.6454L14.1874 11.2494V10.3401ZM16.3483 17.0428L15.7617 16.7201V18.6121L16.3483 18.8761V17.0428ZM16.3483 20.6214L15.7617 20.4161V22.3081L16.3483 22.4401V20.6214ZM16.3483 24.4348L15.7617 24.3761V26.2534H16.3483V24.4348ZM18.9003 26.2534H19.2914V24.7574L18.9003 24.7134V26.2534ZM18.9003 23.0414L19.2914 23.1294V21.6334L18.9003 21.5014V23.0414ZM18.9003 20.0201L19.2914 20.1961V18.7001L18.9003 18.4801V20.0201ZM17.4532 26.2534H17.9323V24.6108L17.4532 24.5521V26.2534ZM17.4532 22.7041L17.9323 22.8214V21.1788L17.4532 21.0174V22.7041ZM17.4532 19.3748L17.9323 19.5948V17.9521L17.4532 17.6881V19.3748ZM15.0674 11.2641L15.527 11.6601V10.7801L15.0674 10.3548V11.2641Z" fill="#FFC22D"/>
<path d="M14.1204 11.484L13.1524 12.3054V12.2467L14.668 10.9707L14.1204 11.484Z" fill="#FFC22D"/>
<path d="M25.4727 26.3267L3.91265 26.4L14.6682 42.5333L25.4727 26.3267Z" fill="#FFC22D"/>
</svg>
