<svg width="355" height="238" fill="none" xmlns="http://www.w3.org/2000/svg"><g clip-path="url(#clip0_2_1495)"><path d="M355 0H0v238h355V0z" fill="#F7CEDC"/><path d="M252.707 117.427h-2.742v31.893h2.742v-31.893zm-76.675 35.104l-.875-.895c-4.376-.344-11.026-2.105-15.238-7.318a8.88 8.88 0 01-.675-.958 5.998 5.998 0 01-.784-1.984c-.716-3.762 3.163-6.499 4.99-6.947 2.298-.557 6.253.167 7.847.506.437.094.698.156.698.156.285.022.571.022.856 0 .196-.011.406-.026.632-.044.072 0 .145-.007.221-.014.044 0 .086 0 .131-.007.868-.061 1.738-.05 2.604.033.247.025.505.062.77.105a11.114 11.114 0 011.075.245 9.281 9.281 0 01.838.266v-.004a12.04 12.04 0 013.646 2.145 87.88 87.88 0 003.265 2.625 99.813 99.813 0 004.743 3.426s.574.11 1.431.219l.011-.091V133.4h20.998c3.425 7.295 8.79 20.531 12.592 31.148 3.955 11.038 16.666 30.32 19.245 36.764 3.069 7.661 3.069 11.929 3.069 11.929h-45.164a21.5 21.5 0 00-.53-5.006l1.646-7.381c-1.278.033-3.291 0-3.291 0v.007c-.232-.051-1.384-.338-6.078-1.565-7.162-1.872-22.692-21.354-22.692-21.354-1.568-.736-4.318-4.172-5.945-6.331a7.229 7.229 0 01-1.427-3.704h-.026s-8.16-.944-12.544-2.344c0 0-6.984-1.835-8.931-2.676 0 0-12.202-4.54-15.286-6.328-3.083-1.788-1.626-9.28 4.547-7.489a194.467 194.467 0 016.988 2.17 8.132 8.132 0 004.773 1.536h9.03s10.525 2.298 12.504 2.738l.257.014c.208-.957.544-1.883.998-2.752h8.898l.183-.245z" fill="#FFCEB6"/><path d="M245.621 127.625c.026-.036.05-.072.076-.105a4.953 4.953 0 01-.991 2.508 3.016 3.016 0 01-3.456 1.133l-2.14 2.724-2.397-3.051 2.14-2.723a5.34 5.34 0 01.89-4.395 3.26 3.26 0 011.975-1.257.649.649 0 00-.085.096 4.301 4.301 0 000 5.071 2.424 2.424 0 003.988-.001z" fill="#CCEFF6"/><path d="M243.703 138.642a3.51 3.51 0 010 4.14 1.976 1.976 0 01-2.548.628 1.995 1.995 0 01-.71-.628 3.376 3.376 0 01-.671-2.024l-.029.039-3.04-3.861-2.397-3.051-2.14-2.724a3.015 3.015 0 01-3.461-1.132 4.97 4.97 0 01-.988-2.509c.025.034.047.07.076.106a2.415 2.415 0 003.12.77c.347-.183.645-.447.868-.77a4.303 4.303 0 000-5.071 1.453 1.453 0 00-.08-.096c.789.161 1.49.608 1.969 1.257.459.623.777 1.339.931 2.098a5.36 5.36 0 01-.037 2.297l2.14 2.723 2.397 3.051 3.037 3.861-.03.041a2.077 2.077 0 011.593.855z" fill="#CCEFF6"/><path d="M234.305 133.884l2.4 3.051-1.093 1.391-1.307-4.442z" fill="#006B99"/><path d="M234.305 133.884l1.307 4.442-1.947 2.471-.032-.039a3.373 3.373 0 01-.672 2.025 1.983 1.983 0 01-3.258 0 3.524 3.524 0 010-4.141 2.099 2.099 0 011.594-.858l-.032-.04 3.04-3.86z" fill="#CCEFF6"/><path d="M233.872 52.256h-2.615v30.427h2.615V52.256z" fill="#FFCEB6"/><path d="M221.687 66.987a1.276 1.276 0 01.182 1.423l-.177.328-1.627 3.01c.169.375.268.777.294 1.187.095 1.45-.701 2.68-1.773 2.747-1.071.066-2.018-1.048-2.113-2.497-.095-1.45.701-2.68 1.773-2.747.198-.013.397.014.585.08l1.455-2.686.355-.66a.627.627 0 011.046-.185z" fill="#CCEFF6"/><path d="M213.218 133.4H192.22V94.516s3.09.95 7.041 7.744c3.952 6.793 10.169 23.218 13.558 30.295.13.27.266.55.399.845z" fill="#FFCEB6"/><path d="M200.826 200.868l-.043-.014s2.013.033 3.291 0l-1.646 7.381c-.639-3.448-1.598-7.205-1.642-7.377a.195.195 0 00.04.01z" fill="#006B99"/><path d="M192.22 133.4v10.587l-.012.092c-.856-.109-1.431-.22-1.431-.22a100.302 100.302 0 01-4.743-3.425l.051-.066a4.846 4.846 0 00.385-1.901v-5.063l5.75-.004z" fill="#CCEFF6"/><path d="M186.47 72.233V67a4.898 4.898 0 00-1.429-3.46 4.873 4.873 0 00-3.45-1.432h-28.944a4.873 4.873 0 00-3.45 1.432 4.9 4.9 0 00-1.43 3.46v10.666a4.908 4.908 0 001.43 3.46 4.877 4.877 0 003.45 1.432h28.941a4.867 4.867 0 003.451-1.433 4.891 4.891 0 001.429-3.459l.002-5.432zm-45.294 31.312V58.97c0-2.33.923-4.564 2.566-6.212a8.758 8.758 0 016.196-2.574h1.05a6.62 6.62 0 001.934 4.68 6.593 6.593 0 004.668 1.94h16.424a6.598 6.598 0 004.668-1.94 6.632 6.632 0 001.937-4.68h2.834a8.744 8.744 0 016.198 2.573 8.78 8.78 0 011.901 2.85 8.816 8.816 0 01.668 3.363v74.43h-5.75v-5.597a4.9 4.9 0 00-1.429-3.459 4.874 4.874 0 00-3.45-1.433h-28.944a4.874 4.874 0 00-3.45 1.433 4.9 4.9 0 00-1.43 3.459v10.664c0 1.298.515 2.542 1.43 3.46a4.873 4.873 0 003.45 1.432h6.599c.204.334.43.654.676.958 4.209 5.214 10.859 6.972 15.238 7.318l.875.895-.182.248h-25.915a8.752 8.752 0 01-6.196-2.577 8.793 8.793 0 01-2.566-6.214v-40.442zm6.598 0v4.522c0 1.297.514 2.541 1.43 3.458a4.87 4.87 0 003.45 1.433h28.941a4.87 4.87 0 003.45-1.433 4.896 4.896 0 001.429-3.458V97.402a4.898 4.898 0 00-1.429-3.459 4.872 4.872 0 00-3.45-1.433h-28.948a4.872 4.872 0 00-3.45 1.433 4.899 4.899 0 00-1.43 3.46l.007 6.142z" fill="#CCEFF6"/><path d="M186.47 133.4v5.063a4.85 4.85 0 01-.385 1.901l-.051.065a88.86 88.86 0 01-3.264-2.625 12.069 12.069 0 00-3.647-2.146 4.334 4.334 0 00.248-3.826 4.326 4.326 0 00-4.84-2.592 4.318 4.318 0 00-3.035 2.335 4.346 4.346 0 00-.446 1.917c0 .49.085.977.25 1.439-1.594-.339-5.549-1.063-7.848-.507-1.826.448-5.706 3.186-4.99 6.948.141.702.407 1.375.784 1.984h-6.599a4.874 4.874 0 01-3.45-1.433 4.9 4.9 0 01-1.43-3.459v-10.661a4.9 4.9 0 011.43-3.459 4.874 4.874 0 013.45-1.433h28.941c1.294 0 2.535.516 3.451 1.433a4.904 4.904 0 011.429 3.459v5.597h.002zm-38.703-29.856v-6.142a4.9 4.9 0 011.43-3.46 4.874 4.874 0 013.45-1.432h28.941c1.294 0 2.535.516 3.451 1.433a4.903 4.903 0 011.429 3.459v10.664a4.9 4.9 0 01-1.429 3.459 4.879 4.879 0 01-3.451 1.433h-28.941a4.874 4.874 0 01-3.45-1.433 4.897 4.897 0 01-1.43-3.459v-4.522zm14.077.095a4.342 4.342 0 00-2.669-4.004 4.312 4.312 0 00-4.712.94 4.338 4.338 0 00-.938 4.723 4.319 4.319 0 007.054 1.407 4.336 4.336 0 001.268-3.066h-.003zm24.626-31.406v5.432a4.904 4.904 0 01-1.429 3.459 4.872 4.872 0 01-3.45 1.433h-28.944a4.867 4.867 0 01-3.45-1.433 4.89 4.89 0 01-1.43-3.459V67.001a4.9 4.9 0 011.43-3.459 4.872 4.872 0 013.45-1.433h28.941c1.294 0 2.535.515 3.451 1.433a4.903 4.903 0 011.429 3.46l.002 5.231zm-6.769.095a4.34 4.34 0 00-2.671-4.006 4.313 4.313 0 00-4.714.94 4.341 4.341 0 00.656 6.671 4.316 4.316 0 005.46-.54 4.345 4.345 0 001.267-3.065h.002z" fill="#CCEFF6"/><path d="M150.988 50.184h29.631a6.632 6.632 0 01-1.937 4.68 6.598 6.598 0 01-4.668 1.94H157.59a6.597 6.597 0 01-4.669-1.94 6.628 6.628 0 01-1.933-4.68z" fill="#006B99"/><path d="M179.699 133.494c-.001.76-.2 1.507-.577 2.166l-.262-.086a12.068 12.068 0 00-.854-.248c-.123-.032-.243-.058-.363-.085l-.439-.086c-.262-.047-.513-.08-.77-.106a15.393 15.393 0 00-2.603-.032c-.044 0-.086.007-.132.007a38.957 38.957 0 00-.853.058 5.56 5.56 0 01-.856 0s-.257-.062-.698-.156a4.3 4.3 0 01-.25-1.439 4.347 4.347 0 011.245-3.105 4.32 4.32 0 017.094 1.427c.214.534.32 1.104.312 1.678l.006.007zm-4.324-56.829a4.332 4.332 0 004.326-4.337 4.332 4.332 0 00-4.326-4.337 4.332 4.332 0 00-4.326 4.337 4.332 4.332 0 004.326 4.337z" fill="#fff"/><path d="M153.192 152.776h13.761c-.454.869-.79 1.795-.999 2.753l-.256-.015c-1.981-.44-12.506-2.738-12.506-2.738z" fill="#006B99"/><path d="M157.521 99.303a4.322 4.322 0 014 2.675 4.344 4.344 0 01-.936 4.727 4.318 4.318 0 01-4.715.941 4.324 4.324 0 01-1.942-1.597 4.345 4.345 0 01.537-5.475 4.323 4.323 0 013.056-1.271z" fill="#fff"/><path d="M147.396 50.184h2.542a8.758 8.758 0 00-6.196 2.574 8.797 8.797 0 00-2.566 6.212v44.575h-2.543V58.97a8.8 8.8 0 012.567-6.212 8.755 8.755 0 016.196-2.574z" fill="#006B99"/><path d="M149.938 152.776h-2.542a8.756 8.756 0 01-6.199-2.574 8.803 8.803 0 01-2.568-6.215v-40.443h2.547v40.443c0 2.331.923 4.565 2.566 6.213a8.755 8.755 0 006.196 2.576z" fill="#006B99"/><path d="M135.963 128.321v11.122s-3.963-.68-9.352-1.58c-5.388-.899-5.393-7.38-2.513-9.542s11.494 0 11.494 0h.371z" fill="#FFCEB6"/><path d="M119.061 99.892v5.848h-1.762c-.65 0-.977.99-.514 1.573l1.246 1.569-3.283 4.136-1.247-1.57c-.462-.582-1.246-.171-1.246.649v2.22h-4.645v-2.22c0-.819-.785-1.231-1.246-.649l-1.246 1.57-3.283-4.136 1.246-1.569c.461-.583.134-1.573-.514-1.573h-1.764v-5.847h1.764c.65 0 .977-.994.514-1.573l-1.246-1.573 3.283-4.135 1.246 1.569c.461.579 1.246.171 1.246-.652v-2.218h4.645v2.221c0 .823.784 1.231 1.246.652l1.245-1.569 3.283 4.132-1.245 1.57c-.462.578-.135 1.572.514 1.572l1.763.004zm-6.374 2.925c0-1.919-1.235-3.474-2.753-3.474-1.517 0-2.756 1.555-2.756 3.474 0 1.919 1.234 3.469 2.756 3.469 1.522 0 2.753-1.558 2.753-3.469z" fill="#CCEFF6"/><path d="M95.73 86.222h-2.978v34.646h2.979V86.222z" fill="#FFCEB6"/><path d="M95.73 86.222l29.152 2.548v29.549l-29.151 2.549" stroke="#006B99" stroke-width="3.704" stroke-linecap="round" stroke-linejoin="round"/><path d="M95.73 86.222h-2.978v34.646h2.979V86.222zm135.527-33.966l-25.6 5.516v27.772l25.6-2.862m2.615-30.426h-2.615v30.427h2.615V52.256zm16.093 65.171l-26.84 2.345v27.2l26.84 2.349m2.742-31.894h-2.742v31.893h2.742v-31.893zm-72.088-67.243h2.834a8.744 8.744 0 016.198 2.573 8.797 8.797 0 012.569 6.213v85.017m-41.697-93.803h.465m-3.592 102.592a8.756 8.756 0 01-6.199-2.574 8.8 8.8 0 01-2.568-6.215V58.97a8.797 8.797 0 012.568-6.213 8.769 8.769 0 016.199-2.573m28.455 102.592h-25.328" stroke="#006B99" stroke-width="3.704" stroke-linecap="round" stroke-linejoin="round"/><path d="M149.938 152.776a8.751 8.751 0 01-6.196-2.576 8.799 8.799 0 01-2.566-6.213V58.97c0-2.33.923-4.564 2.566-6.212a8.758 8.758 0 016.196-2.574" stroke="#006B99" stroke-width="3.704" stroke-linecap="round" stroke-linejoin="round"/><path d="M139.391 151.244a8.226 8.226 0 01-3.428-6.694V58.409a8.236 8.236 0 012.404-5.818 8.208 8.208 0 015.805-2.407h6.355m-.004 102.592h-6.351a8.141 8.141 0 01-4.773-1.536m41.22-101.056a6.632 6.632 0 01-1.937 4.68 6.598 6.598 0 01-4.668 1.94H157.59a6.597 6.597 0 01-4.669-1.94 6.628 6.628 0 01-1.933-4.68h29.631z" stroke="#006B99" stroke-width="3.704" stroke-linecap="round" stroke-linejoin="round"/><path d="M181.589 82.555h-28.942a4.874 4.874 0 01-3.45-1.433 4.9 4.9 0 01-1.43-3.459V67.001a4.9 4.9 0 011.43-3.459 4.872 4.872 0 013.45-1.433h28.941c1.294 0 2.535.515 3.451 1.433a4.903 4.903 0 011.429 3.46v10.663a4.9 4.9 0 01-1.43 3.458 4.874 4.874 0 01-3.449 1.432zm0 30.401h-28.942a4.87 4.87 0 01-3.45-1.433 4.897 4.897 0 01-1.43-3.458V97.402a4.9 4.9 0 011.43-3.46 4.874 4.874 0 013.45-1.432h28.941c1.294 0 2.535.516 3.451 1.433a4.903 4.903 0 011.429 3.459v10.664a4.901 4.901 0 01-1.43 3.458 4.871 4.871 0 01-3.449 1.432zm-22.339 30.402h-6.603a4.874 4.874 0 01-3.45-1.433 4.9 4.9 0 01-1.43-3.459v-10.663a4.9 4.9 0 011.43-3.459 4.874 4.874 0 013.45-1.433h28.941c1.294 0 2.535.516 3.451 1.433a4.904 4.904 0 011.429 3.459v10.664c0 .654-.131 1.3-.386 1.901m-58.614-36.824h23.52" stroke="#006B99" stroke-width="3.704" stroke-linecap="round" stroke-linejoin="round"/><path d="M171.3 134.933c-1.594-.34-5.549-1.064-7.848-.507-1.826.448-5.706 3.186-4.99 6.947a6.02 6.02 0 00.784 1.984c.204.334.43.654.676.958 4.209 5.214 10.859 6.972 15.238 7.318l.875.895c2.128 2.189 7.521 7.724 8.956 9.269 0 0 4.184 16.442 8.811 21.08 6.261 6.281 9.845 8.072 13.868 8.672m-34.187-56.508c-.229.015-.439.029-.632.044m4.355.073c-.262-.047-.514-.08-.771-.106a15.393 15.393 0 00-2.603-.032m4.176.306c-.123-.033-.243-.059-.363-.086m1.191.326a6.793 6.793 0 00-.556-.168m19.699 12.55a40.343 40.343 0 01-7.202-4.089 100.302 100.302 0 01-4.743-3.425 87.815 87.815 0 01-3.264-2.626 12.066 12.066 0 00-3.647-2.145l-.261-.086" stroke="#006B99" stroke-width="3.704" stroke-linecap="round" stroke-linejoin="round"/><path d="M190.777 143.863s.575.11 1.431.219c1.772.229 4.765.469 6.429-.219m-24.931-8.84c-.937 1.03-5.462 4.479-4.879 8.833m-10.365-2.482c1.707 1.282 5.901 2.06 7.543 1.136 0 0 .967-4.933 3.138-6.575m78.981 77.309s0-4.271-3.07-11.929c-2.578-6.444-15.289-25.727-19.244-36.765-3.803-10.617-9.17-23.858-12.592-31.148-.134-.295-.269-.575-.399-.848-3.389-7.078-9.602-23.498-13.558-30.295-3.954-6.797-7.041-7.743-7.041-7.743m8.606 106.352l-.043-.014v.007c.043.171 1.002 3.929 1.642 7.376.372 1.642.55 3.323.53 5.007" stroke="#006B99" stroke-width="3.704" stroke-linecap="round" stroke-linejoin="round"/><path d="M164.763 165.563a7.822 7.822 0 00-.145 1.787c0 .187.011.372.025.558a7.237 7.237 0 001.427 3.703c1.627 2.159 4.377 5.595 5.946 6.331 0 0 15.529 19.481 22.692 21.353 4.695 1.228 5.846 1.515 6.077 1.566a.297.297 0 00.055.008m-36.222-32.961s-8.161-.945-12.545-2.345c0 0-6.983-1.835-8.93-2.676 0 0-12.202-4.54-15.286-6.328-3.083-1.787-1.626-9.28 4.547-7.489a197.605 197.605 0 016.988 2.17m2.792 3.91s-.428 1.93-.533 2.895m11.792-1.074s-.428 3.021-.534 3.987" stroke="#006B99" stroke-width="3.704" stroke-linecap="round" stroke-linejoin="round"/><path d="M200.783 200.854s2.013.033 3.291 0l-1.646 7.381m-66.836-79.914s-8.621-2.163-11.494 0c-2.873 2.162-2.876 8.643 2.513 9.542 5.39.899 9.352 1.58 9.352 1.58m30.99 13.333c-.454.869-.79 1.795-.999 2.753a10.73 10.73 0 00-.256 1.802m-12.506-4.555s10.525 2.298 12.504 2.738m-3.849-51.876a4.329 4.329 0 01-2.669 4.005 4.316 4.316 0 01-4.712-.94 4.343 4.343 0 01.654-6.669 4.315 4.315 0 015.46.539c.402.402.721.88.938 1.406.217.526.329 1.09.329 1.659zm39.949-31.405h-19.884m-6.537 4.432a4.332 4.332 0 004.326-4.337 4.332 4.332 0 00-4.326-4.337 4.332 4.332 0 00-4.326 4.337 4.332 4.332 0 004.326 4.337zm44.58 56.735h-38.043m-10.612 1.532c.436.095.698.157.698.157.285.022.571.022.856 0 .195-.012.406-.026.632-.044.072 0 .145-.007.221-.015.044 0 .086 0 .131-.006.867-.062 1.738-.05 2.603.032.248.026.505.062.771.105.145.026.29.056.439.086a11.114 11.114 0 01.635.159 10.396 10.396 0 01.581.175c.086.029.172.058.257.091v-.004a4.348 4.348 0 00-.897-5.427 4.331 4.331 0 00-1.732-.928 4.326 4.326 0 00-5.195 5.619zm-52.239-35.04h-1.762c-.65 0-.977-.993-.514-1.572l1.244-1.573-3.283-4.135-1.245 1.569c-.462.579-1.246.171-1.246-.652v-2.218h-4.645v2.221c0 .823-.785 1.231-1.246.652l-1.246-1.569-3.283 4.132 1.246 1.573c.461.579.134 1.573-.514 1.573h-1.764v5.847h1.764c.65 0 .977.99.514 1.573l-1.246 1.569 3.283 4.136 1.246-1.57c.461-.582 1.246-.171 1.246.649v2.22h4.645v-2.22c0-.819.784-1.231 1.246-.649l1.245 1.57 3.283-4.136-1.245-1.569c-.462-.583-.135-1.573.514-1.573h1.761v-5.847h.002z" stroke="#006B99" stroke-width="3.704" stroke-linecap="round" stroke-linejoin="round"/><path d="M112.687 102.817c0 1.914-1.235 3.469-2.753 3.469-1.517 0-2.756-1.555-2.756-3.469 0-1.915 1.234-3.474 2.756-3.474 1.522 0 2.753 1.555 2.753 3.474zm107.595-34.985a4.706 4.706 0 00-2.233-.412c-1.678.109-3.135 1.315-4.133 3.058a11.36 11.36 0 00-1.351 6.566m12.071-1.519c0-.114-.006-.226-.014-.344a9.951 9.951 0 00-1.79-5.199 7.252 7.252 0 00-1.14-1.245" stroke="#006B99" stroke-width="3.704" stroke-linecap="round" stroke-linejoin="round"/><path d="M224.636 75.525l3.596-.234c-.007-.112-.007-.225-.015-.343a15.918 15.918 0 00-2.836-8.265c-1.95-2.694-4.7-4.307-7.641-4.114-2.829.186-5.267 2.203-6.857 5.13a17.265 17.265 0 00-1.932 9.234c.007.116.018.229.025.343l3.596-.232" stroke="#006B99" stroke-width="3.704" stroke-linecap="round" stroke-linejoin="round"/><path d="M221.692 68.738l.177-.328a1.272 1.272 0 00-.182-1.424.625.625 0 00-1.049.187l-.356.659-1.455 2.686a1.448 1.448 0 00-.584-.08c-1.072.07-1.868 1.3-1.774 2.746.095 1.446 1.043 2.567 2.114 2.498 1.071-.07 1.867-1.3 1.773-2.746a3.435 3.435 0 00-.294-1.188l1.63-3.01zm-3.956-6.168l.313 4.85m-7.144.295l2.629 2.738m11.713-3.674l-2.201 3.055m16.064 64.05l2.14-2.723a3.019 3.019 0 003.458-1.133 4.953 4.953 0 00.991-2.508c-.026.033-.05.069-.076.105a2.437 2.437 0 01-1.996 1.048 2.422 2.422 0 01-1.996-1.048 4.308 4.308 0 010-5.071.777.777 0 01.086-.096 3.266 3.266 0 00-1.976 1.257 5.342 5.342 0 00-.89 4.395l-2.14 2.723m-2.406 3.051l-3.04 3.862.032.04a2.089 2.089 0 00-1.595.858 3.528 3.528 0 000 4.139 1.976 1.976 0 001.63.855 1.977 1.977 0 001.629-.855 3.365 3.365 0 00.672-2.023l.032.039 1.947-2.471 1.093-1.392" stroke="#006B99" stroke-width="3.704" stroke-linecap="round" stroke-linejoin="round"/><path d="M236.705 130.833l-2.14-2.723a5.344 5.344 0 00-.894-4.395 3.255 3.255 0 00-1.969-1.257c.028.031.055.063.08.096a4.3 4.3 0 010 5.071 2.425 2.425 0 01-1.994 1.048 2.42 2.42 0 01-1.994-1.048c-.029-.036-.051-.072-.076-.105a4.97 4.97 0 00.988 2.508 3.024 3.024 0 003.461 1.133l2.14 2.723 2.397 3.051 3.04 3.862.029-.04c0 .73.235 1.44.671 2.024a1.985 1.985 0 001.629.855 1.978 1.978 0 001.63-.855 3.507 3.507 0 000-4.139 2.084 2.084 0 00-1.591-.858l.029-.041-3.036-3.862-2.4-3.048zm-2.4 3.051l1.307 4.442" stroke="#006B99" stroke-width="3.704" stroke-linecap="round" stroke-linejoin="round"/></g><defs><clipPath id="clip0_2_1495"><path fill="#fff" d="M0 0h355v238H0z"/></clipPath></defs></svg>