<svg width="15" height="15" fill="none" xmlns="http://www.w3.org/2000/svg"><g clip-path="url(#clip0_1_485)" fill="#F5F5F5"><path d="M11.86 2.775a.365.365 0 10.001.73.365.365 0 000-.73zM7.5 4.271A3.232 3.232 0 004.27 7.5a3.232 3.232 0 003.23 3.228A3.232 3.232 0 0010.728 7.5 3.232 3.232 0 007.5 4.27z"/><path d="M10.888 0H4.112A4.117 4.117 0 000 4.112v6.776A4.117 4.117 0 004.112 15h6.776A4.117 4.117 0 0015 10.888V4.112A4.117 4.117 0 0010.888 0zM7.5 11.614A4.119 4.119 0 013.386 7.5 4.119 4.119 0 017.5 3.386 4.119 4.119 0 0111.614 7.5 4.119 4.119 0 017.5 11.614zm4.36-7.224a1.251 1.251 0 111.25-1.25c0 .689-.56 1.25-1.25 1.25z"/></g><defs><clipPath id="clip0_1_485"><path fill="#fff" d="M0 0h15v15H0z"/></clipPath></defs></svg>