<svg width="48" height="48" fill="none" xmlns="http://www.w3.org/2000/svg"><g clip-path="url(#clip0_1_10030)"><path d="M46.967 22.253C50.602 35.375 44.314 48 33.295 48c-6.097 0-8.7-3.504-15.397-11.663C11.2 28.178 1.65 39.522 0 22.253 1.386 6.34 18.652-8.064 26.668 5.226c7.298 12.1 16.665 3.905 20.3 17.027h-.001z" fill="#FFDD76"/><path d="M23.494 15.515h0a.302.302 0 01.183 0l10.636 3.388.037.012.04.006a.32.32 0 01.194.111c.056.066.087.15.088.236v9.109l.244.146c.347.21.585.596.585 1.048 0 .127-.066.379-.22.74-.145.343-.341.724-.544 1.085-.136.242-.27.471-.391.669-.12-.198-.256-.427-.392-.668a11.353 11.353 0 01-.545-1.086c-.153-.361-.218-.613-.218-.74 0-.452.238-.839.585-1.048l.241-.146v-8.615l-.651.207-9.688 3.087a.303.303 0 01-.184 0l-10.758-3.428a.33.33 0 01-.167-.124.378.378 0 010-.437.33.33 0 01.166-.124l10.759-3.428zm-6.03 12.73v-4.266l5.239 1.669a2.893 2.893 0 001.767 0l5.238-1.669v4.266l-.125.012a11.32 11.32 0 00-1.57.295c-1.216.314-2.81.925-4.427 2.107a13.05 13.05 0 00-4.426-2.107 11.28 11.28 0 00-1.695-.307z" fill="#63522B" stroke="#63522B"/></g><defs><clipPath id="clip0_1_10030"><path fill="#fff" d="M0 0h48v48H0z"/></clipPath></defs></svg>