<svg width="346" height="325" fill="none" xmlns="http://www.w3.org/2000/svg"><path d="M334.91 150.021c-.067-7.085-.217-14.181-.641-21.254l-.001-.018c.017-.195.022-.392.012-.59-.143-3.206-2.466-5.408-5.607-5.614-28.604-1.872-20.703-1.174-49.32.04-28.502 1.209-56.996 2.921-85.531 3.078-16.107.089-32.225-.327-48.289-1.558-2.904-.224-5.683 2.718-5.556 5.564.145 3.217 2.445 5.311 5.556 5.564.838.068 1.676.134 2.514.197.021.059.046.118.068.176-.085.78-.202 1.56-.266 2.312a691.346 691.346 0 00-1.054 13.991 888.994 888.994 0 00-1.014 18.681c-.551 12.462-.879 24.934-1.142 37.407-.061 2.931-.223 5.888-.005 8.816.197 2.633.605 5.335 1.647 7.757-2.344.651-4.29 2.791-4.175 5.342.134 2.984 2.434 5.571 5.537 5.545 27.72-.236 55.439-.675 83.155-1.117 27.573-.439 55.148-1.052 82.697-2.364 15.455-.736-5.687-1.696 9.735-2.957 2.915-.239 5.75-2.411 5.607-5.615a5.864 5.864 0 00-.145-1.045 8.02 8.02 0 001.894-2.17c.786-1.347.894-2.736 1.058-4.25a556.582 556.582 0 002.345-28.08 557.13 557.13 0 00.921-37.838z" fill="#C4C1BB"/><path d="M338.177 157.741c-.963-3.805-4.833-5.986-8.469-6.527-2.904-.431-5.852-.584-8.781-.769-5.248-.332-10.53-.49-15.771.035-3.011.302-6.028.738-8.966 1.476-1.78.446 33.144 1.089 31.854 2.444-2.322 2.441-2.347 6.135-.669 8.924 1.403 2.33-33.009 3.607-30.587 4.303.441.337.92.628 1.43.867 3.081 1.433 6.731 1.485 10.079 1.719 5.339.373 10.675.434 15.975-.388 2.617-.406 5.082-1.233 7.476-2.371 3.739-1.779 7.605-5.068 6.429-9.713z" fill="#356B68"/><path d="M327.549 178.287c1.403 1.089-33.009 1.686-30.587 2.012.441.157.92.293 1.431.405 3.08.67 6.73.694 10.079.802 5.338.175 10.674.203 15.974-.181a51.386 51.386 0 007.477-1.11c3.738-.83 7.605-2.369 6.429-4.54-.964-1.779-4.834-2.798-8.47-3.051-2.904-.203-5.852-.274-8.781-.36-5.247-.155-10.53-.228-15.771.016-3.01.141-6.028.345-8.965.689-1.781.21 33.143.51 31.853 1.143-2.322 1.145-2.346 2.87-.669 4.175zm1.985 5.854c-2.904-.203-5.852-.274-8.781-.36-5.248-.155-10.53-.228-15.771.016-3.011.141-6.028.345-8.966.689-1.78.21 33.143.51 31.854 1.143-2.322 1.141-2.347 2.868-.669 4.173 1.403 1.089-33.009 1.686-30.587 2.012.441.157.92.293 1.43.405 3.08.67 6.731.694 10.079.802 5.338.175 10.675.203 15.975-.181a51.372 51.372 0 007.476-1.11c3.739-.83 7.605-2.369 6.429-4.539-.963-1.778-4.833-2.797-8.469-3.05z" fill="#27374D"/><path d="M341.777 73.153c-.025-3.11-2.553-5.513-5.607-5.615-16.909-.565-109.209-.966-113.953-.736-1.157.056-2.313.115-3.47.176-1.351.072-2.807.058-4.098.472-3.148 1.01-4.936 4.112-4.309 7.322.04 11.535.093 23.069.141 34.602.051 11.855.096 23.711.145 35.566.049 11.798.099 23.594.146 35.392.047 11.798.096 23.596.147 35.394l.075 17.785c.007 1.454.01 2.907.019 4.361.012 2.549.038 1.383 1.681 3.349 2.42 2.897 120.898 1.766 122.94 1.532 1.467-.167 2.913-.495 3.967-1.645.996-1.087 1.672-2.462 1.643-3.973-.412-20.848-.708-41.704-.323-62.555.195-10.451.875-98.85.856-101.427zm-33.382 113.054l.268-20.185.091-6.92c.179-1.739.367-3.479.571-5.217.124 3.938.236 7.878.331 11.816a728.223 728.223 0 00-1.294 22.978c.014-.825.022-1.651.033-2.472zm-56.429 9.609c1.713-.664 3.311-1.493 4.49-2.953 1.202-1.489 2.03-3.012 2.591-4.859.436-1.438.659-2.944.803-4.463.662.546 1.432.954 2.178 1.16a5.609 5.609 0 005.469-1.448c.916-.717 1.72-1.731 2.258-2.755.81-1.541 1.098-2.919 1.298-4.629.157-1.335-.74-3.073-1.646-3.98a5.783 5.783 0 00-1.413-1.017c-1.971-18.283-.812-36.721-1.006-55.076a305.59 305.59 0 00-.066-3.945c1.225.644 2.66.873 4.006.436 2.501-.811 3.906-2.845 4.123-5.424l.082-.974c.182.285.37.568.567.841 1.348 1.883 3.2 3.008 5.597 2.686 2.072-.28 4.227-1.862 4.671-4.031l.061-.307c.316.244.642.47.976.674-5.904 13.521-10.901 27.439-14.827 41.667a315.868 315.868 0 00-3.434 13.691c-.649 2.851.872 6.201 3.908 6.894 2.847.649 6.187-.857 6.884-3.914a305.227 305.227 0 019.305-32.438l-.317 3.085c-.088.871.244 1.891.737 2.753-.008.623-.017 1.246-.028 1.867-.205 12.471-.606 24.937-1.078 37.402-.265 7.015-.554 14.029-.841 21.043-.121 2.945 2.67 5.761 5.62 5.628.925-.041 1.873-.251 2.701-.682.014.833.029 1.667.048 2.499.065 2.812 2.091 5.155 4.875 5.529 2.661.357 5.521-1.293 6.17-4.034.73-3.088 1.12-6.222 1.339-9.371a736.006 736.006 0 00-.275 15.441c-1.324.002-2.646.003-3.971 0-.419-.094-.85-.159-1.282-.206a355.789 355.789 0 00-49.205-2.038c-1.517.042-3.035.1-4.552.161.223-4.934.425-9.872.622-14.808.857.21 1.752.21 2.562-.105z" fill="#FFFFF7"/><path d="M325.513 213.62a246.395 246.395 0 00-1.715-13.841 230.528 230.528 0 00-1.076-6.449c-.288-1.586-2.095-2.524-3.56-2.327-1.681.227-2.667 1.558-2.812 3.191-.31 3.498-.62 6.996-.928 10.496l-.473 5.334c-.071.802-.143 1.605-.212 2.409-.035.402-.072.803-.106 1.204-.02.215-.056.433-.058.648v.033l-.009.026-.001.009c-.161.036-.323.09-.481.13-.408.102-.821.187-1.234.269a46.053 46.053 0 01-2.784.476c-.085.011-.244.032-.286.035-.494.054-.988.112-1.482.159-3.37.316-6.76.344-10.142.258-6.856-.172-13.693-.654-20.554-.671-7.059-.018-14.117.237-21.165.636-6.427.365-12.847.854-19.266 1.368.798-6.035 1.368-12.096 1.603-18.182.042-1.102-.627-2.17-1.566-2.756.244-2.401.528-4.798.833-7.192.069-.551.143-1.104.214-1.656l.122-.919.028-.204c.165-1.215.333-2.429.502-3.642.339-2.427.684-4.854 1.019-7.282.669-4.861 1.308-9.729 1.77-14.614.507-5.36.793-10.739.697-16.123-.03-1.623-1.213-2.975-2.812-3.189-1.455-.196-3.293.729-3.558 2.325a502.265 502.265 0 00-1.035 6.482c.073-2.317.128-4.636.154-6.955.05-4.342.014-8.687-.143-13.027-.152-4.216-.511-8.421-.669-12.634-.079-2.096-.096-4.194.028-6.29a43.325 43.325 0 01.184-2.198c-.007.066.06-.447.079-.623l.073-.468.092-.532a29.161 29.161 0 011.366-4.969l.197-.506.037-.092.061-.131c.341-.735.7-1.457 1.106-2.157a20.09 20.09 0 01.937-1.465l.298-.41c.1-.122.249-.31.249-.31a18.52 18.52 0 011.173-1.27c.286-.28.578-.55.883-.81.061-.053.122-.102.183-.152-.021.022.37-.28.434-.325 1.375-.975 2.16-2.866 1.159-4.423-.88-1.367-2.943-2.205-4.417-1.16-6.704 4.751-9.698 12.527-10.445 20.478-.415 4.414-.124 8.853.153 13.265.281 4.448.462 8.897.514 13.353.206 17.866-1.357 35.683-2.47 53.497-.558 8.913-1.004 17.838-1.063 26.771-.026 3.896.171 8.336 3.807 10.683 1.944 1.256 4.329 1.212 6.553 1.251a1210.553 1210.553 0 0074.424-1c2.195-.098 4.392-.19 6.587-.309 2.002-.106 4.041-.342 5.825-1.331 4.528-2.504 3.582-7.902 3.178-12.192z" fill="#F2EFE9"/><path d="M322.844 100.875c.062-2.957.583-6.358-.607-9.153-1.244-2.918-4.153-3.978-7.108-4.19-3.051-.218-6.17-.018-9.225 0l-19.768.118c-13.236.079-26.474.152-39.71.243-1.619.01-7.544.656-8.293 1.003-3.699 1.713-3.701 6.373-3.978 9.877-.604 7.654.525 54.294.22 69.943-.152 7.854-.291 15.711-.295 23.567-.001 3.87.03 7.738.108 11.606.04 1.963-.048 10.167.877 11.854 1.059 1.933 3.097 2.221 5.091 2.286a1608.237 1608.237 0 0017.551.467c7.879.168 15.761.273 23.641.297 7.823.024 13.583.063 21.404-.086 3.939-.075 7.878-.174 11.816-.3 1.759-.055 3.871.166 5.547-.427 2.277-.808 2.631-3.053 2.737-5.177.1-1.949-.157-30.669-.263-42.287-.124-13.291.183-66.334.255-69.641z" fill="#fff"/><path d="M159.616 222.67a4131.94 4131.94 0 00-.122-16.887c-.11-11.317-.352-22.63-.706-33.941-.712-22.796-1.738-45.59-1.819-68.402-.045-12.845.234-35.77-.719-36.77a6.943 6.943 0 00-1.42-2.113c-1.692-1.715-3.952-2.2-6.201-2.694-1.754-.386-103.942-27.895-104.7-27.846-5.53.35-33.202.255-33.524.269-2.232.1-4.229 1.842-4.185 4.19.594 31.91 1.035 63.399 1.214 95.314a6888.56 6888.56 0 01-.779 148.768c-.038 2.35 1.962 4.116 4.208 4.213l34.45 1.497c.7.03 1.35-.138 1.918-.448 1.432-.223 2.791-.705 4.152-1.274 4.237-1.769 102.428-38.564 104.457-40.689 1.19-1.244 1.875-2.673 2.297-4.197.186-.346.324-.712.386-1.094.973-5.94 1.124-11.893 1.093-17.896z" fill="#FFFCF5"/><path d="M44.132 81.454c-.187-15.637-.64-31.28-1.542-46.896l.036-.477c-7.742.273-31.808.19-32.108.203-2.232.1-4.228 1.842-4.185 4.19.594 31.91 1.035 63.399 1.213 95.314a6888.56 6888.56 0 01-.779 148.768c-.038 2.35 1.962 4.116 4.208 4.213 11.037.48 22.072.96 33.11 1.438a3979.186 3979.186 0 00.096-86.8c-.123-12.658.224-96.891-.05-119.953zm96.507 140.289c-1.563-1.438-3.866-1.832-5.748-.743a103.143 103.143 0 01-10.68 5.388c-.258.111-.519.214-.778.321a102.233 102.233 0 01-17.221 5.326c-2.293.494-4.69 1.077-7.044 1.291-.169.011-.465.03-.59.046-.332.042-.664.08-.995.118-.555.063-1.108.123-1.663.175-1.23.119-2.461.216-3.693.314-4.682.373-9.422.726-14.003 1.821-2.305.552-4.589 1.339-6.73 2.399.148-2.414.294-4.827.444-7.242.145-2.352-1.913-4.362-4.105-4.657a4.633 4.633 0 00-.986-.021c1.068-13.882 2.117-27.765 3.04-41.659.626-9.395 1.194-18.794 1.671-28.198.474-9.31 1.039-18.658.685-27.982-.36-9.516-2.183-18.839-3.547-28.238-.068-.468-.133-.937-.199-1.405l-.002-.012c-.036-.297-.076-.593-.113-.892a122.092 122.092 0 01-.39-3.562 82.98 82.98 0 01-.373-6.58c-.033-2.249.045-4.5.268-6.738.025-.244.053-.488.079-.733a.465.465 0 01-.018.044.57.57 0 00.018-.054l.016-.141a.748.748 0 01.094-.327c.054-.36.068-.754.122-1.068.03-.18.406-1.86.6-2.557l.06-.109c2.242.56 4.922-1.226 5.42-3.42.615-2.707-.826-4.858-3.296-5.814-2.936-1.136-6.394.087-8.569 2.18-1.908 1.838-2.841 4.478-3.296 7.028-.87 4.866-1.11 9.8-.842 14.731.28 5.08 1.798 119.254.282 138.902-.374 4.85-.747 9.7-1.114 14.551-.166 2.184-.281 4.246.209 6.413.627 2.781 2.454 5.016 5.12 6.025 3.014 1.141 5.866-.302 8.548-1.572 2.085-.988 62.23-13.408 68.009-20.42 1.401-1.7 1.166-5.151 2.054-7.171.828-1.892.918-4.229-.744-5.758zM68.774 75.883c.009.013.044.006.124-.03.009-.004.014-.008.023-.011l.075-.023a.118.118 0 01.013-.017h.002c.002-.002.004-.004.004-.007.02-.027.045-.056.076-.091.026-.03.05-.054.068-.077a1.954 1.954 0 01-.085.145c.226-.1.169-.052.026.014.035-.01.056-.018.054-.016a2.438 2.438 0 01-.108.046c-.071.1-.113.129-.105.096l.006-.01c.012-.02.028-.043.041-.066l-.005.002h-.002a1.953 1.953 0 01-.26.077.221.221 0 01-.086-.004.456.456 0 00.14-.027z" fill="#F2EFE9"/><path d="M68.987 75.837l.057-.021.004-.006a.626.626 0 00.052-.024c-.014.003-.028.009-.045.014.007-.009.012-.02.019-.028l-.063.028c-.003.005-.007.012-.012.017-.002 0-.003 0-.003.002a.09.09 0 00-.014.02s.003 0 .005-.002zm-1.025 4.443c.162-.42.154-.535.11-.478-.024.168-.06.326-.108.468-.002.003-.002.007-.002.01z" fill="#F2EFE9"/><path d="M140.575 83.611c-2.643-1.167-28.364-7.827-39.229-10.329-5.7-1.312-11.88-3.399-17.58-4.71l-8.634-1.99c-2.441-.561-5.083-1.348-7.58-.63-.66.19-1.236.479-1.75.85-.7.295-1.265.852-1.526 1.565-.495.686-.481 1.642-.136 2.438.293 22.011.585 44.021.88 66.033l.899 67.561.505 37.96c.016 1.148.824 2.338 1.983 2.608 3.195.742 6.373.393 9.563-.192 3.08-.565 6.15-1.197 9.22-1.812a1461.042 1461.042 0 0045.691-9.921c2.413-.564 5.021-1.101 7.061-2.596 1.464-1.073 2.539-2.401 3.14-4.133.543-1.565.564-3.284.594-4.924.033-1.933.066-3.868.101-5.801a43.27 43.27 0 00.228-3.591c.126-4.721.089-9.451.126-14.174l.224-28.858.227-29.205c.075-9.579-.549-43.995-.549-49.38-.002-4.361-2.223-6.223-3.458-6.769zM71.794 239.998l-.002-.19c.075.066.153.131.231.194-.074-.002-.153 0-.23-.004zm62.301-12.823c.023-.096.037-.192.049-.288.176.052.354.094.535.118-.194.061-.389.115-.584.17z" fill="#fff"/><path opacity=".25" d="M191.653 287.068c-1.103-1.686-3.337-2.645-5.17-3.272-1.822-.624-3.768-.895-5.685-1.025a52.877 52.877 0 00-4.681-.095c-2.462-.099-4.931-.019-7.403.164-4.23.316-8.511.672-12.691 1.41-1.989.351-3.962.832-5.854 1.551-1.951.742-4.388 1.928-4.388 4.381 0 2.746 3.062 3.516 5.251 3.614 2.153.097 4.328-.006 6.481-.082 4.302-.154 8.595-.37 12.9-.283 4.246.085 8.498.323 12.743.064 2.076-.125 4.343-.232 6.35-.809 2.478-.714 3.594-3.406 2.147-5.618zm-41.644 2.048a3.845 3.845 0 01-.326-.103.366.366 0 01.326.103zm97.962-14.804c-2.622-3.254-7.279-3.967-11.187-4.247a30.471 30.471 0 00-4.263.016c-4.321-1.251-8.962-.584-13.358-.146a226.27 226.27 0 00-6.718.769c-2.14.277-4.427.405-6.45 1.214-3.401 1.361-9.222 6.646-4.213 9.795 3.65 2.296 8.44 1.612 12.496 1.328 9.201-.646 18.422.265 27.63-.152 2.154-.097 4.515-.298 6.07-1.994 1.8-1.966 1.607-4.58-.007-6.583z" fill="#C4C1BB"/><path d="M215.595 249.244a69.126 69.126 0 01-.054-12.533c.04-.462-.256-.769-.627-.888-.253-.661-1.164-.935-1.596-.448a1.058 1.058 0 00-.596-.023c-.495-.46-1.505-.406-1.622.4-.047.321-.089.644-.133.966-.484-.2-1.141.004-1.327.599a1.041 1.041 0 00-.723.179c-.549-.233-1.368.048-1.42.84a42.439 42.439 0 00.282 8.257c0 .006 0 .009-.002.014h.004c.01.086.019.171.031.255.077.565.516.75.953.675.059.143.138.283.239.416.38.497 1.005.563 1.409.261a.789.789 0 00.635.374c.339.904 1.763.79 1.853-.325l.039-.462c.028.18.055.359.087.539.063.358.313.569.613.649l.021.255c.12 1.228 2.052 1.24 1.934 0z" fill="#F28168"/><path d="M213.804 278.159v-.04c1.063-5.726 1.2-11.69 1.855-17.477.33-2.905.654-5.78.291-8.699-.179-1.446-.484-2.874-.799-4.296-.276-1.238-1.002-2.999-.549-4.238.423-1.156-.662-1.566-1.089-.415-.011.03-.019.06-.03.091a1.127 1.127 0 00-.414-.054l-.006-.248c-.033-1.193-1.834-1.354-1.92-.213a1.01 1.01 0 00-.949.182c-.2-.833-1.537-1.126-1.828-.117-1.409 4.88.321 9.767 1.065 14.596.883 5.739 1.439 11.545 2.143 17.31.136 1.116.331 2.264.313 3.402-.088.474 1.906.619 1.917.216z" fill="#F28168"/><path d="M207.333 278.669c.795-.519 1.528-1.005 2.345-1.487.584-.344 1.162-.717 1.838-.841.638-.117 2.354-.054 2.439-.051.831.025.809 1.538.845 2.373.067 1.508-1.379 1.276-2.46 1.365-1.639.134-3.197.411-4.838.453-.427.011-1.164.042-1.406-.223-.141-.154-.627-.375 1.237-1.589z" fill="#27374D"/><path d="M227.007 276.116l-.016-.036c-1.341-5.667-3.627-11.177-5.368-16.734-.873-2.79-1.74-5.55-3.251-8.073-.749-1.249-1.605-2.432-2.467-3.605-.751-1.02-2.129-2.336-2.216-3.651-.082-1.23-1.239-1.166-1.164.062.002.032.007.063.009.095a1.109 1.109 0 00-.401.118l-.105-.223c-.512-1.077-2.224-.494-1.841.584-.329.03-.636.241-.795.55-.519-.68-1.86-.407-1.717.633.684 5.034 4.242 8.801 6.875 12.915 3.129 4.889 5.982 9.975 8.957 14.959.576.967 1.219 1.937 1.66 2.984.111.471 1.993-.204 1.84-.578z" fill="#F28168"/><path d="M221.327 279.316c.49-.813.937-1.572 1.463-2.363.375-.563.734-1.153 1.288-1.558.523-.382 2.094-1.074 2.173-1.109.757-.34 1.395 1.029 1.792 1.765.716 1.328-.686 1.75-1.62 2.302-1.416.835-2.699 1.765-4.157 2.519-.38.196-1.03.546-1.362.414-.19-.075-.725-.063.423-1.97z" fill="#27374D"/><path d="M162.689 287.493c.392-3.362 2.521-19.207 2.851-19.007.433.262.852 1.052 1.306 1.204.262-.155.673-.087.774.234l.456.127.011.004c.23-.281.716-.159.885.159.059.111.108.226.15.342.153.125.289.273.402.457.023.036.04.073.054.11.152.092.251.26.208.492-.236 1.271-1.985 8.17-2.454 9.348-.676 2.146-1.386 4.302-2.24 6.37-.322.783-.943 1.595-1.894 1.472-.974-.127-.61-.453-.509-1.312z" fill="#C67F60"/><path d="M158.395 287.769c.834-.448 1.608-.874 2.461-1.284.61-.293 1.218-.618 1.901-.682.645-.063 2.349.145 2.436.155.826.094.676 1.598.643 2.436-.059 1.507-1.481 1.155-2.567 1.153-1.644-.005-3.221.141-4.859.044-.425-.025-1.164-.056-1.381-.341-.128-.165-.593-.427 1.366-1.481z" fill="#27374D"/><path d="M183.809 288.007c-.571-3.336-2.995-19.138-2.622-19.041.489.129 1.113.768 1.592.785.208-.223.621-.274.807.006.157-.002.314-.006.474-.007h.01c.141-.334.643-.355.894-.098.089.091.167.187.241.286.181.077.355.182.515.325.032.028.06.059.082.089a.45.45 0 01.338.413c.134 1.286.399 8.399.281 9.662-.044 2.249-.119 4.521-.354 6.744-.089.843-.455 1.795-1.403 1.947-.968.157-.709-.258-.855-1.111z" fill="#C67F60"/><path d="M179.22 288.111c.819-.478 1.575-.93 2.415-1.371.599-.316 1.195-.66 1.876-.75.643-.086 2.352.061 2.439.068.83.064.734 1.573.73 2.411-.007 1.509-1.439 1.207-2.523 1.244-1.642.054-3.214.256-4.853.218-.427-.011-1.166-.014-1.394-.292-.134-.16-.61-.406 1.31-1.528z" fill="#27374D"/><path d="M186.586 225.215c-.498-4.133-1.186-8.244-2.11-12.291-.331-1.449-1.826-1.347-2.415-.41a86.385 86.385 0 00-.083-.733c-.202-1.689-2.364-2.19-2.709-.353-.091.485-.168.97-.234 1.457l-.202.005a62.238 62.238 0 00-.284-1.151c-.3-1.148-1.728-1.433-2.354-.668a1.578 1.578 0 00-.468.57 1.264 1.264 0 00-.831 0c-.117-1.376-2.056-2.013-2.647-.668a1.288 1.288 0 00-.434-.284c-.655-.269-1.421-.007-1.766.696-.101.206-.194.415-.283.624a1.676 1.676 0 00-.695.489c.077-.808-.27-1.605-1.04-1.815-.686-.186-1.601.302-1.713 1.141-.514 3.865-2.862 8.106-3.367 13.075-1.701 16.739-1.441 38.234-2.389 51.35a723.73 723.73 0 00-.254 3.617c-.075 1.095-.269 2.299.484 3.18.695.811 1.669.817 2.61.883l3.369.239c.666.047 1.15-.579 1.349-1.197 2.477-7.734 5.354-21.148 7.749-34.008 1.203 10.454 2.499 20.636 3.867 28.181.214 1.184.432 2.369.651 3.554.199 1.074.316 2.291 1.223 2.926.838.586 1.736.315 2.617.115l3.157-.719c.624-.141.917-.883.946-1.532.695-14.544.012-41.713-1.744-56.273z" fill="#B38740"/><path d="M172.679 164.956c.243-.45.479-.88.696-1.319.36-3.202 1.087-6.299 4.383-7.335 1.93-.607 5.99-1.04 7.457.445 1.382 1.399 2.136 3.386 2.329 5.323.312 3.109-.839 6.597-3.099 8.851-.209.726-.35 1.473-.462 2.216-.296 1.982.08 5.094.08 7.094 0 .651-.693.143-1.289.38-.139.77-.997 1.215-1.746 1.14a1.62 1.62 0 01-.383.214c-2.65.986-3 1.738-3.152.19l.112-8.205c-1.274-.532-2.385-.501-3.223-1.647-.886-1.209-1.204-3.078-1.25-4.798-.42-.103-.843-.29-1.022-.709-.298-.682.264-1.275.569-1.84z" fill="#C67F60"/><path d="M189.987 160.665c-.429-1.34-1.063-2.153-2.153-2.959-.635-.469-1.316-.834-1.983-1.247-.619-.382-.749-1.044-1.268-1.546-.966-.935-2.241-1.01-3.447-.581-.184.066-.677.323-.895.197-.213-.122-.145-.628-.211-.834-.178-.551-.664-.972-1.213-1.132-1.16-.34-2.732.291-3.411 1.256-.186.263-.308.66-.538.883-.295.286-.769.298-1.115.511-.534.328-.852.909-.985 1.509-.28 1.269.194 2.623 1.089 3.535.892 1.016 1.241 1.593 1.471 2.324.155.492.264.996.568 1.425.318.452.775.702 1.308.81.774.157 1.397-.016 1.786.829.32.698.301 1.502.465 2.242.134.603.368 1.186.688 1.717.685 1.132 1.694 1.999 2.73 2.796.361.278.788.089 1.025-.233 1.171-1.098 2.23-2.298 3.282-3.507.967-1.112 1.953-2.251 2.631-3.568.664-1.295.636-2.987.176-4.427z" fill="#27374D"/><path d="M188.389 192.448c-.423-8.3-4.036-14.358-4.054-14.417-.521-1.754-2.932-1.993-4.779-.9-3.624 2.144-5.995 5.18-7.544 8.599-1.359 3.003-4.192 17.441-5.262 23.293-1.472 2.648-2.82 5.358-3.756 8.254-.74 2.291-1.406 5.311.904 6.928.288.201.678.149.971 0a28.967 28.967 0 005.248-3.465c3.024.166 6.552.044 7.648.046 1.917.005 6.554-.006 8.19-1.208 5.468-4.018 2.745-21.066 2.434-27.13z" fill="#FFFCF5"/><path d="M220.1 238.995c-.221-.644-.618-1.176-1.007-1.715v-8.134a.876.876 0 00-.315-.706 35.645 35.645 0 00-.162-3.097c.24-2.319.16-4.671-.258-6.967a9.557 9.557 0 00-.577-2.003c.804-1.015.173-2.519-.963-3.254a5.801 5.801 0 00-.439-.253c.74-.53.876-1.825-.234-2.118a24.977 24.977 0 00-5.103-.818c-1.373-.07-3.643-.412-4.287 1.186-.297.733-.33 1.617-.493 2.389a57.02 57.02 0 01-.612 2.584c-.456 1.751-.995 3.479-1.308 5.265-.624 3.54-.798 7.19-1.149 10.765l-.533 5.442c-.071.729-.223 1.5-.017 2.218.23.8.897 1.273 1.603 1.638 3.423 1.767 14.264 1.043 15.035.539.981-.644 1.18-1.911.819-2.961zm-1.74 1.125c-.038.126-.134.219-.267.288a1.427 1.427 0 00-.038-.488c.111.012.223.005.331-.018a.75.75 0 01-.026.218z" fill="#627A94"/><path d="M212.994 210.28c-.23-2.4-.877-4.672-1.96-6.827a.83.83 0 00-.464-.418c-.024-.219-.05-.437-.08-.655-.092-.666-.707-.797-1.216-.603.244-.704.488-1.407.718-2.11.383-1.174-1.452-1.669-1.842-.507-.554 1.647-1.097 3.299-1.646 4.948-.434 1.305-1.047 2.721-.995 4.121.047 1.27.753 2.233 1.997 2.547 1.437.361 3.05.333 4.522.471.487.045 1.011-.482.966-.967z" fill="#fff"/><path d="M208.002 174.576c.723 1.221 2.713 1.712 3.993 1.93l-.038.349c2.126-.579 3.404-.325 5.568-.686.173-.67-1.702-2.47-1.446-3.116 2.469-2.024 6.029-4.252 6.022-7.377-.006-1.945-.837-3.505-2.077-5.032-1.316-1.62-5.305-1.751-7.286-1.336-3.38.71-4.224 3.393-4.893 6.546-.256.415-.533.82-.819 1.244-.358.534-.975 1.068-.749 1.776.138.435.542.66.95.805-.122 1.716.014 3.608.775 4.897z" fill="#F28168"/><path d="M220.755 179.406c-.547-1.822-1.935-4.32-2.728-6.049a.77.77 0 00-.561-.454 1.026 1.026 0 00-.84-.288c-.491-.705-1.704-.431-1.806.323a.317.317 0 00-.046.019c-.566-.213-1.282.068-1.334.661a.992.992 0 00-.453.227c-.424-.044-.863.218-1.053.686a1.734 1.734 0 00-.099.975.972.972 0 00.11.543c.449.874 2.146 4.581 2.897 5.407.366.403 5.947-1.941 5.913-2.05z" fill="#F28168"/><path d="M225.594 156.862c-.295-1.293-1.641-1.412-2.65-.859-1.384.759-2.384 2.134-2.838 3.657-1.509-.692-3.419-1.085-5.035-1.057-3.666.063-5.133 1.619-5.328 1.996-.344.661-.405 1.37-.209 2.088.212.782.756 1.412 1 2.176.21.661.202 1.328.602 1.926.408.607 1.393.67 1.612 1.403.197.651.218 1.851-.347 2.418-.528.531 1.081 1.152 1.565 1.714.845.98 2.267 2.517 3.688 2.325 1.363-.183 2.549-1.846 3.347-2.835 1.025-1.272 1.857-2.687 2.293-4.271.404-1.469.366-3.081-.143-4.5a7.23 7.23 0 001.901-2.667c.427-1.03.796-2.398.542-3.514z" fill="#574443"/><path d="M235.634 258.808c-1.003-1.327-2.075-2.617-2.88-4.081-.754-1.371-1.184-2.91-1.383-4.459-.416-3.252-.002-6.557.004-9.819.005-3.296-.551-6.503-1.534-9.644-.97-3.103-2.244-6.099-3.324-9.165-1.101-3.124-1.955-6.307-2.106-9.632-.166-3.628.265-7.244.599-10.849.375-4.039.477-8.031.019-12.068-.47-4.156-1.312-8.256-2.197-12.341-.378-1.745-2.894-1.157-2.88.456-.414.219-.723.638-.73 1.256l-.01 1.081a1.204 1.204 0 00-.307-.108c-.319-.814-1.416-1.088-2.145-.682a1.788 1.788 0 00-.278-.152c-.138-1.085-1.518-1.954-2.483-.928a22.742 22.742 0 00-5.891 12.192c-.913 1.63-1.947 3.198-2.986 4.753-1.068 1.6-2.146 3.195-3.113 4.859-.945 1.626-1.925 3.791-.404 5.414 2.487 2.652 6.202.59 8.267-1.61.181.567.365 1.134.55 1.699 1.124 3.421 2.23 6.851 3.114 10.343.869 3.435 1.47 6.904 1.749 10.438.273 3.465.359 6.944.752 10.399.392 3.448 1.095 6.798 2.436 10.008 1.277 3.058 2.932 5.988 3.72 9.229.878 3.607.669 7.437 2.242 10.868 1.356 2.958 4.023 5.652 7.393 5.514 5.979-.246 7.596-2.432 7.566-4.172-.052-3.306-1.829-6.244-3.76-8.799z" fill="#F07556"/><path d="M225.432 176.424c-.58-2.41.143-4.952-.81-7.299-.42-1.032-1.044-1.952-1.295-3.049-.225-.991-.28-2.021-.639-2.979-.42-1.121-1.171-2.172-2.356-2.557-1.305-.424-2.491.336-2.936 1.565-.13.359-.238.731-.334 1.109a1.409 1.409 0 00-1.312-.026 1.306 1.306 0 00-.577-.129c-.561 0-1.266.431-1.352 1.031l-.047.344c-1.056-1.003-3.035.29-2.158 1.699.568.915 1.271 1.97 1.315 3.083.038 1.01-.791 1.705-1.319 2.476-.578.844-.866 1.813-.672 2.833.146.779.918 1.616.651 2.406-.284.843-.887 1.504-1.042 2.412a3.011 3.011 0 001.074 2.882c.778.644 1.791.935 2.792.869 1.244-.082 2.293-.672 3.457-1.04.512-.162 1.037-.302 1.563-.126.442.149.84.45 1.279.621a3.763 3.763 0 003.132-.214c2.298-1.242 2.114-3.716 1.586-5.911z" fill="#574443"/><path d="M259.66 87.922l-13.295.084c-1.619.01-7.544.656-8.293 1.003-3.699 1.714-3.701 6.374-3.978 9.877-.404 5.105-.036 27.551.164 46.579 1.706 1.497 3.591 2.754 5.648 3.642 6.297 2.72 13.318 2.584 19.881.917 6.586-1.671 12.771-5.016 16.853-10.564 2.229-3.029 3.542-6.689 3.839-10.43.151-1.907.069-4.198-.793-5.932a3.836 3.836 0 00-.209-.365c-.533-2.223-1.824-4.231-3.741-5.485a6.932 6.932 0 00-2.746-1.042c-1.064-.801-2.291-1.432-3.531-1.884-1.239-2.577-2.774-5.062-4.168-7.501a57.04 57.04 0 01-2.584-5.127l-.073-.164a48.038 48.038 0 01-.82-2.1 53.026 53.026 0 01-2.347-8.567c-.054-.285-.099-.571-.148-.86.146-.531.244-1.095.308-1.698.016-.128.026-.255.033-.383z" fill="#B38740"/><path d="M309.728 176.347c-4.79-2.15-8.922-5.269-13.36-8.038-5.04-3.144-10.811-5.494-16.858-5.121-6.318.389-12.395 2.987-16.759 7.644-3.816 4.07-6.134 9.118-7.926 14.343-1.686 4.922-2.871 10.006-4.815 14.838-1.357 3.067-2.993 6.005-4.98 8.709-1.414 1.754-2.979 3.371-4.718 4.8a27.378 27.378 0 01-4.712 2.739 11.25 11.25 0 00-.312.133c1.123 1.397 2.925 1.633 4.692 1.69a1665.725 1665.725 0 0017.551.468c7.879.168 15.761.272 23.641.297 7.823.024 13.583.062 21.404-.086 3.939-.075 7.878-.174 11.816-.3 1.759-.056 3.871.166 5.547-.427 2.277-.808 2.631-3.054 2.737-5.177.079-1.555-.068-20.143-.184-33.497a47.874 47.874 0 01-2.509-.222 47.062 47.062 0 01-10.255-2.793zm-40.964-72.863c-.007-.168-.007-.119 0 0zm53.824 67.147c-.034-3.603-.035-10.126-.02-17.789-2.022-.436-4.096-.684-6.183-.888-.946-.092-1.892-.176-2.836-.276-.349-.036-.696-.078-1.042-.118-.265-.044-.532-.081-.796-.124a29.3 29.3 0 01-2.556-.539c-.819-.215-1.788-.419-2.537-.833.165.082.695.322.139.042-.158-.08-.32-.155-.479-.237-.395-.204-.78-.426-1.153-.668-.148-.096-.291-.197-.438-.297-.355-.328-.717-.637-1.048-.993-.122-.13-.237-.266-.356-.399-.47-.525.047.112.103.152-.298-.213-.544-.784-.737-1.103a15.046 15.046 0 01-.575-1.05c-.099-.199-.19-.403-.287-.604l-.013-.024-.019-.051c-1.205-3.235-1.718-6.63-2.585-9.957-.95-3.638-2.426-7.262-5.058-10.015-3.006-3.144-7.194-4.191-11.154-5.583a78.712 78.712 0 01-2.561-.965 1.11 1.11 0 00-.155-.049c-.1-.049-.197-.103-.253-.129a33.68 33.68 0 01-1.425-.677 27.572 27.572 0 01-2.359-1.329 24.576 24.576 0 01-.944-.63 17.916 17.916 0 00-.305-.203c-.168-.13-.328-.279-.485-.415a17.856 17.856 0 01-1.798-1.778c-.12-.136-.233-.279-.353-.415l-.021-.024c-.274-.393-.553-.78-.807-1.188a20.694 20.694 0 01-1.166-2.153c-.036-.081-.099-.191-.149-.301a1.6 1.6 0 00-.053-.165c-.181-.47-.346-.944-.498-1.424a25.528 25.528 0 01-.829-3.489 5.35 5.35 0 01-.037-.454c.002.077.007.197.011.377-.013-.457-.107-.921-.143-1.379-.18-2.231-.096-4.477.155-6.7.022-.197.042-.397.071-.594l.061-.368c.094-.606.201-1.21.316-1.812.219-1.151.473-2.296.75-3.435.14-.574.284-1.146.434-1.717-4.413.026-8.826.054-13.237.082a56.08 56.08 0 00-.654 3.387c-.801 5.005-1.207 10.132-.631 15.186.546 4.777 1.694 9.488 4.14 13.677a23.411 23.411 0 0010.043 9.294c3.862 1.862 8.002 2.996 11.978 4.568.197.089.395.176.59.269.431.202.856.413 1.274.638a20.576 20.576 0 011.807 1.096c.062.043.139.106.214.171l-.164-.164c.073.073.146.143.22.214l-.056-.048c.425.422.354.331.165.151.513.475 1.049.913 1.516 1.445.08.181.349.455.437.591a15.5 15.5 0 01.922 1.613c.105.209.201.42.3.631.002.007.003.012.007.019.181.506.371 1.007.536 1.518a55.85 55.85 0 01.926 3.27c.557 2.158 1.073 4.337 1.866 6.424 1 2.629 2.273 4.911 4.038 7.096 1.6 1.98 3.567 3.627 5.659 5.065 4.817 3.311 10.631 4.99 16.332 5.963 1.295.222 2.612.438 3.939.625.006-.005.006-.007.006-.011z" fill="#27374D"/><path d="M322.309 91.649c-1.244-2.919-4.154-3.978-7.109-4.19-3.051-.219-6.169-.018-9.225 0-6.589.037-13.179.078-19.768.118l-5.671.033c-.665 2.368-1.07 4.8-1.082 7.29-.029 5.696 2.077 11.846 6.64 15.482 2.423 1.932 5.157 3.38 8.208 4.046 3.138.684 6.143.665 9.296.166 5.304-.838 10.64-3.852 14.05-8.015 2.718-3.321 4.622-7.246 5.405-11.428-.075-1.218-.277-2.408-.744-3.502z" fill="#B38740"/><path d="M144.031 90.38c0-4.361-2.221-6.225-3.456-6.769-2.643-1.167-28.364-7.827-39.229-10.329a111.751 111.751 0 01-4.403-1.12c-1.923 2.736-3.47 5.763-4.699 8.93-2.796 7.205-3.416 15.11-3.324 22.775.105 8.691.977 17.366.07 26.042-.873 8.34-2.602 16.825-.199 25.093 1.244 4.285 3.702 8.961 7.877 11.039 2.606 1.296 5.652 1.839 8.476.879a14.079 14.079 0 006.065-4.072c2.786-3.174 5.037-6.918 7.286-10.481a214.358 214.358 0 006.155-10.403c7.882-14.211 14.249-29.277 19.454-44.664a671.339 671.339 0 01-.073-6.92z" fill="#627A94"/><path d="M82.604 124.218c-1.104-.131-2.571.548-2.747 1.797-.255 1.794-.718 3.09-1.678 4.559-.744 1.139-.228 2.785.902 3.446 1.234.722 2.685.23 3.441-.904 1.302-1.951 1.981-4.123 2.255-6.435.143-1.219-1.065-2.331-2.173-2.463zm-10.976 35.069c-1.105-.131-2.572.548-2.748 1.797-.254 1.794-.717 3.09-1.677 4.559-.744 1.139-.229 2.785.902 3.446 1.234.722 2.685.23 3.441-.904 1.302-1.95 1.981-4.123 2.255-6.434.142-1.22-1.065-2.331-2.173-2.464zm11.318-21.579c-1.267-.349-2.777.428-3.082 1.754-.619 2.68-1.64 4.913-3.213 7.19-.772 1.116-.206 2.791.9 3.44 1.264.74 2.644.204 3.436-.902 1.786-2.493 3.044-5.401 3.712-8.394.292-1.322-.403-2.716-1.753-3.088zm8.537 24.601c-1.267-.349-2.777.427-3.082 1.753-.619 2.68-1.64 4.914-3.213 7.191-.772 1.116-.206 2.791.9 3.44 1.264.74 2.644.204 3.437-.902 1.785-2.493 3.043-5.402 3.71-8.394.293-1.322-.402-2.716-1.752-3.088zm6.097 9.073c-1.266-.349-2.776.427-3.081 1.753-.619 2.68-1.64 4.913-3.213 7.19-.772 1.117-.206 2.792.9 3.441 1.264.74 2.644.204 3.436-.902 1.786-2.493 3.044-5.402 3.712-8.394.292-1.323-.403-2.717-1.753-3.088zm-10.278 31.405c-1.267-.349-2.778.427-3.083 1.753-.618 2.68-1.64 4.913-3.212 7.19-.772 1.117-.206 2.792.9 3.441 1.264.74 2.643.204 3.436-.902 1.786-2.493 3.044-5.402 3.711-8.394.293-1.323-.402-2.717-1.752-3.088zm-8.363 17.622c-1.267-.349-2.778.427-3.082 1.753-.619 2.68-1.64 4.913-3.213 7.19-.772 1.117-.206 2.792.9 3.441 1.264.74 2.644.204 3.436-.902 1.786-2.494 3.044-5.402 3.711-8.394.293-1.323-.402-2.717-1.752-3.088zm18.991-33.325c-1.267-.349-2.778.428-3.083 1.754-.618 2.68-1.64 4.913-3.213 7.19-.771 1.116-.205 2.791.901 3.44 1.263.74 2.643.204 3.436-.902 1.786-2.493 3.044-5.401 3.711-8.394.293-1.322-.403-2.716-1.753-3.088zm10.453-22.333c-1.267-.349-2.777.428-3.082 1.754-.619 2.68-1.64 4.913-3.213 7.19-.772 1.117-.206 2.791.901 3.441 1.263.739 2.643.204 3.436-.903 1.785-2.493 3.043-5.401 3.711-8.393.292-1.323-.403-2.717-1.753-3.089zm-32.058 7.677c-1.267-.349-2.777.428-3.082 1.754-.618 2.68-1.64 4.913-3.213 7.19-.772 1.116-.205 2.791.901 3.44 1.263.74 2.643.205 3.436-.902 1.786-2.493 3.044-5.401 3.71-8.393.294-1.323-.402-2.717-1.752-3.089zm2.392-16.414c-.646 2.292-1.524 4.315-2.709 6.379-1.615 2.812 2.675 5.316 4.338 2.538 1.41-2.355 2.478-4.937 3.2-7.584.85-3.118-3.954-4.441-4.829-1.333zm35.02-8.026c-.647 2.293-1.525 4.315-2.709 6.379-1.615 2.812 2.674 5.316 4.338 2.539 1.409-2.356 2.477-4.938 3.199-7.585.85-3.118-3.954-4.44-4.828-1.333zm-12.893 6.456c-.646 2.292-1.524 4.315-2.71 6.379-1.614 2.812 2.675 5.316 4.339 2.538 1.41-2.355 2.478-4.937 3.199-7.584.85-3.118-3.953-4.441-4.828-1.333zm-7.464-9.099c-1.277-.351-2.758.429-3.078 1.75-.473 1.938-1.163 3.477-2.29 5.166-.754 1.129-.22 2.783.901 3.437 1.248.731 2.659.217 3.432-.902 1.323-1.909 2.267-4.105 2.784-6.368.302-1.317-.404-2.713-1.749-3.083zM75.26 190.01c-1.276-.35-2.757.429-3.078 1.75-.472 1.939-1.162 3.477-2.29 5.166-.754 1.129-.219 2.783.901 3.437 1.248.732 2.66.217 3.433-.902 1.322-1.908 2.266-4.105 2.784-6.368.301-1.317-.404-2.713-1.75-3.083zm10.803-6.979c-1.277-.35-2.758.429-3.079 1.75-.472 1.939-1.162 3.477-2.29 5.166-.754 1.129-.219 2.783.901 3.437 1.248.731 2.66.217 3.433-.902 1.322-1.908 2.266-4.105 2.784-6.368.301-1.317-.404-2.713-1.75-3.083zm-11.499 23.205c-1.277-.351-2.758.429-3.079 1.75-.472 1.938-1.162 3.477-2.29 5.166-.754 1.129-.219 2.783.902 3.437 1.247.731 2.658.217 3.432-.902a18.474 18.474 0 002.784-6.368c.301-1.317-.404-2.713-1.75-3.083z" fill="#27374D"/><path d="M44.219 81.37c-.187-15.639-.64-31.282-1.542-46.898l.036-.476c-7.742.272-31.808.19-32.108.203-2.232.099-4.228 1.842-4.185 4.19.594 31.91 1.035 63.399 1.215 95.313.106 18.96.132 37.92.08 56.88 7.614-1.975 14.75-6.689 19.693-12.708 3.089-3.764 5.462-7.811 7.098-12.411 1.785-5.021 2.235-10.494 2.325-15.788.095-5.504-.21-11.028.413-16.51a38.312 38.312 0 012.241-8.129c1.385-3.114 3.077-6.064 4.842-8.975.002-14.769-.025-27.614-.108-34.692z" fill="#E3E0DA"/><path d="M144.056 93.356c-6.114-1.958-12.759-1.1-18.517 1.63-6.335 3.005-11.105 8.78-13.229 15.419-2.201 6.879-1.45 14.64.706 21.429 2.425 7.642 6.489 14.596 9.667 21.922 1.84 4.49 3.302 9.131 4.044 13.934.331 2.929.371 5.873.056 8.805a32.699 32.699 0 01-1.793 6.698 28.92 28.92 0 01-2.882 4.903c-3.108 3.807-6.967 6.888-10.765 9.98-4.26 3.467-8.297 7.124-11.842 11.336-7.907 9.391-14.686 20.879-15.553 33.382-.018.246-.03.495-.042.743 1.096-.22 2.19-.442 3.284-.661a1461.042 1461.042 0 0045.691-9.921c2.413-.564 5.021-1.101 7.061-2.596 1.464-1.073 2.539-2.401 3.14-4.133.543-1.565.564-3.284.594-4.924.033-1.933.066-3.868.101-5.801a43.27 43.27 0 00.228-3.591c.126-4.721.089-9.451.126-14.174l.224-28.858.227-29.205c.063-8.441-.413-36.161-.526-46.317zm178.136 28.637c-2.662-.575-5.058-2.601-6.511-4.829-1.624-2.492-1.988-5.616-1.826-8.525.145-2.61.676-5.189.715-7.806.003-.181.006-2.041-.102-2.048-.017-.002.053.35.061.394.002.005.002.007 0 0-.003-.02-.02-.1-.055-.269-.033-.16-.06-.32-.094-.48a13.965 13.965 0 00-.54-1.86c-.027-.072-.054-.158-.084-.242l-.054-.097a17.614 17.614 0 00-.922-1.679 17.729 17.729 0 00-.559-.813c.16.229-.232-.286-.373-.448a16.335 16.335 0 00-1.8-1.76c-.01-.01-.028-.023-.047-.04a87.48 87.48 0 00-3.104-.803c-3.171-.758-6.51-1.278-9.773-.934-5.852.614-11.433 3.671-13.391 9.521-.913 2.725-.739 5.718.535 8.291 1.228 2.483 3.521 4.301 5.854 5.684 2.207 1.309 4.598 2.281 6.748 3.687 1.967 1.286 3.544 2.854 3.903 5.192.224 1.466.062 2.984.116 4.462.056 1.498.282 2.99.866 4.377 1.335 3.169 4.213 4.393 7.445 4.737 2.995.319 6.298.504 9.206-.415 1.559-.492 2.951-1.317 4.206-2.331.017-3.739.035-7.419.054-10.878-.16-.027-.317-.055-.474-.088z" fill="#F79E88"/><path opacity=".58" d="M144.589 134.685c-.077-13.218-.544-39.669-.544-44.332 0-4.362-2.221-6.225-3.456-6.77-1.835-.81-14.773-4.262-26.154-7.136-1.717 3.807-2.972 7.83-3.81 11.97-1.718 8.48-2.551 17.923.685 26.158 1.611 4.104 3.932 7.888 7.328 10.76 3.254 2.753 7.002 5.038 10.758 7.041 4.077 2.174 9.496 4.512 14.128 2.776.368-.139.722-.296 1.065-.467zm-22.911 70.216c-1.683-2.929-4.159-5.354-6.711-7.523-1.471-1.249-3.004-2.464-4.638-3.493-1.481-.932-3.068-1.631-4.688-2.284-5.335-2.151-11.193-2.503-16.549-4.569a19.308 19.308 0 01-2.235-1.197c-.247-.157-.486-.325-.728-.49a17.038 17.038 0 01-1.185-1.11 16.112 16.112 0 01-.643-.714c.032.047.065.098.1.154a4.99 4.99 0 00-.114-.169v-.002a4.024 4.024 0 01-.352-.517 16.744 16.744 0 01-.548-.83 25.413 25.413 0 01-1.455-2.813c-2.013-5.066-3.026-10.456-5.241-15.461-2.254-5.095-6.222-9.457-11.436-11.516l.693 52.089c.17 12.653.337 25.308.506 37.961.015 1.148.824 2.337 1.982 2.608 3.195.741 6.373.392 9.563-.192 3.08-.565 6.15-1.197 9.22-1.813 6.125-1.228 12.24-2.495 18.348-3.8 5.567-1.19 11.125-2.415 16.677-3.669a57.424 57.424 0 002.311-10.98c.728-6.514.461-13.858-2.877-19.67zm-49.855 35.155l-.002-.19c.075.066.154.131.232.193-.076 0-.153 0-.23-.003zm12.48-56.535c-.29-.445-.378-.563-.366-.532.119.171.237.344.352.517l.014.015z" fill="#fff"/><path d="M289.211 161.339c-.751-1.677-1.842-3.329-3.223-4.547-2.009-1.769-4.29-2.664-6.935-2.926-4.678-.462-8.904 2.043-12.356 4.906-1.402 1.162-2.683 2.631-4.207 3.631.062-.042 1.028-.748.329-.26-.202.141-.399.288-.603.428a19.96 19.96 0 01-1.11.703c-.618.363-1.254.691-1.904.991a27.333 27.333 0 01-5.499 1.467c-2.825.298-5.66.213-8.481-.115-3.646-.55-7.206-1.467-10.769-2.396a352.694 352.694 0 01-.05 5.55c-.145 7.47-.276 14.939-.293 22.41a52.408 52.408 0 0018.48.316c3.248-.524 6.359-1.651 9.595-2.208a14.365 14.365 0 012.195-.041c.439.09.871.205 1.296.349.141.071.281.146.417.228.064.038.127.08.188.122.087.093.207.227.314.344l.012.021c.01.017.017.035.028.052.08.264.144.531.2.799.092 1.358.017 2.727-.132 4.079-.494 3.087-1.424 6.069-2.593 8.963-1.437 3.306-3.126 6.494-4.831 9.668-.833 1.549-1.668 3.098-2.476 4.66.31.007.62.016.93.021 7.879.167 15.761.272 23.641.296.706.002 1.396.006 2.072.007a39.355 39.355 0 002.531-3.615c3.748-6.033 5.595-12.874 6.44-19.867.881-7.293.432-14.741-.323-22.027-.434-4.2-1.15-8.143-2.883-12.009z" fill="#F79E88"/><path d="M256.195 71.548c-.014-.035-.028-.068-.04-.103a.239.239 0 01-.012-.031l-.021-.05c-.108-.249-.283-.585.073.184z" fill="#fff"/><path opacity=".14" d="M331.431 24.166c-5.784.047-11.57.075-17.356.093-.154-.251-.373-.457-.643-.543-.962-.305-2.006-.637-3.02-.696-1.017-.06-1.634.485-2.054 1.253-6.457.009-12.915.002-19.372-.026a3389.8 3389.8 0 01-12.6-.079c-.024-.052-.047-.105-.073-.157-.253-.52-.971-.93-1.556-.754-.798.241-1.65.5-2.413.876-8.6-.077-17.201-.181-25.801-.32-1.361-.023-2.722-.048-4.082-.072-.29-.473-.955-.824-1.504-.658-.585.176-1.202.363-1.791.598-5.509-.104-11.016-.218-16.524-.326-1.501-.03-1.501 3.594 0 3.634 4.87.13 9.74.238 14.609.332.272 1.14.54 2.28.812 3.42-.282.106-.456.176-.47.193-.567.358-1.025.857-1.263 1.551-.309.9-.114 1.865.008 2.783.129.968.279 1.933.452 2.893.278 1.55.392 3.86 1.82 4.845.753.518 1.655.474 2.493.225 1.013-.3 2.016-.649 3.015-.995.832-.287 1.662-.586 2.489-.893 1.012-.377 2.087-.663 2.528-1.764.291-.726.199-1.49-.014-2.228-.289-1.001-.615-1.994-.921-2.99l-.807-2.617c-.277-.897-.558-1.823-1.404-2.349-.594-.368-1.298-.408-1.983-.377-.127-.527-.24-1.055-.359-1.584 7.145.12 14.29.211 21.435.29 2.013.023 4.025.038 6.037.057.248 1.044.495 2.087.744 3.13-.282.107-.456.177-.47.194-.567.358-1.025.857-1.263 1.551-.309.9-.114 1.865.008 2.783.129.968.279 1.933.452 2.893.278 1.55.392 3.86 1.82 4.845.753.518 1.655.474 2.493.225 1.013-.3 2.016-.649 3.014-.995.833-.287 1.663-.586 2.49-.893 1.012-.377 2.087-.663 2.528-1.764.291-.725.199-1.49-.014-2.228-.289-1.001-.615-1.994-.921-2.99l-.807-2.617c-.277-.897-.558-1.824-1.404-2.349-.594-.368-1.298-.408-1.983-.377-.11-.45-.207-.903-.308-1.355 9.803.073 19.605.106 29.409.098l-.178.467c-.292-.072-.477-.112-.496-.106-.669-.025-1.33.127-1.917.567-.763.568-1.143 1.477-1.559 2.303a64.482 64.482 0 00-1.256 2.645c-.643 1.436-1.851 3.409-1.225 5.03.329.853 1.099 1.326 1.932 1.594 1.005.325 2.03.602 3.049.882.85.232 1.704.455 2.559.668 1.048.26 2.098.631 3.083-.03.648-.436 1.003-1.118 1.244-1.847.325-.992.615-1.995.923-2.991l.807-2.617c.277-.897.566-1.82.162-2.732-.283-.639-.842-1.07-1.426-1.431.305-.81.645-1.605.945-2.416 5.958-.016 11.919-.048 17.877-.095 1.514-.002 1.518-3.669 0-3.657z" fill="#D9D6D0"/></svg>