<svg width="355" height="238" fill="none" xmlns="http://www.w3.org/2000/svg"><g clip-path="url(#clip0_2_1234)"><path d="M355 0H0v238h355V0z" fill="#CCEFF6"/><path d="M262.075 83.355v4.78h-66.679v-4.78h66.679zm-53.672 2.588a1.128 1.128 0 00-.187-.62 1.097 1.097 0 00-1.701-.169 1.12 1.12 0 00-.24 1.217 1.1 1.1 0 001.808.363 1.127 1.127 0 00.323-.795l-.003.004zm-4.353 0a1.12 1.12 0 00-.683-1.031 1.094 1.094 0 00-1.204.242 1.12 1.12 0 00-.241 1.216c.084.204.225.379.407.502a1.097 1.097 0 001.039.105 1.095 1.095 0 00.602-.607c.056-.137.084-.283.084-.43l-.004.003zm-4.354 0a1.113 1.113 0 00-.683-1.031 1.094 1.094 0 00-1.204.242 1.12 1.12 0 00-.24 1.217 1.1 1.1 0 001.448.607 1.111 1.111 0 00.686-1.039l-.007.004z" fill="#006B99"/><path d="M248.78 183.232h-72.762l-9.151-6.545-27.373-19.58.041-.185c.393.122.802.185 1.213.185h68.672a4.045 4.045 0 002.056-.559l37.304 26.684zm-39.624-10.039h19.571l-5.75-4.112-12.77-9.138h-59.075l5.118 3.663 13.402 9.587h39.504zm-15.964 7.527h28.399l-7.08-5.064h-28.47l7.08 5.064h.071z" fill="#CCEFF6"/><path d="M228.727 173.193h-19.571v-.116l-5.336-3.816h19.033l.124-.179 5.75 4.111z" fill="#CCEFF6"/><path d="M178.011 163.606l-5.118-3.663h37.314l12.77 9.138-.124.179H203.82l5.335 3.817v.116h-39.508l-13.402-9.587h21.766z" fill="#CCEFF6"/><path d="M221.591 180.72H193.12l-7.08-5.064h28.471l7.08 5.064z" fill="#F7CEDC"/><path d="M213.506 128.287v24.696a4.15 4.15 0 01-1.197 2.917 4.058 4.058 0 01-2.889 1.207h-68.672a4.05 4.05 0 01-2.888-1.207 4.124 4.124 0 01-.885-1.339 4.163 4.163 0 01-.31-1.578v-49.389c0-1.095.43-2.144 1.196-2.917a4.063 4.063 0 012.887-1.21h68.672a4.079 4.079 0 012.89 1.209 4.143 4.143 0 011.196 2.919v24.692zm-3.109 22.44v-44.881c0-.86-.338-1.684-.94-2.292a3.19 3.19 0 00-2.268-.949H142.98c-.851 0-1.667.341-2.269.949a3.26 3.26 0 00-.939 2.292v44.881c0 .859.338 1.684.939 2.291a3.192 3.192 0 002.269.949h64.208c.851 0 1.667-.341 2.268-.949.602-.607.94-1.432.94-2.291h.001z" fill="#CCEFF6"/><path d="M210.396 105.846v13.874h-.61v-.233c0-3.96-2.208-5.896-4.906-5.896h-.289a.65.65 0 01-.465-.193.666.666 0 01-.194-.469v-1.046a2.542 2.542 0 001.027-.94c.249-.404.381-.871.381-1.346v-1.421c0-.676-.266-1.325-.739-1.804a2.515 2.515 0 00-1.786-.747c-.67 0-1.312.269-1.786.747a2.569 2.569 0 00-.739 1.804v1.421c0 .475.132.942.381 1.346.249.404.605.729 1.027.94v1.049a.668.668 0 01-.658.667 5.361 5.361 0 00-2.196.39 5.414 5.414 0 00-1.855 1.252 5.48 5.48 0 00-1.53 4.129h-.063v-16.763h11.792c.85 0 1.666.341 2.268.948.601.608.94 1.431.94 2.291z" fill="#F7CEDC"/><path d="M209.713 152.527l.137.01a3.184 3.184 0 01-2.659 1.429h-11.795v-.36h.063a5.52 5.52 0 01.334-2.228 5.466 5.466 0 011.196-1.901 5.36 5.36 0 014.051-1.642.662.662 0 00.66-.663v-1.049a2.538 2.538 0 01-1.028-.94 2.571 2.571 0 01-.381-1.347v-1.419c0-.677.266-1.326.739-1.804a2.51 2.51 0 013.572 0c.473.478.739 1.127.739 1.804v1.419c0 .476-.132.942-.381 1.347a2.538 2.538 0 01-1.028.94v1.051a.66.66 0 00.66.663h.288c2.411-.003 4.428 1.542 4.833 4.69zm.074-16.074v.336h-14.391v-.462h.063a5.504 5.504 0 011.531-4.128 5.36 5.36 0 014.05-1.641.662.662 0 00.66-.664v-1.048a2.533 2.533 0 01-1.028-.941 2.566 2.566 0 01-.381-1.347v-1.419c0-.677.266-1.326.739-1.804a2.515 2.515 0 011.786-.747c.67 0 1.312.269 1.786.747.473.478.739 1.127.739 1.804v1.422c0 .476-.132.943-.381 1.347a2.54 2.54 0 01-1.028.941v1.043a.66.66 0 00.66.663h.288c2.699.003 4.907 1.941 4.907 5.898zm0-16.962v.233h-14.391v-.36h.063a5.512 5.512 0 01.336-2.226 5.47 5.47 0 011.197-1.899 5.375 5.375 0 014.048-1.64.66.66 0 00.66-.662v-1.054a2.53 2.53 0 01-1.028-.94 2.571 2.571 0 01-.381-1.347v-1.42c0-.677.266-1.325.739-1.804a2.515 2.515 0 011.786-.747c.67 0 1.312.269 1.786.747.473.479.739 1.127.739 1.804v1.42c0 .476-.132.942-.381 1.347a2.53 2.53 0 01-1.028.94v1.049a.66.66 0 00.66.663h.288c2.699.004 4.907 1.938 4.907 5.896z" fill="#006B99"/><path d="M202.946 84.824c.219 0 .433.064.615.187a1.123 1.123 0 01.17 1.72 1.103 1.103 0 01-1.206.242 1.116 1.116 0 01-.682-1.034c0-.295.116-.579.323-.788a1.1 1.1 0 01.78-.327z" fill="#FFCEB6"/><path d="M198.593 84.824a1.111 1.111 0 011.024.689 1.122 1.122 0 01-.24 1.218 1.102 1.102 0 01-1.206.242 1.104 1.104 0 01-.496-.412 1.124 1.124 0 01-.185-.622c0-.295.116-.579.323-.788a1.1 1.1 0 01.78-.327z" fill="#CCEFF6"/><path d="M184.342 51.624v4.785H92.78v-4.785h91.562zm-78.548 2.59a1.128 1.128 0 00-.187-.621 1.1 1.1 0 00-1.701-.169 1.12 1.12 0 00.781 1.907 1.099 1.099 0 001.023-.69c.055-.135.084-.281.084-.428zm-4.353 0a1.12 1.12 0 00-.683-1.032 1.093 1.093 0 00-1.205.242 1.129 1.129 0 00.166 1.718 1.1 1.1 0 001.638-.5c.056-.136.084-.282.084-.429zm-4.354 0a1.123 1.123 0 00-.683-1.032 1.098 1.098 0 00-1.204.242 1.12 1.12 0 00-.24 1.217 1.101 1.101 0 002.044 0c.055-.135.084-.281.083-.428z" fill="#006B99"/><path d="M181.186 120.631v2.196l-2.152-1.08c.221-.37.54-.669.92-.866a2.28 2.28 0 011.232-.25z" fill="#FFCEB6"/><path d="M172.894 159.943l5.117 3.663h-21.766l-5.118-3.663h21.767z" fill="#CCEFF6"/><path d="M163.192 75.945a.7.7 0 01.102 1.04l-1.96 2.091-2.027 2.16-3.811 4.071-.225.032a1.647 1.647 0 00-1.11-.506v-.006l5.179-5.603 2.94-3.189a.701.701 0 01.507-.223.69.69 0 01.405.133z" fill="#006B99"/><path d="M158.782 111.55l2.34 1.178c-.457 1.436-2.341.964-2.341.964l.001-2.142zm-1.035-43.174v2.197l-2.149-1.08a2.288 2.288 0 012.149-1.116zm-1.505 20.246c.336.94-.7 1.89-.7 1.89-.792-.55-2.425.2-2.894 1.1-1.426-.195-1.39-.946-.891-1.653a4.46 4.46 0 011.252-1.146c1.116-.678 2.897-1.13 3.233-.191z" fill="#FFCEB6"/><path d="M155.122 86.941c1.27.727 1.12 1.68 1.12 1.68-.336-.938-2.117-.486-3.234.19a4.46 4.46 0 00-1.253 1.147l-.162-.111a2.01 2.01 0 01-.386-.06c-1.05-.263-.426-1.225-.382-1.294.56-.215 1.089-.5 1.576-.852.141-.109.26-.244.351-.398l.103.015s1.418-.803 2.267-.317z" fill="#FFCEB6"/><path d="M152.647 91.61c.47-.901 2.102-1.65 2.895-1.1.793.55.345 2.048-1.532 4.197a5 5 0 01-1.689 1.427 4.936 4.936 0 01-2.133.553l-1.336 2.742v.038h-6.879v-.036l2.87-6.141 2.664-5.131c.172-.282.419-.51.713-.656a11.863 11.863 0 013.759-1.288c.143-.01.286.005.423.044a.646.646 0 01.418.401.653.653 0 01-.067.58c-.091.153-.21.288-.351.398a6.98 6.98 0 01-1.576.851c-.171.07-.332.135-.476.19l.025.068-4.44 4.743a.699.699 0 00.51 1.169.688.688 0 00.507-.224l4.145-4.428.111-.223c.127.032.256.052.386.059l.162.11c-.499.711-.533 1.462.891 1.656z" fill="#FFCEB6"/><path d="M155.272 85.342c.582.679-.149 1.6-.149 1.6-.849-.488-2.264.313-2.264.313l-.102-.015a.657.657 0 00-.352-.98 1.258 1.258 0 00-.423-.044 2.7 2.7 0 01.917-.97c.38-.24.815-.38 1.263-.407a1.649 1.649 0 011.11.503z" fill="#FFCEB6"/><path d="M154.974 153.604v.361H142.98a3.172 3.172 0 01-2.643-1.407l.046-.032c.405-3.15 2.423-4.693 4.83-4.693h.292a.656.656 0 00.656-.662v-1.05a2.526 2.526 0 01-1.026-.94 2.557 2.557 0 01-.379-1.346v-1.42a2.562 2.562 0 01.722-1.835 2.513 2.513 0 013.605 0c.234.243.42.529.544.844a2.6 2.6 0 01.178.991v1.42c0 .476-.132.942-.381 1.346-.249.404-.604.73-1.027.94v1.053c0 .176.07.344.192.468.123.124.29.194.464.194a5.382 5.382 0 014.053 1.641 5.482 5.482 0 011.532 4.13l.336-.003z" fill="#006B99"/><path d="M154.974 136.789v16.816h-.335a5.486 5.486 0 00-1.532-4.131 5.415 5.415 0 00-1.856-1.251 5.349 5.349 0 00-2.197-.389.654.654 0 01-.464-.194.666.666 0 01-.192-.468v-1.05c.422-.21.778-.536 1.027-.94.249-.404.381-.87.381-1.346v-1.42a2.567 2.567 0 00-.756-1.773 2.512 2.512 0 00-3.538 0 2.567 2.567 0 00-.756 1.773v1.42c0 .475.131.942.379 1.346.249.404.604.73 1.027.94v1.052c0 .176-.07.345-.193.469a.65.65 0 01-.463.194h-.292c-2.406 0-4.425 1.545-4.83 4.693l-.046.031a3.227 3.227 0 01-.563-1.831v-13.941h15.199z" fill="#F7CEDC"/><path d="M154.974 136.328v.461h-14.665v-.336c0-3.96 2.208-5.895 4.901-5.895h.292a.655.655 0 00.464-.195.666.666 0 00.192-.469v-1.048a2.541 2.541 0 01-1.026-.941 2.566 2.566 0 01-.379-1.346v-1.42a2.558 2.558 0 011.547-2.4 2.511 2.511 0 013.324 1.409c.124.315.185.652.179.991v1.422a2.578 2.578 0 01-.381 1.347c-.249.404-.605.73-1.027.941v1.043a.659.659 0 00.655.663 5.397 5.397 0 014.053 1.64 5.482 5.482 0 011.532 4.13l.339.003zm0-16.962v.36h-14.665v-.234c0-3.96 2.208-5.896 4.901-5.896h.292c.174 0 .341-.07.464-.194a.664.664 0 00.192-.468v-1.051a2.532 2.532 0 01-1.025-.941 2.564 2.564 0 01-.38-1.346v-1.42a2.558 2.558 0 011.547-2.4 2.511 2.511 0 013.324 1.409c.124.315.185.652.179.991v1.42a2.58 2.58 0 01-.381 1.347 2.542 2.542 0 01-1.027.94v1.049a.664.664 0 00.655.663 5.388 5.388 0 014.053 1.64 5.509 5.509 0 011.532 4.131h.339zm-3.766-29.579l-.112.223-4.141 4.429a.695.695 0 01-.914.092.702.702 0 01-.25-.786.7.7 0 01.147-.251l4.44-4.744-.025-.068c.144-.054.305-.12.476-.19-.043.07-.672 1.031.379 1.295z" fill="#006B99"/><path d="M135.344 59.296l2.344 1.178c-.454 1.434-2.341.964-2.341.964l-.003-2.142zm1.321 46.04v10.072h-4.21v-.105l-2.87-3.42c.572-1.345.878-2.79.898-4.253 0-1.7-1.107-3.821-2.062-5.337l4.034-2.826 4.21 5.869z" fill="#FFCEB6"/><path d="M127.582 56.409v35.345l-.044.09a7.874 7.874 0 00-1.85-.58l.028-.141V56.409h1.866z" fill="#CCEFF6"/><path d="M121.08 83.445c.507 1.02-.056 2.505-1.126 2.64a1.9 1.9 0 01-1.11-.18 7.7 7.7 0 00.998-2.15c.131-.317.345-.663.554-1.102.296.195.533.47.684.792z" fill="#006B99"/><path d="M117.525 90.032l3.436 1.094s-1.89 2.11-6.986 2.387a16.455 16.455 0 01-9.096-2.387l4.329-1.807-2.808-2.94c.019 0-.37-3.132-.351-3.135.535-.069 4.3 3.308 4.607 2.862l.835.194a10.231 10.231 0 002.655 1.32l.031.01c.274.104 2.332.867 3.267 1.156h.017l.009.172.055 1.074z" fill="#FFCEB6"/><path d="M118.763 83.046a2 2 0 01-.314.186s-1.069-.236-1.462-.27c-.313-.028-2.092.06-2.776.1-.168.007-.267.013-.267.013.444.385.914.74 1.405 1.062a2.108 2.108 0 001.853.327 7.399 7.399 0 001.561-1.418zm-13.488-4.428c.487-.54 1.165-.243 1.604.06.45.328.996.496 1.552.476 2.928-.194 3.547-4.614 3.73-6.185 0 0 4.015.44 5.312 1.087a5.867 5.867 0 013.001 3.603l-.031.09a4.58 4.58 0 01-.153.392c.383.83.525 1.753.41 2.661a7.485 7.485 0 01-.618 1.938c-.277.595-.569 1.059-.743 1.486a10.46 10.46 0 01-1.344 2.89c-.174.21-.383.386-.618.522a2.028 2.028 0 01-.722.247 5.588 5.588 0 01-2.081-.147 5.924 5.924 0 01-.394-.106l-.032-.01a10.287 10.287 0 01-2.655-1.32l-1.455-.195a2.25 2.25 0 00.209-2.52c-.535-.847-.921-1.187-2.277-.58a1.881 1.881 0 00-.777.763l-.094.427c-.91-.53-2.94-3.301-2.07-5.186.06-.144.143-.277.246-.393z" fill="#FFCEB6"/><path d="M112.155 72.953a.022.022 0 010 .016c-.192 1.687-.895 6.65-4.406 6.157a1.384 1.384 0 01-.674-.299c-.405-.326-1.232-.847-1.804-.21-.103.118-.187.25-.249.393-.871 1.885.765 3.43 1.676 3.96l.734.51a1.943 1.943 0 00-.05 1.854c.382 1.09 1.259.966 1.928.983l-.106 3.002-4.329 1.807c-1.89.32-3.725.917-5.446 1.77-1.614-4.529 3.697-12.008 5.174-16.409.155-.459-.035-3.82 2.4-6.593a10.335 10.335 0 014.226-2.064c.178-.047.349-.089.513-.125a7.641 7.641 0 014.771.638 7.743 7.743 0 013.466 3.373c2.084 4.288.491 5.94.491 5.94a5.862 5.862 0 00-2.63-3.401 8.94 8.94 0 00-3.813-1.87c-1.912-.311-1.884.459-1.872.568z" fill="#006B99"/><path d="M117.84 74.257a7.95 7.95 0 00-.37-.201c-1.297-.647-5.311-1.087-5.311-1.087a.022.022 0 000-.016c-.012-.11-.04-.88 1.871-.565 1.4.308 2.706.949 3.81 1.87zm-.438 13.429l.059 1.1h-.017c-.935-.29-2.993-1.053-3.267-1.156.13.04.267.075.395.106a5.58 5.58 0 002.08.148c.254-.036.498-.12.721-.248l.029.05z" fill="#006B99"/><path d="M109.146 86.162a1.71 1.71 0 01-1.155-.276 1.741 1.741 0 01-.705-.965 1.687 1.687 0 01.15-1.44c.125-.211.312-.377.535-.474a1.566 1.566 0 011.862.191c.166.151.298.336.388.543a1.909 1.909 0 01-.155 1.85 1.257 1.257 0 01-.876.569c-.015-.001-.028.002-.044.002z" fill="#CCEFF6"/><path d="M104.879 106.476l-.273 8.932h-9.03v-9.305l9.303.373zm-4.546-53.378c.219 0 .433.065.615.188a1.116 1.116 0 01.471 1.147 1.113 1.113 0 01-.869.878 1.104 1.104 0 01-1.135-.476 1.124 1.124 0 01.138-1.41 1.1 1.1 0 01.78-.327z" fill="#FFCEB6"/><path d="M95.98 53.098a1.111 1.111 0 011.023.689 1.129 1.129 0 01-.239 1.218 1.101 1.101 0 01-1.702-.17 1.124 1.124 0 01.138-1.41c.207-.209.488-.326.78-.327z" fill="#CCEFF6"/><path d="M211.476 156.548a4.045 4.045 0 01-2.056.559h-68.672a4.05 4.05 0 01-2.888-1.207 4.124 4.124 0 01-.885-1.339 4.163 4.163 0 01-.31-1.578v-49.389c0-1.095.43-2.144 1.196-2.917a4.063 4.063 0 012.887-1.21h68.672a4.079 4.079 0 012.89 1.209 4.143 4.143 0 011.196 2.919v49.39c0 .721-.188 1.43-.544 2.055a4.102 4.102 0 01-1.486 1.508z" stroke="#006B99" stroke-width="3.234" stroke-linecap="round" stroke-linejoin="round"/><path d="M154.974 153.966H142.98a3.19 3.19 0 01-2.268-.95 3.255 3.255 0 01-.94-2.291v-44.88c0-.859.338-1.683.94-2.291a3.188 3.188 0 012.268-.949h64.208c.851 0 1.667.341 2.268.949.602.608.94 1.432.94 2.291v44.882c0 .859-.338 1.683-.94 2.291a3.188 3.188 0 01-2.268.949h-52.214v-.001zm16.088-52.666h5.295m-21.384 1.307v51.358m40.423-51.358v51.358m-55.622-34.241h15.199m-15.199 17.065h15.199" stroke="#006B99" stroke-width="3.234" stroke-linecap="round" stroke-linejoin="round"/><path d="M154.638 119.366a5.5 5.5 0 00-1.534-4.128 5.405 5.405 0 00-1.854-1.25 5.352 5.352 0 00-2.197-.389.665.665 0 01-.656-.662v-1.054a2.563 2.563 0 001.408-2.287v-1.42a2.563 2.563 0 00-.756-1.773 2.511 2.511 0 00-3.537 0 2.563 2.563 0 00-.756 1.773v1.42c-.001.476.131.942.379 1.346.249.404.604.73 1.026.941v1.049a.656.656 0 01-.656.663h-.292c-2.696 0-4.901 1.938-4.901 5.896m14.326 16.837a5.507 5.507 0 00-1.533-4.13 5.364 5.364 0 00-4.052-1.64.665.665 0 01-.656-.664v-1.049c.422-.21.778-.535 1.027-.939a2.57 2.57 0 00.382-1.345v-1.422a2.567 2.567 0 00-.756-1.773 2.512 2.512 0 00-3.538 0 2.567 2.567 0 00-.756 1.773v1.422c0 .476.131.942.379 1.347.249.404.604.73 1.027.94v1.044a.667.667 0 01-.656.663h-.293c-2.696 0-4.9 1.938-4.9 5.896m14.325 17.154a5.521 5.521 0 00-.335-2.228 5.477 5.477 0 00-1.197-1.903 5.364 5.364 0 00-4.053-1.64.654.654 0 01-.464-.194.67.67 0 01-.192-.469v-1.049a2.542 2.542 0 001.027-.94c.249-.404.381-.871.381-1.347v-1.419a2.567 2.567 0 00-.756-1.773 2.513 2.513 0 00-1.769-.73c-.661 0-1.297.262-1.769.73a2.567 2.567 0 00-.756 1.773v1.419c0 .476.131.942.379 1.346.249.405.604.73 1.027.941v1.052c0 .176-.07.344-.193.469a.652.652 0 01-.463.194h-.293c-2.405 0-4.425 1.545-4.829 4.693m70.014-32.806h-14.963m14.963 17.065h-14.963m.025-17.423a5.47 5.47 0 011.532-4.126 5.377 5.377 0 014.049-1.641.663.663 0 00.659-.662v-1.054a2.535 2.535 0 01-1.027-.94 2.571 2.571 0 01-.381-1.347v-1.42c0-.677.266-1.325.739-1.804a2.515 2.515 0 011.786-.747c.669 0 1.312.269 1.785.747.474.479.74 1.127.74 1.804v1.42c0 .476-.132.942-.381 1.347-.25.404-.605.73-1.028.94v1.049a.659.659 0 00.66.663h.288c2.699 0 4.907 1.938 4.907 5.896m-14.328 16.836a5.504 5.504 0 011.531-4.128 5.36 5.36 0 014.05-1.641.659.659 0 00.467-.196.669.669 0 00.193-.468v-1.048a2.533 2.533 0 01-1.028-.941 2.566 2.566 0 01-.381-1.347v-1.419c0-.677.266-1.326.739-1.804a2.511 2.511 0 013.571 0c.474.478.74 1.127.74 1.804v1.422c0 .476-.132.943-.381 1.347a2.53 2.53 0 01-1.028.94v1.044a.659.659 0 00.66.663h.289c2.698 0 4.906 1.938 4.906 5.896m-14.328 17.153a5.489 5.489 0 011.53-4.129 5.397 5.397 0 014.051-1.641.662.662 0 00.609-.409.685.685 0 00.051-.254v-1.049a2.538 2.538 0 01-1.028-.94 2.569 2.569 0 01-.381-1.347v-1.419c0-.677.266-1.325.739-1.804a2.515 2.515 0 011.786-.747c.67 0 1.312.269 1.786.747.473.479.739 1.127.739 1.804v1.419c0 .476-.132.943-.381 1.347a2.538 2.538 0 01-1.028.94v1.052a.66.66 0 00.66.663h.288c2.406 0 4.428 1.545 4.833 4.693" stroke="#006B99" stroke-width="3.234" stroke-linecap="round" stroke-linejoin="round"/><path d="M195.396 99.465V83.351h66.683v44.935h-48.572m-18.111-40.151h66.683" stroke="#006B99" stroke-width="3.234" stroke-linecap="round" stroke-linejoin="round"/><path d="M199.703 85.94a1.121 1.121 0 01-.681 1.033 1.094 1.094 0 01-1.205-.241 1.123 1.123 0 01.166-1.719 1.095 1.095 0 011.396.137 1.117 1.117 0 01.324.79zm4.351 0c0 .22-.065.436-.186.62a1.102 1.102 0 01-2.004-.4 1.118 1.118 0 01.468-1.147 1.097 1.097 0 011.397.137 1.115 1.115 0 01.325.79zm4.352 0a1.121 1.121 0 01-.681 1.033 1.097 1.097 0 01-1.205-.24 1.122 1.122 0 01.165-1.72 1.1 1.1 0 011.637.499c.056.135.084.28.084.427zm-71.741 29.468H92.783V51.624h91.559v47.842M92.783 56.409h91.559" stroke="#006B99" stroke-width="3.234" stroke-linecap="round" stroke-linejoin="round"/><path d="M97.087 54.214a1.11 1.11 0 01-.681 1.033 1.096 1.096 0 01-1.205-.24 1.12 1.12 0 01-.241-1.218 1.1 1.1 0 011.803-.364c.207.209.324.492.324.789zm4.354 0a1.121 1.121 0 01-.681 1.032 1.096 1.096 0 01-1.206-.24 1.123 1.123 0 01.165-1.718 1.097 1.097 0 011.396.136 1.11 1.11 0 01.326.79zm4.352 0a1.121 1.121 0 01-.681 1.033 1.094 1.094 0 01-1.205-.24 1.121 1.121 0 01.166-1.72 1.095 1.095 0 011.396.137c.207.21.324.493.324.79zm61.074 122.473l-27.373-19.58v1.08c0 .735.174 1.459.509 2.112a4.57 4.57 0 001.413 1.639l32.523 23.264a7.982 7.982 0 004.633 1.488H245.5a3.287 3.287 0 003.034-2.047c.165-.402.25-.834.25-1.269v-.139" stroke="#006B99" stroke-width="3.234" stroke-linecap="round" stroke-linejoin="round"/><path d="M211.476 156.548l37.304 26.684h-72.762m29.879-86.955h45.679m-37.594 10.366h37.593m-37.593 10.366h37.593m-132.19 26.921h15.124m81.27 0h21.343" stroke="#006B99" stroke-width="3.234" stroke-linecap="round" stroke-linejoin="round"/><path d="M166.868 176.687l9.151 6.545v2.956" stroke="#006B99" stroke-width="3.234" stroke-linecap="round" stroke-linejoin="round"/><path d="M193.12 180.72l-7.08-5.064h28.399" stroke="#F7CEDC" stroke-width="3.234" stroke-linecap="round" stroke-linejoin="round"/><path d="M214.511 175.656l7.08 5.064h-28.399m35.535-7.527h-59.08l-13.402-9.587-5.118-3.663h59.08l12.77 9.138 5.75 4.112zm-72.482-9.587h51.061m-35.513 5.655h51.06" stroke="#006B99" stroke-width="3.234" stroke-linecap="round" stroke-linejoin="round"/><path d="M172.894 159.943l5.118 3.663 5.335 3.817m15.355-1.825l5.118 3.662 5.336 3.817m-26.676-40.215c.849 0 1.689.169 2.473.497a6.48 6.48 0 013.497 3.535 6.561 6.561 0 01.491 2.561c0 1.731-.68 3.391-1.891 4.615a6.428 6.428 0 01-4.569 1.911 6.424 6.424 0 01-4.567-1.911 6.559 6.559 0 01-1.892-4.678 6.56 6.56 0 011.89-4.616 6.431 6.431 0 014.568-1.914zm0-4.138v20.838m10.314-10.105h-20.629m-13.208-60.353a6.553 6.553 0 011.945-4.516 6.427 6.427 0 014.515-1.858 6.43 6.43 0 014.515 1.858 6.562 6.562 0 011.945 4.583 6.565 6.565 0 01-1.561 4.187 6.444 6.444 0 01-3.862 2.19 6.407 6.407 0 01-4.35-.837 6.511 6.511 0 01-2.796-3.47m6.111-12.805v20.839m-6.142-10.105h-4.173m20.628 0h-14.298m-2.652 34.522v4.219l10.227-1.213 12.177-1.444v7.573l-2.152-1.084-10.025-5.045-7.886-3.97-2.341-1.178v2.142zm0-.002s1.884.471 2.341-.965m17.909 9.018a2.304 2.304 0 012.151-1.112m-45.839-59.193v4.221l10.23-1.215L157.747 63v7.574l-2.152-1.084-10.021-5.045-7.889-3.97-2.341-1.178v2.142zm0 0s1.887.47 2.341-.965" stroke="#006B99" stroke-width="3.234" stroke-linecap="round" stroke-linejoin="round"/><path d="M155.598 69.493a2.31 2.31 0 01.92-.864c.38-.196.806-.282 1.232-.247m14.402 67.999h-7.58v-7.658h7.58v7.658z" stroke="#006B99" stroke-width="3.234" stroke-linecap="round" stroke-linejoin="round"/><path d="M169.044 133.24h-7.581v-7.658h7.581v7.658zm-7.581-7.658l3.109 3.141m4.472-3.141l3.109 3.141m-3.109 4.517l3.109 3.141m-10.69-3.141l3.109 3.141m-20.398-49.38h-7.581v-7.658h7.581v7.658z" stroke="#006B99" stroke-width="3.234" stroke-linecap="round" stroke-linejoin="round"/><path d="M141.065 83.86h-7.581V76.2h7.581v7.66zm-7.581-7.659l3.109 3.142m4.472-3.142l3.109 3.142m-3.109 4.517l3.109 3.14m-10.69-3.14l3.109 3.14m24.559 59.179s-1.272.522-1.336 1.433c-.065.91 1.097.913 1.613.392a6.92 6.92 0 00-.192-1.847 2.79 2.79 0 00-.228-.6c-.481-.911-1.29-.782-1.579-.163m26.324-36.925s-1.272.521-1.336 1.435c-.064.915 1.098.915 1.614.393a6.938 6.938 0 00-.193-1.85 2.73 2.73 0 00-.227-.597c-.482-.914-1.29-.782-1.58-.163m-21.015 38.234h1.555m-1.555 1.257h1.555m1.451-1.65c.077-.99 2.416-1.008 1.966.707-.309 1.166-1.92 2.121-1.92 2.121h2.638m8.07-40.589c.08-.985 2.419-1.008 1.96.704-.307 1.17-1.915 2.124-1.915 2.124h2.634m-8.068-4.096c.053-.663 1.624-.676 1.319.475-.206.778-1.285 1.422-1.285 1.422h1.766m-2.764 39.385c1.07 1.25 2.703.462 2.149-.81-.554-1.272-2.049-.362-2.149.81zm.983-3.452c-.641.688-2.049 2.199-.98 3.452m11.123-40.271v2.004m-1.107-1.002h2.133m-6.676-2.497c-.917.282-1.679 2.045-1.393 3.285a3.101 3.101 0 001.851 2.409m10.363-5.694c.918.282 1.679 2.045 1.393 3.285a3.119 3.119 0 01-.612 1.449c-.323.422-.75.752-1.238.958m-60.548-55.298v34.717m1.866-34.717v35.345m-22.703 13.133v1.589l-9.303-.373-1.023-.04s.069-7.327 1.984-10.64a7.087 7.087 0 012.892-2.527 19.663 19.663 0 015.45-1.774 16.457 16.457 0 009.096 2.388c5.097-.277 6.986-2.388 6.986-2.388a16.633 16.633 0 014.728.141 7.9 7.9 0 011.849.581c.451.204.866.48 1.229.817a33.58 33.58 0 014.633 6.135l-.948.666-4.031 2.831m-32.845 3.81v9.305m9.304-8.931l-.274 8.931" stroke="#006B99" stroke-width="3.234" stroke-linecap="round" stroke-linejoin="round"/><path d="M127.05 100.333s.641.804 1.371 1.96c.955 1.516 2.059 3.637 2.062 5.337a11.283 11.283 0 01-.898 4.253 14.102 14.102 0 01-2.003 3.42m-7.593-9.2s.236 4.454-1.409 6.455m.815-33.651a2.807 2.807 0 00-.891-.227 1.624 1.624 0 00-.868.054m-4.78-.15c.347-.087.7-.15 1.056-.189.29-.057.59-.034.868.067m2.451-.756a1.876 1.876 0 00.015 1.63c.184.623.772 1.285.668 1.873-.103.588-1.175.822-1.803.65m-1.965 5.761a10.263 10.263 0 01-2.655-1.32m8.588-3.562c-.276.594-.569 1.059-.744 1.486a10.454 10.454 0 01-1.342 2.89c-.176.21-.387.386-.624.522a2.023 2.023 0 01-.721.247 5.565 5.565 0 01-2.08-.147 5.79 5.79 0 01-.395-.107m6.266-9.882c-.081.236-.152.393-.152.393.383.83.525 1.752.411 2.66a7.577 7.577 0 01-.624 1.938m-8.002-5.28a4.263 4.263 0 012.625-.644c1.007.173 1.063.525 1.069.54m4.344-.439a2.827 2.827 0 00-.883.052 8.24 8.24 0 00-1.272.353m.812 5.724a2 2 0 01-.314.185c-.43.182-.891.28-1.358.287a13.076 13.076 0 01-2.88-.45c-.203-.051-.342-.09-.389-.101" stroke="#006B99" stroke-width="3.234" stroke-linecap="round" stroke-linejoin="round"/><path d="M113.808 82.961s.053.044.137.12c.445.384.915.739 1.406 1.061a2.105 2.105 0 001.853.327 7.422 7.422 0 001.564-1.423m-1.366 4.64l.059 1.1.009.173.057 1.073m3.434 1.094l-3.435-1.094m-8.212-3.716l-.106 3.003-4.329 1.807m2.438-12.085s-1.259-1.294-2.042-.424c-.103.117-.187.25-.25.393-.87 1.885.989 3.954 2.406 4.47m-2.156-4.863v.007m4.791 6.966a1.881 1.881 0 00.155-1.85 1.593 1.593 0 00-.962-.876 1.577 1.577 0 00-1.288.142 1.2 1.2 0 00-.535.474 1.687 1.687 0 00-.15 1.44c.116.395.366.736.707.963.339.227.748.326 1.153.279h.037a1.273 1.273 0 00.883-.571zm8.775.315c.344.172.731.235 1.11.18 1.069-.135 1.632-1.62 1.127-2.639a1.902 1.902 0 00-.689-.791" stroke="#006B99" stroke-width="3.234" stroke-linecap="round" stroke-linejoin="round"/><path d="M113.941 83.078s.103-.006.268-.013c.684-.04 2.462-.129 2.776-.1.389.03 1.462.27 1.462.27m-4.301 4.385l.031.01c.274.103 2.332.867 3.268 1.155m-5.29-15.832c-.012-.11-.04-.88 1.871-.565a8.948 8.948 0 013.813 1.87l.009.008" stroke="#006B99" stroke-width="3.234" stroke-linecap="round" stroke-linejoin="round"/><path d="M108.397 70.233s3.32-.192 3.759 2.72a.045.045 0 010 .016" stroke="#006B99" stroke-width="3.234" stroke-linecap="round" stroke-linejoin="round"/><path d="M107.393 79.023c4.098 1.56 4.561-4.301 4.763-6.054 0 0 4.01.44 5.311 1.087a5.863 5.863 0 013.001 3.603s1.592-1.652-.491-5.941a7.75 7.75 0 00-3.467-3.373 7.64 7.64 0 00-4.771-.638c-.165.037-.336.078-.513.125a10.33 10.33 0 00-4.225 2.064c-2.435 2.774-2.246 6.135-2.401 6.593-1.477 4.401-6.787 11.882-5.174 16.41m51.403-4.409a6.976 6.976 0 001.576-.852c.141-.109.26-.244.351-.398a.647.647 0 00.067-.579.657.657 0 00-.418-.401 1.264 1.264 0 00-.423-.044 11.86 11.86 0 00-3.759 1.287 1.744 1.744 0 00-.713.657l-2.666 5.13-2.871 6.141" stroke="#006B99" stroke-width="3.234" stroke-linecap="round" stroke-linejoin="round"/><path d="M149.756 88.899s.245-.082.593-.217c.144-.054.305-.12.476-.19m-18.37 10.974l4.21 5.87m-7.08 6.547l2.87 3.42m16.396-15.872l1.337-2.742a4.949 4.949 0 002.133-.553 4.988 4.988 0 001.688-1.427c1.877-2.15 2.322-3.648 1.533-4.197-.79-.549-2.426.2-2.895 1.1-.47.897-.109 2.123 2.17.401" stroke="#006B99" stroke-width="3.234" stroke-linecap="round" stroke-linejoin="round"/><path d="M155.543 90.51s1.035-.949.699-1.89c-.336-.942-2.117-.487-3.234.19a4.478 4.478 0 00-1.253 1.146c-.498.706-.534 1.457.892 1.651" stroke="#006B99" stroke-width="3.234" stroke-linecap="round" stroke-linejoin="round"/><path d="M156.241 88.621s.15-.953-1.119-1.68c-.849-.487-2.264.314-2.264.314m-2.029 1.235c-.044.07-.668 1.031.382 1.294.127.033.256.053.386.06m3.899-4.533l3.812-4.071 2.027-2.16 1.96-2.093a.706.706 0 00-.036-.988.69.69 0 00-.979.036l-2.94 3.189-5.175 5.606" stroke="#006B99" stroke-width="3.234" stroke-linecap="round" stroke-linejoin="round"/><path d="M150.375 88.75l-4.44 4.744a.702.702 0 00.102 1.037.694.694 0 00.915-.092l4.145-4.429m4.026-3.069s.731-.92.149-1.598a1.352 1.352 0 00-.299-.25 1.648 1.648 0 00-.811-.256 2.662 2.662 0 00-1.263.407c-.381.24-.696.574-.917.969" stroke="#006B99" stroke-width="3.234" stroke-linecap="round" stroke-linejoin="round"/></g><defs><clipPath id="clip0_2_1234"><path fill="#fff" d="M0 0h355v238H0z"/></clipPath></defs></svg>