<svg width="355" height="238" fill="none" xmlns="http://www.w3.org/2000/svg"><g clip-path="url(#clip0_2_1396)"><path d="M355 0H0v238h355V0z" fill="#FAE173"/><path d="M165.137 139.959a3.263 3.263 0 01.01-1.468c.892-3.961.757-9.806 1.649-14.557.892-4.752 3.831-4.218 7.081-5.356 2.074-.73 4.016-1.851 6.225-2.881a28.626 28.626 0 014.076-1.58c4.137-1.221 14.523 3.169 19.553 3.976 1.189.189 2.36.475 3.503.854l.023-.069s22.94-15.763 28.937-20.08c5.998-4.317 18.31-13.083 18.31-13.083l14.022 32.377s-27.531 18.243-31.606 21.84c-4.074 3.596-13.035 8.168-13.035 8.168l-.072-.018c-.547 2.512-2.367 5.377-7.384 8.217l-.302.106a26.854 26.854 0 00-3.129-5.398c-5.003-9.227-25.409-22.9-27.173-22.606-1.764.294-6.637.937-6.637.937-.358 1.079-1.856 1.683-1.856 1.683h-.128a13.971 13.971 0 01-3.16 8.957c-3.265 4.129-8.235 2.957-8.907-.019z" fill="#FFCEB6"/><path d="M221.895 58.74a17.02 17.02 0 01.369 4.485 1.879 1.879 0 01-2.183 1.742l-6.817-1.128a1.86 1.86 0 01-1.564-1.728 5.004 5.004 0 00-1.149-3.073 6.311 6.311 0 00-.981-.92l-1.962 11.916 2.802 1.7c3.854 2.277 6.33 4.919 7.429 7.926a18.286 18.286 0 01.845 9.398 16.839 16.839 0 01-2.311 6.257 17.352 17.352 0 01-4.28 4.705 15.759 15.759 0 01-5.789 2.721c-1.36.335-2.758.489-4.158.459l-.939 5.707a2.438 2.438 0 01-1.849 1.978 2.421 2.421 0 01-1.837-.305 2.45 2.45 0 01-1.116-2.469l.928-5.636a15.707 15.707 0 01-8.42-5.624 14.985 14.985 0 01-2.383-4.33 16.57 16.57 0 01-.451-1.44 16.317 16.317 0 01-.547-3.956 2.965 2.965 0 011.013-2.299 2.949 2.949 0 012.411-.688l2.88.48 2.044.338a2.95 2.95 0 012.42 2.429c.143.84.386 1.66.724 2.441a4.047 4.047 0 002.05 2.077l2.213-13.443-2.445-1.392a18.343 18.343 0 01-7.222-7.164 15.103 15.103 0 01-1.432-9.89 16.237 16.237 0 012.363-6.246 15.943 15.943 0 014.425-4.568 14.809 14.809 0 015.638-2.471 16.755 16.755 0 013.951-.347l.826-5.019a2.44 2.44 0 011.849-1.978 2.428 2.428 0 012.531.955 2.45 2.45 0 01.423 1.819l-.823 5.006a15.6 15.6 0 013.746 1.69 14.427 14.427 0 014.375 4.184 16.29 16.29 0 012.403 5.701zm-13.651 28.813a6.527 6.527 0 00-.55-4.105 7.026 7.026 0 00-1.932-2.231l-1.836 11.147a7.198 7.198 0 001.698-.726 5.462 5.462 0 002.62-4.085zm-5.119-20.279l1.695-10.293a4.494 4.494 0 00-2.169 1.027 5.894 5.894 0 00-2.044 3.624 6.497 6.497 0 00.266 3.111 5.564 5.564 0 002.252 2.531z" fill="#CCEFF6"/><path d="M165.137 139.958c.671 2.977 5.642 4.145 8.902.021a13.977 13.977 0 003.16-8.957h.129s1.497-.604 1.856-1.683c0 0 4.868-.643 6.636-.937 1.768-.294 22.17 13.379 27.174 22.606a26.897 26.897 0 013.128 5.398c.543 1.406.75 2.746.096 3.522-2.256 2.688-5.014 1.897-6.95-.337a11.544 11.544 0 01-.287-.343c-1.946-2.492-6.941-8.574-6.941-8.574l-4.167-2.593a31.239 31.239 0 012.733 2.914c1.116 1.525 5.504 6.016 7.475 9.096.507.666.84 1.448.969 2.276a3.821 3.821 0 01-3.5 3.547 3.81 3.81 0 01-1.768-.282 1.106 1.106 0 01-.198-.106c-1.669-1.036-9.882-8.421-11.156-9.625a3.876 3.876 0 00-1.03-1.222 6.016 6.016 0 00-.817-.554l-.013-.01c-2.159-1.231-4.523-.768-6.564.831-2.252 1.773-1.264.726-2.238 1.743a3.706 3.706 0 00-.972-2.138c-2.017-2.271-4.753-2.383-7.327-.994a57.6 57.6 0 00-5.741 3.782l-7.493.719-.065-.012a5.787 5.787 0 00-.817-3.841c-1.628-2.462-4.071-2.208-5.358-2.131a2.81 2.81 0 00-.623.112l-.016-.112a26.91 26.91 0 01-2.894-1.658c-1.218-.762-2.54-1.64-3.598-2.352a199.866 199.866 0 01-2.001-1.366 221.95 221.95 0 012.07-28.461l1.69.657c2.738 1.066 7.913 3.073 8.574 3.307a2.207 2.207 0 002.055 0c.937-.356 11.965-6.177 14.194-6.708 2.228-.532 6.652.2 6.652.2-2.212 1.033-4.154 2.155-6.225 2.881-3.246 1.139-6.192.6-7.081 5.355-.889 4.756-.756 10.597-1.649 14.557a3.266 3.266 0 00-.004 1.472z" fill="#FFCEB6"/><path d="M208.991 159.247c.096.118.192.234.288.342 0 0-1.159.538-1.182.503-1.971-3.079-6.36-7.571-7.475-9.096a31.239 31.239 0 00-2.733-2.914l4.167 2.592s4.989 6.081 6.935 8.573zm-5.396 6.279l-.227.333a2.933 2.933 0 01-1.593 2.087 4.948 4.948 0 01-3.944.586 14.085 14.085 0 01-1.714-.986l-.876-.096c.442-.41.834-.872 1.165-1.376 1.245-2.105 1.202-3.409-.171-4.505a4.055 4.055 0 00-3.937-.946l-.145-.09c.074-.123.138-.251.192-.384a4.976 4.976 0 00.095-4.243c1.274 1.198 9.483 8.584 11.155 9.62z" fill="#FFCEB6"/><path d="M197.831 168.533a8.77 8.77 0 01-4.552 2.971 2.77 2.77 0 01-2.314-.205l-.448-.007a47.262 47.262 0 004.723-3.84l.877.096c.548.367 1.121.697 1.714.985z" fill="#FFCEB6"/><path d="M196.235 161.561c1.373 1.096 1.412 2.401.171 4.505a7.483 7.483 0 01-1.165 1.377 47.388 47.388 0 01-4.724 3.84c-.55.4-.901.643-.901.643-5.42 3.192-7.822 3.901-9.761 2.986a4.29 4.29 0 01-2.518-2.765l-.096-.218a52.025 52.025 0 006.308-3.302s7.087-5.528 8.601-8.105l.145.089a4.054 4.054 0 013.94.95z" fill="#FFCEB6"/><path d="M192.441 155.897a4.966 4.966 0 01-.096 4.244 2.64 2.64 0 01-.191.384c-1.515 2.577-8.601 8.104-8.601 8.104a51.965 51.965 0 01-6.308 3.303c-4.501 1.878-5.549.769-7.166.007a6.625 6.625 0 01-3.219-3.874v-.046c1.339-.1 2.645-.459 3.848-1.056 0 0 8.783-4.705 10.103-6.874a5.548 5.548 0 00.971-3.406c.974-1.017-.013.03 2.238-1.742 2.041-1.601 4.406-2.063 6.565-.832l.012.01c.288.162.561.347.817.555.424.331.774.748 1.027 1.223z" fill="#FFCEB6"/><path d="M167.731 157.337a57.786 57.786 0 015.746-3.782c2.575-1.39 5.31-1.277 7.328.994.547.588.888 1.338.971 2.138a5.53 5.53 0 01-.971 3.405c-1.32 2.169-10.102 6.874-10.102 6.874-1.203.597-2.51.956-3.849 1.056a22 22 0 01-7.508-1.056c-2.643-.686-3.904-5.642-3.904-5.642a11.518 11.518 0 002.93-.892 3.113 3.113 0 001.804-2.389l.065.013 7.49-.719z" fill="#FFCEB6"/><path d="M178.881 36.874l.621 3.017-37.042 7.652 10.043 48.864-3.012.62-.621-3.019-10.041-48.86 37.04-7.653 3.012-.621z" fill="#CCEFF6"/><path d="M175.869 37.495l-37.04 7.653 10.041 48.86-3.012.624-10.663-51.884 40.055-8.273.619 3.02z" fill="#006B99"/><path d="M153.378 152.185c.203-.061.412-.099.623-.113 1.287-.073 3.726-.33 5.359 2.132.711 1.145 1 2.504.817 3.841a3.117 3.117 0 01-1.805 2.388 11.52 11.52 0 01-2.929.891c-2.248.379-4.586.175-5.613-.838-1.724-1.706-3.578-5.626.448-9.768l.192-.304a26.888 26.888 0 002.893 1.657l.015.114z" fill="#FFCEB6"/><path d="M148.053 116.58l-.037.03a.409.409 0 00-.303-.162.398.398 0 00-.318.132 4.645 4.645 0 00-.455 1.657 221.92 221.92 0 00-2.07 28.46c.042 2.194.217 3.64.569 3.835.22.152.491.211.754.164l.013.043c-.981.654-3.598.983-4.31-1.092a26.272 26.272 0 01-.039-5.063c.339-8.161 1.665-23.523 2.394-27.733.039-.366.13-.725.271-1.065.786-1.034 3.439-.439 3.531.794z" fill="#CCEFF6"/><path d="M144.074 116.818l.181.034c-.73 4.214-2.057 19.576-2.394 27.733h-.096s-5.675-2.554-8.558-2.898c-4.181-.494-46.655-20.268-46.655-20.268l16.252-31.733 38.629 25.815 2.641 1.317z" fill="#FFCEB6"/><path d="M254.5 85.715l14.023 32.377m-181.975 3.323l16.255-31.73" stroke="#FFCEB6" stroke-width="3.396" stroke-linecap="round" stroke-linejoin="round"/><path d="M221.012 189.832a69.512 69.512 0 01-34.041 11.42 69.467 69.467 0 01-35.191-7.095 69.673 69.673 0 01-26.99-23.726 69.908 69.908 0 01-11.614-34.05m139.029-2.68a69.782 69.782 0 01-7.087 28.685 69.611 69.611 0 01-18.316 23.156" stroke="#006B99" stroke-width="3.396" stroke-linecap="round" stroke-linejoin="round"/><path d="M213.244 178.714a55.397 55.397 0 01-51.873 4.969 55.525 55.525 0 01-21.578-16.019 55.706 55.706 0 01-11.557-24.297m108.946-.721a55.647 55.647 0 01-19.32 32.646m2.093-83.987a55.797 55.797 0 018.701 9.993m-95.604 6.25a55.878 55.878 0 019.905-14.018m73.72-22.807a70.056 70.056 0 0122.273 19.863m-117.847 8.343a70.06 70.06 0 0117.963-21.758m68.194 41.706s22.94-15.764 28.937-20.08c5.998-4.317 18.307-13.082 18.307-13.082m-30.62 62.384s8.959-4.574 13.035-8.168c4.075-3.593 31.606-21.839 31.606-21.839m-181.977 3.323s42.475 19.779 46.655 20.268c2.884.344 8.559 2.898 8.559 2.898m2.314-27.763l-2.643-1.317-38.63-25.816" stroke="#006B99" stroke-width="3.396" stroke-linecap="round" stroke-linejoin="round"/><path d="M148.662 118.808a5.44 5.44 0 00-.646-2.198.4.4 0 00-.621-.03 4.645 4.645 0 00-.455 1.657 221.918 221.918 0 00-2.07 28.459c.042 2.194.216 3.641.569 3.836.22.152.49.21.754.164.862-.224.583-2.353.583-2.353" stroke="#006B99" stroke-width="3.396" stroke-linecap="round" stroke-linejoin="round"/><path d="M148.053 116.58c-.096-1.233-2.745-1.824-3.526-.795-.14.341-.231.7-.27 1.066-.731 4.214-2.057 19.576-2.394 27.733-.15 1.685-.137 3.38.039 5.063.708 2.075 3.325 1.745 4.31 1.092" stroke="#006B99" stroke-width="3.396" stroke-linecap="round" stroke-linejoin="round"/><path d="M146.94 118.237l1.689.656c2.739 1.066 7.913 3.073 8.575 3.307a2.19 2.19 0 002.055 0c.937-.356 11.965-6.178 14.194-6.708 2.228-.531 6.652.2 6.652.2m-35.235 31.005s.836.58 2.001 1.366c1.053.712 2.38 1.59 3.598 2.352.93.612 1.896 1.165 2.893 1.657m70.192-10.267c0 1.394.832 3.638.257 6.277-.547 2.512-2.367 5.377-7.384 8.218" stroke="#006B99" stroke-width="3.396" stroke-linecap="round" stroke-linejoin="round"/><path d="M211.766 121.111a17.565 17.565 0 00-4.53-2.165 22.165 22.165 0 00-3.502-.854c-5.03-.806-15.42-5.198-19.554-3.977a28.618 28.618 0 00-4.075 1.581c-2.212 1.033-4.154 2.154-6.225 2.88-3.246 1.139-6.192.6-7.081 5.356-.889 4.756-.757 10.597-1.649 14.557a3.263 3.263 0 00-.01 1.468c.67 2.977 5.642 4.145 8.902.02a13.972 13.972 0 003.16-8.956 13.038 13.038 0 00-.309-2.736" stroke="#006B99" stroke-width="3.396" stroke-linecap="round" stroke-linejoin="round"/><path d="M177.33 131.021s1.498-.604 1.856-1.683c0 0 4.869-.643 6.637-.937 1.768-.294 22.17 13.379 27.173 22.605m.001.001a26.897 26.897 0 013.128 5.398c.543 1.406.75 2.746.095 3.522-2.255 2.688-5.014 1.897-6.949-.337a10.19 10.19 0 01-.287-.343c-1.947-2.492-6.94-8.574-6.94-8.574l-4.167-2.593" stroke="#006B99" stroke-width="3.396" stroke-linecap="round" stroke-linejoin="round"/><path d="M190.593 139.226c.085.889.307 1.759.658 2.579.273.317 3.914 3.608 6.633 6.277a31.095 31.095 0 012.732 2.914c1.116 1.525 5.505 6.017 7.476 9.096.506.666.839 1.448.968 2.276a3.83 3.83 0 01-1.798 2.988 3.812 3.812 0 01-3.47.277 1.179 1.179 0 01-.198-.106c-1.668-1.036-9.881-8.421-11.156-9.625l-.006-.007m10.936 9.964a2.928 2.928 0 01-1.593 2.087 4.948 4.948 0 01-3.944.586 14.085 14.085 0 01-1.714-.986m1.714.986a8.77 8.77 0 01-4.552 2.971 2.765 2.765 0 01-2.314-.204m-5.142-42.898s1.488-1.479 1.488-2.32m-8.124 3.257a5.612 5.612 0 000-2.099m-14.125 12.412a.657.657 0 00.075.31c.596 1.208 4.774.818 6.113-1.194 1.445-2.175-.319-5.066-.319-5.066m-4.981-.786s1.073-.082 2.49-.248m44.08 27.425a6.646 6.646 0 002.63-1.499m-5.876.997s-1.159.537-1.182.502m-56.998-6.692a8.044 8.044 0 012.284-1.21c.203-.061.412-.099.623-.113 1.287-.073 3.726-.33 5.359 2.132.711 1.145 1 2.504.817 3.84a3.117 3.117 0 01-1.805 2.389 11.52 11.52 0 01-2.929.891c-2.248.379-4.586.175-5.613-.838-1.724-1.706-3.578-5.626.448-9.768m17.453 6.614c-.761.555-1.393 1.027-1.784 1.318" stroke="#006B99" stroke-width="3.396" stroke-linecap="round" stroke-linejoin="round"/><path d="M155.443 161.326s1.261 4.956 3.904 5.642a22.006 22.006 0 007.509 1.056c1.338-.1 2.645-.459 3.848-1.056 0 0 8.782-4.705 10.102-6.873a5.541 5.541 0 00.971-3.406 3.699 3.699 0 00-.971-2.138c-2.018-2.271-4.753-2.384-7.328-.994a57.832 57.832 0 00-5.741 3.782" stroke="#006B99" stroke-width="3.396" stroke-linecap="round" stroke-linejoin="round"/><path d="M167.738 157.339h-.003l-7.493.719m13.414-1.114a4.06 4.06 0 00-.957 2.646 2.504 2.504 0 002.506 2.219 2.493 2.493 0 001.17-.305c1.703-.944 4.428-2.854 3.678-4.56m-5.228-1.047a4.438 4.438 0 012.1-1.04 2.173 2.173 0 011.505.518m12.15-1.26c-2.16-1.231-4.523-.769-6.564.831-2.252 1.773-1.265.726-2.239 1.743-.02.02-.039.043-.062.066m-14.855 11.316a6.618 6.618 0 003.219 3.874c1.616.762 2.669 1.871 7.165-.007a51.891 51.891 0 006.308-3.303s7.088-5.528 8.601-8.104c.074-.123.138-.252.192-.384a4.985 4.985 0 00.095-4.244 3.86 3.86 0 00-1.029-1.222 6.016 6.016 0 00-.817-.554" stroke="#006B99" stroke-width="3.396" stroke-linecap="round" stroke-linejoin="round"/><path d="M184.763 158.253a4.084 4.084 0 00-.491 2.772 2.506 2.506 0 001.64 1.682 2.49 2.49 0 002.307-.421c1.521-1.221 3.881-3.568 2.855-5.122m-5.337-.145a4.445 4.445 0 011.892-1.38 2.178 2.178 0 011.574.255m-11.866 16.262a4.293 4.293 0 002.518 2.765c1.939.914 4.342.205 9.76-2.986 0 0 .352-.244.902-.643a47.132 47.132 0 004.723-3.841c.443-.41.834-.872 1.166-1.377 1.245-2.104 1.202-3.408-.171-4.504a4.042 4.042 0 00-3.937-.946" stroke="#006B99" stroke-width="3.396" stroke-linecap="round" stroke-linejoin="round"/><path d="M190.823 163.827a3.153 3.153 0 00-.378 2.142 1.937 1.937 0 002.202 1.364c.311-.057.604-.191.852-.388 1.176-.944 3.003-2.758 2.203-3.963m-4.123-.112a3.425 3.425 0 011.469-1.066c.415-.092.849-.02 1.214.198m-6.951-12.068l1.103 2.109 2.166 2.072.012.01m-32.219 6.31a9.026 9.026 0 01-2.578-1.785 5.56 5.56 0 01-1.03-2.255 1.085 1.085 0 00-1.758-.63 2.396 2.396 0 00-.909 1.399 2.951 2.951 0 001.56 3.287m32.847-67.921l-33.383 6.893-.619-3.016-10.043-48.864 37.042-7.652 3.01-.62 9.322 45.342" stroke="#006B99" stroke-width="3.396" stroke-linecap="round" stroke-linejoin="round"/><path d="M152.503 96.407l-3.012.62-.621-3.019-10.041-48.86 37.04-7.653 3.012-.621.621 3.017v.003" stroke="#006B99" stroke-width="3.396" stroke-linecap="round" stroke-linejoin="round"/><path d="M148.87 94.008l-3.012.624-10.663-51.884 40.055-8.273.619 3.02M150.251 53.13l27.309-5.64m-24.563 11.37l27.309-5.644M150.607 62.5l30.321-6.265m-29.702 9.283l30.321-6.263m-29.699 9.283l21.285-4.399m-17.654 6.796l27.309-5.64m-29.698 9.279l30.32-6.26m-29.702 9.279l30.321-6.263m-26.69 8.663l27.313-5.643m-29.703 9.282l30.321-6.262m-29.699 9.282l30.321-6.263m-20.64 12.131l3.092-.637 3.673-.76 7.63-1.577 1.45-.3 2.432-.502" stroke="#006B99" stroke-width="3.396" stroke-linecap="round" stroke-linejoin="round"/><path d="M174.244 87.863c-.096.35-.689 2.555.128 2.578.882.026 2.894-5.06 2.894-5.06s-.985 4.13.206 4.215c1.192.085 1.019-2.937 2.052-3.217.727-.199.124 1.96.124 3.168 0 .519.112.864.485.768.464-.115.743-.554.965-1.07.362-.863.568-1.94 1.214-2.101m-11.899 2.204c.421 1.027 1.053 1.824 1.586 1.7 1.211-.294 2.113-2.812 2.242-3.185a.18.18 0 01.009-.033v-.01m-3.837 1.528c.977-1.848 1.517-4.016.348-3.715-1.134.293-.953 2.237-.348 3.715zm-2.092 2.426c.655-.178 1.464-1.234 2.093-2.425m-7.05-.423l-1.515 2.306-1.514 2.303" stroke="#006B99" stroke-width="3.396" stroke-linecap="round" stroke-linejoin="round"/><path d="M159.548 89.714l2.301 1.518 2.298 1.515m22.381-.227a15.004 15.004 0 002.383 4.33 15.713 15.713 0 008.421 5.623l-.929 5.636c-.052.316-.041.639.031.952a2.458 2.458 0 001.085 1.518 2.424 2.424 0 002.702-.089 2.43 2.43 0 00.984-1.585l.939-5.706c1.4.03 2.798-.125 4.158-.459a15.765 15.765 0 005.789-2.724 17.343 17.343 0 004.28-4.705 16.84 16.84 0 002.313-6.254 18.29 18.29 0 00-.846-9.398c-1.099-3.008-3.576-5.65-7.429-7.927l-2.802-1.699 1.962-11.916c.359.27.687.58.98.92a4.999 4.999 0 011.15 3.073 1.86 1.86 0 001.564 1.728l6.817 1.128a1.87 1.87 0 001.975-.987c.122-.234.192-.49.208-.755a17.02 17.02 0 00-.369-4.484 16.3 16.3 0 00-2.403-5.696 14.433 14.433 0 00-4.375-4.184 15.62 15.62 0 00-3.746-1.69l.823-5.006a2.459 2.459 0 00-.423-1.82 2.44 2.44 0 00-1.582-.986 2.428 2.428 0 00-1.815.425 2.443 2.443 0 00-.983 1.585l-.826 5.02a16.726 16.726 0 00-3.95.346 14.815 14.815 0 00-5.639 2.471 15.962 15.962 0 00-4.425 4.568 16.24 16.24 0 00-2.363 6.247 15.11 15.11 0 001.432 9.89 18.337 18.337 0 007.222 7.163l2.443 1.39-2.212 13.442a4.044 4.044 0 01-2.051-2.076 10.67 10.67 0 01-.724-2.443 2.95 2.95 0 00-2.42-2.428l-2.044-.337-2.88-.48a2.942 2.942 0 00-2.411.687 2.956 2.956 0 00-1.013 2.299 16.28 16.28 0 00.547 3.957c.132.492.283.97.452 1.436z" stroke="#006B99" stroke-width="3.396" stroke-linecap="round" stroke-linejoin="round"/><path d="M200.869 64.746a6.485 6.485 0 01-.266-3.111 5.895 5.895 0 012.044-3.624 4.49 4.49 0 012.169-1.026l-1.695 10.292a5.563 5.563 0 01-2.252-2.53zm4.758 26.892a7.18 7.18 0 01-1.698.726l1.836-11.147a7.03 7.03 0 011.932 2.23 6.528 6.528 0 01.55 4.106 5.466 5.466 0 01-2.62 4.085z" stroke="#006B99" stroke-width="3.396" stroke-linecap="round" stroke-linejoin="round"/></g><defs><clipPath id="clip0_2_1396"><path fill="#fff" d="M0 0h355v238H0z"/></clipPath></defs></svg>