<svg width="124" height="33" fill="none" xmlns="http://www.w3.org/2000/svg"><g clip-path="url(#clip0_2_716)" fill="#0070a0"><path fill-rule="evenodd" clip-rule="evenodd" d="M17.811 2.22a1.282 1.282 0 011.013.098c.677.375 1.193 1.024 1.576 1.675.399.676.733 1.487.993 2.348.518 1.716.787 3.783.598 5.67a1.29 1.29 0 01-1.412 1.16 1.294 1.294 0 01-1.152-1.42c.15-1.496-.065-3.216-.5-4.656a9.928 9.928 0 00-.393-1.085c-.421 1.082-.854 2.273-1.047 2.92a1.287 1.287 0 01-1.605.868 1.298 1.298 0 01-.863-1.614c.376-1.258 1.509-4.221 2.025-5.294a1.29 1.29 0 01.767-.67z"/><path fill-rule="evenodd" clip-rule="evenodd" d="M13.743 8.149a1.545 1.545 0 011.94-1.017 14.91 14.91 0 012.353.991l.004.003c3.569 1.864 6.157 5.01 6.863 8.256.01.04.026.075.042.1a.143.143 0 00.027.034l.01.006 2.632 1.903.003.003c.937.681 1.178 1.797 1.133 2.601-.045.802-.412 1.897-1.445 2.458l-.007.004c-1.348.721-2.974.945-5.458.502a5.016 5.016 0 00-.259-.044h-.008a6.216 6.216 0 01-.33-.059c-1.908-.304-3.178-.27-3.963-.058-.7.19-.88.469-.965.743-.586 1.95-.05 3.094.678 4.648.116.248.237.506.359.78a1.56 1.56 0 01-.777 2.056 1.543 1.543 0 01-2.044-.782c-.089-.199-.19-.41-.297-.632-.763-1.587-1.83-3.81-.878-6.975l.002-.004c.458-1.506 1.615-2.431 3.118-2.838 1.415-.383 3.207-.34 5.296-.004l.091.018c.034.007.081.016.184.031l.023.004c.083.013.202.031.325.055 1.821.323 2.704.152 3.257-.094l-2.471-1.786c-.68-.487-1.113-1.213-1.29-1.96l-.006-.03c-.467-2.171-2.335-4.641-5.268-6.174a11.875 11.875 0 00-1.863-.788 1.558 1.558 0 01-1.011-1.951z"/><path fill-rule="evenodd" clip-rule="evenodd" d="M10.09 4.755a177.812 177.812 0 01-.138 1.769c-.082 1.006-.14 1.72-.14 2.01a1.78 1.78 0 01-.975 1.594c-.757.381-1.803.969-2.736 1.664l-.039.028c.263.072.47.146.604.2.682.258.992.876 1.037 1.376a1.662 1.662 0 01-.628 1.455 10.38 10.38 0 00-2.067 2.207 8.393 8.393 0 00-1.094 2.163c1.245-.21 2.533 1.007 1.947 2.427-.486 1.28-1.773 5.122-1.48 9.078a1.553 1.553 0 01-1.426 1.667 1.55 1.55 0 01-1.657-1.435c-.206-2.773.239-5.443.745-7.446a1.743 1.743 0 01-1.552-1.68c-.137-2.738.886-4.975 1.98-6.553.072-.105.145-.207.219-.307a1.766 1.766 0 01-1.288-2.442c.572-1.335 1.783-2.438 2.859-3.24a21.521 21.521 0 012.496-1.58c.028-.411.069-.906.111-1.424l.037-.451c.095-1.176.197-2.51.236-3.66A1.608 1.608 0 018.662.606c.072-.005.134-.005.145-.005h.002c.17 0 .34.029.5.084 1.532.528 2.837 1.632 3.96 2.856 1.135 1.234 2.203 2.726 3.216 4.181.49.704.32 1.674-.38 2.167a1.54 1.54 0 01-2.153-.382c-1.016-1.46-1.978-2.792-2.954-3.855a12.35 12.35 0 00-.906-.898zm-4.559 10.16a1.615 1.615 0 00.01.003l-.01-.004z"/><path d="M44.575 12.037c-.543.566-1.447.587-2.03.08a1.816 1.816 0 00-1.225-.506c-.985 0-1.789.83-1.789 1.863v2.955h2.25c.784 0 1.447.648 1.447 1.437 0 .81-.663 1.458-1.446 1.458h-2.25v6.052c0 .79-.664 1.458-1.467 1.458-.784 0-1.447-.668-1.447-1.458V13.454c0-2.612 2.13-4.737 4.702-4.737 1.185 0 2.31.445 3.194 1.255.563.567.583 1.478.06 2.065zm5.284 14.817c-3.255 0-5.928-2.672-5.928-5.971 0-3.28 2.673-5.972 5.928-5.972s5.927 2.692 5.947 5.992c-.02 3.3-2.692 5.951-5.947 5.951zm0-9.008a3.043 3.043 0 00-3.034 3.057c0 1.68 1.346 3.056 3.034 3.056a3.043 3.043 0 003.034-3.056c-.02-1.7-1.366-3.057-3.034-3.057zM62.9 26.834a5.883 5.883 0 01-4.12-1.66 6.172 6.172 0 01-1.828-4.19c-.02-1.58.543-3.097 1.668-4.23a5.999 5.999 0 014.14-1.843 5.8 5.8 0 014.199 1.68c.562.526.582 1.458.04 2.004a1.418 1.418 0 01-2.01.04 3.14 3.14 0 00-2.19-.89c-.824 0-1.587.364-2.17.951-.542.587-.884 1.377-.844 2.207 0 .81.362 1.62.945 2.166a2.96 2.96 0 002.17.89 3.01 3.01 0 002.07-.83c.542-.546 1.466-.506 1.989.081.542.567.502 1.478-.08 2.025-1.066.992-2.452 1.579-3.919 1.599h-.06zm11.553.142c-3.074 0-5.606-2.693-5.606-5.972v-4.555c0-.789.583-1.437 1.326-1.437.764 0 1.487.648 1.487 1.437v4.555c0 1.72 1.427 3.097 2.793 3.097 1.608 0 2.813-1.376 2.813-3.097v-4.352c0-.81.824-1.437 1.467-1.437.723 0 1.346.627 1.346 1.437v4.352c0 3.28-2.511 5.972-5.626 5.972zm11.534-.021c-1.507 0-3.034-.627-3.797-1.356-.564-.526-.624-1.437-.081-2.004a1.396 1.396 0 011.99-.101c.421.405 2.008.951 2.913.364a.783.783 0 00.382-.668c0-.324-.282-.567-.523-.668-.22-.121-.583-.121-1.025-.121-.562 0-1.205-.02-1.868-.263-1.226-.405-2.23-1.68-2.31-2.936-.122-1.498.522-2.429 1.064-2.955 1.186-1.093 2.914-1.255 4.16-1.053.943.162 1.647.506 2.25 1.053.562.526.623 1.437.1 2.004a1.422 1.422 0 01-1.205.445 1.445 1.445 0 01-.623-.222c-.322-.243-.563-.405-.985-.486-.703-.122-2.03-.081-1.929.951.02.122.24.425.422.506.241.081.583.081.964.081.624.02 1.387.02 2.17.385 1.306.587 2.15 1.882 2.15 3.259 0 1.214-.622 2.348-1.627 3.057-.804.546-1.688.728-2.592.728zM99.81 12.037c-.542.566-1.446.586-2.028.08a1.817 1.817 0 00-1.227-.506c-.984 0-1.788.83-1.788 1.863v2.955h2.25c.785 0 1.448.648 1.448 1.437a1.46 1.46 0 01-1.447 1.458h-2.25v6.052c0 .79-.664 1.458-1.467 1.458-.784 0-1.447-.668-1.447-1.458V13.454c0-2.612 2.13-4.737 4.701-4.737 1.186 0 2.311.445 3.195 1.255.563.567.583 1.477.06 2.065zm5.266 14.817c-3.255 0-5.927-2.672-5.927-5.971 0-3.28 2.672-5.972 5.927-5.972 3.255 0 5.927 2.692 5.948 5.992-.021 3.3-2.693 5.951-5.948 5.951zm0-9.008a3.042 3.042 0 00-3.034 3.057c0 1.68 1.346 3.056 3.034 3.056a3.03 3.03 0 003.034-3.056 3.03 3.03 0 00-3.034-3.057zm17.722 6.64c.523.546.503 1.437-.04 1.983a1.361 1.361 0 01-.964.385c-.362 0-.704-.142-.984-.425l-3.316-3.462-3.256 3.401a1.33 1.33 0 01-.984.425c-.321 0-.683-.121-.964-.384-.543-.547-.563-1.438-.02-1.984l3.335-3.482-3.355-3.502c-.523-.567-.523-1.457.04-1.984.542-.546 1.426-.526 1.968.02l3.256 3.422 3.336-3.482c.522-.547 1.386-.567 1.968-.02.543.526.564 1.397.02 1.984l-3.375 3.542 3.335 3.563z"/></g><defs><clipPath id="clip0_2_716"><path fill="#fff" d="M0 0h124v33H0z"/></clipPath></defs></svg>