<svg width="159" height="27" fill="none" xmlns="http://www.w3.org/2000/svg"><g clip-path="url(#clip0_2_728)" fill="#0070a0"><path opacity=".4" d="M28.17 10.251l-10.723 7.58h-4.766l-10.723-7.58 13.106-8.663 13.107 8.663z"/><path fill-rule="evenodd" clip-rule="evenodd" d="M14.458.687a1.1 1.1 0 011.212 0L28.776 9.35c.304.201.486.54.486.901V24.33c0 .574-.23 1.125-.64 1.531a2.19 2.19 0 01-1.544.635H3.05c-.58 0-1.135-.229-1.545-.635a2.156 2.156 0 01-.64-1.531V10.25c0-.362.183-.7.487-.9L14.458.686zM3.05 10.831v13.498h24.028V10.83L15.064 2.89 3.05 10.83z"/><path fill-rule="evenodd" clip-rule="evenodd" d="M13.573 17.207a1.077 1.077 0 01-.262 1.509L2.925 25.99a1.098 1.098 0 01-1.523-.26 1.077 1.077 0 01.262-1.509l10.387-7.274a1.098 1.098 0 011.522.26zm2.982 0a1.098 1.098 0 011.522-.26l10.387 7.274c.493.345.61 1.02.262 1.51a1.098 1.098 0 01-1.522.26l-10.387-7.275a1.077 1.077 0 01-.262-1.51z"/><path fill-rule="evenodd" clip-rule="evenodd" d="M1.068 9.623a1.1 1.1 0 011.524-.253l10.438 7.379h4.068l10.438-7.38a1.098 1.098 0 011.524.254c.35.487.236 1.163-.256 1.51l-10.723 7.58a1.098 1.098 0 01-.634.201h-4.766c-.227 0-.449-.07-.634-.2l-10.723-7.58a1.077 1.077 0 01-.256-1.511z"/><path d="M41.017 22.504c-.293 0-.54-.1-.74-.298a.992.992 0 01-.3-.734V7.79c0-.413.146-.764.439-1.055a1.418 1.418 0 011.063-.458h.3c.494 0 .917.229 1.272.687l8.9 12.744V7.33c0-.29.1-.535.3-.733.2-.214.447-.321.74-.321s.54.107.74.32a.958.958 0 01.323.734v13.683c0 .413-.154.764-.462 1.054-.293.29-.647.436-1.063.436h-.278a1.54 1.54 0 01-.693-.16 1.718 1.718 0 01-.532-.459L42.08 9.073v12.4c0 .29-.108.534-.324.733a1.01 1.01 0 01-.74.298zm21.985.114c-1.187 0-2.227-.252-3.121-.756a5.252 5.252 0 01-2.08-2.131c-.478-.933-.717-1.994-.717-3.186s.239-2.246.717-3.163a5.216 5.216 0 012.08-2.155c.894-.504 1.934-.756 3.12-.756 1.172 0 2.205.252 3.098.756a5.217 5.217 0 012.08 2.155c.494.917.74 1.971.74 3.163 0 1.192-.246 2.253-.74 3.186a5.253 5.253 0 01-2.08 2.131c-.894.504-1.926.756-3.097.756zm0-1.902a3.92 3.92 0 001.803-.435c.585-.29 1.063-.75 1.433-1.375.385-.627.578-1.422.578-2.384 0-.947-.193-1.734-.578-2.36-.37-.627-.848-1.078-1.433-1.353a3.922 3.922 0 00-1.803-.436c-.648 0-1.264.146-1.85.436-.57.275-1.04.726-1.41 1.352-.37.627-.554 1.414-.554 2.36 0 .963.184 1.758.554 2.384.37.627.84 1.085 1.41 1.376a4.11 4.11 0 001.85.435zm12.218 1.788a1.36 1.36 0 01-.832-.275 1.4 1.4 0 01-.509-.688l-3.282-9.534a1.222 1.222 0 01-.07-.39c0-.29.1-.535.301-.733.2-.199.447-.298.74-.298.216 0 .408.06.578.183a.785.785 0 01.37.436l2.704 8.824 2.682-8.618a1.17 1.17 0 01.416-.596c.215-.153.454-.23.716-.23.262 0 .493.077.694.23.216.153.362.351.439.596l2.681 8.618 2.705-8.824a.807.807 0 01.347-.436c.185-.122.385-.183.6-.183.294 0 .54.099.74.298.2.198.301.443.301.733 0 .122-.023.252-.07.39L84.19 21.54a1.4 1.4 0 01-.508.688 1.36 1.36 0 01-.832.275 1.36 1.36 0 01-.833-.275 1.53 1.53 0 01-.531-.71l-2.45-7.587-2.451 7.586c-.108.29-.285.527-.532.71a1.36 1.36 0 01-.832.276z"/><path fill-rule="evenodd" clip-rule="evenodd" d="M43.172 6.872a.093.093 0 01.004.006l8.62 12.342V7.331c0-.328.115-.611.344-.839.228-.243.515-.367.85-.367.334 0 .62.123.848.365.245.227.369.51.369.841v13.683c0 .455-.172.845-.509 1.163a1.609 1.609 0 01-1.17.48h-.278a1.696 1.696 0 01-.77-.181 1.87 1.87 0 01-.578-.5l-.003-.004L42.233 9.56v11.911c0 .332-.125.617-.371.844-.23.227-.515.34-.846.34-.332 0-.618-.114-.849-.342a1.144 1.144 0 01-.345-.842V7.79c0-.452.162-.842.483-1.161a1.57 1.57 0 011.173-.504h.3c.55 0 1.016.258 1.394.747zm-2.757-.137a1.418 1.418 0 011.063-.458h.3c.494 0 .917.23 1.272.687l8.9 12.744V7.33c0-.29.1-.535.3-.733.2-.214.447-.321.74-.321s.54.107.74.32a.958.958 0 01.323.734v13.683c0 .413-.154.764-.462 1.054-.293.29-.647.436-1.063.436h-.278c-.246 0-.477-.054-.693-.16a1.717 1.717 0 01-.532-.459L42.08 9.073v12.4c0 .29-.108.534-.324.733a1.01 1.01 0 01-.74.298c-.292 0-.539-.1-.739-.298a.992.992 0 01-.3-.734V7.79c0-.413.146-.764.439-1.055zM57.663 19.8c-.49-.956-.734-2.042-.734-3.254 0-1.213.243-2.292.734-3.233a5.369 5.369 0 012.141-2.217c.92-.52 1.988-.776 3.197-.776 1.194 0 2.253.257 3.173.776a5.37 5.37 0 012.14 2.215c.507.942.758 2.022.758 3.235s-.25 2.3-.757 3.256v.001a5.405 5.405 0 01-2.14 2.192c-.92.52-1.98.777-3.174.777-1.21 0-2.276-.257-3.197-.777a5.405 5.405 0 01-2.14-2.192l-.001-.003zm10.516-6.417a5.217 5.217 0 00-2.08-2.155c-.894-.504-1.927-.756-3.098-.756-1.187 0-2.227.252-3.12.756a5.217 5.217 0 00-2.081 2.155c-.478.917-.717 1.971-.717 3.163 0 1.192.239 2.253.717 3.186a5.252 5.252 0 002.08 2.131c.894.504 1.934.756 3.12.756 1.172 0 2.205-.252 3.098-.756a5.252 5.252 0 002.08-2.131c.494-.933.74-1.994.74-3.186s-.246-2.246-.74-3.163zm-3.445 6.763h.001c.556-.276 1.013-.712 1.37-1.317v-.002c.367-.596.556-1.361.556-2.304 0-.927-.188-1.685-.555-2.281l-.001-.003c-.357-.603-.813-1.031-1.367-1.291l-.004-.002a3.766 3.766 0 00-1.733-.42c-.623 0-1.216.14-1.78.42h-.002c-.54.26-.988.688-1.345 1.293-.352.597-.534 1.356-.534 2.284 0 .944.182 1.71.534 2.306.357.605.807 1.041 1.347 1.317a3.95 3.95 0 001.78.419c.607 0 1.184-.14 1.733-.419zm-3.582.136c-.57-.29-1.04-.75-1.41-1.375-.37-.627-.555-1.421-.555-2.384 0-.947.184-1.734.554-2.36.37-.627.84-1.078 1.41-1.353a4.11 4.11 0 011.85-.435c.632 0 1.233.145 1.803.435.585.275 1.063.726 1.433 1.352.385.627.578 1.414.578 2.36 0 .963-.193 1.758-.578 2.384-.37.627-.847 1.085-1.433 1.376-.57.29-1.171.435-1.803.435a4.112 4.112 0 01-1.85-.435zm26.319-8.274l-3.283 9.534a1.4 1.4 0 01-.508.688 1.36 1.36 0 01-.832.275 1.36 1.36 0 01-.833-.275 1.533 1.533 0 01-.531-.71l-2.45-7.587-2.45 7.586c-.109.29-.286.527-.533.71a1.36 1.36 0 01-.832.276 1.36 1.36 0 01-.832-.275 1.4 1.4 0 01-.508-.688l-3.283-9.534a1.225 1.225 0 01-.07-.39c0-.29.1-.535.301-.733.2-.199.447-.298.74-.298.216 0 .408.06.578.183a.785.785 0 01.37.436l2.704 8.824 2.682-8.618a1.17 1.17 0 01.416-.596 1.21 1.21 0 01.716-.23c.262 0 .493.077.694.23.216.153.362.351.44.596l2.68 8.618 2.705-8.824a.807.807 0 01.347-.436 1.07 1.07 0 01.601-.183c.293 0 .54.099.74.298.2.198.3.443.3.733 0 .122-.023.252-.07.39zm-1.656-1.366c.21-.137.439-.208.685-.208.332 0 .618.115.848.343.23.228.346.512.346.841 0 .141-.027.288-.077.438l-3.283 9.534v.001c-.103.306-.292.56-.562.76a1.514 1.514 0 01-.924.306c-.342 0-.652-.102-.925-.305a1.683 1.683 0 01-.583-.78l-.003-.006-2.304-7.134-2.304 7.134a1.683 1.683 0 01-.586.786 1.514 1.514 0 01-.924.305c-.341 0-.651-.102-.924-.305a1.55 1.55 0 01-.562-.76v-.002l-3.283-9.534a1.373 1.373 0 01-.077-.438c0-.33.115-.613.345-.841.23-.228.517-.343.849-.343.244 0 .467.07.662.208.21.124.358.296.431.515l.002.004 2.558 8.348 2.534-8.142c.086-.274.243-.5.47-.672l.004-.003c.24-.171.511-.258.805-.258.294 0 .558.087.785.26.241.17.408.396.495.672v.001l2.534 8.142 2.56-8.352a.96.96 0 01.408-.515z"/><path d="M92.31 22.504c-.294 0-.54-.1-.741-.298a.993.993 0 01-.3-.734V7.332c0-.291.1-.536.3-.734.2-.214.447-.321.74-.321s.54.107.74.32a.96.96 0 01.323.734v14.141c0 .29-.108.535-.323.734a1.01 1.01 0 01-.74.298zm5.95 0c-.294 0-.54-.1-.74-.298a.993.993 0 01-.3-.734V11.64c0-.29.1-.535.3-.733a.972.972 0 01.74-.321c.292 0 .539.107.739.32a.959.959 0 01.323.734v.94a7.678 7.678 0 011.896-1.536c.678-.382 1.479-.573 2.404-.573.848 0 1.58.199 2.196.596.632.397 1.11.94 1.433 1.627a5.06 5.06 0 01.509 2.27v6.508a.96.96 0 01-.323.734 1.013 1.013 0 01-.74.298c-.293 0-.539-.1-.74-.298a.99.99 0 01-.301-.734v-6.28c0-1.864-.847-2.796-2.542-2.796a3.76 3.76 0 00-2.081.596c-.601.398-1.171.932-1.71 1.605v6.875a.96.96 0 01-.324.734 1.01 1.01 0 01-.74.298z"/><path fill-rule="evenodd" clip-rule="evenodd" d="M92.309 22.656c-.332 0-.618-.114-.848-.342a1.145 1.145 0 01-.346-.842V7.332c0-.33.115-.612.343-.84a1.13 1.13 0 01.85-.367c.335 0 .62.123.85.365.243.227.368.51.368.841v14.141c0 .332-.125.617-.37.844-.23.227-.516.34-.847.34zm.74-.45a.957.957 0 00.324-.734V7.332a.957.957 0 00-.325-.734.972.972 0 00-.74-.321.974.974 0 00-.739.32c-.2.2-.3.444-.3.734v14.141c0 .29.1.535.3.734.2.198.447.298.74.298s.54-.1.74-.298zm5.21.45c-.332 0-.618-.114-.848-.342a1.145 1.145 0 01-.346-.842V11.64c0-.328.115-.611.344-.84.228-.243.515-.367.85-.367.334 0 .62.124.848.366.244.226.369.51.369.841v.556a7.602 7.602 0 011.666-1.284c.705-.398 1.533-.593 2.48-.593.873 0 1.634.204 2.279.62a3.942 3.942 0 011.489 1.69c.35.71.524 1.488.524 2.334v6.51c0 .331-.126.616-.371.843-.23.227-.516.34-.847.34-.332 0-.617-.114-.848-.342a1.145 1.145 0 01-.346-.842v-6.28c0-.912-.207-1.568-.595-1.995-.386-.424-.974-.648-1.793-.648-.743 0-1.407.19-1.996.57-.574.38-1.121.889-1.642 1.531v6.822c0 .332-.126.617-.37.844-.23.227-.516.34-.847.34zm.74-.45a.959.959 0 00.323-.734v-6.875c.54-.673 1.11-1.207 1.711-1.605a3.756 3.756 0 012.081-.596c1.694 0 2.542.932 2.542 2.796v6.28c0 .29.1.535.3.734.201.198.448.298.74.298.293 0 .539-.1.741-.298a.96.96 0 00.323-.734v-6.509a5.06 5.06 0 00-.509-2.269 3.777 3.777 0 00-1.433-1.627c-.616-.397-1.349-.596-2.196-.596-.925 0-1.726.191-2.404.573a7.558 7.558 0 00-1.896 1.536v-.94a.96.96 0 00-.323-.733.974.974 0 00-.74-.321.976.976 0 00-.74.32c-.2.2-.3.444-.3.734v9.832c0 .29.1.535.3.734.201.198.447.298.74.298s.54-.1.74-.298z"/><path d="M114.904 22.504c-.293 0-.539-.1-.74-.298a.994.994 0 01-.301-.734V8.34h-4.715a.942.942 0 01-.693-.275.925.925 0 01-.278-.688c0-.275.092-.504.278-.688a.905.905 0 01.693-.298h11.512c.278 0 .509.1.693.298.2.184.3.413.3.688 0 .275-.1.504-.3.688a.942.942 0 01-.693.275h-4.693v13.132a.96.96 0 01-.323.734 1.01 1.01 0 01-.74.298zm12.666.114c-1.88 0-3.352-.527-4.415-1.581-1.048-1.07-1.573-2.567-1.573-4.492 0-1.085.201-2.086.602-3.003a5.109 5.109 0 011.849-2.223c.832-.565 1.857-.848 3.075-.848 1.14 0 2.126.267 2.958.802a5.035 5.035 0 011.896 2.109c.431.87.647 1.826.647 2.865 0 .29-.1.535-.3.733-.185.199-.439.298-.763.298h-7.837c.124 1.07.524 1.902 1.203 2.498.678.596 1.626.894 2.843.894.647 0 1.21-.061 1.687-.183a7.026 7.026 0 001.433-.527.923.923 0 01.417-.092c.246 0 .462.084.646.252a.826.826 0 01.278.642c0 .336-.2.619-.601.848a8.419 8.419 0 01-1.78.756c-.586.168-1.34.252-2.265.252zm2.958-7.036c-.045-.749-.246-1.375-.6-1.88-.34-.504-.763-.87-1.272-1.1a3.539 3.539 0 00-1.548-.366 3.54 3.54 0 00-1.549.366c-.509.23-.933.596-1.272 1.1-.339.505-.531 1.131-.578 1.88h6.819zm10.32 7.036a6.56 6.56 0 01-3.074-.733 5.757 5.757 0 01-2.266-2.109c-.555-.916-.832-1.994-.832-3.231 0-1.238.277-2.315.832-3.232a5.756 5.756 0 012.266-2.109 6.559 6.559 0 013.074-.733c.817 0 1.518.107 2.104.32.6.2 1.156.46 1.664.78.309.199.462.466.462.802 0 .23-.092.443-.277.642a.794.794 0 01-.601.275 1.07 1.07 0 01-.509-.137 7.716 7.716 0 00-1.317-.55c-.354-.123-.802-.184-1.341-.184-1.326 0-2.366.382-3.121 1.146-.755.749-1.132 1.742-1.132 2.98 0 1.237.377 2.238 1.132 3.002.755.749 1.795 1.123 3.121 1.123.539 0 .987-.053 1.341-.16a9.648 9.648 0 001.317-.573 1.06 1.06 0 01.509-.138c.231 0 .431.1.601.298.185.183.277.39.277.619 0 .336-.153.604-.462.802a8.372 8.372 0 01-1.664.802c-.586.199-1.287.298-2.104.298zm7.91-.114c-.292 0-.539-.1-.74-.298a.993.993 0 01-.3-.734V6.598c0-.29.1-.535.3-.734a.976.976 0 01.74-.32c.294 0 .539.106.74.32a.957.957 0 01.324.734v5.982a7.662 7.662 0 011.896-1.536c.678-.382 1.479-.573 2.403-.573.848 0 1.58.199 2.196.596a3.78 3.78 0 011.434 1.627 5.06 5.06 0 01.508 2.27v6.508a.96.96 0 01-.324.734c-.2.198-.446.298-.739.298s-.54-.1-.74-.298a.993.993 0 01-.3-.734v-6.28c0-1.864-.848-2.796-2.543-2.796a3.76 3.76 0 00-2.081.596c-.601.397-1.171.932-1.71 1.605v6.875a.96.96 0 01-.324.734 1.01 1.01 0 01-.74.298z"/><path fill-rule="evenodd" clip-rule="evenodd" d="M123.044 21.143c-1.083-1.105-1.615-2.645-1.615-4.598 0-1.104.204-2.126.614-3.063a5.264 5.264 0 011.903-2.288c.863-.587 1.92-.875 3.162-.875 1.165 0 2.18.273 3.041.826a5.192 5.192 0 011.951 2.17c.443.893.662 1.871.662 2.932 0 .328-.114.61-.342.839-.22.234-.518.345-.874.345h-7.662c.141.957.521 1.696 1.13 2.231.641.564 1.547.856 2.74.856.639 0 1.188-.06 1.65-.179h.001c.482-.12.95-.291 1.402-.515.147-.073.309-.108.485-.108.285 0 .537.099.75.292a.978.978 0 01.328.754c0 .41-.25.735-.678.98h-.001a8.573 8.573 0 01-1.813.77c-.605.174-1.376.259-2.308.259-1.911 0-3.425-.537-4.524-1.626l-.002-.002zm.685-3.713a3.722 3.722 0 01-.02-.152h7.837c.323 0 .578-.1.762-.298a.99.99 0 00.301-.733c0-1.04-.216-1.994-.647-2.865a5.041 5.041 0 00-1.896-2.109c-.832-.534-1.818-.802-2.958-.802-1.218 0-2.243.283-3.075.848a5.118 5.118 0 00-1.85 2.223c-.4.917-.601 1.918-.601 3.003 0 1.925.525 3.422 1.573 4.492 1.063 1.054 2.535 1.581 4.415 1.581.924 0 1.679-.084 2.265-.252a8.419 8.419 0 001.78-.756c.401-.23.601-.512.601-.848a.826.826 0 00-.278-.642.929.929 0 00-.646-.252.925.925 0 00-.417.092 6.992 6.992 0 01-1.433.527c-.478.122-1.04.183-1.688.183-1.217 0-2.164-.298-2.842-.894-.646-.567-1.04-1.349-1.183-2.346zm6.07-3.643c-.324-.483-.726-.83-1.207-1.046l-.003-.001a3.383 3.383 0 00-1.481-.352 3.39 3.39 0 00-1.482.352l-.004.001a2.86 2.86 0 00-1.207 1.046c-.297.441-.478.987-.54 1.643h6.487c-.062-.655-.251-1.2-.561-1.64l-.002-.003zm.718 1.643c.004.05.009.1.011.152h-6.819l.011-.152c.063-.682.252-1.258.567-1.727a3.008 3.008 0 011.271-1.1 3.544 3.544 0 011.55-.367c.523 0 1.04.122 1.548.367.509.229.933.595 1.272 1.1.33.47.526 1.045.589 1.727zm4.861 4.426l-.001-.001c-.572-.944-.855-2.05-.855-3.31 0-1.261.283-2.366.855-3.31l.001-.002a5.905 5.905 0 012.324-2.163 6.715 6.715 0 013.146-.751c.828 0 1.547.108 2.154.33a7.652 7.652 0 011.696.794h.002c.347.225.532.538.532.93 0 .275-.112.524-.318.745a.948.948 0 01-.714.325c-.199 0-.392-.054-.581-.156a7.496 7.496 0 00-1.289-.538l-.003-.001-.004-.002c-.332-.114-.761-.175-1.29-.175-1.294 0-2.291.373-3.011 1.1l-.001.002c-.721.715-1.088 1.667-1.088 2.872 0 1.204.366 2.164 1.088 2.895.72.713 1.717 1.078 3.012 1.078.529 0 .959-.053 1.294-.153.359-.12.79-.306 1.292-.563.189-.101.382-.155.581-.155.28 0 .52.122.714.347.206.207.318.449.318.722 0 .393-.185.706-.532.93h-.002c-.518.328-1.083.6-1.695.818h-.002c-.606.206-1.325.307-2.153.307a6.715 6.715 0 01-3.146-.751 5.904 5.904 0 01-2.324-2.164zm9.423.241c-.17-.198-.37-.298-.601-.298-.17 0-.339.046-.509.138a9.66 9.66 0 01-1.317.573c-.354.107-.802.16-1.341.16-1.326 0-2.366-.374-3.121-1.123-.755-.764-1.132-1.765-1.132-3.002 0-1.238.377-2.231 1.132-2.98.755-.764 1.795-1.146 3.121-1.146.539 0 .987.061 1.341.184.369.107.809.29 1.317.55.17.091.339.137.509.137a.794.794 0 00.601-.275c.185-.199.277-.412.277-.642 0-.336-.154-.603-.462-.802a7.545 7.545 0 00-1.664-.779c-.586-.214-1.287-.32-2.104-.32-1.11 0-2.135.244-3.075.732a5.76 5.76 0 00-2.265 2.11c-.555.916-.832 1.993-.832 3.23 0 1.238.277 2.316.832 3.232a5.76 5.76 0 002.265 2.109c.94.489 1.965.733 3.075.733.817 0 1.518-.099 2.104-.298a8.367 8.367 0 001.664-.802c.308-.198.462-.466.462-.802a.851.851 0 00-.277-.619zm-29.898 2.56a1.16 1.16 0 01-.847-.343 1.145 1.145 0 01-.346-.842V8.492h-4.562a1.097 1.097 0 01-1.125-1.115c0-.312.107-.58.32-.793a1.06 1.06 0 01.805-.345h11.512c.317 0 .588.115.802.343.229.212.345.48.345.795 0 .316-.117.585-.348.797a1.097 1.097 0 01-.799.318h-4.539v12.98c0 .332-.126.617-.371.843-.23.227-.515.341-.847.341zm.74-.451a.957.957 0 00.324-.734V8.34h4.693a.942.942 0 00.693-.275c.2-.184.3-.413.3-.688 0-.275-.1-.504-.3-.688a.905.905 0 00-.693-.298h-11.512c-.278 0-.509.1-.693.298a.925.925 0 00-.278.688.942.942 0 00.971.963h4.715v13.132c0 .29.1.535.301.734.2.198.447.298.739.298.294 0 .54-.1.74-.298zm33.115.45c-.332 0-.617-.114-.848-.342a1.142 1.142 0 01-.346-.842V6.598c0-.329.115-.612.344-.84.229-.243.515-.367.85-.367.334 0 .62.123.849.366.244.226.369.51.369.84v5.6a7.617 7.617 0 011.665-1.285c.706-.398 1.534-.593 2.48-.593.872 0 1.635.204 2.28.62a3.94 3.94 0 011.488 1.69c.35.71.524 1.488.524 2.334v6.51c0 .331-.125.616-.371.843-.23.227-.515.34-.846.34-.332 0-.619-.114-.849-.342a1.144 1.144 0 01-.345-.842v-6.28c0-.912-.207-1.568-.597-1.995-.385-.424-.973-.648-1.793-.648-.741 0-1.405.19-1.995.57-.573.38-1.12.889-1.641 1.531v6.822c0 .332-.126.616-.371.843-.23.227-.516.341-.847.341zm.74-.45a.957.957 0 00.324-.734v-6.875c.539-.673 1.109-1.207 1.71-1.605a3.76 3.76 0 012.08-.596c1.696 0 2.544.932 2.544 2.796v6.28c0 .29.1.535.3.734.2.198.447.298.74.298.292 0 .539-.1.739-.298a.957.957 0 00.324-.734v-6.509a5.06 5.06 0 00-.508-2.269 3.787 3.787 0 00-1.434-1.627c-.616-.397-1.348-.596-2.196-.596-.924 0-1.726.191-2.403.573-.62.349-1.2.806-1.742 1.371a8.054 8.054 0 00-.154.165V6.598a.957.957 0 00-.324-.734.973.973 0 00-.74-.32.976.976 0 00-.74.32c-.2.199-.3.443-.3.734v14.874c0 .29.1.535.3.734.201.198.448.298.74.298.294 0 .539-.1.74-.298z"/></g><defs><clipPath id="clip0_2_728"><path fill="#fff" d="M0 0h159v27H0z"/></clipPath></defs></svg>