<svg width="117" height="34" fill="none" xmlns="http://www.w3.org/2000/svg"><path d="M54.32 22.406c.18 0 .335.069.465.207l1.296 1.405a7.102 7.102 0 01-2.653 2.04c-1.042.472-2.297.708-3.764.708-1.312 0-2.493-.224-3.544-.671a7.814 7.814 0 01-2.677-1.87c-.742-.797-1.312-1.75-1.711-2.858-.392-1.107-.587-2.316-.587-3.627 0-1.328.22-2.541.66-3.64a8.343 8.343 0 011.858-2.859 8.349 8.349 0 012.86-1.856c1.116-.448 2.346-.672 3.69-.672 1.313 0 2.458.212 3.435.635.986.415 1.83.97 2.53 1.661l-1.1 1.527a.962.962 0 01-.256.257c-.098.073-.236.11-.416.11-.187 0-.379-.074-.574-.22a7.128 7.128 0 00-.746-.477 6.037 6.037 0 00-1.149-.476c-.456-.146-1.039-.22-1.747-.22-.832 0-1.598.147-2.298.44a5.1 5.1 0 00-1.797 1.234c-.497.537-.888 1.193-1.173 1.966-.277.766-.416 1.629-.416 2.59 0 .993.139 1.877.416 2.65.285.774.668 1.425 1.149 1.954a4.95 4.95 0 001.699 1.222 5.32 5.32 0 002.102.415 9.01 9.01 0 001.21-.073 5.03 5.03 0 001.002-.232c.31-.106.599-.24.868-.403.277-.171.55-.379.819-.623.081-.073.167-.13.256-.171a.602.602 0 01.294-.073zm13.418 4.164h-1.356c-.285 0-.51-.04-.673-.121-.163-.09-.285-.265-.366-.526l-.27-.891c-.317.285-.63.537-.94.757a5.743 5.743 0 01-.941.538 4.833 4.833 0 01-1.04.33 6.26 6.26 0 01-1.221.11c-.53 0-1.019-.07-1.467-.208a3.298 3.298 0 01-1.161-.648 2.947 2.947 0 01-.746-1.062c-.18-.424-.269-.916-.269-1.478 0-.473.122-.937.367-1.393.252-.464.668-.88 1.247-1.246.578-.374 1.348-.684 2.31-.928.961-.244 2.155-.383 3.58-.415v-.733c0-.839-.178-1.458-.537-1.857-.35-.407-.864-.61-1.54-.61-.489 0-.896.056-1.222.17a4.648 4.648 0 00-.856.391 33.56 33.56 0 01-.66.379 1.353 1.353 0 01-.672.171.875.875 0 01-.526-.159 1.253 1.253 0 01-.354-.39l-.55-.966c1.442-1.319 3.182-1.979 5.219-1.979.733 0 1.385.123 1.955.367.579.236 1.068.57 1.467 1.002.4.423.7.932.905 1.526a5.81 5.81 0 01.317 1.955v7.915zm-5.866-1.88a4 4 0 00.855-.086c.26-.057.505-.142.734-.256a3.83 3.83 0 00.672-.415c.22-.171.44-.371.66-.599v-2.113c-.88.04-1.618.118-2.213.232-.586.106-1.059.244-1.417.415-.359.171-.615.37-.77.599-.147.228-.22.476-.22.745 0 .53.155.908.464 1.136.318.228.73.342 1.235.342zm8.346 1.88V14.04h1.772c.31 0 .526.057.648.17.122.115.204.31.244.587l.184 1.515c.448-.774.973-1.385 1.576-1.833a3.32 3.32 0 012.03-.671c.619 0 1.132.142 1.54.427l-.392 2.26c-.024.146-.077.252-.159.317a.567.567 0 01-.33.086c-.122 0-.289-.029-.5-.086a3.35 3.35 0 00-.844-.085c-.628 0-1.165.175-1.613.525-.449.342-.828.847-1.137 1.515v7.805h-3.02zm18.314 0c-.391 0-.648-.182-.77-.549l-.244-1.21a7.374 7.374 0 01-.82.795 5.08 5.08 0 01-.929.61 4.45 4.45 0 01-1.063.392 4.84 4.84 0 01-1.222.146 4.153 4.153 0 01-1.882-.427 4.274 4.274 0 01-1.48-1.234c-.406-.546-.724-1.218-.952-2.016-.22-.798-.33-1.71-.33-2.736 0-.928.126-1.791.379-2.59a6.3 6.3 0 011.087-2.076 5.006 5.006 0 011.7-1.368c.66-.334 1.4-.5 2.224-.5.7 0 1.3.114 1.796.342a4.6 4.6 0 011.332.891V8.42h3.02v18.15h-1.846zm-4.022-2.21c.628 0 1.162-.13 1.602-.39.44-.261.855-.632 1.246-1.112v-5.62c-.342-.415-.717-.708-1.124-.879a3.27 3.27 0 00-1.295-.256c-.457 0-.872.085-1.248.256-.365.171-.68.432-.94.782-.253.342-.448.782-.587 1.32-.138.529-.208 1.156-.208 1.88 0 .733.057 1.356.171 1.87.123.504.294.92.514 1.245.22.318.489.55.806.696.318.139.673.208 1.063.208zm13.832-10.517c.79 0 1.515.126 2.175.379a4.725 4.725 0 011.724 1.111c.481.48.855 1.075 1.124 1.784.269.7.404 1.502.404 2.406 0 .228-.012.42-.037.574a.822.822 0 01-.11.354.46.46 0 01-.208.183 1 1 0 01-.342.05h-7.75c.09 1.286.437 2.23 1.04 2.833.603.603 1.401.904 2.395.904.49 0 .909-.057 1.26-.171a5.59 5.59 0 00.928-.379c.269-.138.501-.264.697-.378.204-.114.399-.171.587-.171.122 0 .228.024.318.073a.693.693 0 01.231.208l.881 1.099a5.24 5.24 0 01-1.125.99c-.415.26-.851.472-1.307.635a7.281 7.281 0 01-1.382.33 9.757 9.757 0 01-1.357.097 6.794 6.794 0 01-2.432-.427 5.561 5.561 0 01-1.956-1.283c-.553-.57-.99-1.27-1.307-2.1-.318-.84-.477-1.809-.477-2.908 0-.855.139-1.657.416-2.406a5.77 5.77 0 011.186-1.967 5.644 5.644 0 011.894-1.331c.75-.326 1.593-.489 2.53-.489zm.06 2.162c-.879 0-1.567.248-2.065.745-.497.497-.814 1.201-.953 2.113h5.672c0-.39-.053-.757-.16-1.099a2.557 2.557 0 00-.488-.916 2.254 2.254 0 00-.832-.61c-.333-.155-.725-.233-1.173-.233zm16.151 10.565c-.391 0-.647-.182-.77-.549l-.244-1.21a7.535 7.535 0 01-.819.795c-.285.236-.595.44-.929.61a4.484 4.484 0 01-1.063.392 4.843 4.843 0 01-1.223.146 4.155 4.155 0 01-1.882-.427 4.28 4.28 0 01-1.479-1.234c-.407-.546-.725-1.218-.953-2.016-.22-.798-.33-1.71-.33-2.736 0-.928.126-1.791.378-2.59.254-.797.616-1.49 1.088-2.076a5.006 5.006 0 011.7-1.368c.659-.334 1.401-.5 2.224-.5.701 0 1.3.114 1.797.342a4.6 4.6 0 011.332.891V8.42h3.018v18.15h-1.845zm-4.021-2.21c.627 0 1.162-.13 1.601-.39.44-.261.856-.632 1.247-1.112v-5.62c-.342-.415-.717-.708-1.125-.879a3.254 3.254 0 00-1.295-.256c-.456 0-.872.085-1.247.256a2.457 2.457 0 00-.941.782c-.252.342-.448.782-.587 1.32-.138.529-.207 1.156-.207 1.88 0 .733.056 1.356.171 1.87.122.504.293.92.513 1.245.22.318.489.55.807.696.318.139.672.208 1.063.208z" fill="#0070a0"/><path fill-rule="evenodd" clip-rule="evenodd" d="M7.076 6.881a3.518 3.518 0 014.363-2.388L23.19 7.924a3.515 3.515 0 012.39 4.36l-5.262 18a3.518 3.518 0 01-4.363 2.388L4.204 29.24a3.515 3.515 0 01-2.39-4.36L7.076 6.881zm3.604.208a.812.812 0 00-1.007.55l-5.262 18a.81.81 0 00.552 1.006l11.751 3.431a.812.812 0 001.007-.551l5.262-17.999a.811.811 0 00-.552-1.006L10.68 7.089z" fill="#0070a0"/><path fill-rule="evenodd" clip-rule="evenodd" d="M14.417 3.717a3.518 3.518 0 014.363-2.389L30.53 4.76a3.515 3.515 0 012.39 4.36l-5.26 17.999a3.518 3.518 0 01-4.363 2.388l-11.751-3.431a3.515 3.515 0 01-2.39-4.36l5.262-18zm3.604.207a.812.812 0 00-1.007.551l-5.262 17.999a.81.81 0 00.552 1.006l11.751 3.431a.812.812 0 001.007-.55l5.262-18a.811.811 0 00-.552-1.006l-11.75-3.431z" fill="#0070a0"/></svg>