<svg width="320" height="60" viewBox="0 0 320 60" fill="none" xmlns="http://www.w3.org/2000/svg">
<rect width="320" height="60" fill="#BAEF00"/>
<path d="M118.449 37.4184V22.4887H124.181C125.345 22.4887 126.282 22.6368 126.992 22.9397C127.695 23.2426 128.246 23.707 128.645 24.333C129.045 24.959 129.245 25.6187 129.245 26.3053C129.245 26.9447 129.065 27.5438 128.714 28.1092C128.363 28.6746 127.825 29.1256 127.109 29.4756C128.032 29.7381 128.742 30.1891 129.238 30.8286C129.734 31.468 129.982 32.2219 129.982 33.0902C129.982 33.7903 129.83 34.4365 129.527 35.0423C129.224 35.6481 128.852 36.1058 128.404 36.4289C127.956 36.752 127.405 37.001 126.73 37.1693C126.062 37.3376 125.235 37.4184 124.264 37.4184H118.449ZM120.468 28.7621H123.768C124.663 28.7621 125.304 28.7015 125.697 28.5871C126.213 28.439 126.599 28.19 126.861 27.8467C127.123 27.5034 127.254 27.0659 127.254 26.5408C127.254 26.0427 127.13 25.612 126.888 25.235C126.647 24.8581 126.296 24.6023 125.848 24.4609C125.394 24.3196 124.622 24.2523 123.527 24.2523H120.475V28.7621H120.468ZM120.468 35.6548H124.271C124.925 35.6548 125.38 35.6279 125.648 35.5808C126.117 35.5 126.503 35.3654 126.813 35.1769C127.123 34.9884 127.385 34.7124 127.584 34.349C127.784 33.9855 127.887 33.5682 127.887 33.0902C127.887 32.5316 127.743 32.0469 127.447 31.6363C127.157 31.2257 126.751 30.9363 126.234 30.768C125.717 30.5997 124.973 30.5189 124.002 30.5189H120.468V35.6548Z" fill="#263238"/>
<path d="M133.02 37.4184V22.4887H144.063V24.2523H135.045V28.8227H143.499V30.5728H135.045V35.6548H144.422V37.4184H133.02Z" fill="#263238"/>
<path d="M148.541 22.4887H158.104V37.4116H156.085V24.2523H150.56V31.9392C150.56 33.5008 150.484 34.6451 150.333 35.3721C150.181 36.0991 149.871 36.6645 149.389 37.0683C148.907 37.4722 148.3 37.6741 147.563 37.6741C147.115 37.6741 146.585 37.5934 145.958 37.4318L146.302 35.6817C146.633 35.8163 146.923 35.8837 147.157 35.8837C147.618 35.8837 147.956 35.7154 148.19 35.3788C148.417 35.0423 148.535 34.248 148.535 33.0027V22.4887H148.541Z" fill="#263238"/>
<path d="M161.032 30.1488C161.032 27.6717 161.714 25.7331 163.071 24.3331C164.435 22.933 166.192 22.2329 168.341 22.2329C169.754 22.2329 171.021 22.5628 172.158 23.2224C173.288 23.8821 174.156 24.7975 174.748 25.9754C175.341 27.1534 175.637 28.4862 175.637 29.9805C175.637 31.495 175.327 32.8479 174.7 34.0393C174.073 35.2308 173.191 36.1395 172.041 36.752C170.897 37.3645 169.657 37.6742 168.334 37.6742C166.895 37.6742 165.613 37.3376 164.476 36.6578C163.347 35.9779 162.485 35.0557 161.9 33.8778C161.321 32.6999 161.032 31.4613 161.032 30.1488ZM163.112 30.1757C163.112 31.9729 163.608 33.3932 164.6 34.423C165.593 35.4596 166.833 35.9779 168.328 35.9779C169.85 35.9779 171.104 35.4529 172.082 34.4096C173.067 33.3662 173.557 31.8787 173.557 29.9603C173.557 28.7487 173.343 27.6852 172.923 26.7765C172.502 25.8678 171.889 25.1677 171.076 24.6696C170.27 24.1715 169.361 23.9225 168.348 23.9225C166.915 23.9225 165.689 24.4004 164.656 25.3629C163.629 26.3255 163.112 27.9342 163.112 30.1757Z" fill="#263238"/>
<path d="M177.773 32.6191L179.681 32.4575C179.771 33.2047 179.984 33.8172 180.315 34.2951C180.646 34.773 181.155 35.1634 181.851 35.4529C182.547 35.7491 183.326 35.8971 184.194 35.8971C184.965 35.8971 185.647 35.7827 186.233 35.5606C186.825 35.3385 187.259 35.0288 187.549 34.6384C187.838 34.248 187.983 33.824 187.983 33.3595C187.983 32.8883 187.845 32.4845 187.569 32.1344C187.294 31.7844 186.832 31.4882 186.191 31.2527C185.778 31.0978 184.876 30.8555 183.47 30.5257C182.065 30.1959 181.087 29.8862 180.522 29.5968C179.791 29.2266 179.247 28.7621 178.889 28.2102C178.531 27.6582 178.351 27.039 178.351 26.3524C178.351 25.5985 178.572 24.8917 179.006 24.2388C179.447 23.5859 180.081 23.0878 180.921 22.7445C181.762 22.4079 182.699 22.2329 183.725 22.2329C184.855 22.2329 185.854 22.408 186.722 22.7647C187.59 23.1215 188.251 23.6465 188.72 24.3398C189.188 25.0331 189.436 25.8139 189.471 26.689L187.535 26.8303C187.432 25.8879 187.08 25.1744 186.474 24.6898C185.875 24.2052 184.986 23.9696 183.815 23.9696C182.595 23.9696 181.7 24.1917 181.142 24.6292C180.584 25.0667 180.301 25.5918 180.301 26.211C180.301 26.7495 180.501 27.1871 180.894 27.5371C181.279 27.8804 182.299 28.2371 183.939 28.6006C185.578 28.9641 186.708 29.2804 187.321 29.5497C188.21 29.9535 188.865 30.4584 189.292 31.0709C189.712 31.6834 189.925 32.3902 189.925 33.1912C189.925 33.9855 189.691 34.7327 189.23 35.4394C188.761 36.1395 188.093 36.6914 187.225 37.0818C186.35 37.4722 185.372 37.6674 184.283 37.6674C182.898 37.6674 181.741 37.4722 180.811 37.0751C179.874 36.6847 179.144 36.0923 178.613 35.2981C178.076 34.5173 177.8 33.622 177.773 32.6191Z" fill="#263238"/>
<path d="M192.971 37.4184V22.4887H194.989V28.6208H202.932V22.4887H204.951V37.4116H202.932V30.3843H194.989V37.4184H192.971Z" fill="#263238"/>
<path d="M207.913 30.1488C207.913 27.6717 208.595 25.7331 209.953 24.3331C211.317 22.933 213.073 22.2329 215.223 22.2329C216.635 22.2329 217.903 22.5628 219.04 23.2224C220.169 23.8821 221.037 24.7975 221.63 25.9754C222.222 27.1534 222.519 28.4862 222.519 29.9805C222.519 31.495 222.209 32.8479 221.582 34.0393C220.955 35.2308 220.073 36.1395 218.922 36.752C217.779 37.3645 216.539 37.6742 215.216 37.6742C213.776 37.6742 212.495 37.3376 211.358 36.6578C210.228 35.9779 209.367 35.0557 208.781 33.8778C208.21 32.6999 207.913 31.4613 207.913 30.1488ZM210.001 30.1757C210.001 31.9729 210.497 33.3932 211.489 34.423C212.481 35.4596 213.721 35.9779 215.216 35.9779C216.739 35.9779 217.992 35.4529 218.971 34.4096C219.956 33.3662 220.445 31.8787 220.445 29.9603C220.445 28.7487 220.231 27.6852 219.811 26.7765C219.391 25.8678 218.778 25.1677 217.965 24.6696C217.159 24.1715 216.249 23.9225 215.237 23.9225C213.804 23.9225 212.577 24.4004 211.544 25.3629C210.518 26.3255 210.001 27.9342 210.001 30.1757Z" fill="#263238"/>
<path d="M225.343 37.4184V22.4887H231.103C232.116 22.4887 232.894 22.5358 233.424 22.6301C234.175 22.7512 234.802 22.9868 235.312 23.3301C235.822 23.6734 236.228 24.1513 236.538 24.7706C236.848 25.3898 237 26.0697 237 26.8034C237 28.0755 236.587 29.1458 235.76 30.0276C234.933 30.9094 233.438 31.3469 231.282 31.3469H227.362V37.4116H225.343V37.4184ZM227.362 29.5901H231.309C232.618 29.5901 233.542 29.3545 234.093 28.8766C234.644 28.3986 234.913 27.7323 234.913 26.8707C234.913 26.2447 234.754 25.7129 234.43 25.2687C234.107 24.8244 233.679 24.5282 233.156 24.3869C232.818 24.2994 232.184 24.2523 231.268 24.2523H227.362V29.5901Z" fill="#263238"/>
<rect x="101" y="23.2794" width="13" height="13" rx="6.5" stroke="#263238" stroke-width="2"/>
<rect x="84" y="23.2794" width="13" height="13" rx="6.5" stroke="#263238" stroke-width="2"/>
</svg>
