<svg width="408" height="394" fill="none" xmlns="http://www.w3.org/2000/svg"><path fill-rule="evenodd" clip-rule="evenodd" d="M46.148 288.516c23.155-14.494 44.494-1.206 60.974 10.642 13.673 9.83 23.803 24.918 13.558 42.939-10.093 17.753-33.35 25.604-53.633 27.55-20.183 1.937-39.308-2.369-43.397-18.241-5.245-20.362-1.661-47.768 22.498-62.89z" fill="#0CA941"/><path fill-rule="evenodd" clip-rule="evenodd" d="M78.51 104.412c25.413 10.02 43.964-6.943 58.002-21.602 11.648-12.163 18.851-28.848 5.486-44.694-13.166-15.61-37.466-19.08-57.763-17.288-20.198 1.784-38.214 9.51-39.334 25.863-1.437 20.978 7.093 47.268 33.608 57.721z" fill="#EA671C"/><path fill-rule="evenodd" clip-rule="evenodd" d="M329.319 250.516c25.613 9.501 43.815-7.836 57.553-22.778 11.397-12.397 18.26-29.224 4.575-44.796-13.481-15.338-37.846-18.314-58.103-16.109-20.157 2.194-38.012 10.285-38.8 26.657-1.01 21.002 8.053 47.113 34.775 57.026z" fill="#0CA941"/></svg>