<svg width="24" height="4" viewBox="0 0 24 4" fill="none" xmlns="http://www.w3.org/2000/svg">
<path d="M1.76529 3.51054C1.16885 3.53026 0.693839 3.67782 0.121608 3.42628C0.0162868 2.88887 -0.083637 2.27719 0.109996 1.79798C0.223821 1.516 0.421052 1.33459 0.61632 1.18069C1.07898 0.81617 1.54622 0.535654 2.06791 0.485736C2.52436 0.442149 2.97802 0.342313 3.43381 0.280219C3.69973 0.244181 3.96843 0.205707 4.23402 0.224701C4.48702 0.242233 8.45504 -0.022699 8.58515 0.0649623C8.88786 0.0306283 9.04999 0.0162616 9.30266 0.0123655C9.80947 0.00457342 10.3189 -0.022699 10.8224 0.0420729C11.2758 0.100027 11.7265 0.158468 12.1816 0.147266C12.6669 0.135578 13.1526 0.139961 13.6381 0.125595C14.1477 0.110497 14.6573 0.0610662 15.1669 0.0649623C15.688 0.0691018 16.209 0.131682 16.7302 0.145318C16.996 0.152623 17.2625 0.0917476 17.5285 0.0946697C17.711 0.0971047 17.8925 0.17113 18.0753 0.18574C18.2094 0.196454 18.3454 0.164799 18.4803 0.147997C18.5189 0.143127 18.5571 0.108549 18.5948 0.111471C19.2635 0.164799 19.9325 0.210577 20.6004 0.282167C21.3063 0.357653 22.0427 0.209603 22.7356 0.350348C23.1414 0.432896 23.5478 0.706837 23.781 1.20797C23.9465 1.56348 24.0621 2.18734 23.9638 2.61615C23.8511 3.10559 23.538 3.18765 23.2078 3.27629C22.2331 3.5383 21.2991 3.33278 20.3307 3.43091C19.4619 3.51857 18.5854 3.41557 17.7092 3.37515C17.3111 3.35664 16.9121 3.39487 16.5135 3.39219C15.7838 3.38708 15.0539 3.3715 14.3242 3.35908C13.7618 3.34958 13.1992 3.32499 12.6368 3.33156C12.1352 3.3374 11.6339 3.38611 11.1324 3.39755C10.9184 3.40242 10.704 3.3525 10.4898 3.34227C10.0211 3.31963 9.55239 3.30599 9.08351 3.28943C8.80811 3.27945 8.53271 3.26119 8.25747 3.26289C7.74918 3.26606 7.13633 3.51054 6.58705 3.51054C6.03778 3.51054 2.36205 3.49106 1.76529 3.51054Z" fill="#0B4A72"/>
</svg>
