<svg width="180" height="66" viewBox="0 0 180 66" fill="none" xmlns="http://www.w3.org/2000/svg">
<g clip-path="url(#clip0_12_353)">
<path d="M38.2494 15.9393V7.97101C38.2494 7.09091 37.5359 6.37735 36.6557 6.37735H35.0621V1.59635C35.0621 0.716248 34.3486 0.00268395 33.4684 0.00268395C31.2122 0.00268395 27.7569 -0.170229 23.7008 2.25971C21.1794 1.5092 19.3962 1.59635 17.5317 1.59635C16.6515 1.59635 15.9381 2.30991 15.9381 3.19002V6.37735H14.3444C13.4642 6.37735 12.7507 7.09091 12.7507 7.97101V15.9393C12.7507 22.4297 17.6259 27.8026 23.9064 28.5893V49.4063C23.9064 50.2864 24.6199 51 25.5001 51C26.3803 51 27.0937 50.2864 27.0937 49.4063V43.8285H29.4842C34.3173 43.8285 38.2494 39.8964 38.2494 35.0633V32.6728C38.2494 31.7927 37.5359 31.0792 36.6557 31.0792H32.6716C30.5545 31.0792 28.6103 31.8337 27.0937 33.0879V28.5885C33.3649 27.8119 38.2494 22.4657 38.2494 15.9393ZM35.0621 15.9393C35.0621 18.7756 33.8077 21.3372 31.8253 23.0935C31.8566 22.8378 31.8747 22.5781 31.8747 22.314C31.8747 18.2781 30.3659 14.5886 27.8838 11.7778C29.9881 10.3419 32.4831 9.56468 35.0621 9.56468V15.9393ZM31.8747 3.19002V6.69887C31.5802 6.75883 31.2878 6.82726 30.9977 6.90366C29.9638 5.74636 28.7847 4.76037 27.4973 3.96364C28.8889 3.45486 30.3661 3.19002 31.8747 3.19002ZM19.1254 4.78368C22.2915 4.78368 25.3662 5.93979 27.7574 8.14871C26.9682 8.55599 26.2115 9.0308 25.4954 9.56916C23.6424 8.1761 21.4773 7.17707 19.1254 6.69777V4.78368ZM15.9381 15.9393V9.56468C22.968 9.56468 28.6874 15.2839 28.6874 22.314C28.6874 24.0949 27.2167 25.5461 25.4163 25.4998C19.8175 25.3616 15.9381 20.9135 15.9381 15.9393ZM32.6716 34.2665H35.0621V35.0633C35.0621 38.1389 32.5599 40.6412 29.4842 40.6412H27.0937V39.8443C27.0937 36.7688 29.596 34.2665 32.6716 34.2665Z" fill="white"/>
</g>
<path d="M51.1712 21.7174L57.29 10.9655H61.3966V28H57.29V17.2599L51.1712 28H47.0647V10.9655H51.1712V21.7174ZM73.9144 22.2321H78.0092C77.9546 23.4177 77.6349 24.4628 77.0499 25.3676C76.4649 26.2724 75.6537 26.9782 74.6164 27.4852C73.5868 27.9844 72.3701 28.234 70.9661 28.234C69.8274 28.234 68.8095 28.0429 67.9126 27.6607C67.0234 27.2785 66.2668 26.7287 65.6429 26.0111C65.0267 25.2935 64.5548 24.4239 64.2272 23.4021C63.9074 22.3803 63.7475 21.2299 63.7475 19.9507V19.0265C63.7475 17.7473 63.9152 16.5969 64.2506 15.5751C64.5938 14.5456 65.0774 13.672 65.7014 12.9544C66.3331 12.2291 67.0897 11.6753 67.9711 11.2931C68.8524 10.9109 69.8313 10.7198 70.9076 10.7198C72.3896 10.7198 73.6414 10.985 74.6632 11.5154C75.6849 12.0458 76.4766 12.775 77.0382 13.7032C77.5998 14.6236 77.9312 15.6726 78.0326 16.8504H73.9378C73.9222 16.2108 73.813 15.6765 73.6102 15.2475C73.4074 14.8108 73.0876 14.4832 72.6509 14.2648C72.2141 14.0464 71.633 13.9372 70.9076 13.9372C70.4007 13.9372 69.96 14.0308 69.5856 14.218C69.2112 14.4052 68.8992 14.7016 68.6496 15.1071C68.4 15.5127 68.2128 16.0392 68.0881 16.6866C67.9711 17.3261 67.9126 18.0983 67.9126 19.0031V19.9507C67.9126 20.8555 67.9672 21.6277 68.0764 22.2672C68.1856 22.9068 68.361 23.4294 68.6028 23.835C68.8446 24.2406 69.1566 24.5408 69.5388 24.7358C69.9288 24.923 70.4046 25.0166 70.9661 25.0166C71.5901 25.0166 72.1166 24.9191 72.5456 24.7241C72.9745 24.5213 73.306 24.2172 73.54 23.8116C73.774 23.3982 73.8988 22.8717 73.9144 22.2321ZM89.9538 22.2321H94.0486C93.994 23.4177 93.6743 24.4628 93.0893 25.3676C92.5043 26.2724 91.6931 26.9782 90.6558 27.4852C89.6262 27.9844 88.4095 28.234 87.0055 28.234C85.8668 28.234 84.8489 28.0429 83.952 27.6607C83.0628 27.2785 82.3062 26.7287 81.6823 26.0111C81.0661 25.2935 80.5942 24.4239 80.2666 23.4021C79.9468 22.3803 79.7869 21.2299 79.7869 19.9507V19.0265C79.7869 17.7473 79.9546 16.5969 80.29 15.5751C80.6332 14.5456 81.1168 13.672 81.7408 12.9544C82.3725 12.2291 83.1291 11.6753 84.0105 11.2931C84.8918 10.9109 85.8707 10.7198 86.947 10.7198C88.429 10.7198 89.6808 10.985 90.7026 11.5154C91.7243 12.0458 92.516 12.775 93.0776 13.7032C93.6392 14.6236 93.9706 15.6726 94.072 16.8504H89.9772C89.9616 16.2108 89.8524 15.6765 89.6496 15.2475C89.4468 14.8108 89.1271 14.4832 88.6903 14.2648C88.2535 14.0464 87.6724 13.9372 86.947 13.9372C86.4401 13.9372 85.9994 14.0308 85.625 14.218C85.2506 14.4052 84.9386 14.7016 84.689 15.1071C84.4394 15.5127 84.2523 16.0392 84.1275 16.6866C84.0105 17.3261 83.952 18.0983 83.952 19.0031V19.9507C83.952 20.8555 84.0066 21.6277 84.1158 22.2672C84.225 22.9068 84.4005 23.4294 84.6422 23.835C84.884 24.2406 85.196 24.5408 85.5782 24.7358C85.9682 24.923 86.444 25.0166 87.0055 25.0166C87.6295 25.0166 88.156 24.9191 88.585 24.7241C89.014 24.5213 89.3454 24.2172 89.5794 23.8116C89.8134 23.3982 89.9382 22.8717 89.9538 22.2321ZM107.865 10.9655V14.1361H99.0671V10.9655H107.865ZM110.638 10.9655V28H106.531V10.9655H110.638ZM98.7863 10.9655H102.869L102.425 19.6232C102.355 20.9335 102.222 22.0645 102.027 23.016C101.832 23.9598 101.571 24.7553 101.243 25.4027C100.916 26.0423 100.522 26.5532 100.062 26.9353C99.6014 27.3175 99.0671 27.5905 98.4587 27.7543C97.8582 27.9181 97.1835 28 96.4347 28H95.4403V24.8411L95.8849 24.7943C96.2436 24.7553 96.5595 24.6578 96.8325 24.5018C97.1055 24.3381 97.3395 24.0963 97.5345 23.7765C97.7373 23.4567 97.905 23.0472 98.0376 22.548C98.1702 22.0489 98.2755 21.4444 98.3534 20.7346C98.4392 20.017 98.4977 19.1786 98.5289 18.2192L98.7863 10.9655ZM125.238 24.8411V28H116.159V24.8411H125.238ZM117.622 10.9655V28H113.515V10.9655H117.622ZM124.068 17.7278V20.7814H116.159V17.7278H124.068ZM125.273 10.9655V14.1361H116.159V10.9655H125.273ZM140.81 24.8411V28H128.841V24.8411H140.81ZM130.198 24.8411V32.1767H126.396L126.115 24.8411H130.198ZM143.606 24.8411L143.173 32.1884H139.488V24.8411H143.606ZM139.02 10.9655V14.1361H130.467V10.9655H139.02ZM141.781 10.9655V28H137.698V10.9655H141.781ZM130.198 10.9655H134.293L133.79 17.9501C133.704 19.1435 133.568 20.1808 133.381 21.0622C133.193 21.9436 132.971 22.704 132.714 23.3436C132.456 23.9832 132.175 24.533 131.871 24.9932C131.567 25.4534 131.247 25.8551 130.912 26.1983C130.584 26.5415 130.257 26.8534 129.929 27.1342C129.602 27.415 129.286 27.7036 128.982 28H126.49V24.8411H127.308C127.55 24.6695 127.792 24.4395 128.034 24.1509C128.283 23.8545 128.517 23.4528 128.736 22.9458C128.954 22.4388 129.145 21.7798 129.309 20.9686C129.473 20.1574 129.598 19.1513 129.683 17.9501L130.198 10.9655ZM150.73 21.577L154.755 10.9655H159.095L153.351 24.4784C153.133 24.9776 152.879 25.4534 152.591 25.9058C152.31 26.3582 151.974 26.7599 151.584 27.1108C151.202 27.4618 150.75 27.7387 150.227 27.9415C149.705 28.1443 149.092 28.2457 148.39 28.2457C148.219 28.2457 148.008 28.2418 147.759 28.234C147.517 28.234 147.306 28.2301 147.127 28.2223L147.057 25.04C147.158 25.0634 147.298 25.079 147.478 25.0868C147.657 25.0868 147.786 25.0868 147.864 25.0868C148.332 25.0868 148.702 25.0322 148.975 24.923C149.248 24.806 149.463 24.6344 149.619 24.4083C149.783 24.1743 149.923 23.8779 150.04 23.5191L150.73 21.577ZM148.449 10.9655L151.935 18.3596L153.269 23.0862H150.321L144.085 10.9655H148.449ZM164.687 21.7174L170.806 10.9655H174.913V28H170.806V17.2599L164.687 28H160.581V10.9655H164.687V21.7174ZM169.402 6.37931H172.105C172.105 7.08128 171.925 7.70526 171.566 8.25123C171.216 8.78941 170.716 9.21059 170.069 9.51478C169.422 9.81897 168.657 9.97106 167.776 9.97106C166.442 9.97106 165.385 9.63957 164.605 8.9766C163.825 8.30583 163.435 7.44007 163.435 6.37931H166.126C166.126 6.76149 166.251 7.10468 166.501 7.40887C166.75 7.71305 167.175 7.86515 167.776 7.86515C168.376 7.86515 168.798 7.71305 169.039 7.40887C169.281 7.10468 169.402 6.76149 169.402 6.37931Z" fill="#DD2242"/>
<path d="M51.3701 32.9655V50H47.2752V32.9655H51.3701ZM61.1977 32.9655L55.0788 43.2611H50.6564L50.165 39.5523H52.9612L56.2371 32.9655H61.1977ZM56.939 50L52.9495 42.5474L55.9329 39.798L61.7826 50H56.939ZM67 43.7174L73.1188 32.9655H77.2254V50H73.1188V39.2599L67 50H62.8935V32.9655H67V43.7174ZM94.3528 32.9655V50H90.2463V36.1361H84.1275V50H80.0326V32.9655H94.3528ZM104.039 44.2204H99.8042V41.0499H104.039C104.617 41.0499 105.085 40.9524 105.443 40.7574C105.802 40.5624 106.063 40.2933 106.227 39.9501C106.399 39.5991 106.485 39.2053 106.485 38.7685C106.485 38.3005 106.399 37.8676 106.227 37.4698C106.063 37.072 105.802 36.7523 105.443 36.5105C105.085 36.2609 104.617 36.1361 104.039 36.1361H101.349V50H97.242V32.9655H104.039C105.404 32.9655 106.578 33.2151 107.561 33.7143C108.552 34.2135 109.312 34.8998 109.842 35.7734C110.373 36.6392 110.638 37.6297 110.638 38.7451C110.638 39.8448 110.373 40.8042 109.842 41.6232C109.312 42.4421 108.552 43.0817 107.561 43.5419C106.578 43.9943 105.404 44.2204 104.039 44.2204Z" fill="white"/>
<defs>
<clipPath id="clip0_12_353">
<rect width="51" height="51" fill="white"/>
</clipPath>
</defs>
</svg>
