<svg width="39" height="35" viewBox="0 0 39 35" fill="none" xmlns="http://www.w3.org/2000/svg">
<path d="M10.5914 12.773L28.6599 12.4766C27.6077 10.7931 26.2479 9.09423 24.5825 7.50274C18.919 2.02201 12.1009 -0.140599 9.36086 2.71165C7.42648 4.71054 8.04473 8.67555 10.5914 12.773Z" stroke="white" stroke-opacity="0.1" stroke-miterlimit="10"/>
<path d="M28.6599 12.4765L19.8824 28.2759C21.8689 28.2023 24.0152 27.8802 26.2384 27.2495C33.8255 25.0759 39.0946 20.256 38.0078 16.4624C37.2465 13.7701 33.4932 12.3153 28.6599 12.4765Z" stroke="white" stroke-opacity="0.1" stroke-miterlimit="10"/>
<path d="M19.8825 28.2759L10.5916 12.7729C9.65729 14.53 8.87077 16.5511 8.31331 18.7937C6.38974 26.4481 7.93868 33.4307 11.7658 34.3925C14.4817 35.0652 17.6164 32.5343 19.8825 28.2759Z" stroke="white" stroke-opacity="0.1" stroke-miterlimit="10"/>
<path d="M19.5399 7.40078L28.8308 22.9038C29.7651 21.1467 30.5516 19.1256 31.1091 16.8829C33.0326 9.22862 31.4837 2.24613 27.6565 1.28434C24.941 0.632185 21.8063 3.16289 19.5399 7.40078Z" stroke="white" stroke-opacity="0.1" stroke-miterlimit="10"/>
<path d="M28.8311 22.9039L10.7626 23.2003C11.8148 24.8838 13.1746 26.5827 14.84 28.1742C20.5036 33.6549 27.3216 35.8177 30.0617 32.9655C31.9964 30.9871 31.3778 27.0014 28.8311 22.9039Z" stroke="white" stroke-opacity="0.1" stroke-miterlimit="10"/>
<path d="M10.7624 23.2002L19.5399 7.4008C17.5535 7.47436 15.4071 7.79645 13.1839 8.42716C5.59684 10.6007 0.327714 15.4207 1.4145 19.2143C2.17586 21.9066 5.9291 23.3614 10.7624 23.2002Z" stroke="white" stroke-opacity="0.1" stroke-miterlimit="10"/>
<path d="M28.66 12.4766L10.5915 12.773C11.5879 11.0559 12.8912 9.31331 14.5035 7.66805C19.9843 2.00452 26.7277 -0.380544 29.5598 2.38031C31.5587 4.31468 31.0709 8.29783 28.66 12.4766Z" stroke="white" stroke-opacity="0.1" stroke-miterlimit="10"/>
<path d="M10.5914 12.7729L19.8823 28.2759C17.8945 28.2675 15.7388 28.016 13.4961 27.4586C5.84182 25.535 0.417446 20.8904 1.37923 17.0633C2.05188 14.3474 5.75538 12.7703 10.5914 12.7729Z" stroke="white" stroke-opacity="0.1" stroke-miterlimit="10"/>
<path d="M19.8824 28.2758L28.6599 12.4764C29.6513 14.2019 30.5037 16.1961 31.1344 18.4193C33.308 26.0064 31.9889 33.0362 28.1953 34.123C25.503 34.8843 22.287 32.4576 19.8824 28.2758Z" stroke="white" stroke-opacity="0.1" stroke-miterlimit="10"/>
<path d="M19.5401 7.40071L10.7626 23.2001C9.77116 21.4746 8.91878 19.4804 8.28807 17.2572C6.11448 9.67011 7.43359 2.64057 11.2271 1.55378C13.9198 0.812909 17.1358 3.23944 19.5401 7.40071Z" stroke="white" stroke-opacity="0.1" stroke-miterlimit="10"/>
<path d="M10.7626 23.2002L28.8311 22.9038C27.8347 24.6209 26.5314 26.3635 24.9191 28.0087C19.4383 33.6723 12.6949 36.0575 9.86278 33.2967C7.86422 31.3828 8.35175 27.379 10.7626 23.2002Z" stroke="white" stroke-opacity="0.1" stroke-miterlimit="10"/>
<path d="M28.8311 22.9039L19.5401 7.40088C21.5279 7.40926 23.6836 7.66078 25.9263 8.21824C33.5806 10.1418 39.005 14.7864 38.0432 18.6135C37.3706 21.3294 33.6671 22.9065 28.8311 22.9039Z" stroke="white" stroke-opacity="0.1" stroke-miterlimit="10"/>
</svg>
