<svg width="210" height="79" fill="none" xmlns="http://www.w3.org/2000/svg"><path d="M22.994 45.129l11.66-5.054 6.71 3.79 1.356 12.433-8.27-.066 1.22-8.644-1.423-.797-6.982 5.319-4.271-6.981zm19.116-1.796l10.305 7.38 4.067-7.114-8.27-3.258v-1.596l8.27-3.324-4.067-7.048-10.304 7.38v7.58zm-.746-8.178l1.356-12.433-8.27.133 1.22 8.643-1.423.798-7.05-5.319-4.203 6.915 11.66 5.053 6.71-3.79zm42.708 2.865v11.648h4.451V34.824h-6.481v3.196h2.03zm-.139-5.282c.408.416 1.03.623 1.864.623.835 0 1.447-.207 1.836-.623.409-.433.612-.975.612-1.625 0-.668-.204-1.21-.612-1.625-.389-.434-1-.65-1.836-.65-.834 0-1.456.216-1.864.65-.389.415-.584.957-.584 1.625 0 .65.195 1.192.584 1.625zM68.578 49.343c1.26.56 2.809.84 4.645.84 1.725 0 3.208-.262 4.451-.786 1.243-.523 2.198-1.255 2.865-2.194.687-.957 1.03-2.068 1.03-3.332 0-1.228-.324-2.266-.974-3.115-.63-.867-1.511-1.544-2.642-2.031-1.132-.506-2.44-.822-3.923-.949l-1.558-.135c-.927-.072-1.595-.316-2.003-.731-.408-.416-.612-.903-.612-1.463 0-.434.112-.83.333-1.192.224-.38.557-.677 1.002-.894.464-.216 1.03-.325 1.697-.325.705 0 1.29.126 1.753.38.102.053.199.11.29.17l.022.016a2.473 2.473 0 01.773.816c.24.397.362.84.362 1.327h4.45c0-1.3-.306-2.43-.918-3.386-.611-.975-1.492-1.725-2.642-2.249-1.132-.541-2.495-.812-4.09-.812-1.52 0-2.837.253-3.95.758-1.113.488-1.984 1.192-2.615 2.113-.612.921-.918 2.014-.918 3.278 0 1.752.603 3.16 1.808 4.226 1.206 1.065 2.82 1.68 4.84 1.842l1.531.135c1.242.108 2.142.352 2.699.731.555.361.834.858.834 1.49 0 .29-.049.563-.147.818a2.236 2.236 0 01-.298.537c-.298.379-.733.677-1.308.894-.575.216-1.288.325-2.142.325-.946 0-1.715-.127-2.309-.38-.593-.27-1.038-.623-1.336-1.056a2.562 2.562 0 01-.416-1.409h-4.424c0 1.282.325 2.42.974 3.413.65.976 1.604 1.753 2.866 2.33zm29.877.515c-1.54 0-2.782-.18-3.728-.542-.946-.38-1.641-1.002-2.087-1.87-.426-.884-.64-2.076-.64-3.575v-5.878h-2.308v-3.17H92v-4.008h4.144v4.009h4.452v3.17h-4.452v6.04c0 .704.186 1.246.557 1.625.39.361.936.542 1.642.542h2.253v3.657h-2.142z" fill="#81818B"/><path fill-rule="evenodd" clip-rule="evenodd" d="M105.956 49.533c1.001.433 2.151.65 3.449.65 1.28 0 2.412-.217 3.394-.65.983-.434 1.8-1.039 2.448-1.815a6.19 6.19 0 001.308-2.655h-4.089c-.186.452-.538.83-1.057 1.138-.52.307-1.188.46-2.004.46a4.83 4.83 0 01-1.355-.174 3.072 3.072 0 01-.815-.367 3.153 3.153 0 01-1.224-1.517 5.908 5.908 0 01-.313-1.219h11.135V41.92c0-1.355-.297-2.6-.89-3.738a7.017 7.017 0 00-2.587-2.79c-1.113-.723-2.485-1.084-4.118-1.084-1.242 0-2.355.217-3.338.65-.964.416-1.771.984-2.42 1.707a7.868 7.868 0 00-1.503 2.465 8.15 8.15 0 00-.5 2.844v.542c0 .957.167 1.896.5 2.817a8.301 8.301 0 001.503 2.465c.667.723 1.492 1.3 2.476 1.734zm-.181-8.828a4.281 4.281 0 01.173-.61c.029-.08.059-.157.092-.233.277-.668.686-1.174 1.223-1.517.201-.128.419-.232.653-.312a4.074 4.074 0 011.322-.202c.761 0 1.391.171 1.892.514.519.325.909.804 1.169 1.436a5.81 5.81 0 01.146.413 5.363 5.363 0 01.161.725h-6.874a4.63 4.63 0 01.043-.214z" fill="#81818B"/><path d="M118.67 49.668V34.824h3.533v3.739a7.317 7.317 0 01.334-1.138c.389-1.012.973-1.77 1.752-2.276.779-.524 1.734-.786 2.866-.786h.194c1.151 0 2.105.262 2.866.786.779.506 1.363 1.264 1.752 2.275l.031.077.026.07.054-.147c.408-1.011 1.002-1.77 1.781-2.275.779-.524 1.734-.786 2.866-.786h.194c1.15 0 2.114.262 2.893.786.798.506 1.401 1.264 1.808 2.275.408 1.012.613 2.276.613 3.793v8.451h-4.451v-8.695c0-.813-.223-1.472-.668-1.977-.427-.506-1.039-.76-1.836-.76-.798 0-1.428.263-1.892.787-.463.505-.695 1.182-.695 2.031v8.614h-4.479v-8.695c0-.813-.223-1.472-.668-1.977-.426-.506-1.03-.76-1.808-.76-.816 0-1.456.263-1.919.787-.464.505-.696 1.182-.696 2.031v8.614h-4.451z" fill="#81818B"/><path fill-rule="evenodd" clip-rule="evenodd" d="M154.123 46.808v2.86h3.532v-9.101c0-1.373-.278-2.492-.834-3.36-.557-.884-1.372-1.543-2.448-1.977-1.057-.433-2.365-.65-3.923-.65a53.216 53.216 0 00-1.724.027c-.613.018-1.206.045-1.781.081l-.439.03a69.432 69.432 0 00-1.063.079v3.657a163.342 163.342 0 012.506-.137 77.743 77.743 0 011.472-.053 62.327 62.327 0 011.614-.027c.815 0 1.409.19 1.78.569.371.38.556.948.556 1.707v.054h-2.754c-1.353 0-2.55.171-3.589.514-1.038.325-1.845.84-2.419 1.544-.576.687-.863 1.572-.863 2.655 0 .993.232 1.851.695 2.574.464.703 1.104 1.245 1.92 1.624.835.38 1.799.57 2.893.57 1.057 0 1.948-.19 2.671-.57a4.108 4.108 0 001.725-1.624 4.866 4.866 0 00.437-.94l.036-.106zm-.752-2.639v-1.191h-2.782c-.779 0-1.381.189-1.808.568-.408.361-.612.858-.612 1.49 0 .298.051.568.152.812.103.244.256.461.46.65.427.362 1.029.543 1.808.543a4.3 4.3 0 00.43-.021c.113-.012.224-.029.33-.05a3.01 3.01 0 00.576-.173c.408-.18.742-.478 1.001-.894.26-.415.409-.993.445-1.733z" fill="#81818B"/><path d="M160.319 49.669V34.824h3.533v4.9c.17-1.4.596-2.527 1.28-3.383.928-1.138 2.262-1.707 4.006-1.707h.584v3.739h-1.113c-1.223 0-2.169.324-2.837.975-.668.632-1.002 1.553-1.002 2.763v7.558h-4.451zm15.048-6.935h1.474l4.813 6.934h5.007l-6.102-8.516 5.017-6.328h-4.673l-5.536 7.058V29.894h-4.451v19.775h4.451v-6.935z" fill="#81818B"/></svg>