<svg width="210" height="79" fill="none" xmlns="http://www.w3.org/2000/svg"><path d="M71.068 30.535c1.588 0 2.962.255 4.123.766 1.177.511 2.081 1.237 2.713 2.177.631.94.947 2.052.947 3.338 0 1.27-.316 2.382-.947 3.338-.632.94-1.536 1.665-2.713 2.177-1.161.494-2.535.741-4.123.741h-3.61v4.773h-4.146v-17.31h7.756zm-.23 9.273c1.246 0 2.193-.255 2.842-.766.648-.528.972-1.27.972-2.226 0-.973-.324-1.715-.972-2.226-.649-.527-1.597-.791-2.842-.791h-3.38v6.01h3.38zm13.227-3.511c.477-.643 1.118-1.13 1.92-1.46.819-.33 1.757-.494 2.816-.494v3.561a14.86 14.86 0 00-.897-.05c-1.143 0-2.039.314-2.687.94-.649.61-.973 1.534-.973 2.77v6.281H80.25V34.541h3.814v1.756zm12.259 11.746c-1.45 0-2.756-.288-3.917-.866-1.143-.593-2.04-1.41-2.688-2.448-.648-1.038-.972-2.217-.972-3.536s.324-2.498.972-3.536c.649-1.039 1.545-1.847 2.688-2.424 1.16-.593 2.466-.89 3.917-.89 1.45 0 2.748.297 3.891.89 1.144.577 2.04 1.385 2.689 2.424.648 1.038.972 2.217.972 3.536s-.324 2.498-.972 3.536c-.649 1.039-1.545 1.855-2.689 2.448-1.143.578-2.44.866-3.891.866zm0-3.165c1.024 0 1.86-.33 2.509-.99.666-.675.998-1.574.998-2.695 0-1.121-.332-2.011-.998-2.67-.649-.677-1.485-1.015-2.51-1.015-1.023 0-1.868.338-2.533 1.014-.666.66-.999 1.55-.999 2.671 0 1.121.333 2.02.999 2.696.665.66 1.51.989 2.534.989zm25.659-14.343v17.31h-3.405l-8.935-10.51v10.51h-4.096v-17.31h3.43l8.91 10.51v-10.51h4.096zm8.233 3.808c2.133 0 3.772.495 4.915 1.484 1.144.973 1.716 2.448 1.716 4.426v7.592h-3.738v-1.657c-.751 1.237-2.15 1.855-4.198 1.855-1.059 0-1.981-.173-2.766-.52-.767-.346-1.356-.823-1.766-1.434a3.645 3.645 0 01-.614-2.077c0-1.236.478-2.209 1.433-2.918.973-.709 2.467-1.063 4.481-1.063h3.174c0-.841-.264-1.484-.794-1.93-.529-.46-1.322-.691-2.38-.691a7.05 7.05 0 00-2.176.346c-.7.214-1.298.51-1.793.89l-1.433-2.696c.751-.51 1.646-.906 2.687-1.187a12.66 12.66 0 013.252-.42zm-.307 11.104c.683 0 1.289-.149 1.817-.446a2.583 2.583 0 001.127-1.36v-1.36h-2.739c-1.639 0-2.458.52-2.458 1.558 0 .495.196.89.589 1.187.409.28.964.42 1.664.42zm18.155 1.755c-.392.28-.879.495-1.459.643a7.864 7.864 0 01-1.792.198c-1.638 0-2.91-.404-3.814-1.212-.888-.808-1.332-1.995-1.332-3.56v-5.466h-2.124v-2.967h2.124v-3.24h3.994v3.24h3.43v2.967h-3.43v5.416c0 .56.145.997.435 1.31.307.297.734.446 1.28.446.632 0 1.169-.165 1.613-.495l1.075 2.72zm14.838-12.661v13.304h-3.789v-1.582a5.434 5.434 0 01-1.895 1.335 6.287 6.287 0 01-2.381.445c-1.809 0-3.242-.503-4.301-1.508-1.058-1.006-1.587-2.498-1.587-4.476V34.54h3.994v6.949c0 2.143.93 3.215 2.79 3.215.956 0 1.724-.297 2.305-.89.579-.61.87-1.509.87-2.696V34.54h3.994zm6.234 1.756c.477-.643 1.118-1.13 1.92-1.46.819-.33 1.758-.494 2.816-.494v3.561c-.444-.033-.743-.05-.896-.05-1.144 0-2.04.314-2.688.94-.649.61-.973 1.534-.973 2.77v6.281h-3.994V34.541h3.815v1.756zm19.197 4.946c0 .049-.025.395-.077 1.038h-10.419a3.126 3.126 0 001.331 1.954c.7.478 1.57.717 2.611.717.717 0 1.348-.1 1.894-.297a4.763 4.763 0 001.562-.99l2.125 2.227c-1.297 1.434-3.192 2.15-5.684 2.15-1.552 0-2.926-.287-4.121-.865-1.195-.593-2.116-1.41-2.765-2.448s-.972-2.217-.972-3.536c0-1.302.315-2.473.947-3.511a6.62 6.62 0 012.636-2.449c1.127-.593 2.381-.89 3.764-.89 1.348 0 2.568.28 3.661.84a6.157 6.157 0 012.56 2.424c.631 1.039.947 2.25.947 3.636zm-7.143-3.982c-.904 0-1.664.247-2.278.742-.615.495-.99 1.17-1.127 2.028h6.785c-.137-.841-.513-1.509-1.127-2.003-.614-.511-1.365-.767-2.253-.767z" fill="#81818B"/><path fill-rule="evenodd" clip-rule="evenodd" d="M40.568 20.895a2.024 2.024 0 00-1.967 0c-4.322 2.415-7.237 6.933-7.237 12.112 0 .738.059 1.462.173 2.17a11.107 11.107 0 00-8.828.843c-.61.34-.984.967-.984 1.646.003 3.583 1.93 7.074 5.38 8.998a10.996 10.996 0 005.363 1.394 7.053 7.053 0 00-.428 2.426c0 4.025 3.378 7.287 7.544 7.287 4.167 0 7.544-3.262 7.544-7.287 0-.853-.151-1.671-.43-2.431a10.99 10.99 0 005.03-1.389c3.45-1.924 5.377-5.416 5.38-8.998a1.886 1.886 0 00-.984-1.645 11.11 11.11 0 00-8.475-.953c.103-.673.156-1.361.156-2.061 0-5.179-2.915-9.697-7.237-12.112zm-5.276 12.112c0-3.363 1.686-6.347 4.292-8.205 2.607 1.858 4.292 4.842 4.292 8.205 0 3.363-1.685 6.347-4.292 8.205-2.606-1.858-4.292-4.842-4.292-8.205zm12.04 6.302a7.025 7.025 0 015.74-.49c-.34 1.852-1.494 3.547-3.308 4.559a7.026 7.026 0 01-5.742.489c.342-1.852 1.495-3.546 3.31-4.558zm-21.572-.49a7.025 7.025 0 015.742.49c1.814 1.011 2.967 2.706 3.309 4.558a7.024 7.024 0 01-5.741-.49c-1.814-1.011-2.968-2.706-3.31-4.558zm10.208 11.665c0-1.93 1.62-3.493 3.616-3.493 1.997 0 3.616 1.564 3.616 3.493 0 1.928-1.619 3.492-3.616 3.492s-3.616-1.564-3.616-3.492z" fill="#81818B"/></svg>