<svg width="210" height="79" fill="none" xmlns="http://www.w3.org/2000/svg"><path d="M75.707 51.566c-2.357 0-4.44-.475-6.25-1.424-1.81-.97-3.21-2.34-4.198-4.109-.99-1.769-1.484-3.85-1.484-6.244 0-2.394.495-4.476 1.483-6.244.99-1.79 2.389-3.16 4.199-4.11 1.81-.97 3.893-1.455 6.25-1.455 1.6 0 3.009.172 4.23.517 1.241.324 2.377.841 3.408 1.553v4.692a8.597 8.597 0 00-3.188-1.683c-1.178-.366-2.525-.55-4.04-.55-1.41 0-2.683.302-3.82.906a6.563 6.563 0 00-2.65 2.524c-.653 1.1-.98 2.383-.98 3.85 0 1.488.295 2.793.884 3.915a6.419 6.419 0 002.557 2.556c1.094.604 2.357.906 3.788.906 1.305 0 2.44-.238 3.409-.712v-4.368h-3.567v-3.624h8.207v10.904c-2.083 1.466-4.83 2.2-8.238 2.2zm9.346-16.016h4.609v2.233c.61-.755 1.462-1.327 2.556-1.715 1.094-.41 2.337-.614 3.725-.614v3.72c-1.452 0-2.736.227-3.85.68-1.095.453-1.853 1.143-2.273 2.07v9.157h-4.767V35.55zm20.05 16.016c-2.904 0-5.188-.712-6.85-2.136-1.662-1.444-2.494-3.462-2.494-6.05 0-2.567.737-4.594 2.21-6.082 1.494-1.489 3.62-2.233 6.376-2.233 1.81 0 3.346.345 4.609 1.035 1.262.69 2.22 1.65 2.872 2.88.653 1.208.979 2.578.979 4.109v1.974h-12.5c.336 1.984 2.146 2.976 5.429 2.976.968 0 1.968-.086 2.999-.259 1.031-.172 1.925-.41 2.683-.711v3.43c-.737.322-1.684.582-2.841.776a21 21 0 01-3.472.291zm3.188-9.674c-.063-1.035-.442-1.834-1.136-2.394-.695-.583-1.653-.874-2.873-.874-1.199 0-2.146.291-2.841.874-.694.582-1.073 1.38-1.136 2.394h7.986zm14.283 9.674c-2.903 0-5.187-.712-6.849-2.136-1.662-1.444-2.494-3.462-2.494-6.05 0-2.567.736-4.594 2.21-6.082 1.494-1.489 3.619-2.233 6.376-2.233 1.809 0 3.346.345 4.609 1.035 1.262.69 2.219 1.65 2.871 2.88.653 1.208.979 2.578.979 4.109v1.974h-12.5c.337 1.984 2.147 2.976 5.43 2.976.968 0 1.968-.086 2.998-.259 1.031-.172 1.926-.41 2.683-.711v3.43c-.736.322-1.683.582-2.84.776a21.012 21.012 0 01-3.473.291zm3.189-9.674c-.064-1.035-.442-1.834-1.136-2.394-.696-.583-1.653-.874-2.873-.874-1.2 0-2.146.291-2.841.874-.695.582-1.073 1.38-1.137 2.394h7.987zm5.571-6.342h4.608v1.91a6.512 6.512 0 012.463-1.78 7.695 7.695 0 013.03-.615c2.063 0 3.599.572 4.608 1.715 1.032 1.122 1.548 2.642 1.548 4.562v9.739h-4.767v-9.19c0-2.005-.905-3.008-2.715-3.008-.799 0-1.546.205-2.241.615-.694.388-1.284.97-1.768 1.747v9.836h-4.766V35.55zm20.461-2.394c-.736 0-1.356-.248-1.861-.744-.506-.496-.758-1.121-.758-1.876 0-.734.252-1.349.758-1.845a2.498 2.498 0 011.861-.776c.737 0 1.358.259 1.863.776.505.497.758 1.111.758 1.845 0 .755-.253 1.38-.758 1.876s-1.126.744-1.863.744zm-2.398 2.395h4.798v15.53h-4.798V35.55zm12.927 16.015c-1.136 0-2.357-.13-3.662-.389-1.283-.237-2.293-.582-3.03-1.035v-3.818c.842.518 1.852.939 3.03 1.262 1.179.324 2.273.485 3.283.485.863 0 1.494-.075 1.894-.226.399-.15.599-.431.599-.841a.962.962 0 00-.347-.777c-.231-.215-.589-.399-1.073-.55-.463-.172-1.242-.42-2.336-.744-1.283-.388-2.294-.776-3.03-1.164-.715-.41-1.262-.917-1.641-1.521-.358-.604-.537-1.38-.537-2.33 0-1.617.621-2.825 1.863-3.623 1.262-.82 2.966-1.23 5.113-1.23 1.052 0 2.136.119 3.251.356 1.136.216 2.01.507 2.62.874v3.72c-.61-.41-1.41-.744-2.399-1.003a10.974 10.974 0 00-2.841-.388c-.863 0-1.536.086-2.02.259-.463.172-.695.496-.695.97 0 .41.221.723.664.939.462.216 1.315.485 2.556.809l.632.162c1.325.366 2.356.776 3.093 1.229.736.431 1.252.96 1.547 1.585.315.604.473 1.37.473 2.297 0 1.424-.6 2.567-1.799 3.43-1.199.841-2.936 1.262-5.208 1.262zm8.109-24.396h4.766v10.16a6.902 6.902 0 012.431-1.682 7.286 7.286 0 012.904-.583c2.062 0 3.598.572 4.608 1.715 1.031 1.122 1.547 2.642 1.547 4.562v9.739h-4.766v-9.19c0-2.005-.905-3.008-2.715-3.008-.8 0-1.546.205-2.241.615-.695.388-1.284.97-1.768 1.747v9.836h-4.766V27.17z" fill="#81818B"/><path fill-rule="evenodd" clip-rule="evenodd" d="M47.497 31.749c0 4.11-3.25 7.441-7.26 7.441s-7.26-3.332-7.26-7.441c0-4.11 3.25-7.442 7.26-7.442s7.26 3.332 7.26 7.442zm-24.147 6.9c7.91-.546 14.803 5.524 15.445 13.648.067.842.064 1.673-.004 2.488-7.91.546-14.803-5.524-15.445-13.648a15.366 15.366 0 01.004-2.488zM43.908 54.5c7.927-.658 13.848-7.724 13.315-15.83a14.27 14.27 0 00-2.427-.006c-7.926.658-13.848 7.724-13.315 15.831.795.07 1.606.074 2.427.005z" fill="#81818B"/></svg>