<svg width="210" height="79" fill="none" xmlns="http://www.w3.org/2000/svg"><path fill-rule="evenodd" clip-rule="evenodd" d="M29.415 30.97c2.74-3.502 7.129-5.77 12.075-5.77 4.975 0 9.385 2.295 12.122 5.832a4.182 4.182 0 00-.318.35c-.502.617-.879 1.411-1.181 2.218-.609 1.623-1.073 3.743-1.502 5.728l-.039.178c-.429 1.982-.827 3.824-1.31 5.192-.216.615-.42 1.05-.603 1.327-.19-.28-.406-.72-.634-1.343-.515-1.407-.949-3.321-1.408-5.365l-.015-.067c-.442-1.963-.91-4.046-1.494-5.64-.294-.8-.654-1.587-1.125-2.199-.462-.6-1.231-1.276-2.356-1.276-1.119 0-1.891.67-2.36 1.262-.48.608-.855 1.39-1.163 2.192-.62 1.614-1.128 3.724-1.6 5.712l-.05.205c-.467 1.97-.904 3.81-1.4 5.18-.19.524-.37.922-.53 1.207a8.037 8.037 0 01-.518-1.198c-.476-1.341-.893-3.13-1.341-5.052l-.079-.337c-.464-1.989-.967-4.103-1.597-5.722-.313-.804-.696-1.591-1.19-2.201a4.139 4.139 0 00-.384-.412zm-1.658 2.69c.13.245.268.548.411.915.545 1.401 1.007 3.313 1.483 5.35l.092.397c.433 1.859.883 3.792 1.414 5.286.282.795.623 1.573 1.06 2.178.415.572 1.159 1.31 2.302 1.31 1.14 0 1.885-.735 2.302-1.304.442-.603.788-1.38 1.076-2.176.552-1.523 1.021-3.502 1.471-5.396l.069-.29c.484-2.038.95-3.954 1.492-5.36.25-.651.485-1.105.69-1.387.193.28.414.726.649 1.366.515 1.408.948 3.322 1.408 5.365l.015.067c.441 1.963.91 4.046 1.494 5.64.293.801.654 1.588 1.124 2.199.463.6 1.232 1.277 2.357 1.277 1.131 0 1.897-.683 2.354-1.289.464-.614.813-1.403 1.094-2.203.542-1.536.972-3.53 1.383-5.426l.059-.276c.442-2.04.866-3.947 1.39-5.344a8.68 8.68 0 01.332-.78 13.633 13.633 0 011.248 5.707c0 7.89-6.732 14.286-15.036 14.286-8.304 0-15.036-6.396-15.036-14.286 0-2.075.465-4.047 1.303-5.826zM41.49 22.342c-9.965 0-18.043 7.675-18.043 17.144 0 9.468 8.078 17.143 18.043 17.143s18.043-7.675 18.043-17.143-8.078-17.144-18.043-17.144zm.344 10.602l-.01.007a.041.041 0 01.01-.007zm-.416.002a.043.043 0 01-.01-.007l.01.007zm7.02 13.35l.01-.006-.01.007zm.437-.01c.007.003.01.006.01.006l-.01-.007zm-14.664.036l.012-.01a.075.075 0 01-.012.01zm.608-.007c.01.006.013.01.013.01l-.013-.01z" fill="#81818B"/><path d="M69.496 49.635l-4.375-14.22h3.832l2.595 10.235 3.017-10.236h4.285l3.018 10.236 2.625-10.236h3.833L83.92 49.635h-4.013l-3.2-10.637-3.197 10.637h-4.014zm24.453.345c-1.287 0-2.344-.192-3.169-.574-.824-.402-1.438-.927-1.84-1.577a4.006 4.006 0 01-.603-2.15c0-1.32.542-2.39 1.629-3.212 1.086-.822 2.716-1.232 4.888-1.232h3.802v-.344c0-.975-.291-1.692-.875-2.15-.583-.46-1.308-.689-2.172-.689-.785 0-1.47.182-2.052.545-.584.344-.946.86-1.087 1.548h-3.772c.101-1.032.463-1.93 1.087-2.695.644-.765 1.469-1.348 2.474-1.749 1.006-.42 2.132-.63 3.38-.63 2.132 0 3.812.506 5.039 1.519 1.227 1.013 1.841 2.447 1.841 4.3v8.745h-3.29l-.361-2.293c-.443.764-1.067 1.395-1.871 1.892-.785.497-1.8.745-3.048.745zm.875-2.868c1.107 0 1.961-.344 2.565-1.032.623-.688 1.016-1.539 1.177-2.552h-3.29c-1.025 0-1.76.182-2.202.545-.442.344-.664.774-.664 1.29 0 .554.222.984.664 1.29.443.306 1.026.459 1.75.459zm13.775 2.523l-5.492-14.22h4.043l3.802 10.751 3.803-10.752h4.043l-5.522 14.221h-4.677zm17.963.345c-1.508 0-2.846-.307-4.013-.918a6.844 6.844 0 01-2.746-2.58c-.664-1.11-.995-2.39-.995-3.843 0-1.471.322-2.78.965-3.927a6.966 6.966 0 012.716-2.667c1.166-.65 2.534-.975 4.104-.975 1.468 0 2.766.306 3.893.918a6.636 6.636 0 012.625 2.523c.643 1.051.966 2.227.966 3.526 0 .21-.011.43-.031.66 0 .23-.01.468-.03.716H122.64c.08 1.11.483 1.979 1.207 2.61.744.63 1.64.946 2.686.946.784 0 1.438-.163 1.961-.488a3.227 3.227 0 001.207-1.319h3.922a6.68 6.68 0 01-1.418 2.466c-.644.726-1.448 1.3-2.414 1.72-.945.42-2.022.631-3.229.631zm.031-11.928c-.945 0-1.781.258-2.505.774-.724.497-1.187 1.262-1.388 2.294h7.453c-.06-.937-.422-1.682-1.086-2.236-.664-.555-1.488-.832-2.474-.832zm9.525 11.583V28.992h3.862v20.643h-3.862zm13.873.345c-1.508 0-2.846-.307-4.013-.918a6.835 6.835 0 01-2.745-2.58c-.665-1.11-.996-2.39-.996-3.843 0-1.471.322-2.78.965-3.927a6.966 6.966 0 012.716-2.667c1.167-.65 2.535-.975 4.104-.975 1.468 0 2.766.306 3.893.918 1.126.611 2.002 1.453 2.625 2.523.643 1.051.966 2.227.966 3.526 0 .21-.011.43-.031.66 0 .23-.01.468-.03.716h-11.376c.08 1.11.483 1.979 1.207 2.61.744.63 1.64.946 2.686.946.784 0 1.438-.163 1.961-.488a3.227 3.227 0 001.207-1.319h3.923a6.709 6.709 0 01-1.418 2.466c-.645.726-1.449 1.3-2.415 1.72-.945.42-2.021.631-3.229.631zm.031-11.928c-.945 0-1.78.258-2.505.774-.724.497-1.186 1.262-1.388 2.294h7.453c-.06-.937-.422-1.682-1.086-2.236-.664-.555-1.488-.832-2.474-.832zm15.711 11.928c-1.328 0-2.495-.202-3.5-.603-1.007-.42-1.811-.994-2.415-1.72a4.813 4.813 0 01-1.086-2.523h3.893c.12.554.443 1.032.966 1.433.542.383 1.236.574 2.081.574s1.459-.163 1.841-.488c.402-.325.604-.697.604-1.118 0-.612-.282-1.023-.845-1.233-.563-.23-1.348-.449-2.354-.66a26.933 26.933 0 01-1.961-.486 10.404 10.404 0 01-1.841-.717 4.2 4.2 0 01-1.328-1.147c-.342-.478-.512-1.06-.512-1.749 0-1.261.522-2.322 1.569-3.182 1.066-.86 2.554-1.29 4.465-1.29 1.771 0 3.179.391 4.225 1.175 1.066.784 1.7 1.863 1.901 3.24h-3.651c-.222-1.052-1.057-1.577-2.504-1.577-.725 0-1.288.134-1.69.401-.383.268-.574.602-.574 1.004 0 .42.292.755.875 1.003.584.249 1.358.478 2.324.688a29.06 29.06 0 012.866.774c.885.268 1.589.679 2.113 1.233.523.535.784 1.31.784 2.322.02.88-.222 1.673-.724 2.38-.503.707-1.227 1.261-2.173 1.663-.945.401-2.062.602-3.349.602zm14.646 0c-1.327 0-2.494-.202-3.5-.603-1.006-.42-1.81-.994-2.414-1.72a4.805 4.805 0 01-1.086-2.523h3.893c.12.554.442 1.032.965 1.433.543.383 1.237.574 2.082.574.845 0 1.459-.163 1.841-.488.402-.325.604-.697.604-1.118 0-.612-.282-1.023-.846-1.233-.563-.23-1.347-.449-2.353-.66a26.83 26.83 0 01-1.962-.486 10.393 10.393 0 01-1.84-.717 4.2 4.2 0 01-1.328-1.147c-.342-.478-.513-1.06-.513-1.749 0-1.261.523-2.322 1.569-3.182 1.067-.86 2.555-1.29 4.466-1.29 1.77 0 3.178.391 4.225 1.175 1.065.784 1.699 1.863 1.901 3.24h-3.652c-.221-1.052-1.056-1.577-2.504-1.577-.725 0-1.288.134-1.69.401-.382.268-.573.602-.573 1.004 0 .42.291.755.875 1.003.583.249 1.357.478 2.323.688 1.046.23 2.002.488 2.867.774.885.268 1.589.679 2.112 1.233.523.535.785 1.31.785 2.322a3.85 3.85 0 01-.725 2.38c-.503.707-1.226 1.261-2.172 1.663-.946.401-2.062.602-3.35.602z" fill="#81818B"/></svg>