<svg width="39" height="35" fill="none" xmlns="http://www.w3.org/2000/svg"><path d="M10.591 12.773l18.069-.296a25.955 25.955 0 00-4.078-4.974C18.92 2.022 12.101-.141 9.361 2.712 7.426 4.71 8.045 8.676 10.59 12.773z" stroke="#fff" stroke-opacity=".1" stroke-miterlimit="10"/><path d="M28.66 12.476l-8.778 15.8a27.033 27.033 0 006.356-1.026c7.587-2.174 12.857-6.994 11.77-10.788-.762-2.692-4.515-4.147-9.348-3.986z" stroke="#fff" stroke-opacity=".1" stroke-miterlimit="10"/><path d="M19.883 28.276l-9.291-15.503c-.935 1.757-1.721 3.778-2.279 6.02-1.923 7.655-.374 14.638 3.453 15.6 2.716.672 5.85-1.859 8.117-6.117zM19.54 7.4l9.29 15.504c.935-1.757 1.722-3.778 2.28-6.021 1.923-7.654.374-14.637-3.453-15.599-2.716-.652-5.85 1.879-8.117 6.117z" stroke="#fff" stroke-opacity=".1" stroke-miterlimit="10"/><path d="M28.831 22.904l-18.068.296a25.956 25.956 0 004.077 4.974c5.664 5.48 12.482 7.644 15.222 4.791 1.934-1.978 1.316-5.964-1.23-10.061zm-18.069.296L19.54 7.4a27.03 27.03 0 00-6.356 1.027C5.597 10.601.328 15.421 1.414 19.214c.762 2.693 4.515 4.147 9.348 3.986z" stroke="#fff" stroke-opacity=".1" stroke-miterlimit="10"/><path d="M28.66 12.477l-18.069.296c.997-1.717 2.3-3.46 3.913-5.105C19.983 2.005 26.727-.38 29.56 2.38c1.999 1.935 1.51 5.918-.9 10.097z" stroke="#fff" stroke-opacity=".1" stroke-miterlimit="10"/><path d="M10.591 12.773l9.291 15.503a27.034 27.034 0 01-6.386-.817C5.842 25.535.417 20.89 1.38 17.063c.673-2.716 4.376-4.293 9.212-4.29zm9.291 15.503l8.778-15.8c.991 1.726 1.844 3.72 2.474 5.943 2.174 7.587.855 14.617-2.939 15.704-2.692.761-5.908-1.665-8.313-5.847z" stroke="#fff" stroke-opacity=".1" stroke-miterlimit="10"/><path d="M19.54 7.4l-8.777 15.8c-.992-1.725-1.844-3.72-2.475-5.943-2.174-7.587-.854-14.616 2.94-15.703C13.92.813 17.135 3.239 19.54 7.4z" stroke="#fff" stroke-opacity=".1" stroke-miterlimit="10"/><path d="M10.763 23.2l18.068-.296a25.953 25.953 0 01-3.912 5.105c-5.48 5.663-12.224 8.048-15.056 5.288-1.999-1.914-1.511-5.918.9-10.097z" stroke="#fff" stroke-opacity=".1" stroke-miterlimit="10"/><path d="M28.831 22.904L19.541 7.4a27.03 27.03 0 016.385.817c7.655 1.924 13.079 6.568 12.117 10.395-.672 2.716-4.376 4.294-9.212 4.29z" stroke="#fff" stroke-opacity=".1" stroke-miterlimit="10"/></svg>