<svg width="16" height="12" fill="none" xmlns="http://www.w3.org/2000/svg"><path d="M4.175.08c.298.095.652.163.969.25.184.05.372.1.498.179.121.073 2.583.965 2.562 1.042.203.061.307.096.45.16.287.126.596.244.805.406.188.145.374.29.636.402.28.12.542.247.824.365.296.124.629.23.905.364.282.136.502.302.775.443.138.072.35.11.492.18.098.049.12.132.205.187.062.04.17.059.262.085.027.008.084 0 .102.012.26.166.526.33.777.5l-.303-.092c.467.133 1.189.412 1.588.65.455.27.37.392.281.521-.26.381-.99.52-1.419.818-.385.268-.976.443-1.5.649-.24.093-.418.215-.64.316-.407.186-.825.366-1.24.548-.319.14-.654.273-.956.422-.27.132-.494.285-.758.42-.113.058-.283.088-.412.139-.281.11-.554.223-.829.336-.162.066-.333.128-.482.2-.277.132-.355.411-.658.553-.302.142-2.344 1.08-2.651 1.243-.308.163-.413.359-.993.382-.626-.239-1.327-.516-1.726-.803-.235-.169-.318-.31-.373-.436-.13-.3-.17-.56.064-.718.205-.14.35-.306.534-.454.108-.087.216-.175.382-.234.157-.056 2.06-1.21 2.224-1.2a1.93 1.93 0 01.34-.212c.27-.134.521-.279.866-.377.31-.088.62-.175.859-.298.254-.131.526-.254.778-.386.264-.14.492-.295.777-.424.29-.133.643-.236.944-.364.154-.065.237-.163.386-.23.063-.029.155-.043.244-.06a.518.518 0 00-.037-.022c-.2-.112-.46-.196-.676-.3-.396-.19-.78-.387-1.169-.58-.3-.15-.583-.308-.899-.45-.282-.126-.61-.231-.897-.355-.123-.052-.188-.132-.295-.193-.234-.132-.477-.26-.718-.388-.14-.076-.273-.156-.426-.226-.283-.13-.878-.167-1.18-.308-.302-.142-2.303-1.1-2.652-1.244C.466 1.354.049 1.305 0 1.033.51.74 1.1.411 1.713.224c.36-.11.66-.15.93-.175.64-.061 1.193-.08 1.532.03z" fill="#0B4A72"/></svg>