<svg width="24" height="4" fill="none" xmlns="http://www.w3.org/2000/svg"><path d="M1.765 3.51c-.596.02-1.071.168-1.643-.084C.016 2.89-.084 2.277.11 1.798c.114-.282.311-.463.506-.617.463-.365.93-.645 1.452-.695.456-.044.91-.144 1.366-.206.266-.036.534-.074.8-.055.253.017 4.221-.248 4.351-.16a6.57 6.57 0 01.718-.053c.506-.007 1.016-.035 1.52.03.453.058.903.116 1.359.105.485-.011.97-.007 1.456-.021.51-.016 1.02-.065 1.529-.061.521.004 1.042.067 1.563.08.266.008.532-.053.799-.05.182.002.363.076.546.09.134.011.27-.02.405-.037.039-.005.077-.04.115-.037.669.054 1.338.1 2.005.171.706.076 1.443-.072 2.136.068.405.083.812.357 1.045.858.166.355.281.98.183 1.408-.113.49-.426.572-.756.66-.975.262-1.909.057-2.877.155-.87.088-1.746-.015-2.622-.056-.398-.018-.797.02-1.195.017-.73-.005-1.46-.02-2.19-.033-.562-.01-1.125-.034-1.687-.027-.502.005-1.003.054-1.505.066-.214.004-.428-.046-.642-.056-.469-.022-.938-.036-1.406-.053-.276-.01-.551-.028-.827-.026-.508.003-1.12.248-1.67.248-.55 0-4.225-.02-4.822 0z" fill="#0B4A72"/></svg>