<svg width="250" height="466" fill="none" xmlns="http://www.w3.org/2000/svg"><g clip-path="url(#clip0_1_2722)" stroke="#D2EBD5"><g opacity=".4"><path d="M-94.294 125.277a2.233 2.233 0 00-.655 1.573v11.873c0 1.227.991 2.217 2.218 2.217h11.845a2.22 2.22 0 001.57-.65l82.6-82.766c.418-.418.656-.986.656-1.573V44.077a2.214 2.214 0 00-2.218-2.217H-10.13c-.589 0-1.155.234-1.57.65l-82.595 82.767zm0 0l-.324-.326m173.952 2.948h-11.85a2.215 2.215 0 01-2.22-2.217v-11.875c0-.587.238-1.154.656-1.573l38.639-38.716c.415-.416.981-.65 1.57-.65h11.851c1.228 0 2.219.99 2.219 2.217v11.874c0 .587-.239 1.154-.656 1.573l-38.64 38.716a2.217 2.217 0 01-1.569.651zm-61.222-56.65H6.262a2.214 2.214 0 01-2.22-2.216V57.158c0-.587.239-1.154.656-1.573l29.44-29.498c.415-.416.981-.65 1.57-.65h11.85c1.228 0 2.22.99 2.22 2.216v11.875c0 .586-.239 1.154-.656 1.572l-29.44 29.5a2.22 2.22 0 01-1.57.65zm124.119-5.031H130.38A2.215 2.215 0 01128.161 64V52.127c0-.587.238-1.155.656-1.573l29.439-29.498c.416-.417.982-.65 1.57-.65h11.851c1.227 0 2.219.99 2.219 2.216v11.874c0 .587-.238 1.155-.656 1.573l-29.439 29.499c-.416.416-.982.65-1.57.65zm-37.14 6.373H93.24a2.215 2.215 0 01-2.219-2.216V58.5c0-.587.238-1.154.656-1.573l19.738-19.777c.415-.416.981-.65 1.569-.65h11.851c1.227 0 2.219.99 2.219 2.216V50.59c0 .587-.238 1.155-.655 1.573l-19.738 19.778c-.416.416-.982.65-1.57.65zM19.037 189.384H7.186a2.214 2.214 0 01-2.219-2.216v-11.875c0-.586.238-1.155.656-1.573l19.738-19.777a2.22 2.22 0 011.57-.65h11.85c1.228 0 2.219.989 2.219 2.216v11.874c0 .587-.238 1.155-.655 1.573l-19.738 19.778a2.22 2.22 0 01-1.57.65zm90.576-30.143H97.762a2.214 2.214 0 01-2.219-2.216v-11.874c0-.587.238-1.155.655-1.573l19.739-19.778c.415-.416.981-.65 1.569-.65h11.852c1.227 0 2.218.989 2.218 2.217v11.874c0 .586-.238 1.155-.655 1.573l-19.738 19.777c-.416.416-.982.65-1.57.65zm2.231-123.333a2.22 2.22 0 01-1.397.644H98.43a2.214 2.214 0 01-2.219-2.217V22.461c0-.587.238-1.155.656-1.573L116.598 1.11a2.22 2.22 0 011.57-.65h11.85c1.228 0 2.219.989 2.219 2.216v11.881c0 .587-.238 1.155-.655 1.573l-19.738 19.777zM55.019 182.433H43.168a2.214 2.214 0 01-2.219-2.216v-11.875c0-.587.238-1.155.656-1.573l37.527-37.602a2.22 2.22 0 011.57-.65h11.851c1.227 0 2.22.989 2.22 2.215v11.875c0 .587-.239 1.155-.657 1.573l-37.527 37.602a2.217 2.217 0 01-1.57.651z"/><path d="M44.205 134.936H32.354a2.215 2.215 0 01-2.219-2.216v-11.875c0-.587.238-1.155.656-1.573l19.738-19.777a2.22 2.22 0 011.57-.65h11.85c1.228 0 2.219.99 2.219 2.216v11.874c0 .588-.238 1.155-.655 1.573l-19.739 19.777a2.217 2.217 0 01-1.57.651zm-40.81-19.443h-11.85a2.215 2.215 0 01-2.219-2.216v-11.875c0-.587.238-1.154.655-1.573l29.44-29.498a2.22 2.22 0 011.57-.65h11.85c1.228 0 2.22.99 2.22 2.216v11.875c0 .586-.238 1.154-.656 1.573l-29.44 29.498a2.22 2.22 0 01-1.57.65zM-1.96 151.03h-11.85a2.215 2.215 0 01-2.219-2.217v-11.874c0-.587.238-1.154.656-1.572l29.44-29.499c.415-.417.98-.65 1.57-.65h11.85c1.227 0 2.219.99 2.219 2.216v11.875c0 .587-.238 1.154-.656 1.573L-.39 150.38a2.22 2.22 0 01-1.57.65zm51.186-51.96H37.375a2.214 2.214 0 01-2.219-2.216V84.98c0-.587.238-1.155.656-1.573l39.476-39.555c.415-.416.981-.65 1.57-.65h11.85c1.228 0 2.22.99 2.22 2.216v11.875a2.24 2.24 0 01-.656 1.573L50.796 98.42a2.22 2.22 0 01-1.57.65z"/></g><g opacity=".4"><path d="M-18.65 367.285a2.232 2.232 0 00-.655 1.573v11.873c0 1.227.991 2.217 2.218 2.217h11.845a2.22 2.22 0 001.57-.65l82.6-82.766c.418-.418.656-.986.656-1.573v-11.875a2.214 2.214 0 00-2.218-2.215H65.515a2.22 2.22 0 00-1.57.649l-82.595 82.767zm0 0l-.324-.326"/><path d="M-20.992 428.232h-11.85a2.215 2.215 0 01-2.22-2.217v-11.874c0-.587.239-1.154.656-1.573l29.44-29.498a2.217 2.217 0 011.57-.651h11.85c1.228 0 2.22.99 2.22 2.217v11.874c0 .588-.239 1.155-.656 1.573l-29.44 29.499a2.22 2.22 0 01-1.57.65zm37.469-128.721H4.626a2.214 2.214 0 01-2.219-2.217V285.42c0-.586.238-1.154.656-1.573l18.399-18.435a2.22 2.22 0 011.57-.65h11.85c1.228 0 2.219.989 2.219 2.216v11.874c0 .587-.238 1.155-.655 1.573l-18.4 18.436a2.22 2.22 0 01-1.57.65zm138.501 70.394h-11.851a2.213 2.213 0 01-2.218-2.215v-11.875c0-.587.237-1.155.655-1.573l38.639-38.716c.416-.416.982-.65 1.57-.65h11.851c1.227 0 2.219.989 2.219 2.216v11.875c0 .586-.238 1.154-.655 1.572l-38.64 38.717a2.22 2.22 0 01-1.57.649zm-61.222-56.648h-11.85a2.215 2.215 0 01-2.22-2.217v-11.875c0-.586.239-1.153.656-1.572l29.44-29.498a2.217 2.217 0 011.57-.651h11.85c1.228 0 2.219.99 2.219 2.217v11.874c0 .587-.238 1.155-.655 1.573l-29.44 29.499a2.22 2.22 0 01-1.57.65zm124.119-5.031h-11.851a2.215 2.215 0 01-2.219-2.217v-11.875c0-.586.238-1.153.655-1.572l29.441-29.498c.415-.417.98-.651 1.57-.651h11.85c1.228 0 2.219.99 2.219 2.217v11.875a2.24 2.24 0 01-.656 1.573l-29.439 29.498c-.416.416-.982.65-1.57.65zm-37.14 6.373h-11.851a2.215 2.215 0 01-2.219-2.217v-11.875c0-.586.238-1.154.656-1.573l19.738-19.777a2.218 2.218 0 011.57-.649h11.851c1.227 0 2.219.989 2.219 2.216v11.874c0 .587-.239 1.155-.656 1.573l-19.738 19.778c-.415.416-.981.65-1.57.65zM94.681 431.392H82.83a2.214 2.214 0 01-2.219-2.216v-11.875c0-.586.238-1.155.656-1.573l19.738-19.777c.415-.416.981-.65 1.569-.65h11.852c1.227 0 2.218.989 2.218 2.216v11.874c0 .587-.238 1.155-.655 1.573l-19.738 19.778a2.22 2.22 0 01-1.57.65zm90.576-30.143h-11.851a2.213 2.213 0 01-2.218-2.216v-11.874c0-.587.238-1.155.655-1.573l19.738-19.778c.415-.416.981-.65 1.57-.65h11.851c1.227 0 2.219.989 2.219 2.217v11.874c0 .586-.238 1.155-.656 1.573l-19.738 19.777a2.22 2.22 0 01-1.57.65zm2.231-123.333a2.217 2.217 0 01-1.397.643h-12.017a2.213 2.213 0 01-2.218-2.215v-11.875c0-.587.237-1.155.655-1.573l19.731-19.778c.415-.416.981-.65 1.57-.65h11.851c1.227 0 2.218.989 2.218 2.217v11.881c0 .587-.238 1.154-.655 1.573l-19.738 19.777zM130.663 424.44h-11.851a2.213 2.213 0 01-2.218-2.215V410.35c0-.587.237-1.155.655-1.573l37.528-37.602a2.215 2.215 0 011.569-.651h11.852c1.227 0 2.217.989 2.217 2.216v11.875c0 .587-.237 1.155-.655 1.573l-37.527 37.602c-.416.416-.982.65-1.57.65zM11.287 334.879H-.563a2.214 2.214 0 01-2.22-2.216v-11.874c0-.587.238-1.155.656-1.573l19.738-19.778a2.22 2.22 0 011.57-.65h11.85c1.228 0 2.22.989 2.22 2.217v11.874a2.24 2.24 0 01-.656 1.573l-19.738 19.777a2.22 2.22 0 01-1.57.65z"/><path d="M119.848 376.943h-11.85a2.214 2.214 0 01-2.219-2.216v-11.874c0-.587.238-1.155.656-1.573l19.738-19.778c.415-.416.981-.65 1.57-.65h11.851c1.227 0 2.219.99 2.219 2.217v11.874c0 .587-.239 1.154-.657 1.573l-19.738 19.777c-.415.416-.98.65-1.57.65zM79.04 357.501H67.189a2.215 2.215 0 01-2.219-2.217V343.41c0-.587.238-1.154.656-1.573l29.44-29.498a2.217 2.217 0 011.57-.651h11.85c1.227 0 2.219.991 2.219 2.217v11.874a2.23 2.23 0 01-.656 1.573l-29.44 29.499a2.22 2.22 0 01-1.57.65zm-5.355 35.537H61.834a2.215 2.215 0 01-2.219-2.217v-11.875c0-.586.238-1.154.656-1.573l29.44-29.498a2.22 2.22 0 011.57-.65h11.85c1.227 0 2.218.989 2.218 2.217v11.874c0 .586-.237 1.154-.655 1.573l-29.44 29.498a2.217 2.217 0 01-1.57.651z"/><path d="M25.176 411.473h-11.85a2.215 2.215 0 01-2.22-2.216v-11.874c0-.588.239-1.155.656-1.573l39.476-39.555c.416-.417.981-.65 1.57-.65h11.85c1.228 0 2.22.989 2.22 2.216v11.874c0 .587-.238 1.155-.656 1.573l-39.476 39.555a2.22 2.22 0 01-1.57.65zm99.693-70.395h-11.85a2.213 2.213 0 01-2.218-2.216v-11.875c0-.586.238-1.155.655-1.573l39.476-39.554a2.217 2.217 0 011.57-.651h11.851c1.227 0 2.218.99 2.218 2.217V299.3c0 .588-.237 1.155-.656 1.573l-39.476 39.555c-.415.416-.98.65-1.57.65z"/></g></g><defs><clipPath id="clip0_1_2722"><path fill="#fff" d="M0 0h250v466H0z"/></clipPath></defs></svg>