<svg width="19" height="26" fill="none" xmlns="http://www.w3.org/2000/svg"><path d="M17.672 8.847a2.483 2.483 0 00-.702-1.554 2.155 2.155 0 00-1.554-.652h-1.328V5.49a4.404 4.404 0 00-1.328-3.183A4.492 4.492 0 009.577.977a4.407 4.407 0 00-3.183 1.329 4.406 4.406 0 00-1.328 3.183V6.64H3.737c-.626 0-1.153.251-1.554.652a2.483 2.483 0 00-.701 1.554L.153 23.683v.176c0 .551.226 1.078.627 1.453.376.351.877.602 1.403.652h14.762c.551-.05 1.053-.3 1.428-.651.401-.376.627-.903.627-1.48v-.175L17.672 8.847zM6.444 5.489c0-.878.35-1.655.927-2.231a3.124 3.124 0 012.23-.927c.878 0 1.655.35 2.231.927a3.12 3.12 0 01.928 2.23v1.153H6.444V5.49zm11.153 18.37c0 .2-.076.376-.226.501-.15.15-.376.25-.576.276H2.309a.962.962 0 01-.577-.276.631.631 0 01-.225-.501v-.075L2.835 8.972a1.15 1.15 0 01.326-.702c.15-.15.35-.25.576-.25h1.329v3.057c0 .376.3.677.676.677.376 0 .677-.3.677-.677V8.02h6.265v3.057c0 .376.301.677.677.677.376 0 .677-.3.677-.677V8.02h1.328c.226 0 .426.1.577.25.175.176.3.426.325.702l1.329 14.837v.05z" fill="#000"/></svg>