<svg width="19" height="20" fill="none" xmlns="http://www.w3.org/2000/svg"><path d="M18.04 3.689a1.23 1.23 0 00-1.23-1.23h-3.1A3.68 3.68 0 0010.253 0h-2.46A3.682 3.682 0 004.33 2.459h-3.1c-.326 0-.639.13-.87.36a1.234 1.234 0 000 1.74c.231.23.544.36.87.36h.41v10.246c0 1.196.475 2.343 1.321 3.188a4.506 4.506 0 003.188 1.321h5.738a4.506 4.506 0 003.188-1.321 4.506 4.506 0 001.321-3.188V4.918h.41a1.232 1.232 0 001.14-.758c.062-.149.094-.309.094-.471zm-4.1 11.476a2.046 2.046 0 01-1.265 1.893 2.046 2.046 0 01-.784.156H6.154a2.05 2.05 0 01-2.049-2.049V4.918h9.837l-.002 10.247z" fill="#000"/><path d="M6.977 13.343a1.23 1.23 0 001.23-1.23V7.195A1.227 1.227 0 006.978 6a1.233 1.233 0 00-1.23 1.195v4.918a1.23 1.23 0 001.229 1.23zm4.096 0c.326 0 .639-.13.87-.36.23-.231.36-.544.36-.87V7.195a1.232 1.232 0 00-2.087-.847 1.232 1.232 0 00-.372.847v4.918a1.227 1.227 0 001.229 1.23z" fill="#000"/></svg>