<svg width="21" height="21" fill="none" xmlns="http://www.w3.org/2000/svg"><g opacity=".81" fill="#3D3017"><path d="M15.366 3.81H5.634c-.484 0-.948.19-1.29.53-.342.35-.535.81-.535 1.29v9.74c0 .48.193.94.535 1.29.342.34.806.53 1.29.53h9.732c.483 0 .947-.19 1.289-.53.343-.35.535-.81.536-1.29V5.63a1.847 1.847 0 00-.536-1.29 1.828 1.828 0 00-1.29-.53zM10.5 14.76c-.843 0-1.666-.25-2.366-.72a4.256 4.256 0 01-1.811-4.37c.165-.83.57-1.59 1.166-2.18.595-.6 1.354-1 2.18-1.17a4.232 4.232 0 012.46.25 4.22 4.22 0 011.91 1.56c.469.7.719 1.53.719 2.37a4.27 4.27 0 01-4.258 4.26zm4.258-7.3c-.241 0-.476-.07-.677-.21-.2-.13-.356-.32-.448-.54a1.243 1.243 0 01-.07-.71c.048-.23.163-.45.333-.62.17-.17.388-.29.624-.33.236-.05.48-.03.703.07.223.09.413.24.546.44a1.225 1.225 0 01-1.011 1.9z"/><path d="M10.5 7.36a3.14 3.14 0 101.202 6.04 3.14 3.14 0 001.408-1.16c.345-.51.529-1.12.529-1.74a3.154 3.154 0 00-.92-2.22 3.132 3.132 0 00-2.22-.92z"/><path d="M17.883 0H3.117C2.293.01 1.505.34.922.92A3.17 3.17 0 000 3.12v14.76c.009.83.34 1.61.922 2.2.583.58 1.371.91 2.195.92h14.766a3.167 3.167 0 002.195-.92 3.17 3.17 0 00.922-2.2V3.12a3.17 3.17 0 00-.922-2.2A3.167 3.167 0 0017.883 0zm.617 15.42a3.09 3.09 0 01-.902 2.18c-.577.58-1.36.9-2.176.9H5.578c-.816 0-1.599-.32-2.176-.9a3.09 3.09 0 01-.902-2.18V5.58c.001-.82.325-1.6.902-2.18.577-.58 1.36-.9 2.176-.9h9.844c.816 0 1.599.32 2.176.9.577.58.901 1.36.902 2.18v9.84z"/></g></svg>