<svg width="21" height="21" fill="none" xmlns="http://www.w3.org/2000/svg"><path fill-rule="evenodd" clip-rule="evenodd" d="M10.53 0C8.45-.01 6.42.61 4.69 1.76a10.534 10.534 0 00-3.88 4.7C.01 8.38-.2 10.49.2 12.53s1.4 3.91 2.87 5.39a10.47 10.47 0 005.37 2.88 10.543 10.543 0 0010.79-4.46C20.38 14.61 21 12.58 21 10.5c0-2.78-1.1-5.45-3.07-7.41A10.488 10.488 0 0010.53 0zm.83 13.33c-.78-.05-1.09-.46-1.71-.82-.32 1.75-.73 3.4-1.92 4.27-.37-2.62.52-4.58.93-6.69-.73-1.18.1-3.65 1.61-3.04 1.86.72-1.61 4.53.72 5 2.49.51 3.48-4.28 1.97-5.82-2.23-2.21-6.43-.05-5.91 3.14.16.77.93 1.03.36 2.11-1.45-.31-1.86-1.44-1.81-2.88.09-1.12.57-2.17 1.36-2.97.78-.8 1.82-1.3 2.94-1.41 2.64-.31 5.13.98 5.44 3.45.42 2.83-1.19 5.87-3.99 5.66h.01z" fill="#3D3017" opacity=".81"/></svg>