<svg width="55" height="55" fill="none" xmlns="http://www.w3.org/2000/svg"><path fill-rule="evenodd" clip-rule="evenodd" d="M15.624 9.524c-2.482.413-.812 2.09 1.24 2.381 1.72.243 5.013.243 12.1.22 8.64-.025 12.34.072 12.888.315 1.36.632 1.957 3.062 2.34 9.647.142 2.333.429 5.832.643 7.776.669 6.245.048 6.852-7.804 7.168-3.03.122-6.968.365-8.734.535-8.258.802-13.39.656-16.253-.51-2.387-.972-2.267-1.75-2.339-3.378-.167-3.16-.095-9.598.215-15.455.262-4.908.573-5.88 2.124-6.61.955-.437.62-.947-.573-.898-1.79.097-3.174.704-3.436 3.547-.335 3.5-2.459 22.72 1.36 24.349 2.506 1.069 6.873 2.114 8.591 2.114 1.194 0 1.146 1.36-.047 1.725-2.745.802-.812 2.746 2.816 2.892 7.35.243 18.09-.365 18.186-1.07.095-.704-1.456-2.308-2.268-2.308-.262 0-.43-.316-.43-.778 0-.656 0-1.58.74-1.58 3.175 0 4.87-.145 5.824-.364 4.654-1.02 4.845-4.228 4.797-6.099-.167-7.654-1.575-14.968-1.575-16.694-.024-2.988-1.742-5.929-5.418-6.463-1.432-.438-22.529-.875-24.987-.462zm12.458 14.871c-.287-.316-3.055-3.45-3.819-4.252-.954-.996-1.933-.68-3.985 1.24-1.05.995-2.697 2.478-3.676 3.328-3.389 2.916-3.651 4.228-.859 4.228.955 0 1.408-.34 4.248-3.304 3.676-3.84 3.341-3.815 6.54-.656 2.147 2.114 1.885 2.138 5.37-.632 3.006-2.843 4.725-4.739 6.896-6.95 2.148-2.187-1.145-3.183-2.887-1.677-2.053 1.726-7.804 8.651-7.828 8.675zm7.732-1.142c-.43 1.118-.215 8.578.263 9.04 1.17 1.19 1.885-1.361 1.814-6.415-.048-2.795-1.385-4.471-2.077-2.625zm-13.818 3.038c-.74 1.992-.12 7.436 1.384 7.168 1.504-.267.478-6.27.143-7.144-.214-.632-1.288-.656-1.527-.024zm9.713.559c-.405.51-.811 4.276-.549 5.297.454 1.822 2.34 1.02 2.34-.996 0-3.378-.86-5.443-1.79-4.301zm-13.58 2.6c-.357.364-.214 3.086.215 3.669.764 1.07 1.432.389 1.432-1.482-.023-1.944-.835-3.038-1.646-2.187zm8.234 0c-.62.631-.19 3.232.573 3.596 1.217.559 1.623-.972.883-3.402-.12-.437-1.098-.559-1.456-.194zm6.158 10.57c.954.267.596 1.142.692 1.944l-11.026.194c0-.072.191-1.992.191-1.87.764-.025 7.756-.316 8.71-.39.383-.048 1.051.025 1.433.122z" fill="#006B99"/></svg>