<svg width="55" height="55" fill="none" xmlns="http://www.w3.org/2000/svg"><path fill-rule="evenodd" clip-rule="evenodd" d="M19.463 8.106c-6.417 1.234-9.715 6.123-9.715 14.508-.023 8.59 8.481 13.868 17.233 10.692l1.615-.594c1.324 1.416 1.549 1.416.135 2.285-1.122.685-1.01 1.393-.292 1.667.965.366 6.822 6.1 7.607 7.494 2.895 5.14 10.12 3.336 9.626-.685-.224-1.828-1.593-3.953-3.209-5.46-1.795-1.691-2.805-3.062-4.128-5.62-1.28-2.491-2.424-3.04-4.084-2.011-.718.434-.786.456-1.167.091-.786-.708-.74-1.188.224-2.673 3.68-5.758 3.882-10.784.629-14.782-4.533-5.575-8.415-3.564-5.767-1.828 6.44 4.204 6.103 12.749-.763 19.192-3.815 3.586-11.489 1.667-13.463-3.359-3.12-7.996 2.019-18.551 10.344-16.86 2.872.753 4.017-3.748-4.825-2.057zm-.897 5.689c-.965.822-.337 1.53 1.459.274 1.256-.868 1.862-1.028 3.006-.754 1.504.343 2.424-.046 1.953-.822-.158-.274-3.456-1.234-6.418 1.302zm8.998-.297c-1.212-.069-1.526.617-.696 1.508 1.033 1.12 3.097 1.302 2.985.274-.068-.708-1.37-1.736-2.29-1.782zm7.809 19.145c.18.754 1.952 3.405 2.894 4.387 1.145 1.165 1.638 1.942 3.12 3.587 3.006 3.358-.584 6.694-3.412 2.49-3.567-5.3-6.888-6.968-6.843-7.585.067-.777 4.084-3.518 4.24-2.879z" fill="#006B99"/></svg>