<svg width="495" height="554" fill="none" xmlns="http://www.w3.org/2000/svg"><path d="M157.959 429.042l3.243 8.869 14.988 40.906c5.623 3.982 12.723 6.541 20.687 6.541.94 0 2.072-.231 3.032-.288 8.329-.578 16.312-4.233 21.839-8.889l-4.472-49.333-.326-3.578c-24.161 9.389-52.332 7.811-58.991 5.772z" fill="#E57281"/><path d="M157.959 429.042l6.352 17.316c19.382 2.636 47.784-13.257 52.946-19.51l-.326-3.578c-24.141 9.389-52.313 7.811-58.972 5.772z" fill="#9A3B82"/><path d="M175.883 478.758l4.587 48.158c.825 12.699 10.535 22.416 22.049 22.416.518 0 1.036-.02 1.574-.058 12.205-.924 21.397-12.449 20.533-25.725l-2.782-42.559-.288-4.56a34.247 34.247 0 01-8.482 5.829 36.543 36.543 0 01-13.145 3.541 35.746 35.746 0 01-10.766-.77c-.077-.019-.173-.038-.25-.058-4.74-1.116-9.077-3.174-12.684-5.964a1.593 1.593 0 01-.346-.25z" fill="#fff"/><path d="M202.519 549.812c.537 0 1.056-.019 1.612-.058 12.455-.942 21.858-12.718 20.975-26.243l-2.782-42.56-.346-5.58-.748.693a33.758 33.758 0 01-8.367 5.753 36.424 36.424 0 01-12.973 3.501 35.222 35.222 0 01-10.612-.75c-.039 0-.077-.019-.135-.039-.038 0-.076-.019-.115-.019-4.625-1.077-8.942-3.117-12.512-5.887l-.057-.039c-.115-.077-.192-.115-.25-.173l-.94-.943 4.721 49.487c.403 6.233 2.936 12.006 7.158 16.258 4.202 4.252 9.652 6.599 15.371 6.599zm18.615-72.344l.23 3.56 2.783 42.559c.844 13.007-8.175 24.32-20.093 25.205-.537.039-1.036.058-1.535.058-5.45 0-10.67-2.232-14.7-6.311-4.049-4.098-6.486-9.658-6.87-15.661l-4.49-47.101c3.569 2.636 7.829 4.599 12.339 5.657.038 0 .077.019.134.038.039 0 .077.02.116.02a36.298 36.298 0 0010.919.788c4.663-.365 9.154-1.558 13.318-3.578 2.859-1.405 5.508-3.156 7.849-5.234z" fill="#FFCF2D"/><path d="M202.174 539.655c.46 0 .902-.019 1.362-.058 10.555-.808 18.557-10.794 17.809-22.28l-2.552-38.346-.96.057 2.553 38.346c.71 10.948-6.89 20.472-16.926 21.242a14.91 14.91 0 01-1.286.058c-9.518 0-17.502-8.12-18.173-18.51l-3.243-38.538-.96.077 3.243 38.538c.346 5.291 2.495 10.198 6.064 13.796 3.57 3.636 8.214 5.618 13.069 5.618z" fill="#FFCF2D"/><path d="M188.952 484.55c2.533.519 5.392.615 8.117.615.941 0 1.881-.038 2.84-.096 4.74-.327 9.193-1.481 13.146-3.252l1.266-6.233c.806-2.656-1.209-5.33-3.991-5.234l-18.423.539c-2.341.058-4.126 2.097-3.915 4.425l.96 9.236z" fill="#FFCF2D"/><path d="M189.144 484.358l2.322 29.264c.403 5.676 5.776 9.871 10.842 8.947l.403-.038c7.216-1.328 12.743-8.87 11.802-16.951l-1.458-23.781a38.847 38.847 0 01-13.146 3.251c-.959.077-1.899.097-2.84.097a38.236 38.236 0 01-7.925-.789z" fill="#FFCF2D"/><path d="M191.964 516.546c.039 0 .077 0 .115-.02l21.014-4.81c1.382-.308 1.938-1.481 1.881-2.482-.058-1.019-.73-2.135-2.15-2.309l-20.092-2.366c-1.056-.135-1.497-.943-1.554-1.597-.058-.654.23-1.539 1.228-1.847l19.248-6.119c1.554-.5 2.494-1.866 2.418-3.501-.096-1.636-1.19-2.886-2.783-3.214l-15.16-2.635c.71 0 1.439-.02 2.187-.039 6.775-.212 11.802-1.193 14.969-2.944a.5.5 0 00.192-.654.497.497 0 00-.653-.192c-7.235 4.002-23.47 2.636-23.642 2.616a.484.484 0 00-.518.424c-.039.25.134.5.403.538l22.049 3.829c1.401.289 1.958 1.424 1.996 2.328.058.885-.384 2.098-1.746 2.54l-19.248 6.119c-1.439.461-1.996 1.77-1.881 2.847.096 1.097.883 2.29 2.399 2.463l20.092 2.366c.921.116 1.267.828 1.305 1.405.019.577-.249 1.308-1.132 1.501l-21.013 4.81a.486.486 0 00-.365.577c.019.212.23.366.441.366z" fill="#fff"/><path d="M118.312 320.814l39.647 108.227c6.659 2.04 38.074 4.734 68.74-9.523l-24.122-111.883c-2.246-16.932-16.638-29.592-33.699-29.592h-17.731c-22.28-.019-38.554 21.145-32.835 42.771z" fill="#FE5244"/><path d="M170.605 419.652c2.917 0 6.103-.096 9.499-.327 11.342-.77 28.345-3.309 44.925-11.025a.585.585 0 00.288-.769.582.582 0 00-.768-.289c-30.57 14.219-64.614 11.64-71.023 9.697a.555.555 0 00-.71.385.557.557 0 00.384.712c2.398.75 8.693 1.616 17.405 1.616z" fill="#fff"/><path d="M105.09 431.176l3.991 7.1 25.543 44.811c9.844 3.906 21.455 5.349 31.856 3.155l1.305-.365c5.143-1.078 10.401-3.964 14.124-7.196l-18.634-49.929h-.038c-6.429 2.136-28.536 8.139-58.147 2.424z" fill="#E57281"/><path d="M105.09 431.177l8.424 14.872c32.432 5.195 50.816-14.372 50.816-14.372l-1.075-2.906c-6.447 2.117-28.555 8.12-58.165 2.406z" fill="#9A3B82"/><path d="M50.435 337.976l44.234 91.123c37.44 9.389 62.196 1.789 68.586-.327l-46.287-124.12a40.586 40.586 0 00-14.93-18.067 40.392 40.392 0 00-22.395-6.773c-30.82 0-44.1 31.093-29.208 58.164z" fill="#FE5244"/><path d="M125.431 424.443c3.589 0 7.12-.154 10.632-.443 8.367-.692 16.369-2.251 23.163-4.502a.574.574 0 00.364-.731.57.57 0 00-.729-.365c-6.697 2.212-14.623 3.751-22.894 4.444-14.757 1.231-30.282-.154-46.134-4.137a.572.572 0 00-.69.424.573.573 0 00.422.692c12.205 3.079 24.237 4.618 35.866 4.618z" fill="#fff"/><path d="M117.513 304.418l68.026 183.861-1.08.402-68.025-183.862 1.079-.401z" fill="#fff"/><path d="M135.007 483.223l1.497 3.944 16.964 44.503c4.856 15.257 20.822 24.32 34.85 20.837l.768-.25c9.844-2.443 16.1-14.334 12.243-24.839l-19.382-47.486-.403-.981a29.376 29.376 0 01-8.444 5.311 31.927 31.927 0 01-5.335 1.654l-1.305.366c-5.507 1.154-11.188 1.366-16.791.712a58.347 58.347 0 01-14.662-3.771z" fill="#fff"/><path d="M182.12 553.738c2.13 0 4.241-.25 6.313-.769h.039l.748-.251c4.721-1.173 8.866-4.56 11.361-9.273 2.686-5.061 3.109-10.967 1.189-16.182l-19.382-47.504-.652-1.616-.499.461a28.462 28.462 0 01-8.31 5.215 32.717 32.717 0 01-5.258 1.635h-.019l-1.286.365a51.574 51.574 0 01-16.618.693 58.009 58.009 0 01-14.547-3.732l-1.017-.405 1.881 4.965 16.964 44.483c2.36 7.427 7.408 13.7 14.201 17.702 4.702 2.789 9.845 4.213 14.892 4.213zm6.064-1.693c-6.717 1.655-13.99.481-20.496-3.348-6.582-3.867-11.475-9.986-13.778-17.182v-.019l-16.964-44.503-1.113-2.924a58.935 58.935 0 0013.778 3.405c5.757.674 11.457.423 16.945-.712h.039l1.285-.365a31.868 31.868 0 005.393-1.674c2.955-1.232 5.68-2.886 8.079-4.945l.153.366 19.383 47.485c1.823 4.964 1.401 10.563-1.152 15.392-2.379 4.483-6.294 7.696-10.765 8.793h-.039l-.748.231z" fill="#FFCF2D"/><path d="M179.356 543.252c1.785 0 3.569-.212 5.316-.654l.038-.02.614-.211c3.992-1.001 7.484-3.848 9.576-7.812 2.245-4.252 2.61-9.216 1.017-13.622l-16.427-40.001a.487.487 0 00-.633-.269.49.49 0 00-.269.635l16.427 39.981c1.516 4.137 1.171 8.812-.959 12.834-1.977 3.732-5.239 6.407-8.981 7.349l-.039.02-.614.211c-5.603 1.386-11.667.404-17.098-2.79-5.508-3.232-9.595-8.331-11.495-14.353v-.019l-14.873-39.405a.492.492 0 00-.614-.288.495.495 0 00-.288.616l14.873 39.385c1.996 6.234 6.217 11.505 11.917 14.873 3.972 2.328 8.271 3.54 12.512 3.54z" fill="#FFCF2D"/><path d="M146.195 481.029l3.493 5.926c5.584.654 11.264.442 16.791-.712l1.305-.366a28.595 28.595 0 005.335-1.654l-1.382-9.62a4.048 4.048 0 00-4.836-3.387l-18.038 3.791c-2.725.558-4.088 3.636-2.668 6.022z" fill="#FFCF2D"/><path d="M149.688 486.955l.096.154 9.019 23.896c2.476 7.754 10.574 12.353 17.713 10.583l.384-.135c5.008-1.251 8.194-7.292 6.217-12.622l-9.959-24.243-.058-.365a31.927 31.927 0 01-5.335 1.654l-1.305.366c-5.507 1.174-11.188 1.366-16.772.712z" fill="#FFCF2D"/><path d="M162.68 515.835c.115 0 .23 0 .345-.019l20.726-2.251a.47.47 0 00.422-.539c-.039-.269-.269-.462-.537-.423l-20.726 2.251c-1.132.115-1.766-.635-1.977-1.328-.211-.673-.096-1.654.902-2.193l16.139-8.639c1.382-.731 1.689-2.155 1.401-3.232-.288-1.078-1.286-2.155-2.859-2.078l-20.38.923c-1.228.058-1.9-.789-2.111-1.539-.211-.75-.058-1.828 1.036-2.405l18.288-9.774a.478.478 0 00.212-.635.477.477 0 00-.634-.212c-.019.02-2.379 1.116-6.39 1.982-3.704.808-9.595 1.578-16.715.693-.268-.039-.499.154-.537.423-.039.269.153.5.422.539 7.273.904 13.299.115 17.079-.712.442-.096.845-.193 1.248-.289l-13.395 7.158c-1.497.788-1.823 2.347-1.516 3.521.326 1.173 1.401 2.328 3.09 2.231l20.38-.923c1.094-.039 1.708.712 1.88 1.366.173.654.039 1.616-.921 2.136l-16.139 8.639c-1.401.75-1.708 2.212-1.362 3.309.287 1.039 1.228 2.02 2.629 2.02z" fill="#fff"/><path d="M232.341 283.757c-78.154 0-141.51-63.521-141.51-141.878C90.831 63.521 154.187 0 232.341 0 310.494 0 373.85 63.521 373.85 141.879c0 78.357-63.356 141.878-141.509 141.878z" fill="#D0F0E4"/><path d="M279.952 284.412c14.7-4.926 28.517-12.122 41.048-21.357a151.025 151.025 0 0032.374-32.516 149.913 149.913 0 0021.225-41.213c5.066-15.258 7.618-31.208 7.618-47.447h-1.343c0 16.085-2.533 31.9-7.561 47.023a148.529 148.529 0 01-21.033 40.848 148.789 148.789 0 01-32.086 32.227 147.771 147.771 0 01-40.683 21.165l.441 1.27z" fill="#FFCF2D"/><path d="M232.341 234.483c1.9 0 3.799-.057 5.68-.173a.953.953 0 00.902-1.019c-.038-.539-.48-.943-1.017-.905a89.143 89.143 0 01-5.565.173h-.135a.952.952 0 00-.959.962c0 .539.422.962.959.962h.135zm-6.851-.25a.962.962 0 00.959-.885.968.968 0 00-.883-1.039 92.141 92.141 0 01-5.661-.596.94.94 0 00-1.074.827.943.943 0 00.825 1.078c1.919.269 3.857.461 5.795.615h.039zm19.152-.577h.134a82.819 82.819 0 005.738-.962.952.952 0 00.748-1.135c-.115-.52-.614-.866-1.132-.75a92.85 92.85 0 01-5.623.942c-.518.077-.902.558-.825 1.078a.985.985 0 00.96.827zm-31.492-1.193a.963.963 0 00.941-.769c.115-.52-.211-1.039-.73-1.136a109.422 109.422 0 01-5.526-1.366.972.972 0 00-1.19.674.975.975 0 00.671 1.193c1.862.519 3.762 1 5.642 1.404h.192zm43.716-1.308c.077 0 .173-.019.249-.039a91.983 91.983 0 005.546-1.731.975.975 0 00.595-1.232.97.97 0 00-1.228-.596 104.014 104.014 0 01-5.431 1.712c-.518.135-.806.674-.671 1.193.134.404.518.693.94.693zm-55.71-2.136a.97.97 0 00.902-.635c.173-.5-.076-1.058-.575-1.231a96.595 96.595 0 01-5.278-2.117.972.972 0 00-1.266.501.976.976 0 00.499 1.27c1.765.769 3.588 1.5 5.392 2.154.115.039.23.058.326.058zm67.474-2.039a.92.92 0 00.383-.077c1.766-.77 3.551-1.616 5.278-2.482a.968.968 0 00.422-1.289.962.962 0 00-1.286-.424 84.752 84.752 0 01-5.162 2.444.969.969 0 00-.499 1.27c.134.346.499.558.864.558zm-78.853-3.021a.956.956 0 00.844-.52.965.965 0 00-.403-1.308 84.274 84.274 0 01-4.951-2.828.965.965 0 00-.998 1.654 99.733 99.733 0 005.047 2.886c.153.077.307.116.461.116zm89.945-2.732a.927.927 0 00.498-.135 81.35 81.35 0 004.875-3.194.961.961 0 00.23-1.347.956.956 0 00-1.343-.231 96.577 96.577 0 01-4.779 3.117c-.46.27-.595.866-.326 1.328.211.289.518.462.845.462zm-100.558-3.829a.964.964 0 00.557-1.751 97.733 97.733 0 01-4.529-3.463.964.964 0 00-1.343.134.97.97 0 00.134 1.347 81.442 81.442 0 004.625 3.541.892.892 0 00.556.192zm110.748-3.386a.972.972 0 00.594-.212 82.07 82.07 0 004.395-3.829.972.972 0 00.058-1.366.967.967 0 00-1.363-.058 88.33 88.33 0 01-4.318 3.733c-.403.327-.479.943-.134 1.347a.97.97 0 00.768.385zm-120.362-4.58a.894.894 0 00.691-.307.972.972 0 00-.039-1.366 89.208 89.208 0 01-4.01-4.06.966.966 0 00-1.363-.039.97.97 0 00-.038 1.366 93.177 93.177 0 004.106 4.137.871.871 0 00.653.269zm129.496-3.944a.89.89 0 00.691-.308 83.608 83.608 0 003.838-4.386.936.936 0 00-.134-1.347.931.931 0 00-1.344.134 99.295 99.295 0 01-3.761 4.291.973.973 0 00.038 1.366c.192.173.442.25.672.25zm-137.959-5.233a.977.977 0 00.595-.212.955.955 0 00.153-1.347 97.564 97.564 0 01-3.435-4.56.956.956 0 00-1.343-.231.962.962 0 00-.23 1.347 91.741 91.741 0 003.512 4.656c.191.212.46.347.748.347zm145.846-4.445a.946.946 0 00.787-.404 92.747 92.747 0 003.224-4.868c.288-.442.134-1.039-.307-1.327-.441-.289-1.036-.135-1.324.308a88.378 88.378 0 01-3.147 4.752.961.961 0 00.23 1.347.801.801 0 00.537.192zm-152.985-5.83a.927.927 0 00.499-.134c.461-.27.595-.866.326-1.328a90.93 90.93 0 01-2.782-4.983.939.939 0 00-1.286-.404.943.943 0 00-.403 1.289 88.595 88.595 0 002.84 5.099c.154.307.48.461.806.461zm159.491-4.829a.955.955 0 00.844-.519 77.256 77.256 0 002.514-5.253.968.968 0 00-.48-1.27.962.962 0 00-1.266.481 84.199 84.199 0 01-2.476 5.137.955.955 0 00.403 1.289.842.842 0 00.461.135zm-165.171-6.311a.912.912 0 00.384-.077.97.97 0 00.499-1.27 89.174 89.174 0 01-2.073-5.329.945.945 0 00-1.228-.577.949.949 0 00-.576 1.231 94.686 94.686 0 002.13 5.445c.135.366.48.577.864.577zm170.16-5.137c.403 0 .768-.25.902-.635a93.143 93.143 0 001.785-5.56.963.963 0 00-.652-1.193.96.96 0 00-1.19.654 89.098 89.098 0 01-1.747 5.445c-.172.5.077 1.058.576 1.231a.959.959 0 00.326.058zm-174.267-6.676c.077 0 .173-.02.25-.039a.955.955 0 00.671-1.174 90.083 90.083 0 01-1.324-5.56.973.973 0 00-1.132-.75.975.975 0 00-.748 1.135 81.069 81.069 0 001.362 5.676.941.941 0 00.921.712zm177.645-5.349a.962.962 0 00.94-.77c.403-1.885.729-3.829 1.017-5.753a.971.971 0 00-.806-1.096.97.97 0 00-1.094.808 89.754 89.754 0 01-.978 5.618.952.952 0 00.748 1.135c.058.058.115.058.173.058zm-180.101-6.908h.134c.518-.076.902-.558.825-1.077a93.864 93.864 0 01-.556-5.695.965.965 0 00-1.017-.904.977.977 0 00-.902 1.019 97.66 97.66 0 00.575 5.811c.058.5.461.846.941.846zm181.809-5.483a.964.964 0 00.959-.904 98.13 98.13 0 00.231-5.83.952.952 0 00-.96-.962.951.951 0 00-.959.962c-.02 1.905-.096 3.829-.212 5.714a.952.952 0 00.883 1.02h.058zm-182.577-6.984c.518 0 .96-.424.96-.962.019-1.905.076-3.829.211-5.715a.95.95 0 00-.883-1.019.96.96 0 00-1.017.885 84.28 84.28 0 00-.211 5.829c-.019.539.403.962.94.982zm182.615-5.522h.058a.98.98 0 00.902-1.02 97.704 97.704 0 00-.557-5.811c-.077-.519-.556-.904-1.074-.827-.519.077-.902.558-.826 1.077.25 1.886.423 3.791.557 5.696.019.5.441.885.94.885zm-181.694-6.965c.48 0 .883-.347.941-.828.268-1.885.595-3.771.978-5.637a.95.95 0 00-.748-1.135.95.95 0 00-1.132.75 94.107 94.107 0 00-.998 5.753.972.972 0 00.806 1.097h.153zm180.025-5.426c.057 0 .134 0 .192-.019.518-.116.863-.616.748-1.136a93.976 93.976 0 00-1.343-5.675.953.953 0 00-1.171-.674.956.956 0 00-.672 1.174 90.262 90.262 0 011.325 5.56c.076.462.479.77.921.77zm-177.434-6.792a.944.944 0 00.921-.693 90.24 90.24 0 011.746-5.445c.173-.5-.076-1.058-.575-1.231-.499-.173-1.056.077-1.228.577a92.941 92.941 0 00-1.785 5.561.964.964 0 00.652 1.193c.096.019.192.038.269.038zm174.114-5.253a.975.975 0 00.921-1.289 111.131 111.131 0 00-2.111-5.445.965.965 0 00-1.267-.5c-.499.212-.71.77-.499 1.27a89.44 89.44 0 012.073 5.329.91.91 0 00.883.635zm-169.873-6.503a.958.958 0 00.883-.577 96.833 96.833 0 012.456-5.137.949.949 0 00-.403-1.29.95.95 0 00-1.286.405 101.37 101.37 0 00-2.513 5.252.96.96 0 00.498 1.27.728.728 0 00.365.077zm164.922-4.983a.889.889 0 00.441-.116.943.943 0 00.403-1.289 88.353 88.353 0 00-2.84-5.098c-.269-.462-.864-.597-1.324-.328-.461.27-.595.866-.327 1.328.979 1.636 1.9 3.31 2.783 5.003.173.307.518.5.864.5zm-159.126-6.06a.954.954 0 00.825-.463 97.339 97.339 0 013.147-4.771.961.961 0 00-.23-1.347.956.956 0 00-1.344.23 92.42 92.42 0 00-3.204 4.869.983.983 0 00.307 1.327.948.948 0 00.499.154zm152.658-4.638a.961.961 0 00.787-1.52 101.877 101.877 0 00-3.492-4.675.95.95 0 00-1.344-.154.955.955 0 00-.153 1.347 97.55 97.55 0 013.435 4.56c.173.288.46.442.767.442zM161.739 84.62a.983.983 0 00.749-.346 88.284 88.284 0 013.761-4.29.971.971 0 00-.038-1.367.966.966 0 00-1.363.038 92.13 92.13 0 00-3.838 4.387c-.345.404-.268 1.02.135 1.347a.804.804 0 00.594.231zm137.537-4.175a.96.96 0 00.653-.25.99.99 0 00.057-1.366 92.124 92.124 0 00-4.087-4.137.966.966 0 00-1.363.038.972.972 0 00.039 1.367 88.764 88.764 0 014.011 4.06c.172.172.441.288.69.288zm-128.958-4.906a.96.96 0 00.652-.25 99.982 99.982 0 014.299-3.752c.403-.328.479-.943.134-1.347-.326-.404-.94-.481-1.343-.135a104.27 104.27 0 00-4.395 3.829.971.971 0 00-.057 1.366c.191.173.441.288.71.288zm119.862-3.656a.983.983 0 00.749-.346.97.97 0 00-.135-1.347 92.18 92.18 0 00-4.625-3.56.971.971 0 00-1.343.212.978.978 0 00.211 1.347 85.802 85.802 0 014.529 3.482c.192.135.403.212.614.212zm-110.152-4.195a.995.995 0 00.556-.173 97.527 97.527 0 014.779-3.136c.46-.27.595-.866.326-1.328-.269-.461-.864-.596-1.324-.327-1.65 1-3.282 2.078-4.874 3.194a.96.96 0 00-.231 1.347.91.91 0 00.768.423zm100.001-3.04a.954.954 0 00.825-.461.973.973 0 00-.326-1.328 87.751 87.751 0 00-5.048-2.886.96.96 0 00-1.304.404.964.964 0 00.403 1.308 84.378 84.378 0 014.951 2.829c.153.077.326.135.499.135zm-89.312-3.424a.943.943 0 00.441-.116 84.508 84.508 0 015.162-2.443.964.964 0 00-.767-1.77 94.344 94.344 0 00-5.278 2.5.968.968 0 00.442 1.829zm78.258-2.367a.959.959 0 00.883-.577.96.96 0 00-.499-1.27 109.18 109.18 0 00-5.393-2.174c-.499-.173-1.055.077-1.228.577-.173.5.077 1.058.576 1.232a103.45 103.45 0 015.277 2.116c.134.077.25.096.384.096zm-66.782-2.559c.096 0 .211-.02.307-.058a88.56 88.56 0 015.431-1.712c.518-.135.806-.673.671-1.193-.134-.52-.671-.808-1.19-.673a92.986 92.986 0 00-5.546 1.75.974.974 0 00-.594 1.232.986.986 0 00.921.654zm55.057-1.654c.422 0 .806-.27.921-.693.153-.52-.154-1.04-.672-1.193-1.861-.52-3.761-1-5.642-1.405a.937.937 0 00-1.132.731c-.115.52.211 1.04.729 1.136 1.842.404 3.704.866 5.527 1.385.096.02.173.039.269.039zm-43.025-1.636c.058 0 .134 0 .192-.02a92.463 92.463 0 015.623-.942c.518-.077.902-.558.825-1.078a.98.98 0 00-1.075-.827c-1.919.27-3.838.597-5.738.962a.952.952 0 00-.748 1.135.93.93 0 00.921.77zm30.82-.924a.938.938 0 00.94-.827.943.943 0 00-.825-1.077 83.957 83.957 0 00-5.777-.616.968.968 0 00-1.036.885.969.969 0 00.883 1.039c1.881.135 3.8.346 5.661.616.058-.039.115-.02.154-.02zm-18.461-.711h.057c1.881-.116 3.8-.174 5.7-.174h.268c.538 0 .96-.423.96-.962a.951.951 0 00-.96-.962h-.268a96.82 96.82 0 00-5.815.174.953.953 0 00-.902 1.02.965.965 0 00.96.904z" fill="#fff"/><path d="M232.341 66.956c.787 0 1.439-.654 1.439-1.443V50.255c0-.788-.652-1.443-1.439-1.443s-1.439.655-1.439 1.444v15.257c0 .789.652 1.443 1.439 1.443zm0 168.008c.787 0 1.439-.654 1.439-1.443v-15.277c0-.789-.652-1.443-1.439-1.443s-1.439.654-1.439 1.443v15.277c0 .789.652 1.443 1.439 1.443zm53.867-145.631c.365 0 .729-.135 1.017-.423l10.766-10.813a1.455 1.455 0 000-2.04 1.445 1.445 0 00-2.034 0L285.191 86.87a1.453 1.453 0 000 2.04c.288.288.652.423 1.017.423zM167.727 208.122c.365 0 .729-.134 1.017-.423l10.766-10.794a1.455 1.455 0 000-2.039 1.445 1.445 0 00-2.034 0L166.71 205.66a1.453 1.453 0 000 2.039c.288.289.652.423 1.017.423zm140.78-64.8h15.237c.787 0 1.44-.655 1.44-1.443 0-.789-.653-1.443-1.44-1.443h-15.237c-.787 0-1.439.654-1.439 1.443 0 .788.652 1.443 1.439 1.443zm-167.55 0h15.217c.787 0 1.44-.655 1.44-1.443 0-.789-.653-1.443-1.44-1.443h-15.217c-.787 0-1.44.654-1.44 1.443 0 .788.653 1.443 1.44 1.443zm156.017 64.8a1.42 1.42 0 001.017-.423 1.455 1.455 0 000-2.039l-10.766-10.794a1.445 1.445 0 00-2.034 0 1.453 1.453 0 000 2.039l10.766 10.794c.288.289.652.423 1.017.423zM178.493 89.333c.364 0 .729-.135 1.017-.423a1.455 1.455 0 000-2.04l-10.766-10.813a1.445 1.445 0 00-2.034 0 1.453 1.453 0 000 2.04l10.766 10.813c.288.288.652.423 1.017.423z" fill="#fff"/><path d="M232.341 239.293c13.107 0 25.83-2.579 37.824-7.658 11.572-4.906 21.954-11.929 30.877-20.876 8.924-8.947 15.928-19.356 20.822-30.958 5.066-12.006 7.637-24.762 7.637-37.922 0-26.995-10.439-51.776-29.226-68.881l-7.734 8.543c8.002 7.292 13.894 15.296 18.461 26.032 4.586 10.794 7.004 22.646 7.004 34.286 0 11.602-2.264 22.839-6.735 33.421a85.812 85.812 0 01-18.365 27.302c-7.868 7.889-17.022 14.084-27.231 18.394-10.555 4.483-21.762 6.753-33.334 6.753-11.572 0-22.779-2.27-33.334-6.753-10.19-4.329-19.363-10.525-27.231-18.394-7.868-7.889-14.047-17.066-18.365-27.302-4.471-10.582-6.736-21.819-6.736-33.421 0-11.544 2.342-22.761 6.966-33.362 4.453-10.198 10.824-19.395 18.922-27.303 8.079-7.888 17.444-14.103 27.845-18.451 10.728-4.483 20.323-6.369 31.895-6.369V44.83c-13.107 0-24.199 2.194-36.328 7.254-11.744 4.906-22.318 11.91-31.453 20.837-9.173 8.966-16.388 19.375-21.435 30.939-5.258 12.063-7.945 24.839-7.945 37.98 0 13.141 2.572 25.898 7.638 37.923 4.893 11.602 11.898 22.011 20.821 30.958 8.924 8.946 19.306 15.969 30.877 20.876 12.033 5.117 24.756 7.696 37.863 7.696z" fill="#D0F0E4"/><path d="M232.341 240.736c13.299 0 26.214-2.617 38.381-7.773a98.446 98.446 0 0031.337-21.184c9.058-9.081 16.159-19.644 21.129-31.419 5.143-12.199 7.753-25.128 7.753-38.481 0-13.642-2.591-26.667-7.676-38.712-5.124-12.083-12.531-22.588-22.012-31.227a1.459 1.459 0 00-1.036-.365 1.417 1.417 0 00-.998.48l-7.733 8.543a1.438 1.438 0 00.096 2.04c8.175 7.446 13.759 15.334 18.096 25.532 4.51 10.601 6.889 22.261 6.889 33.728 0 11.41-2.226 22.454-6.62 32.863a84.452 84.452 0 01-18.058 26.84c-7.753 7.773-16.754 13.853-26.771 18.086-10.382 4.406-21.397 6.638-32.777 6.638-11.38 0-22.395-2.232-32.777-6.638-10.017-4.252-19.037-10.351-26.77-18.086a84.336 84.336 0 01-18.059-26.84c-4.394-10.409-6.62-21.453-6.62-32.863a81.456 81.456 0 016.851-32.786c4.375-10.043 10.65-19.067 18.614-26.84s17.176-13.891 27.404-18.163c10.497-4.387 19.862-6.253 31.338-6.253.787 0 1.439-.654 1.439-1.443V44.869c0-.789-.652-1.443-1.439-1.443-13.299 0-24.679 2.27-36.884 7.369a101.37 101.37 0 00-31.913 21.145c-9.308 9.1-16.638 19.664-21.743 31.4-5.354 12.276-8.06 25.244-8.06 38.558 0 13.334 2.61 26.282 7.753 38.481a98.751 98.751 0 0021.128 31.419c9.058 9.082 19.594 16.201 31.338 21.184 12.167 5.118 25.082 7.754 38.4 7.754zm68.03-165.698c8.674 8.177 15.486 18.009 20.246 29.245 4.951 11.679 7.445 24.32 7.445 37.577 0 12.968-2.533 25.532-7.522 37.364-4.817 11.429-11.726 21.684-20.515 30.496-8.789 8.813-19.036 15.739-30.416 20.568-11.822 5.003-24.353 7.543-37.268 7.543a95.031 95.031 0 01-37.306-7.581c-11.399-4.829-21.627-11.756-30.417-20.568-8.789-8.812-15.697-19.086-20.514-30.496-4.989-11.852-7.523-24.416-7.523-37.365 0-12.91 2.629-25.493 7.83-37.403 4.97-11.39 12.071-21.646 21.129-30.477 9-8.793 19.42-15.7 30.992-20.53 11.399-4.752 22.05-6.965 34.331-7.138v8.658c-11.226.155-20.591 2.117-31.011 6.465-10.555 4.406-20.073 10.717-28.287 18.74-8.232 8.043-14.699 17.374-19.228 27.764a84.392 84.392 0 00-7.082 33.94c0 11.795 2.303 23.224 6.851 33.979 4.376 10.39 10.67 19.741 18.673 27.764 8.002 8.004 17.309 14.295 27.691 18.701 10.728 4.56 22.127 6.869 33.89 6.869 11.764 0 23.163-2.309 33.89-6.869 10.344-4.367 19.67-10.659 27.692-18.701a87.184 87.184 0 0018.672-27.764c4.548-10.755 6.851-22.184 6.851-33.979 0-11.832-2.456-23.896-7.119-34.844-4.318-10.159-9.826-18.086-17.752-25.551l5.777-6.407z" fill="#fff"/><path d="M219.925 155.656a.684.684 0 00.479-.212l60.316-62.03a.67.67 0 00-.02-.944.664.664 0 00-.94.02l-60.315 62.031a.667.667 0 00.019.942.594.594 0 00.461.193z" fill="#FE5244"/><path d="M231.688 147.304a4.784 4.784 0 01-4.778-4.79 4.784 4.784 0 014.778-4.791 4.785 4.785 0 014.779 4.791c0 2.645-2.14 4.79-4.779 4.79z" fill="#D0F0E4"/><path d="M231.689 148.747c3.435 0 6.217-2.79 6.217-6.234s-2.782-6.234-6.217-6.234c-3.436 0-6.218 2.79-6.218 6.234s2.782 6.234 6.218 6.234zm0-9.582a3.346 3.346 0 013.339 3.348 3.346 3.346 0 01-3.339 3.348 3.346 3.346 0 01-3.34-3.348 3.346 3.346 0 013.34-3.348zm-38.957-92.873c.211 0 .441-.057.633-.154.71-.346.998-1.212.653-1.943l-2.917-5.868a3.31 3.31 0 01-.019-2.732 3.327 3.327 0 012.034-1.809l6.026-1.828a3.196 3.196 0 012.705.366 3.228 3.228 0 011.478 2.29l.864 6.156a1.447 1.447 0 001.631 1.232 1.45 1.45 0 001.228-1.636l-.864-6.176a6.163 6.163 0 00-2.801-4.31 6.04 6.04 0 00-5.067-.673l-6.025 1.828a6.157 6.157 0 00-3.781 8.524l.019.018 2.917 5.888c.25.539.749.827 1.286.827z" fill="#fff"/><path d="M22.851 553.22h1.183V305.885H353V553.22h1.184V304.73H22.851v248.49z" fill="#66B0F0"/><path d="M19.326 313.599h339.292c7.661 0 13.882-4.406 13.882-9.832v-37.461c0-5.425-6.221-9.831-13.882-9.831H19.326c-7.661 0-13.882 4.406-13.882 9.831v37.461c0 5.426 6.22 9.832 13.882 9.832z" fill="#fff"/><path d="M19.326 314.176h339.292c8.096 0 14.697-4.676 14.697-10.409v-37.461c0-5.734-6.601-10.41-14.697-10.41H19.326c-8.096 0-14.697 4.676-14.697 10.41v37.461c0 5.733 6.601 10.409 14.697 10.409zm339.292-57.125c7.199 0 13.067 4.156 13.067 9.255v37.461c0 5.098-5.868 9.254-13.067 9.254H19.326c-7.2 0-13.067-4.156-13.067-9.254v-37.461c0-5.099 5.868-9.255 13.067-9.255h339.292z" fill="#66B0F0"/><path d="M18.504 306.899h340.929c7.661 0 13.882-4.41 13.882-9.842v-37.498c0-5.432-6.221-9.842-13.882-9.842H18.503c-7.66 0-13.882 4.41-13.882 9.842v37.498c0 5.432 6.221 9.842 13.883 9.842z" fill="#66B0F0"/><path d="M84.733 255.799h85.877v39.541H84.733v-39.541z" fill="#fff"/><path d="M26.89 260.073h88.563l-.077-10.351h53.349l15.525-45.6 16.619 30.688-46.92 40.136 22.433 30.476 55.422-35.614a35.519 35.519 0 0016.081-29.745 35.413 35.413 0 00-4.433-17.182l-25.868-46.908c-10.862-19.683-31.511-31.881-53.925-31.881H80.584a42.485 42.485 0 00-34.734 18.047L5.57 218.36c-12.532 17.412-.097 41.713 21.32 41.713z" fill="#fff"/><path d="M176.248 306.191l55.882-35.902c10.228-6.696 16.35-17.99 16.35-30.227 0-6.119-1.554-12.16-4.51-17.47l-25.868-46.908c-10.958-19.856-31.818-32.17-54.424-32.17H80.603c-13.99 0-27.135 6.83-35.214 18.297l-40.28 56.201c-3.033 4.214-4.798 9.12-5.067 14.161-.268 4.733.749 9.505 2.956 13.815a26.935 26.935 0 009.46 10.486c4.26 2.732 9.25 4.175 14.45 4.175h89.12l-.076-10.351h53.176l.134-.385 15.103-44.349 15.775 29.13-46.978 40.174 23.086 31.323zm-12.589-161.523c22.203 0 42.679 12.102 53.426 31.593l25.868 46.908c2.86 5.137 4.356 10.986 4.356 16.893 0 11.852-5.91 22.781-15.812 29.265l-54.961 35.325-21.801-29.611 46.863-40.097-17.463-32.247-15.813 46.446H114.8l.077 10.352H26.89c-4.99 0-9.768-1.386-13.837-3.983-3.819-2.444-6.966-5.926-9.058-10.044-2.091-4.117-3.07-8.677-2.82-13.218.268-4.81 1.957-9.504 4.855-13.545l40.28-56.22c7.849-11.16 20.668-17.817 34.274-17.817h83.075z" fill="#FE5244"/><path d="M158.189 294.916c6.564 8.851 14.643 13.93 18.078 11.371 3.435-2.559.902-11.794-5.642-20.645-6.563-8.85-13.875-13.545-17.31-10.986-3.435 2.559-1.669 11.429 4.874 20.26zm-28.286-112.807l27.73-38.519h-53.31l25.58 38.519zm25.466-37.365l-25.427 35.326-23.47-35.326h48.897zm-25.735 50.373c1.843 0 3.359-1.52 3.359-3.367s-1.516-3.367-3.359-3.367c-1.842 0-3.358 1.52-3.358 3.367s1.516 3.367 3.358 3.367zm0-5.58a2.223 2.223 0 012.207 2.213 2.223 2.223 0 01-2.207 2.213 2.223 2.223 0 01-2.207-2.213c0-1.212.998-2.213 2.207-2.213zm0 23.281c1.843 0 3.359-1.52 3.359-3.367s-1.516-3.367-3.359-3.367c-1.842 0-3.358 1.52-3.358 3.367s1.516 3.367 3.358 3.367zm0-5.58a2.223 2.223 0 012.207 2.213 2.223 2.223 0 01-2.207 2.213 2.223 2.223 0 01-2.207-2.213c0-1.212.998-2.213 2.207-2.213zm-15.505 53.506h1.151v-39.827H62.411l12.109-18.836-.96-.616-13.26 20.606h53.829v38.673z" fill="#FE5244"/><path d="M47.366 220.918h13.99v1.154h-13.99v-1.154zm67.338 39.826c-4.282 0-7.753-8.933-7.753-19.952 0-11.019 3.471-19.952 7.753-19.952s7.753 8.933 7.753 19.952c0 11.019-3.471 19.952-7.753 19.952z" fill="#FE5244"/><path d="M107.028 260.61v-1.155c-3.895 0-7.177-8.542-7.177-18.663 0-10.12 3.282-18.663 7.177-18.663v-1.154c-4.663 0-8.328 8.696-8.328 19.817s3.665 19.818 8.328 19.818zm75.553 41.54c3.742-2.79 1.305-12.199-5.527-21.453-3.301-4.445-6.678-7.869-9.787-9.909-3.32-2.174-6.064-2.597-7.945-1.193l.691.924c3.051-2.271 9.691 2.193 16.12 10.87 6.237 8.428 8.866 17.509 5.757 19.837l.691.924z" fill="#FE5244"/><path d="M156.309 128.218c-.134-18.971-12.704-24.166-33.353-22.511-22.261 1.789-13.145 32.497-25.504 33.516-5.181.424-11.092-5.464-18.96-10.313a40.403 40.403 0 00-22.721-6.945c-22.472 0-40.703 18.278-40.703 40.809 0 10.37 4.817 20.394 11.169 27.59 0 0 24.007-33.805 33.314-36.98 18.308-6.234 24.123 9.89 36.826 12.391 1.67.327 3.455.423 5.412.192 18.077-2.077 14.623-31.958 14.623-31.958 4.683-1.924 5.7-6.792 5.872-9.735-.096-1.424-.038-2.367-.038-2.367s.115.962.038 2.367c.384 5.541 3.762 18.797 22.587 14.045v6.446c0 39.038-.633 46.619 7.254 56.432 1.171 1.462 9.001 13.256-5.028 19.625-18.077 8.196-5.315 29.765-5.315 29.765h38.246s22.702-4.041 24.679-24.705c2.821-29.534-34.121-37.442-38.937-38.346 9.365-1.443 18.518-10.698 18.518-21.915 0-9.947-7.618-18.355-15.448-21.126-.019 0-.019 0-.038-.019l-.691-.231c-6.122-2.116-10.632-6.773-11.629-12.41l-.173-3.617z" fill="#FFCF2D"/><path d="M122.189 128.431c.019 0 .019 0 0 0a.488.488 0 00.479-.481l-.153-9.832a.475.475 0 00-.48-.481.488.488 0 00-.48.481l.154 9.832c.019.269.23.481.48.481zm21.838 11.196c.077 0 .154-.02.23-.058 4.644-2.444 5.623-4.945 5.681-5.041a.479.479 0 00-.288-.616.483.483 0 00-.614.27c-.019.038-.96 2.289-5.22 4.54a.502.502 0 00-.211.655c.077.154.249.25.422.25z" fill="#E57281"/><path d="M79.567 122.908c-3.18 0-5.757-2.585-5.757-5.773 0-3.187 2.577-5.772 5.757-5.772 3.18 0 5.757 2.585 5.757 5.772 0 3.188-2.578 5.773-5.757 5.773zm67.761 91.276a4.631 4.631 0 01-4.625-4.637 4.631 4.631 0 014.625-4.637 4.631 4.631 0 014.625 4.637 4.631 4.631 0 01-4.625 4.637z" fill="#FFCF2D"/><path d="M118.197 279.331l.019 3.502c0 .308.076.616.192.885l8.405 18.779a7.625 7.625 0 006.928 4.444h17.981c4.491 0 8.847-1.52 12.378-4.29l.633-.501 10.708-8.446c-1.189-2.578-2.821-5.33-4.836-8.043-3.838-5.195-8.232-9.081-11.878-10.909h-25.811c-2.054 4.598 4.624 8.293 4.624 8.293h-11.667l-4.222-4.599c-1.094-1.193-3.071-.673-3.454.885z" fill="#E57281"/><path d="M131.764 301.708h15.141c.269 0 .48-.212.48-.481a.475.475 0 00-.48-.481h-15.141a7.153 7.153 0 01-6.486-4.156.467.467 0 00-.633-.231.468.468 0 00-.23.635c1.304 2.867 4.202 4.714 7.349 4.714zm-2.648-5.945h15.142a.476.476 0 00.479-.481.475.475 0 00-.479-.481h-15.142a7.153 7.153 0 01-6.486-4.156.466.466 0 00-.633-.231.468.468 0 00-.23.635c1.305 2.866 4.202 4.714 7.349 4.714zm-2.859-6.62h15.141c.269 0 .48-.211.48-.481a.476.476 0 00-.48-.481h-15.141a7.15 7.15 0 01-6.486-4.156.467.467 0 00-.634-.23.469.469 0 00-.23.634c1.305 2.867 4.203 4.714 7.35 4.714zm32.125 5.388c1.707 2.79 4.221 5.695 6.352 7.619l.019-.019 10.708-8.447c-1.19-2.578-2.821-5.329-4.836-8.042-3.838-5.195-8.233-9.082-11.879-10.91H153.2c-.499 4.368.23 11.718 5.182 19.799z" fill="#9A3B82"/><path d="M139.978 235.175s-9.326-24.955-12.934-24.455c-3.589.481 8.041 22.608 8.041 22.608l4.893 1.847z" fill="#FE5244"/><path d="M106.951 240.793c0 10.679 3.263 19.375 7.35 19.914.134.019.269.019.403.019h37.997a2.066 2.066 0 002.072-2.078v-12.16c0-3.444-2.11-6.522-5.315-7.734l-15.909-6.042a12.903 12.903 0 00-4.51-.827h-21.263a47.507 47.507 0 00-.825 8.908z" fill="#E57281"/><path d="M154.102 252.317c.268 0 .48-.211.48-.481 0-2.77-1.728-5.291-4.318-6.272l-12.013-4.56a.476.476 0 00-.614.288.478.478 0 00.287.616l12.014 4.56a5.801 5.801 0 013.703 5.387c-.019.251.192.462.461.462zm0 7.274c.268 0 .48-.212.48-.481 0-2.771-1.728-5.291-4.318-6.273l-12.013-4.56a.476.476 0 00-.614.289.479.479 0 00.287.616l12.014 4.56a5.799 5.799 0 013.703 5.387c-.019.25.192.462.461.462zm-3.358.961c.192 0 .384-.116.441-.308a.478.478 0 00-.288-.616l-12.013-4.56a.477.477 0 00-.614.289.48.48 0 00.288.616l12.013 4.56c.058 0 .115.019.173.019zm-43.793-19.759c0 10.678 3.263 19.375 7.35 19.914.134.019.269.019.403.019 4.28 0 7.753-8.928 7.753-19.952 0-2.944-.441-6.292-.902-8.909h-13.683c-.479 2.636-.921 5.984-.921 8.928z" fill="#9A3B82"/><path d="M110.137 138.299c0 1.116.384 2.175 1.017 3.002a4.874 4.874 0 002.648 1.751l2.648.692v2.963c0 7.158 5.777 12.949 12.916 12.949h2.552c7.12 0 12.877-5.772 12.915-12.891v-8.466c-18.826 4.772-22.203-8.504-22.587-14.045-.154 2.809-1.094 7.35-5.239 9.447l-.729-.192c-3.109-.77-6.141 1.577-6.141 4.79z" fill="#E57281"/><path d="M119.963 142.726c.115 0 .23-.039.307-.116 2.092-1.789 5.776-1.443 5.815-1.443a.477.477 0 00.518-.423.477.477 0 00-.423-.52c-.172-.019-4.145-.384-6.543 1.674-.192.173-.231.481-.058.674a.609.609 0 00.384.154zm12.051 10.793c.269 0 .48-.211.48-.481.038-5.695 1.247-10.197 2.936-10.947 2.975-1.309 5.661.096 5.68.115.231.135.518.039.653-.192.134-.231.038-.52-.192-.654-.134-.077-3.128-1.655-6.525-.154-2.13.942-3.473 5.464-3.512 11.832 0 .27.211.481.48.481z" fill="#9A3B82"/><path d="M137.656 147.652c-.414 0-.749-.646-.749-1.443s.335-1.443.749-1.443c.413 0 .748.646.748 1.443s-.335 1.443-.748 1.443zm-13.932 0c-.414 0-.749-.646-.749-1.443s.335-1.443.749-1.443c.413 0 .748.646.748 1.443s-.335 1.443-.748 1.443zm-8.003-7.004c.269 0 .48-.212.48-.481a4.029 4.029 0 00-3.185-3.925.495.495 0 00-.576.365c-.058.27.115.52.364.577 1.401.289 2.418 1.559 2.418 3.002.02.25.231.462.499.462z" fill="#9A3B82"/><path d="M321.307 435.997c-2.284 5.388-1.612 16.47 9.883 16.316 14.258-.192 13.894-38.711 13.894-38.711s-14.566.673-23.777 22.395zm132.797-13.025c3.569 7.581-1.228 13.68-5.258 11.583-7.043-3.675-10.075-13.122-10.075-13.122s12.128-5.233 15.333 1.539z" fill="#3FB1B5"/><path d="M321.499 435.997c7.638-15.334 16.254-22.626 30.052-22.626 23.24 0 38.15 24.935 40.991 57.182.345-4.002 4.471-8.1 4.778-12.256 4.145-55.22-26.041-77-48.686-77-18.538-.019-23.163 26.686-27.135 54.7z" fill="#fff"/><path d="M391.966 470.611h1.151c.154-1.847 1.19-3.732 2.284-5.752 1.151-2.098 2.341-4.291 2.494-6.523 2.534-33.805-7.829-52.68-16.964-62.57-8.847-9.562-20.629-15.065-32.297-15.065h-.019c-8.636 0-15.026 5.618-19.536 17.201-3.992 10.236-6.122 23.82-8.137 38l-.499 3.521 1.593-3.175c3.953-7.946 7.945-13.295 12.551-16.874 4.74-3.655 10.286-5.445 16.983-5.445 10.862 0 20.438 5.619 27.672 16.239 6.89 10.178 11.284 24.147 12.724 40.443zm-43.351-88.736h.019c11.361 0 22.817 5.349 31.453 14.68 8.981 9.717 19.171 28.284 16.657 61.685-.154 1.982-1.267 4.06-2.36 6.061-.557 1.019-1.133 2.078-1.574 3.136-1.708-15.181-6.064-28.226-12.627-37.885-7.465-10.967-17.348-16.758-28.613-16.758-6.966 0-12.742 1.866-17.693 5.676-4.146 3.194-7.773 7.773-11.323 14.257 1.862-12.891 3.953-25.07 7.6-34.382 2.091-5.368 4.509-9.313 7.388-12.026 3.147-2.982 6.774-4.444 11.073-4.444z" fill="#3FB1B5"/><path d="M397.876 471.362c2.514-33.402-8.021-52.373-17.309-62.397-8.809-9.524-20.611-15.219-31.568-15.219-11.764 0-19.229 6.83-24.948 22.819l1.075.385c5.546-15.45 12.685-22.049 23.873-22.049 10.631 0 22.126 5.56 30.723 14.853 9.135 9.87 19.478 28.553 17.003 61.531l1.151.077z" fill="#3FB1B5"/><path d="M484.252 357.997c6.198 6.157 17.406 31.401 3.531 36.403-13.875 5.022-30.129-44.407-30.129-44.407s11.764-6.753 26.598 8.004z" fill="#FFCF2D"/><path d="M485.749 395.344c.748 0 1.497-.135 2.226-.385 3.55-1.289 5.776-3.887 6.64-7.754 2.168-9.87-5.316-24.974-9.96-29.592-4.299-4.271-11.131-9.447-19.248-9.697-4.894-.154-7.906 1.539-8.041 1.616l-.403.231.154.443c.038.096 3.185 9.62 7.81 19.76 6.256 13.699 12.09 21.953 17.367 24.531 1.171.539 2.342.847 3.455.847zm-20.975-46.312c.211 0 .441 0 .671.019 7.715.289 14.259 5.253 18.404 9.37 4.586 4.56 11.668 19.395 9.653 28.534-.768 3.463-2.745 5.791-5.911 6.926-1.516.558-3.09.404-4.798-.423-11.303-5.522-22.932-38.75-24.429-43.137.902-.442 3.186-1.289 6.41-1.289z" fill="#FFCF2D"/><path d="M369.859 472.691l4.951 26.917c2.494 13.507 14.239 23.319 27.941 23.319 13.702 0 25.446-9.812 27.941-23.319l4.951-26.917a8.99 8.99 0 00-.844-3.791c-3.973 4.002-16.888 6.927-32.182 6.927-15.084 0-27.826-2.848-32.01-6.734a9 9 0 00-.748 3.598z" fill="#D0F0E4"/><path d="M373.102 466.302c0 3.81 13.222 6.889 29.534 6.889 16.311 0 29.533-3.079 29.533-6.889 0-.307-.076-.596-.249-.885-1.881-3.386-14.278-5.983-29.284-5.983-15.468 0-28.153 2.77-29.419 6.291a1.545 1.545 0 00-.115.577z" fill="#66B0F0"/><path d="M392.042 426.146c0 15.931 2.188 30.977 6.084 44.215h11.207c.038-66.899 24.372-121.099 54.366-121.099 7.791 0 15.199 3.655 21.896 10.235-19.727-23.146-27.922-29.495-39.186-29.495-26.905 0-54.367 43.041-54.367 96.144z" fill="#fff"/><path d="M397.704 470.939h12.205v-.578c.038-66.456 24.16-120.521 53.79-120.521 7.465 0 14.7 3.386 21.493 10.062l.845-.789c-20.112-23.588-28.249-29.707-39.628-29.707-13.376 0-27.135 10.371-37.767 28.438-5.296 9.004-9.48 19.336-12.435 30.707-3.147 12.064-4.721 24.705-4.721 37.577 0 15.45 2.111 30.804 6.102 44.368l.116.443zm11.053-1.155h-10.209c-3.876-13.372-5.93-28.437-5.93-43.637 0-12.776 1.574-25.32 4.702-37.288 2.936-11.256 7.081-21.491 12.32-30.419 5.047-8.581 11.015-15.642 17.271-20.433 6.448-4.926 13.011-7.446 19.498-7.446 10.036 0 17.559 5.06 34.024 23.819-5.373-3.79-10.977-5.714-16.734-5.714-7.484 0-14.738 3.252-21.531 9.678-6.525 6.157-12.378 14.95-17.406 26.128-10.248 22.819-15.928 53.084-16.005 85.312z" fill="#FFCF2D"/><path d="M402.194 470.4l1.151-.115c-1.324-13.565-1.631-26.764-.921-39.232.672-11.698 2.265-22.819 4.721-33.035 4.567-18.991 12.013-34.614 21.551-45.157 8.117-8.986 17.271-13.738 26.444-13.738 7.1 0 11.15 2.078 17.54 6.734l.672-.943c-6.602-4.81-10.805-6.965-18.231-6.965-9.519 0-18.941 4.887-27.289 14.103-9.672 10.698-17.214 26.494-21.819 45.677-2.476 10.294-4.069 21.472-4.759 33.248-.71 12.544-.403 25.801.94 39.423z" fill="#FFCF2D"/><path d="M402.693 470.342s-1.651-62.82 32.489-63.031c9.039-.058 17.502 14.315 17.502 14.315s-39.974-10.467-41.95 48.716h-8.041z" fill="#fff"/><path d="M402.136 470.92h9.154l.019-.558c.691-20.953 6.218-35.441 16.389-43.06 5.93-4.445 12.359-5.599 16.696-5.792 4.74-.211 8.098.655 8.136.655l1.344.346-.71-1.212c-.096-.154-2.188-3.694-5.431-7.273-4.395-4.868-8.617-7.331-12.512-7.331h-.058c-6.909.039-12.896 2.636-17.789 7.696-3.743 3.868-6.871 9.236-9.308 15.931-1.938 5.33-3.435 11.525-4.471 18.414-1.746 11.698-1.516 21.491-1.516 21.587l.057.597zm8.041-1.155h-6.908c-.019-2.232.019-10.832 1.516-20.856 1.593-10.659 5.219-25.167 13.452-33.69 4.663-4.83 10.363-7.292 16.964-7.331h.058c7.12 0 14.047 9.563 16.235 12.891-1.439-.25-3.953-.558-7.081-.423-4.51.192-11.207 1.385-17.368 6.003-10.401 7.773-16.081 22.377-16.868 43.406z" fill="#3FB1B5"/><path d="M406.301 470.553l1.151-.038c-.096-3.848-.076-13.95 2.399-24.782 2.514-10.967 6.717-19.356 12.493-24.916 6.026-5.811 13.759-8.447 22.971-7.831l.077-1.154c-9.557-.635-17.579 2.116-23.835 8.157-5.93 5.734-10.247 14.296-12.819 25.494-2.514 10.967-2.533 21.184-2.437 25.07z" fill="#3FB1B5"/><path d="M452.837 362.039a3.171 3.171 0 01-3.166-3.175 3.171 3.171 0 013.166-3.175 3.171 3.171 0 013.167 3.175 3.171 3.171 0 01-3.167 3.175z" fill="#fff"/><path d="M452.837 362.615a3.74 3.74 0 003.743-3.752 3.74 3.74 0 00-3.743-3.752 3.74 3.74 0 00-3.742 3.752 3.74 3.74 0 003.742 3.752zm0-6.349a2.607 2.607 0 012.591 2.597 2.608 2.608 0 01-2.591 2.598 2.608 2.608 0 01-2.59-2.598 2.607 2.607 0 012.59-2.597z" fill="#FFCF2D"/><path d="M378.206 452.834a4.631 4.631 0 01-4.625-4.637 4.631 4.631 0 014.625-4.636 4.631 4.631 0 014.625 4.636 4.631 4.631 0 01-4.625 4.637z" fill="#fff"/><path d="M378.206 453.411c2.86 0 5.201-2.348 5.201-5.214 0-2.867-2.341-5.215-5.201-5.215-2.859 0-5.2 2.348-5.2 5.215 0 2.866 2.341 5.214 5.2 5.214zm0-9.274c2.226 0 4.049 1.828 4.049 4.06 0 2.231-1.823 4.059-4.049 4.059-2.226 0-4.049-1.828-4.049-4.059 0-2.232 1.823-4.06 4.049-4.06z" fill="#FFCF2D"/><path d="M385.882 363.384c-4.822 0-8.731-3.92-8.731-8.755 0-4.835 3.909-8.754 8.731-8.754 4.823 0 8.732 3.919 8.732 8.754 0 4.835-3.909 8.755-8.732 8.755z" fill="#D0F0E4"/><path d="M363.506 553.538l7.734-38.616c.307-1.539 1.497-2.27 2.514-2.443 1.017-.173 2.38.115 3.186 1.462 2.59 4.329 6.428 7.869 11.092 10.236 4.375 2.232 9.422 3.425 14.565 3.444 5.162.019 10.209-1.135 14.623-3.328 4.702-2.348 8.578-5.869 11.207-10.179l.192-.327c.806-1.327 2.188-1.597 3.186-1.424.998.174 2.187.924 2.494 2.444l7.753 38.731 1.133-.231-7.753-38.731c-.346-1.751-1.651-3.021-3.416-3.348-1.766-.308-3.435.443-4.376 1.963l-.191.346c-2.514 4.118-6.237 7.485-10.728 9.736-4.241 2.116-9.134 3.232-14.105 3.213-4.97-.019-9.825-1.174-14.047-3.329-4.471-2.289-8.137-5.676-10.631-9.812-.922-1.54-2.591-2.309-4.376-2.001-1.765.308-3.09 1.597-3.435 3.367l-7.734 38.615 1.113.212z" fill="#66B0F0"/><path d="M402.194 527.062h1.151v26.533h-1.151v-26.533z" fill="#66B0F0"/><path d="M202.941 552.846h257.227V554H202.941v-1.154z" fill="#66B0F0"/><path d="M246.697 291.538h87.875c2.36 0 4.47-1.433 5.346-3.618l24.047-59.534c1.144-2.848-.948-5.964-4.005-5.964h-87.875a5.754 5.754 0 00-5.346 3.618l-24.047 59.534c-1.162 2.848.929 5.964 4.005 5.964z" fill="#fff"/><path fill-rule="evenodd" clip-rule="evenodd" d="M363.467 228.187v.001l-24.047 59.534a5.218 5.218 0 01-4.848 3.281h-87.875c-2.695 0-4.526-2.73-3.509-5.224l24.048-59.536.001-.001a5.217 5.217 0 014.848-3.281h87.875c2.675 0 4.51 2.729 3.507 5.226zm.995.402c1.286-3.199-1.062-6.702-4.502-6.702h-87.875a6.29 6.29 0 00-5.844 3.955l-24.046 59.531c-1.307 3.202 1.046 6.704 4.502 6.704h87.875a6.288 6.288 0 005.843-3.955l24.047-59.533z" fill="#FE5244"/><path d="M250.773 291.971h83.834a5.505 5.505 0 005.096-3.439l22.939-56.794c1.09-2.722-.894-5.677-3.826-5.677h-83.835a5.505 5.505 0 00-5.096 3.438l-22.938 56.794c-1.091 2.722.912 5.678 3.826 5.678z" fill="#FE5244"/><path d="M302.246 266.143a9.191 9.191 0 006.544-2.722 7.516 7.516 0 002.217-5.337 7.457 7.457 0 00-2.217-5.338 6.136 6.136 0 00-4.363-1.808c-1.644 0-3.2.644-4.362 1.808a5.097 5.097 0 000 7.2 4.203 4.203 0 005.954 0 .715.715 0 000-1.021.712.712 0 00-1.019 0 2.77 2.77 0 01-3.934 0 3.659 3.659 0 010-5.176 4.733 4.733 0 013.361-1.397c1.27 0 2.468.502 3.362 1.397a6.06 6.06 0 011.788 4.335c0 1.63-.644 3.17-1.788 4.334a7.726 7.726 0 01-5.525 2.293c-2.092 0-4.058-.806-5.525-2.293a.71.71 0 00-1.019 0 .715.715 0 000 1.021 9.178 9.178 0 006.526 2.704zm-86.998 31.702h119.217a2.482 2.482 0 002.485-2.489v-1.2c0-1.38-1.109-2.49-2.485-2.49H215.248a2.482 2.482 0 00-2.486 2.49v1.2c.018 1.379 1.127 2.489 2.486 2.489z" fill="#fff"/><path fill-rule="evenodd" clip-rule="evenodd" d="M334.464 292.204c1.081 0 1.949.869 1.949 1.952v1.2a1.945 1.945 0 01-1.949 1.952H215.247c-1.057 0-1.933-.866-1.949-1.956v-1.196c0-1.083.869-1.952 1.949-1.952h119.217zm3.022 1.952a3.02 3.02 0 00-3.022-3.027H215.247a3.018 3.018 0 00-3.021 3.027v1.207c.021 1.666 1.362 3.02 3.021 3.02h119.217a3.02 3.02 0 003.022-3.027v-1.2z" fill="#FE5244"/></svg>