<!-- icon666.com - MILLIONS vector ICONS FREE --><svg viewBox="-21 -139 681.33193 681" xmlns="http://www.w3.org/2000/svg"><path d="m97.351562 175.46875v-18.097656c0-5.167969-4.183593-9.355469-9.355468-9.355469-5.164063 0-9.355469 4.1875-9.355469 9.355469v18.089844c0 5.171874 4.191406 9.359374 9.355469 9.359374 5.171875 0 9.355468-4.1875 9.355468-9.351562zm0 0"></path><path d="m636.71875 150.820312c3.980469-9.96875 2.019531-21.140624-5.117188-29.152343-7.140624-8.019531-18.011718-11.257813-28.371093-8.457031-.210938.058593-.414063.121093-.621094.195312l-12.875 4.464844c-4.882813 1.691406-7.46875 7.019531-5.773437 11.90625 1.691406 4.882812 7.023437 7.46875 11.90625 5.773437l12.511718-4.335937c3.4375-.835938 6.878906.238281 9.246094 2.898437 2.433594 2.722657 3.070312 6.378907 1.714844 9.769531l-11.878906 29.773438c-8.777344 21.972656-8.777344 46.175781 0 68.15625 0 0 11.855468 29.71875 11.878906 29.769531 2.785156 6.980469-3.632813 14.421875-10.929688 12.679688l-76.730468-27.265625c.03125-.019532.058593-.042969.09375-.0625 16.484374-10.664063 26.742187-29.566406 26.742187-49.199219 0-12.660156-4.199219-25.191406-11.824219-35.285156-4.308594-5.699219-9.636718-10.535157-15.660156-14.363281-.019531-.011719-.035156-.019532-.046875-.03125l29.910156-10.375c4.882813-1.691407 7.472657-7.023438 5.777344-11.90625-1.691406-4.882813-7.023437-7.464844-11.90625-5.773438l-51.015625 17.691406c-9.695312-3.097656-20.21875-6.761718-31.527344-10.835937 4.675782-26.496094 3.242188-42.191407-4.539062-51.730469-5.042969-6.179688-12.390625-9.3125-21.839844-9.3125-14.929688 0-36.359375 7.796875-71.25 25.980469-28.429688-9.53125-58.09375-18.425781-87.953125-25.027344-.882813-10.261719 4.226563-18.398437 10.03125-27.605469 5.730469-9.085937 11.65625-18.488281 11.59375-30.328125-.078125-15.265625-13.207031-27.570312-28.78125-26.503906-70.703125 4.824219-112.222656 59.332031-122.757813 75.015625-103.226562 10.824219-142.214843 65.78125-154.257812 89.148438-4.945312 9.539062-2.277344 21.183593 6.347656 27.695312l43.351563 32.699219-20.894531 11.886719c-4.574219 2.609374-7.800782 7.058593-8.855469 12.210937-1.058594 5.164063.160156 10.53125 3.351562 14.746094 8.648438 11.394531 28.066407 32.152343 63.15625 47.582031.039063 3.679688.542969 7.375 1.609375 10.996094 15.699219 53.417968 34.289063 81.65625 53.757813 81.65625 6.097656 0 11.574219-2.832032 15.425781-7.976563 2.78125-3.71875 4.519531-8.421875 5.144531-13.523437 7.125-.15625 13.1875-3.964844 16.679688-10.492188 3.277343-6.121094 4.027343-14.386718 2.472656-22.402344 6.789063-2.507812 12.089844-8.316406 13.875-15.796874.183594-.769532.34375-1.644532.464844-2.617188 25.1875-.273438 52.746093-2.777344 84.0625-7.648438 5.105469-.796874 8.601562-5.578124 7.804687-10.683593-.792968-5.109375-5.578125-8.597657-10.679687-7.808594-31.984375 4.976563-59.832031 7.414063-85.105469 7.453125-5.070312-9.71875-15.847656-21.4375-37.578125-33.695312.46875-.5625.921875-1.140626 1.386719-1.710938 3.824218-4.707031 7.441406-9.644531 10.746094-14.734375.023437-.035156.046874-.074219.070312-.109375.425781.265625 9.027344 5.355469 13.03125 7.417969.019531.011719.035156.019531.050781.023437 12.570313 6.472656 26.644531 12.0625 41.050781 11.257813 13.4375-.75 27.464844-9.417969 27.085938-24.417969-.035156-1.175781-.136719-2.355469-.355469-3.511719.238281-.082031.476563-.179687.71875-.269531 9.59375-3.636719 19.296875-11.179688 20.179688-22.160156 0-.023438 0-.050782.003906-.074219.230469-2.96875-.167969-6.769531-2.398437-10.726563 6.953124-5.371093 11.019531-12.855468 10.492187-20.441406 0-.035156-.003906-.0625-.003906-.097656-1.085938-14.5625-16.910157-20.089844-29.296875-21.449219-12.28125-1.347656-28.261719-.136719-47.632813 3.578125-1.195312.230469-5.976562 1.199219-6.171875 1.238282.726563-9.820313.578125-19.683594-.378906-29.480469-2.050781-21.046875-8.125-41.734375-17.765625-60.554688.082031-.003906.160156-.007812.242187-.015625 22.402344-1.011718 44.570313.339844 66.742188 3.535156 43.398438 6.253907 86.285156 18.1875 127.609375 32.683594.042969.015625.078125.035156.117187.050782 44.257813 14.96875 87.539063 33.171874 132.253907 46.757812 19.242187 5.847656 35.164062 18.359375 35.164062 40.171875 0 19-13.902343 35.777344-32.613281 39.175781-64.113281 11.652344-126.609375 31.050782-190.582031 43.558594-5.066407.992188-8.375 5.910156-7.382813 10.976562.992188 5.074219 5.90625 8.382813 10.976563 7.390626 16.179687-3.164063 32.363281-6.691407 48.191406-10.332032 37.25 19.554688 60.703125 30.132813 76.769531 30.136719 8.226563 0 14.660156-2.773437 19.117188-8.238281 6.914062-8.46875 8.1875-22.109375 4.054687-46.046875 12.347657-2.902344 24.058594-5.511719 34.839844-7.628907l99.367187 35.308594c10.03125 3.578125 22.164063-.492187 29.058594-8.234375 7.140625-8.015625 9.101563-19.1875 5.121094-29.152343l-11.882812-29.769532c-6.988282-17.507812-6.988282-36.785156 0-54.285156zm-190.875-56.296874c5.355469 0 6.796875 1.769531 7.335938 2.433593 2.605468 3.1875 4.675781 11.632813 1.160156 33.382813-3.3125-1.210938-6.671875-2.449219-10.070313-3.703125-.105469-.039063-.210937-.078125-.316406-.117188-3.167969-1.164062-6.375-2.34375-9.605469-3.53125-.507812-.1875-1.011718-.371093-1.523437-.558593-7.195313-2.640626-14.539063-5.324219-22.019531-8.015626-.011719-.003906-.015626-.003906-.027344-.007812-3.804688-1.371094-7.640625-2.738281-11.507813-4.109375 17.15625-8.289063 35.441407-15.773437 46.574219-15.773437zm-165.09375-83.53125c4.757812-.320313 8.777344 3.355468 8.800781 7.925781.035157 6.390625-4.019531 12.816406-8.714843 20.257812-5.753907 9.128907-12.570313 19.945313-13.03125 33.738281-9.46875-1.757812-18.925782-3.25-28.355469-4.429687-19.230469-2.402344-38.601563-3.4375-57.976563-2.8125 16.34375-19.566406 50.136719-51.324219 99.277344-54.679687zm-239.789062 233.792968s24.460937-13.917968 24.480468-13.929687c9.621094-5.472657 10.484375-19.480469 1.679688-26.132813l-47.039063-35.476562c-1.308593-.992188-1.734375-2.734375-.988281-4.167969 10.59375-20.5625 45.054688-68.753906 138.109375-78.96875 5.527344 9.507813 9.988281 19.617187 13.296875 30.097656 6.40625 20.25 8.492188 41.886719 6.09375 62.988281-.160156.050782-.3125.117188-.472656.164063-12.945313 4.25-23.179688 15.136719-26.800782 28.253906-3.15625 11.425781-.988281 23.996094 5.714844 33.75-.183594.292969-.367187.585938-.550781.875-3.5625 5.671875-7.480469 11.074219-11.753906 16.230469-1.234375 1.480469-2.488281 2.945312-3.773438 4.382812-.425781-.097656-.851562-.175781-1.277343-.257812-2.542969-.5-5.230469-.78125-7.867188-.78125-8.980469 0-17.84375 3.011719-24.964844 8.484375-4.941406 3.804687-9.015625 8.773437-11.761718 14.367187-28.734376-13.347656-44.742188-30.257812-52.125-39.878906zm159.394531-52.113281c16.707031-3.597656 34.359375-7.023437 51.402343-3.679687 6.730469 1.382812 8.484376 3.582031 8.5 3.605468.054688.933594-1.960937 4.167969-6.578124 6.335938-1.066407.5-2.277344.945312-3.625 1.289062-7.925782 2.027344-9.515626 13.152344-2.261719 17.226563 2.15625 1.210937 3.316406 2.257812 3.898437 2.921875.273438.3125.539063.628906.382813 1.0625-.007813.027344-.011719.046875-.023438.078125-2.320312 5.539062-11.476562 7.519531-16.816406 7.25-9.328125-.46875-13.414063 12.164062-5.539063 17.21875 1.570313 1.007812 2.414063 3.011719 1.386719 4.714843-2.253906 3.742188-8.320312 3.75-12.082031 3.519532-8.589844-.511719-16.976562-3.753906-24.667969-7.40625-7.425781-3.535156-15.316406-6.921875-21.207031-12.835938-4.738281-4.757812-7.164062-11.667968-6.367188-18.34375 1.066407-8.953125 7.84375-16.667968 16.570313-18.902344 5.613281-1.433593 11.300781-2.824218 17.027344-4.054687zm-20.671875 128.765625c-.566406 2.371094-2.964844 3.371094-5.160156 2.273438-8.359376-4.175782-17.175782 5.753906-11.976563 13.558593 5.113281 7.667969 3.65625 17.296875 2.125 18.460938 0 0-.082031.023437-.277344.023437-.433593 0-2.089843-.136718-5.152343-1.90625-7.152344-4.121094-15.984376 2.824219-13.652344 10.746094 2.101562 7.140625-.316406 12.140625-1.296875 12.65625-4.089844 0-19.441407-12.535156-35.808594-68.226562-2.515625-8.554688.691406-18.449219 7.78125-23.902344 6.175781-4.746094 14.773437-5.867188 21.980469-2.933594.023437.011719.046875.019531.078125.03125 7.800781 3.199219 15.117187 7.585938 21.859375 12.628906 6.839844 5.117188 13.832031 10.820313 17.789062 18.566406.019532.039063.042969.078126.0625.117188 1.726563 3.421875 2.070313 6.132812 1.648438 7.90625zm270.101562-12.867188c-.304687.371094-1.105468 1.355469-4.625 1.355469-9.503906-.003906-26.304687-6.894531-48.703125-18.050781 4.140625-1.003906 53.738281-12.558594 53.640625-13.152344 3.496094 21.046875 1.417969 27.730469-.3125 29.847656zm0 0"></path></svg>