<!-- icon666.com - MILLIONS vector ICONS FREE --><svg viewBox="0 -23 480.32891 480" xmlns="http://www.w3.org/2000/svg" xmlns:xlink="http://www.w3.org/1999/xlink"><linearGradient id="a"><stop offset="0" stop-color="#7ed4ef"></stop><stop offset=".229" stop-color="#66bfe6"></stop><stop offset=".711" stop-color="#298bd0"></stop><stop offset="1" stop-color="#0169c2"></stop></linearGradient><linearGradient id="b" gradientUnits="userSpaceOnUse" x1="-7.671087" x2="485.608913" xlink:href="#a" y1="217.026545" y2="217.026545"></linearGradient><linearGradient id="c" gradientUnits="userSpaceOnUse" x1="-7.671087" x2="485.608913" xlink:href="#a" y1="260.570545" y2="260.570545"></linearGradient><linearGradient id="d" gradientUnits="userSpaceOnUse" x1="-7.669681" x2="485.610319" xlink:href="#a" y1="141.319477" y2="141.319477"></linearGradient><linearGradient id="e" gradientUnits="userSpaceOnUse" x1="-7.671087" x2="485.608913" xlink:href="#a" y1="393.314545" y2="393.314545"></linearGradient><linearGradient id="f" gradientUnits="userSpaceOnUse" x1="-7.671087" x2="485.608913" xlink:href="#a" y1="314.362545" y2="314.362545"></linearGradient><linearGradient id="g" gradientUnits="userSpaceOnUse" x1="-7.671087" x2="485.608913" xlink:href="#a" y1="265.314545" y2="265.314545"></linearGradient><linearGradient id="h" gradientUnits="userSpaceOnUse" x1="-7.671087" x2="485.608913" xlink:href="#a" y1="57.314545" y2="57.314545"></linearGradient><linearGradient id="i" gradientUnits="userSpaceOnUse" x1="-7.671087" x2="485.608913" xlink:href="#a" y1="241.314545" y2="241.314545"></linearGradient><linearGradient id="j" gradientUnits="userSpaceOnUse" x1="-7.671087" x2="485.608913" xlink:href="#a" y1="337.314545" y2="337.314545"></linearGradient><path d="m337.769531 24.800781c-44.34375-8.09375-71.257812-.863281-90.703125 57.722657-6.578125-44.128907-26.898437-78.183594-78.175781-81.792969-36.652344-2.863281-73.332031 5.167969-105.433594 23.078125-37.605469 21.589844-61.453125 61.007812-63.128906 104.339844-6.070313 86.238281 73.226563 266.214843 130.519531 296.277343 5.265625 2.957031 11.175782 4.574219 17.210938 4.722657 6.289062-.011719 12.382812-2.195313 17.246094-6.1875 22.25-17.804688 42.128906-61.8125 56.984374-114.023438.960938 30.070312 7.0625 59.75 18.039063 87.761719 4.726563 18.484375 19.804687 32.511719 38.585937 35.886719 4.21875.789062 8.503907 1.195312 12.800782 1.214843 15.0625 0 32.703125-5.460937 52.167968-25.078125 3.421876-2.558594 6.75-5.144531 9.804688-7.6875 61.144531-50.96875 126.640625-153.023437 126.640625-223.71875 0-114.027344-99.695313-144.640625-142.558594-152.515625zm-321.441406 104.515625c1.128906-38.113281 22.050781-72.875 55.199219-91.714844 25.53125-14.285156 54.351562-21.644531 83.601562-21.351562 4.203125 0 8.40625.148438 12.609375.441406 41.300781 2.910156 61.429688 27.726563 65.261719 84.664063-15.984375-22.441407-45.285156-52.039063-88.671875-52.039063v16c57.9375 0 88.394531 66.582032 88.695313 67.253906l.585937-.253906c-.074219 3.359375-.113281 6.664063-.265625 10.191406-25.558594-29.898437-73.351562-69.359374-138.949219-52.953124-48.738281 12.183593-67.007812 53.910156-72.800781 94.449218-4.15625-17.917968-5.925781-36.308594-5.265625-54.6875zm139 281.148438c-2.832031 2.265625-7.671875 4.699218-17.015625-.207032-33.335938-17.488281-77.414062-98.398437-102.527344-174.296874-.351562-5.75-.550781-12.039063-.527344-18.644532h69.070313v-16h-68.511719c2.769532-39.785156 16.519532-84.753906 62.449219-96.242187 57.664063-14.398438 100.3125 21.265625 123.253906 48.242187h-69.191406v16h79.3125c-3.851563 43.234375-11.417969 86.058594-22.617187 128h-56.695313v16h52.152344c-13.558594 45.324219-30.742188 82.398438-49.152344 97.148438zm98.328125-25.109375c-8.800781-37.191407 2.6875-98.160157 13.792969-157.113281 1.601562-8.601563 3.199219-17.128907 4.742187-25.496094 2.601563-14.253906 4.992188-26.703125 7.34375-37.71875 5-6.542969 37.882813-47.320313 68.671875-28.855469l8.242188-13.714844c-26.34375-15.804687-51.746094-2.957031-68.9375 11.296875 9.128906-28.503906 20.34375-38.863281 42.144531-38.863281 7.132812.132813 14.238281.902344 21.234375 2.296875 33.855469 6.167969 53.597656 16.742188 64 34.296875 13.910156 23.503906 11.910156 61.214844-6.113281 115.300781-25.054688 75.203125-50.402344 125.074219-76.496094 150.625-20.289062 14.785156-37.960938 21.679688-50.480469 19.390625-10.519531-1.917969-19.351562-10.742187-26.398437-25.246093-.632813-1.960938-1.226563-4.007813-1.746094-6.199219zm133.265625-41.183594c14.4375-29.890625 26.796875-60.738281 36.992187-92.328125 19.582032-58.746094 21.125-100.800781 4.710938-128.511719-16.609375-28.058593-48.734375-37.128906-74.855469-41.890625-70.511719-12.847656-80.226562 24.671875-97.304687 118.441406-1.527344 8.335938-3.128906 16.800782-4.734375 25.398438-5.152344 27.320312-10.363281 55.042969-13.671875 80.984375-1.167969-21.355469-1.246094-42.761719-.242188-64.128906 4.996094-26.722657 8.503906-53.707031 10.511719-80.820313.535156-7.246094.914063-14.480468 1.136719-21.714844 16.976562-90.09375 32.96875-108.613281 85.417968-99.085937 48.34375 8.902344 129.445313 38.472656 129.445313 136.800781 0 48.734375-35.566406 116.046875-77.40625 166.855469zm0 0" fill="url(#b)"></path><path d="m302.730469 369.15625.574219.09375c3.226562.414062 6.476562.625 9.726562.632812 43.664062 0 54.074219-41.433593 63.320312-78.28125 3.425782-16.054687 8.511719-31.707031 15.175782-46.710937 10.679687-21.367187 12.984375-37.785156 7.203125-51.671875-7.800781-18.816406-29.601563-29.398438-59.867188-39.496094-9.578125-3.957031-20.441406-3.285156-29.460937 1.816406-18.335938 11.375-22.625 42.574219-27.585938 78.65625-2.136718 17.875-5.222656 35.625-9.246094 53.175782-6.640624 26.4375-5.042968 47.542968 4.558594 62.742187 5.765625 9.40625 14.933594 16.222657 25.601563 19.042969zm-14.640625-77.898438c4.175781-18.109374 7.378906-36.429687 9.597656-54.878906 4.226562-30.769531 8.226562-59.824218 20.167969-67.25 5.027343-2.492187 10.910156-2.574218 16-.222656 26.128906 8.710938 44.664062 17.222656 50.136719 30.398438 3.792968 9.152343 1.601562 21.714843-6.765626 38.402343-7.210937 16.042969-12.695312 32.804688-16.363281 50.007813-10.910156 43.488281-19.382812 69.984375-55.117187 65.71875-6.4375-2.015625-11.894532-6.347656-15.3125-12.160156-6.90625-11.222657-7.703125-28.511719-2.34375-50.015626zm0 0" fill="url(#c)"></path><path d="m364.75 144.472656 7.15625-14.3125 16 8-7.15625 14.3125zm0 0" fill="url(#d)"></path><path d="m280.328125 385.316406h16v16h-16zm0 0" fill="url(#e)"></path><path d="m327.449219 335.714844c11.199219-6.945313 16.878906-22.550782 16.878906-46.398438h-16c0 23.390625-5.773437 30.535156-9.207031 32.710938-3.554688 1.734375-7.703125 1.769531-11.289063.09375l-7.078125 14.394531c4.101563 1.933594 8.582032 2.9375 13.117188 2.933594 4.789062.050781 9.492187-1.242188 13.578125-3.734375zm0 0" fill="url(#f)"></path><path d="m328.328125 257.316406h16v16h-16zm0 0" fill="url(#g)"></path><path d="m112.328125 49.316406h16v16h-16zm0 0" fill="url(#h)"></path><path d="m72.328125 233.316406h80v16h-80zm0 0" fill="url(#i)"></path><path d="m128.328125 329.316406h32v16h-32zm0 0" fill="url(#j)"></path></svg>