<svg width="1845" height="687" fill="none" xmlns="http://www.w3.org/2000/svg"><g opacity=".4" clip-path="url(#clip0_2502_330)" fill="#fff"><path d="M1842.09 0C1770.73 0 1713 57.727 1713 129.089c0 71.184 57.73 129.088 129.09 129.088 71.18 0 129.09-57.727 129.09-129.088C1971 57.727 1913.27 0 1842.09 0zm0 249.855c-66.76 0-120.77-54.009-120.77-120.766 0-66.758 54.01-120.766 120.77-120.766 66.76 0 120.76 54.008 120.76 120.766 0 66.58-54.18 120.766-120.76 120.766z"/><path d="M1842.09 27.8c-55.78 0-101.11 45.332-101.11 101.111s45.33 101.111 101.11 101.111 101.11-45.155 101.11-100.934c0-55.956-45.33-101.287-101.11-101.287zm0 186.816c-47.28 0-85.71-38.425-85.71-85.705s38.43-85.705 85.71-85.705c47.28 0 85.7 38.426 85.7 85.705 0 47.28-38.42 85.705-85.7 85.705z"/></g><g opacity=".6" fill="#fff"><path d="M78.824 626.717H90V597H60.283v11.091h18.541v18.626z"/><path d="M58.76 646.782h11.09v-29.718H40.219v11.176H58.76v18.542z"/><path d="M38.606 666.849h11.176v-29.632H20.065v11.091h18.541v18.541z"/><path d="M18.542 686.999h11.175v-29.718H0v11.176h18.542v18.542z"/></g><defs><clipPath id="clip0_2502_330"><path fill="#fff" transform="translate(1713)" d="M0 0h258v258H0z"/></clipPath></defs></svg>