<svg width="106" height="37" fill="none" xmlns="http://www.w3.org/2000/svg"><path d="M43.153 29.581L37.558 9.628h3.862l3.572 14.663h.184l3.813-14.663h3.514l3.823 14.673h.174l3.572-14.673h3.862l-5.595 19.953h-3.542l-3.969-14h-.155l-3.978 14h-3.542zM69.5 20.813v8.768h-3.504V9.628h3.427v7.532h.174a4.323 4.323 0 011.616-1.998c.736-.493 1.671-.74 2.807-.74 1.032 0 1.933.217 2.7.653.768.435 1.362 1.071 1.781 1.91.426.837.64 1.86.64 3.068v9.528h-3.505V20.6c0-1.007-.258-1.79-.774-2.348-.51-.565-1.226-.848-2.149-.848-.62 0-1.174.137-1.664.41a2.855 2.855 0 00-1.143 1.159c-.27.506-.406 1.12-.406 1.841zm12.94 8.768V14.617h3.503V29.58h-3.504zm1.76-17.088a2.036 2.036 0 01-1.432-.556c-.4-.376-.6-.828-.6-1.354 0-.532.2-.984.6-1.354.4-.377.878-.565 1.433-.565.561 0 1.039.188 1.433.565.4.37.6.822.6 1.354 0 .526-.2.978-.6 1.354-.394.37-.872.556-1.433.556zm5.073 17.088V14.617h3.398v2.494h.154c.272-.864.736-1.53 1.394-1.998.665-.474 1.423-.71 2.275-.71.193 0 .41.009.648.028.246.014.449.036.61.069v3.244a3.663 3.663 0 00-.706-.136 6.468 6.468 0 00-.92-.069 3.52 3.52 0 00-1.723.42c-.503.272-.9.652-1.19 1.14-.29.486-.436 1.048-.436 1.685v8.797h-3.504zm14.039-19.953v19.953h-3.504V9.628h3.504z" fill="#2D2D2D"/><path fill-rule="evenodd" clip-rule="evenodd" d="M18.53 5.617a13.098 13.098 0 00-11.629.767L5.135 7.41 3.096 3.855 4.862 2.83a17.152 17.152 0 0115.23-1.005 17.257 17.257 0 016.368 4.594 17.405 17.405 0 013.694 6.956 17.48 17.48 0 01.256 7.883 17.422 17.422 0 01-3.233 7.184 17.278 17.278 0 01-6.057 5.003c-2.374 1.179-5.435 1.791-7.631 1.791-2.196 0-3.478-.331-5.162-1.033a13.483 13.483 0 01-4.376-2.943 13.584 13.584 0 01-2.924-4.405 13.655 13.655 0 010-10.392 13.584 13.584 0 012.924-4.405 13.483 13.483 0 014.376-2.943 13.412 13.412 0 0110.324 0 13.482 13.482 0 014.376 2.943 13.582 13.582 0 013.614 6.588 13.344 13.344 0 00-.426-4.208 13.29 13.29 0 00-2.82-5.312 13.18 13.18 0 00-4.864-3.508zM5.345 26.404c.232-4.413 3.86-7.92 8.302-7.92 4.27 0 7.788 3.241 8.259 7.413a9.516 9.516 0 00.995-4.24 9.527 9.527 0 00-.717-3.624 9.477 9.477 0 00-2.04-3.073 9.405 9.405 0 00-3.053-2.054 9.356 9.356 0 00-7.203 0 9.405 9.405 0 00-3.053 2.054 9.478 9.478 0 00-2.04 3.073 9.527 9.527 0 00.55 8.371zm12.537.448c0 2.354-1.896 4.263-4.235 4.263-2.34 0-4.235-1.909-4.235-4.263s1.896-4.263 4.235-4.263c2.338 0 4.235 1.909 4.235 4.263z" fill="#006B99"/></svg>