<svg width="30" height="44" fill="none" xmlns="http://www.w3.org/2000/svg"><path d="M14.667 2.068L1.38 22l13.288 19.932L27.955 22 14.667 2.068zm0-2.068l14.667 22-14.667 22L.001 22 14.667 0z" fill="#FFC22D"/><path d="M10.678 16.852l-1.31 1.76-.548 5.573v-6.13l1.858-1.203zm3.442-5.368l-1.702 1.79-.577 2.713V13.36l1.31-1.114v.058l.968-.821zM6.405 24.186H8.82l-2.21.41-.938 1.804.733-2.214z" fill="#FFC22D"/><path d="M12.81 15.356v-1.614l1.858-1.437v1.804l-1.858 1.247zm.753 10.897h-.577v-1.818l.576-.059v1.877zm0-3.945l-.577.132v-1.819l.576-.205v1.892zm0-3.696l-.577.264v-1.833l.576-.323v1.892zm-1.683 7.641h-.469V24.61l.47-.058v1.701zm0-3.549l-.469.102v-1.642l.47-.162v1.702zm0-3.329l-.469.205v-1.643l.47-.264v1.702zm-1.446 6.878h-.391v-1.496l.39-.044v1.54zm0-3.212l-.391.088v-1.495l.39-.133v1.54zm0-3.021l-.391.176V18.7l.39-.22v1.54z" fill="#FFC22D"/><path d="M14.119 11.484l.548-.528-1.516 1.29V9.974l1.516-2.2 1.515 2.2v2.274l1.31 1.114v2.64l3.031 2.04v6.13h2.406l.733 2.23h-8.995V14.108l1.857 1.247v-1.613l-1.857-1.438V11.03l-.548.455zm.068-1.144l-.46.425v.88l.46-.396v-.909zm2.161 6.703l-.586-.323v1.892l.586.264v-1.833zm0 3.578l-.586-.205v1.892l.586.132v-1.819zm0 3.814l-.586-.059v1.877h.586v-1.818zm2.552 1.818h.391v-1.496l-.39-.044v1.54zm0-3.212l.391.088v-1.496l-.39-.132v1.54zm0-3.02l.391.175V18.7l-.39-.22v1.54zm-1.447 6.232h.48v-1.642l-.48-.059v1.701zm0-3.549l.48.117V21.18l-.48-.162v1.687zm0-3.33l.48.22v-1.642l-.48-.264v1.687zm-2.386-8.11l.46.396v-.88l-.46-.425v.91z" fill="#FFC22D"/><path d="M14.12 11.484l-.968.821v-.058l1.516-1.276-.548.513zm11.353 14.843l-21.56.073 10.755 16.133 10.805-16.206z" fill="#FFC22D"/></svg>