<svg width="219" height="122" fill="none" xmlns="http://www.w3.org/2000/svg"><path d="M10.125.625v45.5H2.281V.625h7.844zm18.563 19.906v6.219H8.125v-6.219h20.563zM31.28.625v6.25H8.125V.625h23.156zm42.532 21.5v2.5c0 3.438-.448 6.52-1.344 9.25-.896 2.73-2.177 5.052-3.844 6.969a16.528 16.528 0 01-5.938 4.406c-2.312 1-4.874 1.5-7.687 1.5-2.792 0-5.344-.5-7.656-1.5a17.197 17.197 0 01-5.969-4.406c-1.688-1.917-3-4.24-3.938-6.969-.916-2.73-1.374-5.813-1.374-9.25v-2.5c0-3.438.458-6.51 1.374-9.219.917-2.729 2.209-5.052 3.876-6.969C43 4 44.99 2.531 47.28 1.532 49.594.511 52.146 0 54.938 0c2.812 0 5.374.51 7.687 1.531 2.313 1 4.302 2.469 5.969 4.407 1.666 1.916 2.948 4.24 3.844 6.968.916 2.709 1.374 5.781 1.374 9.219zm-7.844 2.5v-2.563c0-2.541-.25-4.78-.75-6.718-.48-1.959-1.198-3.594-2.156-4.906-.938-1.334-2.094-2.334-3.47-3-1.374-.688-2.926-1.032-4.656-1.032-1.729 0-3.27.344-4.624 1.032-1.355.666-2.51 1.666-3.47 3-.937 1.312-1.656 2.947-2.156 4.906-.5 1.937-.75 4.177-.75 6.719v2.562c0 2.542.25 4.792.75 6.75.5 1.958 1.23 3.615 2.188 4.969.98 1.333 2.146 2.343 3.5 3.031 1.354.667 2.896 1 4.625 1 1.75 0 3.302-.333 4.656-1 1.354-.688 2.5-1.698 3.438-3.031.937-1.354 1.646-3.01 2.125-4.969.5-1.958.75-4.208.75-6.75zm15.687-24H97.75c3.458 0 6.406.52 8.844 1.563 2.437 1.041 4.302 2.583 5.594 4.624 1.312 2.021 1.968 4.521 1.968 7.5 0 2.271-.416 4.271-1.25 6a12.197 12.197 0 01-3.531 4.375c-1.521 1.167-3.333 2.073-5.437 2.72l-2.376 1.155H87.094l-.063-6.218h10.844c1.875 0 3.437-.334 4.687-1 1.25-.667 2.188-1.573 2.813-2.719.646-1.167.969-2.48.969-3.938 0-1.583-.313-2.958-.938-4.124-.604-1.188-1.541-2.094-2.812-2.72-1.271-.645-2.886-.968-4.844-.968H89.5v39.25h-7.844V.625zm25.969 45.5L96.937 25.687l8.219-.03L116 45.718v.406h-8.375zm17.531-45.5h7l13.156 35.094L158.438.625h7l-17.376 45.5H142.5L125.156.625zm-3.187 0h6.656L129.781 31v15.125h-7.812V.625zm40 0h6.687v45.5h-7.844V31L161.969.625zm34.281 6.063l-13.594 39.437h-8.218l17.124-45.5h5.25l-.562 6.063zm11.375 39.437L194 6.687l-.594-6.062h5.282l17.187 45.5h-8.25zm-.656-16.875v6.219h-24.75V29.25h24.75zm-180.75 80.156c0-.937-.146-1.771-.438-2.5-.27-.729-.76-1.396-1.468-2-.709-.604-1.709-1.187-3-1.75-1.271-.583-2.896-1.177-4.875-1.781a54.085 54.085 0 01-6-2.219c-1.813-.833-3.396-1.791-4.75-2.875C4.332 95.177 3.28 93.917 2.53 92.5c-.75-1.438-1.125-3.094-1.125-4.969 0-1.854.386-3.541 1.157-5.062.791-1.521 1.906-2.834 3.343-3.938 1.459-1.125 3.177-1.99 5.157-2.594 1.979-.624 4.166-.937 6.562-.937 3.375 0 6.281.625 8.719 1.875 2.458 1.25 4.343 2.927 5.656 5.031 1.333 2.104 2 4.427 2 6.969h-7.781c0-1.5-.323-2.823-.969-3.969-.625-1.166-1.583-2.083-2.875-2.75-1.27-.666-2.885-1-4.844-1-1.854 0-3.396.281-4.625.844s-2.146 1.323-2.75 2.281c-.604.959-.906 2.042-.906 3.25 0 .854.198 1.636.594 2.344.396.688 1 1.333 1.812 1.938.813.583 1.834 1.135 3.063 1.656 1.229.52 2.677 1.02 4.344 1.5 2.52.75 4.718 1.583 6.593 2.5 1.875.896 3.438 1.916 4.688 3.062 1.25 1.146 2.187 2.448 2.812 3.907.625 1.437.938 3.072.938 4.906 0 1.916-.386 3.646-1.157 5.187-.77 1.521-1.874 2.823-3.312 3.907-1.417 1.062-3.125 1.885-5.125 2.468-1.98.563-4.188.844-6.625.844-2.188 0-4.344-.292-6.469-.875a19.083 19.083 0 01-5.75-2.656 13.74 13.74 0 01-4.125-4.5C.511 111.906 0 109.792 0 107.375h7.844c0 1.479.25 2.74.75 3.781a6.972 6.972 0 002.156 2.563c.917.646 1.98 1.125 3.188 1.437 1.229.313 2.541.469 3.937.469 1.833 0 3.365-.26 4.594-.781 1.25-.521 2.187-1.25 2.812-2.188.625-.937.938-2.021.938-3.25zM59.75 75.625v45.5h-7.781v-45.5h7.781zm14.281 0v6.25H37.812v-6.25h36.22zm31.531 0h7.813v30.406c0 3.459-.75 6.354-2.25 8.688-1.5 2.333-3.542 4.093-6.125 5.281-2.562 1.167-5.427 1.75-8.594 1.75-3.27 0-6.187-.583-8.75-1.75-2.562-1.188-4.583-2.948-6.062-5.281-1.459-2.334-2.188-5.229-2.188-8.688V75.625h7.813v30.406c0 2.188.375 3.99 1.125 5.407.75 1.395 1.812 2.427 3.187 3.093 1.375.667 3 1 4.875 1s3.49-.333 4.844-1c1.375-.666 2.438-1.698 3.188-3.093.75-1.417 1.124-3.219 1.124-5.407V75.625zm29.563 45.5h-9.719l.063-6.219h9.656c2.813 0 5.167-.614 7.063-1.844 1.916-1.229 3.354-2.989 4.312-5.281.979-2.291 1.469-5.021 1.469-8.187v-2.469c0-2.458-.281-4.635-.844-6.531-.542-1.896-1.354-3.49-2.437-4.781a10.215 10.215 0 00-3.938-2.938c-1.542-.667-3.323-1-5.344-1h-10.187v-6.25h10.187c3.021 0 5.782.51 8.282 1.531 2.5 1 4.656 2.448 6.468 4.344 1.834 1.896 3.24 4.167 4.219 6.813.979 2.645 1.469 5.604 1.469 8.874v2.407c0 3.271-.49 6.229-1.469 8.875-.979 2.646-2.385 4.916-4.219 6.812-1.833 1.875-4.021 3.323-6.562 4.344-2.521 1-5.344 1.5-8.469 1.5zm-5.375-45.5v45.5h-7.844v-45.5h7.844zm42.344 0v45.5h-7.844v-45.5h7.844zm46.031 21.5v2.5c0 3.437-.448 6.521-1.344 9.25-.896 2.729-2.177 5.052-3.843 6.969A16.545 16.545 0 01207 120.25c-2.312 1-4.875 1.5-7.688 1.5-2.791 0-5.343-.5-7.656-1.5a17.206 17.206 0 01-5.968-4.406c-1.688-1.917-3-4.24-3.938-6.969-.917-2.729-1.375-5.813-1.375-9.25v-2.5c0-3.438.458-6.51 1.375-9.219.917-2.729 2.208-5.052 3.875-6.969 1.687-1.937 3.677-3.406 5.969-4.406 2.312-1.02 4.864-1.531 7.656-1.531 2.812 0 5.375.51 7.688 1.531 2.312 1 4.302 2.469 5.968 4.406 1.667 1.917 2.948 4.24 3.844 6.97.917 2.708 1.375 5.78 1.375 9.218zm-7.844 2.5v-2.563c0-2.541-.25-4.78-.75-6.718-.479-1.959-1.198-3.594-2.156-4.906-.937-1.334-2.094-2.334-3.469-3-1.375-.688-2.927-1.032-4.656-1.032-1.729 0-3.271.344-4.625 1.031-1.354.667-2.51 1.667-3.469 3-.937 1.313-1.656 2.948-2.156 4.907-.5 1.937-.75 4.177-.75 6.719v2.562c0 2.542.25 4.792.75 6.75.5 1.958 1.229 3.615 2.188 4.969.979 1.333 2.145 2.344 3.5 3.031 1.354.667 2.895 1 4.624 1 1.75 0 3.303-.333 4.657-1 1.354-.687 2.5-1.698 3.437-3.031.938-1.354 1.646-3.011 2.125-4.969.5-1.958.75-4.208.75-6.75z" fill="#F5F5F5"/></svg>