<svg width="141" height="15" fill="none" xmlns="http://www.w3.org/2000/svg"><path d="M2.451.195v14.22H0V.194h2.451zm5.801 6.221v1.943H1.826V6.416h6.426zm.81-6.22v1.952H1.827V.195h7.236zm13.292 6.718v.781c0 1.075-.14 2.038-.42 2.89-.28.854-.68 1.58-1.202 2.179a5.166 5.166 0 01-1.855 1.377c-.723.312-1.523.468-2.402.468-.873 0-1.67-.156-2.393-.468a5.374 5.374 0 01-1.865-1.377c-.527-.6-.938-1.325-1.23-2.178-.287-.853-.43-1.816-.43-2.89v-.782c0-1.074.143-2.034.43-2.88.286-.854.69-1.58 1.21-2.179A5.216 5.216 0 0114.063.48C14.784.159 15.582 0 16.454 0c.879 0 1.68.16 2.402.479a5.106 5.106 0 011.866 1.376c.52.6.92 1.325 1.2 2.178.287.847.43 1.807.43 2.881zm-2.452.781v-.8c0-.795-.078-1.495-.234-2.1-.15-.612-.374-1.123-.674-1.533a2.817 2.817 0 00-1.084-.938 3.21 3.21 0 00-1.455-.322c-.54 0-1.022.107-1.445.322a2.916 2.916 0 00-1.084.938c-.293.41-.518.92-.674 1.533-.156.605-.234 1.305-.234 2.1v.8c0 .795.078 1.498.234 2.11.156.612.384 1.13.683 1.552.306.417.671.733 1.094.948a3.23 3.23 0 001.446.312c.546 0 1.031-.104 1.455-.312.423-.215.78-.53 1.074-.948.293-.423.514-.94.664-1.552.156-.612.234-1.315.234-2.11zm4.903-7.5h5.029c1.08 0 2.002.163 2.764.489.761.325 1.344.807 1.748 1.445.41.631.615 1.413.615 2.344 0 .71-.13 1.334-.39 1.875-.261.54-.629.996-1.104 1.367a5.334 5.334 0 01-1.7.85l-.742.36h-4.521l-.02-1.943h3.389c.586 0 1.074-.104 1.465-.312.39-.208.684-.492.879-.85.202-.364.303-.774.303-1.23 0-.495-.098-.925-.293-1.29a1.887 1.887 0 00-.88-.849c-.396-.202-.901-.303-1.513-.303h-2.578v12.266h-2.451V.195zm8.115 14.22l-3.34-6.388 2.568-.01 3.39 6.27v.127H32.92zM38.398.194h2.188l4.111 10.967L48.8.195h2.187l-5.43 14.22h-1.738L38.398.194zm-.996 0h2.08l.362 9.492v4.727h-2.442V.195zm12.5 0h2.09v14.22h-2.451V9.687l.361-9.493zM60.615 2.09l-4.248 12.324H53.8L59.15.195h1.641l-.176 1.895zm3.555 12.324L59.912 2.09 59.727.195h1.65l5.371 14.22H64.17zm-.205-5.273v1.943H56.23V9.141h7.735zM80.8 10.752c0-.293-.046-.553-.137-.781a1.526 1.526 0 00-.459-.625c-.221-.19-.534-.371-.937-.547a12.453 12.453 0 00-1.524-.557 16.903 16.903 0 01-1.875-.693 7.132 7.132 0 01-1.484-.899 3.843 3.843 0 01-.987-1.181c-.234-.45-.351-.967-.351-1.553 0-.58.12-1.107.361-1.582a3.692 3.692 0 011.045-1.23 5 5 0 011.611-.811A6.785 6.785 0 0178.115 0c1.055 0 1.963.195 2.725.586.768.39 1.357.915 1.767 1.572.417.658.625 1.384.625 2.178h-2.431a2.48 2.48 0 00-.303-1.24 2.052 2.052 0 00-.898-.86c-.397-.208-.902-.312-1.514-.312-.58 0-1.061.088-1.445.264-.385.175-.67.413-.86.712-.189.3-.283.638-.283 1.016 0 .267.062.511.186.732.123.215.312.417.566.606.254.182.573.355.957.517.384.163.837.32 1.358.47a13.44 13.44 0 012.06.78c.586.28 1.074.6 1.465.958.39.358.683.764.879 1.22.195.45.293.96.293 1.533 0 .6-.12 1.14-.362 1.622-.24.475-.586.882-1.035 1.22-.442.332-.976.59-1.601.772a7.565 7.565 0 01-2.07.263 7.602 7.602 0 01-2.022-.273 5.962 5.962 0 01-1.797-.83 4.29 4.29 0 01-1.29-1.406c-.318-.567-.478-1.228-.478-1.983h2.452c0 .462.078.856.234 1.182.163.325.387.592.674.8.286.202.618.352.996.45a4.96 4.96 0 001.23.146c.573 0 1.052-.081 1.436-.244.39-.163.683-.39.879-.683.195-.293.293-.632.293-1.016zM91.279.195v14.22h-2.431V.194h2.431zm4.463 0v1.953H84.424V.195h11.318zm9.854 0h2.441v9.502c0 1.081-.234 1.986-.703 2.715a4.42 4.42 0 01-1.914 1.65c-.801.365-1.696.547-2.686.547-1.022 0-1.933-.182-2.734-.546a4.366 4.366 0 01-1.894-1.65c-.456-.73-.684-1.635-.684-2.716V.195h2.441v9.502c0 .684.118 1.247.352 1.69.234.436.566.758.996.966.43.209.937.313 1.523.313.586 0 1.091-.104 1.514-.313.43-.208.762-.53.996-.966.235-.443.352-1.006.352-1.69V.195zm9.238 14.22h-3.037l.019-1.944h3.018c.879 0 1.615-.192 2.207-.576.599-.385 1.048-.935 1.348-1.65.306-.717.459-1.57.459-2.56v-.77c0-.77-.088-1.45-.264-2.042-.169-.592-.423-1.09-.762-1.494a3.19 3.19 0 00-1.23-.918c-.482-.208-1.039-.313-1.67-.313h-3.184V.195h3.184c.944 0 1.807.16 2.588.479a5.674 5.674 0 012.021 1.357 6.03 6.03 0 011.319 2.13c.306.826.459 1.75.459 2.773v.752c0 1.022-.153 1.946-.459 2.773a6.03 6.03 0 01-1.319 2.129 5.907 5.907 0 01-2.051 1.357c-.787.313-1.669.47-2.646.47zm-1.68-14.22v14.22h-2.451V.194h2.451zm13.233 0v14.22h-2.451V.194h2.451zm14.384 6.72v.78c0 1.075-.139 2.038-.419 2.89-.28.854-.681 1.58-1.202 2.179a5.158 5.158 0 01-1.855 1.377c-.723.312-1.524.468-2.402.468-.873 0-1.67-.156-2.393-.468a5.372 5.372 0 01-1.865-1.377c-.528-.6-.938-1.325-1.231-2.178-.286-.853-.429-1.816-.429-2.89v-.782c0-1.074.143-2.034.429-2.88.287-.854.69-1.58 1.211-2.179A5.222 5.222 0 01132.48.48c.723-.32 1.521-.479 2.393-.479.879 0 1.68.16 2.402.479a5.107 5.107 0 011.866 1.376c.52.6.921 1.325 1.201 2.178.286.847.429 1.807.429 2.881zm-2.451.78v-.8c0-.795-.078-1.495-.234-2.1-.15-.612-.374-1.123-.674-1.533a2.815 2.815 0 00-1.084-.938 3.21 3.21 0 00-1.455-.322c-.54 0-1.022.107-1.445.322a2.916 2.916 0 00-1.084.938c-.293.41-.518.92-.674 1.533-.156.605-.234 1.305-.234 2.1v.8c0 .795.078 1.498.234 2.11.156.612.384 1.13.684 1.552.306.417.67.733 1.093.948.423.208.905.312 1.446.312.546 0 1.031-.104 1.455-.312.423-.215.781-.53 1.074-.948.293-.423.514-.94.664-1.552.156-.612.234-1.315.234-2.11z" fill="#F5F5F5"/></svg>