<svg width="235" height="150" fill="none" xmlns="http://www.w3.org/2000/svg"><path d="M12.469 13.5V59H4.625V13.5h7.844zM31.03 33.406v6.219H10.47v-6.219h20.56zM33.625 13.5v6.25H10.469V13.5h23.156zM76.156 35v2.5c0 3.438-.448 6.52-1.344 9.25-.895 2.73-2.177 5.052-3.843 6.969a16.529 16.529 0 01-5.938 4.406c-2.312 1-4.875 1.5-7.687 1.5-2.792 0-5.344-.5-7.657-1.5a17.196 17.196 0 01-5.968-4.406c-1.688-1.917-3-4.24-3.938-6.969-.916-2.73-1.375-5.813-1.375-9.25V35c0-3.438.459-6.51 1.375-9.219.917-2.729 2.209-5.052 3.875-6.968 1.688-1.938 3.677-3.407 5.969-4.407 2.313-1.02 4.865-1.531 7.656-1.531 2.813 0 5.375.51 7.688 1.531a16.35 16.35 0 015.969 4.406c1.666 1.917 2.947 4.24 3.843 6.97.917 2.708 1.375 5.78 1.375 9.218zm-7.844 2.5v-2.563c0-2.541-.25-4.78-.75-6.718-.479-1.959-1.197-3.594-2.156-4.907-.937-1.333-2.094-2.333-3.469-3-1.374-.687-2.927-1.03-4.656-1.03-1.729 0-3.27.343-4.625 1.03-1.354.667-2.51 1.667-3.468 3-.938 1.313-1.657 2.948-2.157 4.907-.5 1.937-.75 4.177-.75 6.718V37.5c0 2.542.25 4.792.75 6.75.5 1.958 1.23 3.615 2.188 4.969.979 1.333 2.146 2.343 3.5 3.031 1.354.667 2.896 1 4.625 1 1.75 0 3.302-.333 4.656-1 1.354-.688 2.5-1.698 3.438-3.031.937-1.354 1.645-3.01 2.124-4.969.5-1.958.75-4.208.75-6.75zM84 13.5h16.094c3.458 0 6.406.52 8.844 1.563 2.437 1.041 4.302 2.583 5.593 4.624 1.313 2.021 1.969 4.521 1.969 7.5 0 2.271-.417 4.271-1.25 6a12.197 12.197 0 01-3.531 4.376c-1.521 1.166-3.334 2.072-5.438 2.718l-2.375 1.157H89.437l-.062-6.22h10.844c1.875 0 3.437-.333 4.687-1 1.25-.666 2.188-1.572 2.813-2.718.646-1.167.969-2.48.969-3.938 0-1.583-.313-2.958-.938-4.125-.604-1.187-1.542-2.093-2.812-2.718-1.271-.646-2.886-.969-4.844-.969h-8.25V59H84V13.5zM109.969 59L99.281 38.562l8.219-.03 10.844 20.062V59h-8.375zM127.5 13.5h7l13.156 35.094L160.781 13.5h7L150.406 59h-5.562L127.5 13.5zm-3.188 0h6.657l1.156 30.375V59h-7.813V13.5zm40 0H171V59h-7.844V43.875l1.156-30.375zm34.282 6.063L185 59h-8.219l17.125-45.5h5.25l-.562 6.063zM209.969 59l-13.625-39.438-.594-6.062h5.281L218.219 59h-8.25zm-.657-16.875v6.219h-24.75v-6.219h24.75zm-180.75 80.156c0-.937-.145-1.771-.437-2.5-.27-.729-.76-1.396-1.469-2-.708-.604-1.708-1.187-3-1.75-1.27-.583-2.896-1.177-4.875-1.781a54.019 54.019 0 01-6-2.219c-1.812-.833-3.396-1.791-4.75-2.875-1.354-1.104-2.406-2.364-3.156-3.781-.75-1.437-1.125-3.094-1.125-4.969 0-1.854.385-3.541 1.156-5.062.792-1.521 1.907-2.834 3.344-3.938 1.458-1.125 3.177-1.99 5.156-2.594 1.98-.624 4.167-.937 6.563-.937 3.375 0 6.281.625 8.718 1.875 2.459 1.25 4.344 2.927 5.657 5.031 1.333 2.104 2 4.427 2 6.969h-7.782c0-1.5-.322-2.823-.968-3.969-.625-1.166-1.584-2.083-2.875-2.75-1.271-.666-2.886-1-4.844-1-1.854 0-3.396.281-4.625.844-1.23.563-2.146 1.323-2.75 2.281-.604.959-.906 2.042-.906 3.25 0 .854.198 1.636.594 2.344.395.688 1 1.333 1.812 1.938.813.583 1.833 1.135 3.063 1.656 1.229.521 2.677 1.021 4.343 1.5 2.521.75 4.719 1.583 6.594 2.5 1.875.896 3.438 1.916 4.688 3.062 1.25 1.146 2.187 2.448 2.812 3.906.625 1.438.938 3.073.938 4.907 0 1.916-.386 3.646-1.157 5.187-.77 1.521-1.875 2.823-3.312 3.906-1.417 1.063-3.125 1.886-5.125 2.469-1.98.563-4.188.844-6.625.844-2.188 0-4.344-.292-6.469-.875A19.082 19.082 0 018 131.094a13.74 13.74 0 01-4.125-4.5c-1.02-1.813-1.531-3.927-1.531-6.344h7.844c0 1.479.25 2.74.75 3.781a6.971 6.971 0 002.156 2.563c.916.646 1.979 1.125 3.187 1.437 1.23.313 2.542.469 3.938.469 1.833 0 3.364-.26 4.593-.781 1.25-.521 2.188-1.25 2.813-2.188.625-.937.938-2.021.938-3.25zM62.094 88.5V134h-7.782V88.5h7.782zm14.281 0v6.25H40.156V88.5h36.219zm31.531 0h7.813v30.406c0 3.459-.75 6.354-2.25 8.688-1.5 2.333-3.542 4.094-6.125 5.281-2.563 1.167-5.427 1.75-8.594 1.75-3.27 0-6.188-.583-8.75-1.75-2.563-1.187-4.583-2.948-6.063-5.281-1.458-2.334-2.187-5.229-2.187-8.688V88.5h7.813v30.406c0 2.188.374 3.99 1.124 5.406.75 1.396 1.813 2.428 3.188 3.094 1.375.667 3 1 4.875 1s3.49-.333 4.844-1c1.375-.666 2.437-1.698 3.187-3.094.75-1.416 1.125-3.218 1.125-5.406V88.5zm29.563 45.5h-9.719l.062-6.219h9.657c2.812 0 5.166-.614 7.062-1.843 1.917-1.23 3.354-2.99 4.313-5.282.979-2.291 1.468-5.021 1.468-8.187V110c0-2.458-.281-4.635-.843-6.531-.542-1.896-1.354-3.49-2.438-4.781a10.204 10.204 0 00-3.937-2.938c-1.542-.667-3.323-1-5.344-1h-10.188V88.5h10.188c3.021 0 5.781.51 8.281 1.531 2.5 1 4.657 2.448 6.469 4.344 1.833 1.896 3.24 4.167 4.219 6.813.979 2.645 1.469 5.604 1.469 8.874v2.407c0 3.271-.49 6.229-1.469 8.875-.979 2.646-2.386 4.916-4.219 6.812-1.833 1.875-4.021 3.323-6.562 4.344-2.521 1-5.344 1.5-8.469 1.5zm-5.375-45.5V134h-7.844V88.5h7.844zm42.344 0V134h-7.844V88.5h7.844zm46.031 21.5v2.5c0 3.438-.448 6.521-1.344 9.25-.896 2.729-2.177 5.052-3.844 6.969a16.541 16.541 0 01-5.937 4.406c-2.313 1-4.875 1.5-7.688 1.5-2.791 0-5.344-.5-7.656-1.5a17.21 17.21 0 01-5.969-4.406c-1.687-1.917-3-4.24-3.937-6.969-.917-2.729-1.375-5.812-1.375-9.25V110c0-3.438.458-6.51 1.375-9.219.916-2.729 2.208-5.052 3.875-6.969 1.687-1.937 3.677-3.406 5.969-4.406 2.312-1.02 4.864-1.531 7.656-1.531 2.812 0 5.375.51 7.687 1.531 2.313 1 4.302 2.469 5.969 4.406 1.667 1.917 2.948 4.24 3.844 6.969.916 2.709 1.375 5.781 1.375 9.219zm-7.844 2.5v-2.562c0-2.542-.25-4.782-.75-6.719-.479-1.959-1.198-3.594-2.156-4.906-.938-1.334-2.094-2.334-3.469-3-1.375-.688-2.927-1.032-4.656-1.032-1.729 0-3.271.344-4.625 1.031-1.354.667-2.511 1.667-3.469 3-.938 1.313-1.656 2.948-2.156 4.907-.5 1.937-.75 4.177-.75 6.719v2.562c0 2.542.25 4.792.75 6.75.5 1.958 1.229 3.615 2.187 4.969.979 1.333 2.146 2.343 3.5 3.031 1.354.667 2.896 1 4.625 1 1.75 0 3.302-.333 4.656-1 1.355-.688 2.5-1.698 3.438-3.031.938-1.354 1.646-3.011 2.125-4.969.5-1.958.75-4.208.75-6.75z" fill="#F5F5F5"/></svg>