<svg width="33" height="26" fill="none" xmlns="http://www.w3.org/2000/svg"><path fill-rule="evenodd" clip-rule="evenodd" d="M13.477.688L3.453 4.005c-1.303.431-1.742.685-2.175 1.051a3.356 3.356 0 00-.964 1.335C.104 6.917 0 7.415 0 8.788v14.978c0 .668.07.91.2 1.154.13.244.322.435.565.566.244.13.486.2 1.153.2h28.826c.666 0 .908-.07 1.152-.2a1.36 1.36 0 00.566-.566c.13-.244.2-.486.2-1.154V8.755c0-1.364-.102-1.858-.31-2.381a3.354 3.354 0 00-.95-1.33c-.427-.366-.861-.622-2.15-1.063L19.729.72C18.387.26 17.925.14 17.39.06a5.354 5.354 0 00-1.568-.007c-.535.074-1 .189-2.345.634zM2.493 23.19h8.269V10.56a1 1 0 011-1h9.137a1 1 0 011 1v12.63h8.27V8.755c0-.967-.036-1.214-.133-1.458a.86.86 0 00-.256-.358c-.2-.171-.42-.284-1.335-.597l-9.523-3.26c-1.14-.39-1.512-.494-1.9-.552a2.866 2.866 0 00-.858-.004c-.388.054-.76.153-1.905.532L4.235 6.375c-.922.305-1.146.417-1.348.588a.863.863 0 00-.26.359c-.098.246-.134.493-.134 1.466V23.19z" fill="#fff"/></svg>