<svg width="180" height="66" fill="none" xmlns="http://www.w3.org/2000/svg"><g clip-path="url(#clip0_12_353)"><path d="M38.25 15.94V7.97c0-.88-.714-1.594-1.594-1.594h-1.594v-4.78c0-.88-.713-1.594-1.594-1.594-2.256 0-5.711-.173-9.767 2.257-2.522-.75-4.305-.664-6.17-.664-.88 0-1.593.714-1.593 1.594v3.187h-1.594c-.88 0-1.593.714-1.593 1.594v7.968c0 6.49 4.875 11.864 11.155 12.65v20.817a1.594 1.594 0 003.188 0v-5.578h2.39c4.833 0 8.765-3.932 8.765-8.765v-2.39c0-.88-.713-1.594-1.593-1.594h-3.984a8.725 8.725 0 00-5.578 2.009v-4.5c6.27-.776 11.155-6.122 11.155-12.649zm-3.188 0a9.55 9.55 0 01-3.237 7.153c.032-.255.05-.515.05-.779a15.87 15.87 0 00-3.991-10.536 12.723 12.723 0 017.178-2.213v6.374zM31.875 3.19v3.509c-.295.06-.587.128-.877.205a15.943 15.943 0 00-3.5-2.94 12.73 12.73 0 014.377-.774zm-12.75 1.594c3.166 0 6.241 1.156 8.632 3.365-.789.407-1.546.882-2.262 1.42a15.87 15.87 0 00-6.37-2.871V4.784zm-3.187 11.155V9.565c7.03 0 12.75 5.719 12.75 12.749a3.19 3.19 0 01-3.272 3.186c-5.599-.138-9.478-4.587-9.478-9.56zm16.734 18.328h2.39v.796a5.584 5.584 0 01-5.578 5.578h-2.39v-.797a5.584 5.584 0 015.578-5.578z" fill="#fff"/></g><path d="M51.171 21.717l6.119-10.751h4.107V28H57.29V17.26L51.171 28h-4.106V10.965h4.106v10.752zm22.743.515h4.095c-.054 1.186-.374 2.23-.96 3.136-.584.904-1.395 1.61-2.433 2.117-1.03.5-2.246.749-3.65.749-1.139 0-2.156-.191-3.053-.573a6.222 6.222 0 01-2.27-1.65c-.616-.717-1.088-1.587-1.416-2.609-.32-1.022-.48-2.172-.48-3.451v-.925c0-1.279.168-2.43.504-3.45.343-1.03.826-1.904 1.45-2.622a6.294 6.294 0 012.27-1.66c.881-.383 1.86-.574 2.937-.574 1.482 0 2.733.265 3.755.795 1.022.53 1.814 1.26 2.375 2.188.562.92.893 1.97.995 3.147h-4.095c-.016-.64-.125-1.174-.328-1.603a2.025 2.025 0 00-.96-.982c-.436-.219-1.017-.328-1.742-.328-.507 0-.948.094-1.322.281-.375.187-.687.484-.936.89-.25.405-.437.931-.562 1.579-.117.64-.175 1.411-.175 2.316v.948c0 .904.054 1.677.163 2.316.11.64.285 1.162.527 1.568.242.406.554.706.936.9.39.188.866.282 1.427.282.624 0 1.15-.098 1.58-.293.428-.203.76-.507.994-.912.234-.414.359-.94.374-1.58zm16.04 0h4.095c-.055 1.186-.375 2.23-.96 3.136-.585.904-1.396 1.61-2.433 2.117-1.03.5-2.247.749-3.65.749-1.14 0-2.157-.191-3.054-.573a6.222 6.222 0 01-2.27-1.65c-.616-.717-1.088-1.587-1.415-2.609-.32-1.022-.48-2.172-.48-3.451v-.925c0-1.279.168-2.43.503-3.45.343-1.03.827-1.904 1.45-2.622a6.294 6.294 0 012.27-1.66c.882-.383 1.86-.574 2.937-.574 1.482 0 2.734.265 3.756.795 1.021.53 1.813 1.26 2.375 2.188.561.92.893 1.97.994 3.147h-4.095c-.015-.64-.125-1.174-.327-1.603a2.025 2.025 0 00-.96-.982c-.436-.219-1.018-.328-1.743-.328-.507 0-.948.094-1.322.281-.374.187-.686.484-.936.89-.25.405-.437.931-.561 1.579-.118.64-.176 1.411-.176 2.316v.948c0 .904.055 1.677.164 2.316.109.64.284 1.162.526 1.568.242.406.554.706.936.9.39.188.866.282 1.427.282.624 0 1.151-.098 1.58-.293.429-.203.76-.507.994-.912.234-.414.36-.94.375-1.58zm17.911-11.266v3.17h-8.798v-3.17h8.798zm2.773 0V28h-4.107V10.965h4.107zm-11.852 0h4.083l-.444 8.657c-.07 1.31-.203 2.441-.398 3.393-.195.944-.456 1.74-.784 2.387-.327.64-.721 1.15-1.181 1.532-.46.383-.995.655-1.603.82-.6.163-1.276.245-2.024.245h-.995v-3.159l.445-.047a2.41 2.41 0 00.947-.292 2.09 2.09 0 00.703-.726c.202-.32.37-.729.503-1.228.132-.5.237-1.104.315-1.813a29.59 29.59 0 00.176-2.516l.257-7.254zm26.452 13.875V28h-9.079v-3.159h9.079zm-7.616-13.876V28h-4.107V10.965h4.107zm6.446 6.763v3.053h-7.909v-3.053h7.909zm1.205-6.763v3.171h-9.114v-3.17h9.114zm15.537 13.876V28h-11.969v-3.159h11.969zm-10.612 0v7.336h-3.802l-.281-7.336h4.083zm13.408 0l-.433 7.347h-3.685v-7.347h4.118zm-4.586-13.876v3.171h-8.553v-3.17h8.553zm2.761 0V28h-4.083V10.965h4.083zm-11.583 0h4.095l-.503 6.985c-.086 1.194-.222 2.23-.409 3.112-.188.882-.41 1.642-.667 2.282a9.324 9.324 0 01-.843 1.65 8.15 8.15 0 01-.959 1.204c-.328.343-.655.655-.983.936-.327.281-.643.57-.947.866h-2.492v-3.159h.818c.242-.172.484-.402.726-.69.249-.296.483-.698.702-1.205.218-.507.409-1.166.573-1.977.164-.812.289-1.818.374-3.019l.515-6.984zm20.532 10.612l4.025-10.612h4.34l-5.744 13.513c-.218.5-.472.975-.76 1.428a5.555 5.555 0 01-1.007 1.205 4.255 4.255 0 01-1.357.83c-.522.203-1.135.305-1.837.305-.171 0-.382-.004-.631-.012-.242 0-.453-.004-.632-.012l-.07-3.182c.101.023.241.039.421.047h.386c.468 0 .838-.055 1.111-.164a1.46 1.46 0 00.644-.515c.164-.234.304-.53.421-.889l.69-1.942zm-2.281-10.612l3.486 7.395 1.334 4.726h-2.948l-6.236-12.12h4.364zm16.238 10.752l6.119-10.751h4.107V28h-4.107V17.26L164.687 28h-4.106V10.965h4.106v10.752zm4.715-15.338h2.703c0 .702-.18 1.326-.539 1.872-.35.538-.85.96-1.497 1.264-.647.304-1.412.456-2.293.456-1.334 0-2.391-.331-3.171-.994-.78-.671-1.17-1.537-1.17-2.598h2.691c0 .382.125.726.375 1.03.249.304.674.456 1.275.456.6 0 1.022-.152 1.263-.456a1.61 1.61 0 00.363-1.03z" fill="#ff8c00"/><path d="M51.37 32.965V50h-4.095V32.965h4.095zm9.828 0l-6.12 10.296h-4.422l-.491-3.709h2.796l3.276-6.587h4.96zM56.939 50l-3.99-7.453 2.984-2.749L61.783 50h-4.844zM67 43.717l6.119-10.752h4.106V50H73.12V39.26L67 50h-4.106V32.965H67v10.752zm27.353-10.752V50h-4.107V36.136h-6.118V50h-4.095V32.965h14.32zm9.686 11.255h-4.235v-3.17h4.235c.578 0 1.046-.098 1.404-.293.359-.195.62-.464.784-.807a2.65 2.65 0 00.258-1.181c0-.468-.086-.901-.258-1.3a2.096 2.096 0 00-.784-.959c-.358-.25-.826-.374-1.404-.374h-2.69V50h-4.107V32.965h6.797c1.365 0 2.539.25 3.522.75.991.498 1.751 1.185 2.281 2.058.531.866.796 1.857.796 2.972 0 1.1-.265 2.06-.796 2.878-.53.82-1.29 1.459-2.281 1.919-.983.452-2.157.678-3.522.678z" fill="#fff"/><defs><clipPath id="clip0_12_353"><path fill="#fff" d="M0 0h51v51H0z"/></clipPath></defs></svg>