<svg width="39" height="40" fill="none" xmlns="http://www.w3.org/2000/svg"><path d="M19.5 39a9.5 9.5 0 100-19 9.5 9.5 0 000 19zm0-19a9.5 9.5 0 100-19 9.5 9.5 0 000 19z" stroke="#fff" stroke-opacity=".5" stroke-miterlimit="10"/><path d="M29 29.5a9.5 9.5 0 100-19 9.5 9.5 0 000 19z" stroke="#fff" stroke-opacity=".5" stroke-miterlimit="10"/><path d="M10 29.5a9.5 9.5 0 100-19 9.5 9.5 0 000 19z" stroke="#fff" stroke-opacity=".5" stroke-miterlimit="10"/><path d="M26.213 36.214a9.5 9.5 0 100-19 9.5 9.5 0 000 19z" stroke="#fff" stroke-opacity=".5" stroke-miterlimit="10"/><path d="M12.787 22.766a9.5 9.5 0 100-19 9.5 9.5 0 000 19z" stroke="#fff" stroke-opacity=".5" stroke-miterlimit="10"/><path d="M26.213 22.766a9.5 9.5 0 100-19 9.5 9.5 0 000 19z" stroke="#fff" stroke-opacity=".5" stroke-miterlimit="10"/><path d="M12.787 36.214a9.5 9.5 0 100-19 9.5 9.5 0 000 19z" stroke="#fff" stroke-opacity=".5" stroke-miterlimit="10"/></svg>