<svg width="24" height="24" fill="none" xmlns="http://www.w3.org/2000/svg"><path d="M7.354 11.646a.5.5 0 00-.708.708l.708-.708zm4.596 5.304l-.354.353a.5.5 0 00.707 0l-.353-.353zM22.91 6.697a.5.5 0 10-.707-.707l.707.707zm-20.507 5a.5.5 0 00-.707.707l.707-.707zm4.243 5.657a.5.5 0 10.707-.707l-.707.707zM17.96 6.747a.5.5 0 10-.707-.707l.707.707zm-6.01 4.596a.5.5 0 10.706.707l-.707-.707zm-5.304 1.01l4.95 4.95.707-.707-4.95-4.95-.707.708zm5.657 4.95L22.91 6.697l-.707-.707-10.607 10.606.707.707zm-10.607-4.9l4.95 4.95.707-.707-4.95-4.95-.707.708zM17.253 6.04l-5.304 5.303.707.707 5.304-5.303-.707-.707z" fill="#2D6AC8"/></svg>