<svg width="478" height="520" fill="none" xmlns="http://www.w3.org/2000/svg"><path opacity=".65" d="M468.648 491.796c0 6.713-86.813 12.012-193.917 12.012-107.105 0-193.917-5.476-193.917-12.012 0-6.713 86.812-12.012 193.917-12.012 107.104 0 193.917 5.299 193.917 12.012z" fill="#C7D4E2"/><path d="M189.859 160.929H80.99c-3.352 0-6.176-2.827-6.176-6.183V6.183C74.814 2.826 77.638 0 80.99 0h108.869c3.353 0 6.176 2.826 6.176 6.183v148.563c0 3.356-2.823 6.183-6.176 6.183z" fill="#C7D4E2"/><path d="M187.565 158.456H82.755c-3.353 0-6.176-2.827-6.176-6.183V7.949c0-3.356 2.823-6.182 6.175-6.182h104.811c3.353 0 6.176 2.826 6.176 6.182v144.324c0 3.533-2.647 6.183-6.176 6.183z" fill="#fff"/><path d="M184.742 26.321h-93.87v1.413h93.87v-1.413zm0 5.476h-93.87v1.413h93.87v-1.413zm0 5.3h-93.87v1.413h93.87v-1.413zm-44.465 5.299H90.871v1.413h49.406v-1.413zm44.465 11.483h-93.87v1.413h93.87v-1.413zm0 5.476h-93.87v1.413h93.87v-1.413zm0 5.299h-93.87v1.413h93.87v-1.413zm0 5.3h-93.87v1.413h93.87v-1.413zm.706 40.276H91.577v1.413h93.871v-1.413zm0 5.476H91.577v1.413h93.871v-1.413zm0 5.3H91.577v1.413h93.871v-1.413zm0 5.299H91.577v1.414h93.871v-1.414zm-.706-43.985h-93.87v1.413h93.87v-1.414zm0 5.476h-93.87v1.413h93.87v-1.413zm0 5.299h-93.87v1.413h93.87v-1.413zm-46.23 5.299h-47.64v1.414h47.64v-1.414z" fill="#407CCA"/><path d="M135.866 104.224c16.079 0 29.114-13.05 29.114-29.147 0-16.098-13.035-29.148-29.114-29.148-16.08 0-29.114 13.05-29.114 29.148 0 16.097 13.034 29.147 29.114 29.147z" fill="#E94552"/><path d="M134.983 56.175l17.469 22.435h-10.234v15.368h-14.645V78.786h-10.234l17.644-22.611z" fill="#fff"/><path d="M402.833 488.263H140.806c-10.41 0-18.88-8.479-18.88-18.902V118.356c0-10.422 8.47-18.902 18.88-18.902h262.027c10.41 0 18.88 8.48 18.88 18.902v351.005c-.177 10.423-8.47 18.902-18.88 18.902z" fill="#A7BBE4"/><path d="M395.245 462.825H148.394c-7.058 0-12.881-5.829-12.881-12.895V129.838c0-7.066 5.823-12.895 12.881-12.895h246.851c7.058 0 12.881 5.829 12.881 12.895v319.915c0 7.243-5.823 13.072-12.881 13.072z" fill="url(#paint0_linear_16_37)"/><path d="M283.2 476.074c0 3.71-2.999 6.536-6.528 6.536-3.529 0-6.529-3.003-6.529-6.536 0-3.71 3-6.536 6.529-6.536s6.528 3.003 6.528 6.536z" fill="#6F95D4"/><path d="M168.332 201.029h51.347s.882-31.268-25.585-31.268c-26.82 0-25.762 31.268-25.762 31.268zm39.172-50.346c0 7.419-5.999 13.602-13.587 13.602-7.411 0-13.586-6.006-13.586-13.602 0-7.419 5.999-13.602 13.586-13.602 7.411 0 13.587 6.006 13.587 13.602zm75.167 57.058H168.332v4.063h114.339v-4.063zm0 9.716H168.332v4.063h114.339v-4.063zm0 10.423H168.332v4.062h114.339v-4.062zm0 10.952H168.332v4.063h114.339v-4.063zm95.635 169.055H263.968v4.063h114.338v-4.063zm0 9.892H263.968v4.063h114.338v-4.063zm0 10.246H263.968v4.063h114.338v-4.063zm0 10.952H263.968v4.063h114.338v-4.063zm-105.163-181.95s-27.879 19.608-65.11 13.072c0 0-14.116 93.802 61.404 119.769 0 0 2.471 1.237 7.411 0 77.461-19.431 61.405-119.769 61.405-119.769-37.231 6.536-65.11-13.072-65.11-13.072z" fill="#407CCA"/><path d="M273.143 268.156s-23.291 16.428-54.346 10.952c0 0-11.822 78.433 51.346 99.985 0 0 2.118 1.059 6.176 0 64.757-16.252 51.347-99.985 51.347-99.985-31.232 5.3-54.523-10.952-54.523-10.952z" fill="#fff"/><path d="M273.143 273.279s-21.174 14.838-49.406 9.892c0 0-10.763 71.19 46.583 90.799 0 0 1.941.883 5.646 0 58.758-14.662 46.583-90.799 46.583-90.799-28.232 4.946-49.406-9.892-49.406-9.892z" fill="#3B5CAD"/><path d="M273.849 369.907c-.706 0-1.588-.177-2.471-.354-54.169-13.072-43.582-83.025-43.582-83.025 25.937 4.239 45.347-9.54 45.347-9.54l.706 92.919z" fill="#407CCA"/><path d="M288.847 350.652h-29.82c-3.353 0-6.176-2.827-6.176-6.183v-23.848c0-3.356 2.823-6.183 6.176-6.183h29.82c3.352 0 6.176 2.827 6.176 6.183v23.848c0 3.356-2.647 6.183-6.176 6.183z" fill="#fff"/><path d="M286.553 317.088s4.058-24.201-12.175-24.201c-13.41 0-12.528 15.369-12.528 23.671" stroke="#fff" stroke-width="2.012" stroke-miterlimit="10"/><path d="M280.201 329.454c0-3.357-2.823-6.183-6.176-6.183-3.352 0-6.176 2.826-6.176 6.183 0 2.296 1.236 4.239 3.176 5.299v6.89h6v-6.713c1.764-1.06 3.176-3.003 3.176-5.476zM449.239 17.312c-91.048 49.109-98.811 63.24-98.811 63.24-3.353-.883-2.647-3.002-2.647-3.002 33.525-33.564 101.281-60.945 101.281-60.945s1.059.177.177.707z" fill="#3B5CAD"/><path d="M449.239 17.312c6.528 51.582 4.058 120.299-8.646 170.644" stroke="#7FADD6" stroke-width=".7" stroke-miterlimit="10"/><path d="M400.715 82.672H289.376c-2.47 0-4.94-1.236-6.352-3.356-3.529-5.653-5.646-13.779-4.058-19.431 1.941-7.066 7.763-12.72 14.645-14.662-1.059-10.776 7.234-21.552 17.821-24.025 10.587-2.473 22.409 3.003 28.056 12.366 1.058 1.59 2.117 3.533 3.881 4.063 1.765.53 3.529-.354 5.294-1.237 7.411-3.18 16.233-2.65 23.115 1.59 6.881 4.24 11.469 11.836 11.822 19.785 5.823-2.473 13.057-1.413 17.645 3.003 4.587 4.24 6.352 11.305 4.411 17.312.176-.177-.706 4.593-4.941 4.593z" fill="#6F95D4"/><path opacity=".8" d="M339.664 89.562c12.084 0 21.88-9.807 21.88-21.905 0-12.097-9.796-21.904-21.88-21.904s-21.88 9.807-21.88 21.904c0 12.098 9.796 21.905 21.88 21.905z" fill="#407CCA"/><path d="M337.37 88.855c12.084 0 21.88-9.807 21.88-21.904 0-12.098-9.796-21.905-21.88-21.905s-21.879 9.807-21.879 21.905c0 12.097 9.795 21.904 21.879 21.904z" fill="#E94552"/><path d="M327.489 70.484l7.235 6.536 14.115-18.725" stroke="#fff" stroke-width="2.04" stroke-miterlimit="10"/><path d="M162.862 388.985h38.819c3.353 0 6.176-2.826 6.176-6.183v-31.797l-31.055.177v-4.416h-13.94v42.219z" fill="#407CCA"/><path d="M196.388 343.056h-26.821v30.56h26.821v-30.56z" fill="#fff"/><path d="M204.857 388.985l-.176-30.561h-33.526v9.186h-13.939v21.375" fill="#3B5CAD"/><path d="M207.857 358.424v27.558a3.165 3.165 0 01-3.176 3.18 3.165 3.165 0 01-3.176-3.18v-27.558h6.352zm-13.41-10.775h-23.115v.883h23.115v-.883zm0 1.943h-23.115v.883h23.115v-.883zm0 2.12h-23.115v.883h23.115v-.883zm-12.705 2.296h-10.41v.883h10.41v-.883zm-18.88 92.565h38.819c3.353 0 6.176-2.826 6.176-6.183v-31.797l-31.055.177v-4.416h-13.94v42.219z" fill="#407CCA"/><path d="M196.211 400.821h-26.82v30.56h26.82v-30.56z" fill="#fff"/><path d="M204.681 446.573v-30.56h-33.526v9.185H157.04v21.375" fill="#3B5CAD"/><path d="M207.857 416.013v27.557a3.165 3.165 0 01-3.176 3.18 3.164 3.164 0 01-3.176-3.18v-27.557h6.352zm-13.41-10.776h-23.115v.883h23.115v-.883zm0 1.943h-23.115v.883h23.115v-.883zm0 2.12h-23.115v.883h23.115v-.883zm-12.705 2.296h-10.41v.884h10.41v-.884z" fill="#407CCA"/><path d="M392.422 135.491H234.677v65.361h157.745v-65.361z" stroke="#407CCA" stroke-width=".35" stroke-miterlimit="10"/><path d="M257.211 148.177v1.446h-.487v-3.693h1.362c.405 0 .721.103.949.309.23.206.345.48.345.82 0 .358-.112.635-.337.829-.224.193-.544.289-.962.289h-.87zm0-.398h.875c.261 0 .46-.061.599-.183.139-.123.208-.301.208-.532a.694.694 0 00-.208-.528c-.139-.132-.329-.2-.571-.206h-.903v1.449zm4.146.35h-.868v1.494h-.49v-3.693h1.223c.416 0 .736.094.959.284.225.189.337.465.337.827a.99.99 0 01-.187.601 1.102 1.102 0 01-.518.383l.868 1.568v.03h-.523l-.801-1.494zm-.868-.398h.748c.242 0 .434-.063.576-.188a.63.63 0 00.216-.502c0-.229-.069-.404-.206-.525-.135-.122-.331-.184-.588-.186h-.746v1.401zm5.556.165c0 .362-.061.678-.183.949a1.384 1.384 0 01-.517.616 1.428 1.428 0 01-.782.213 1.42 1.42 0 01-.774-.213 1.439 1.439 0 01-.525-.611 2.22 2.22 0 01-.19-.921v-.267c0-.355.062-.669.185-.941.124-.272.298-.48.523-.624a1.41 1.41 0 01.776-.218c.296 0 .557.072.782.215.226.143.4.35.522.622.122.271.183.586.183.946v.234zm-.485-.239c0-.438-.088-.773-.264-1.007-.175-.235-.422-.353-.738-.353a.864.864 0 00-.728.353c-.176.234-.266.558-.271.974v.272c0 .424.088.758.266 1.002a.868.868 0 00.738.363c.315 0 .558-.114.731-.343.172-.23.261-.559.266-.987v-.274zm3.253.335h-1.55v1.631h-.487v-3.693h2.288v.4h-1.801v1.264h1.55v.398zm1.357 1.631h-.487v-3.693h.487v3.693zm1.383-.398h1.75v.398h-2.24v-3.693h.49v3.295zm4.394-1.309h-1.601v1.309h1.86v.398h-2.347v-3.693h2.321v.4h-1.834v1.188h1.601v.398zm2.676 1.707h-.487v-3.693h.487v3.693zm3.732 0h-.489l-1.86-2.846v2.846h-.49v-3.693h.49l1.865 2.859v-2.859h.484v3.693zm2.903-1.631h-1.55v1.631h-.488v-3.693h2.289v.4h-1.801v1.264h1.55v.398zm3.676-.096c0 .362-.061.678-.183.949a1.384 1.384 0 01-.517.616 1.428 1.428 0 01-.782.213 1.42 1.42 0 01-.774-.213 1.432 1.432 0 01-.525-.611 2.22 2.22 0 01-.19-.921v-.267c0-.355.062-.669.185-.941.124-.272.298-.48.523-.624.226-.145.485-.218.776-.218.296 0 .557.072.782.215.226.143.4.35.522.622.122.271.183.586.183.946v.234zm-.485-.239c0-.438-.088-.773-.264-1.007-.175-.235-.422-.353-.738-.353a.864.864 0 00-.728.353c-.176.234-.266.558-.271.974v.272c0 .424.088.758.266 1.002a.868.868 0 00.738.363c.315 0 .558-.114.731-.343.172-.23.261-.559.266-.987v-.274zm2.57.472h-.867v1.494h-.49v-3.693h1.223c.416 0 .736.094.959.284.225.189.337.465.337.827 0 .23-.062.43-.188.601a1.1 1.1 0 01-.517.383l.868 1.568v.03h-.523l-.802-1.494zm-.867-.398h.748c.242 0 .434-.063.576-.188a.63.63 0 00.216-.502c0-.229-.069-.404-.206-.525-.135-.122-.331-.184-.589-.186h-.745v1.401zm3.343-1.801l1.208 3.014 1.208-3.014h.631v3.693h-.487v-1.438l.046-1.553-1.213 2.991h-.373l-1.21-2.983.048 1.545v1.438h-.487v-3.693h.629zm5.993 2.729h-1.548l-.347.964h-.503l1.411-3.693h.426l1.413 3.693h-.5l-.352-.964zm-1.401-.4h1.256l-.629-1.728-.627 1.728zm4.973-1.929h-1.187v3.293h-.485v-3.293h-1.185v-.4h2.857v.4zm1.071 3.293h-.488v-3.693h.488v3.693zm3.734-1.727c0 .362-.061.678-.183.949a1.378 1.378 0 01-.517.616 1.425 1.425 0 01-.782.213c-.291 0-.548-.071-.773-.213a1.441 1.441 0 01-.526-.611 2.235 2.235 0 01-.19-.921v-.267c0-.355.062-.669.185-.941.124-.272.298-.48.523-.624a1.41 1.41 0 01.776-.218c.296 0 .557.072.782.215.226.143.401.35.522.622.122.271.183.586.183.946v.234zm-.485-.239c0-.438-.088-.773-.263-1.007-.176-.235-.422-.353-.739-.353a.864.864 0 00-.728.353c-.176.234-.266.558-.271.974v.272c0 .424.089.758.266 1.002a.868.868 0 00.738.363c.315 0 .559-.114.731-.343.173-.23.261-.559.266-.987v-.274zm4.055 1.966h-.49l-1.86-2.846v2.846h-.489v-3.693h.489l1.865 2.859v-2.859h.485v3.693zm59.108 9.716H256.204v1.766h114.339v-1.766zm0 6.889H256.204v1.767h114.339v-1.767zm0 6.36H256.204v1.766h114.339v-1.766zm0 6.359H256.204v1.767h114.339v-1.767z" fill="#407CCA"/><path d="M383.423 153.863c0 6.006-4.94 10.952-10.939 10.952-6 0-10.94-4.946-10.94-10.952s4.94-10.952 10.94-10.952c6.175-.177 10.939 4.769 10.939 10.952z" fill="#E94552"/><path d="M369.66 147.857l1.765 2.473c.353.706.882 1.236 1.235 1.943.353-.707.706-1.237 1.235-1.943l1.588-2.473h2.294l-4.058 5.653 4.058 6.006h-2.47l-1.765-2.65c-.529-.707-.882-1.413-1.235-2.12-.353.707-.882 1.413-1.235 2.12l-1.764 2.65h-2.294l4.234-6.006-4.058-5.83h2.47v.177z" fill="#fff"/><path d="M442.004 331.044l5.294 13.072H431.77l-1.764-3.357s.353-6.536 5.293-8.832c4.765-2.297 6.705-.883 6.705-.883zm-78.343 0l-5.293 13.072h15.527l1.765-3.357s-.353-6.536-5.294-8.832c-4.764-2.297-6.705-.883-6.705-.883z" fill="#F7C5B4"/><path d="M434.946 432.794c.353-18.725-2.823-37.626-9.175-55.291l-13.234 1.236c-15.351 1.06-31.584-1.236-31.584-1.236-6.352 17.665-9.352 36.566-9.175 55.291.176 7.42-1.235 42.043 3.352 74.194h10.234l.53-5.83c1.235-22.611 5.117-46.282 10.41-68.364 1.588-6.712 3.529-13.602 5.47-20.314l1.588-5.3c1.941 6.536 5.117 17.842 6.882 25.084 5.293 22.082 9.704 46.106 10.939 68.894l.53 5.83h10.234c4.588-32.151 2.823-66.774 2.999-74.194z" fill="#3B5CAD"/><path d="M431.947 506.988c3.352 2.12 7.764 4.593 10.763 7.242.706.707 1.588 1.59 1.412 2.65-.177 1.06-1.235 1.767-2.47 1.943-1.588.354-3.353.354-5.117.177-4.059-.177-8.294-.353-12.175-1.943-.883-.353-1.765-.707-2.294-1.413-.883-1.06-.883-2.65-.883-3.887 0-1.589 0-3.179.177-4.769m-46.053 0c-3.353 2.12-7.764 4.593-10.764 7.242-.705.707-1.588 1.59-1.411 2.65.176 1.06 1.235 1.767 2.47 1.943 1.588.354 3.353.354 5.117.177 4.058-.177 8.293-.353 12.175-1.943.882-.353 1.765-.707 2.294-1.413.882-1.06.882-2.65.882-3.887 0-1.589 0-3.179-.176-4.769" fill="#003A70"/><path d="M443.945 517.763c-1.941.354-3.882.53-5.646.354-1.941 0-3.882-.177-5.646-.354-1.941-.176-3.882-.529-5.647-.883-.882-.176-1.941-.53-2.823-.883-.529-.177-.882-.353-1.235-.707-.353-.353-.706-.706-.882-1.236v-.177h.176c.882 1.767 3 1.943 4.764 2.473 1.765.354 3.706.707 5.647.883 1.941.177 3.705.354 5.646.354 1.941 0 3.705 0 5.646-.177 0 0 .177 0 .177.177l-.177.176zm-80.637-.353c3.706.53 7.411.177 11.117-.176 1.764-.177 3.705-.354 5.469-.707.883-.177 1.765-.353 2.647-.707.882-.353 1.765-.706 2.118-1.413 0 0 .176-.177.176 0 0 0 .176.177 0 .177-.529.883-1.412 1.413-2.294 1.59-.882.353-1.764.53-2.647.706-1.764.354-3.705.707-5.646.883-1.941.177-3.705.177-5.646.354-1.941 0-3.706 0-5.647-.354l-.176-.176c.353-.177.529-.177.529-.177zm56.111-139.024c.529 2.65 1.764 5.3 3.529 7.243 1.764 2.12 4.058 3.709 6.529 4.769.176 0 .176.177.176.354 0 .176-.176.176-.353.176-2.647-.883-5.117-2.65-6.881-4.769-1.765-2.297-3-4.947-3.353-7.773 0-.177 0-.177.177-.177l.176.177zm-31.231.177c-.353 2.826-1.588 5.476-3.353 7.772-1.764 2.12-4.235 3.887-6.881 4.77-.177 0-.177 0-.353-.177 0-.176 0-.176.176-.353 2.47-1.06 4.764-2.65 6.529-4.77 1.764-2.119 2.999-4.593 3.529-7.242 0-.177.176-.177.176-.177s.177 0 .177.177z" fill="#407CCA"/><path d="M378.483 333.34s-1.941 6.006-2.647 7.596l-1.235-1.59c-2.117-2.473-8.293-6.183-10.763-8.126 7.94-19.785 12.704-19.078 16.939-19.785 2.294-.53 4.94-.883 7.411-1.236 14.645-2.297 36.877 1.236 36.877 1.236 4.412.884 8.999 0 16.939 19.785-2.646 1.943-8.646 5.653-10.763 8.126l-1.235 1.59c-.706-1.413-2.647-7.596-2.647-7.596v1.413c-.353 14.132-.529 26.675-.882 40.807 0 .883-.177 1.943-.882 2.296 0 0-7.058 1.413-23.644 1.413 0 0-20.645-.176-21.351-1.943-.176-.53-.353-1.06-.353-1.59-.176-3.179-.353-6.359-.353-9.539-.176-4.24-.352-8.302-.529-12.542-.706-7.949-.882-20.315-.882-20.315z" fill="#003A70"/><path d="M409.891 295.89c.353 2.473.529 4.946.882 7.419.176.884.176 2.474.706 3.18.706 1.237 6.175 3.356 7.411 4.063 0 0-4.412 3.886-15.704 4.24-11.293.53-14.998-4.77-14.998-4.77 1.058-.53 6.705-2.65 7.41-4.063.353-.883.53-2.296.706-3.18.353-2.473.53-4.946.882-7.242" fill="#F7C5B4"/><path d="M415.184 275.045c.882 4.946-.353 14.662-1.411 18.549-.353 1.589-.883 3.179-1.941 4.416-4.941 6.359-11.646 4.416-13.94 2.826-1.764-1.06-3.176-2.649-3.882-4.593-2.117-4.946-2.823-10.245-2.47-15.545 0 0-.529-13.779 13.41-13.779.177.177 8.823 0 10.234 8.126z" fill="#F7C5B4"/><path d="M391.893 288.824c-.353.353-1.059.353-1.412.177-.353-.177-.529-.884-.705-1.414-.177-.529-.177-1.059-.177-1.589 0-.354 0-.707.353-1.06.176-.354.706-.354 1.059-.354.353.177.705.354.705.884l.177 3.356zm22.762-3.003c.176-.353.353-1.06.706-1.237.353-.176 1.058 0 1.235.354.176.353.353.706.353 1.06 0 .53 0 1.06-.177 1.59-.176.529-.353 1.059-.706 1.413-.352.353-1.058.353-1.411-.177.176 0-.529-1.413 0-3.003z" fill="#F7C5B4"/><path d="M395.775 274.162c.529 1.767.529 3.886-.177 5.653-.529 1.766-1.588 3.533-2.823 4.946-.353.353-.882.883-1.411.53-.177-.177-.353-.353-.53-.707a9.61 9.61 0 01.883-9.009c0-2.296.529-4.593 2.117-6.183 1.588-1.589 3.705-2.649 5.823-2.826 1.058 0 2.117-.53 3.176-.353.882 0 1.764.353 2.47.353.882 0 1.765-.353 2.647-.53 1.588-.177 3.176.53 4.058 1.59.353.353.529.883 1.059 1.236.353.354.882.354 1.411.53 1.588.53 2.824 1.767 2.824 3.71v.353c0 6.536-6.353 5.3-8.47 4.593-2.117-.706-4.235-1.766-6.352-3.003-.353.177-.177.707-.177 1.06 0 .353-.529.707-.882.707h-1.059c-1.058-.177-1.94-.354-2.823-.883-.705-.177-1.411-.707-1.764-1.767z" fill="#3C3C3B"/><path d="M410.067 300.13s-1.941 2.12-6.176 2.473c-4.058.353-6.881-2.12-7.234-2.473 0 0 .882 4.593 6.882 4.593 5.822.176 6.528-4.593 6.528-4.593z" fill="#F7C5B4"/><path d="M413.949 278.048c-.353 2.12.177 4.417 1.059 6.36.176.176.353.53.529.53.177 0 .353-.177.529-.354.177-.176.177-.353.177-.706.353-2.297.706-4.593-.177-6.713 0-.177-.176-.353-.352-.353-.177-.177-.353-.177-.53-.177-.706 0-1.588.707-1.411 1.59" fill="#3C3C3B"/><path opacity=".48" d="M425.418 377.856s-13.763 1.59-22.585 1.413c-8.823-.353-19.057-.353-21.88-1.59 0 0 19.586 6.89 44.465.177z" fill="#3B5CAD"/><path d="M397.186 289.354a1.236 1.236 0 100-2.473 1.236 1.236 0 000 2.473zm11.999 0a1.236 1.236 0 10-.002-2.472 1.236 1.236 0 00.002 2.472z" fill="#3C3C3B"/><path d="M403.186 287.587c-.177.354-.177 1.06-.177 1.414l-.176 1.59c0 .53-.177 1.059 0 1.413 0 .353.529.53.882.53.176 0 .176.176.176.176l-.176.177c-.353 0-.529 0-.882-.177-.353 0-.706-.353-.706-.706 0-.707 0-1.06.176-1.59l.177-1.59c.176-.53.176-1.06.353-1.59l.176-.176c.177.353.353.353.177.529zm3.176 6.713c-.353.707-1.059 1.237-1.765 1.59s-1.411.53-2.294.353c-.176 0-.176-.176-.176-.176 0-.177.176-.177.176-.177.706 0 1.412-.177 1.941-.53.706-.177 1.236-.706 1.588-1.06h.353c.177-.176.177 0 .177 0z" fill="#DA806C"/><path d="M400.743 285.371c-.099-.55-.522-1.325-1.156-1.382l-.07.24-.479-.142s-.155.085-.07.24c-1.113-.198-2.296-.156-3.381.435-.464.254-.929.507-1.07.987.24.07.24.07.395-.014 1.788-.775 3.126-.901 5.831-.364-.155.084-.155.084 0 0zm4.545.293c.047-.556.396-1.368 1.022-1.483l.093.232.463-.185s.162.069.093.232c1.089-.301 2.271-.369 3.406.119.486.209.972.418 1.157.882-.232.092-.232.092-.394.023-1.853-.605-3.197-.606-5.84.18.162.07.162.07 0 0z" fill="#3C3C3B"/><path d="M451.18 405.59h-95.812c-3.352 0-6.176-2.826-6.176-6.183v-49.108c0-3.357 2.824-6.183 6.176-6.183h95.812c3.352 0 6.176 2.826 6.176 6.183v49.108c0 3.533-2.824 6.183-6.176 6.183z" fill="#E94552"/><path d="M457.179 353.478H349.016v11.306h108.163v-11.306z" fill="#3B5CAD"/><path d="M385.188 368.317h-33.349v6.536h33.349v-6.536zm20.468 0h-15.88v6.536h15.88v-6.536z" fill="#fff"/><path d="M459.649 382.096l-2.293-10.423v11.483c-1.236-.354-2.647-1.06-3.882-1.59-.706-.177-1.412-.354-1.765.176s.177 1.414.706 1.767c.706.53 1.235.883 1.941 1.06-.882-.177-1.941-.354-2.823-.53h-.706c-.529.353-.177 1.06.176 1.413.706.707 1.588 1.06 2.471 1.237h-2.294c-.177 0-.53 0-.706.176-.529.354-.353 1.413.176 1.767.53.353 1.236.353 1.941.353-.529.177-1.235.177-1.764.353-.529.177-1.059.707-.882 1.237.176.353.705.53 1.058.706 1.059.177 2.294.354 3.353.354 1.059 0 2.117 0 3-.53 1.235-.707 1.764-1.943 2.293-3.357.53-1.413.53-3.709 0-5.652zm-104.105 7.596c-.529-.177-1.235-.177-1.764-.354.706 0 1.412 0 1.941-.353.529-.353.706-1.413.176-1.766-.176-.177-.529-.177-.705-.177h-2.294c.882-.177 1.764-.53 2.47-1.237.353-.353.706-1.06.176-1.413-.176-.177-.529-.177-.705 0-.883.177-1.941.353-2.823.53.705-.353 1.411-.707 1.94-1.06.53-.353 1.236-1.236.706-1.766-.353-.53-1.235-.354-1.764-.177-1.235.353-2.647 1.06-3.882 1.59v-11.482l-2.47 10.422a11.542 11.542 0 000 6.006c.352 1.237 1.058 2.65 2.293 3.356.883.53 1.941.53 3 .53s2.294-.176 3.353-.353c.352-.177.882-.177 1.058-.707.353-.706-.176-1.236-.706-1.589z" fill="#F7C5B4"/><path d="M467.766 187.603H329.254c-5.647 0-10.234 4.593-10.234 10.246v47.342c0 5.653 4.587 10.246 10.234 10.246h138.512c5.646 0 10.234-4.593 10.234-10.246v-47.342c0-5.83-4.588-10.246-10.234-10.246z" fill="#C7D4E2"/><path d="M474.295 204.032v-8.656c0-5.653-4.588-10.246-10.234-10.246H325.548c-5.646 0-10.234 4.593-10.234 10.246v8.656h158.981z" fill="#407CCA"/><path d="M315.491 204.032v38.686c0 5.653 4.587 10.246 10.234 10.246h138.336c5.646 0 10.234-4.593 10.234-10.246v-38.686H315.491z" fill="#fff"/><path d="M354.133 222.933h2.823l-.353 4.77 3.882-3.003 1.412 2.473-4.412 2.12 4.412 2.296-1.412 2.473-3.882-3.179.353 4.769h-2.823l.529-4.946-3.882 3.003-1.411-2.296 4.411-2.12-4.411-2.12 1.411-2.473 4.059 3.003-.706-4.77zm20.292 0h2.823l-.353 4.77 3.882-3.003 1.411 2.473-4.411 2.12 4.411 2.296-1.411 2.473-3.882-3.179.353 4.769h-2.823l.529-4.946-3.882 3.003-1.412-2.473 4.412-2.12-4.412-2.12 1.412-2.473 4.058 3.003-.705-4.593zm20.291 0h2.823l-.353 4.77 3.882-3.003 1.412 2.473-4.411 2.12 4.411 2.296-1.412 2.473-3.882-3.179.353 4.769h-2.823l.529-4.946-3.881 3.003-1.412-2.473 4.411-2.12-4.411-2.12 1.412-2.473 4.058 3.003-.706-4.593zm20.115 0h2.823l-.352 4.77 3.881-3.003 1.412 2.473-4.411 2.12 4.411 2.296-1.412 2.473-3.881-3.179.352 4.769h-2.823l.53-4.946-3.882 3.003-1.412-2.473 4.411-2.12-4.411-2.12 1.412-2.473 4.058 3.003-.706-4.593zm20.292 0h2.823l-.353 4.77 3.882-3.003 1.412 2.473-4.412 2.12 4.412 2.296-1.412 2.473-3.882-3.179.353 4.769h-2.823l.529-4.946-3.882 3.003-1.411-2.473 4.411-2.12-4.411-2.12 1.411-2.473 4.059 3.003-.706-4.593z" fill="#407CCA"/><path d="M384.775 194.87v-4.383h.717v3.768h1.855v.615h-2.572zm7.219-2.198c0 .714-.179 1.268-.537 1.664-.355.396-.86.594-1.514.594-.661 0-1.17-.196-1.525-.588-.354-.394-.531-.952-.531-1.676 0-.723.178-1.279.534-1.667.357-.388.867-.581 1.528-.581.652 0 1.156.196 1.511.59.356.394.534.949.534 1.664zm-3.346 0c0 .54.109.949.327 1.229.218.278.541.417.968.417.426 0 .747-.138.963-.414.218-.276.327-.686.327-1.232 0-.538-.108-.945-.324-1.223-.214-.278-.534-.417-.96-.417-.429 0-.754.139-.974.417-.218.278-.327.685-.327 1.223zm6.08-.18h1.613v2.201a4.676 4.676 0 01-1.547.237c-.663 0-1.175-.196-1.535-.588-.36-.394-.539-.948-.539-1.664 0-.705.202-1.257.608-1.655.406-.4.965-.599 1.676-.599.458 0 .891.088 1.301.263l-.252.597a2.526 2.526 0 00-1.067-.246c-.468 0-.837.147-1.109.441-.272.294-.408.695-.408 1.205 0 .536.122.943.366 1.223.246.278.598.417 1.058.417.232 0 .48-.029.744-.087v-1.13h-.909v-.615zm2.668 2.378v-4.383h.717v4.383h-.717zm5.529 0h-.879l-2.155-3.493h-.024l.015.195c.028.372.042.711.042 1.019v2.279h-.651v-4.383h.87l2.149 3.474h.018a20.379 20.379 0 01-.024-.5c-.012-.29-.018-.516-.018-.678v-2.296h.657v4.383z" fill="#fff"/><path d="M174.684 372.027H9.881c-4.058 0-7.234-3.18-7.234-7.243v-58.295c0-4.063 3.176-7.243 7.234-7.243h164.803c4.059 0 7.235 3.18 7.235 7.243v58.295c-.177 3.886-3.353 7.243-7.235 7.243z" fill="#C7D4E2"/><path d="M171.861 372.027H7.234c-4.058 0-7.234-3.18-7.234-7.243v-55.115c0-4.063 3.176-7.243 7.234-7.243h164.627c4.059 0 7.235 3.18 7.235 7.243v55.115c0 3.886-3.176 7.243-7.235 7.243z" fill="#fff"/><path d="M55.052 357.188c-3-7.419-9.175-15.015-21.88-15.015-12.704 0-18.88 7.419-21.88 15.015h43.76zM43.583 328.57c0 5.83-4.588 10.423-10.41 10.423-5.823 0-10.411-4.593-10.411-10.423 0-5.829 4.588-10.422 10.41-10.422 5.823 0 10.41 4.77 10.41 10.422zm127.749-1.766H60.698v1.766h110.634v-1.766zm0 7.066H60.698v1.767h110.634v-1.767zm0 6.713H60.698v1.766h110.634v-1.766zm-52.405 6.889H60.698v1.767h58.229v-1.767z" fill="#407CCA"/><path d="M171.332 326.804H60.698v1.766h110.634v-1.766zm0 7.066H60.698v1.767h110.634v-1.767zm0 6.713H60.698v1.766h110.634v-1.766zm-52.405 6.889H60.698v1.767h58.229v-1.767z" fill="#407CCA"/><defs><linearGradient id="paint0_linear_16_37" x1="249.027" y1="238.943" x2="371.079" y2="511.606" gradientUnits="userSpaceOnUse"><stop stop-color="#fff"/><stop offset="1" stop-color="#C6D4EE"/></linearGradient></defs></svg>