<svg width="32" height="32" fill="none" xmlns="http://www.w3.org/2000/svg"><path d="M22.472 10h1.45c1.207 0 2.217-.86 2.45-2h-1.45c-1.207 0-2.217.86-2.45 2zM11 5.5c.05 0 .098.006.147.008l.351-3.51c.002-.295-.201-.498-.45-.498h-.095a.453.453 0 00-.453.452l.354 3.556c.049-.002.097-.008.146-.008zM7 16c0-.17.018-.337.045-.5H6v.342c.375.179.713.42 1 .713V16zM6.595 3.778l1.71 2.518c.135-.086.273-.166.416-.24L7.692 3.228a.548.548 0 00-.765-.311l-.125.062a.548.548 0 00-.207.8zM8.691 14.5h5.569l.656-3.148a4 4 0 00.084-.816C15 8.294 13.206 6.5 11 6.5s-4 1.794-4 4c0 .31.029.584.084.852l.578 2.773A2.993 2.993 0 0110 13v1c-.502 0-.957.193-1.309.5zm3.809-6h1v1h-1v-1zm0 2h1v1h-1v-1zm0 2h1v1h-1v-1zm-7 6h1.45a2.504 2.504 0 00-2.45-2H3.05c.233 1.14 1.243 2 2.45 2zm9.905-14.723a.548.548 0 00-.209-.798l-.124-.063a.546.546 0 00-.736.245.613.613 0 00-.029.066L13.28 6.055c.143.074.281.154.415.24l1.711-2.518zM14.492 24.5H28.5v-3H13.826c.441.928.665 1.949.666 3zm12.008-2h1v1h-1v-1zm-13.268 6H27c.827 0 1.5-.673 1.5-1.5v-1.5H14.428a6.95 6.95 0 01-1.196 3zm13.268-2h1v1h-1v-1zm-18.429-11A1.97 1.97 0 008 16v.5h22.5v-1H8.071zM8 18.933c.1-.024.201-.05.293-.089a3.883 3.883 0 014.413.977c.194.215.367.444.531.678H28.5v-3H8v1.434zm18.5-.433h1v1h-1v-1z" fill="#09A66D"/><path d="M11.963 20.49a2.918 2.918 0 00-3.277-.727 2.94 2.94 0 01-.686.193v.942c.496-.185.968-.575 1.147-.753l.707.708C9.736 20.971 8.674 22 7.5 22c-1.173 0-2.237-1.03-2.354-1.147l.707-.708c.179.178.65.567 1.147.753V19.5H5.5c-.17 0-.335-.016-.497-.04-.702.05-1.442.442-1.989 1.055A5.99 5.99 0 001.5 24.5c0 1.646.654 3.182 1.84 4.324a5.96 5.96 0 004.399 1.671c3.09-.12 5.619-2.633 5.756-5.723a5.976 5.976 0 00-1.532-4.282zM7.5 29.5c-2.757 0-5-2.243-5-5h1c0 2.205 1.795 4 4 4v1zm18.885-15a5.97 5.97 0 00-1.344-2.51 2.92 2.92 0 00-3.277-.726 2.85 2.85 0 01-.264.095V7c0-.827.673-1.5 1.5-1.5h.5v-1H23A2.503 2.503 0 0020.5 7v4.359a2.85 2.85 0 01-.264-.095 2.92 2.92 0 00-3.277.726 5.966 5.966 0 00-1.345 2.51h10.771zm-7.632-2.431c.008.004.765.431 2.247.431 1.482 0 2.239-.427 2.246-.431l.51.86c-.038.023-.972.571-2.756.571-1.785 0-2.719-.548-2.758-.572l.511-.859z" fill="#09A66D"/></svg>