<svg width="556" height="612" fill="none" xmlns="http://www.w3.org/2000/svg"><g opacity=".75" fill="#D7E2F4"><path opacity=".75" d="M254.522 580.857a3.679 3.679 0 00-3.696 3.692 3.679 3.679 0 003.696 3.692 3.68 3.68 0 003.697-3.692 3.68 3.68 0 00-3.697-3.692zm-167.989-6.973l4.518-7.794 4.929-8.204H77.086l4.929 8.204 4.518 7.794zm-88.308-92.707a3.678 3.678 0 00-3.696 3.691 3.679 3.679 0 003.696 3.692 3.679 3.679 0 003.697-3.692 3.678 3.678 0 00-3.697-3.691z"/><g opacity=".75"><path opacity=".75" d="M71.746 234.64c0 8.615-6.982 15.998-15.607 15.998-8.626 0-15.608-6.973-15.608-15.998 0-8.614 6.982-15.998 15.608-15.998 8.625 0 15.607 7.384 15.607 15.998zm-30.394 0c0 8.204 6.572 15.178 14.787 15.178 8.214 0 14.786-6.563 14.786-15.178 0-8.204-6.572-15.177-14.786-15.177-8.215.41-14.787 6.973-14.787 15.177zm153.614 308.068c-6.982 0-12.322-5.743-12.322-12.306 0-6.974 5.34-12.307 12.322-12.307 6.983 0 12.322 5.743 12.322 12.307 0 6.563-5.339 12.306-12.322 12.306zm0-22.972c-5.75 0-10.268 4.512-10.268 10.255 0 5.743 4.518 10.256 10.268 10.256 5.751 0 10.269-4.513 10.269-10.256s-4.518-10.255-10.269-10.255zM69.282 192.799c0-3.282 2.465-5.743 5.34-5.743s5.34 2.461 5.34 5.743c0 3.282-2.465 5.743-5.34 5.743-2.876 0-5.34-2.461-5.34-5.743z"/><path opacity=".75" d="M41.352 77.94c0 3.282-2.464 5.743-5.34 5.743h-1.231v84.093l20.126 17.229v-31.586c-1.643-.411-2.465-2.051-2.465-3.692a3.679 3.679 0 013.697-3.692 3.68 3.68 0 013.696 3.692c0 1.641-1.232 2.871-2.464 3.692v58.249c12.322.411 22.18 11.076 22.18 23.382 0 12.717-9.858 22.972-22.18 23.382v25.023l29.573 29.946v52.506c2.464.411 4.518 2.872 4.518 5.333 0 2.872-2.054 4.923-4.518 5.333v24.202l20.947-20.92v-64.814c-1.643-.41-2.464-2.051-2.464-3.691a3.678 3.678 0 013.696-3.692 3.679 3.679 0 013.697 3.692c0 1.64-1.232 2.871-2.465 3.691v65.634l-23 23.382v19.69c11.91.41 23.411 4.102 32.858 10.255l22.179-22.151 1.643 1.641-16.429-29.125 16.84-29.535h33.68l16.84 29.535-16.84 29.535h-33.68v-.41l-21.769 22.151c14.787 11.076 24.644 28.715 25.055 48.405h11.09l10.679-18.87h8.625l16.84-16.818h-29.983L158 455.333l-1.643-1.641 7.394-7.794h31.215l16.019-16.408h40.662l13.554-13.947c-.41-.41-.41-1.231-.41-1.641a3.679 3.679 0 013.696-3.692 3.68 3.68 0 013.697 3.692 3.68 3.68 0 01-3.697 3.692c-.41 0-1.232 0-1.643-.41l-14.375 14.357h-40.663l-32.858 33.227h10.268l26.287-26.664h65.717v2.462h-64.074l-25.466 25.843 10.269 17.639h23.411l26.287 26.664h25.055c.411-2.462 2.875-4.513 5.34-4.513 2.464 0 4.928 2.051 5.339 4.513H314.9c.411-1.641 1.643-2.462 3.286-2.462a3.68 3.68 0 013.697 3.692 3.68 3.68 0 01-3.697 3.692c-1.643 0-2.875-1.23-3.286-2.461h-27.519c-.411 2.461-2.875 4.512-5.339 4.512-2.465 0-4.929-2.051-5.34-4.512h-25.876l-26.287-26.664h-22.59l-10.679 18.87h-23.001l-7.394-12.717h-23.411c-1.643 11.076-6.572 20.921-13.554 28.715l9.857 9.845v41.431c1.643.411 2.875 2.051 2.875 3.692a3.679 3.679 0 01-3.696 3.692 3.68 3.68 0 01-3.697-3.692c0-1.641.821-2.871 2.054-3.281v-40.611l-9.036-9.025c-9.447 9.435-22.59 15.588-36.966 15.588-14.376 0-27.52-5.743-36.966-15.588l-4.108 4.102c10.68 10.666 25.055 17.229 41.074 17.229v2.461c-16.43 0-31.627-6.973-42.717-17.639l-50.109 50.046c.41.41.41 1.231.41 1.641a3.679 3.679 0 01-3.696 3.692 3.679 3.679 0 01-3.696-3.692 3.679 3.679 0 013.696-3.692c.411 0 1.232 0 1.643.41l50.52-50.866c-10.268-11.076-16.429-25.843-16.429-41.841h2.464c0 15.588 6.161 29.945 15.608 40.2l4.108-4.102c-8.626-9.435-13.965-22.151-13.965-36.098 0-14.358 5.75-27.074 14.786-36.919l-18.483-18.87v-32.407l-39.841-40.2h-1.643a3.679 3.679 0 01-3.697-3.692 3.679 3.679 0 013.697-3.692 3.679 3.679 0 013.697 3.692c0 .82-.411 1.641-.822 2.051l37.788 38.15v-9.435l-39.43-40.201c-.411 0-.822.41-1.233.41a3.679 3.679 0 01-3.697-3.692 3.678 3.678 0 013.697-3.691 3.678 3.678 0 013.697 3.691c0 .821-.411 1.641-.411 2.051l37.787 38.15v-46.764c-1.643-.41-2.464-2.051-2.464-3.692a3.68 3.68 0 013.697-3.692 3.679 3.679 0 013.696 3.692c0 1.641-1.232 2.872-2.464 3.692v93.528l18.072 18.049c9.447-9.024 22.18-14.767 36.555-14.767 28.751 0 52.163 23.382 52.574 52.096h5.75c-.411-31.996-26.697-57.839-58.324-57.839H84.89v-49.226c-2.465-.41-4.518-2.871-4.518-5.332 0-2.872 2.053-4.923 4.518-5.333v-50.866l-29.573-29.945v-25.844c-12.322-.41-22.18-11.075-22.18-23.382 0-12.716 9.858-22.971 22.18-23.382v-23.792l-22.18-18.869V82.862c-1.232-.82-2.053-2.46-2.053-4.512 0-3.282 2.464-5.743 5.34-5.743 2.464 0 4.928 2.461 4.928 5.333zm133.899 333.5l15.608-27.074-15.608-27.484h-30.805l-15.608 27.074 15.608 27.074 30.805.41zm14.376 91.477l10.268-18.05-10.268-18.049H169.09l-10.268 18.049 10.268 18.05h20.537zM159.643 490.2l-2.464-4.102h-18.894c0 1.231 0 2.872-.411 4.102h21.769zm-74.753-4.102l-30.805-31.176c-7.393 7.794-11.911 18.46-11.911 29.945 0 23.793 19.304 43.483 42.716 43.483 23.412 0 42.305-18.87 42.716-42.252H84.89zm1.232-2.461h42.306c-.411-23.382-19.716-42.252-42.717-42.252-11.5 0-21.768 4.512-29.572 11.896l29.983 30.356zm-50.93 1.23c0 28.305 22.59 50.866 50.52 50.866 27.518 0 49.698-22.151 50.519-49.635h-6.571c-.411 23.792-20.126 43.072-43.538 43.072-24.233 0-43.948-19.69-43.948-44.303 0-11.896 4.518-22.561 11.911-30.355L49.567 450c-9.036 9.024-14.376 21.33-14.376 34.867zM85.3 434.002c-13.555 0-25.877 5.333-34.913 14.358l4.519 4.512c7.803-7.384 18.482-12.306 29.983-12.306 23.822 0 43.127 19.28 43.538 43.072h6.571c0-27.484-22.179-49.636-49.698-49.636zM35.19 234.64c0 11.896 9.447 21.331 20.948 21.331 11.5 0 20.947-9.435 20.947-21.331 0-11.896-9.447-21.331-20.947-21.331S35.19 223.154 35.19 234.64z"/><path opacity=".75" d="M250.004 468.87c0 3.282-2.464 5.743-5.339 5.743-2.875 0-5.34-2.461-5.34-5.743 0-3.281 2.465-5.743 5.34-5.743 2.464.411 5.339 2.872 5.339 5.743zm-17.25 0c0 3.282-2.465 5.743-5.34 5.743s-5.339-2.461-5.339-5.743c0-3.281 2.464-5.743 5.339-5.743 2.875.411 5.34 2.872 5.34 5.743zm-69.825-126.344c0-3.282 2.464-5.743 5.34-5.743 2.875 0 5.339 2.461 5.339 5.743 0 3.281-2.464 5.743-5.339 5.743-2.876-.411-5.34-2.872-5.34-5.743zm-5.75 0c0 3.281-2.465 5.743-5.34 5.743s-5.339-2.462-5.339-5.743c0-3.282 2.464-5.743 5.339-5.743 2.875 0 5.34 2.461 5.34 5.743zm37.787 191.158a3.679 3.679 0 01-3.696-3.692 3.679 3.679 0 013.696-3.692 3.68 3.68 0 013.697 3.692 3.68 3.68 0 01-3.697 3.692zM10.547 484.868c0 6.974-5.34 12.307-12.322 12.307-6.982 0-12.322-5.743-12.322-12.307 0-6.973 5.34-12.306 12.322-12.306 6.572 0 12.322 5.333 12.322 12.306zm-22.59 0c0 5.743 4.518 10.256 10.268 10.256 5.75 0 10.269-4.513 10.269-10.256s-4.518-10.255-10.269-10.255c-5.75 0-10.268 4.512-10.268 10.255zm266.565 86.965c6.983 0 12.322 5.743 12.322 12.306 0 6.974-5.339 12.306-12.322 12.306-6.982 0-12.322-5.743-12.322-12.306 0-6.563 5.34-12.306 12.322-12.306zm-10.268 12.716c0 5.743 4.518 10.256 10.268 10.256 5.751 0 10.269-4.513 10.269-10.256s-4.518-10.255-10.269-10.255c-5.75 0-10.268 4.512-10.268 10.255zM20.405 294.941c0 6.974-5.34 12.306-12.322 12.306-6.982 0-12.322-5.743-12.322-12.306 0-6.973 5.34-12.306 12.322-12.306 6.572 0 12.322 5.333 12.322 12.306zm-22.59 0c0 5.743 4.518 10.255 10.268 10.255 5.75 0 10.268-4.512 10.268-10.255 0-5.743-4.518-10.255-10.268-10.255-5.75 0-10.268 4.512-10.268 10.255z"/><path opacity=".75" d="M11.78 294.941a3.679 3.679 0 01-3.697 3.692 3.679 3.679 0 01-3.697-3.692 3.679 3.679 0 013.697-3.692 3.679 3.679 0 013.697 3.692zm149.095 235.051a3.68 3.68 0 013.697-3.692 3.68 3.68 0 013.697 3.692 3.68 3.68 0 01-3.697 3.692 3.68 3.68 0 01-3.697-3.692zM43.406 283.045c0 .41 0 1.231-.41 1.641l32.858 33.227v105.424h-2.465v-43.072l-18.893-19.28v-34.458h2.464v33.637l16.84 16.819v-57.84l-32.448-32.816c-.41.41-1.232.41-1.643.41a3.679 3.679 0 01-3.696-3.692 3.679 3.679 0 013.696-3.692 3.679 3.679 0 013.697 3.692zm275.191 314.631c0-.41 0-1.23.41-1.641l-43.948-44.713 1.643-1.64 43.948 44.713c.411-.411 1.233-.411 1.643-.411a3.68 3.68 0 013.697 3.692 3.68 3.68 0 01-3.697 3.692 3.679 3.679 0 01-3.696-3.692zm57.913-45.943h-40.663l-29.162-29.536h-61.609l-29.162-29.535 1.642-1.641 28.752 29.125h150.739l10.679-18.869h23.001l10.679 18.869h102.272v2.462H441.406l-3.286 6.153h58.324c.411-1.641 1.643-2.461 3.286-2.461a3.678 3.678 0 013.696 3.691 3.679 3.679 0 01-3.696 3.692c-1.643 0-2.875-1.23-3.286-2.461h-59.556l-6.161 10.666h-23.001l-10.679-18.87h-86.665l26.698 27.074h39.43c.411-1.231 2.054-2.462 3.286-2.462a3.679 3.679 0 013.696 3.692 3.679 3.679 0 01-3.696 3.692c-1.232-.41-2.875-1.641-3.286-3.281zm53.395-12.717l5.75-10.255v-.41h.411l4.107-7.384-10.268-18.049h-20.536L399.1 520.967l10.269 18.049h20.536z"/><path opacity=".75" d="M353.92 502.508l5.75 3.281-5.34 3.282-5.75 3.282v-6.564l-.411-6.563 5.751 3.282zM74.622 169.417l3.285 5.333 3.286 5.743h-6.571l-6.161.41 2.875-5.743 3.286-5.743zm124.041 184.184l3.286 5.333 3.286 5.743h-6.572l-6.572.41 3.286-5.743 3.286-5.743zm-13.554 217.001h6.161l6.571-.41-2.875 5.743-3.286 5.743-3.285-5.333-3.286-5.743zm-30.805-136.19l-5.34 3.692-5.75 3.282v-6.563l-.411-6.564 5.75 3.282 5.751 2.871zm242.332 7.384l5.75 2.872 5.75 3.282-5.339 3.281-5.75 3.692v-6.563l-.411-6.564zm147.863 73.018l5.751 2.871 5.75 3.282-5.75 3.282-5.34 3.692v-6.564l-.411-6.563zm-205.776-5.743l-5.751 3.282v-13.127l5.751 3.282 5.339 3.281-5.339 3.282zm73.11-1.641h15.608l7.804 13.947-7.804 13.947h-15.608l-7.804-13.947 7.804-13.947zm15.197 26.664l7.393-12.717-7.393-12.716h-14.786l-7.394 12.716 7.394 12.717h14.786zM146.5 361.395l26.287-.41 13.143 22.972-12.733 22.972v.41h-26.286l-13.144-22.972 12.733-22.972zm25.876 44.713l12.733-22.151-12.733-22.151h-25.055l-12.732 22.151 12.732 22.151h25.055zM22.459 462.307h-9.447l-4.93-8.204 4.93-8.615h9.447l4.518 8.615-4.518 8.204zm201.669-73.428h6.161l2.875 4.923-2.875 5.332h-6.161l-2.875-5.332 2.875-4.923zm-121.166-176.8h8.215l4.107 6.973-4.107 7.384h-8.215l-4.107-7.384 4.107-6.973zm85.022 258.022l8.214 14.767-8.214 14.768h-16.84l-8.215-14.768 8.215-14.767h16.84zm-16.43.82l-7.803 13.947 7.803 13.948h15.608l7.804-13.948-7.804-13.947h-15.608zm45.592-23.792h103.915c.411-1.641 1.643-2.461 3.286-2.461a3.678 3.678 0 013.696 3.692 3.678 3.678 0 01-3.696 3.692c-1.643 0-2.875-1.231-3.286-2.462H217.146v-2.461zM62.71 116.089l2.875 4.923 2.876 4.922h-11.5l2.874-4.922 2.875-4.923zm147.043 380.265l87.486 88.606c.41-.41 1.232-.41 2.053-.41a3.679 3.679 0 013.697 3.692 3.678 3.678 0 01-3.697 3.691 3.678 3.678 0 01-3.696-3.691c0-.411 0-.821.41-1.231l-66.127-66.864v22.971l16.84 16.819-1.643 1.641-17.251-17.639v-26.254l-19.305-19.279 1.233-2.052zM51.21 405.288h-6.572l3.286-5.743 2.875-5.743 3.697 5.743 3.286 5.743H51.21zm0 15.588l-6.572.41 3.286-5.743 2.875-5.743 3.697 5.333 3.286 5.743H51.21zM13.833 534.093l-5.75-2.871-5.75-3.282 5.34-3.281 5.75-3.282v6.563l.41 6.153z"/><path opacity=".75" d="M63.943 0c2.464.41 4.518 2.871 4.518 5.333 0 2.871-2.054 4.922-4.518 5.332v63.993l6.571-6.973V34.868c-1.643-.41-2.464-2.051-2.464-3.692a3.679 3.679 0 013.697-3.692 3.679 3.679 0 013.696 3.692c0 1.64-1.232 2.871-2.464 3.692v34.458l-9.036 9.024v23.382l17.661 31.176H43.817l17.661-31.176V11.076c-2.464-.41-4.518-2.872-4.518-5.333C56.96 2.87 59.014.82 61.478.41L63.943 0zM47.924 130.857h29.983L62.71 104.604l-14.786 26.253zm.821 60.301l-1.642 2.051-23.412-19.69v-70.967h2.053v69.736l23.002 18.87zm114.595 351.14c-6.161-.41-11.09-5.743-11.09-12.306 0-6.974 5.34-12.307 12.322-12.307 6.982 0 12.322 5.743 12.322 12.307 0 6.563-4.929 11.896-11.09 12.306v62.352c1.232.41 2.465 2.051 2.465 3.282a3.678 3.678 0 01-3.697 3.691 3.678 3.678 0 01-3.697-3.691c0-1.641 1.233-3.282 2.465-3.692v-61.942zm11.09-12.306c0-5.743-4.518-10.256-10.269-10.256-5.75 0-10.268 4.513-10.268 10.256s4.518 10.255 10.268 10.255c5.751 0 10.269-4.512 10.269-10.255zm103.093-69.326h9.447l4.929 8.204-4.929 8.615h-9.447l-4.928-8.615 4.928-8.204zM36.834 203.054l-4.518 8.204H22.87l-4.928-8.204 4.928-8.204h9.447l4.518 8.204zm85.843 81.222H79.14l21.769-38.56 21.768 38.56zm-21.768-2.051h18.072l-18.072-31.587-18.073 31.587h18.073zM368.295 448.36l-32.858 19.28v-38.15l32.858 18.87zm-4.518 0l-25.876-15.178v30.355l25.876-15.177z"/></g><path opacity=".75" d="M56.139 225.616c-4.93 0-9.037 4.102-9.037 9.024 0 4.923 4.108 9.025 9.037 9.025 4.928 0 9.036-4.102 9.036-9.025-.411-4.922-4.108-9.024-9.036-9.024zM85.3 469.281c-8.625 0-15.607 6.973-15.607 15.587 0 8.615 6.982 15.588 15.608 15.588 8.625 0 15.607-6.973 15.607-15.588 0-8.614-6.982-15.587-15.607-15.587zm330.64 45.533l-3.696 6.563 3.696 6.564h7.393l4.108-6.564-4.108-6.563h-7.393zM152.25 371.24l-7.393 13.127 7.393 13.127h15.197l7.393-13.127-7.393-13.127H152.25zm23.412 107.065l-3.697 6.564 3.697 6.563h7.393l3.697-6.563-3.697-6.564h-7.393zm-74.753-214.13l-3.286 6.153-3.286 5.743h13.554l-3.697-5.743-3.285-6.153zM352.277 448.36l-4.929-2.872-4.929-3.281v11.896l4.929-2.872 4.929-2.871z"/></g></svg>