<svg width="559" height="612" fill="none" xmlns="http://www.w3.org/2000/svg"><g opacity=".75" fill="#D7E2F4"><path opacity=".75" d="M301.478 580.857a3.679 3.679 0 013.696 3.692 3.679 3.679 0 01-3.696 3.692 3.68 3.68 0 01-3.697-3.692 3.68 3.68 0 013.697-3.692zm167.989-6.973l-4.518-7.794-4.929-8.204h18.894l-4.929 8.204-4.518 7.794zm88.308-92.707a3.678 3.678 0 013.696 3.691 3.679 3.679 0 01-3.696 3.692 3.68 3.68 0 01-3.697-3.692 3.678 3.678 0 013.697-3.691z"/><g opacity=".75"><path opacity=".75" d="M484.253 234.64c0 8.615 6.983 15.998 15.608 15.998 8.626 0 15.608-6.973 15.608-15.998 0-8.614-6.982-15.998-15.608-15.998-8.625 0-15.608 7.384-15.608 15.998zm30.395 0c0 8.204-6.572 15.178-14.787 15.178-8.214 0-14.786-6.563-14.786-15.178 0-8.204 6.572-15.177 14.786-15.177 8.215.41 14.787 6.973 14.787 15.177zM361.034 542.708c6.982 0 12.322-5.743 12.322-12.306 0-6.974-5.34-12.307-12.322-12.307-6.983 0-12.322 5.743-12.322 12.307 0 6.563 5.339 12.306 12.322 12.306zm0-22.972c5.75 0 10.268 4.512 10.268 10.255 0 5.743-4.518 10.256-10.268 10.256-5.75 0-10.269-4.513-10.269-10.256s4.519-10.255 10.269-10.255zm125.684-326.937c0-3.282-2.464-5.743-5.34-5.743-2.875 0-5.339 2.461-5.339 5.743 0 3.282 2.464 5.743 5.339 5.743 2.876 0 5.34-2.461 5.34-5.743z"/><path opacity=".75" d="M514.648 77.94c0 3.282 2.464 5.743 5.339 5.743h1.232v84.093l-20.125 17.229v-31.586c1.642-.411 2.464-2.051 2.464-3.692a3.68 3.68 0 00-3.697-3.692 3.679 3.679 0 00-3.696 3.692c0 1.641 1.232 2.871 2.464 3.692v58.249c-12.322.411-22.179 11.076-22.179 23.382 0 12.717 9.857 22.972 22.179 23.382v25.023l-29.573 29.946v52.506c-2.464.411-4.518 2.872-4.518 5.333 0 2.872 2.054 4.923 4.518 5.333v24.202l-20.947-20.92v-64.814c1.643-.41 2.464-2.051 2.464-3.691a3.678 3.678 0 00-3.696-3.692 3.679 3.679 0 00-3.697 3.692c0 1.64 1.232 2.871 2.465 3.691v65.634l23.001 23.382v19.69c-11.912.41-23.412 4.102-32.859 10.255l-22.179-22.151-1.643 1.641 16.429-29.125-16.84-29.535h-33.68l-16.84 29.535 16.84 29.535h33.68v-.41l21.769 22.151c-14.787 11.076-24.644 28.715-25.055 48.405h-11.09l-10.679-18.87h-8.625l-16.84-16.818h29.983l6.983 6.973 1.643-1.641-7.394-7.794h-31.215l-16.019-16.408h-40.662l-13.554-13.947c.41-.41.41-1.231.41-1.641a3.679 3.679 0 00-3.696-3.692 3.68 3.68 0 00-3.697 3.692 3.68 3.68 0 003.697 3.692c.41 0 1.232 0 1.643-.41l14.375 14.357h40.663l32.858 33.227h-10.268l-26.287-26.664H274.78v2.462h64.074l25.466 25.843-10.269 17.639H330.64l-26.287 26.664h-25.055c-.411-2.462-2.875-4.513-5.34-4.513-2.464 0-4.928 2.051-5.339 4.513H241.1c-.411-1.641-1.643-2.462-3.286-2.462a3.68 3.68 0 00-3.697 3.692 3.68 3.68 0 003.697 3.692c1.643 0 2.875-1.23 3.286-2.461h27.519c.411 2.461 2.875 4.512 5.339 4.512 2.465 0 4.929-2.051 5.34-4.512h25.876l26.287-26.664h22.59l10.679 18.87h23.001l7.394-12.717h23.411c1.643 11.076 6.572 20.921 13.554 28.715l-9.857 9.845v41.431c-1.643.411-2.875 2.051-2.875 3.692a3.679 3.679 0 003.696 3.692 3.68 3.68 0 003.697-3.692c0-1.641-.821-2.871-2.054-3.281v-40.611l9.036-9.025c9.447 9.435 22.591 15.588 36.966 15.588 14.376 0 27.519-5.743 36.966-15.588l4.108 4.102c-10.679 10.666-25.055 17.229-41.074 17.229v2.461c16.43 0 31.627-6.973 42.717-17.639l50.109 50.046c-.411.41-.411 1.231-.411 1.641a3.68 3.68 0 003.697 3.692 3.679 3.679 0 003.696-3.692 3.679 3.679 0 00-3.696-3.692c-.411 0-1.232 0-1.643.41l-50.52-50.866c10.268-11.076 16.429-25.843 16.429-41.841h-2.464c0 15.588-6.161 29.945-15.608 40.2l-4.108-4.102c8.626-9.435 13.965-22.151 13.965-36.098 0-14.358-5.75-27.074-14.786-36.919l18.483-18.87v-32.407l39.841-40.2h1.643a3.68 3.68 0 003.697-3.692 3.68 3.68 0 00-3.697-3.692 3.68 3.68 0 00-3.697 3.692c0 .82.411 1.641.822 2.051l-37.788 38.15v-9.435l39.431-40.201c.41 0 .821.41 1.232.41a3.68 3.68 0 003.697-3.692 3.678 3.678 0 00-3.697-3.691 3.678 3.678 0 00-3.697 3.691c0 .821.411 1.641.411 2.051l-37.787 38.15v-46.764c1.643-.41 2.464-2.051 2.464-3.692a3.68 3.68 0 00-3.697-3.692 3.679 3.679 0 00-3.696 3.692c0 1.641 1.232 2.872 2.464 3.692v93.528l-18.072 18.049c-9.447-9.024-22.179-14.767-36.555-14.767-28.751 0-52.163 23.382-52.574 52.096h-5.75c.411-31.996 26.697-57.839 58.324-57.839h1.232v-49.226c2.464-.41 4.518-2.871 4.518-5.332 0-2.872-2.054-4.923-4.518-5.333v-50.866l29.573-29.945v-25.844c12.322-.41 22.179-11.075 22.179-23.382 0-12.716-9.857-22.971-22.179-23.382v-23.792l22.179-18.869V82.862c1.233-.82 2.054-2.46 2.054-4.512 0-3.282-2.464-5.743-5.34-5.743-2.464 0-4.928 2.461-4.928 5.333zm-133.899 333.5l-15.608-27.074 15.608-27.484h30.805l15.608 27.074-15.608 27.074-30.805.41zm-14.376 91.477l-10.268-18.05 10.268-18.049h20.537l10.268 18.049-10.268 18.05h-20.537zm29.984-12.717l2.464-4.102h18.894c0 1.231 0 2.872.411 4.102h-21.769zm74.753-4.102l30.805-31.176c7.393 7.794 11.911 18.46 11.911 29.945 0 23.793-19.304 43.483-42.716 43.483-23.412 0-42.305-18.87-42.716-42.252h42.716zm-1.232-2.461h-42.306c.411-23.382 19.716-42.252 42.717-42.252 11.5 0 21.768 4.512 29.572 11.896l-29.983 30.356zm50.931 1.23c0 28.305-22.591 50.866-50.52 50.866-27.519 0-49.699-22.151-50.52-49.635h6.571c.411 23.792 20.126 43.072 43.538 43.072 24.233 0 43.948-19.69 43.948-44.303 0-11.896-4.518-22.561-11.911-30.355l4.518-4.512c9.036 9.024 14.376 21.33 14.376 34.867zm-50.11-50.866c13.554 0 25.876 5.333 34.913 14.358l-4.518 4.512c-7.804-7.384-18.483-12.306-29.984-12.306-23.822 0-43.127 19.28-43.538 43.072h-6.571c0-27.484 22.179-49.636 49.698-49.636zm50.11-199.362c0 11.896-9.447 21.331-20.948 21.331-11.5 0-20.947-9.435-20.947-21.331 0-11.896 9.447-21.331 20.947-21.331 11.501 0 20.948 9.845 20.948 21.331z"/><path opacity=".75" d="M305.996 468.87c0 3.282 2.464 5.743 5.339 5.743 2.875 0 5.34-2.461 5.34-5.743 0-3.281-2.465-5.743-5.34-5.743-2.464.411-5.339 2.872-5.339 5.743zm17.25 0c0 3.282 2.465 5.743 5.34 5.743s5.339-2.461 5.339-5.743c0-3.281-2.464-5.743-5.339-5.743-2.875.411-5.34 2.872-5.34 5.743zm69.825-126.344c0-3.282-2.464-5.743-5.34-5.743-2.875 0-5.339 2.461-5.339 5.743 0 3.281 2.464 5.743 5.339 5.743 2.876-.411 5.34-2.872 5.34-5.743zm5.75 0c0 3.281 2.465 5.743 5.34 5.743s5.339-2.462 5.339-5.743c0-3.282-2.464-5.743-5.339-5.743-2.875 0-5.34 2.461-5.34 5.743zm-37.787 191.158a3.679 3.679 0 003.696-3.692 3.679 3.679 0 00-3.696-3.692 3.68 3.68 0 00-3.697 3.692 3.68 3.68 0 003.697 3.692zm184.419-48.816c0 6.974 5.339 12.307 12.322 12.307 6.982 0 12.322-5.743 12.322-12.307 0-6.973-5.34-12.306-12.322-12.306-6.572 0-12.322 5.333-12.322 12.306zm22.59 0c0 5.743-4.518 10.256-10.268 10.256-5.751 0-10.269-4.513-10.269-10.256s4.518-10.255 10.269-10.255c5.75 0 10.268 4.512 10.268 10.255zm-266.565 86.965c-6.983 0-12.322 5.743-12.322 12.306 0 6.974 5.339 12.306 12.322 12.306 6.982 0 12.322-5.743 12.322-12.306 0-6.563-5.34-12.306-12.322-12.306zm10.268 12.716c0 5.743-4.518 10.256-10.268 10.256-5.751 0-10.269-4.513-10.269-10.256s4.518-10.255 10.269-10.255c5.75 0 10.268 4.512 10.268 10.255zm223.849-289.608c0 6.974 5.34 12.306 12.322 12.306 6.982 0 12.322-5.743 12.322-12.306 0-6.973-5.34-12.306-12.322-12.306-6.572 0-12.322 5.333-12.322 12.306zm22.59 0c0 5.743-4.518 10.255-10.268 10.255-5.75 0-10.268-4.512-10.268-10.255 0-5.743 4.518-10.255 10.268-10.255 5.75 0 10.268 4.512 10.268 10.255z"/><path opacity=".75" d="M544.22 294.941a3.68 3.68 0 003.697 3.692 3.68 3.68 0 003.697-3.692 3.68 3.68 0 00-3.697-3.692 3.68 3.68 0 00-3.697 3.692zM395.125 529.992a3.68 3.68 0 00-3.697-3.692 3.68 3.68 0 00-3.697 3.692 3.68 3.68 0 003.697 3.692 3.68 3.68 0 003.697-3.692zm117.469-246.947c0 .41 0 1.231.411 1.641l-32.859 33.227v105.424h2.465v-43.072l18.893-19.28v-34.458h-2.464v33.637l-16.84 16.819v-57.84l32.448-32.816c.41.41 1.232.41 1.643.41a3.679 3.679 0 003.696-3.692 3.679 3.679 0 00-3.696-3.692 3.68 3.68 0 00-3.697 3.692zM237.403 597.676c0-.41 0-1.23-.41-1.641l43.948-44.713-1.643-1.64-43.948 44.713c-.411-.411-1.233-.411-1.643-.411a3.68 3.68 0 00-3.697 3.692 3.68 3.68 0 003.697 3.692 3.679 3.679 0 003.696-3.692zm-57.913-45.943h40.663l29.162-29.536h61.609l29.162-29.535-1.642-1.641-28.752 29.125H158.953l-10.679-18.869h-23.001l-10.679 18.869H12.322v2.462h102.272l3.286 6.153H59.556c-.41-1.641-1.643-2.461-3.286-2.461a3.678 3.678 0 00-3.696 3.691 3.679 3.679 0 003.696 3.692c1.643 0 2.875-1.23 3.286-2.461h59.556l6.161 10.666h23.001l10.679-18.87h86.665l-26.698 27.074h-39.43c-.411-1.231-2.054-2.462-3.286-2.462a3.679 3.679 0 00-3.696 3.692 3.679 3.679 0 003.696 3.692c1.232-.41 2.875-1.641 3.286-3.281zm-53.395-12.717l-5.75-10.255v-.41h-.411l-4.107-7.384 10.268-18.049h20.536l10.269 18.049-10.269 18.049h-20.536z"/><path opacity=".75" d="M202.08 502.508l-5.75 3.281 5.34 3.282 5.75 3.282v-6.564l.411-6.563-5.751 3.282zm279.298-333.091l-3.285 5.333-3.286 5.743h6.571l6.161.41-2.875-5.743-3.286-5.743zM357.337 353.601l-3.286 5.333-3.286 5.743h6.572l6.572.41-3.286-5.743-3.286-5.743zm13.554 217.001h-6.161l-6.571-.41 2.875 5.743 3.286 5.743 3.285-5.333 3.286-5.743zm30.805-136.19l5.34 3.692 5.75 3.282v-6.563l.411-6.564-5.75 3.282-5.751 2.871zm-242.332 7.384l-5.75 2.872-5.75 3.282 5.339 3.281 5.75 3.692v-6.563l.411-6.564zM11.5 514.814l-5.75 2.871L0 520.967l5.75 3.282 5.34 3.692v-6.564l.41-6.563zm205.777-5.743l5.751 3.282v-13.127l-5.751 3.282-5.339 3.281 5.339 3.282zm-73.11-1.641h-15.608l-7.804 13.947 7.804 13.947h15.608l7.804-13.947-7.804-13.947zm-15.197 26.664l-7.393-12.717 7.393-12.716h14.786l7.394 12.716-7.394 12.717H128.97zM409.5 361.395l-26.287-.41-13.143 22.972 12.733 22.972v.41h26.286l13.144-22.972-12.733-22.972zm-25.876 44.713l-12.733-22.151 12.733-22.151h25.055l12.732 22.151-12.732 22.151h-25.055zm149.917 56.199h9.447l4.929-8.204-4.929-8.615h-9.447l-4.518 8.615 4.518 8.204zm-201.669-73.428h-6.161l-2.875 4.923 2.875 5.332h6.161l2.875-5.332-2.875-4.923zm121.166-176.8h-8.215l-4.107 6.973 4.107 7.384h8.215l4.107-7.384-4.107-6.973zm-85.022 258.022l-8.214 14.767 8.214 14.768h16.84l8.215-14.768-8.215-14.767h-16.84zm16.43.82l7.803 13.947-7.803 13.948h-15.608l-7.804-13.948 7.804-13.947h15.608zm-45.592-23.792H234.939c-.411-1.641-1.643-2.461-3.286-2.461a3.678 3.678 0 00-3.696 3.692 3.678 3.678 0 003.696 3.692c1.643 0 2.875-1.231 3.286-2.462h103.915v-2.461zm154.436-331.04l-2.876 4.923-2.875 4.922h11.501l-2.875-4.922-2.875-4.923zM346.247 496.354l-87.486 88.606c-.41-.41-1.232-.41-2.053-.41a3.679 3.679 0 00-3.697 3.692 3.678 3.678 0 003.697 3.691 3.678 3.678 0 003.696-3.691c0-.411 0-.821-.41-1.231l66.127-66.864v22.971l-16.84 16.819 1.643 1.641 17.251-17.639v-26.254l19.305-19.279-1.233-2.052zm158.543-91.066h6.572l-3.286-5.743-2.875-5.743-3.697 5.743-3.286 5.743h6.572zm0 15.588l6.572.41-3.286-5.743-2.875-5.743-3.697 5.333-3.286 5.743h6.572zm52.985 113.217l5.75-2.871 5.75-3.282-5.339-3.281-5.751-3.282v6.563l-.41 6.153zm-15.608 0l5.75-2.871 5.75-3.282-5.339-3.281-5.751-3.282v6.563l-.41 6.153z"/><path opacity=".75" d="M492.057 0c-2.464.41-4.518 2.871-4.518 5.333 0 2.871 2.054 4.922 4.518 5.332v63.993l-6.571-6.973V34.868c1.643-.41 2.464-2.051 2.464-3.692a3.679 3.679 0 00-3.697-3.692 3.679 3.679 0 00-3.696 3.692c0 1.64 1.232 2.871 2.464 3.692v34.458l9.036 9.024v23.382l-17.661 31.176h37.787l-17.661-31.176V11.076c2.464-.41 4.518-2.872 4.518-5.333 0-2.872-2.054-4.923-4.518-5.333L492.057 0zm16.019 130.857h-29.983l15.197-26.253 14.786 26.253zm-.821 60.301l1.642 2.051 23.412-19.69v-70.967h-2.053v69.736l-23.001 18.87zM392.66 542.298c6.161-.41 11.09-5.743 11.09-12.306 0-6.974-5.34-12.307-12.322-12.307-6.982 0-12.322 5.743-12.322 12.307 0 6.563 4.929 11.896 11.09 12.306v62.352c-1.232.41-2.465 2.051-2.465 3.282a3.678 3.678 0 003.697 3.691 3.678 3.678 0 003.697-3.691c0-1.641-1.233-3.282-2.465-3.692v-61.942zm-11.09-12.306c0-5.743 4.518-10.256 10.269-10.256 5.75 0 10.268 4.513 10.268 10.256s-4.518 10.255-10.268 10.255c-5.751 0-10.269-4.512-10.269-10.255zm-103.093-69.326h-9.447l-4.929 8.204 4.929 8.615h9.447l4.928-8.615-4.928-8.204zm240.689-257.612l4.518 8.204h9.447l4.929-8.204-4.929-8.204h-9.447l-4.518 8.204zm-85.843 81.222h43.537l-21.769-38.56-21.768 38.56zm21.768-2.051h-18.072l18.072-31.587 18.073 31.587h-18.073zM187.705 448.36l32.858 19.28v-38.15l-32.858 18.87zm4.518 0l25.876-15.178v30.355l-25.876-15.177z"/></g><path opacity=".75" d="M499.861 225.616c4.929 0 9.036 4.102 9.036 9.024 0 4.923-4.107 9.025-9.036 9.025-4.928 0-9.036-4.102-9.036-9.025.411-4.922 4.108-9.024 9.036-9.024zm-29.162 243.665c8.626 0 15.608 6.973 15.608 15.587 0 8.615-6.982 15.588-15.608 15.588-8.625 0-15.607-6.973-15.607-15.588 0-8.614 6.982-15.587 15.607-15.587zM140.06 514.814l3.696 6.563-3.696 6.564h-7.393l-4.108-6.564 4.108-6.563h7.393zM403.75 371.24l7.393 13.127-7.393 13.127h-15.197l-7.393-13.127 7.393-13.127h15.197zm-23.412 107.065l3.697 6.564-3.697 6.563h-7.393l-3.697-6.563 3.697-6.564h7.393zm74.753-214.13l3.286 6.153 3.286 5.743h-13.554l3.697-5.743 3.285-6.153zM203.723 448.36l4.929-2.872 4.929-3.281v11.896l-4.929-2.872-4.929-2.871z"/></g></svg>