<svg width="65" height="136" fill="none" xmlns="http://www.w3.org/2000/svg"><path d="M63.564 122.927c.83.468.83 1.262 0 1.767l-18.828 10.929c-.83.469-2.2.469-3.03 0L.622 111.925c-.83-.469-.83-1.262 0-1.767l18.829-10.966c.83-.468 2.2-.468 3.03 0l41.083 23.735z" fill="#1E1B1C"/><path d="M63.204 106.371v-.938c-.036-.253-.036-.325-.036-.433 0-.072 0-.108-.036-.18-.036-.253-.072-.433-.072-.614-.037-.216-.073-.396-.109-.577-.036-.144-.036-.216-.072-.324-.036-.109-.036-.181-.072-.289-.036-.216-.072-.288-.108-.397 0-.072-.036-.144-.036-.216 0-.036-.036-.108-.036-.144a1.037 1.037 0 01-.073-.325c0-.072-.036-.108-.036-.18s-.036-.109-.036-.181a4.532 4.532 0 01-.108-.36c0-.073-.036-.109-.036-.181 0-.036-.036-.108-.036-.144a1.763 1.763 0 00-.144-.397c-.036-.072-.036-.108-.072-.18-.109-.325-.18-.505-.253-.686-.036-.035-.036-.108-.072-.144-.036-.108-.072-.18-.072-.216a2.507 2.507 0 01-.18-.47c-.037-.071-.037-.107-.073-.18a2.876 2.876 0 01-.18-.396 1.084 1.084 0 00-.144-.289c-.073-.108-.108-.252-.18-.36-.037-.109-.109-.18-.145-.289-.072-.18-.144-.289-.18-.36-.036-.073-.108-.181-.145-.253-.072-.145-.144-.253-.216-.397a.753.753 0 00-.144-.216c-.108-.18-.18-.325-.289-.505-.216-.325-.325-.541-.469-.722-.036-.072-.072-.108-.108-.18-.108-.144-.18-.289-.288-.433-.037-.072-.109-.144-.145-.216-.072-.109-.18-.253-.252-.361-.072-.072-.108-.144-.18-.253-.073-.108-.181-.216-.253-.324a.647.647 0 01-.18-.253c-.073-.072-.109-.144-.18-.252-.145-.144-.217-.253-.29-.325-.072-.108-.18-.18-.252-.288-.072-.072-.144-.18-.216-.253-.072-.072-.108-.144-.18-.18-.145-.145-.181-.217-.217-.253l-.397-.397-.18-.18a5.558 5.558 0 00-.47-.433c-.107-.108-.18-.144-.215-.216-.109-.108-.217-.18-.325-.289-.144-.144-.217-.18-.253-.216-.072-.072-.18-.144-.252-.216-.144-.145-.217-.18-.289-.217-.072-.072-.144-.108-.216-.18-.144-.108-.253-.18-.325-.253a.632.632 0 01-.18-.144 2.908 2.908 0 00-.505-.325c-.18-.108-.325-.216-.469-.288-.108-.072-18.324-10.569-18.324-10.569-.108-.072-.216-.108-.324-.18a2.372 2.372 0 00-.433-.216c-.18-.109-.325-.145-.433-.217-.216-.108-.36-.144-.469-.216-.144-.036-.252-.109-.397-.145a5.947 5.947 0 00-.468-.144 5.947 5.947 0 00-.47-.144l-.432-.108c-.217-.037-.36-.073-.47-.073-.216-.036-.36-.036-.504-.036-.65-.036-.722 0-.794 0-.144 0-.252 0-.324.036-.145 0-.217.036-.289.036a1.21 1.21 0 01-.325.037c-.144.036-.288.072-.396.108-.18.036-.289.072-.397.108-.794.36-.866.397-.902.433L6.61 88.119l.216-.108c.83-.36.938-.397 1.046-.397.18-.036.289-.072.397-.108.108-.036.216-.036.289-.036.144-.036.252-.036.324-.036.145 0 .217-.036.289-.036h.252c.722.036.866.036 1.01.072.217.036.361.036.47.072.18.036.324.072.468.108.144.036.289.072.397.108.18.073.324.109.433.145.216.072.36.108.469.18.144.036.252.108.396.18.217.109.361.145.47.217.18.108.288.144.432.216.18.109.289.145.397.217L32.58 99.445l.541.325c.217.144.397.252.541.361a.633.633 0 01.18.144c.109.072.217.144.325.252.072.072.145.108.217.181.108.072.18.144.288.216.073.072.18.144.253.216.072.073.18.145.252.217.108.108.217.18.325.288l.216.217c.145.144.289.288.47.433l.107.108c.18.18.325.325.433.469a.495.495 0 01.108.144c.109.108.18.217.29.289.071.072.143.144.216.252.072.108.18.181.252.289.072.072.144.18.216.252.073.108.18.217.253.325a.646.646 0 01.18.252c.072.109.18.217.253.325.072.072.108.144.18.252.072.109.18.253.253.361.036.072.108.144.144.217.108.144.18.288.288.432.037.073.073.109.109.181.144.216.252.397.396.613.18.289.289.469.361.613a.772.772 0 00.144.217c.073.144.145.252.217.396.036.072.108.181.144.253.072.108.144.252.18.361.037.108.109.18.145.288.072.108.108.253.18.361.036.108.072.18.144.288.072.145.109.253.18.397.037.072.037.108.073.18.072.145.144.325.18.469.036.036.036.109.072.145a.51.51 0 01.072.216c.073.18.145.397.217.577.036.108.072.217.108.289.036.144.072.252.144.397l.109.324c.036.108.072.217.108.361.036.108.072.216.108.361.036.108.072.216.072.324.036.108.072.253.108.361.036.072.036.18.072.252.037.145.073.289.073.397 0 .072.036.144.036.253.036.18.072.36.108.577.036.252.072.469.108.685 0 .072 0 .108.036.18 0 .145.036.289.036.433v.217c0 .144.036.288.036.433v.793l-.036 10.46 19.767-11.506.036-10.46v-.577z" fill="#F4EEE9"/><path d="M43.401 128.914c-.072-.072-.036-10.532-.036-10.532v-.577c0-.325-.036-.469-.036-.613v-.217c0-.144-.036-.288-.036-.433a7 7 0 00-.108-.793c-.036-.253-.072-.433-.108-.613 0-.072-.036-.109-.036-.181-.036-.216-.073-.324-.109-.469-.036-.072-.036-.18-.072-.252-.036-.144-.072-.253-.108-.397a1.049 1.049 0 01-.072-.324c-.036-.109-.072-.217-.108-.361a4.603 4.603 0 01-.109-.361l-.108-.325a1.751 1.751 0 00-.144-.396c-.036-.108-.072-.217-.108-.289-.072-.18-.145-.397-.217-.577-.072-.216-.144-.397-.144-.397a2.477 2.477 0 01-.18-.469l-.072-.18a1.708 1.708 0 00-.18-.361c-.073-.144-.109-.252-.145-.324-.036-.109-.108-.217-.144-.325-.109-.18-.145-.252-.145-.325-.072-.108-.108-.216-.18-.324-.108-.181-.144-.253-.144-.289-.072-.108-.145-.252-.217-.36-.252-.433-.36-.614-.432-.758-.217-.325-.325-.541-.47-.721-.216-.325-.288-.469-.396-.577-.036-.037-.072-.109-.108-.145a4.18 4.18 0 01-.325-.433c-.036-.036-.072-.108-.108-.144-.145-.216-.217-.324-.325-.397-.036-.072-.108-.108-.144-.18-.145-.18-.217-.289-.289-.361-.072-.072-.108-.144-.18-.18-.144-.144-.216-.253-.289-.361-.072-.072-.144-.144-.18-.216-.108-.144-.216-.217-.289-.325l-.108-.144c-.108-.144-.252-.253-.397-.397-.324-.324-.468-.469-.649-.613-.072-.036-.108-.108-.18-.144a2.572 2.572 0 00-.36-.325c-.073-.072-.181-.144-.253-.216-.109-.073-.18-.145-.253-.217-.108-.072-.18-.144-.288-.216a1.308 1.308 0 01-.217-.181c-.108-.072-.216-.18-.325-.252-.36-.253-.54-.36-.685-.469-.216-.144-.397-.252-.577-.36L14.293 88.984c-.108-.072-.217-.108-.325-.18a2.372 2.372 0 00-.433-.217c-.18-.108-.324-.144-.433-.216-.216-.109-.36-.145-.469-.217-.144-.036-.252-.108-.396-.144-.217-.072-.325-.108-.47-.144-.216-.072-.324-.109-.468-.145a5.872 5.872 0 01-.397-.108c-.216-.036-.324-.072-.469-.072-.216-.036-.36-.036-.469-.036-.649-.036-.721 0-.757 0-.144 0-.253 0-.325.036-.108 0-.216.036-.288.036-.145.036-.253.036-.325.036-.144.036-.252.072-.397.072a4.124 4.124 0 00-.36.109c-.758.324-.83.36-.902.396-.072-.144 19.694-11.614 19.694-11.614l.216-.108c.83-.361.938-.397 1.047-.433a2.76 2.76 0 00.396-.109c.108-.036.217-.036.289-.036.18-.036.252-.036.325-.036.144 0 .216-.036.324-.036h.253c.721.036.865.036 1.01.072.216.036.36.036.505.073.216.036.324.072.468.108l.433.108c.18.072.325.108.433.144.216.073.36.109.469.18.144.037.252.109.397.181.216.108.36.144.469.216.18.109.288.145.432.217.18.108.29.144.397.216l18.324 10.569c.144.072.288.18.433.252.216.145.36.217.505.325l.288.216c.072.036.108.073.18.145.145.108.181.144.253.18.433.325.505.397.577.469.36.325.47.397.577.505.397.36.541.505.686.65l.577.576.216.253c.253.288.325.36.397.433.072.108.18.18.252.288.109.144.18.18.217.253.108.108.144.18.18.216l.108.144c.037.072.109.108.145.18.072.109.144.181.216.29.144.18.18.216.217.288.072.108.144.216.252.324.108.145.144.217.18.253.109.144.18.288.289.433.253.36.36.577.505.793.18.289.288.47.36.614.037.036.037.108.073.144.144.252.216.36.288.505.036.072.072.108.109.18l.108.18.108.217c.072.144.108.18.144.252.108.217.18.325.217.433l.108.217.072.144c.036.072.036.108.072.18l.145.289c.072.144.144.324.18.469l.108.216.289.722c.144.432.18.577.252.685.144.433.18.577.216.685.145.469.145.541.18.649.11.469.145.578.145.65.036.18.072.252.072.324l.036.181c0 .072.036.108.036.18.037.253.073.397.109.577.036.253.072.433.108.613.036.397.036.469.072.541 0 .217.036.289.036.361.036.866.036 1.046.036 1.226l-.036 10.461c-.036.072-19.802 11.542-19.802 11.542-.145.072-.145.108-.18.108zM9.351 87.326c.685.036.83.036.974.072.216.036.36.036.505.072.216.036.325.072.469.108l.433.108c.18.072.324.109.433.145.216.072.36.108.469.18.144.036.252.108.396.18.217.109.361.145.47.217.18.108.288.144.432.216.18.108.289.145.397.217l18.215 10.532c.18.108.325.216.541.325.217.144.36.252.577.36.289.217.397.289.505.361a.632.632 0 01.18.144c.145.109.253.181.361.289a.954.954 0 00.217.18c.108.072.18.181.288.253.109.108.217.18.325.288.108.109.18.145.216.217.145.144.289.288.47.433l.576.577.109.144c.108.108.18.216.288.289.072.108.145.18.217.252.072.108.18.18.252.289.108.108.144.18.217.252.072.108.18.217.252.289.108.144.144.18.216.252.073.108.145.181.217.289.144.18.18.216.216.288.072.108.145.217.253.325.108.18.144.216.18.252.108.145.18.289.289.433.252.361.36.577.505.794.18.288.288.469.36.613.036.036.036.108.072.144.145.253.217.361.29.505.035.072.071.108.107.181.145.252.18.36.253.468l.108.217c.108.252.18.325.216.433l.109.216c.108.217.144.325.216.433l.072.18c.072.145.144.325.18.469l.073.145c.18.432.252.613.288.793.036.108.072.217.108.289.036.144.073.252.145.396l.108.325c.036.108.072.216.108.361.036.108.072.216.108.36.036.109.072.217.072.325.037.144.073.253.109.397.036.108.036.18.072.252.036.145.072.289.072.397.036.144.036.18.036.253.036.18.072.396.108.577.036.252.072.469.108.685.036.325.036.469.073.613v.217c0 .144.036.288.036.432 0 .433.036.614.036.794l-.036 10.316 19.622-11.398.036-10.424v-.505c-.036-.794-.036-.866-.072-.902 0-.216-.036-.289-.036-.361l-.036-.324c-.036-.181-.036-.361-.073-.541a7.023 7.023 0 00-.108-.541c-.036-.145-.036-.181-.036-.253l-.036-.18c0-.072-.036-.109-.036-.181-.036-.216-.072-.288-.072-.36-.144-.505-.144-.614-.18-.722-.145-.469-.18-.577-.217-.685-.144-.469-.18-.577-.252-.721a21.08 21.08 0 00-.325-.866c-.072-.144-.144-.397-.144-.397a2.505 2.505 0 01-.18-.469l-.145-.288c-.036-.037-.036-.109-.072-.145l-.072-.144-.108-.216c-.037-.109-.109-.217-.145-.325-.108-.18-.144-.252-.144-.325a374.36 374.36 0 00-.144-.288l-.108-.18c-.037-.073-.073-.109-.109-.18-.072-.11-.144-.253-.216-.362-.253-.432-.325-.577-.433-.757-.216-.325-.325-.541-.469-.722-.216-.324-.288-.468-.397-.577-.036-.036-.072-.108-.108-.144-.144-.216-.252-.325-.325-.433-.036-.036-.072-.108-.108-.144a2.358 2.358 0 00-.324-.397c-.036-.072-.108-.108-.145-.18l-.108-.144c-.036-.037-.072-.109-.108-.145-.108-.144-.18-.216-.216-.288a2.08 2.08 0 01-.289-.36c-.072-.073-.108-.145-.18-.217-.217-.217-.433-.47-.433-.47-.108-.144-.253-.252-.397-.396-.325-.325-.469-.469-.65-.613-.324-.289-.432-.397-.54-.47-.361-.288-.433-.36-.505-.432-.397-.325-.47-.36-.505-.397-.145-.108-.18-.144-.253-.18l-.144-.108a11.46 11.46 0 01-.613-.433c-.18-.108-.325-.217-.47-.289-.107-.072-18.323-10.568-18.323-10.568-.108-.072-.216-.108-.324-.18a2.373 2.373 0 00-.433-.217c-.18-.108-.325-.144-.433-.216-.216-.109-.36-.145-.469-.217-.144-.036-.252-.108-.397-.144a5.947 5.947 0 00-.469-.144c-.216-.072-.324-.109-.468-.145-.145-.036-.29-.072-.397-.108-.217-.036-.325-.072-.47-.072-.216-.036-.36-.036-.468-.036-.65-.036-.721 0-.758 0-.144 0-.252 0-.324.036-.108 0-.217.036-.289.036-.144.036-.252.036-.324.036-.145.036-.253.072-.397.072a4.02 4.02 0 00-.36.109c-.758.324-.83.36-.903.396L7.836 87.65c.253-.072.36-.108.47-.108.107-.036.216-.036.288-.036.18-.036.252-.036.324-.036.145 0 .217-.036.325-.036-.072-.108 0-.108.108-.108 0 0-.036 0 0 0z" fill="#231F20"/><path d="M32.508 99.445L14.293 88.913c-6.06-3.499-10.966-.685-11.002 6.276l-.036 10.46 40.146 23.157.036-10.46c.036-6.961-4.87-15.402-10.929-18.9z" fill="#F4EEE9"/><path d="M43.401 128.915c-.036-.036-40.182-23.193-40.182-23.193-.036-.072 0-10.533 0-10.533 0-3.39 1.154-5.915 3.247-7.105 2.092-1.227 4.905-.938 7.863.757l18.215 10.532c6.06 3.499 11.002 12.012 10.965 19.009l-.036 10.461c-.036.036-.036.072-.072.072zM3.363 105.613l39.966 23.085.036-10.316c.036-6.925-4.87-15.366-10.893-18.864L14.257 88.985c-2.922-1.695-5.663-1.948-7.683-.757C4.518 89.418 3.4 91.87 3.4 95.189l-.036 10.424zM40.66 84.62c3.896 2.273 3.932 5.916.036 8.188-3.895 2.273-10.208 2.273-14.103 0-3.896-2.272-3.932-5.915-.036-8.188 3.86-2.272 10.171-2.272 14.103 0z" fill="#231F20"/><path d="M44.592 81.77c0 1.913-.505 3.716-1.335 5.267-1.876 3.39-5.483 5.7-9.63 5.7-6.06 0-11.002-4.906-11.002-11.002 0-6.06 4.905-11.002 11.001-11.002 3.932 0 7.359 2.056 9.306 5.158 1.046 1.732 1.66 3.716 1.66 5.88z" fill="#F4EEE9"/><path d="M33.59 92.844c-6.096 0-11.073-4.977-11.073-11.073s4.977-11.074 11.073-11.074c3.824 0 7.322 1.948 9.378 5.194a10.937 10.937 0 011.696 5.88c0 1.875-.47 3.715-1.37 5.302-1.913 3.571-5.664 5.771-9.704 5.771zm0-21.966c-5.987 0-10.893 4.87-10.893 10.893 0 6.023 4.906 10.893 10.893 10.893A10.9 10.9 0 0043.15 87a10.945 10.945 0 001.334-5.23 10.98 10.98 0 00-1.659-5.808c-1.984-3.174-5.446-5.085-9.234-5.085z" fill="#231F20"/><path d="M44.592 81.77a11.18 11.18 0 01-1.335 5.267c-2.308-5.23-14.176-4.509-14.176-4.509l-1.334-3.174 15.185-3.427a11.052 11.052 0 011.66 5.844z" fill="#231F20"/><path d="M43.257 87.11c-2.308-5.16-14.067-4.51-14.176-4.51-.072-.036-1.442-3.246-1.442-3.246.072-.108 15.257-3.535 15.257-3.535a10.617 10.617 0 011.768 5.916c0 1.876-.47 3.715-1.371 5.302 0 .072-.036.072-.036.072zm-12.66-4.69c3.282 0 10.712.47 12.66 4.437a10.838 10.838 0 001.262-5.086c0-2.056-.577-4.04-1.623-5.735l-15.04 3.39 1.298 3.066c.144-.036.685-.072 1.442-.072z" fill="#231F20"/><path d="M59.452 58.975c-.216 5.879-2.705 11.29-6.745 15.365-1.118 1.119-2.344 2.165-3.715 3.066a25.6 25.6 0 01-8.837 3.824c-5.374 1.226-9.667 1.55-13.094 1.118-8.224-1.046-11.65-6.529-13.31-14.825-.324-1.623-.576-3.39-.793-5.23-.036-.433-.072-.83-.108-1.262-.505-7.034 1.731-13.743 6.024-18.613a21.945 21.945 0 016.023-4.869c.47-.252.974-.505 1.48-.758.793-.36 1.586-.685 2.452-.937 1.01-.325 2.02-.578 3.102-.758 9.775-1.767 19.19 2.814 24.095 10.785.108.144.18.289.288.469.145.252.289.469.397.721a22.783 22.783 0 012.417 6.962c.072.36.108.721.18 1.082.108 1.299.18 2.561.144 3.86z" fill="#F4EEE9"/><path d="M30.163 82.636a28.89 28.89 0 01-3.138-.18c-3.967-.505-6.961-2.056-9.161-4.725-1.948-2.38-3.319-5.591-4.22-10.136-.325-1.55-.578-3.282-.794-5.23-.036-.433-.072-.83-.108-1.262-.505-6.926 1.695-13.743 6.023-18.685a22.652 22.652 0 016.06-4.905c.47-.253.974-.505 1.479-.758.794-.36 1.623-.685 2.453-.938a30.04 30.04 0 013.102-.793 23.383 23.383 0 0113.923 1.731 23.607 23.607 0 0110.28 9.054c.108.144.18.288.288.469.145.252.289.505.397.721 1.19 2.164 1.984 4.545 2.453 6.998.072.36.108.721.18 1.082.18 1.298.217 2.597.18 3.895-.216 5.736-2.596 11.218-6.78 15.402a28.224 28.224 0 01-3.716 3.102c-2.669 1.804-5.663 3.102-8.873 3.86-3.86.866-7.142 1.298-10.028 1.298zm5.916-47.865c-1.407 0-2.777.109-4.184.361-1.046.18-2.092.433-3.066.758-.83.252-1.66.577-2.417.937-.505.217-1.01.47-1.479.758a22.359 22.359 0 00-6.023 4.87c-4.293 4.905-6.493 11.686-5.988 18.575.036.397.072.83.108 1.227.217 1.984.505 3.679.794 5.23 1.912 9.378 5.843 13.779 13.237 14.753 3.535.469 7.792.108 13.058-1.119a25.632 25.632 0 008.8-3.823 25.142 25.142 0 003.68-3.066c4.112-4.184 6.529-9.595 6.71-15.294.035-1.262 0-2.56-.181-3.86-.036-.36-.108-.72-.18-1.081a23.465 23.465 0 00-2.417-6.962 15.838 15.838 0 01-.397-.721c-.072-.144-.18-.289-.289-.47A23.123 23.123 0 0036.08 34.772z" fill="#231F20"/><path d="M55.954 45.845c-.47 1.407-1.912 4.581-5.916 4.87a4.07 4.07 0 01-.938 0c-6.023-.253-22.11-7.936-24.022-10.064-.65-.757-.613-1.912-.217-3.102.47-.252.974-.505 1.48-.757.793-.361 1.586-.686 2.452-.938a21.68 21.68 0 013.102-.758c9.739-1.767 19.153 2.778 24.059 10.75z" fill="#231F20"/><path d="M49.461 50.823h-.36c-5.952-.253-22.148-7.936-24.06-10.1-.613-.685-.685-1.767-.252-3.174.505-.289 1.01-.541 1.515-.794a20.19 20.19 0 012.453-.938 30.04 30.04 0 013.102-.793 23.383 23.383 0 0113.923 1.731 23.607 23.607 0 0110.28 9.054c-.433 1.443-1.912 4.689-5.988 4.977-.216 0-.397.037-.613.037zM24.933 37.62c-.432 1.37-.36 2.38.217 2.994 1.912 2.128 18.035 9.81 23.95 10.027h.938c3.968-.288 5.41-3.39 5.844-4.761-5.086-8.224-14.5-12.408-23.987-10.713-1.046.18-2.092.433-3.066.758-.83.252-1.66.577-2.417.938-.54.252-1.01.505-1.479.757z" fill="#231F20"/><path d="M25.907 41.444c-.144-.18-.216-.433-.252-.793-.18-1.768.938-3.39 2.597-3.968.072-.036.108-.036.18-.072a21.68 21.68 0 013.102-.758c9.775-1.767 19.19 2.814 24.095 10.785l-29.722-5.194z" fill="#231F20"/><path d="M55.593 46.71c-5.158-8.26-14.572-12.48-24.095-10.785-1.046.18-2.092.433-3.066.758l-.18.036c-1.66.541-2.741 2.164-2.561 3.86.036.36.108.613.252.757-.252-.072-.36-.36-.396-.721-.18-1.768.937-3.463 2.669-4.04l.18-.073a30.065 30.065 0 013.102-.793 23.384 23.384 0 0113.923 1.731 23.607 23.607 0 0110.28 9.054c-.072.216-.108.216-.108.216z" fill="#C92727"/><path d="M29.911 42.528l1.118-.65.938-.108-1.118.65-.938.108z" fill="#F4EEE9"/><path d="M29.911 42.6c-.036-.145 1.082-.794 1.082-.794.036 0 .938-.108.938-.108.036.144-1.082.793-1.082.793l-.938.108zm1.154-.65l-.757.433.54-.072.758-.433-.54.072z" fill="#231F20"/><path d="M31.426 42.743l1.082-.649v3.138l-1.118.65.036-3.139z" fill="#F4EEE9"/><path d="M31.39 45.954c-.072-.072-.072-3.21-.072-3.21.036-.073 1.154-.722 1.154-.722.108.072.108 3.21.108 3.21-.036.072-1.154.722-1.154.722h-.036zm.108-3.175v2.958l.974-.54v-2.959l-.974.541z" fill="#231F20"/><path d="M30.849 42.42l1.118-.65.541.325-1.082.649-.577-.325z" fill="#F4EEE9"/><path d="M31.426 42.816c-.036 0-.613-.325-.613-.325 0-.144 1.118-.793 1.118-.793.072 0 .65.324.65.324 0 .145-1.119.794-1.119.794h-.036zm-.433-.397l.397.253.974-.541-.397-.253-.974.541z" fill="#231F20"/><path d="M31.426 42.744l-.036 3.138-.613-.361v-2.417l-.577.072-.289-.649.938-.108.577.325z" fill="#F4EEE9"/><path d="M31.39 45.954c-.036 0-.65-.361-.65-.361-.035-.072-.035-2.417-.035-2.417l-.505.072c-.072-.036-.361-.685-.361-.685.072-.108.974-.216.974-.216.036 0 .613.324.613.324.036.072.036 3.21.036 3.21-.036.073-.036.073-.072.073zm-.541-.47l.469.253V42.78l-.505-.288-.794.108.217.505.54-.072c.073.072.073 2.453.073 2.453z" fill="#231F20"/><path d="M32.977 39.136c-.036-.289-.036-.325-.036-.397-.325-1.01-.36-1.046-.397-1.118a.497.497 0 00-.108-.145c-1.19-.54-2.309.109-2.309.109.974.324.47.613.47.613-.181.794-.181.83-.181.902v.432c.18.686.18.722.216.758.361.18 1.19-.325 1.19-.325 0 .253 0 .289-.035.361 0 .072 0 .108-.036.144 0 .072-.037.108-.037.145-.288.396.83-.253.83-.253.36-1.046.36-1.082.36-1.118.073-.036.073-.072.073-.108zm-1.407-.65c.072.109.072.145.072.217.037.072.037.108.073.144.036.072.036.108.036.18 0 .073.036.109.036.145 0 .072.036.108.036.18s0 .144.036.18v.18c-.289-.865-.289-.937-.289-.973v-.252z" fill="#F4EEE9"/><path d="M31.498 41.156c.253-.722.253-.758.253-.83v-.18c0-.036-.686.36-.686.36-.108.036-.18.036-.18.036a.394.394 0 01-.144-.072c-.145-.144-.18-.18-.217-.252-.072-.18-.072-.253-.072-.253-.072-.505-.072-.577-.072-.613v-.432l.036-.361c.18-.433.613-.686.613-.686-.866-.36.253-1.01.253-1.01 1.334.614 1.37.65 1.37.686a.785.785 0 00.109.18c.324 1.118.324 1.37.324 1.37v.325c-.397 1.046-1.515 1.696-1.515 1.696-.072 0-.072.036-.072.036zm.397-.794c0 .072 0 .108-.036.18 0 .073-.036.109-.036.18-.036.109.721-.324.721-.324.325-.974.325-1.01.325-1.082v-.397c-.036-.252-.036-.288-.036-.324-.289-.794-.289-.83-.325-.866l-1.118-.685c-.036.036-.83.469-.83.469.65.505.145.793.145.793-.109.433-.145.65-.145.65v.575c.433.866 1.263.397 1.263.397.072.289.072.36.072.433zm-.036-.577l-.217-.216c-.144-.758-.144-.794-.144-.866v-.217c.253.253.289.289.289.325.036.072.036.108.036.18 0 .073.036.109.036.18 0 .073.036.109.036.181s0 .144.036.18v.18l-.072.073zm-.18-.685c.036.18.036.144.036.108 0-.072-.037-.108-.037-.144-.108.036 0 .036 0 .036z" fill="#231F20"/><path d="M30.813 37.693c-.685-.397-1.046 0-1.046 1.046s.36 1.84 1.046 2.236c.685.397 1.046 0 1.046-1.046s-.36-1.84-1.046-2.236zm0 2.741c-.253-.144-.36-.468-.36-1.334 0-.83.107-1.046.396-.866.252.144.36.47.36 1.299-.035.865-.144 1.046-.396.901z" fill="#F4EEE9"/><path d="M31.246 41.192a.986.986 0 01-.505-.145c-.686-.396-1.082-1.226-1.082-2.308 0-.65.144-1.046.396-1.19.18-.108.47-.072.758.108.685.397 1.082 1.226 1.082 2.308 0 .65-.144 1.046-.397 1.227h-.252zm-.902-3.571c-.072 0-.144 0-.18.036-.217.108-.325.505-.325 1.082 0 1.046.36 1.803.974 2.164.252.145.433.18.577.108.216-.108.325-.505.325-1.082 0-1.01-.361-1.803-.974-2.164a.543.543 0 00-.397-.144zm.613 2.921a.275.275 0 01-.18-.072c-.325-.18-.433-.54-.397-1.406 0-.614.072-.902.216-.974.109-.072.253 0 .289.036.325.18.433.54.397 1.37 0 .614-.072.902-.217.974-.036.072-.072.072-.108.072zm-.108-.18c.18 0 .252-.18.252-.83 0-.865-.108-1.118-.324-1.262-.18 0-.253.18-.253.794 0 .937.108 1.154.325 1.298z" fill="#231F20"/><path d="M29.947 33.22l1.118-.649.902-.108-1.082.65-.938.107z" fill="#F4EEE9"/><path d="M29.947 33.292c-.036-.144 1.082-.793 1.082-.793.036 0 .938-.108.938-.108.036.144-1.082.793-1.082.793l-.938.108zm1.154-.649l-.757.433.54-.072.758-.433-.54.072z" fill="#231F20"/><path d="M31.426 33.437l1.118-.649v3.138l-1.118.65v-3.139z" fill="#F4EEE9"/><path d="M31.426 36.684c-.072-.073-.072-3.21-.072-3.21.036-.073 1.154-.722 1.154-.722.108.072.108 3.21.108 3.21-.036.072-1.154.722-1.154.722h-.036zm.072-3.175v2.958l.974-.54v-2.959l-.974.541z" fill="#231F20"/><path d="M30.885 33.112l1.082-.65.577.325-1.118.65-.541-.325z" fill="#F4EEE9"/><path d="M31.426 33.509c-.036 0-.613-.325-.613-.325 0-.144 1.118-.793 1.118-.793.072 0 .65.324.65.324 0 .144-1.119.794-1.119.794h-.036zm-.397-.397l.397.252.974-.54-.397-.253-.974.541z" fill="#231F20"/><path d="M31.426 33.437v3.138l-.613-.36v-2.417l-.577.072-.289-.65.938-.108.541.325z" fill="#F4EEE9"/><path d="M31.426 36.683c-.036 0-.65-.36-.65-.36-.035-.073-.035-2.417-.035-2.417l-.505.072c-.073-.036-.361-.685-.361-.685.072-.109.974-.217.974-.217.036 0 .613.325.613.325.036.072.036 3.21.036 3.21-.036.072-.072.072-.072.072zm-.541-.505l.469.253v-2.958l-.505-.289-.794.109.217.505.54-.073c.073.073.073 2.453.073 2.453z" fill="#231F20"/><path d="M32.977 29.83c-.036-.289-.036-.325-.036-.397-.325-1.01-.36-1.046-.397-1.118a.494.494 0 00-.108-.145c-1.19-.54-2.309.109-2.309.109.974.324.47.613.47.613-.181.793-.181.83-.181.902v.432c.18.686.18.722.216.758.361.18 1.19-.325 1.19-.325 0 .253 0 .289-.035.36 0 .073 0 .11-.036.145 0 .072-.037.108-.037.144-.288.397.83-.252.83-.252.36-1.046.36-1.082.36-1.118.073-.036.073-.072.073-.108zm-1.407-.65c.072.108.072.145.072.217.037.072.037.108.073.144.036.072.036.108.036.18 0 .073.036.109.036.145 0 .072.036.108.036.18s0 .144.036.18v.18c-.289-.865-.289-.937-.289-.973v-.253z" fill="#F4EEE9"/><path d="M31.498 31.85c.253-.866.289-.938.289-.974 0-.036-.686.36-.686.36-.252 0-.288-.036-.288-.036-.217-.18-.253-.216-.253-.288-.072-.217-.108-.253-.108-.253-.072-.505-.072-.54-.072-.613v-.722c.18-.504.613-.72.613-.72-.865-.361.253-1.01.253-1.01 1.334.612 1.37.648 1.37.685.036.072.072.144.108.18.325 1.118.325 1.37.325 1.37v.325c-.397 1.046-1.515 1.695-1.515 1.695h-.036zm.36-1.263c.073.325.073.397.073.433 0 .072 0 .108-.036.18 0 .072-.036.108-.036.18-.036.109.721-.324.721-.324.325-1.226.325-1.443.325-1.443-.036-.252-.036-.288-.036-.324-.289-.794-.289-.83-.325-.866-.18-.216-.144-.289-.144-.289-.974-.396-.974-.396-1.01-.396-.072.036-.83.468-.83.468.65.505.145.794.145.794-.109.433-.145.65-.145.65v.396c.433 1.082.433 1.154.433 1.154 0-.072.83-.577.83-.577l.036-.036zm0-.108l-.216-.217c-.144-.757-.144-.793-.144-.865v-.217c.253.253.289.289.289.325.036.072.036.108.036.18 0 .073.036.109.036.18 0 .073.036.109.036.181s0 .144.036.18v.18c-.036.073-.036.073-.072.073z" fill="#231F20"/><path d="M30.849 28.387c-.685-.397-1.046 0-1.046 1.046s.36 1.84 1.046 2.236c.685.397 1.046 0 1.046-1.046-.036-1.046-.36-1.84-1.046-2.236zm0 2.741c-.253-.144-.36-.469-.36-1.334 0-.83.107-1.046.396-.866.252.144.36.469.36 1.299-.035.865-.144 1.046-.396.901z" fill="#F4EEE9"/><path d="M31.282 31.886a.987.987 0 01-.505-.145c-.686-.396-1.082-1.226-1.082-2.308 0-.65.144-1.046.396-1.19.18-.109.47-.073.758.108.685.396 1.082 1.226 1.082 2.308 0 .65-.144 1.046-.397 1.227h-.252zm-.902-3.571c-.072 0-.144 0-.18.036-.217.108-.325.505-.325 1.082 0 1.046.36 1.803.974 2.164.252.144.433.18.577.108.216-.108.325-.505.325-1.082 0-1.01-.361-1.803-.974-2.164a.671.671 0 00-.397-.144zm.613 2.921a.275.275 0 01-.18-.072c-.325-.18-.433-.54-.397-1.407 0-.613.072-.901.216-.973.109-.073.253 0 .289.036.325.18.433.54.397 1.37 0 .613-.072.902-.217.974-.036.072-.072.072-.108.072zm-.288-2.272c-.072.036-.145.216-.145.83 0 .865.109 1.118.325 1.262.18 0 .252-.18.252-.83 0-.865-.108-1.118-.324-1.262h-.108z" fill="#231F20"/><path d="M29.983 23.914l1.118-.65.902-.107-1.118.649-.902.108z" fill="#F4EEE9"/><path d="M29.983 24.022c-.036-.144 1.082-.793 1.082-.793.036 0 .938-.108.938-.108.036.144-1.082.793-1.082.793l-.938.108zm1.118-.685l-.757.469.54-.072.758-.433-.54.036z" fill="#231F20"/><path d="M31.462 24.131l1.118-.65v3.175l-1.118.65V24.13z" fill="#F4EEE9"/><path d="M31.462 27.377c-.072-.072-.072-3.21-.072-3.21.036-.072 1.154-.721 1.154-.721.108.072.108 3.21.108 3.21-.036.072-1.154.721-1.154.721h-.036zm.072-3.174v2.958l.974-.541v-2.958l-.974.541z" fill="#231F20"/><path d="M30.885 23.806l1.118-.65.577.325-1.118.65-.577-.325z" fill="#F4EEE9"/><path d="M31.462 24.239c-.036 0-.613-.325-.613-.325 0-.144 1.118-.793 1.118-.793.072 0 .65.324.65.324 0 .145-1.119.794-1.119.794h-.036zm-.397-.433l.397.252.974-.54-.397-.253-.974.54z" fill="#231F20"/><path d="M31.462 24.13v3.175l-.65-.36.037-2.454-.613.073-.253-.65.902-.108.577.325z" fill="#F4EEE9"/><path d="M31.462 27.377c-.036 0-.65-.36-.65-.36-.035-.073-.035-2.417-.035-2.417l-.505.036c-.072-.036-.361-.686-.361-.686.072-.108.974-.216.974-.216.036 0 .613.324.613.324.036.073.036 3.21.036 3.21-.036.109-.072.109-.072.109zm-.541-.505l.469.253v-2.958l-.505-.289-.794.108.217.505.54-.072c.073.072.073 2.453.073 2.453z" fill="#231F20"/><path d="M33.013 20.524c-.036-.289-.036-.325-.036-.397-.325-1.01-.36-1.046-.397-1.118a.497.497 0 00-.108-.144c-1.19-.541-2.308.108-2.308.108.973.325.468.613.468.613-.18.794-.18.83-.18.902v.432c.18.686.18.722.217.758.36.18 1.19-.325 1.19-.325 0 .325-.036.433-.036.505 0 .073-.036.109-.036.145-.289.397.83-.253.83-.253.36-1.046.36-1.082.36-1.118.036 0 .036-.072.036-.108zm-1.407-.65c.109.253.145.325.145.361.036.073.036.109.036.18 0 .073.036.109.036.181s.036.108.036.18c0 .073 0 .145.036.18v.181c-.289-.866-.289-.938-.289-.974v-.288z" fill="#F4EEE9"/><path d="M31.534 22.544c.253-.758.253-.866.289-.974 0-.036-.686.36-.686.36a.62.62 0 01-.324-.072c-.18-.144-.18-.216-.217-.252-.144-.757-.144-.794-.144-.866v-.721c.18-.505.613-.721.613-.721-.865-.361.253-1.01.253-1.01 1.334.613 1.37.649 1.37.685a.785.785 0 00.109.18c.324 1.118.324 1.37.324 1.37v.326c-.397 1.046-1.515 1.695-1.515 1.695h-.072zm.36-1.263c.073.397.037.505.037.614 0 .072-.036.108-.036.18-.036.108.721-.325.721-.325.325-1.262.325-1.442.325-1.442-.217-.866-.217-.902-.217-.938-.072-.18-.108-.217-.144-.289l-1.118-.685c-.072.036-.83.469-.83.469.65.505.145.793.145.793-.145.144-.145.18-.145.18-.036.29-.036.47-.036.47v.576c.433.866 1.263.397 1.263.397 0 .037.036 0 .036 0zm0-.108c-.143-.144-.18-.18-.18-.216-.144-.758-.144-.794-.144-.866v-.216c.253.252.289.288.289.324a.325.325 0 01.036.18c0 .073.036.109.036.181s.036.108.036.18c0 .073 0 .145.036.18v.181c-.072.072-.108.072-.108.072zm-.18-.685c.073.18.037.144.037.108 0-.072-.036-.108-.036-.144-.073.072 0 .036 0 .036z" fill="#231F20"/><path d="M30.885 19.081c-.685-.396-1.046 0-1.046 1.046s.36 1.84 1.046 2.237c.685.396 1.046 0 1.046-1.046-.036-1.046-.397-1.84-1.046-2.237zm-.036 2.742c-.253-.145-.36-.47-.36-1.335 0-.83.107-1.046.396-.866.252.145.36.47.36 1.299 0 .866-.108 1.046-.396.902z" fill="#F4EEE9"/><path d="M31.318 22.58a.987.987 0 01-.505-.144c-.685-.397-1.082-1.227-1.082-2.309 0-.65.144-1.046.396-1.19.18-.108.47-.072.758.108.685.397 1.082 1.226 1.082 2.308 0 .65-.144 1.047-.397 1.227h-.252zm-.902-3.571c-.072 0-.144 0-.18.036-.217.108-.325.505-.325 1.082 0 1.046.36 1.804.974 2.164.252.145.433.18.577.109.216-.109.325-.505.325-1.082 0-1.01-.361-1.804-.974-2.165a.672.672 0 00-.397-.144zm.577 2.958a.275.275 0 01-.18-.072c-.325-.18-.433-.541-.397-1.407 0-.613.072-.902.216-.974.109-.072.253 0 .289.036.325.18.433.541.397 1.37 0 .614-.072.902-.217.975-.036.036-.072.072-.108.072zm-.252-2.309c-.072.036-.145.217-.145.83 0 .866.109 1.118.325 1.262.18 0 .253-.18.253-.83 0-.865-.109-1.118-.325-1.262h-.108z" fill="#231F20"/><path d="M34.636 38.055l1.118-.65.938-.108-1.118.65-.938.108z" fill="#F4EEE9"/><path d="M34.636 38.127c-.036-.144 1.082-.794 1.082-.794.036 0 .938-.108.938-.108.036.144-1.082.794-1.082.794s-.902.108-.938.108c.036 0 0 0 0 0zm1.154-.65l-.757.433.541-.072.758-.433-.541.073z" fill="#231F20"/><path d="M36.151 38.27l1.118-.648-.036 3.138-1.118.649.036-3.138z" fill="#F4EEE9"/><path d="M36.115 41.481c-.072-.072-.072-3.21-.072-3.21.036-.072 1.154-.722 1.154-.722.108.072.108 3.21.108 3.21-.036.073-1.154.722-1.154.722h-.036zm.108-3.174v2.957l.974-.54v-2.958l-.974.54z" fill="#231F20"/><path d="M35.574 37.947l1.118-.65.577.325-1.118.65-.577-.325z" fill="#F4EEE9"/><path d="M36.151 38.343c-.036 0-.613-.324-.613-.324 0-.145 1.118-.794 1.118-.794.072 0 .65.325.65.325 0 .144-1.119.793-1.119.793h-.036zm-.433-.397l.397.253.974-.541-.397-.253-.974.541z" fill="#231F20"/><path d="M36.151 38.27l-.036 3.139-.613-.36v-2.417l-.577.072-.289-.65.938-.108.577.325z" fill="#F4EEE9"/><path d="M36.115 41.481c-.036 0-.65-.36-.65-.36-.035-.073-.035-2.417-.035-2.417l-.505.072c-.072-.036-.36-.686-.36-.686.071-.108.973-.216.973-.216.036 0 .613.325.613.325.036.072.036 3.21.036 3.21-.036.072-.036.072-.072.072zm-.54-.469l.468.253v-2.958l-.505-.289-.793.108.216.47.54-.073c.11.108.073 2.49.073 2.49z" fill="#231F20"/><path d="M37.702 34.627c-.036-.288-.036-.324-.036-.396-.324-1.01-.36-1.046-.397-1.119a.5.5 0 00-.108-.144c-1.19-.54-2.308.108-2.308.108.974.325.469.614.469.614-.18.793-.18.83-.18.901v.433c.18.685.18.722.216.758.36.18 1.19-.325 1.19-.325 0 .252 0 .289-.036.36 0 .073 0 .109-.036.145 0 .072-.036.108-.036.144-.289.397.83-.252.83-.252.36-1.046.36-1.082.36-1.118.072 0 .072-.036.072-.109zm-1.407-.613c.036.108.073.144.073.217.036.072.036.108.072.144.036.072.036.108.036.18s.036.108.036.145c0 .072.036.108.036.18s0 .144.036.18v.18c-.289-.865-.289-.937-.289-.973v-.253z" fill="#F4EEE9"/><path d="M36.223 36.647c.253-.721.253-.757.253-.83v-.18c0-.036-.685.361-.685.361-.109.036-.18.036-.18.036-.325-.252-.362-.288-.362-.324-.144-.758-.144-.794-.144-.866v-.721c.18-.505.613-.722.613-.722-.865-.36.253-1.01.253-1.01 1.334.613 1.37.65 1.37.685.037.073.073.145.109.18.324 1.119.324 1.371.324 1.371v.325c-.396 1.046-1.515 1.695-1.515 1.695h-.036zm.361-1.226c.072.325.072.397.072.433 0 .072 0 .108-.036.18 0 .072-.036.108-.036.18-.036.109.721-.324.721-.324.325-1.227.325-1.443.325-1.443-.325-1.118-.36-1.154-.397-1.226l-1.118-.686c-.036.037-.83.47-.83.47.65.504.145.793.145.793-.108.433-.145.65-.145.65v.575c.433.866 1.263.397 1.263.397h.036zm0-.108l-.216-.217c-.145-.757-.145-.793-.145-.865v-.217c.253.253.289.289.289.325.036.072.036.108.036.18s.036.108.036.18c0 .073.036.109.036.18 0 .073 0 .145.036.181v.18l-.072.073zm-.18-.686c.072.18.036.145.036.109 0-.072-.036-.108-.036-.145-.073.036 0 .036 0 .036z" fill="#231F20"/><path d="M35.538 33.185c-.685-.397-1.046 0-1.046 1.046s.36 1.84 1.046 2.236c.685.397 1.046 0 1.046-1.046s-.36-1.84-1.046-2.236zm0 2.741c-.252-.144-.36-.469-.36-1.334 0-.83.108-1.047.396-.866.253.144.36.469.36 1.298 0 .866-.143 1.082-.396.902z" fill="#F4EEE9"/><path d="M36.007 36.72a.987.987 0 01-.505-.145c-.685-.397-1.082-1.226-1.082-2.308 0-.65.144-1.046.397-1.19.18-.109.468-.073.757.108.685.396 1.082 1.226 1.082 2.308 0 .65-.144 1.046-.397 1.227-.072-.036-.18 0-.252 0zm-.902-3.607c-.072 0-.144 0-.18.036-.217.108-.325.505-.325 1.082 0 1.046.36 1.803.974 2.164.253.144.433.18.577.108.217-.108.325-.505.325-1.082 0-1.01-.36-1.803-.974-2.164-.144-.072-.289-.144-.397-.144zm.577 2.957a.276.276 0 01-.18-.072c-.325-.18-.433-.54-.397-1.407 0-.613.072-.901.217-.974.108-.072.252 0 .288.037.325.18.433.54.397 1.37 0 .614-.072.902-.216.974-.037.072-.073.072-.109.072zm-.108-.216c.18 0 .253-.18.253-.83 0-.865-.109-1.118-.325-1.262-.18 0-.253.18-.253.793 0 .938.109 1.19.325 1.299z" fill="#231F20"/><path d="M34.672 28.749l1.119-.65.937-.108-1.118.65-.938.108z" fill="#F4EEE9"/><path d="M34.672 28.82c-.036-.144 1.082-.793 1.082-.793.037 0 .938-.108.938-.108.036.144-1.082.793-1.082.793l-.938.109zm1.155-.649l-.758.433.541-.072.758-.433-.541.072z" fill="#231F20"/><path d="M36.151 28.965l1.118-.65v3.138l-1.118.65v-3.138z" fill="#F4EEE9"/><path d="M36.151 32.175c-.072-.072-.072-3.21-.072-3.21.036-.073 1.154-.722 1.154-.722.109.072.109 3.21.109 3.21-.036.073-1.155.722-1.155.722h-.036zM36.26 29v2.957l.974-.54V28.46l-.974.54z" fill="#231F20"/><path d="M35.61 28.64l1.118-.649.541.325-1.118.65-.54-.326z" fill="#F4EEE9"/><path d="M36.151 29.037c-.036 0-.613-.325-.613-.325 0-.144 1.118-.793 1.118-.793.072 0 .65.325.65.325 0 .144-1.119.793-1.119.793h-.036zm-.397-.397l.397.253.974-.541-.397-.253-.974.541z" fill="#231F20"/><path d="M36.151 28.965v3.138l-.613-.36v-2.417l-.577.072-.289-.65.938-.108.541.325z" fill="#F4EEE9"/><path d="M36.151 32.175c-.036 0-.65-.36-.65-.36-.035-.073-.035-2.418-.035-2.418l-.505.073c-.072-.036-.36-.686-.36-.686.071-.108.973-.216.973-.216.036 0 .613.324.613.324.036.073.036 3.21.036 3.21-.036.073-.036.073-.072.073zm-.54-.469l.468.253V29l-.505-.289-.793.108.216.505.541-.072c.072.072.072 2.453.072 2.453z" fill="#231F20"/><path d="M37.702 25.32c-.036-.288-.036-.324-.036-.36-.324-1.01-.36-1.046-.397-1.118a.5.5 0 00-.108-.144c-1.19-.541-2.308.108-2.308.108.974.325.469.613.469.613-.18.794-.18.83-.18.902v.432c.18.686.18.722.216.758.36.18 1.19-.324 1.19-.324 0 .252 0 .288-.036.36 0 .072 0 .108-.036.145 0 .072-.036.108-.036.144-.289.397.83-.253.83-.253.36-1.046.36-1.082.36-1.118.108-.036.108-.072.072-.144zm-1.407-.612c.036.108.073.144.073.216.036.072.036.108.072.144.036.072.036.109.036.18 0 .073.036.109.036.145 0 .072.036.108.036.18s0 .145.036.18v.181c-.289-.866-.289-.938-.289-.974v-.252z" fill="#F4EEE9"/><path d="M36.223 27.34c.253-.72.253-.757.253-.829v-.18c0-.036-.685.36-.685.36-.217 0-.29-.036-.29-.036-.432-1.01-.432-1.082-.432-1.118v-.432c.216-.794.613-1.047.613-1.047-.865-.36.253-1.01.253-1.01 1.334.614 1.37.65 1.37.686.037.072.073.144.109.18.288 1.01.288 1.046.288 1.082v.577c-.397 1.046-1.515 1.695-1.515 1.695.072.073.072.073.036.073zm.433-.793c0 .072 0 .108-.036.18 0 .073-.036.109-.036.18-.036.109.721-.324.721-.324.325-1.226.325-1.443.325-1.443-.325-1.118-.36-1.154-.397-1.226a.499.499 0 00-.108-.144c-.072-.072-.036-.145-.036-.145-.974-.396-.974-.396-1.01-.396-.036.036-.83.469-.83.469.65.505.145.793.145.793-.145.721-.145.758-.145.83v.252c.47 1.046 1.299.577 1.299.577.108.289.108.361.108.397zm-.072-.54l-.216-.217c-.145-.758-.145-.794-.145-.866v-.216c.253.252.289.288.289.324.036.072.036.108.036.18 0 .073.036.109.036.18 0 .073.036.11.036.181 0 .072 0 .145.036.18v.18c-.036.073-.036.073-.072.073zm-.144-.686c.072.18.036.144.036.108 0-.072-.036-.108-.036-.144-.108.036 0 .036 0 .036z" fill="#231F20"/><path d="M35.574 23.914c-.685-.397-1.046 0-1.046 1.046s.36 1.84 1.046 2.237c.685.396 1.046 0 1.046-1.046 0-1.082-.36-1.876-1.046-2.237zm0 2.706c-.252-.145-.36-.47-.36-1.335 0-.83.108-1.046.396-.866.253.145.36.47.36 1.299-.035.902-.143 1.082-.396.902z" fill="#F4EEE9"/><path d="M36.007 27.413a.986.986 0 01-.505-.144c-.685-.397-1.082-1.227-1.082-2.309 0-.65.144-1.046.397-1.19.18-.108.468-.072.757.108.685.397 1.082 1.226 1.082 2.308 0 .65-.144 1.047-.397 1.227-.072-.036-.144 0-.252 0zm-.902-3.571c-.072 0-.144 0-.18.036-.217.108-.325.505-.325 1.082 0 1.046.36 1.804.974 2.164.253.145.433.18.577.109.217-.109.325-.505.325-1.082 0-1.01-.36-1.804-.974-2.165a.543.543 0 00-.397-.144zm.613 2.922a.275.275 0 01-.18-.072c-.325-.18-.433-.541-.397-1.407 0-.613.072-.902.217-.974.108-.072.252 0 .288.036.325.18.433.541.397 1.37 0 .614-.072.902-.216.975-.036.072-.073.072-.109.072zm-.288-2.309c-.072.036-.145.217-.145.83 0 .866.109 1.118.325 1.262.18 0 .253-.18.253-.83 0-.865-.109-1.117-.325-1.262-.036.036-.072 0-.108 0z" fill="#231F20"/><path d="M34.708 19.442l1.119-.65.901-.108-1.118.65-.902.108z" fill="#F4EEE9"/><path d="M34.708 19.514c-.036-.145 1.083-.794 1.083-.794.036 0 .937-.108.937-.108.036.144-1.082.793-1.082.793l-.938.109zm1.119-.65l-.758.433.541-.072.758-.433-.541.072z" fill="#231F20"/><path d="M36.187 19.659l1.118-.65v3.138l-1.118.65v-3.139z" fill="#F4EEE9"/><path d="M36.187 22.869c-.072-.072-.072-3.21-.072-3.21.036-.073 1.154-.722 1.154-.722.109.072.109 3.21.109 3.21-.036.072-1.155.722-1.155.722h-.036zm.072-3.174v2.957l.974-.54v-2.959l-.974.542z" fill="#231F20"/><path d="M35.61 19.333l1.118-.649.577.325-1.118.649-.577-.325z" fill="#F4EEE9"/><path d="M36.187 19.73c-.036 0-.613-.325-.613-.325 0-.144 1.118-.793 1.118-.793.072 0 .65.324.65.324 0 .145-1.119.794-1.119.794h-.036zm-.396-.397l.396.253.974-.541-.397-.253-.974.541z" fill="#231F20"/><path d="M36.187 19.659v3.138l-.613-.361v-2.417l-.613.073-.253-.65.902-.108.577.325z" fill="#F4EEE9"/><path d="M36.187 22.869c-.036 0-.649-.361-.649-.361-.036-.072-.036-2.417-.036-2.417l-.505.072c-.072-.036-.36-.685-.36-.685.071-.108.973-.216.973-.216.036 0 .613.324.613.324.036.073.036 3.21.036 3.21-.036.073-.072.073-.072.073zm-.54-.47l.468.253v-2.957l-.505-.289-.793.108.216.505.541-.072c.072.072.072 2.453.072 2.453z" fill="#231F20"/><path d="M37.738 16.05c-.036-.288-.036-.324-.036-.36-.324-1.01-.36-1.046-.397-1.118a.497.497 0 00-.108-.144c-1.19-.541-2.308.108-2.308.108.974.325.469.613.469.613-.18.794-.18.83-.18.902v.432c.18.686.18.722.216.758.36.18 1.19-.325 1.19-.325 0 .325-.036.433-.036.506 0 .072-.036.108-.036.144-.289.397.83-.253.83-.253.36-1.046.36-1.082.36-1.118a.272.272 0 00.036-.144zm-1.407-.648c.109.252.145.324.145.36.036.072.036.108.036.18 0 .073.036.109.036.181s.036.108.036.18 0 .145.036.18v.181c-.288-.866-.288-.938-.288-.974v-.288z" fill="#F4EEE9"/><path d="M36.26 18.035c.252-.758.252-.866.288-.974 0-.036-.685.36-.685.36-.18.037-.18-.036-.18-.036-.506-.974-.506-1.046-.542-1.082v-.432c.217-.794.613-1.047.613-1.047-.865-.36.253-1.01.253-1.01 1.335.614 1.37.65 1.37.686.037.072.073.144.109.18.324 1.118.324 1.37.324 1.37v.325c-.396 1.047-1.515 1.696-1.515 1.696 0-.036 0-.036-.036-.036zm.36-1.227c.072.397.036.505.036.614 0 .072-.036.108-.036.18-.036.108.722-.325.722-.325.324-1.262.324-1.443.324-1.443-.324-1.118-.36-1.154-.397-1.226l-1.118-.685c-.072.036-.83.469-.83.469.65.505.145.793.145.793-.144.721-.144.758-.144.83v.432c.432.866 1.262.397 1.262.397 0-.036.036-.036.036-.036zm0-.108c-.144-.144-.18-.18-.18-.216-.145-.758-.145-.794-.145-.866v-.216c.253.252.289.288.289.324.036.072.036.108.036.18 0 .073.036.109.036.18 0 .073.036.11.036.181 0 .072 0 .145.036.18v.18c-.072.073-.108.073-.108.073zm-.18-.685c.072.18.036.144.036.108 0-.072-.036-.108-.036-.144-.072.036 0 .036 0 .036z" fill="#231F20"/><path d="M35.61 14.608c-.685-.397-1.046 0-1.046 1.046s.36 1.84 1.046 2.236c.685.397 1.046 0 1.046-1.046s-.397-1.875-1.046-2.236zm0 2.741c-.252-.144-.36-.468-.36-1.334 0-.83.108-1.046.396-.866.253.145.36.47.36 1.299-.035.865-.143 1.046-.396.901z" fill="#F4EEE9"/><path d="M36.043 18.107a.986.986 0 01-.505-.145c-.685-.396-1.082-1.226-1.082-2.308 0-.65.144-1.046.397-1.19.18-.109.469-.072.757.108.685.397 1.082 1.226 1.082 2.308 0 .65-.144 1.046-.397 1.227-.072-.036-.144 0-.252 0zm-.902-3.571c-.072 0-.144 0-.18.036-.217.108-.325.505-.325 1.082 0 1.046.36 1.803.974 2.164.253.144.433.18.577.108.217-.108.325-.505.325-1.082 0-1.01-.36-1.803-.974-2.164a.672.672 0 00-.397-.144zm.613 2.921a.276.276 0 01-.18-.072c-.325-.18-.433-.54-.397-1.406 0-.613.072-.902.217-.974.108-.072.252 0 .288.036.325.18.433.54.397 1.37 0 .614-.072.902-.216.974-.036.072-.072.072-.109.072zm-.108-.18c.18 0 .253-.18.253-.83 0-.865-.108-1.118-.325-1.262-.18 0-.252.18-.252.794-.037.901.108 1.154.324 1.298z" fill="#231F20"/><path d="M34.745 10.135l1.118-.649.901-.108-1.118.65-.901.107z" fill="#F4EEE9"/><path d="M34.745 10.207c-.037-.144 1.082-.793 1.082-.793.036 0 .937-.108.937-.108.036.144-1.082.793-1.082.793-.036 0-.938.108-.938.108zm1.118-.649l-.758.433.541-.072.758-.433-.541.072z" fill="#231F20"/><path d="M36.223 10.352l1.119-.649v3.138l-1.119.65v-3.139z" fill="#F4EEE9"/><path d="M36.223 13.563c-.072-.073-.072-3.21-.072-3.21.036-.073 1.154-.722 1.154-.722.109.072.109 3.21.109 3.21-.036.072-1.155.722-1.155.722h-.036zm.072-3.175v2.958l.974-.541V9.847l-.974.541z" fill="#231F20"/><path d="M35.646 10.027l1.118-.65.578.326-1.119.649-.577-.325z" fill="#F4EEE9"/><path d="M36.223 10.424c-.036 0-.613-.325-.613-.325 0-.144 1.118-.793 1.118-.793.072 0 .65.324.65.324 0 .145-1.119.794-1.119.794h-.036zm-.396-.397l.396.253.974-.541-.397-.253-.973.541z" fill="#231F20"/><path d="M36.223 10.352v3.139l-.649-.361.036-2.417-.613.072-.252-.649.901-.108.577.324z" fill="#F4EEE9"/><path d="M36.223 13.563c-.036 0-.649-.361-.649-.361-.036-.072-.036-2.417-.036-2.417l-.505.072c-.072-.036-.36-.685-.36-.685.072-.108.973-.216.973-.216.036 0 .613.324.613.324.036.072.036 3.21.036 3.21l-.072.073zm-.54-.47l.468.253v-2.958l-.505-.288-.793.108.216.505.541-.072c.072.072.072 2.453.072 2.453z" fill="#231F20"/><path d="M37.774 6.745c-.036-.288-.036-.325-.036-.397-.324-1.01-.36-1.046-.396-1.118a.498.498 0 00-.109-.144c-1.19-.541-2.308.108-2.308.108.974.325.469.613.469.613-.18.794-.18.83-.18.902v.433c.18.685.18.721.216.757.36.18 1.19-.324 1.19-.324 0 .324-.036.433-.036.505 0 .072-.036.108-.036.144-.289.397.83-.253.83-.253.36-1.046.36-1.082.36-1.118.036-.036.036-.072.036-.108zm-1.406-.65c.036.11.072.145.072.217.036.072.036.108.072.145a.325.325 0 01.036.18c0 .072.036.108.036.18s.036.108.036.18c0 .073 0 .145.036.181v.18c-.288-.865-.288-.938-.288-.974v-.288z" fill="#F4EEE9"/><path d="M36.295 8.765c.253-.757.253-.866.289-.974 0-.036-.685.36-.685.36-.108.037-.18.037-.18.037-.542-1.082-.542-1.118-.542-1.19v-.433c.217-.794.614-1.046.614-1.046-.866-.36.252-1.01.252-1.01 1.335.613 1.37.649 1.37.685a.785.785 0 00.109.18c.325 1.119.325 1.371.325 1.371v.325c-.397 1.046-1.516 1.695-1.516 1.695 0-.036-.036 0-.036 0zm.361-1.262c.072.396.036.505.036.613 0 .072-.036.108-.036.18-.036.108.722-.324.722-.324.324-.974.324-1.01.324-1.083v-.396c-.324-1.119-.36-1.155-.397-1.227l-1.118-.685c-.036.036-.865.469-.865.469.649.505.144.793.144.793-.144.722-.144.758-.144.83v.432c.432.867 1.262.398 1.262.398h.072zm0-.109l-.216-.216c-.145-.758-.145-.794-.145-.866v-.216c.253.252.289.288.289.324a.325.325 0 01.036.18c0 .073.036.11.036.181 0 .072.036.108.036.18 0 .073 0 .145.036.18v.181c-.036.072-.072.072-.072.072z" fill="#231F20"/><path d="M35.646 5.302c-.685-.396-1.046 0-1.046 1.047 0 1.046.36 1.84 1.046 2.236.685.397 1.046 0 1.046-1.046-.036-1.046-.397-1.84-1.046-2.237zm-.036 2.742c-.252-.144-.36-.47-.36-1.335 0-.83.108-1.046.396-.865.253.144.36.468.36 1.298 0 .866-.107 1.046-.396.902z" fill="#F4EEE9"/><path d="M36.08 8.801a.986.986 0 01-.506-.144c-.685-.397-1.082-1.227-1.082-2.309 0-.649.144-1.046.397-1.19.18-.108.469-.072.757.108.685.397 1.082 1.227 1.082 2.309 0 .649-.144 1.046-.397 1.226h-.252zm-.903-3.57c-.072 0-.144 0-.18.035-.216.108-.325.505-.325 1.082 0 1.046.361 1.804.974 2.165.253.144.433.18.577.108.217-.108.325-.505.325-1.082 0-1.01-.36-1.804-.974-2.165a.672.672 0 00-.397-.144zm.577 2.92a.275.275 0 01-.18-.071c-.325-.18-.433-.541-.397-1.407 0-.613.072-.902.217-.974.108-.072.252 0 .288.036.325.18.433.541.397 1.37 0 .614-.072.903-.216.975-.036.072-.072.072-.109.072zm-.252-2.272c-.072.037-.144.217-.144.83 0 .866.108 1.118.324 1.263.18 0 .253-.18.253-.83 0-.866-.108-1.118-.325-1.263h-.108z" fill="#231F20"/><path d="M34.744.83l1.119-.65.937-.108-1.118.65-.938.108z" fill="#F4EEE9"/><path d="M34.744.902c-.036-.145 1.083-.794 1.083-.794.036 0 .937-.108.937-.108.036.144-1.082.794-1.082.794s-.901.108-.938.108zM35.9.252l-.758.47.541-.073.758-.433-.541.036z" fill="#231F20"/><path d="M36.26 1.046l1.118-.65-.036 3.139-1.119.649.036-3.138z" fill="#F4EEE9"/><path d="M36.223 4.292c-.072-.072-.072-3.21-.072-3.21.036-.072 1.154-.722 1.154-.722.109.072.109 3.21.109 3.21-.036.073-1.155.722-1.155.722h-.036zm.108-3.174v2.958l.974-.541V.577l-.974.54z" fill="#231F20"/><path d="M35.682.722L36.8.072l.578.325-1.119.65-.577-.325z" fill="#F4EEE9"/><path d="M36.26 1.118c-.037 0-.614-.324-.614-.324 0-.145 1.118-.794 1.118-.794.072 0 .65.325.65.325 0 .144-1.119.793-1.119.793h-.036zm-.433-.397l.396.253.974-.541L36.8.18l-.973.541z" fill="#231F20"/><path d="M36.26 1.046l-.037 3.138-.613-.36V1.406l-.577.072-.288-.65.937-.108.577.325z" fill="#F4EEE9"/><path d="M36.223 4.292c-.036 0-.649-.36-.649-.36-.036-.073-.036-2.417-.036-2.417l-.505.072c-.072-.036-.36-.686-.36-.686.072-.144 1.01-.252 1.01-.252.035 0 .612.325.612.325.037.072.037 3.21.037 3.21-.073.108-.073.108-.109.108zm-.54-.505l.468.253V1.082l-.505-.289-.793.108.216.505.541-.072c.072.072.072 2.453.072 2.453z" fill="#231F20"/><path d="M39.398 47.144l1.118-.65.938-.107-1.119.649-.938.108z" fill="#F4EEE9"/><path d="M39.398 47.216c-.037-.144 1.082-.793 1.082-.793.036 0 .937-.108.937-.108.036.144-1.082.793-1.082.793s-.901.108-.938.108zm1.154-.65l-.758.434.541-.072.758-.433-.541.072z" fill="#231F20"/><path d="M40.912 47.36l1.119-.65-.036 3.139-1.119.65.036-3.139z" fill="#F4EEE9"/><path d="M40.876 50.57c-.072-.072-.072-3.21-.072-3.21.036-.072 1.154-.721 1.154-.721.109.072.109 3.21.109 3.21-.036.072-1.155.721-1.155.721h-.036zm.109-3.174v2.958l.974-.541v-2.958l-.974.541z" fill="#231F20"/><path d="M40.335 47.036l1.118-.65.578.325-1.119.65-.577-.325z" fill="#F4EEE9"/><path d="M40.912 47.433c-.036 0-.613-.325-.613-.325 0-.144 1.118-.793 1.118-.793.072 0 .65.324.65.324 0 .144-1.118.794-1.118.794h-.037zm-.432-.397l.396.252.974-.54-.397-.253-.973.54z" fill="#231F20"/><path d="M40.912 47.36l-.036 3.139-.613-.36V47.72l-.577.073-.288-.65.937-.108.577.325z" fill="#F4EEE9"/><path d="M40.876 50.57c-.036 0-.649-.36-.649-.36-.036-.072-.036-2.416-.036-2.416l-.505.072c-.072-.036-.36-.686-.36-.686.072-.108.973-.216.973-.216.036 0 .613.325.613.325.037.072.037 3.21.037 3.21-.037.072-.037.072-.073.072zm-.54-.468l.468.253v-2.958l-.505-.289-.793.108.216.505.541-.072c.108.072.072 2.453.072 2.453z" fill="#231F20"/><path d="M42.464 43.717c-.037-.288-.037-.324-.037-.396-.324-1.01-.36-1.046-.396-1.119a.496.496 0 00-.109-.144c-1.19-.541-2.308.108-2.308.108.974.325.469.614.469.614-.18.793-.18.83-.18.901v.433c.18.685.18.722.216.758.36.18 1.19-.325 1.19-.325 0 .252 0 .289-.036.36 0 .073 0 .109-.036.145 0 .072-.036.108-.036.144-.289.397.83-.252.83-.252.36-1.046.36-1.082.36-1.119.073 0 .073-.036.073-.108zm-1.407-.613c.036.108.072.144.072.217.036.072.036.108.072.144a.325.325 0 01.036.18c0 .072.036.108.036.144 0 .073.036.109.036.18 0 .073 0 .145.036.181v.18c-.288-.865-.288-.937-.288-.973v-.253z" fill="#F4EEE9"/><path d="M40.985 45.737c.252-.721.252-.757.252-.83v-.18c0-.036-.685.36-.685.36-.217 0-.289-.035-.289-.035-.216-.18-.252-.253-.252-.289-.145-.757-.145-.793-.145-.865v-.433l.037-.361c.18-.433.613-.685.613-.685-.866-.361.252-1.01.252-1.01 1.335.613 1.37.649 1.37.685.037.072.073.144.109.18.325 1.118.325 1.371.325 1.371v.325c-.397 1.046-1.515 1.695-1.515 1.695l-.072.072zm.396-.793c0 .072 0 .108-.036.18 0 .072-.036.108-.036.18-.036.108.722-.324.722-.324.324-.974.324-1.01.324-1.082V43.5c-.324-1.118-.36-1.154-.396-1.227l-1.119-.685c-.036.036-.83.469-.83.469.65.505.145.794.145.794a9.32 9.32 0 00-.144.649v.577c.432.867 1.262.398 1.262.398.144.36.144.432.108.469zm-.036-.541l-.216-.217c-.144-.757-.144-.794-.144-.866v-.216c.252.252.288.288.288.325.036.072.036.108.036.18s.036.108.036.18.036.108.036.18c0 .073 0 .145.036.181v.18l-.072.073zm-.18-.686c.036.18.036.145.036.108 0-.072-.036-.108-.036-.144-.072.036 0 .036 0 .036z" fill="#231F20"/><path d="M40.3 42.31c-.686-.397-1.047 0-1.047 1.046s.36 1.84 1.046 2.237c.686.396 1.046 0 1.046-1.046 0-1.082-.36-1.876-1.046-2.237zm0 2.706c-.253-.145-.361-.47-.361-1.335 0-.83.108-1.046.396-.866.253.145.361.47.361 1.299 0 .902-.144 1.082-.397.902z" fill="#F4EEE9"/><path d="M40.768 45.809a.985.985 0 01-.505-.144c-.685-.397-1.082-1.227-1.082-2.309 0-.65.144-1.046.397-1.19.18-.108.469-.072.757.108.686.397 1.082 1.226 1.082 2.309 0 .649-.144 1.046-.396 1.226-.072-.036-.18 0-.253 0zm-.902-3.571c-.072 0-.144 0-.18.036-.216.108-.325.505-.325 1.082 0 1.046.361 1.804.974 2.164.253.145.433.18.577.109.217-.109.325-.505.325-1.082 0-1.01-.36-1.804-.974-2.165a.672.672 0 00-.397-.144zm.578 2.922a.275.275 0 01-.18-.072c-.326-.18-.434-.541-.398-1.407 0-.613.072-.902.217-.974.108-.072.252 0 .288.036.325.18.433.541.397 1.37 0 .614-.072.902-.216.974-.036.073-.072.073-.108.073zm-.289-2.309c-.072.036-.144.217-.144.83 0 .866.108 1.118.324 1.262.18 0 .253-.18.253-.83 0-.865-.108-1.117-.325-1.262-.036.036-.072 0-.108 0z" fill="#231F20"/><path d="M39.434 37.837l1.118-.649.938-.108-1.119.65-.937.108z" fill="#F4EEE9"/><path d="M39.434 37.91c-.036-.145 1.082-.794 1.082-.794.036 0 .938-.108.938-.108.036.144-1.083.793-1.083.793l-.937.109zm1.154-.65l-.758.433.541-.072.758-.433-.541.072z" fill="#231F20"/><path d="M40.912 38.054l1.119-.65v3.138l-1.119.65v-3.138z" fill="#F4EEE9"/><path d="M40.912 41.264c-.072-.073-.072-3.21-.072-3.21.036-.073 1.154-.722 1.154-.722.109.072.109 3.21.109 3.21-.036.072-1.154.722-1.154.722h-.037zm.109-3.175v2.958l.974-.54v-2.959l-.974.541z" fill="#231F20"/><path d="M40.371 37.73l1.119-.65.54.325-1.118.649-.54-.325z" fill="#F4EEE9"/><path d="M40.912 38.126c-.036 0-.613-.325-.613-.325 0-.144 1.118-.793 1.118-.793.073 0 .65.324.65.324 0 .145-1.118.794-1.118.794h-.037zm-.396-.397l.396.253.974-.541-.396-.253-.974.541z" fill="#231F20"/><path d="M40.912 38.055v3.138l-.613-.361v-2.417l-.577.072-.288-.649.937-.108.541.325z" fill="#F4EEE9"/><path d="M40.912 41.265c-.036 0-.649-.361-.649-.361-.036-.072-.036-2.417-.036-2.417l-.505.072c-.072-.036-.36-.685-.36-.685.072-.108.973-.216.973-.216.036 0 .614.324.614.324.035.072.035 3.21.035 3.21-.035.073-.035.073-.072.073zm-.54-.47l.468.253v-2.957l-.505-.289-.793.108.216.505.541-.072c.072.072.072 2.453.072 2.453z" fill="#231F20"/><path d="M42.463 34.447c-.036-.288-.036-.324-.036-.397-.324-1.01-.36-1.045-.396-1.118-.036-.072-.073-.108-.109-.144-1.19-.541-2.308.108-2.308.108.974.325.469.614.469.614-.18.793-.18.83-.18.901v.433c.18.685.18.721.216.758.36.18 1.19-.325 1.19-.325 0 .252 0 .288-.036.36 0 .073 0 .109-.036.145 0 .072-.036.108-.036.144-.289.397.83-.252.83-.252.36-1.046.36-1.082.36-1.118.108-.037.072-.073.072-.109zm-1.406-.649c.036.108.072.144.072.216.036.073.036.109.072.145a.326.326 0 01.036.18c0 .072.036.108.036.144 0 .073.036.109.036.18 0 .073 0 .145.036.181v.18c-.288-.865-.288-.937-.288-.974v-.252z" fill="#F4EEE9"/><path d="M40.985 36.431c.252-.866.288-.938.288-.974 0-.036-.685.36-.685.36-.253 0-.289-.035-.289-.035-.18-.144-.144-.217-.144-.217-.217-.252-.217-.324-.217-.324-.072-.505-.072-.541-.072-.613v-.722c.18-.505.614-.721.614-.721-.866-.36.252-1.01.252-1.01 1.335.613 1.37.65 1.37.685a.792.792 0 00.109.18c.325 1.119.325 1.371.325 1.371v.325c-.397 1.046-1.515 1.695-1.515 1.695h-.036zm.36-1.226c.072.324.072.397.072.433 0 .072 0 .108-.036.18 0 .072-.036.108-.036.18-.036.108.722-.324.722-.324.324-1.227.324-1.443.324-1.443-.036-.253-.036-.289-.036-.325-.288-.793-.288-.83-.324-.865-.18-.217-.145-.29-.145-.29-.974-.396-.974-.396-1.01-.396-.072.036-.83.47-.83.47.65.504.145.793.145.793-.108.432-.144.649-.144.649v.397c.433 1.082.505 1.118.505 1.118-.036-.072.793-.541.793-.541v-.036zm0-.108l-.216-.217c-.144-.757-.144-.794-.144-.866v-.216c.252.252.288.288.288.325.036.072.036.108.036.18s.036.108.036.18.036.109.036.18c0 .073 0 .145.036.181v.18c-.036.072-.036.072-.072.072zm-.144-.686c.072.18.036.144.036.108 0-.072-.036-.108-.036-.144-.108.036 0 .036 0 .036z" fill="#231F20"/><path d="M40.335 33.005c-.685-.397-1.046 0-1.046 1.046s.361 1.84 1.046 2.236c.686.397 1.046 0 1.046-1.046 0-1.082-.36-1.876-1.046-2.236zm0 2.741c-.252-.144-.36-.469-.36-1.335 0-.83.108-1.046.396-.865.253.144.361.469.361 1.298-.036.866-.144 1.046-.397.902z" fill="#F4EEE9"/><path d="M40.768 36.503a.986.986 0 01-.505-.144c-.685-.397-1.082-1.226-1.082-2.309 0-.649.144-1.045.397-1.19.18-.108.469-.072.757.108.686.397 1.082 1.227 1.082 2.309 0 .65-.144 1.046-.396 1.226-.072-.036-.145 0-.253 0zm-.902-3.57c-.072 0-.144 0-.18.035-.216.109-.325.505-.325 1.082 0 1.047.361 1.804.974 2.165.253.144.433.18.577.108.217-.108.325-.505.325-1.082 0-1.01-.36-1.804-.974-2.164a.543.543 0 00-.397-.145zm.614 2.921a.276.276 0 01-.18-.072c-.325-.18-.434-.541-.397-1.407 0-.613.072-.902.216-.974.108-.072.252 0 .288.036.325.18.433.541.397 1.371 0 .613-.072.902-.216.974-.036.072-.072.072-.108.072zm-.289-2.272c-.072.036-.144.216-.144.83 0 .865.108 1.117.324 1.262.18 0 .253-.18.253-.83 0-.866-.108-1.118-.325-1.262h-.108z" fill="#231F20"/><path d="M39.47 28.532l1.118-.65.902-.108-1.119.65-.901.108z" fill="#F4EEE9"/><path d="M39.47 28.604c-.036-.144 1.082-.794 1.082-.794.036 0 .938-.108.938-.108.036.144-1.083.794-1.083.794l-.937.108zm1.118-.65l-.758.433.541-.072.758-.433-.541.073z" fill="#231F20"/><path d="M40.949 28.748l1.118-.649v3.138l-1.118.65v-3.139z" fill="#F4EEE9"/><path d="M40.949 31.959c-.073-.073-.073-3.21-.073-3.21.036-.073 1.155-.722 1.155-.722.108.072.108 3.21.108 3.21-.036.072-1.154.722-1.154.722h-.036zm.072-3.175v2.958l.974-.541v-2.958l-.974.541z" fill="#231F20"/><path d="M40.371 28.424l1.118-.65.578.325-1.118.65-.578-.325z" fill="#F4EEE9"/><path d="M40.949 28.82c-.037 0-.614-.324-.614-.324 0-.145 1.118-.794 1.118-.794.073 0 .65.325.65.325 0 .144-1.118.793-1.118.793h-.036zm-.397-.396l.397.252.973-.541-.396-.253-.974.541z" fill="#231F20"/><path d="M40.949 28.748v3.138l-.614-.36v-2.417l-.613.072-.252-.65.901-.108.578.325z" fill="#F4EEE9"/><path d="M40.949 31.958c-.037 0-.65-.36-.65-.36-.036-.073-.036-2.417-.036-2.417l-.505.072c-.072-.036-.36-.686-.36-.686.072-.108.973-.216.973-.216.036 0 .613.325.613.325.037.072.037 3.21.037 3.21-.037.072-.072.072-.072.072zm-.542-.469l.47.253v-2.958l-.506-.289-.793.109.216.505.541-.073c.072.072.072 2.453.072 2.453z" fill="#231F20"/><path d="M42.5 25.141c-.037-.288-.037-.324-.037-.397-.324-1.01-.36-1.046-.396-1.118a.48.48 0 00-.109-.144c-1.19-.541-2.308.108-2.308.108.974.325.469.613.469.613-.18.794-.18.83-.18.902v.433c.18.685.18.721.216.757.36.18 1.19-.324 1.19-.324 0 .324-.036.433-.036.505 0 .072-.036.108-.036.144-.288.397.83-.253.83-.253.36-1.046.36-1.082.36-1.118.036-.036.036-.072.036-.108zm-1.407-.65c.108.253.144.326.144.362.036.072.036.108.036.18s.036.108.036.18.036.108.036.18c0 .073 0 .145.036.181v.18c-.288-.865-.288-.938-.288-.974v-.288z" fill="#F4EEE9"/><path d="M41.02 27.161c.253-.757.253-.866.29-.974 0-.036-.686.36-.686.36-.217 0-.289-.035-.289-.035-.36-.47-.36-.505-.36-.505-.072-.505-.072-.577-.072-.613v-.722c.18-.505.613-.721.613-.721-.866-.36.252-1.01.252-1.01 1.335.613 1.37.65 1.37.685.037.072.073.144.109.18.325 1.119.325 1.371.325 1.371v.325c-.397 1.046-1.515 1.695-1.515 1.695 0-.036 0-.036-.036-.036zm.361-1.262c.072.396.036.505.036.613 0 .072-.036.108-.036.18-.036.108.722-.324.722-.324.324-1.263.324-1.443.324-1.443-.216-.866-.216-.902-.216-.938-.072-.18-.108-.216-.144-.289l-1.118-.685c-.037.036-.83.469-.83.469.65.505.144.794.144.794-.108.432-.144.649-.144.649v.577c.433.866 1.262.397 1.262.397s-.036 0 0 0zm0-.108c-.144-.145-.18-.18-.18-.217-.144-.757-.144-.794-.144-.866v-.216c.252.252.288.288.288.325a.326.326 0 01.036.18c0 .072.036.108.036.18s.036.108.036.18c0 .073 0 .145.036.181v.18c-.072.073-.108.073-.108.073zm-.18-.686c.072.18.036.144.036.108 0-.072-.036-.108-.036-.144-.072.036 0 .036 0 .036z" fill="#231F20"/><path d="M40.371 23.698c-.685-.396-1.046 0-1.046 1.046 0 1.047.361 1.84 1.046 2.237.686.397 1.046 0 1.046-1.046-.036-1.046-.396-1.84-1.046-2.236zm0 2.742c-.252-.145-.36-.47-.36-1.335 0-.83.108-1.046.396-.866.253.145.361.47.361 1.3-.036.865-.144 1.045-.397.9z" fill="#F4EEE9"/><path d="M40.804 27.197a.987.987 0 01-.505-.144c-.685-.397-1.082-1.227-1.082-2.309 0-.649.144-1.046.397-1.19.18-.108.469-.072.757.108.686.397 1.082 1.227 1.082 2.309 0 .649-.144 1.046-.396 1.226h-.253zm-.901-3.57c-.073 0-.145 0-.18.035-.217.108-.325.505-.325 1.082 0 1.046.36 1.804.973 2.165.253.144.433.18.578.108.216-.108.324-.505.324-1.082 0-1.01-.36-1.804-.974-2.165a.67.67 0 00-.396-.144zm.613 2.92a.275.275 0 01-.18-.071c-.325-.18-.433-.541-.398-1.407 0-.613.073-.902.217-.974.108-.072.252 0 .288.036.325.18.433.541.397 1.37 0 .614-.072.903-.216.975-.036.072-.072.072-.108.072zm-.109-.18c.18 0 .253-.18.253-.83 0-.865-.108-1.117-.325-1.262-.18 0-.252.18-.252.794-.036.938.108 1.19.324 1.299z" fill="#231F20"/><path d="M39.506 19.226l1.082-.649.938-.108-1.119.649-.901.108z" fill="#F4EEE9"/><path d="M39.506 19.298c-.036-.144 1.082-.793 1.082-.793.036 0 .938-.108.938-.108.036.144-1.082.793-1.082.793-.037 0-.938.108-.938.108zm1.118-.649l-.758.433.541-.072.758-.433-.541.072z" fill="#231F20"/><path d="M40.985 19.442l1.118-.649v3.138l-1.118.65v-3.139z" fill="#F4EEE9"/><path d="M40.985 22.689c-.073-.073-.073-3.21-.073-3.21.037-.073 1.155-.722 1.155-.722.108.072.108 3.21.108 3.21-.036.072-1.154.722-1.154.722h-.036zm.072-3.175v2.958l.974-.541v-2.958l-.974.541z" fill="#231F20"/><path d="M40.407 19.118l1.119-.65.577.325-1.118.65-.578-.325z" fill="#F4EEE9"/><path d="M40.985 19.55c-.036 0-.614-.324-.614-.324 0-.144 1.119-.793 1.119-.793.072 0 .649.324.649.324 0 .144-1.118.794-1.118.794 0-.036-.036 0-.036 0zm-.397-.432l.397.252.974-.54-.397-.253-.974.54z" fill="#231F20"/><path d="M40.984 19.442v3.138l-.649-.36.036-2.417-.613.072-.252-.65.901-.107.578.324z" fill="#F4EEE9"/><path d="M40.985 22.689c-.036 0-.65-.361-.65-.361-.036-.072-.036-2.417-.036-2.417l-.505.072c-.072-.036-.36-.685-.36-.685.072-.108.974-.216.974-.216.035 0 .613.324.613.324.036.072.036 3.21.036 3.21l-.072.073zm-.541-.505l.468.252v-2.958l-.505-.288-.793.108.216.505.541-.072c.072.072.072 2.453.072 2.453z" fill="#231F20"/><path d="M42.536 15.835c-.037-.288-.037-.324-.037-.396-.324-1.01-.36-1.046-.396-1.119a.497.497 0 00-.108-.144c-1.19-.54-2.309.108-2.309.108.974.325.469.614.469.614-.18.793-.18.83-.18.901v.433c.18.686.18.722.216.758.36.18 1.19-.325 1.19-.325 0 .325-.036.433-.036.505 0 .072-.036.108-.036.144-.288.397.83-.252.83-.252.36-1.046.36-1.082.36-1.118.037-.036.037-.073.037-.109zm-1.407-.649c.036.108.072.145.072.217.036.072.036.108.072.144.036.072.036.108.036.18s.036.108.036.18c0 .073.036.109.036.18 0 .073 0 .145.036.181v.18c-.288-.865-.288-.937-.288-.973v-.289z" fill="#F4EEE9"/><path d="M41.057 17.855c.252-.757.252-.865.288-.974 0-.036-.685.361-.685.361-.144.036-.144-.072-.144-.072-.578-.974-.578-1.046-.578-1.082v-.433c.217-.793.614-1.046.614-1.046-.866-.36.252-1.01.252-1.01 1.335.613 1.37.65 1.37.685a.786.786 0 00.11.18c.324 1.119.324 1.371.324 1.371v.325c-.397 1.046-1.515 1.695-1.515 1.695h-.036zm.36-1.262c.072.397.036.505.036.613 0 .072-.036.108-.036.18-.036.109.722-.324.722-.324.324-1.227.324-1.443.324-1.443-.216-.866-.216-.902-.216-.938-.108-.18-.108-.216-.144-.288l-1.118-.686c-.036.036-.866.47-.866.47.65.504.144.793.144.793-.144.721-.144.757-.144.83v.432c.433.866 1.262.397 1.262.397 0-.036.036-.036.036-.036zm0-.108l-.216-.217c-.144-.757-.144-.793-.144-.865v-.217c.252.253.288.289.288.325a.326.326 0 01.036.18c0 .072.036.108.036.18 0 .073.036.109.036.18 0 .073 0 .145.036.181v.18l-.072.073z" fill="#231F20"/><path d="M40.407 14.393c-.685-.397-1.046 0-1.046 1.046s.361 1.84 1.047 2.236c.685.397 1.045 0 1.045-1.046-.036-1.046-.396-1.84-1.046-2.236zm-.036 2.741c-.252-.144-.36-.469-.36-1.334 0-.83.108-1.046.396-.866.253.144.361.469.361 1.298 0 .866-.108 1.046-.397.902z" fill="#F4EEE9"/><path d="M40.84 17.891a.986.986 0 01-.505-.144c-.685-.397-1.082-1.226-1.082-2.308 0-.65.145-1.046.397-1.19.18-.109.469-.073.757.108.686.396 1.083 1.226 1.083 2.308 0 .65-.145 1.046-.397 1.226h-.253zm-.902-3.57c-.072 0-.144 0-.18.036-.216.108-.324.505-.324 1.082 0 1.046.36 1.803.973 2.164.253.144.433.18.578.108.216-.108.324-.505.324-1.082 0-1.01-.36-1.804-.974-2.164a.672.672 0 00-.397-.145zm.578 2.921a.275.275 0 01-.18-.072c-.325-.18-.433-.541-.398-1.407 0-.613.073-.901.217-.974.108-.072.252 0 .288.037.325.18.433.54.397 1.37 0 .613-.072.902-.216.974-.036.072-.072.072-.108.072zm-.109-.18c.18 0 .253-.18.253-.83 0-.865-.108-1.118-.325-1.262-.18 0-.252.18-.252.793 0 .938.144 1.19.324 1.299z" fill="#231F20"/><path d="M39.506 9.92l1.118-.65.938-.107-1.118.649-.938.108z" fill="#F4EEE9"/><path d="M39.506 10.028c-.036-.144 1.082-.793 1.082-.793.036 0 .938-.109.938-.109.036.145-1.083.794-1.083.794s-.901.108-.937.108zm1.154-.685l-.757.433.54-.072.758-.433-.541.072z" fill="#231F20"/><path d="M41.02 10.136l1.119-.65-.036 3.175-1.118.65.036-3.175z" fill="#F4EEE9"/><path d="M40.985 13.382c-.073-.072-.073-3.21-.073-3.21.037-.072 1.155-.721 1.155-.721.108.072.108 3.21.108 3.21-.036.072-1.154.721-1.154.721h-.036zm.108-3.174v2.958l.974-.541V9.667l-.974.541z" fill="#231F20"/><path d="M40.444 9.812l1.118-.65.577.325-1.118.65-.578-.325z" fill="#F4EEE9"/><path d="M41.02 10.245c-.036 0-.613-.325-.613-.325 0-.144 1.119-.794 1.119-.794.072 0 .649.325.649.325 0 .144-1.118.794-1.118.794h-.036zm-.432-.433l.396.252.974-.54-.396-.253-.974.54z" fill="#231F20"/><path d="M41.02 10.136l-.036 3.174-.613-.36v-2.453l-.577.072-.288-.65.938-.107.577.324z" fill="#F4EEE9"/><path d="M40.984 13.382c-.035 0-.649-.36-.649-.36-.036-.072-.036-2.417-.036-2.417l-.505.072c-.072-.036-.36-.685-.36-.685.072-.108.973-.217.973-.217.037 0 .614.325.614.325.036.072.036 3.21.036 3.21-.036.072-.036.072-.073.072zm-.54-.505l.468.253v-2.958l-.505-.288-.793.108.216.505.541-.072c.072.072.072 2.452.072 2.452z" fill="#231F20"/><path d="M43.87 34.52l1.118-.65.938-.108-1.118.649-.938.108z" fill="#F4EEE9"/><path d="M43.87 34.591c-.036-.144 1.082-.793 1.082-.793.036 0 .938-.108.938-.108.036.144-1.082.793-1.082.793s-.902.108-.938.108c.036 0 .036 0 0 0zm1.154-.65l-.757.434.541-.072.757-.433-.54.072z" fill="#231F20"/><path d="M45.385 34.735l1.118-.65v3.139l-1.118.65v-3.139z" fill="#F4EEE9"/><path d="M45.385 37.945c-.072-.072-.072-3.21-.072-3.21.036-.072 1.154-.721 1.154-.721.108.072.108 3.21.108 3.21-.036.072-1.154.721-1.154.721h-.036zm.072-3.174v2.958l.974-.541V34.23l-.974.541z" fill="#231F20"/><path d="M44.808 34.411l1.118-.65.577.325-1.118.65-.577-.325z" fill="#F4EEE9"/><path d="M45.385 34.808c-.036 0-.613-.325-.613-.325 0-.144 1.118-.793 1.118-.793.072 0 .65.324.65.324 0 .144-1.119.794-1.119.794h-.036zm-.433-.397l.397.252.974-.54-.397-.253-.974.54z" fill="#231F20"/><path d="M45.385 34.736v3.138l-.65-.36v-2.418l-.576.073-.289-.65.938-.108.577.325z" fill="#F4EEE9"/><path d="M45.385 37.946c-.036 0-.65-.36-.65-.36-.035-.073-.035-2.417-.035-2.417l-.505.072c-.072-.036-.36-.686-.36-.686.071-.108.973-.216.973-.216.036 0 .613.325.613.325.036.072.036 3.21.036 3.21l-.072.072zm-.577-.469l.469.253v-2.958l-.505-.289-.794.108.217.505.54-.072c.11.072.073 2.453.073 2.453z" fill="#231F20"/><path d="M46.936 31.129c-.036-.289-.036-.325-.036-.397-.325-1.01-.36-1.046-.397-1.118a.497.497 0 00-.108-.144c-1.19-.541-2.308.108-2.308.108.973.325.468.613.468.613-.18.794-.18.83-.18.902v.432c.18.686.18.722.217.758.36.18 1.19-.325 1.19-.325 0 .253 0 .29-.036.361 0 .072 0 .108-.036.145 0 .072-.036.108-.036.144-.289.397.83-.253.83-.253.36-1.046.36-1.082.36-1.118.072-.036.072-.072.072-.108zm-1.407-.65c.036.109.072.145.072.217.037.072.037.108.073.144.036.073.036.109.036.18 0 .073.036.109.036.145 0 .072.036.108.036.18 0 .073 0 .145.036.18v.181c-.289-.866-.289-.938-.289-.974v-.252z" fill="#F4EEE9"/><path d="M45.457 33.149c.253-.722.253-.758.253-.83v-.18c0-.036-.686.36-.686.36-.144.037-.216 0-.216 0-.397-.504-.433-.54-.433-.54-.072-.506-.072-.578-.072-.614v-.722c.18-.504.613-.72.613-.72-.865-.361.253-1.01.253-1.01 1.334.613 1.37.649 1.37.685a.787.787 0 00.109.18c.288 1.01.288 1.046.288 1.082v.578c-.397 1.046-1.515 1.695-1.515 1.695.072 0 .036.036.036.036zm.397-.794c0 .072 0 .109-.036.18 0 .073-.036.109-.036.181-.036.108.721-.325.721-.325.325-.973.325-1.01.325-1.082v-.396c-.036-.253-.036-.29-.036-.325-.289-.794-.289-.83-.325-.866l-1.118-.685c-.036.036-.83.469-.83.469.65.505.145.793.145.793-.108.433-.145.65-.145.65v.576c.433.866 1.263.398 1.263.398.108.288.108.36.072.432zm-.072-.577c-.144-.144-.18-.18-.18-.216-.145-.758-.145-.794-.145-.866v-.216c.253.252.289.288.289.324.036.072.036.109.036.18 0 .073.036.109.036.181s.036.108.036.18c0 .073 0 .145.036.18v.181c-.072.072-.072.072-.108.072zm-.144-.577v-.144c-.072.144 0 .144 0 .144z" fill="#231F20"/><path d="M44.772 29.686c-.685-.396-1.046 0-1.046 1.046s.36 1.84 1.046 2.237c.685.396 1.046 0 1.046-1.046 0-1.082-.36-1.84-1.046-2.237zm0 2.742c-.253-.145-.36-.47-.36-1.335 0-.83.107-1.046.396-.866.252.145.36.47.36 1.299 0 .866-.108 1.046-.396.902z" fill="#F4EEE9"/><path d="M45.24 33.185a.987.987 0 01-.504-.144c-.685-.397-1.082-1.227-1.082-2.309 0-.65.144-1.046.396-1.19.18-.108.47-.072.758.108.685.397 1.082 1.226 1.082 2.309 0 .649-.144 1.046-.397 1.226h-.252zm-.9-3.571c-.073 0-.145 0-.181.036-.217.108-.325.505-.325 1.082 0 1.046.36 1.804.974 2.164.252.145.433.18.577.108.217-.108.325-.504.325-1.082 0-1.01-.361-1.803-.974-2.164a.671.671 0 00-.397-.144zm.576 2.922a.276.276 0 01-.18-.072c-.325-.18-.433-.542-.397-1.407 0-.613.072-.902.217-.974.108-.072.252 0 .288.036.325.18.433.541.397 1.37 0 .614-.072.902-.217.975-.036.072-.072.072-.108.072zm-.108-.18c.18 0 .252-.181.252-.83 0-.866-.108-1.119-.324-1.227-.18 0-.253.18-.253.794 0 .902.145 1.118.325 1.262z" fill="#231F20"/><path d="M43.906 25.213l1.118-.649.938-.108-1.118.65-.938.107z" fill="#F4EEE9"/><path d="M43.906 25.285c-.036-.144 1.082-.793 1.082-.793.036 0 .938-.108.938-.108.036.144-1.082.793-1.082.793l-.938.108zm1.154-.649l-.757.433.541-.072.758-.433-.541.072z" fill="#231F20"/><path d="M45.421 25.43l1.082-.65v3.139l-1.118.65.036-3.139z" fill="#F4EEE9"/><path d="M45.385 28.676c-.072-.072-.072-3.21-.072-3.21.036-.072 1.154-.721 1.154-.721.108.072.108 3.21.108 3.21-.036.072-1.154.721-1.154.721h-.036zm.108-3.174v2.958l.974-.541V24.96l-.974.541z" fill="#231F20"/><path d="M44.844 25.105l1.118-.649.541.325-1.082.649-.577-.325z" fill="#F4EEE9"/><path d="M45.421 25.502c-.036 0-.613-.325-.613-.325 0-.144 1.118-.793 1.118-.793.072 0 .65.324.65.324 0 .145-1.119.794-1.119.794h-.036zm-.433-.397l.397.253.974-.541-.397-.253-.974.541z" fill="#231F20"/><path d="M45.421 25.43l-.036 3.138-.613-.361V25.79l-.577.073-.289-.65.938-.108.577.325z" fill="#F4EEE9"/><path d="M45.385 28.676c-.036 0-.65-.36-.65-.36-.035-.073-.035-2.418-.035-2.418l-.505.073c-.072-.037-.36-.686-.36-.686.071-.108.973-.216.973-.216.036 0 .613.325.613.325.036.072.036 3.21.036 3.21-.036.072-.036.072-.072.072zm-.54-.505l.468.252v-2.957l-.505-.289-.794.108.217.505.54-.072c.073.072.073 2.453.073 2.453z" fill="#231F20"/><path d="M46.972 21.823c-.036-.288-.036-.324-.036-.396-.325-1.01-.36-1.047-.397-1.119a.499.499 0 00-.108-.144c-1.19-.541-2.308.108-2.308.108.974.325.469.613.469.613-.18.794-.18.83-.18.902v.433c.18.685.18.721.216.758.36.18 1.19-.325 1.19-.325 0 .252 0 .288-.036.36 0 .073 0 .109-.036.145 0 .072-.036.108-.036.144-.289.397.83-.252.83-.252.36-1.046.36-1.082.36-1.119.072-.036.072-.072.072-.108zm-1.407-.649c.037.108.073.144.073.216.036.072.036.109.072.145.036.072.036.108.036.18s.036.108.036.144c0 .072.036.108.036.18 0 .073 0 .145.036.181v.18c-.289-.865-.289-.938-.289-.973v-.253z" fill="#F4EEE9"/><path d="M45.493 23.843c.253-.721.253-.757.253-.83v-.18c0-.036-.686.36-.686.36-.216 0-.288-.035-.288-.035-.36-.47-.36-.541-.36-.541-.073-.505-.073-.541-.073-.614v-.721c.18-.505.613-.721.613-.721-.865-.361.253-1.01.253-1.01 1.334.613 1.37.649 1.37.685.036.072.072.144.109.18.324 1.119.324 1.371.324 1.371v.325c-.397 1.046-1.515 1.695-1.515 1.695v.036zm.361-1.262c.072.324.072.396.072.433 0 .072 0 .108-.036.18 0 .072-.036.108-.036.18-.036.108.721-.324.721-.324.325-1.263.325-1.443.325-1.443-.216-.866-.216-.902-.216-.938-.109-.18-.109-.216-.145-.289l-1.118-.685c-.036.036-.83.469-.83.469.65.505.145.793.145.793-.108.433-.144.65-.144.65v.396c.396 1.047.36 1.119.36 1.119.072-.072.902-.541.902-.541-.036 0-.036 0 0 0zm0-.108l-.216-.217c-.145-.757-.145-.794-.145-.866v-.216c.253.252.289.288.289.325a.326.326 0 01.036.18c0 .072.036.108.036.18s.036.108.036.18c0 .073 0 .145.036.181v.18l-.072.073z" fill="#231F20"/><path d="M44.808 20.38c-.685-.396-1.046 0-1.046 1.047 0 1.046.36 1.84 1.046 2.236.685.397 1.046 0 1.046-1.046s-.36-1.84-1.046-2.236zm0 2.742c-.252-.144-.36-.469-.36-1.335 0-.83.108-1.046.396-.865.252.144.36.469.36 1.298-.035.866-.144 1.046-.396.902z" fill="#F4EEE9"/><path d="M45.24 23.88a.986.986 0 01-.504-.145c-.685-.397-1.082-1.226-1.082-2.308 0-.65.144-1.047.396-1.19.18-.109.47-.073.758.107.685.397 1.082 1.227 1.082 2.309 0 .65-.144 1.046-.397 1.226h-.252zm-.901-3.572c-.072 0-.144 0-.18.036-.217.109-.325.505-.325 1.082 0 1.047.36 1.804.974 2.165.252.144.433.18.577.108.217-.108.325-.505.325-1.082 0-1.01-.361-1.804-.974-2.164a.543.543 0 00-.397-.145zm.613 2.922a.275.275 0 01-.18-.072c-.325-.18-.433-.541-.397-1.407 0-.613.072-.902.217-.974.108-.072.252 0 .288.036.325.18.433.541.397 1.37 0 .614-.072.903-.217.975-.036.072-.072.072-.108.072zm-.288-2.272c-.072.036-.145.216-.145.83 0 .865.109 1.117.325 1.262.18 0 .252-.18.252-.83 0-.866-.108-1.118-.324-1.262h-.108z" fill="#231F20"/><path d="M43.942 15.907l1.118-.649.902-.108-1.082.65-.938.107z" fill="#F4EEE9"/><path d="M43.942 16.015c-.036-.144 1.082-.793 1.082-.793.036 0 .938-.108.938-.108.036.144-1.082.793-1.082.793l-.938.108zm1.154-.685l-.757.433.541-.072.758-.433-.541.072z" fill="#231F20"/><path d="M45.421 16.124l1.118-.65v3.175l-1.118.649v-3.174z" fill="#F4EEE9"/><path d="M45.421 19.37c-.072-.072-.072-3.21-.072-3.21.036-.072 1.154-.722 1.154-.722.108.073.108 3.21.108 3.21-.036.073-1.154.722-1.154.722h-.036zm.072-3.174v2.958l.974-.541v-2.958l-.974.54z" fill="#231F20"/><path d="M44.88 15.8l1.082-.65.577.325-1.118.649-.54-.325z" fill="#F4EEE9"/><path d="M45.421 16.232c-.036 0-.613-.325-.613-.325 0-.144 1.118-.793 1.118-.793.072 0 .65.324.65.324 0 .145-1.119.794-1.119.794h-.036zm-.397-.433l.397.253.974-.541-.397-.253-.974.541z" fill="#231F20"/><path d="M45.421 16.123v3.175l-.613-.361v-2.453l-.577.072-.289-.649.938-.108.541.325z" fill="#F4EEE9"/><path d="M45.421 19.37c-.036 0-.65-.361-.65-.361-.035-.072-.035-2.417-.035-2.417l-.505.072c-.072-.036-.36-.685-.36-.685.071-.108.973-.216.973-.216.036 0 .613.324.613.324.036.073.036 3.21.036 3.21-.036.073-.072.073-.072.073zm-.54-.505l.468.252V16.16l-.505-.29-.794.11.217.504.541-.072c.072.072.072 2.453.072 2.453z" fill="#231F20"/><path d="M46.972 12.517c-.036-.289-.036-.325-.036-.397-.325-1.01-.36-1.046-.397-1.118a.504.504 0 00-.108-.145c-1.19-.54-2.308.109-2.308.109.974.324.469.613.469.613-.18.793-.18.83-.18.901v.433c.18.686.18.722.216.758.36.18 1.19-.325 1.19-.325 0 .325-.036.433-.036.505 0 .072-.036.108-.036.144-.289.397.83-.252.83-.252.36-1.046.36-1.082.36-1.118.036 0 .036-.072.036-.108zm-1.407-.65c.109.253.145.325.145.361a.325.325 0 01.036.18c0 .072.036.109.036.18 0 .073.036.109.036.181s0 .144.036.18v.18c-.289-.865-.288-.937-.288-.973v-.289z" fill="#F4EEE9"/><path d="M45.493 14.537c.253-.758.253-.866.289-.974 0-.036-.685.36-.685.36-.217 0-.289-.036-.289-.036-.18-.144-.144-.216-.144-.216-.18-.18-.217-.289-.217-.289-.072-.505-.072-.577-.072-.613v-.722c.18-.504.613-.72.613-.72-.865-.361.253-1.01.253-1.01 1.334.613 1.37.649 1.37.685a.785.785 0 00.109.18c.288 1.01.288 1.046.288 1.082v.577c-.397 1.046-1.515 1.696-1.515 1.696.036 0 .036 0 0 0zm.361-1.263c.072.397.036.505.036.613 0 .072-.036.108-.036.18-.036.109.721-.324.721-.324.253-.397.253-.433.253-.469.072-.757.036-1.01.036-1.01-.325-1.118-.36-1.154-.397-1.226l-1.118-.686c-.036.037-.83.47-.83.47.65.504.145.793.145.793-.108.433-.145.65-.145.65v.575c.433.866 1.263.397 1.263.397l.072.036zm0-.072l-.216-.216c-.145-.758-.145-.794-.145-.866v-.216c.253.252.289.288.289.324a.326.326 0 01.036.18c0 .073.036.109.036.18 0 .073.036.109.036.181s0 .144.036.18v.18c-.036.037-.036.073-.072.073z" fill="#231F20"/><path d="M44.844 11.074c-.685-.397-1.046 0-1.046 1.046s.36 1.84 1.046 2.236c.685.397 1.046 0 1.046-1.046-.036-1.046-.36-1.84-1.046-2.236zm0 2.741c-.252-.144-.36-.469-.36-1.334 0-.83.108-1.046.396-.866.253.144.36.469.36 1.299-.035.865-.144 1.046-.396.901z" fill="#F4EEE9"/><path d="M45.277 14.573a.986.986 0 01-.505-.145c-.685-.397-1.082-1.226-1.082-2.308 0-.65.144-1.046.397-1.19.18-.109.468-.073.757.108.685.396 1.082 1.226 1.082 2.308 0 .65-.144 1.046-.397 1.227h-.252zm-.902-3.571c-.072 0-.144 0-.18.036-.217.108-.325.505-.325 1.082 0 1.046.36 1.803.974 2.164.252.144.433.18.577.108.217-.108.325-.505.325-1.082 0-1.01-.36-1.803-.974-2.164a.672.672 0 00-.397-.144zm.613 2.957a.276.276 0 01-.18-.072c-.325-.18-.433-.54-.397-1.407 0-.613.072-.901.217-.973.108-.072.252 0 .288.036.325.18.433.54.397 1.37 0 .614-.072.902-.217.974-.035.036-.072.072-.108.072zm-.288-2.308c-.072.036-.145.216-.145.83 0 .865.109 1.118.325 1.262.18 0 .253-.18.253-.83 0-.865-.109-1.118-.325-1.262H44.7z" fill="#231F20"/><path d="M43.978 6.602l1.119-.65.901-.108-1.118.65-.902.108z" fill="#F4EEE9"/><path d="M43.978 6.71c-.036-.144 1.082-.794 1.082-.794.037 0 .938-.108.938-.108.036.144-1.082.794-1.082.794l-.938.108zm1.119-.65l-.758.433.541-.072.758-.433-.541.073z" fill="#231F20"/><path d="M45.457 6.854l1.118-.65v3.139l-1.118.649V6.854z" fill="#F4EEE9"/><path d="M45.457 10.064c-.072-.072-.072-3.21-.072-3.21.036-.072 1.154-.722 1.154-.722.109.072.109 3.21.109 3.21-.037.073-1.155.722-1.155.722h-.036zm.072-3.174v2.958l.974-.542V6.35l-.974.54z" fill="#231F20"/><path d="M44.88 6.494l1.118-.65.577.36-1.118.65-.577-.36z" fill="#F4EEE9"/><path d="M45.457 6.926c-.036 0-.613-.324-.613-.324 0-.145 1.118-.794 1.118-.794.072 0 .65.325.65.325 0 .144-1.119.793-1.119.793h-.036zm-.397-.433l.397.253.974-.541-.397-.253-.974.541z" fill="#231F20"/><path d="M45.457 6.854v3.138l-.649-.36.036-2.454-.613.073-.253-.65.902-.108.577.36z" fill="#F4EEE9"/><path d="M45.457 10.064c-.036 0-.649-.36-.649-.36-.036-.073-.036-2.417-.036-2.417l-.505.072c-.072-.036-.36-.686-.36-.686.071-.108.973-.216.973-.216.036 0 .613.325.613.325.036.072.036 3.21.036 3.21-.036.072-.072.072-.072.072zm-.54-.505l.468.253V6.854l-.505-.289-.793.108.216.505.541-.072c.072.072.072 2.453.072 2.453z" fill="#231F20"/><path d="M47.621 45.592l1.119-.65.937-.108-1.118.65-.938.108z" fill="#F4EEE9"/><path d="M47.621 45.7c-.036-.144 1.082-.793 1.082-.793.037 0 .938-.109.938-.109.036.145-1.082.794-1.082.794l-.938.108zm1.155-.65l-.758.434.541-.073.758-.432-.541.072z" fill="#231F20"/><path d="M49.1 45.845l1.118-.65v3.138l-1.118.65v-3.138z" fill="#F4EEE9"/><path d="M49.1 49.055c-.072-.072-.072-3.21-.072-3.21.036-.073 1.154-.722 1.154-.722.109.072.109 3.21.109 3.21-.036.072-1.155.722-1.155.722H49.1zm.108-3.175v2.958l.974-.54v-2.959l-.974.541z" fill="#231F20"/><path d="M48.56 45.484l1.117-.65.541.361-1.118.65-.54-.361z" fill="#F4EEE9"/><path d="M49.1 45.916c-.036 0-.613-.324-.613-.324 0-.144 1.118-.794 1.118-.794.072 0 .65.325.65.325 0 .144-1.119.794-1.119.794H49.1zm-.397-.432l.397.252.974-.54-.397-.253-.974.54z" fill="#231F20"/><path d="M49.1 45.844v3.138l-.613-.36v-2.453l-.577.072-.288-.65.937-.108.541.361z" fill="#F4EEE9"/><path d="M49.1 49.054c-.036 0-.649-.36-.649-.36-.036-.073-.036-2.417-.036-2.417l-.505.072c-.072-.036-.36-.685-.36-.685.072-.108.973-.217.973-.217.036 0 .613.325.613.325.036.072.036 3.21.036 3.21-.036.072-.036.072-.072.072zm-.54-.505l.468.253v-2.958l-.505-.288-.793.108.216.505.541-.072c.072.072.072 2.452.072 2.452z" fill="#231F20"/><path d="M50.687 42.202c-.036-.288-.036-.325-.036-.397-.324-1.01-.36-1.046-.397-1.118a.497.497 0 00-.108-.144c-1.19-.541-2.308.108-2.308.108.974.325.469.613.469.613-.18.794-.18.83-.18.902v.433c.18.685.18.721.216.757.36.18 1.19-.324 1.19-.324 0 .252 0 .288-.036.36 0 .073 0 .109-.036.145 0 .072-.036.108-.036.144-.289.397.83-.252.83-.252.36-1.047.36-1.083.36-1.119.072 0 .072-.072.072-.108zm-1.442-.65c.036.11.072.145.072.217.036.073.036.108.072.145.036.072.036.108.036.18s.036.108.036.144c0 .072.036.108.036.18 0 .073 0 .145.036.18v.181c-.288-.865-.288-.938-.288-.974.036-.108 0-.18 0-.252z" fill="#F4EEE9"/><path d="M49.209 44.222c.252-.721.252-.757.252-.83v-.18c0-.036-.685.36-.685.36-.253 0-.289-.035-.289-.035-.433-1.01-.433-1.082-.433-1.118v-.433c.217-.794.613-1.046.613-1.046-.865-.361.253-1.01.253-1.01 1.154.397 1.19.432 1.19.432.108.145.145.18.18.253.037.072.073.144.109.18.324 1.155.324 1.371.324 1.371v.325c-.396 1.046-1.514 1.695-1.514 1.695v.036zm.396-.794c0 .073 0 .109-.036.18 0 .073-.036.109-.036.181-.036.108.721-.324.721-.324.325-1.263.325-1.407.325-1.407-.036-.325-.036-.325-.036-.36-.288-.794-.288-.83-.325-.867l-1.118-.685c-.036.036-.83.469-.83.469.65.505.145.794.145.794-.144.721-.144.757-.144.83v.432c.469.866 1.262.397 1.262.397.072.252.072.288.072.36zm-.072-.54l-.216-.217c-.145-.758-.145-.794-.145-.866v-.216c.253.252.289.288.289.325a.325.325 0 01.036.18c0 .072.036.108.036.18s.036.108.036.18c0 .073 0 .145.036.18v.181c-.036.072-.036.072-.072.072zm-.144-.614v-.144c-.072.144 0 .144 0 .144z" fill="#231F20"/><path d="M48.523 40.759c-.685-.397-1.046 0-1.046 1.046s.36 1.84 1.046 2.236c.685.397 1.046 0 1.046-1.046s-.36-1.84-1.046-2.236zm0 2.741c-.252-.144-.36-.469-.36-1.334 0-.83.108-1.046.396-.866.253.144.36.469.36 1.299-.035.865-.143 1.046-.396.901z" fill="#F4EEE9"/><path d="M48.956 44.294a.987.987 0 01-.505-.144c-.685-.397-1.082-1.227-1.082-2.309 0-.65.144-1.046.397-1.19.18-.109.469-.072.757.108.685.397 1.082 1.226 1.082 2.308 0 .65-.144 1.046-.396 1.227-.073-.036-.145 0-.253 0zm-.902-3.607c-.072 0-.144 0-.18.036-.217.108-.325.505-.325 1.082 0 1.046.361 1.803.974 2.164.253.144.433.18.577.108.217-.108.325-.505.325-1.082 0-1.01-.36-1.803-.974-2.164a.542.542 0 00-.397-.144zm.613 2.958a.275.275 0 01-.18-.073c-.325-.18-.433-.54-.397-1.406 0-.613.072-.902.217-.974.108-.072.252 0 .288.036.325.18.433.54.397 1.37 0 .614-.072.902-.216.974-.036.036-.073.072-.109.072zm-.288-2.309c-.072.036-.144.217-.144.83 0 .865.108 1.118.324 1.262.18 0 .253-.18.253-.83 0-.865-.108-1.118-.325-1.262h-.108z" fill="#231F20"/><path d="M47.657 36.323l1.119-.65.901-.108-1.118.65-.901.108z" fill="#F4EEE9"/><path d="M47.657 36.395c-.036-.144 1.083-.794 1.083-.794.036 0 .937-.108.937-.108.037.144-1.082.794-1.082.794l-.938.108zm1.155-.65l-.758.434.541-.073.758-.433-.541.073z" fill="#231F20"/><path d="M49.136 36.539l1.119-.65v3.139l-1.119.649v-3.138z" fill="#F4EEE9"/><path d="M49.136 39.749c-.072-.072-.072-3.21-.072-3.21.036-.072 1.154-.722 1.154-.722.109.072.109 3.21.109 3.21-.036.073-1.155.722-1.155.722h-.036zm.072-3.174v2.958l.974-.541v-2.958l-.974.54z" fill="#231F20"/><path d="M48.56 36.215l1.117-.65.578.325-1.119.65-.577-.325z" fill="#F4EEE9"/><path d="M49.136 36.611c-.036 0-.613-.324-.613-.324 0-.145 1.118-.794 1.118-.794.073 0 .65.325.65.325 0 .144-1.119.793-1.119.793h-.036zm-.396-.396l.396.252.974-.541-.396-.253-.974.542z" fill="#231F20"/><path d="M49.136 36.539v3.138l-.613-.36V36.9l-.613.072-.252-.65.901-.108.577.325z" fill="#F4EEE9"/><path d="M49.136 39.75c-.036 0-.649-.362-.649-.362-.036-.072-.036-2.416-.036-2.416l-.505.072c-.072-.036-.36-.685-.36-.685.072-.109.973-.217.973-.217.036 0 .613.325.613.325.037.072.037 3.21.037 3.21-.037.072-.073.072-.073.072zm-.54-.47l.468.253v-2.958l-.505-.289-.793.109.216.505.541-.073c.072.073.072 2.453.072 2.453z" fill="#231F20"/><path d="M50.687 32.895c-.036-.288-.036-.324-.036-.396-.324-1.01-.36-1.046-.397-1.118-.035-.073-.072-.109-.108-.145-1.19-.54-2.308.108-2.308.108.974.325.469.614.469.614-.18.793-.18.83-.18.901v.433c.18.686.18.722.216.758.36.18 1.19-.325 1.19-.325 0 .253 0 .289-.036.36 0 .073 0 .109-.036.145 0 .072-.036.108-.036.144-.289.397.83-.252.83-.252.36-1.046.36-1.082.36-1.118.072 0 .072-.072.072-.108zm-1.406-.613c.036.109.072.145.072.217.036.072.036.108.072.144a.325.325 0 01.036.18c0 .072.036.109.036.145 0 .072.036.108.036.18s0 .144.036.18v.18c-.288-.865-.288-.937-.288-.973v-.253z" fill="#F4EEE9"/><path d="M49.209 34.915c.252-.721.252-.757.252-.83v-.18c0-.036-.685.361-.685.361-.145.036-.217 0-.217 0-.433-.505-.433-.577-.433-.577-.072-.469-.072-.541-.072-.577v-.433l.036-.36c.18-.434.613-.686.613-.686-.865-.36.253-1.01.253-1.01 1.335.613 1.37.65 1.37.685a.784.784 0 00.109.18c.325 1.119.325 1.371.325 1.371v.325c-.397 1.046-1.515 1.695-1.515 1.695 0 .036 0 .036-.036.036zm.36-1.226c.072.325.072.397.072.433 0 .072 0 .108-.036.18 0 .072-.036.108-.036.18-.036.109.722-.324.722-.324.324-.974.324-1.01.324-1.082v-.397c-.324-1.118-.36-1.154-.397-1.226l-1.118-.686c-.036.036-.83.47-.83.47.65.504.145.793.145.793-.108.324-.144.649-.144.649v.397c.469 1.082 1.298.577 1.298.577v.036zm0-.108l-.216-.217c-.145-.757-.145-.793-.145-.865v-.217c.253.253.29.289.29.325a.326.326 0 01.035.18c0 .072.036.108.036.18 0 .073.036.109.036.18 0 .073 0 .145.036.181v.18c-.036.073-.036.073-.072.073zm-.18-.686c.072.18.036.145.036.109 0-.072-.036-.108-.036-.145-.072.036 0 .036 0 .036z" fill="#231F20"/><path d="M48.56 31.453c-.686-.397-1.047 0-1.047 1.046s.36 1.84 1.046 2.236c.686.397 1.046 0 1.046-1.046-.036-1.046-.396-1.84-1.046-2.236zm0 2.741c-.253-.144-.361-.469-.361-1.334 0-.83.108-1.046.396-.866.253.144.361.469.361 1.298-.036.866-.144 1.047-.397.902z" fill="#F4EEE9"/><path d="M48.992 34.988a.986.986 0 01-.505-.145c-.685-.396-1.082-1.226-1.082-2.308 0-.65.144-1.046.397-1.19.18-.109.469-.073.757.108.686.396 1.082 1.226 1.082 2.308 0 .65-.144 1.046-.396 1.227-.073-.036-.145 0-.253 0zm-.902-3.607c-.072 0-.144 0-.18.036-.216.108-.325.505-.325 1.082 0 1.046.361 1.803.974 2.164.253.144.433.18.577.108.217-.108.325-.505.325-1.082 0-1.01-.36-1.803-.974-2.164-.144-.072-.288-.144-.397-.144zm.613 2.957a.275.275 0 01-.18-.072c-.325-.18-.433-.54-.397-1.407 0-.613.073-.901.217-.973.108-.072.252 0 .288.036.325.18.433.54.397 1.37 0 .614-.072.902-.216.974-.036.072-.072.072-.108.072zm-.108-.216c.18 0 .253-.18.253-.83 0-.865-.108-1.118-.325-1.262-.18 0-.252.18-.252.793-.036.938.108 1.19.324 1.299z" fill="#231F20"/><path d="M47.694 27.017l1.118-.65.902-.108-1.119.65-.901.108z" fill="#F4EEE9"/><path d="M47.694 27.089c-.037-.144 1.082-.794 1.082-.794.036 0 .938-.108.938-.108.036.144-1.083.794-1.083.794-.036 0-.937.108-.937.108zm1.118-.65l-.758.433.541-.072.758-.433-.541.072z" fill="#231F20"/><path d="M49.172 27.233l1.119-.65v3.139l-1.119.649v-3.138z" fill="#F4EEE9"/><path d="M49.172 30.443c-.072-.072-.072-3.21-.072-3.21.036-.073 1.154-.722 1.154-.722.109.072.109 3.21.109 3.21-.036.073-1.154.722-1.154.722h-.037zm.073-3.174v2.957l.974-.54v-2.958l-.974.54z" fill="#231F20"/><path d="M48.595 26.909l1.118-.65.578.325-1.119.65-.577-.326z" fill="#F4EEE9"/><path d="M49.172 27.305c-.036 0-.613-.324-.613-.324 0-.145 1.118-.794 1.118-.794.072 0 .65.325.65.325 0 .144-1.118.793-1.118.793h-.037zm-.396-.397l.396.253.974-.541-.397-.253-.973.541z" fill="#231F20"/><path d="M49.172 27.233v3.138l-.649-.36.036-2.418-.613.073-.252-.65.901-.108.577.325z" fill="#F4EEE9"/><path d="M49.172 30.443c-.036 0-.649-.36-.649-.36-.036-.073-.036-2.417-.036-2.417l-.505.072c-.072-.036-.36-.686-.36-.686.072-.108.973-.216.973-.216.036 0 .614.325.614.325.036.072.036 3.21.036 3.21l-.073.072zm-.54-.469l.468.253v-2.958l-.505-.289-.793.108.216.505.541-.072c.072.072.072 2.453.072 2.453z" fill="#231F20"/><path d="M50.724 23.589c-.037-.289-.037-.325-.037-.397-.324-1.01-.36-1.046-.396-1.118a.495.495 0 00-.109-.144c-1.19-.541-2.308.108-2.308.108.974.325.469.613.469.613-.18.794-.18.83-.18.902v.432c.18.686.18.722.216.758.36.18 1.19-.324 1.19-.324 0 .324-.036.432-.036.505 0 .072-.036.108-.036.144-.288.396.83-.253.83-.253.36-1.046.36-1.082.36-1.118.037 0 .037-.036.037-.108zm-1.407-.613c.108.252.144.324.144.36.036.073.036.109.036.18 0 .073.036.109.036.181s.036.108.036.18c0 .073 0 .145.036.18v.181c-.288-.866-.288-.938-.288-.974v-.288z" fill="#F4EEE9"/><path d="M49.245 25.609c.252-.758.252-.866.288-.974 0-.036-.685.36-.685.36-.145.037-.145-.072-.145-.072-.54-.973-.54-1.046-.54-1.082v-.432l.036-.361c.18-.433.613-.685.613-.685-.866-.361.252-1.01.252-1.01 1.154.396 1.19.432 1.19.432.109.145.145.217.18.253.037.072.073.144.11.18.324 1.118.324 1.37.324 1.37v.325c-.397 1.046-1.515 1.696-1.515 1.696h-.108zm.36-1.227c.072.397.036.505.036.614 0 .072-.036.108-.036.18-.036.108.722-.325.722-.325.324-.974.324-1.01.324-1.082v-.396c-.324-1.119-.36-1.155-.397-1.227-.18-.216-.144-.288-.144-.288-.974-.397-.974-.397-1.01-.397-.036.036-.83.469-.83.469.65.505.145.793.145.793-.108.325-.144.65-.144.65v.575c.432.866 1.262.397 1.262.397a.112.112 0 00.072.036zm0-.108l-.216-.216c-.144-.758-.144-.794-.144-.866v-.216c.252.252.288.288.288.324.036.072.036.108.036.18 0 .073.036.109.036.181s.036.108.036.18 0 .145.036.18v.181c-.036.072-.072.072-.072.072zm-.18-.685c.072.18.036.144.036.108 0-.072-.036-.108-.036-.144-.072.036 0 .036 0 .036z" fill="#231F20"/><path d="M48.595 22.146c-.685-.396-1.046 0-1.046 1.046s.361 1.84 1.046 2.237c.686.396 1.046 0 1.046-1.046-.036-1.046-.396-1.84-1.046-2.237zm-.036 2.742c-.252-.145-.36-.47-.36-1.335 0-.83.108-1.046.396-.866.253.145.361.47.361 1.299 0 .866-.108 1.082-.397.902z" fill="#F4EEE9"/><path d="M49.028 25.681a.986.986 0 01-.505-.144c-.685-.397-1.082-1.227-1.082-2.309 0-.649.144-1.046.397-1.19.18-.108.469-.072.757.108.686.397 1.082 1.226 1.082 2.309 0 .649-.144 1.046-.396 1.226-.072-.036-.18 0-.253 0zm-.902-3.607c-.072 0-.144 0-.18.036-.216.108-.325.505-.325 1.082 0 1.046.361 1.804.974 2.164.253.145.433.18.577.109.217-.109.325-.505.325-1.082 0-1.01-.36-1.804-.974-2.165-.144-.072-.288-.144-.397-.144zm.578 2.958a.275.275 0 01-.18-.072c-.325-.18-.434-.541-.398-1.407 0-.613.073-.902.217-.974.108-.072.252 0 .288.036.325.18.433.541.397 1.37 0 .614-.072.902-.216.975-.036.072-.072.072-.108.072zm-.109-.217c.18 0 .253-.18.253-.83 0-.865-.108-1.117-.325-1.262-.18 0-.252.18-.252.794 0 .938.144 1.19.324 1.298z" fill="#231F20"/><path d="M47.694 17.71l1.118-.65.938-.108-1.119.65-.937.108z" fill="#F4EEE9"/><path d="M47.694 17.782c-.037-.145 1.082-.794 1.082-.794.036 0 .938-.108.938-.108.036.144-1.083.793-1.083.793s-.901.109-.937.109zm1.154-.65l-.758.433.541-.072.758-.433-.541.072z" fill="#231F20"/><path d="M49.209 17.927l1.118-.65-.036 3.138-1.119.65.037-3.138z" fill="#F4EEE9"/><path d="M49.172 21.137c-.072-.072-.072-3.21-.072-3.21.036-.073 1.154-.722 1.154-.722.109.072.109 3.21.109 3.21-.036.072-1.154.722-1.154.722h-.037zm.109-3.175v2.958l.974-.54v-2.958l-.974.54z" fill="#231F20"/><path d="M48.631 17.601l1.119-.649.577.325-1.118.649-.578-.325z" fill="#F4EEE9"/><path d="M49.209 17.998c-.037 0-.614-.325-.614-.325 0-.144 1.119-.793 1.119-.793.072 0 .649.325.649.325 0 .144-1.118.793-1.118.793h-.036zm-.433-.397l.396.253.974-.541-.396-.253-.974.541z" fill="#231F20"/><path d="M49.209 17.927l-.037 3.138-.613-.36v-2.418l-.577.073-.288-.65.937-.108.578.325z" fill="#F4EEE9"/><path d="M49.172 21.137c-.036 0-.649-.36-.649-.36-.036-.073-.036-2.418-.036-2.418l-.505.072c-.072-.036-.36-.685-.36-.685.072-.108.973-.216.973-.216.036 0 .614.324.614.324.036.073.036 3.21.036 3.21-.036.073-.036.073-.072.073zm-.54-.47l.468.253v-2.957l-.505-.289-.793.108.216.505.541-.072c.108.072.072 2.453.072 2.453z" fill="#231F20"/><path d="M59.272 55.08c-.036-.361-.108-.722-.18-1.083-.433-2.525-1.299-4.833-2.417-6.961-.144-.253-.288-.505-.397-.722-.108-.144-.18-.288-.288-.469-.47 1.407-1.912 4.581-5.916 4.87a4.082 4.082 0 01-.938 0c-6.023-.253-22.11-7.936-24.022-10.064-.65-.757-.613-1.911-.217-3.102a21.947 21.947 0 00-6.023 4.87c-4.293 4.905-6.529 11.578-6.024 18.612.036.397.072.83.108 1.262.217 1.84.47 3.607.794 5.23 1.659 8.297 5.086 13.743 13.31 14.825 3.462.433 7.755.109 13.093-1.118 3.246-.757 6.24-2.056 8.837-3.823a25.446 25.446 0 003.715-3.066c4.04-4.076 6.529-9.487 6.745-15.366.037-1.299-.036-2.561-.18-3.896z" fill="#F4EEE9"/><path d="M30.164 82.637a28.81 28.81 0 01-3.139-.18c-3.967-.505-6.961-2.057-9.161-4.726-1.948-2.38-3.319-5.59-4.22-10.135-.325-1.551-.578-3.283-.794-5.23-.036-.433-.072-.83-.108-1.263-.505-6.925 1.695-13.743 6.023-18.684a22.652 22.652 0 016.06-4.906c-.324 1.48-.252 2.489.325 3.138 1.912 2.128 18.035 9.811 23.95 10.028h.938c3.968-.289 5.41-3.463 5.844-4.798.252.145.324.289.432.433.145.253.289.505.397.722 1.19 2.164 1.984 4.544 2.453 6.997.072.361.108.722.18 1.082.18 1.299.217 2.597.18 3.896-.216 5.735-2.596 11.218-6.78 15.402a28.215 28.215 0 01-3.716 3.102c-2.669 1.803-5.663 3.102-8.873 3.86-3.823.829-7.106 1.262-9.991 1.262zm-5.41-44.907c-2.201 1.226-4.149 2.85-5.844 4.76-4.293 4.906-6.493 11.688-5.988 18.577.036.397.072.83.108 1.226.217 1.984.505 3.68.794 5.23 1.912 9.379 5.843 13.78 13.238 14.753 3.534.469 7.79.108 13.057-1.118a25.632 25.632 0 008.801-3.823 25.136 25.136 0 003.68-3.066c4.111-4.185 6.528-9.595 6.708-15.294.036-1.263 0-2.561-.18-3.86-.036-.36-.108-.721-.18-1.082a23.47 23.47 0 00-2.417-6.961 15.74 15.74 0 01-.397-.722c-.072-.108-.108-.216-.18-.324-.505 1.442-2.02 4.472-5.952 4.761a4.082 4.082 0 01-.938 0c-5.951-.252-22.147-7.935-24.058-10.1-.541-.613-.65-1.623-.253-2.957z" fill="#231F20"/><path d="M12.814 59.84c8.476 7.755 15.654 10.208 26.872 11.615 6.132.757 9.017 1.55 12.444-4.87 5.7-10.677.938-10.1-8.152-12.66-6.673-1.876-8.548-2.994-14.68-6.277-2.164-1.154-6.204-4.725-8.549-5.158-6.528-1.226-8.368 11.434-7.935 17.35z" fill="#231F20"/><path d="M44.844 72.068c-1.19 0-2.56-.18-4.148-.397-.325-.036-.685-.072-1.046-.144-10.64-1.335-18.071-3.571-26.908-11.615-.361-4.833.721-13.31 4.184-16.411 1.118-1.01 2.38-1.371 3.823-1.082 1.515.288 3.716 1.839 5.663 3.246 1.082.793 2.128 1.515 2.922 1.947.433.217.83.433 1.226.65 5.122 2.741 7.25 3.895 13.454 5.627 1.155.324 2.2.577 3.247.865 3.679.938 6.312 1.588 7.142 3.463.721 1.66.072 4.184-2.2 8.44-2.345 4.329-4.401 5.411-7.359 5.411zM12.886 59.804c8.801 8.008 16.195 10.244 26.8 11.579.36.036.685.072 1.046.144 5.41.685 8.116 1.046 11.326-4.942 2.2-4.148 2.886-6.709 2.2-8.296-.793-1.803-3.426-2.489-7.033-3.39-.974-.253-2.092-.541-3.247-.866-6.204-1.731-8.332-2.886-13.49-5.627-.397-.216-.793-.433-1.226-.65-.794-.432-1.84-1.153-2.922-1.947-1.948-1.37-4.112-2.958-5.59-3.21-1.371-.253-2.598.108-3.68 1.046-3.427 3.03-4.509 11.434-4.184 16.16z" fill="#231F20"/><path d="M11.551 57.928a5.102 5.102 0 001.84 4.04c7.755 6.529 14.68 8.729 25.105 10.064 6.132.757 9.017 1.55 12.444-4.87 5.699-10.677.938-10.1-8.152-12.66-6.673-1.876-8.549-2.994-14.68-6.277-2.165-1.154-6.205-4.725-8.55-5.158-5.734-1.046-7.862 8.513-8.007 14.861z" fill="#C92727"/><path d="M43.618 72.645c-1.19 0-2.561-.18-4.148-.397-.325-.036-.686-.072-1.047-.144-9.81-1.227-17.06-3.283-25.14-10.064a5.027 5.027 0 01-1.84-4.112c.108-4.905 1.37-11.506 4.473-14.031 1.082-.866 2.272-1.19 3.607-.938 1.515.289 3.715 1.84 5.663 3.246 1.082.794 2.128 1.516 2.922 1.948.432.217.83.433 1.226.65 5.122 2.74 7.25 3.895 13.454 5.627 1.154.324 2.2.577 3.246.865 3.68.938 6.313 1.587 7.142 3.463.722 1.66.072 4.184-2.2 8.44-2.345 4.365-4.4 5.447-7.358 5.447zm-31.995-14.68a5.046 5.046 0 001.804 4.003c8.044 6.781 15.258 8.801 25.033 10.028.36.036.685.072 1.046.144 5.41.685 8.115 1.046 11.326-4.942 2.2-4.148 2.885-6.709 2.2-8.296-.794-1.803-3.427-2.489-7.034-3.39-.974-.253-2.092-.541-3.246-.866-6.24-1.732-8.332-2.886-13.49-5.627a37.9 37.9 0 00-1.227-.65c-.793-.432-1.84-1.154-2.921-1.947-1.948-1.37-4.112-2.958-5.591-3.21-1.299-.253-2.453.072-3.499.901-3.066 2.417-4.292 8.982-4.4 13.851z" fill="#231F20"/><path d="M53.934 60.201c-1.263-.072-1.335-.072-1.37-.072-1.12.541-1.191.577-1.227.613a.633.633 0 00-.18.144c-1.948 2.525-1.984 2.597-1.984 2.67-.073.108-.109.18-.109.288a.588.588 0 01-.108.217c-.577 3.39-.577 3.462-.577 3.534.144 1.155.65 1.948 1.37 2.237l1.804.793a2.37 2.37 0 01-.613-.433c-.18-.18-.216-.288-.289-.396-.216-.361-.396-.866-.469-1.443 0-.072 0-.144-.036-.216.614-3.355.614-3.427.65-3.463l.144-.289a.59.59 0 01.108-.216c1.984-2.525 2.02-2.561 2.092-2.597.072-.036.108-.072.18-.108 1.263-.542 1.335-.578 1.371-.578 1.046.109-.757-.685-.757-.685z" fill="#231F20"/><path d="M51.553 70.697c-.036 0-1.84-.793-1.84-.793-.757-.325-1.262-1.154-1.406-2.309 0-.072 0-.144-.036-.216.613-3.39.649-3.463.649-3.499l.144-.288a.59.59 0 01.108-.217c1.984-2.56 2.056-2.597 2.093-2.633.072-.036.108-.072.18-.108 1.298-.577 1.37-.577 1.407-.577 1.082.144 2.885.938 2.885.938-2.489.613-2.525.649-2.597.685a.633.633 0 00-.18.144c-1.912 2.525-1.948 2.561-1.984 2.633-.072.108-.072.18-.108.253a.586.586 0 01-.108.216c-.578 3.355-.578 3.427-.541 3.499.072.54.216 1.046.468 1.407.073.108.109.18.18.252.253.289.47.433.686.505.072.108.036.108 0 .108zm1.154-10.568c-1.226.649-1.262.685-1.334.721a.633.633 0 00-.18.145c-1.912 2.524-1.948 2.56-1.984 2.633-.073.108-.073.18-.109.252a.587.587 0 01-.108.217c-.577 3.354-.577 3.426-.541 3.498.144 1.082.613 1.876 1.299 2.2l1.118.47c-.18-.18-.217-.29-.289-.397-.252-.397-.397-.902-.469-1.48 0-.071 0-.144-.036-.216.613-3.39.613-3.462.65-3.498l.144-.289a.59.59 0 01.108-.216c1.984-2.561 2.056-2.597 2.092-2.633.072-.037.108-.073.18-.109 1.299-.577 1.371-.577 1.407-.577.325-.036-.757-.505-.757-.505-1.155-.144-1.19-.216-1.19-.216z" fill="#231F20"/><path d="M53.14 61.57c-1.912 1.407-3.21 4.473-2.958 6.818.289 2.345 2.056 3.102 3.968 1.695 1.912-1.406 3.21-4.472 2.958-6.817-.289-2.38-2.056-3.102-3.968-1.695z" fill="#C92727"/><path d="M52.31 70.877c-.288 0-.54-.036-.793-.144-.758-.325-1.263-1.155-1.407-2.309-.288-2.38 1.046-5.447 2.994-6.89.938-.72 1.912-.901 2.67-.576.757.324 1.262 1.154 1.406 2.308.288 2.38-1.046 5.447-2.994 6.89-.613.468-1.262.72-1.876.72zm.902-9.234c-1.875 1.407-3.174 4.436-2.921 6.745.144 1.118.613 1.876 1.298 2.2.721.325 1.623.109 2.525-.54 1.876-1.407 3.174-4.437 2.922-6.746-.145-1.118-.614-1.876-1.299-2.2-.757-.325-1.623-.144-2.525.54zm-40.073-2.957c-.037-.145 13.814-4.473 13.814-4.473l.036.144-13.85 4.329zm24.931-2.3l-13.88 4.316.042.138 13.881-4.316-.043-.138zM19.503 71.315l-.051.135 7.18 2.733.052-.135-7.18-2.733zm3.663 3.783l-2.272-.902c.072-.144 2.344.757 2.344.757l-.072.145zm19.478 31.092c-.072-.145 15.654-8.513 15.654-8.513.072.144-15.654 8.513-15.654 8.513z" fill="#231F20"/></svg>