<svg width="49" height="48" fill="none" xmlns="http://www.w3.org/2000/svg"><path d="M12.995 36.914L16.452 39l19.592-27.513L32.74 9 12.995 36.914zM8.5 17.142c0 4.17 3.188 7.099 7.376 7.099 4.187 0 7.337-2.928 7.337-7.1 0-4.21-3.15-7.138-7.337-7.138-4.188 0-7.376 2.928-7.376 7.139zm4.34 0c0-1.965 1.422-3.249 3.036-3.249 1.613 0 2.996 1.284 2.996 3.249 0 2.005-1.344 3.288-2.996 3.288-1.575 0-3.035-1.283-3.035-3.288zm12.947 14.077c0 4.171 3.188 7.14 7.376 7.14 4.149 0 7.337-2.969 7.337-7.14 0-4.211-3.188-7.099-7.337-7.099-4.188 0-7.376 2.888-7.376 7.1zm4.34 0c0-2.005 1.422-3.289 3.036-3.289 1.575 0 2.996 1.284 2.996 3.29 0 1.965-1.383 3.248-2.996 3.248-1.575 0-3.035-1.284-3.035-3.249z" fill="#00ACA5"/></svg>