<svg width="358" height="352" fill="none" xmlns="http://www.w3.org/2000/svg"><path d="M309.618 302.026c-7.191 7.557-13.978 12.443-19.359 16.291-63.142 45.29-137.856 32.088-153.733 28.873-23.448-4.76-68.776-13.962-101.543-52.493-49.581-58.29-41.858-150.111-3.406-210.73C38.617 72.88 75.765 11.336 151.29 1.475c45.707-5.974 98.973 6.076 137.565 38.392 80.981 67.821 75.208 204.856 20.764 262.159z" fill="#fff"/><path d="M184.892 229.431l-6.305 56.518h73.131l-9.534-56.518h-57.292z" fill="url(#paint0_linear_25_1580)"/><path d="M57.647 86.168v133.187c0 10.962 8.736 19.911 19.688 20.202 48.657 1.253 218.837 4.291 265.152 3.608 7.964-.114 14.408-6.481 14.636-14.443.899-30.936 2.343-105.34-3.026-139.883a15.296 15.296 0 00-14.636-12.95c-40.769-1.303-221.167-5.442-267.47-4.404-7.963.177-14.344 6.696-14.344 14.683z" fill="url(#paint1_linear_25_1580)"/><path d="M66.016 85.522v126.529c0 6.392 5.14 11.608 11.534 11.709l258.29 3.19c6.343.088 11.547-5.013 11.559-11.355l.431-125.402c.012-4.532-3.596-8.253-8.129-8.354L75.259 76.497c-5.065-.127-9.243 3.95-9.243 9.025z" fill="url(#paint2_linear_25_1580)"/><path d="M349.336 232.191l-283.333-4.822a.403.403 0 01-.405-.418.41.41 0 01.418-.405l283.333 4.823c.228 0 .418.189.405.417a.42.42 0 01-.418.405z" fill="#91B3FA"/><path d="M267.469 297.505H160.443c-2.912 0-5.089-2.064-4.532-4.292l1.367-5.43c.418-1.633 2.216-2.835 4.343-2.898l103.176-3.216c2.229-.063 4.204 1.114 4.685 2.81l2.482 8.646c.645 2.253-1.545 4.38-4.495 4.38z" fill="url(#paint3_linear_25_1580)"/><path d="M66.016 85.522v126.529c0 6.392 5.14 11.608 11.534 11.709l258.29 3.19c6.343.088 11.547-5.013 11.559-11.355l.431-125.402c.012-4.532-3.596-8.253-8.129-8.354L75.259 76.497c-5.065-.127-9.243 3.95-9.243 9.025z" fill="#91B3FA"/><path d="M347.779 104.864l.051-14.696a8.315 8.315 0 00-8.129-8.342L75.334 76.497c-5.077-.127-9.179 3.962-9.179 9.038v19.341h281.624v-.012z" fill="url(#paint4_linear_25_1580)"/><path d="M83.02 96.725a3.026 3.026 0 100-6.05 3.026 3.026 0 000 6.05zm10.483 0a3.026 3.026 0 10.001-6.05 3.026 3.026 0 000 6.05zm10.167 0a3.025 3.025 0 10.002-6.05 3.025 3.025 0 00-.002 6.05zm228.409 123.301l-248.262-3.582a6.895 6.895 0 01-6.799-6.899v-24.847c0-3.507 2.874-6.342 6.382-6.304l248.856 2.823a5.211 5.211 0 015.154 5.215v28.341a5.266 5.266 0 01-5.331 5.253zm-89.375-44.733l-158.71-2.278c-3.874-.051-6.988-3.215-6.988-7.089v-49.113a5.03 5.03 0 015.026-5.025h159.621a5.77 5.77 0 015.773 5.772v53.1a4.655 4.655 0 01-4.722 4.633z" fill="#BDD0FB"/><path opacity=".42" d="M335.814 175.356h-82.64c-.81 0-1.456-.658-1.456-1.455v-60.303c0-1 .811-1.823 1.824-1.823h82.766c.608 0 1.102.494 1.102 1.102v60.897a1.602 1.602 0 01-1.596 1.582z" fill="#fff"/><path d="M16.067 313.268a3.669 3.669 0 003.66 3.658h198.047a3.669 3.669 0 003.659-3.658l1.646-113.783c0-2.012-2.368-5.936-6.711-5.645l-193.552-5.013a9.234 9.234 0 00-6.761 2.696 9.232 9.232 0 00-2.71 6.747l2.722 114.998z" fill="url(#paint5_linear_25_1580)"/><path d="M19.688 309.761a3.474 3.474 0 003.47 3.469h189.855a3.474 3.474 0 003.469-3.469l1.557-103.289c-.177-6.215-5.634-8.455-8.939-8.316l-185.5-4.975a6.473 6.473 0 00-6.647 6.633l2.735 109.947z" fill="#91B3FA"/><path d="M.722 326.369h232.055a.722.722 0 00.722-.722v-8.569a.722.722 0 00-.722-.722H.722a.722.722 0 00-.722.722v8.569c0 .405.317.722.722.722z" fill="url(#paint6_linear_25_1580)"/><path d="M217.862 216.89l.152-10.354c-.177-6.216-5.634-8.481-8.939-8.355l-185.5-4.987a6.462 6.462 0 00-4.748 1.886c-1.253 1.253-1.95 3.038-1.899 4.81l.43 17h200.504z" fill="url(#paint7_linear_25_1580)"/><path d="M214.418 260.687c-.012 0 0 0 0 0a.51.51 0 01-.506-.519l.126-8.379c0-.279.228-.507.507-.507h.012a.52.52 0 01.507.519l-.127 8.38c-.025.291-.24.506-.519.506zm.304-20.519c-.013 0-.013 0 0 0a.51.51 0 01-.506-.519l.468-32.088c-.013-1.911-.582-3.43-1.722-4.506-2.114-2.025-5.47-1.924-5.609-1.911l-59.292-1.595a.508.508 0 01-.494-.519c.012-.279.228-.519.519-.494l59.255 1.595c.367-.025 3.937-.089 6.318 2.19 1.342 1.278 2.025 3.05 2.038 5.253l-.468 32.088a.526.526 0 01-.507.506zm-80.867 29.341H30.159a4.836 4.836 0 01-4.836-4.835v-37.911a4.835 4.835 0 014.836-4.835h103.683a4.835 4.835 0 014.837 4.835v37.911a4.833 4.833 0 01-4.824 4.835z" fill="#BDD0FB"/><path d="M208.911 269.509h-60.85a3.453 3.453 0 01-3.457-3.456v-40.657a3.453 3.453 0 013.457-3.456h60.85a3.453 3.453 0 013.456 3.456v40.657a3.46 3.46 0 01-3.456 3.456zm-.798 39.215H29.589a4.247 4.247 0 01-4.254-4.253v-23.784c0-2.355 1.9-4.253 4.254-4.253h178.524a4.246 4.246 0 014.254 4.253v23.784a4.254 4.254 0 01-4.254 4.253zM29.106 205.253a2.38 2.38 0 10-4.633-1.09 2.38 2.38 0 004.633 1.09zm5.636 2.054a2.38 2.38 0 10.002-4.76 2.38 2.38 0 00-.002 4.76zm8.323.266a2.38 2.38 0 10-1.822-4.397 2.38 2.38 0 101.822 4.397z" fill="#BDD0FB"/><path d="M244.805 210.32c-.418 19.936-1.798 88.694-1.139 113.048.063 2.582 1.836 4.658 4.051 4.734 10.914.418 50.937 1.481 68.789.595 3.722-.177 6.672-3.709 6.748-8.063.368-20.924 1.19-79.771-.759-106.719-.228-3.228-2.406-5.798-5.153-6.127-11.889-1.392-52.076-4.785-67.498-3.62-2.798.228-4.975 2.886-5.039 6.152z" fill="url(#paint8_linear_25_1580)"/><path d="M249.667 216.434c-.582 16.088-2.443 69.619-1.848 89.403.088 2.899 2.038 5.228 4.507 5.405 10.167.696 44.884 2.228 59.799.836 2.684-.253 4.799-2.798 4.938-5.937.76-16.417 2.925-66.252 2.368-85.821-.089-3.126-2.153-5.671-4.824-5.949-11.003-1.152-47.885-3.911-60.559-3.101-2.38.139-4.28 2.379-4.381 5.164z" fill="#91B3FA"/><path opacity=".5" d="M271.774 207.663c0 .607.405 1.114.924 1.152 2.583.152 9.838.607 13.092.822.645.038 1.139-.633 1.025-1.367l-.025-.126c-.089-.507-.443-.886-.874-.924-2.19-.241-8.812-.886-13.205-.709-.519.025-.937.544-.937 1.152z" fill="#fff"/><path d="M319.519 226.396a279.806 279.806 0 00-.088-6.063c-.089-3.127-2.153-5.684-4.824-5.962-11.003-1.152-47.885-3.911-60.559-3.101-2.38.152-4.28 2.405-4.381 5.189-.088 2.494-.152 4.469-.291 8.355l70.143 1.582z" fill="url(#paint9_linear_25_1580)"/><path d="M283.954 260.686h-28.691c-1.696 0-3.064-1.417-3.064-3.164v-25.177c0-1.595 1.279-2.873 2.824-2.835l28.943.708c1.596.038 2.862 1.38 2.862 3.026v24.48c0 1.633-1.292 2.962-2.874 2.962zm28.754.001H293.26a3.887 3.887 0 01-3.887-3.886V233.32a3.04 3.04 0 013.039-3.038h20.511a3.052 3.052 0 013.051 3.051v24.088a3.274 3.274 0 01-3.266 3.266zm.126 24.682H254.63a3.475 3.475 0 01-3.469-3.469v-14.417a2.804 2.804 0 012.811-2.81h58.723a3.266 3.266 0 013.266 3.266v14.29a3.128 3.128 0 01-3.127 3.14zm-3.583 23.355l-55.152-.772c-1.634-.026-2.951-1.215-2.951-2.684v-13.354c0-1.291 1.165-2.329 2.609-2.329h58.026c1.38 0 2.495 1 2.495 2.228l.037 12.43c0 2.506-2.279 4.519-5.064 4.481zm-53.836-86.936a1.95 1.95 0 10.002-3.898 1.95 1.95 0 00-.002 3.898zm6.496.191a1.95 1.95 0 10-.001-3.9 1.95 1.95 0 00.001 3.9zm6.052.352a1.95 1.95 0 10.002-3.898 1.95 1.95 0 00-.002 3.898z" fill="#BDD0FB"/><path d="M331.37 53.222a14.109 14.109 0 00-8.04-11.823l-59.9-28.442a14.138 14.138 0 00-12.13 0l-59.9 28.43a14.11 14.11 0 00-8.04 11.822c-5.621 86.834 50.075 118.479 68.333 126.466a14.182 14.182 0 0011.357 0c18.245-7.987 73.942-39.619 68.32-126.453z" fill="url(#paint10_linear_25_1580)"/><path opacity=".74" d="M239.247 25.16c-.405 0-.798-.229-.975-.621a1.083 1.083 0 01.519-1.443l14.155-6.721a1.083 1.083 0 011.444.519c.253.544.025 1.19-.519 1.443l-14.168 6.721a.961.961 0 01-.456.101zm-51.303 46.872a1.07 1.07 0 01-1.077-1.05c-.19-5.659-.088-11.545.292-17.52a10.311 10.311 0 015.874-8.632l40.301-19.139a1.084 1.084 0 011.444.519c.253.544.025 1.19-.52 1.443l-40.3 19.139a8.153 8.153 0 00-4.647 6.822c-.38 5.9-.481 11.735-.291 17.317a1.07 1.07 0 01-1.051 1.114c0-.013-.013-.013-.025-.013z" fill="#fff"/><path d="M316.886 56.601a3.532 3.532 0 00-2.013-3.012l-56.001-26.595a3.52 3.52 0 00-3.026 0L199.845 53.59a3.539 3.539 0 00-2.013 3.012c-1.659 32.392 5.824 59.417 22.258 80.366 12.522 15.974 27.184 24.531 35.769 28.518a3.496 3.496 0 002.975 0c8.584-3.987 23.246-12.557 35.768-28.518 16.46-20.937 23.942-47.974 22.284-80.366z" fill="url(#paint11_linear_25_1580)"/><path d="M146.25 342.291c-3.596.316-9.85.823-14.776 1.038-2.962.126-4.659-.165-5.647-.557 0 .114 0 .215.013.316.025.519.443.937.962.962 9.306.519 16.713.178 19.347.026.544-.038.873-.62.595-1.089a8.889 8.889 0 00-.494-.696z" fill="url(#paint12_linear_25_1580)"/><path d="M131.474 343.316c4.926-.215 11.168-.721 14.776-1.038-3.545-4.341-14.776-7.265-14.776-7.265h-3.178c-2.177 3.139-2.494 6.139-2.468 7.746.974.405 2.684.697 5.646.557z" fill="url(#paint13_linear_25_1580)"/><path d="M127.765 329.848l.291 5.873a1.36 1.36 0 001.139 1.266 5.197 5.197 0 002.381-.203c.557-.19.962-.645 1.063-1.215l1.026-5.721h-5.9z" fill="url(#paint14_linear_25_1580)"/><path d="M90.946 349.063c-1.558-.278-2.267-1.329-2.558-2.456v.026c-.228 1.177.304 2.405 1.368 2.987 1.291.709 2.697.823 3.785.76 1.178-.064 2.241-.684 2.836-1.697l.013-.012c-1.19.772-2.849.86-5.444.392z" fill="url(#paint15_linear_25_1580)"/><path d="M98.302 331.659h-2.62c-3.99-.101-6.483 10.759-7.306 14.962.29 1.114 1 2.164 2.557 2.455 2.608.469 4.254.38 5.432-.367 2.152-3.658 3.216-9.025 3.735-12.151.582-3.57-1.798-4.899-1.798-4.899z" fill="url(#paint16_linear_25_1580)"/><path d="M96.023 326.203l-1.456 5.772a1.566 1.566 0 00.81 1.772c.81.418 1.963.861 3.014.734a1.29 1.29 0 001.063-.873l2.127-6.076-5.558-1.329z" fill="url(#paint17_linear_25_1580)"/><path d="M147.136 250.115s-12.977 81.138-12.775 81.581c0 0-3.583 1.633-7.495.202 0 0 1.177-43.378 3.925-60.011 0 0-22.157 38.771-29.197 58.087 0 0-3.672-.443-6.71-2.43 0 0 23.853-69.783 30.222-79.074l22.03 1.645z" fill="url(#paint18_linear_25_1580)"/><path d="M131.31 271.483a.32.32 0 01-.203-.063.402.402 0 01-.126-.532l4.849-7.746a.407.407 0 01.253-.177l3.571-.722a.394.394 0 01.455.304.395.395 0 01-.303.456l-3.406.683-4.761 7.608a.382.382 0 01-.329.189z" fill="url(#paint19_linear_25_1580)"/><path d="M206.72 170.661s-8.761 1.937-14.092 4.392a4.865 4.865 0 00-2.38 2.393c-1.595 3.493-6.356 12.24-15.611 16.417 1.329 1.772 3.481 5.443 4.406 11.62 5.558-4.126 10.344-11.038 12.648-22.354 0 0 1.748.95 3.938-.114 1.152-.557 2.494-1.354 3.494-1.987a4.564 4.564 0 002.026-2.721c.38-1.494.152-2.811.152-4.216l4.508-1.392s1.354-.506.911-2.038z" fill="url(#paint20_linear_25_1580)"/><path d="M179.043 205.484c-.937-6.177-3.077-9.848-4.406-11.62-5.749 2.595-13.219 3.43-22.727.127a9.99 9.99 0 00-2.723-.532c-5.064-.291-21.764-.835-35.578 3.722a10.694 10.694 0 00-6.47 5.898c-3.735 8.57-9.787 28.101 7.015 37.949a42.425 42.425 0 014.051-7.671c-2.709-4.557-3.507-10.785 1.292-18.898 3.494 9.443 5.14 23.227 5.482 29.328a13.17 13.17 0 01-1.025 5.874l-.089.202a.7.7 0 00.494.949c9.458 2.127 19.283 1.545 22.22 1.304a1.198 1.198 0 001.076-.924c4.596-19.367 4.609-32.582 3.482-40.923 4.292.949 17.448 3 27.906-4.785z" fill="url(#paint21_linear_25_1580)"/><path d="M151.15 210.775a.383.383 0 01-.38-.33c-1.076-8.151-3.279-11.708-3.304-11.746a.386.386 0 01.114-.532.386.386 0 01.531.114c.089.152 2.305 3.709 3.419 12.063a.378.378 0 01-.329.431h-.051z" fill="url(#paint22_linear_25_1580)"/><path d="M127.815 182.169s-.962 10.114-1.798 13.101c-.126.456.064.937.482 1.164 1.43.823 4.861 2.152 9.546-.151a2.116 2.116 0 001.178-2l-.418-9.772-8.99-2.342z" fill="url(#paint23_linear_25_1580)"/><path d="M137.02 169.245s3.064 7.025 3.267 10.709c.202 3.683 1 6.076-3.267 6.822-4.267.747-7.863-1.379-9.8-5.05 0 0-3.051-5.658-2.367-7.975.683-2.329 12.167-4.506 12.167-4.506z" fill="url(#paint24_linear_25_1580)"/><path d="M128.676 179.08l.241-.101a.602.602 0 00.291-.811c-.595-1.164-1.773-3.822-.253-4.442 1.95-.798 9.686-2.38 11.357-5.114 1.608-2.633.177-6.038-1.95-7.013-.139-.063-.316-.012-.38.127l-.177.342c-.127.227-.468.189-.532-.051-.063-.241-.392-.291-.519-.076-.519.823-1.899 2.152-5.596 2.835-5.267.975-8.736 3.102-8.825 6.734 0 .228-.253.355-.443.241-.393-.241-1.013-.342-1.836.354-1.443 1.215-.848 4.367 2.317 6.962.152.127.152.355-.013.469-.569.379-1.43 1.265.785 2.443 2.292 1.227 4.014 1.126 4.672 1.012a.286.286 0 00.228-.354l-.709-3.19a.295.295 0 01.279-.354h1.063v-.013z" fill="url(#paint25_linear_25_1580)"/><path d="M128.803 179.75s-1.165-4.493-3.178-3.227c-2.013 1.253 1.038 5.025 2.659 5.202l.519-1.975z" fill="url(#paint26_linear_25_1580)"/><path d="M194.034 182.092a.353.353 0 01-.241-.089.383.383 0 01-.051-.544c.33-.405 3.267-4 4.407-4.645.417-.228.658-.469.709-.697a.523.523 0 00-.051-.354l-3.457.696-1.962 1.684a.395.395 0 01-.545-.038.396.396 0 01.038-.545l2.039-1.746a.477.477 0 01.177-.089l3.824-.772a.396.396 0 01.392.164c.279.418.368.798.279 1.178-.101.443-.456.835-1.076 1.189-.849.481-3.318 3.38-4.191 4.456a.373.373 0 01-.291.152z" fill="url(#paint27_linear_25_1580)"/><path d="M128.664 245.889l13.522.164-4.735-4.455c-1.178-1.101-2.976-1.291-4.331-.405a10.315 10.315 0 00-2.405 2.139s-8.433-3.076-12.522-9.975c-1.279 1.886-2.76 4.469-4.052 7.671 3.659 2.152 8.42 3.836 14.523 4.861z" fill="url(#paint28_linear_25_1580)"/><path d="M130.12 247.62h.076l34.324-.038c.849 0 1.532-.684 1.532-1.519 0-.835-.696-1.532-1.532-1.519l-34.324.038a1.52 1.52 0 00-.076 3.038z" fill="url(#paint29_linear_25_1580)"/><path d="M195.376 216.799h-28.589a5.442 5.442 0 00-4.926 3.088l-13.218 27.721h35.528a3.304 3.304 0 003.076-2.076l10.243-25.645c.595-1.481-.506-3.088-2.114-3.088z" fill="url(#paint30_linear_25_1580)"/><path d="M175.232 231.013c-.621 1.899-.165 3.747 1.025 4.126 1.19.38 2.646-.86 3.267-2.759.62-1.899.164-3.747-1.026-4.127-1.177-.379-2.646.849-3.266 2.76z" fill="url(#paint31_linear_25_1580)"/><path d="M261.795 120.815v11.482h-10.036v-11.482c-7.169-1.435-14.338-4.306-18.639-8.611l5.735-10.047c5.735 4.306 12.904 8.612 18.639 8.612 4.301 0 7.168-1.436 7.168-4.306 0-8.611-27.241-2.87-27.241-21.528 0-8.611 5.735-14.352 15.771-15.787V57.666h10.037v10.046c5.735 0 11.47 2.87 15.771 5.741l-5.735 11.482c-5.735-2.87-12.904-5.74-17.205-5.74-2.868 0-5.735 1.434-5.735 2.87 0 8.61 27.241 4.305 27.241 22.963 1.434 8.611-5.735 14.352-15.771 15.787z" fill="#fff"/><defs><linearGradient id="paint0_linear_25_1580" x1="210.897" y1="292.639" x2="232.518" y2="190.564" gradientUnits="userSpaceOnUse"><stop stop-color="#09005D"/><stop offset="1" stop-color="#1A0F91"/></linearGradient><linearGradient id="paint1_linear_25_1580" x1="188.924" y1="27.369" x2="217.031" y2="238.438" gradientUnits="userSpaceOnUse"><stop stop-color="#09005D"/><stop offset="1" stop-color="#1A0F91"/></linearGradient><linearGradient id="paint2_linear_25_1580" x1="219.702" y1="-17.143" x2="196.785" y2="278.695" gradientUnits="userSpaceOnUse"><stop stop-color="#53D8FF"/><stop offset="1" stop-color="#3840F7"/></linearGradient><linearGradient id="paint3_linear_25_1580" x1="221.053" y1="360.952" x2="213.27" y2="287.425" gradientUnits="userSpaceOnUse"><stop stop-color="#09005D"/><stop offset="1" stop-color="#1A0F91"/></linearGradient><linearGradient id="paint4_linear_25_1580" x1="199.56" y1="272.219" x2="210.586" y2="8.183" gradientUnits="userSpaceOnUse"><stop stop-color="#4F52FF"/><stop offset="1" stop-color="#4042E2"/></linearGradient><linearGradient id="paint5_linear_25_1580" x1="118.83" y1="189.364" x2="115.371" y2="348.817" gradientUnits="userSpaceOnUse"><stop stop-color="#09005D"/><stop offset="1" stop-color="#1A0F91"/></linearGradient><linearGradient id="paint6_linear_25_1580" x1="116.938" y1="314.639" x2="120.128" y2="202.973" gradientUnits="userSpaceOnUse"><stop stop-color="#09005D"/><stop offset="1" stop-color="#1A0F91"/></linearGradient><linearGradient id="paint7_linear_25_1580" x1="97.472" y1="241.912" x2="170.121" y2="116.041" gradientUnits="userSpaceOnUse"><stop stop-color="#4F52FF"/><stop offset="1" stop-color="#4042E2"/></linearGradient><linearGradient id="paint8_linear_25_1580" x1="243.488" y1="266.494" x2="323.737" y2="266.494" gradientUnits="userSpaceOnUse"><stop stop-color="#09005D"/><stop offset="1" stop-color="#1A0F91"/></linearGradient><linearGradient id="paint9_linear_25_1580" x1="277.633" y1="324.396" x2="286.282" y2="196.372" gradientUnits="userSpaceOnUse"><stop stop-color="#4F52FF"/><stop offset="1" stop-color="#4042E2"/></linearGradient><linearGradient id="paint10_linear_25_1580" x1="398.692" y1="-80.725" x2="320.846" y2="9.47" gradientUnits="userSpaceOnUse"><stop stop-color="#E1473D"/><stop offset="1" stop-color="#E9605A"/></linearGradient><linearGradient id="paint11_linear_25_1580" x1="292.256" y1="27.591" x2="93.763" y2="325.407" gradientUnits="userSpaceOnUse"><stop stop-color="#FF928E"/><stop offset="1" stop-color="#FE7062"/></linearGradient><linearGradient id="paint12_linear_25_1580" x1="125.825" y1="343.306" x2="146.838" y2="343.306" gradientUnits="userSpaceOnUse"><stop stop-color="#4F52FF"/><stop offset="1" stop-color="#4042E2"/></linearGradient><linearGradient id="paint13_linear_25_1580" x1="125.823" y1="339.188" x2="146.245" y2="339.188" gradientUnits="userSpaceOnUse"><stop stop-color="#09005D"/><stop offset="1" stop-color="#1A0F91"/></linearGradient><linearGradient id="paint14_linear_25_1580" x1="127.765" y1="333.439" x2="133.684" y2="333.439" gradientUnits="userSpaceOnUse"><stop stop-color="#FEBBBA"/><stop offset="1" stop-color="#FF928E"/></linearGradient><linearGradient id="paint15_linear_25_1580" x1="88.318" y1="348.515" x2="96.371" y2="348.515" gradientUnits="userSpaceOnUse"><stop stop-color="#4F52FF"/><stop offset="1" stop-color="#4042E2"/></linearGradient><linearGradient id="paint16_linear_25_1580" x1="88.377" y1="340.504" x2="100.196" y2="340.504" gradientUnits="userSpaceOnUse"><stop stop-color="#09005D"/><stop offset="1" stop-color="#1A0F91"/></linearGradient><linearGradient id="paint17_linear_25_1580" x1="94.52" y1="330.354" x2="101.594" y2="330.354" gradientUnits="userSpaceOnUse"><stop stop-color="#FEBBBA"/><stop offset="1" stop-color="#FF928E"/></linearGradient><linearGradient id="paint18_linear_25_1580" x1="151.738" y1="254.037" x2="91.366" y2="352.958" gradientUnits="userSpaceOnUse"><stop stop-color="#4F52FF"/><stop offset="1" stop-color="#4042E2"/></linearGradient><linearGradient id="paint19_linear_25_1580" x1="226.481" y1="231.02" x2="163.322" y2="255.684" gradientUnits="userSpaceOnUse"><stop stop-color="#4F52FF"/><stop offset="1" stop-color="#4042E2"/></linearGradient><linearGradient id="paint20_linear_25_1580" x1="191.819" y1="181.387" x2="163.812" y2="217.834" gradientUnits="userSpaceOnUse"><stop stop-color="#FEBBBA"/><stop offset="1" stop-color="#FF928E"/></linearGradient><linearGradient id="paint21_linear_25_1580" x1="202.641" y1="155.91" x2="137.118" y2="217.557" gradientUnits="userSpaceOnUse"><stop stop-color="#FF928E"/><stop offset="1" stop-color="#FE7062"/></linearGradient><linearGradient id="paint22_linear_25_1580" x1="147.412" y1="204.441" x2="151.535" y2="204.441" gradientUnits="userSpaceOnUse"><stop stop-color="#E1473D"/><stop offset="1" stop-color="#E9605A"/></linearGradient><linearGradient id="paint23_linear_25_1580" x1="129.37" y1="204.94" x2="132.434" y2="188.852" gradientUnits="userSpaceOnUse"><stop stop-color="#FEBBBA"/><stop offset="1" stop-color="#FF928E"/></linearGradient><linearGradient id="paint24_linear_25_1580" x1="137.664" y1="175.425" x2="120.179" y2="188.807" gradientUnits="userSpaceOnUse"><stop stop-color="#FEBBBA"/><stop offset="1" stop-color="#FF928E"/></linearGradient><linearGradient id="paint25_linear_25_1580" x1="125.353" y1="164.832" x2="141.635" y2="185.801" gradientUnits="userSpaceOnUse"><stop stop-color="#09005D"/><stop offset="1" stop-color="#1A0F91"/></linearGradient><linearGradient id="paint26_linear_25_1580" x1="135.495" y1="172.59" x2="118.01" y2="185.972" gradientUnits="userSpaceOnUse"><stop stop-color="#FEBBBA"/><stop offset="1" stop-color="#FF928E"/></linearGradient><linearGradient id="paint27_linear_25_1580" x1="192.75" y1="178.519" x2="199.626" y2="178.519" gradientUnits="userSpaceOnUse"><stop stop-color="#FF928E"/><stop offset="1" stop-color="#FE7062"/></linearGradient><linearGradient id="paint28_linear_25_1580" x1="160.832" y1="202.939" x2="164.076" y2="199.046" gradientUnits="userSpaceOnUse"><stop stop-color="#FEBBBA"/><stop offset="1" stop-color="#FF928E"/></linearGradient><linearGradient id="paint29_linear_25_1580" x1="124.296" y1="238.524" x2="151.539" y2="247.462" gradientUnits="userSpaceOnUse"><stop stop-color="#09005D"/><stop offset="1" stop-color="#1A0F91"/></linearGradient><linearGradient id="paint30_linear_25_1580" x1="161.795" y1="220.884" x2="181.296" y2="241.5" gradientUnits="userSpaceOnUse"><stop stop-color="#09005D"/><stop offset="1" stop-color="#1A0F91"/></linearGradient><linearGradient id="paint31_linear_25_1580" x1="173.623" y1="226.035" x2="182.437" y2="239.311" gradientUnits="userSpaceOnUse"><stop stop-color="#4F52FF"/><stop offset="1" stop-color="#4042E2"/></linearGradient></defs></svg>