<svg width="58" height="57" fill="none" xmlns="http://www.w3.org/2000/svg"><path d="M14.5 29C22.508 29 29 22.508 29 14.5S22.508 0 14.5 0 0 6.492 0 14.5 6.492 29 14.5 29z" fill="#fff"/><path d="M57.5 15c0 7.456-6.044 13.5-13.5 13.5S30.5 22.456 30.5 15 36.544 1.5 44 1.5 57.5 7.544 57.5 15zm-28 28c0 7.456-6.044 13.5-13.5 13.5S2.5 50.456 2.5 43 8.544 29.5 16 29.5 29.5 35.544 29.5 43zm28 0c0 7.456-6.044 13.5-13.5 13.5S30.5 50.456 30.5 43 36.544 29.5 44 29.5 57.5 35.544 57.5 43z" stroke="#fff"/></svg>