<svg width="177" height="55" fill="none" xmlns="http://www.w3.org/2000/svg"><path d="M11.205 53.078c-.965 1.327-2.25 1.83-3.766 1.83-3.077 0-5.236-2.242-5.236-5.307 0-3.066 2.159-5.308 5.236-5.308 1.378 0 2.618.457 3.49 1.601l-.78.64c-.644-.96-1.7-1.372-2.71-1.372-2.664 0-4.271 1.922-4.271 4.439 0 2.516 1.653 4.438 4.27 4.438 1.011 0 2.251-.503 2.986-1.556l.78.595zm17.405-8.74c3.077 0 5.236 2.243 5.236 5.308 0 3.066-2.159 5.308-5.236 5.308s-5.235-2.242-5.235-5.308c.046-3.111 2.158-5.307 5.235-5.307zm0 9.701c2.664 0 4.271-1.922 4.271-4.438 0-2.517-1.653-4.439-4.27-4.439-2.665 0-4.272 1.922-4.272 4.439 0 2.516 1.653 4.438 4.271 4.438zm18.416-9.472h1.423l3.675 8.465 3.673-8.465h1.332v10.067h-.964v-8.877h-.046l-3.858 8.877h-.367l-3.904-8.877h-.046v8.877h-.964V44.567h.046zm23.927 0h2.893c1.423 0 3.26.55 3.26 2.654 0 1.83-1.47 2.654-3.03 2.654H71.87v4.805h-.964V44.567h.046zm.964 4.439h2.159c1.056 0 2.158-.458 2.158-1.785 0-1.28-1.102-1.83-2.204-1.83h-2.067l-.046 3.615zm20.436-4.439h.965l4.27 10.067h-1.055L95.43 51.98h-5.373l-1.148 2.654h-.964l4.409-10.067zm.46 1.053l-2.342 5.536h4.638l-2.296-5.536zm17.405-1.053h1.194l6.154 8.831h.046v-8.83h.964v10.066h-1.194l-6.199-8.785h-.046v8.83h-.919V44.568zm22.228 0h.964v10.067h-.964V44.567zm14.879 0h6.2v.87h-5.235v3.569h4.914v.87h-4.914v3.934h5.465v.87h-6.43V44.567zm19.886 8.237a2.62 2.62 0 002.296 1.28c1.286 0 2.25-.777 2.25-1.967 0-2.837-5.235-1.19-5.235-4.987 0-1.785 1.561-2.746 3.26-2.746 1.103 0 2.067.366 2.756 1.282l-.827.594c-.459-.64-1.102-1.006-1.975-1.006-1.194 0-2.25.64-2.25 1.922 0 3.02 5.236 1.19 5.236 4.987 0 1.83-1.516 2.837-3.123 2.837-1.332 0-2.48-.412-3.307-1.51l.919-.686zM106.82 36.01l.872.091 1.102-8.19-.734-.229a6.279 6.279 0 01-3.215-2.47c-1.194-1.785-1.653-4.073-1.332-6.819.322-2.974 1.286-5.399 2.847-7.23 1.103-1.28 2.526-2.104 4.226-2.379l.642-.137 1.011-8.51-1.148.137c-3.858.503-7.578 2.287-10.104 4.85-3.306 3.34-5.235 7.687-5.786 12.812-.551 5.17.459 9.563 2.939 12.949 2.388 3.203 4.96 4.713 8.68 5.125zm-44.501-9.289h-8.542L56.578.412h-8.037l-3.72 35.37h16.533l.965-9.06zm14.328 9.518c2.342 0 4.73-.641 7.164-1.876 2.434-1.236 4.501-3.25 6.154-5.949 1.654-2.654 2.618-5.216 2.894-7.55l.55-5.079h-15.2l-.643 7.916h6.337c-.735 1.236-1.607 2.196-2.434 2.7-1.102.686-2.25 1.006-3.352 1.006-2.067 0-3.674-.869-4.96-2.608-1.332-1.83-1.837-4.026-1.561-6.68.275-2.517 1.24-4.667 2.985-6.544 1.699-1.83 3.536-2.7 5.556-2.7 1.195 0 2.297.367 3.353 1.099 1.01.732 1.47 1.327 2.434 3.157l.551 1.007 6.062-5.262-.275-.595C89.919 2.792 85.97 0 80.505 0c-4.225 0-8.037 1.785-11.39 5.262-3.306 3.432-5.235 7.687-5.74 12.537-.551 5.125.46 9.518 2.985 13.041 2.526 3.57 6.016 5.4 10.287 5.4zm-35.913-.458l3.72-35.37h-8.083l-3.72 35.37h8.083zm75.868-24.709c1.148 1.693 1.561 4.027 1.24 6.91-.322 2.974-1.286 5.353-2.802 7.138-1.469 1.647-2.709 2.516-4.041 2.745l-.643.137-1.01 8.19 1.148-.136c3.766-.367 7.164-2.06 10.057-5.08 3.261-3.386 5.19-7.687 5.695-12.766.551-5.17-.505-9.517-3.077-12.949-1.975-2.562-4.776-4.164-8.312-4.804l-.965-.138-.964 8.511.734.229c1.378.503 2.343 1.098 2.94 2.013zm-102.78 8.19l.597-5.124L15.797.412H7.21l-3.857 35.37h8.542l1.928-16.518zm7.44 16.519h9.92l-10.47-18.349L34.763.412H24.385l-8.266 10.707-1.424 12.904 6.567 11.759zm150.22-8.465H161.47l.505-5.125h10.058l.872-8.373h-10.011l.505-4.942h10.057l.873-8.465h-18.094l-3.766 35.37h18.14l.873-8.465zm-34.995-3.34l5.557 11.76h9.185l-6.843-14.46c1.929-1.098 3.398-2.562 4.363-4.347 1.01-1.922 1.607-3.844 1.837-5.674.321-3.249-.322-5.902-1.975-7.87S144.478.412 141.309.412h-10.333l-3.766 35.37h8.083l1.194-11.805zm1.424-16.336h.826c1.47 0 2.526.32 3.215 1.007.643.64.919 1.51.827 2.654-.322 3.02-1.975 4.438-5.19 4.438h-.505l.827-8.099z" fill="#9CA09E"/></svg>