<svg width="323" height="55" fill="none" xmlns="http://www.w3.org/2000/svg"><g clip-path="url(#clip0_1_862)" fill="#9CA09E"><path fill-rule="evenodd" clip-rule="evenodd" d="M71.809 40.927H60.455V39.1l3.124-.152c.305 0 .533-.304.533-.609V7.227l-3.657-.076V5.325c2.667-.076 6.172-.076 9.83-.076 5.715 0 8.992.76 12.192 2.89 4.191 2.74 6.782 8.064 6.782 13.922 0 6.618-2.21 12.248-6.096 15.443-2.896 2.282-6.63 3.423-11.354 3.423zm-.915-34.004c-1.676 0-2.667.076-3.2.228l-.229.076-.076 29.44c0 1.901.838 2.434 4.191 2.434 4.344 0 7.85-1.293 10.212-3.727 2.438-2.51 4.038-7.151 4.038-11.792 0-6.162-1.219-9.737-4.572-13.084-2.438-2.358-5.944-3.575-10.364-3.575z"/><path d="M70.361 5.553c5.639 0 8.916.76 11.964 2.815 4.039 2.662 6.553 7.911 6.553 13.617 0 6.466-2.133 12.02-5.944 15.138-2.895 2.358-6.477 3.5-11.125 3.5H60.836v-1.066l2.743-.152c.533 0 .99-.456.99-.989V6.846h-.762l-2.971-.076V5.705c2.743-.076 6.096-.152 9.525-.152zm1.22 33.928c4.419 0 8.077-1.293 10.515-3.803 2.515-2.587 4.191-7.303 4.191-12.096 0-6.238-1.295-9.965-4.724-13.388-2.515-2.435-6.096-3.728-10.669-3.728-1.752 0-2.743.076-3.276.304l-.534.152v.533l-.076 29.212c0 2.434 1.372 2.814 4.572 2.814zM70.36 4.792c-3.81 0-7.468.077-10.135.077-.076.76-.076 1.673-.076 2.586l3.657.076v30.733c0 .076-.076.228-.228.228l-3.505.153c0 .76-.077 1.75-.077 2.586 1.906 0 4.115-.076 5.792-.076 1.22 0 3.962.076 5.944.076 4.953 0 8.687-1.217 11.659-3.651 4.115-3.424 6.248-9.281 6.248-15.747 0-6.162-2.82-11.487-6.934-14.226-2.972-1.902-6.249-2.815-12.345-2.815zm1.22 33.929c-3.43 0-3.81-.533-3.81-2.054l.075-29.212c.534-.152 1.677-.228 3.048-.228 4.573 0 7.85 1.293 10.135 3.5 3.125 3.118 4.496 6.541 4.496 12.855 0 4.64-1.6 9.129-3.962 11.563-2.21 2.282-5.563 3.576-9.983 3.576z"/><path fill-rule="evenodd" clip-rule="evenodd" d="M97.26 54.62c-.685-.152-2.285-1.37-2.59-1.902 1.752-1.37 3.2-2.815 4.343-4.412 1.524-1.902 3.049-4.564 3.811-6.77l.076-.153-.076-.152c-1.753-4.716-2.972-8.291-4.268-12.171a128.79 128.79 0 01-1.371-4.184c-.534-1.75-1.067-3.195-1.525-4.488a.628.628 0 00-.61-.38l-2.057-.153v-1.75h9.602v1.75l-3.658.152.153.457c.228.913.914 3.423 2.209 7.759.991 3.119 1.829 5.858 2.82 8.9l.076.229h.762l.076-.229c.991-2.662 1.753-4.716 2.744-7.835 1.067-3.271 1.752-5.705 2.286-7.531l.305-.989c.076-.304 0-.456-.077-.533-.076-.152-.228-.228-.457-.228l-2.667-.076v-1.673h8.154v1.75l-2.134.151-.076.229c-.381 1.217-1.372 3.803-2.515 7.074-.457 1.294-.99 2.739-1.524 4.184-.457 1.294-4.724 12.552-7.849 17.801-1.524 2.663-2.895 4.412-3.962 5.173z"/><path d="M102.214 18.486v.989l-2.82.152-.914.076.229.913c.228.913.914 3.423 2.286 7.76.99 3.118 1.829 5.933 2.819 8.9l.153.532h1.295l.152-.456c.991-2.663 1.753-4.717 2.744-7.836 1.067-3.27 1.752-5.705 2.286-7.53.076-.381.228-.686.305-1.066.152-.456-.077-.76-.153-.913a.908.908 0 00-.686-.38l-2.286-.076v-.99h7.468v.99l-1.524.152-.533.076-.153.456c-.381 1.142-1.295 3.728-2.514 7.075a357.97 357.97 0 01-1.524 4.184c-.458 1.293-4.725 12.552-7.849 17.725-1.524 2.586-2.82 4.26-3.81 5.097-.534-.229-1.525-.913-1.982-1.446 1.677-1.293 3.048-2.738 4.115-4.26 1.524-1.978 3.048-4.64 3.887-6.846l.076-.228-.076-.229c-1.753-4.716-2.972-8.291-4.268-12.171-.533-1.522-.99-2.967-1.371-4.184-.534-1.75-1.067-3.195-1.525-4.488v-.152c-.152-.38-.533-.533-.914-.609l-1.676-.152v-.99h8.763m13.64-.836c-1.143 0-2.514.076-3.886.076h-5.029c-.077.76-.077 1.598-.077 2.434l3.048.153c.153 0 .153.076.153.304-.534 1.978-1.219 4.64-2.515 8.52-1.067 3.271-1.829 5.325-2.743 7.835h-.229c-.838-2.586-1.752-5.4-2.819-8.9-1.067-3.575-1.83-6.238-2.21-7.76l3.505-.152c.076-.76.076-1.673.076-2.434H92.841c-.076.685-.076 1.674-.076 2.434l2.438.153c.076 0 .229.076.229.152l2.895 8.672c1.448 4.26 2.668 7.683 4.268 12.171-.838 2.207-2.362 4.87-3.81 6.695-1.22 1.673-2.743 3.195-4.42 4.488 0 .685 2.21 2.434 3.124 2.434 1.296-.836 2.744-2.89 4.268-5.477 2.667-4.488 6.248-13.617 7.849-17.877 1.828-5.02 3.581-9.585 4.115-11.258l2.209-.153c-.076-.912-.076-1.75-.076-2.51z"/><path fill-rule="evenodd" clip-rule="evenodd" d="M118.14 40.85v-1.749l2.591-.152c.305 0 .534-.304.534-.608l-.076-17.65-3.811-.075v-1.598c.915-.152 2.134-.456 3.277-.684 1.143-.229 2.439-.533 2.972-.609.152 1.141.381 2.434.533 3.119l.077.228.685.152.153-.076c4.877-3.347 5.944-3.5 8.001-3.5 2.896 0 4.496 2.74 4.953 3.576.61 1.218.991 2.51.991 3.956 0 2.587-.076 5.705-.076 8.672 0 1.674-.076 3.347-.076 4.869v.38l3.2.152v1.674h-9.297v-1.674l2.668-.152.076-.076c.152-.076.305-.228.305-.532.076-3.043.076-7.151.076-10.118 0-2.358 0-4.564-.686-5.858-.991-2.053-2.439-2.358-3.734-2.358-2.058 0-5.029 1.75-6.858 3.348l-.153.075v.153c-.076 4.564-.076 10.954-.076 14.834v.38l3.582.152v1.674h-7.773c-.762.076-1.448.076-2.058.076z"/><path d="M133.076 17.953c2.667 0 4.191 2.587 4.649 3.347.609 1.141.914 2.358.914 3.804 0 2.586-.076 5.705-.076 8.672 0 1.674-.076 3.347-.076 4.869v.76l.762.076 2.438.153v.913h-8.535v-.913l2.134-.153h.229l.152-.076c.305-.228.457-.532.457-.836.077-3.043.077-7.151.077-10.118 0-2.358 0-4.64-.762-6.01-1.144-2.282-2.668-2.586-4.039-2.586-2.21 0-5.182 1.75-7.163 3.423l-.229.228v.305c-.076 4.564-.076 10.954-.076 14.834v.76h.762l2.896.152v.913h-8.916v-.989l2.21-.152c.533 0 .914-.456.914-.989l-.076-17.344v-.76h-.762l-3.124-.077v-.913c.838-.152 1.981-.456 3.048-.684.914-.229 1.905-.457 2.514-.533.153.99.305 2.13.458 2.739l.076.456.457.076.229.076.305.076.304-.228c4.877-3.119 5.868-3.27 7.849-3.27zm0-.76c-2.133 0-3.276.151-8.153 3.575l-.229-.076c-.153-.761-.381-2.282-.534-3.348 0-.076 0-.152-.076-.152-.381 0-4.877 1.065-6.858 1.446 0 .76-.076 1.597-.076 2.282l3.81.076.076 17.344c0 .076-.076.229-.228.229l-2.972.152c-.077.76-.077 1.673-.077 2.434 1.524 0 3.201-.076 4.801-.076h5.639c0-.685.076-1.598.076-2.434l-3.581-.153c0-4.107.076-10.573.076-14.833 1.981-1.75 4.801-3.272 6.63-3.272 1.219 0 2.438.229 3.353 2.13.686 1.218.686 3.424.686 5.63 0 3.119 0 7.15-.077 10.117 0 .152-.076.152-.152.228l-2.896.153c-.076.76-.076 1.673-.076 2.434 1.372 0 3.277-.076 4.801-.076h5.258c.076-.76.076-1.674.076-2.434l-3.2-.153c.076-4.183.152-9.432.152-13.54 0-1.294-.229-2.739-.991-4.108-.838-1.598-2.667-3.576-5.258-3.576z"/><path fill-rule="evenodd" clip-rule="evenodd" d="M150.832 41.46c-2.058 0-5.258-2.055-5.258-5.098 0-2.966 2.819-7.15 9.22-7.15h3.886v-.38c.153-4.032-.381-6.39-1.6-7.608-.686-.76-1.676-1.065-2.895-1.065-2.515 0-4.725 2.054-5.944 3.5-.381-.533-.839-1.066-1.22-1.522 1.829-2.054 4.573-4.564 8.383-4.564 3.962 0 6.325 3.27 6.325 8.672 0 2.738-.077 9.509-.077 11.791 0 1.141.61 1.217.839 1.217l2.972-.076v1.674c-.915.228-3.277.608-5.182.608-.381-.456-.838-1.217-1.372-2.054l-.229-.456h-.609l-.076.076c-3.658 2.054-5.411 2.434-7.163 2.434zm4.648-10.575c-4.115 0-6.63 1.826-6.63 4.945 0 1.978 1.601 3.423 3.734 3.423 1.296 0 3.658-.608 5.792-2.358.304-.228.304-.533.304-.837v-5.02l-.304-.077c-.458-.076-2.363-.076-2.896-.076z"/><path d="M155.328 17.953c3.733 0 5.943 3.119 5.943 8.292 0 2.738-.076 9.509-.076 11.791 0 1.521.991 1.598 1.219 1.598l2.515-.077v.99c-.991.228-2.972.532-4.648.532-.381-.456-.762-1.141-1.22-1.902l-.152-.228-.229-.38h-.914l-.152.076c-3.506 2.054-5.182 2.434-6.935 2.434-1.905 0-4.877-1.902-4.877-4.717 0-2.814 2.743-6.77 8.84-6.77h4.343v-.76c.153-4.108-.381-6.543-1.676-7.912-.762-.837-1.829-1.217-3.201-1.217-2.438 0-4.648 1.826-5.944 3.347-.228-.304-.533-.609-.762-.913 1.905-2.054 4.496-4.184 7.926-4.184zm-2.744 21.68c1.829 0 4.191-.912 6.02-2.358.457-.304.457-.76.457-1.14v-5.402l-.533-.152c-.457-.152-2.057-.152-2.972-.152-3.353 0-7.011 1.37-7.011 5.325v.076c-.076 2.206 1.677 3.804 4.039 3.804zm2.744-22.44c-3.963 0-6.783 2.51-8.916 4.944.533.685 1.143 1.445 1.676 2.13 1.677-2.054 3.887-3.727 6.02-3.727 3.125 0 4.344 2.358 4.115 8.367h-3.581c-6.554 0-9.602 4.413-9.602 7.532 0 3.195 3.201 5.477 5.639 5.477 1.829 0 3.582-.38 7.316-2.51h.228c.61 1.14 1.143 2.053 1.677 2.51 2.21 0 5.029-.533 5.715-.761v-2.434l-3.353.076c-.305 0-.457-.304-.457-.837.076-2.358.076-9.053.076-11.791.152-6.162-2.82-8.977-6.553-8.977zm-2.744 21.68c-1.981 0-3.353-1.217-3.353-2.967v-.076c0-2.51 1.829-4.564 6.249-4.564 1.524 0 2.515.076 2.819.152v4.792c0 .305 0 .38-.152.533-1.905 1.37-4.115 2.13-5.563 2.13z"/><path fill-rule="evenodd" clip-rule="evenodd" d="M174.988 41.46c-2.515 0-4.572-.457-5.639-.913-.152-1.217-.305-2.359-.381-3.576-.076-.76-.153-1.597-.305-2.358.61-.152 1.219-.304 1.829-.38l.61 3.347v.076c.076.304.152.532.533.837.686.608 2.134 1.217 3.658 1.217 1.6 0 2.896-.152 3.962-.99 1.067-.836 1.524-1.977 1.524-3.422 0-2.967-1.6-3.5-5.181-4.717l-.762-.228c-3.887-1.293-5.411-2.967-5.411-5.934 0-3.195 2.286-4.868 2.972-5.325 1.448-.913 3.353-1.369 5.715-1.369 2.439 0 3.963.533 4.496.837.153 1.826.381 3.727.534 5.63-.305.075-1.524.227-1.829.303l-.61-3.195c-.076-.304-.228-.684-.457-.836-.686-.609-1.829-.913-3.201-.913-1.295 0-2.514.456-3.352 1.14-.915.762-1.372 1.827-1.372 3.196 0 2.51 1.219 3.043 5.182 4.412 3.581 1.141 6.096 2.282 6.096 6.39 0 2.358-1.067 4.336-3.048 5.63-.991.608-3.048 1.14-5.563 1.14z"/><path d="M178.265 17.953c2.133 0 3.581.457 4.191.685.152 1.597.305 3.347.457 5.02-.152 0-.381.077-.533.077-.229 0-.381.076-.61.076l-.533-2.815c-.077-.456-.305-.837-.61-1.065-.762-.685-1.981-.989-3.429-.989-1.372 0-2.667.456-3.582 1.217-.99.837-1.524 1.978-1.524 3.5 0 2.89 1.677 3.499 5.487 4.792 3.505 1.141 5.868 2.206 5.868 6.01 0 2.206-.991 4.032-2.896 5.325-1.143.837-3.125 1.293-5.563 1.293-2.286 0-4.191-.456-5.258-.837-.152-1.14-.229-2.206-.381-3.347l-.229-2.054 1.143-.228.534 2.89v.153c.076.304.228.608.686.989.762.684 2.286 1.369 3.962 1.369 1.448 0 2.972-.152 4.191-1.065 1.143-.913 1.677-2.206 1.677-3.728 0-3.195-1.829-3.88-5.411-5.096l-.762-.229c-3.734-1.217-5.105-2.738-5.105-5.553 0-3.043 2.133-4.64 2.819-5.02 1.296-.913 3.201-1.37 5.411-1.37zm0-.76c-2.439 0-4.42.532-5.944 1.445-1.6.989-3.124 2.967-3.124 5.63 0 3.118 1.6 4.944 5.639 6.237 4.115 1.445 5.639 1.826 5.639 4.64 0 1.598-.686 2.51-1.372 3.12-1.067.76-2.362.912-3.734.912-1.372 0-2.743-.532-3.429-1.14-.305-.23-.381-.381-.457-.686l-.686-3.651c-.838.076-1.753.304-2.591.532.228 2.207.533 4.337.762 6.467 1.067.532 3.277 1.065 6.02 1.065 2.438 0 4.725-.457 6.02-1.37 2.134-1.369 3.201-3.499 3.201-5.933 0-4.336-2.82-5.553-6.402-6.695-3.962-1.369-4.953-1.825-4.953-4.031 0-1.446.534-2.359 1.22-2.891.685-.609 1.828-1.065 3.124-1.065 1.219 0 2.286.304 2.972.837.152.076.305.304.381.608l.686 3.5a35.543 35.543 0 012.591-.38c-.153-2.055-.382-4.185-.534-6.163-.61-.304-2.362-.989-5.029-.989z"/><path fill-rule="evenodd" clip-rule="evenodd" d="M196.477 41.383c-1.143 0-2.362-.152-3.581-1.369-1.143-1.217-1.22-2.358-1.22-4.108V20.464h-3.429c0-.533 0-1.217.077-1.978.914 0 1.905-.076 2.819-.076.305 0 .686-.38.686-.761.076-1.521.076-3.423.152-5.02.991-.685 2.286-1.37 2.896-1.598-.076 1.902-.076 4.716-.076 6.922v.38h.381c2.438 0 5.029 0 7.468-.075 0 .532-.076 1.065-.076 1.597v.533h-7.773v6.694c-.076 2.282-.076 5.477-.076 8.292 0 2.282 1.447 3.803 3.657 3.803 1.067 0 2.82-.304 4.496-.76.077.532.153 1.14.229 1.75-2.286.836-4.953 1.216-6.63 1.216z"/><path d="M194.572 11.563c-.076 1.902-.076 4.336-.076 6.39v.76h.762c2.362 0 4.725 0 7.087-.075 0 .38-.076.836-.076 1.217v.152h-7.849v7.075c-.076 2.282-.076 5.477-.076 8.291 0 2.51 1.6 4.184 4.038 4.184.991 0 2.591-.228 4.192-.684.076.304.076.684.152.989-2.134.76-4.572 1.14-6.173 1.14h-.076c-1.067 0-2.133-.151-3.276-1.216-1.067-1.141-1.143-2.13-1.143-3.804V20.083h-3.43c0-.38 0-.76.077-1.217.838 0 1.676-.076 2.514-.076.534 0 1.067-.533 1.067-1.141.076-1.522.076-3.348.153-4.869a21.245 21.245 0 012.133-1.217zm.61-1.141c-.153 0-2.21.989-3.582 1.902 0 1.597-.076 3.651-.152 5.249 0 .228-.229.38-.305.38-1.067.076-2.134.076-3.2.076-.077.837-.077 1.826-.077 2.739h3.429c0 1.369-.076 4.792-.076 6.466 0 1.37-.076 5.857-.076 8.672 0 1.75.076 3.043 1.372 4.336 1.371 1.37 2.819 1.445 3.81 1.445h.076c1.829 0 4.648-.456 7.011-1.369a20.508 20.508 0 00-.381-2.434c-1.753.532-3.658.837-4.801.837-1.753 0-3.277-1.065-3.277-3.424 0-2.738 0-6.01.076-8.291v-6.238h7.773c.076-.913.153-1.902.153-2.891-2.515.076-5.258.076-7.849.076 0-2.358.076-5.401.076-7.303.152-.152.152-.228 0-.228z"/><path fill-rule="evenodd" clip-rule="evenodd" d="M220.481 40.85v-1.673l2.591-.152c.305 0 .534-.304.534-.609V28.223c0-2.815 0-4.64-.839-6.086-.686-1.293-1.905-1.978-3.505-1.978-2.286 0-5.106 1.674-7.087 3.195l-.152.076v.152c-.077 4.565-.077 10.879-.077 14.986v.38l3.887.153v1.674h-9.754v-1.75l2.515-.152c.304 0 .533-.228.533-.609.076-9.813.076-23.05.076-32.635v-.38l-3.81-.076V3.499c1.067-.152 2.743-.456 4.267-.76.991-.229 2.134-.38 2.667-.457 0 3.5-.076 7.76-.076 11.867 0 2.13-.076 4.184-.076 6.238v.305l.61.152.152-.076c5.334-3.271 6.325-3.271 8.001-3.271 1.982 0 3.963 1.445 5.182 3.803.457.913.686 2.206.686 4.032 0 3.88-.076 8.216-.076 12.4v1.293l3.277.152v1.674h-9.526z"/><path d="M211.87 2.815c0 3.423-.076 7.455-.076 11.334 0 2.13-.076 4.26-.076 6.315v.608l.533.152.229.076.305.076.305-.152c5.258-3.27 6.172-3.27 7.772-3.27 2.744 0 4.42 2.738 4.877 3.575.457.912.61 2.13.61 3.88 0 3.879-.076 8.139-.076 12.323v1.75h.762l2.591.076v.989h-8.611v-.989l2.21-.153c.533 0 .914-.456.914-.989V28.224c0-2.89 0-4.717-.838-6.238-.762-1.445-2.058-2.206-3.81-2.206-2.363 0-5.335 1.673-7.316 3.27l-.305.23v.38c-.076 6.542-.076 11.79-.076 14.986v.76h.762l3.124.076v.99h-8.992v-.99l2.134-.152c.534 0 .915-.456.915-.989.076-9.813.076-23.05.076-32.634v-.761h-.762l-3.048-.076v-.913c1.066-.152 2.591-.457 3.962-.76a27.958 27.958 0 001.905-.381zm.61-.837c-.381 0-5.563 1.065-7.468 1.37-.076.684-.076 1.597-.076 2.358l3.81.076c0 9.813 0 22.897-.076 32.634 0 .077-.076.229-.153.229l-2.819.152c-.076.76-.076 1.597-.076 2.434 1.524 0 3.429-.076 4.8-.076h5.716c0-.76.076-1.674.076-2.434l-3.886-.152c0-4.184.076-10.574.076-14.987 2.057-1.597 4.801-3.119 6.858-3.119.914 0 2.286.229 3.124 1.826.762 1.37.762 3.12.762 5.858V38.34c0 .076-.076.229-.228.229l-2.972.152c0 .837-.076 1.673 0 2.434 1.524 0 3.429-.076 5.029-.076h5.106c.076-.76.076-1.674.076-2.434l-3.277-.153c.077-4.336.077-9.052.077-13.312 0-1.598-.153-3.043-.686-4.184-1.067-2.054-3.048-3.956-5.563-3.956-1.829 0-2.896.076-8.154 3.347l-.228-.076c.076-6.162.152-13.008.152-18.257.152 0 .076-.076 0-.076z"/><path fill-rule="evenodd" clip-rule="evenodd" d="M243.495 41.46c-5.944 0-9.678-4.185-9.678-10.879 0-7.531 4.343-13.008 10.211-13.008 2.362 0 4.267.913 5.563 2.662 1.219 1.674 1.829 4.108 1.829 7.075-.305.685-1.067 1.674-1.372 1.75-2.819.076-9.221.152-12.65.152h-.381v.38c-.076 3.12.534 5.553 1.753 7.15 1.524 2.055 3.201 2.435 5.41 2.435 1.753 0 3.811-.532 6.401-1.673.153.532.305 1.217.381 1.825-2.514 1.294-5.334 2.13-7.467 2.13zm-.077-22.062c-1.676 0-2.972.61-3.962 1.902-.61.761-2.058 2.663-2.21 5.63v.38h.381c2.743 0 6.782-.076 9.754-.152.61 0 .991-.38.991-.99 0-1.825-.534-3.727-1.448-4.944-.839-1.217-1.982-1.826-3.506-1.826z"/><path d="M244.028 17.953c2.286 0 4.039.913 5.258 2.51 1.143 1.598 1.753 3.956 1.753 6.77-.229.533-.838 1.218-1.067 1.446-2.896.076-9.221.152-12.497.152h-.762v.761c-.077 3.271.533 5.706 1.828 7.38 1.601 2.13 3.506 2.585 5.716 2.585 1.676 0 3.734-.532 6.172-1.52.076.38.153.684.229 1.064-2.363 1.217-5.106 1.978-7.087 1.978-5.715 0-9.297-4.032-9.297-10.498v-.076c-.076-7.303 4.039-12.552 9.754-12.552zm-7.163 9.813h.838c2.743 0 6.782-.076 9.754-.152.838 0 1.372-.532 1.372-1.37 0-1.9-.534-3.879-1.524-5.172-.991-1.293-2.286-1.978-3.81-1.978h-.077c-1.828 0-3.2.685-4.267 2.054-.61.837-2.057 2.739-2.286 5.858v.76zm7.163-10.574c-6.401 0-10.592 6.086-10.592 13.313v.076c0 6.466 3.581 11.259 10.059 11.259 2.133 0 5.181-.837 7.925-2.359-.076-.76-.305-1.75-.534-2.51-1.752.76-4.343 1.826-6.629 1.826-2.058 0-3.658-.304-5.106-2.282-1.143-1.522-1.676-3.804-1.676-6.923 3.124 0 9.754-.076 12.649-.152.534-.076 1.448-1.37 1.677-2.054 0-2.51-.457-5.249-1.905-7.303-1.296-1.826-3.277-2.89-5.868-2.89zm-6.401 9.814c.152-2.891 1.448-4.565 2.134-5.477.838-1.066 1.981-1.75 3.657-1.75h.077c1.447 0 2.438.684 3.2 1.673.762.99 1.372 2.815 1.372 4.717 0 .456-.229.608-.61.608-2.972.153-7.011.229-9.83.229z"/><path fill-rule="evenodd" clip-rule="evenodd" d="M263.841 41.383c-1.143 0-2.362-.152-3.582-1.369-1.143-1.217-1.219-2.358-1.219-4.108V20.464h-3.429c0-.685.076-1.37.076-1.978.915 0 1.905-.076 2.82-.076.305 0 .686-.38.686-.761v-.38c.076-1.446.076-3.195.152-4.64.991-.685 2.286-1.37 2.896-1.598 0 1.293-.077 4.412-.077 6.922v.38h.381c2.439 0 5.03 0 7.468-.075 0 .684-.076 1.293-.076 1.901v.229h-7.773v6.618c-.076 2.282-.076 5.477-.076 8.292 0 2.282 1.448 3.803 3.658 3.803 1.067 0 2.82-.304 4.496-.76.076.532.152 1.14.229 1.75-2.287.912-4.877 1.292-6.63 1.292z"/><path d="M262.012 11.563c0 1.521-.076 4.184-.076 6.39v.76h.762c2.362 0 4.724 0 7.011-.075 0 .456-.077.912-.077 1.369h-7.849v6.999c-.076 2.282-.076 5.477-.076 8.291 0 2.51 1.6 4.184 4.039 4.184.991 0 2.591-.228 4.191-.684.076.304.076.684.153.989-2.134.76-4.573 1.14-6.173 1.14h-.076c-1.067 0-2.134-.151-3.277-1.216-1.067-1.142-1.143-2.13-1.143-3.88v-15.9h-3.429c0-.38 0-.837.076-1.217.762 0 1.6-.076 2.515-.076.533 0 1.067-.533 1.067-1.141v-.153c.076-1.445.076-3.195.152-4.64a62.9 62.9 0 012.21-1.141zm.61-1.141c-.153 0-2.21.989-3.506 1.902-.076 1.597-.076 3.651-.152 5.249 0 .228-.229.38-.305.38-1.067.076-2.134.076-3.2.076 0 .837-.077 1.826-.077 2.739h3.429c0 1.369-.076 4.792-.076 6.466 0 1.37-.076 5.857-.076 8.672 0 1.75.076 3.043 1.372 4.336 1.371 1.37 2.819 1.445 3.81 1.445h.076c1.829 0 4.648-.456 7.011-1.369a20.508 20.508 0 00-.381-2.434c-1.753.532-3.658.837-4.801.837-1.753 0-3.277-1.065-3.277-3.424 0-2.738 0-6.01.076-8.291v-6.238h7.773c.076-.913.153-1.902.153-2.891-2.515.076-5.258.076-7.849.076 0-2.358.076-5.401.076-7.303.076-.152 0-.228-.076-.228z"/><path fill-rule="evenodd" clip-rule="evenodd" d="M273.747 39.177l2.972-.152c.305 0 .534-.228.534-.608V20.692l-3.81-.076v-1.674c1.143-.152 2.743-.532 4.191-.76 1.067-.229 2.21-.457 2.743-.533 0 3.119 0 6.846-.076 10.574 0 3.804-.076 7.531-.076 10.422v.38l3.505.152v1.674h-9.983v-1.674zm4.649-27.766c-1.296 0-2.286-1.14-2.286-2.586 0-1.217.762-2.587 2.438-2.587 1.753 0 2.134 1.598 2.134 2.51 0 1.522-.915 2.663-2.286 2.663z"/><path d="M278.548 6.619c1.677 0 1.753 1.901 1.753 2.13 0 1.369-.762 2.282-1.905 2.282-1.067 0-1.905-.99-1.905-2.206 0-1.065.609-2.206 2.057-2.206zm1.448 11.41c0 2.967 0 6.619-.076 10.118 0 3.728-.076 7.531-.076 10.422v.76h.762l2.743.153v.913h-9.297v-.99l2.591-.151c.533 0 .914-.457.914-.99V20.313h-.762l-3.124-.077v-.988c1.067-.153 2.591-.457 3.886-.761.915-.152 1.829-.304 2.439-.457zm-1.448-12.171c-1.829 0-2.819 1.445-2.819 2.967 0 1.597 1.143 2.966 2.667 2.966 1.524 0 2.667-1.293 2.667-3.042 0-1.218-.61-2.891-2.515-2.891zm2.058 11.335c-.381 0-5.411 1.065-7.545 1.369v2.358l3.811.076v17.345c0 .076 0 .228-.153.228l-3.353.152v2.434c1.677 0 3.506-.076 5.182-.076h5.563c.076-.76.076-1.597.076-2.434l-3.505-.152c0-5.934.076-15.139.076-21.3h-.152z"/><path fill-rule="evenodd" clip-rule="evenodd" d="M296.151 41.46c-6.02 0-8.763-5.478-8.763-10.499 0-7.911 4.8-13.388 11.659-13.388 1.829 0 3.353.456 4.191.989-.153.76-.838 2.282-1.296 2.814 0 0-.076 0-.076-.076-.838-.38-2.514-1.293-4.343-1.293-1.982 0-3.429.685-4.573 2.206-.838 1.065-2.362 3.575-2.362 7.607 0 3.195.534 5.325 1.905 7.151 1.067 1.446 2.744 2.206 4.801 2.206 1.829 0 4.267-.76 5.944-1.521.152.532.228 1.14.381 1.75-2.439 1.217-5.334 2.053-7.468 2.053z"/><path d="M299.047 17.953c1.752 0 3.048.457 3.734.76-.153.61-.61 1.598-.915 2.13-.914-.456-2.514-1.216-4.343-1.216-2.058 0-3.658.76-4.877 2.358-.915 1.141-2.439 3.651-2.439 7.835 0 3.347.61 5.477 1.981 7.303 1.144 1.522 2.972 2.358 5.106 2.358 1.753 0 3.963-.684 5.639-1.369.076.304.153.685.229.99-2.286 1.14-5.03 1.9-7.087 1.9-4.191 0-8.383-3.118-8.383-10.117v-.076c.077-7.53 4.725-12.856 11.355-12.856zm0-.76c-7.087 0-12.04 5.705-12.04 13.692v.076c0 7.075 4.267 10.879 9.144 10.879 2.134 0 5.258-.761 7.925-2.206-.152-.761-.381-1.75-.533-2.51-1.677.76-4.268 1.673-6.173 1.673-1.524 0-3.276-.457-4.496-2.054-1.219-1.674-1.829-3.728-1.829-6.923 0-3.499 1.143-5.933 2.21-7.303 1.067-1.369 2.363-2.053 4.268-2.053 2.057 0 3.962 1.217 4.496 1.369.609-.457 1.6-2.663 1.6-3.5-.686-.532-2.362-1.14-4.572-1.14z"/><path fill-rule="evenodd" clip-rule="evenodd" d="M313.602 41.46c-2.515 0-4.573-.457-5.639-.913-.077-.99-.229-2.054-.381-3.043-.077-.99-.229-1.902-.305-2.891.609-.152 1.219-.304 1.905-.38l.609 3.27.077.153c.076.228.152.532.533.76.686.61 2.058 1.218 3.658 1.218s2.896-.152 3.962-.99c1.067-.836 1.524-1.977 1.524-3.422 0-2.967-1.524-3.5-5.181-4.717l-.686-.228c-3.887-1.293-5.411-2.967-5.411-5.934 0-3.195 2.286-4.868 2.972-5.325 1.448-.913 3.353-1.37 5.716-1.37 2.438 0 3.962.533 4.496.838.152 1.673.381 3.651.533 5.629-.305.076-1.524.228-1.829.304l-.61-3.195c-.076-.38-.228-.684-.533-.837-.686-.608-1.829-.912-3.201-.912-1.295 0-2.514.456-3.352 1.14-.915.762-1.372 1.827-1.372 3.196 0 2.51 1.219 3.043 5.182 4.412 3.581 1.141 6.096 2.358 6.096 6.39 0 2.358-1.067 4.26-3.048 5.63-1.067.684-3.201 1.216-5.715 1.216z"/><path d="M316.954 17.953c2.134 0 3.582.457 4.192.76.152 1.522.304 3.272.457 5.022-.153 0-.305.076-.534.076-.228 0-.381.076-.609.076l-.534-2.815c-.076-.456-.304-.837-.609-1.065-.762-.685-1.981-.989-3.429-.989-1.372 0-2.667.456-3.582 1.217-.991.837-1.524 1.978-1.524 3.5 0 2.89 1.677 3.499 5.487 4.792 3.505 1.141 5.867 2.206 5.867 6.01 0 2.206-.99 4.032-2.895 5.325-1.143.837-3.125 1.293-5.563 1.293-2.286 0-4.191-.456-5.258-.837-.076-.913-.229-1.901-.305-2.814-.076-.837-.229-1.674-.305-2.51l1.143-.229.534 2.89v.229c.076.304.228.608.685.913.762.684 2.287 1.37 3.887 1.37 1.371 0 2.895-.077 4.191-1.066 1.143-.913 1.676-2.206 1.676-3.727 0-3.196-1.828-3.88-5.41-5.097l-.762-.229c-3.734-1.217-5.106-2.738-5.106-5.553 0-3.043 2.134-4.64 2.82-5.02 1.372-1.066 3.2-1.522 5.486-1.522zm0-.76c-2.438 0-4.419.532-5.943 1.445-1.601.989-3.125 2.967-3.125 5.63 0 3.118 1.601 4.944 5.639 6.237 4.115 1.445 5.639 1.826 5.639 4.64 0 1.598-.685 2.51-1.371 3.12-1.067.76-2.363.912-3.734.912-1.372 0-2.744-.532-3.429-1.14-.305-.23-.381-.381-.458-.686l-.609-3.651c-.838.076-1.753.304-2.591.532.228 2.207.533 4.337.762 6.467 1.143.532 3.277 1.065 6.02 1.065 2.438 0 4.648-.457 6.02-1.37 2.134-1.369 3.201-3.499 3.201-5.933 0-4.336-2.82-5.553-6.402-6.695-3.962-1.369-4.953-1.825-4.953-4.031 0-1.446.534-2.359 1.22-2.891.685-.609 1.828-1.065 3.124-1.065 1.219 0 2.286.304 2.972.837.152.076.305.304.381.608l.686 3.5a41.155 41.155 0 012.514-.38c-.152-2.055-.381-4.185-.533-6.163-.61-.304-2.362-.989-5.03-.989z"/><path fill-rule="evenodd" clip-rule="evenodd" d="M40.108 0h-4.267c1.524 2.206 4.8 7.531 5.106 14.91.61 13.313-11.812 24.343-11.812 24.343s8.154-11.259 6.02-23.962C33.86 7.379 28.297 1.978 26.392.304c1.6 2.359 4.572 7.607 4.953 14.682C32.031 28.3 19.61 39.253 19.61 39.253s8.23-11.259 6.096-23.962C24.334 6.999 18.238 1.369 16.714.076h-3.353L.025 23.126l13.336 23.126h26.671l13.336-23.126L40.108 0z"/></g><defs><clipPath id="clip0_1_862"><path fill="#fff" d="M0 0h323v55H0z"/></clipPath></defs></svg>