<svg width="233" height="51" fill="none" xmlns="http://www.w3.org/2000/svg"><path fill-rule="evenodd" clip-rule="evenodd" d="M46.395 7.604h-8.642c-1.203 0-1.72.39-2.127 1.544l-11.27 32.003a2.46 2.46 0 00-.147.82c0 1.002.887 1.116 1.721 1.116h201.508l-1.556 4.392H15.789c-2.276 0-4.848-1.469-4.848-4.04 0-.782.223-1.562.481-2.288L24.524 3.489C25.208 1.516 27.28.026 29.372.026h19.595l-2.572 7.578z" fill="#9CA09E"/><path fill-rule="evenodd" clip-rule="evenodd" d="M40.455 39.792h-.038c-2.258 0-4.774-.615-4.774-3.388 0-.371.055-.726.186-1.08l7.069-20.59c.777-2.29 2.627-3.723 5.07-3.723H60.57c2.073 0 3.849 1.47 3.849 3.687 0 .65-.13 1.303-.352 1.917L57.09 36.349c-.814 2.308-2.627 3.443-5.033 3.443H40.455zm20.891 0l10.03-28.78h8.66l-1.351 3.573 3.35-3.574h6.199c1.85 0 3.7 1.377 3.7 3.37 0 .819-.26 1.619-.537 2.383l-8.252 23.028h-8.66l8.66-24.37h-4.46L70.1 39.793h-8.754zm29.681-7.95h8.753l-1.333 3.481h4.477l2.684-7.799H92.544l4.515-13.088c.759-2.196 2.682-3.425 4.958-3.425h13.23c1.776 0 3.701 1.135 3.701 3.147 0 .428-.093.856-.222 1.266l-1.536 4.747h-8.881l1.609-4.747h-4.311l-2.684 7.745h13.231l-4.626 13.479c-.759 2.252-2.961 3.145-5.144 3.145H93.653c-1.906 0-3.848-1.08-3.848-3.239 0-.427.074-.836.185-1.228l1.037-3.483zm25.257 7.95l8.532-24.37h-3.814l1.574-4.41h3.775l2.108-5.884h8.421l-1.853 5.883h3.277l-1.628 4.412h-3.201l-8.659 24.369h-8.532zm14.211 0l10.159-28.78h9.27c1.814 0 3.83.763 3.978 2.829a4.827 4.827 0 01-.277 1.917l-1.555 4.413h-3.737l1.591-4.747h-2.054l-8.568 24.369-8.807-.001zm26.96-28.78h8.567l-8.567 24.313h4.461l8.714-24.314h8.77l-10.029 28.78h-8.77l1.314-3.106-3.295 3.107h-5.792c-1.722 0-4.089-.576-4.089-2.756 0-.594.166-1.173.351-1.711l8.365-24.314zm30.697 28.78h-8.604c-1.795 0-3.367-1.451-3.367-3.295 0-.392.073-.8.203-1.172l6.958-19.902c.794-2.27 2.146-4.412 4.809-4.412h8.659l-1.48 4.412h-3.57l-7.031 19.902h4.792l-1.369 4.467zm3.109 0l8.753-24.37h-2.719l1.628-4.41h2.367l2.019-5.884h8.9l-1.908 5.883h3.222l-1.314 4.412h-3.498l-8.697 24.369h-8.753zm37.287 0h-9.104l1.259-2.902-3.332 2.902h-6.29c-1.742 0-3.684-.968-3.684-2.96 0-.502.111-1.025.296-1.507l4.516-12.158.445-1.359c.536-1.564 2.257-2.643 3.865-2.643h9.919l1.297-3.742h-11.917l1.553-4.412h15.58c1.703 0 4.108.56 4.108 2.7 0 .576-.222 1.172-.39 1.712l-8.121 24.369z" fill="#9CA09E"/><path fill-rule="evenodd" clip-rule="evenodd" d="M44.434 35.323h4.44l6.939-19.9H51.39l-6.957 19.9zm172.197 0h4.071l4.164-11.245h-4.164l-4.071 11.245z" fill="#fff"/></svg>