<svg width="382" height="374" fill="none" xmlns="http://www.w3.org/2000/svg"><path d="M367.649 94.7l-16.016 84.449a55.14 55.14 0 00-6.969-3.467c.969-7.17.619-11.151-.888-13.409.22-.376.372-.787.449-1.214a3.888 3.888 0 00-.595-2.896 3.834 3.834 0 00-2.453-1.622c-1-.192-2.033.024-2.873.601a3.862 3.862 0 00-1.61 2.472c-.02.116-.04.239-.054.353-2.966 1.343-4.912 5.92-6.871 11.415l-.039.401a56.489 56.489 0 00-34.863 7.103c-.814-14.509 4.213-33.554-.223-39.929a3.53 3.53 0 00.457-1.219 3.884 3.884 0 00-.788-3.161 3.826 3.826 0 00-2.906-1.428 3.81 3.81 0 00-2.957 1.322 3.88 3.88 0 00-.9 3.13c-10.054 6.078-11.695 43.964-24.785 41.834-13.179-2.151 6.352-56.104-3.427-68.291.3-.435.504-.93.597-1.452a3.885 3.885 0 00-.594-2.896 3.837 3.837 0 00-2.451-1.624 3.824 3.824 0 00-1.496.011 3.845 3.845 0 00-2.988 3.058 3.81 3.81 0 00-.055 1.071c-14.503 7.392-15.304 86.333-36.208 82.8-20.527-3.467 2.2-65.932-7.853-78.323a3.87 3.87 0 00.157-2.111 3.9 3.9 0 00-.583-1.389 3.883 3.883 0 00-1.067-1.059 3.813 3.813 0 00-4.263.033 3.856 3.856 0 00-1.676 3.029c-14.219 6.296-22.095 57.876-30.393 56.764l20.554-108.384L367.649 94.7zm-129.79-15.476a4.18 4.18 0 00-.252-2.4 4.155 4.155 0 00-1.533-1.855 4.102 4.102 0 00-4.584.035 4.147 4.147 0 00-1.505 1.877 4.186 4.186 0 00.928 4.524 4.115 4.115 0 002.12 1.121 4.112 4.112 0 003.088-.648 4.167 4.167 0 001.738-2.654zm-17.262-3.33a4.18 4.18 0 00-.252-2.401 4.149 4.149 0 00-1.533-1.854 4.101 4.101 0 00-4.584.034 4.14 4.14 0 00-1.505 1.877 4.186 4.186 0 00.927 4.524 4.104 4.104 0 005.214.478 4.156 4.156 0 001.733-2.659zm-17.257-3.322a4.19 4.19 0 00-.254-2.398 4.152 4.152 0 00-1.534-1.852 4.098 4.098 0 00-4.581.037 4.152 4.152 0 00-1.504 1.877 4.189 4.189 0 00.929 4.52 4.111 4.111 0 002.119 1.121 4.105 4.105 0 003.09-.647 4.166 4.166 0 001.735-2.657z" fill="#fff"/><path d="M363.24 188.168c10.666 10.749 16.659 25.328 16.659 40.53 0 15.201-5.993 29.781-16.659 40.531-10.667 10.748-25.133 16.786-40.217 16.786-15.086 0-29.552-6.038-40.219-16.786l40.219-40.531 40.217-40.53z" fill="#F7CEDC"/><path d="M363.24 188.167l-40.217 40.527-40.219-40.53a56.795 56.795 0 0129.059-15.668 56.537 56.537 0 0132.805 3.181c2.4.991 4.729 2.15 6.968 3.467a56.876 56.876 0 0111.604 9.023z" fill="#006B99"/><path d="M343.787 162.273c1.507 2.258 1.857 6.239.888 13.409a56.272 56.272 0 00-14.934-3.9l.041-.402c1.959-5.494 3.905-10.072 6.871-11.415a3.886 3.886 0 00.615 2.496 3.836 3.836 0 002.031 1.553c.834.27 1.734.244 2.549-.074a3.842 3.842 0 001.941-1.669l-.002.002z" fill="#fff"/><path d="M341.189 156.542a3.831 3.831 0 012.452 1.622c.571.847.785 1.889.596 2.895-.077.429-.23.84-.45 1.214a6.32 6.32 0 00-3.953-2.537 4.664 4.664 0 00-3.184.231c.012-.114.033-.236.054-.353a3.839 3.839 0 012.987-3.062 3.815 3.815 0 011.498-.01z" fill="#006B99"/><path d="M343.787 162.273a3.838 3.838 0 01-1.94 1.669 3.822 3.822 0 01-4.581-1.48 3.887 3.887 0 01-.615-2.495 4.67 4.67 0 013.186-.23 6.316 6.316 0 013.95 2.536z" fill="#006B99"/><path d="M323.023 228.694l-40.219 40.53a57.29 57.29 0 01-12.335-18.594 57.68 57.68 0 010-43.872 57.29 57.29 0 0112.335-18.594l40.219 40.53z" fill="#CCEFF6"/><path d="M292.065 133.223c.494.095.966.286 1.386.565.423.278.785.637 1.068 1.057a3.884 3.884 0 01.594 2.897 3.537 3.537 0 01-.458 1.22 4.76 4.76 0 00-2.955-2.021 5.355 5.355 0 00-4.137.664 3.87 3.87 0 011.123-3.368 3.803 3.803 0 013.379-1.014z" fill="#006B99"/><path d="M294.655 138.962c4.437 6.368-.597 25.413.223 39.927a57.146 57.146 0 00-18.52 17.056 57.664 57.664 0 00-9.451 23.421l-35.42-6.822-66.832-12.873 5.144-27.124.666-3.485c8.298 1.111 16.173-50.468 30.412-56.762a3.9 3.9 0 00.814 2.551 3.834 3.834 0 002.265 1.404 3.804 3.804 0 002.626-.418 3.843 3.843 0 001.725-2.038c10.056 12.392-12.672 74.856 7.855 78.323 20.906 3.533 21.702-75.408 36.208-82.799.073.79.384 1.538.894 2.143a3.807 3.807 0 006.075-.312c9.78 12.188-9.757 66.141 3.426 68.292 13.092 2.128 14.734-35.757 24.788-41.835.12.789.478 1.522 1.029 2.096a3.8 3.8 0 004.345.831 3.837 3.837 0 001.719-1.57l.009-.006z" fill="#fff"/><path d="M291.7 136.941a4.763 4.763 0 012.955 2.021 3.837 3.837 0 01-1.719 1.57c-.72.332-1.526.43-2.303.281a3.817 3.817 0 01-2.042-1.112 3.855 3.855 0 01-1.028-2.096 5.358 5.358 0 014.137-.664zm-34.794-31.768a3.843 3.843 0 012.453 1.626c.571.848.786 1.89.597 2.897a3.719 3.719 0 01-.607 1.452 6.204 6.204 0 00-3.783-2.293 4.865 4.865 0 00-3.204.462 3.817 3.817 0 01.055-1.072 3.865 3.865 0 011.611-2.475 3.82 3.82 0 012.878-.597z" fill="#006B99"/><path d="M259.349 111.149a3.839 3.839 0 01-1.818 1.43 3.808 3.808 0 01-4.257-1.119 3.87 3.87 0 01-.894-2.143 4.87 4.87 0 013.204-.462 6.204 6.204 0 013.765 2.294z" fill="#006B99"/><path d="M234.582 74.353a4.117 4.117 0 012.125 1.12 4.166 4.166 0 011.147 2.123 4.179 4.179 0 01-1.722 4.287 4.106 4.106 0 01-4.589.035 4.167 4.167 0 01-1.786-4.26 4.169 4.169 0 011.737-2.656 4.11 4.11 0 013.088-.65zm-17.264-3.323a4.113 4.113 0 012.122 1.12 4.175 4.175 0 01.929 4.524 4.148 4.148 0 01-1.505 1.878 4.105 4.105 0 01-4.584.035 4.144 4.144 0 01-1.533-1.854 4.166 4.166 0 011.481-5.058 4.099 4.099 0 013.09-.645z" fill="#F7CEDC"/><path d="M203.933 250.517l12.269 65.539-9.744 1.852-12.262-65.538 9.737-1.853z" fill="#CCEFF6"/><path d="M205.426 108.665c1 .193 1.883.778 2.454 1.626.572.849.787 1.891.597 2.898-.04.205-.096.407-.17.602a5.493 5.493 0 00-3.505-2.042 6.862 6.862 0 00-3.925.543c.008-.186.029-.372.061-.555a3.878 3.878 0 011.613-2.472 3.817 3.817 0 012.875-.6z" fill="#006B99"/><path d="M204.802 111.751a5.493 5.493 0 013.505 2.042 3.866 3.866 0 01-1.725 2.039 3.81 3.81 0 01-2.626.417 3.83 3.83 0 01-2.265-1.404 3.877 3.877 0 01-.814-2.551 6.861 6.861 0 013.925-.543z" fill="#006B99"/><path d="M197.284 214.991l-9.741 1.852 6.654 35.544 9.741-1.852-6.654-35.544zm2.778-147.284a4.109 4.109 0 012.122 1.121 4.168 4.168 0 011.146 2.12 4.19 4.19 0 01-.217 2.405 4.148 4.148 0 01-1.505 1.877 4.098 4.098 0 01-4.584.035 4.149 4.149 0 01-1.533-1.854 4.18 4.18 0 01-.252-2.4 4.154 4.154 0 011.735-2.656 4.102 4.102 0 013.088-.648z" fill="#F7CEDC"/><path d="M183.488 293.805l5.146 27.488v.007l-9.738 1.846-5.149-27.492 9.741-1.849z" fill="#CCEFF6"/><path d="M169.724 220.225l-9.742 1.852 13.777 73.589 9.741-1.853-13.776-73.588z" fill="#F7CEDC"/><path d="M151.815 277.079l9.254 49.457-9.74 1.852-9.26-49.458 9.738-1.851h.008z" fill="#CCEFF6"/><path d="M142.151 225.451l9.664 51.628h-.008l-9.738 1.853-9.664-51.628 9.746-1.853z" fill="#F7CEDC"/><path d="M139.007 66.528a53.135 53.135 0 01-2.389 33.979 97.516 97.516 0 00-5.875 57.649l.209 1.019c.528 2.523.08 5.152-1.252 7.353a10.035 10.035 0 01-5.916 4.485l-1.651.433-.019-.074-19.813-76.202c-1.439 7.785-5.802 7.745-9.497 5.004 2.411-5.494 1.92-14.378-3.096-13.056-5.35 1.405-1.694 9.503 3.096 13.056-1.877 4.288-5.525 6.511-10.154.185l19.809 76.212.019.068-1.278.34c-.799.199-1.62.302-2.443.305a9.993 9.993 0 01-5.928-1.969 10.125 10.125 0 01-3.628-5.118c-5.988-19.166-17.658-36.024-33.44-48.305a53.013 53.013 0 01-15.439-19.504 53.427 53.427 0 01-4.89-24.458 53.384 53.384 0 016.738-24.007A52.913 52.913 0 0159.05 35.67a52.408 52.408 0 0123.289-8.463c8.32-.916 16.737.18 24.553 3.196a52.653 52.653 0 0120.392 14.149 53.197 53.197 0 0111.723 21.975z" fill="#FAE173"/><path d="M133.926 184.201a5.085 5.085 0 01-1.826 5.342 4.99 4.99 0 01-1.774.863l-25.03 6.605a4.958 4.958 0 01-1.966.119 5.025 5.025 0 01-3.333-1.968 5.102 5.102 0 01-.86-1.786 5.044 5.044 0 01-.167-1.288 5.124 5.124 0 011.054-3.106 5.055 5.055 0 012.715-1.812l25.029-6.605a5.058 5.058 0 013.291.25 5.053 5.053 0 012.867 3.386zm-2.487 136.543l-9.741 1.851 2.066 11.044 9.742-1.851-2.067-11.044zm.004-130.548a10.241 10.241 0 01-1.779 8.794 10.093 10.093 0 01-5.43 3.622l-8.446 2.224a10.008 10.008 0 01-7.656-1.056 10.112 10.112 0 01-2.947-2.634 10.199 10.199 0 01-1.719-3.573l27.977-7.377z" fill="#CCEFF6"/><path d="M114.583 230.694l16.852 90.042-9.738 1.853-16.86-90.043 9.746-1.852z" fill="#F7CEDC"/><path d="M131.356 174.278c.106.42.161.853.161 1.29a5.108 5.108 0 01-1.051 3.109 5.051 5.051 0 01-2.718 1.814l-25.029 6.605a4.963 4.963 0 01-4.435-.963 5.111 5.111 0 01-1.387-1.769 5.156 5.156 0 01-.499-2.197 5.117 5.117 0 011.054-3.106 5.049 5.049 0 012.715-1.812l1.037-.272 1.279-.338 19.651-5.183 1.65-.434 1.412-.372a5.015 5.015 0 013.824.53 5.085 5.085 0 012.336 3.098z" fill="#CCEFF6"/><path d="M122.107 171.382l.02.074-19.651 5.183-.02-.068-19.808-76.213c4.631 6.326 8.278 4.103 10.154-.185 3.695 2.741 8.057 2.781 9.497-5.004l19.808 76.213z" fill="#FAE173"/><path d="M89.708 87.118c5.015-1.322 5.507 7.562 3.096 13.056-4.79-3.554-8.446-11.646-3.096-13.056z" fill="#F7CEDC"/><path d="M80.092 262.537a25.01 25.01 0 01-3.867 18.613 24.65 24.65 0 01-15.792 10.409l-1.278-6.844a17.695 17.695 0 008.83-4.507 17.92 17.92 0 005.06-8.573 18.016 18.016 0 00-.282-9.971 17.894 17.894 0 00-5.539-8.269l4.643-5.149a24.762 24.762 0 018.225 14.291z" fill="#CCEFF6"/><path d="M71.867 248.246l-4.643 5.149a17.632 17.632 0 00-21.212-1.157 17.862 17.862 0 00-6.88 8.899 18.01 18.01 0 00-.224 11.278l-.11.034-6.7 1.276a23.435 23.435 0 01-.459-1.981 25.019 25.019 0 011.809-14.954 24.783 24.783 0 0110.051-11.151 24.504 24.504 0 0114.597-3.247 24.56 24.56 0 0113.775 5.851l-.004.003z" fill="#F7CEDC"/><path d="M65.776 333.223l2.067 11.035-18.46 3.514-2.067-11.044 18.46-3.505zM62.7 316.768l2.067 11.036-18.468 3.513-2.065-11.041 18.467-3.508z" fill="#006B99"/><path d="M61.86 204.461c.18.966.07 1.965-.313 2.87a4.968 4.968 0 01-1.842 2.21 4.91 4.91 0 01-5.483-.058 4.972 4.972 0 01-1.796-2.25 5.012 5.012 0 01-.253-2.876c.2-.964.678-1.845 1.375-2.533a4.932 4.932 0 012.538-1.339 4.952 4.952 0 011.93.019 4.926 4.926 0 011.775.763 4.97 4.97 0 012.07 3.194z" fill="#F7CEDC"/><path d="M59.618 300.316l2.067 11.033-18.468 3.513-2.065-11.041 18.466-3.505zm-.464-15.601l1.279 6.844a24.495 24.495 0 01-17.624-3.34 24.83 24.83 0 01-10.716-14.491l6.702-1.276.11-.034a17.875 17.875 0 007.797 10.04 17.638 17.638 0 0012.453 2.257z" fill="#006B99"/><path d="M41.184 208.387c.18.966.073 1.966-.31 2.872a4.96 4.96 0 01-1.84 2.213 4.902 4.902 0 01-5.484-.051 4.974 4.974 0 01-1.797-2.251 5.009 5.009 0 011.118-5.411 4.915 4.915 0 017.592.825c.355.548.6 1.161.72 1.803zm-20.674 3.934c.179.967.07 1.965-.314 2.87a4.972 4.972 0 01-1.842 2.212 4.906 4.906 0 01-5.483-.059 4.959 4.959 0 01-1.796-2.251 5.006 5.006 0 011.122-5.409 4.922 4.922 0 014.468-1.319c.636.133 1.24.393 1.776.762a4.967 4.967 0 012.068 3.194z" fill="#F7CEDC"/><path d="M123.778 171.022a10.036 10.036 0 005.916-4.484 10.18 10.18 0 001.252-7.353l-.209-1.02a97.524 97.524 0 015.875-57.649 53.449 53.449 0 003.446-28.933 53.259 53.259 0 00-12.232-26.406 52.631 52.631 0 00-24.223-15.916 52.274 52.274 0 00-28.91-.628 52.58 52.58 0 00-24.881 14.849 53.212 53.212 0 00-13.351 25.85 53.462 53.462 0 002.205 29.056 53.052 53.052 0 0017.096 23.503c15.778 12.282 27.444 29.14 33.429 48.305a10.122 10.122 0 003.628 5.119 9.997 9.997 0 005.929 1.967 10.122 10.122 0 002.443-.304m-2.913 9.16a5.154 5.154 0 01-1.885-3.968 5.112 5.112 0 011.054-3.104 5.05 5.05 0 012.715-1.813l1.037-.271 1.278-.339 19.651-5.183 1.651-.433 1.411-.374a4.987 4.987 0 011.968-.12c.657.09 1.291.309 1.864.647a5.02 5.02 0 011.476 1.316 5.068 5.068 0 011.026 3.075c0 1.125-.37 2.219-1.052 3.109a5.052 5.052 0 01-2.717 1.816l-25.035 6.6a4.964 4.964 0 01-4.436-.963m4.018-90.963l19.806 76.212m-29.304-71.209c3.695 2.741 8.057 2.781 9.497-5.004" stroke="#1F2223" stroke-width="2" stroke-linecap="round" stroke-linejoin="round"/><path d="M92.804 100.174c2.41-5.494 1.92-14.378-3.096-13.056-5.35 1.41-1.694 9.502 3.096 13.056zm9.652 76.396l-19.808-76.212c4.631 6.326 8.278 4.103 10.154-.185m38.257 80.642a5.064 5.064 0 012.312 2.044c.542.907.789 1.96.708 3.016a5.108 5.108 0 01-1.157 2.87 5.044 5.044 0 01-2.596 1.661l-25.03 6.605a4.958 4.958 0 01-1.966.119 5.025 5.025 0 01-3.333-1.968 5.102 5.102 0 01-.86-1.786 5.044 5.044 0 01-.167-1.288 5.124 5.124 0 011.054-3.106 5.055 5.055 0 012.715-1.812l25.029-6.605a5.058 5.058 0 013.291.25zm-6.825 21.798l-8.446 2.227a10.042 10.042 0 01-7.656-1.057 10.13 10.13 0 01-4.666-6.207l27.977-7.38a10.224 10.224 0 01-1.779 8.794 10.08 10.08 0 01-5.43 3.623zm227.399-23.457c12.607 7.415 21.865 19.477 25.82 33.639a57.147 57.147 0 01-4.624 42.273c-6.92 12.955-18.561 22.695-32.47 27.167a55.912 55.912 0 01-42.081-3.197c-13.086-6.522-23.148-17.911-28.063-31.765a57.162 57.162 0 011.716-42.493c6.017-13.404 16.964-23.931 30.533-29.36a55.913 55.913 0 0142.201.262c2.4.99 4.729 2.148 6.968 3.467m-220.863.812l.128-.025 38.899-7.394" stroke="#1F2223" stroke-width="2" stroke-linecap="round" stroke-linejoin="round"/><path d="M231.487 212.538l21.811 116.548-220.532 41.928-31.161-166.5 96.672-18.381h.007m-68.95 38.803l131.162-24.937" stroke="#1F2223" stroke-width="2" stroke-linecap="round" stroke-linejoin="round"/><path d="M20.51 212.321c.179.967.07 1.965-.314 2.87a4.972 4.972 0 01-1.842 2.212 4.906 4.906 0 01-5.483-.059 4.959 4.959 0 01-1.796-2.251 5.006 5.006 0 011.122-5.409 4.922 4.922 0 014.468-1.319c.636.133 1.24.393 1.776.762a4.967 4.967 0 012.068 3.194zm20.674-3.934c.18.966.073 1.966-.31 2.872a4.96 4.96 0 01-1.84 2.213 4.902 4.902 0 01-5.484-.051 4.974 4.974 0 01-1.797-2.251 5.009 5.009 0 011.118-5.411 4.915 4.915 0 017.592.825c.355.548.6 1.161.72 1.803zm20.676-3.926c.18.966.07 1.965-.313 2.87a4.968 4.968 0 01-1.842 2.21 4.91 4.91 0 01-5.483-.058 4.972 4.972 0 01-1.796-2.25 5.012 5.012 0 01-.253-2.876c.2-.964.678-1.845 1.375-2.533a4.932 4.932 0 012.538-1.339 4.952 4.952 0 011.93.019 4.926 4.926 0 011.775.763 4.97 4.97 0 012.07 3.194zm205.047 14.899l-35.42-6.822-66.832-12.873 5.144-27.124.666-3.485 20.553-108.384L367.651 94.7l-16.018 84.449v.005M206.977 83.516l140.531 27.069" stroke="#1F2223" stroke-width="2" stroke-linecap="round" stroke-linejoin="round"/><path d="M203.34 72.572a4.169 4.169 0 01-1.113 2.136 4.093 4.093 0 01-4.486.935 4.127 4.127 0 01-1.862-1.516 4.169 4.169 0 01-.712-2.302 4.17 4.17 0 01.677-2.314 4.13 4.13 0 011.838-1.545 4.092 4.092 0 013.871.354 4.148 4.148 0 011.774 2.63c.11.535.114 1.087.013 1.622zm17.259 3.321a4.172 4.172 0 01-1.114 2.137 4.096 4.096 0 01-4.488.936 4.135 4.135 0 01-1.863-1.516 4.173 4.173 0 01-.713-2.304 4.175 4.175 0 01.677-2.315 4.133 4.133 0 011.84-1.546 4.106 4.106 0 015.022 1.49 4.201 4.201 0 01.639 3.118zm17.26 3.331a4.163 4.163 0 01-1.115 2.135 4.112 4.112 0 01-2.105 1.15 4.091 4.091 0 01-2.383-.222 4.135 4.135 0 01-1.862-1.518 4.178 4.178 0 01-.709-2.304 4.17 4.17 0 01.677-2.313 4.137 4.137 0 011.839-1.544 4.102 4.102 0 012.382-.255 4.137 4.137 0 012.639 1.752c.613.914.843 2.036.637 3.12zm105.927 83.049c1.507 2.26 1.857 6.241.887 13.409m-14.895-4.3c1.96-5.494 3.905-10.072 6.871-11.415m-41.994-21.005c4.435 6.369-.598 25.413.222 39.929m-35.528-67.742c9.78 12.187-9.757 66.14 3.425 68.291 13.091 2.128 14.735-35.757 24.789-41.834m-79.256-23.813c10.056 12.392-12.672 74.856 7.855 78.323 20.906 3.534 21.702-75.407 36.208-82.799m-81.905 59.739c8.298 1.111 16.172-50.468 30.412-56.762M71.867 248.246a24.837 24.837 0 016.731 9.289 25.016 25.016 0 01-1.555 22.324 24.758 24.758 0 01-7.953 8.251 24.48 24.48 0 01-22.098 2.213 24.642 24.642 0 01-9.409-6.512 24.89 24.89 0 01-5.49-10.083c-.183-.652-.33-1.31-.458-1.979a25.024 25.024 0 011.81-14.956 24.768 24.768 0 0110.05-11.149 24.49 24.49 0 0114.597-3.247 24.543 24.543 0 0113.775 5.849z" stroke="#1F2223" stroke-width="2" stroke-linecap="round" stroke-linejoin="round"/><path d="M67.224 253.395a17.92 17.92 0 016.035 10.174 18.019 18.019 0 01-1.6 11.745 17.817 17.817 0 01-8.535 8.157 17.618 17.618 0 01-11.72.99 17.742 17.742 0 01-9.764-6.61 17.989 17.989 0 01-3.52-11.311 17.971 17.971 0 014.268-11.045 17.726 17.726 0 0110.184-5.933 17.52 17.52 0 017.754.254 17.615 17.615 0 016.898 3.579zm-8.069 31.32l1.278 6.844m6.791-38.164l4.643-5.149" stroke="#1F2223" stroke-width="2" stroke-linecap="round" stroke-linejoin="round"/><path d="M38.795 272.452l-6.702 1.276-.082.014m184.191 42.314l20.319-3.864-18.515-98.916m-29.372 108.017l17.824-3.385m-27.562 5.236l9.738-1.846m-27.565 5.238l17.827-3.386m-45.394 8.628l17.827-3.39m-46.005 8.748l18.44-3.506m-62.079-22.281l-18.468 3.513-2.065-11.041 18.466-3.505 2.067 11.033zm3.082 16.455L46.3 331.317l-2.065-11.041 18.467-3.508 2.066 11.036zm3.076 16.454l-18.46 3.514-2.067-11.044 18.46-3.505 2.067 11.035zm65.658-12.48l-9.738 1.853-2.066-11.042-16.86-90.043 9.746-1.852 16.852 90.042 2.066 11.042zm27.568-5.242l-9.74 1.852-9.26-49.456-9.664-51.628 9.746-1.853 9.664 51.628 9.254 49.457zm27.565-5.238l-9.738 1.853v-.007l-5.149-27.49-13.775-73.588 9.739-1.852 13.777 73.591 5.146 27.488v.005z" stroke="#1F2223" stroke-width="2" stroke-linecap="round" stroke-linejoin="round"/><path d="M216.202 316.056l-9.744 1.852-12.262-65.538-6.658-35.546 9.739-1.853 6.656 35.546 12.269 65.539zm-94.504 6.533l9.738-1.851m10.633-41.808l9.738-1.851m21.94 18.575l9.741-1.849m10.708-41.435l9.737-1.853m159.302-62.349l-40.212 40.526-40.213 40.523m0-81.049l40.213 40.526M71.41 19.784L66.542 1.605m25.953 18.179L94.46 3.485M52.793 32.29L42.08 19.782" stroke="#1F2223" stroke-width="2" stroke-linecap="round" stroke-linejoin="round"/></svg>