<svg width="18" height="24" fill="none" xmlns="http://www.w3.org/2000/svg"><path fill-rule="evenodd" clip-rule="evenodd" d="M5.602 23.796v-4.255h6.273v4.255h4.727V.878H.875v22.918h4.727zm6.273-20.813h2.646v2.675h-2.646V2.983zm2.646 3.89h-2.646v2.675h2.646V6.872zm-2.646 3.889h2.646v2.674h-2.646v-2.674zm2.646 3.888h-2.646v2.676h2.646V14.65zM7.416 2.983h2.647v2.675H7.416V2.983zm2.647 3.89H7.416v2.675h2.647V6.872zm-2.647 3.889h2.647v2.674H7.416v-2.674zm2.647 3.888H7.416v2.676h2.647V14.65zM2.958 2.983h2.645v2.675H2.958V2.983zm2.645 3.89H2.958v2.675h2.645V6.872zm-2.645 3.889h2.645v2.674H2.958v-2.674zm2.645 3.888H2.958v2.676h2.645V14.65z" fill="#58BEBF"/></svg>