<svg width="118" height="41" fill="none" xmlns="http://www.w3.org/2000/svg"><path d="M117.985 25.176c-.028-.197-.303-.372-.408-.55-.067-.115-.116-.242-.211-.342-.192-.204-.362-.378-.566-.464-.271-.116-.679.039-.978.063-.37.029-.496-.006-.922.101-.37.094-.724.172-1.072.243-.604.121-1.193.211-1.826.297-.515.07-1.029.147-1.546.218-.475.064-.831.06-1.306.113-.38.041-.88.125-1.26.163-.631.06-1.316.074-1.906.084-.508.008-1.019.006-1.527-.008-.711-.018-1.423-.033-2.131-.07a146.81 146.81 0 01-1.969-.126c-.964-.133-1.931-.262-2.893-.409-.608-.092-.513-1.03-.7-1.534a6.576 6.576 0 00-1.047-1.832c-.899-1.117-2.175-1.969-3.61-2.22-.177-.03-.358-.048-.532-.09-.19-.044-.372-.14-.562-.162-.316-.033-.637-.021-.953-.039-.046-.002-.091-.066-.133-.106-.164-.15-.319-.31-.493-.452-.186-.15-.401-.268-.575-.428-.264-.243-1.144-.386-1.405-.155a5.16 5.16 0 00-.796.898c-.338.486-.623 1.006-.946 1.505-.203.316-.437.611-.649.92-.186.272-.356.554-.538.83-.196.296-.437.57-.59.887-.116.24-.275.4-.482.55-.076.054-.115.162-.159.25-.031.065-.504.501-.684.687-.248.254-.414.603-.69.81-.302.225-.497.507-.727.781-.253.303-1.14 1.194-1.405 1.378-.14.21-.93 1.012-1.019 1.1a75.206 75.206 0 00-2.107 2.262c-.55.648-2.379 2.402-2.628 2.625-.2.18-.572.528-.79.685-.423.307-2.407 2.15-3.482 1.992-.406-.06-.728-.39-.898-.757-.168-.368-.204-.783-.214-1.188-.038-1.828 1.187-4.504 1.905-6.193.691-1.618 1.621-3.166 2.585-4.636 1.12-1.709 2.305-3.374 3.488-5.04 1.09-1.534 2.228-2.843 3.455-4.274.437-.51.914-1.223 1.5-1.58.647-.39 1.642-.258 2.394-.246.23.004.572.006.801.014.885.023 1.771.037 2.656.066.32.01.643.061.963.055.752-.012 1.504-.06 2.256-.066.843-.006 1.686.017 2.529.027 1.094.012.665-.02 1.76-.016.597.002 1.194-.035 1.792-.017 1.314.04 1.377.143 2.679.055 1.452-.098 1.407.148 2.869-.112.495-.088.966-.17 1.134-.658.148-.426-.026-1.049-.273-1.403-.35-.499-.96-.771-1.567-.853-1.039-.141-.699-.035-1.757-.11-1.002-.07-.754-.117-1.758-.17a1303.288 1303.288 0 00-5.139-.045c-.763-.004-2.223.12-2.951.131-.683.012-1.358-.047-2.038-.106-.754-.064-1.518-.037-2.278-.029-.378.004-.756.053-1.21.088.072-.172.114-.284.167-.39.087-.17.182-.338.277-.504.018-.032.816-1.05 1.09-1.572.159-.301.847-1.485 1.043-1.742.309-.403-.24-.886-.37-.941-.211-.088-.411-.411-.564-.5-.63-.369-.63-.369-1.019-.614-.207-.13-.459-.2-.696-.274-.107-.033-.265-.064-.345-.011a7.36 7.36 0 00-.9.692c-.15.14-.227.353-.344.529-.384.585-1 .965-1.36 1.591-.354.618-.92 1.102-1.313 1.712-.384.593-.835 1.147-1.28 1.701-.19.237-.398.468-.778.45-.398-.02-.802.02-1.2.055-.59.053-1.18.135-1.772.184a6.428 6.428 0 00-2.416.695c-.303.156-.616.34-.794.632-.29.478-.14 1.086.018 1.62a8.794 8.794 0 002.65.349c.894-.02 1.46-.084.833.869-.07.107-1.997 3.27-2.153 3.523-.238.383-2.086 2.886-2.464 3.427-.362.516-1.226 1.442-1.244 1.462-.277.295-.556.59-.837.884-.238.247-.48.487-.717.732-.031.045-2.958 2.785-3.371 3.175-.244.229-.61.604-.873.812-.233.184-.4.364-.633.544l-.18.145c-.425.362-.742.612-1.387 1.203-.107.098-.833.687-1.237 1.004a82.307 82.307 0 01-2.178 1.632c-.422.31-.863.594-1.29.897-.076.053-.188.154-.264.2-.405.24-.825.463-1.232.7a8.402 8.402 0 01-2.416.94c-.323.07-.66.107-.988.103-2.261-.023-1.296-4.198-.67-6.182l.249-.73c.77-2.055 1.943-3.554 3.502-5.065.2-.194 1.409-1.45 1.836-1.865.208-.202 2.907-3.234 3.342-3.65.376-.36.705-.771 1.049-1.163.198-.227 2.845-3.421 3.314-3.934.539-.587 1.085-1.168 1.6-1.777.634-.75 1.267-1.5 1.85-2.29.593-.802 1.293-1.495 1.831-2.368.349-.565.843-1.162 1.237-1.763.77-1.174.384-2.12.186-2.405-.215-.314-.445-.494-.718-.77-.168-.17-.477-.291-.67-.344-1.564-.425-2.623.03-3.147.211-.194.067-.37.204-.538.33-.252.187-1.146.811-1.318.962-1.383 1.204-2.663 2.327-3.859 3.71-.652.525-1.19 1.379-1.739 2.013-.62.716-2.59 3.442-3.023 4.041-1.354 1.87-2.5 3.873-3.582 5.903-.554 1.037-1.09 2.082-1.63 3.127-.473.91-.946 2.063-1.688 2.79-.441.432-1.06 1.158-1.668 1.772-.315.32-.522.488-.74.695-.04.037-.406.378-.732.685-.297.28-.7.63-1.041.947-.526.492-.997.922-1.069.969-.385.311-.672.527-1.165.914-.376.296-.898.677-1.266.93-.535.366-.998.604-1.405.75-.679.238-1.239.312-1.57.24-.676-.137-.567-.986-.528-1.323.05-.429.15-.914.266-1.35.053-.204.11-.398.166-.568.09-.276.206-.607.354-.98.073-.183.144-.368.222-.562.166-.417.356-.867.629-1.366.186-.343.455-1.11.613-1.396.564-1.006 1.079-1.75 1.118-1.82.222-.383 1.767-2.485 1.817-2.568a.506.506 0 00-.155-.702 8.11 8.11 0 01-.484-.343c-.064-.06-.159-.125-.232-.18-.055-.043-.368-.197-.473-.25-.127-.065-.653-.274-.712-.3-.376-.16-1.057.378-1.223.272-.095-.06-.58-.606-1.1-.931-.192-.12-.489-.284-.744-.427-.408-.227-.847-.372-1.033-.438-.291-.104-.536-.192-.752-.262-.683-.224-1.338-.188-2.076.02-.544.152-.934.465-1.428.721-.689.355-1.554.957-2.094 1.357-.33.242-2.485 1.843-2.628 1.976-.445.415-1.582 1.188-2.275 1.814a2.028 2.028 0 00-.184.198c-.431.325-.863.65-1.29.98-.291.226-.548.492-.837.717-.281.22-.532.499-.82.71-.676.501-1.193 1.041-1.899 1.607-.043.035-.1.059-.15.092-.188.131-1.63 1.333-1.943 1.538-.374.249-2.666 2.179-3.115 2.543a65.624 65.624 0 01-2.214 1.71c-.334.243-.69.454-1.03.69-.559.383-1.103.786-1.669 1.156-.631.413-1.284.794-1.923 1.196-.157.097-.287.234-.445.326-.327.19-.665.357-.996.539a13.863 13.863 0 01-3.395 1.305c-.129.031-.263.037-.394.055-.384.049-.768.104-1.154.14-.21.02-.423.008-.635.013-.12.001-.243 0-.364.007-.318.024-.665-.154-.954.11-.283.258-.429.597-.492.957-.032.186.01.405.083.583.154.376.477.575.863.685.14.041.296.069.41.15.282.206.565.396.925.425.137.012 1.724-.04 2.377-.095.376-.032.753-.055 1.122-.122.419-.078.829-.195 1.24-.307.119-.031.228-.104.343-.153.757-.327 1.264-.54 2.02-.873.109-.047.447-.258.552-.315.346-.185.702-.35 1.043-.546a44.827 44.827 0 001.85-1.1c.694-.44 1.377-.9 2.048-1.373.41-.29 2.896-2.417 3.233-2.688.15-.12.342-.195.485-.324.463-.415.896-.863 1.37-1.265.63-.53 1.291-1.021 1.93-1.54.386-.313.748-.654 1.134-.967.164-.133.332-.262.498-.391-.031.139-.047.217-.049.219-.128.221-.158.284-.447.832-.289.55-.499 1.107-.653 1.448-.208.454-.356.851-.517 1.362-.102.327-.132.803-.195 1.14-.042.216-.028 1.03.433 1.743.18.28.47.783.823 1.027.19.186 1.148.822 2.701.9.37.02.683.012 1.245-.085.672-.12.97-.304 1.359-.466.144-.06.512-.266.906-.468.455-.235.74-.48.889-.581.093-.065.401-.345.692-.597a73.512 73.512 0 001.734-1.597c.04-.051.364-.417.678-.72.436-.421 1.094-1.2 1.306-1.384.077-.066.451-.528.435-.46-.023.108-.035.638.02 1.104.036.291.066.679.182 1.024.115.336.29 1.054.996 1.565.156.112.296.25.47.362.291.186.632.343 1.03.458.031.01.415.096 1.06.073.307-.012.67-.047 1.084-.128a8.91 8.91 0 001.192-.326c.067-.028.324-.147.597-.263.5-.21 1.045-.507 1.635-.835 1.539-.858 4.262-3.384 4.333-3.431-.048.262.024-.198-.063.335a21.199 21.199 0 00-.149 1.227c-.01.205-.03.52-.037.724-.046.96.241 1.558.542 2.319.114.29.36.632.564.879.496.602 1.048 1.156 1.775 1.495.253.12 1.654.652 2.085.68.758.054 1.524.132 2.294-.085.411-.118.837-.18 1.226-.378.586-.297 1.193-.556 1.76-.883.64-.37 1.258-.786 1.87-1.207.446-.31.876-.646 1.295-.99.503-.413.99-.846 1.482-1.273.503-.434 1.013-.859 1.504-1.307.408-.374.79-.775 1.187-1.162a218.8 218.8 0 012.187-2.077c-.014.268-1.38 3.92-1.4 4.593-.005.249-.106.494-.106.74 0 .345.083 1.96.29 2.39.058.12.43 1.111 1.091 1.585.275.196.505.482.8.617 2.336 1.07 4.295.17 4.293.188.256-.173.497-.349.752-.505.572-.353 1.197-.64 1.716-1.06.552-.445 1.181-.79 1.658-1.344.477-.556 1.069-1.015 1.603-1.522.126-.12.223-.268.344-.394.142-.147.297-.284.487-.466-.002-.003 1.474-1.371 1.599-1.806.02-.069.099-.131.152-.174.394-.325 1.393-1.429 1.822-1.79.056.193-.051 1.864.485 2.962.178.364.315.77.558 1.118.135.19.218.422.374.589.255.274.522.554.835.755.544.35 1.098.724 1.702.938.595.21 1.25.291 1.891.327.35.02.905-.14 1.259-.204a5.417 5.417 0 001.862-.707c.352-.215.752-.426 1.019-.712.5-.538 1.203-.834 1.626-1.458.204-.301.552-.505.81-.775.427-.446.847-.902 1.248-1.37.156-.184.877-1.206.99-1.542.144-.433.492-.771.544-1.237.006-.045.087-.114.138-.117.137-.014.277-.014.414.003.977.122 1.953.25 2.93.37.309.037.62.051.93.07.275.016.55.022.825.036.839.043 1.678.098 2.517.13.434.015.867-.017 1.3-.017.586 0 3.552-.158 4.247-.232.441-.047.886-.065 1.325-.124.653-.088 1.304-.201 1.955-.305l.835-.133c1.417-.23 2.491-.123 3.15-1.601.123-.27.155-.532.117-.785zM57.518 14.614c.15-.224.277-.462.431-.683.422-.601.851-1.198 1.276-1.795.374-.525.735-1.06 1.126-1.572.657-.853 1.296-1.646 1.906-2.524a18.407 18.407 0 012.218-2.635c.34-.33 1.26-1.41 1.783-1.295.902.2-.067 1.15-.34 1.477-.37.44-.776.852-1.156 1.284-.071.08-.71.858-.68.85-.232.309-.412.573-.618.816-.238.278-.503.53-.748.802a84.1 84.1 0 00-1.144 1.306c-.492.57-.981 1.143-1.468 1.718-.51.603-1.015 1.213-1.535 1.808 0 0-.897.952-.922.987-.165.22-.24.266-.416.48-.257.31-.53.61-.803.91-.066.07-.15.123-.228.185l-.077-.066c.467-.687.934-1.368 1.395-2.053zm-20.413 6.333c-.055.264-.02.427-.21.783-.063.117-.037.103-.255.51l-.542 1.012c-.093.175-.269.445-.312.529-.038.07-.222.227-.588.738-.263.368-.602.726-.912 1.154l-.55.758c-.495.675-.94 1.139-1.047 1.26-.346.395-3.477 4.05-5.904 5.233-.9.44-1.134.6-1.17.357-.035-1.063.618-2.322.724-2.55.06-.126.851-2.142 2.537-4.502.435-.609.823-1.24 1.381-1.796.835-.834 1.52-1.887 2.511-2.77.129-.113.44-.37.564-.477.34-.298 1.308-1.134 1.603-1.306.17-.1.334-.178.49-.235.55-.203.743-.191.986-.148.105.02.461.127.643.561.091.218.13.507.051.889zM94.052 27.6c-.115.186-.2.39-.329.564a4.98 4.98 0 01-.546.636 87.682 87.682 0 01-1.664 1.542c-.138.125-1.692 1.523-2.378 1.814-.897.38-3.158 1.194-3.47-.217-.35-1.59.122-3.666.569-5.192a15.1 15.1 0 011.035-2.605c.201-.396.259-.699.716-.562.297.088.702.572.9.8.343.398.792.633 1.207.909.31.207.685.325 1.033.477.487.212.962.458 1.466.615.539.166 1.023.491 1.605.522.071.004.14.055.25.102-.153.227-.28.407-.394.595zm1.2-3.738c-.213.233-1.014-.043-1.428-.188-.42-.145-.849-.26-1.266-.41-.44-.16-1.62-.733-1.767-.84-.936-.703-.143-.915.663-.915.633.002 1.513.024 2.093.316.627.317 1.247.828 1.599 1.44.182.319.196.501.107.597z" fill="#0B4A72"/></svg>