<svg width="277" height="27" fill="none" xmlns="http://www.w3.org/2000/svg"><path d="M16.632 14.532l2.576 2.772c-.84 1.288-2.035 2.287-3.584 2.996a11.452 11.452 0 01-4.76 1.036c-3.043 0-5.479-.943-7.308-2.828C1.746 16.623.84 14.187.84 11.2c0-2.912.97-5.33 2.912-7.252 1.941-1.923 4.35-2.884 7.224-2.884 1.568 0 3.09.317 4.564.952 1.493.635 2.613 1.559 3.36 2.772l-2.94 2.688c-.541-.672-1.241-1.204-2.1-1.596a5.805 5.805 0 00-2.576-.616c-1.773 0-3.21.55-4.312 1.652-1.083 1.083-1.624 2.51-1.624 4.284 0 1.717.55 3.136 1.652 4.256 1.101 1.12 2.51 1.68 4.228 1.68 2.221 0 4.023-.868 5.404-2.604zm6.483-4.312h-4.956V6.44h14.028v3.78h-5.012V21h-4.06V10.22zM37.613 26.6h-4.06V6.44h4.06v.756c.355-.336.85-.597 1.484-.784a6.272 6.272 0 011.764-.28c2.184 0 3.92.69 5.208 2.072 1.307 1.381 1.96 3.145 1.96 5.292 0 2.221-.672 4.07-2.016 5.544-1.344 1.456-3.099 2.184-5.264 2.184-1.717 0-2.763-.243-3.136-.728V26.6zm2.8-16.688c-1.25 0-2.184.55-2.8 1.652v4.648c.224.373.588.672 1.092.896.504.224.999.336 1.484.336 1.101 0 1.979-.327 2.632-.98.672-.672 1.008-1.559 1.008-2.66 0-1.195-.28-2.137-.84-2.828-.56-.71-1.419-1.064-2.576-1.064zm11.453 1.4l-1.932-2.94c.71-.765 1.652-1.325 2.828-1.68a11.96 11.96 0 013.584-.56c1.885 0 3.35.532 4.396 1.596 1.045 1.064 1.568 2.548 1.568 4.452V21h-4.06v-1.316c-.41.467-.999.83-1.764 1.092-.747.261-1.465.392-2.156.392-1.53 0-2.8-.42-3.808-1.26-1.008-.84-1.512-2.007-1.512-3.5 0-1.139.355-2.081 1.064-2.828.71-.747 1.53-1.26 2.464-1.54.952-.28 1.979-.42 3.08-.42s1.978.121 2.632.364c.037-.71-.15-1.232-.56-1.568-.43-.336-1.027-.504-1.792-.504-1.363 0-2.707.467-4.032 1.4zm3.304 6.356a3.86 3.86 0 001.792-.448c.597-.299 1.026-.7 1.288-1.204v-.672c-.654-.243-1.39-.364-2.212-.364-.635 0-1.176.056-1.624.168-.803.261-1.204.681-1.204 1.26 0 .448.196.775.588.98.41.187.868.28 1.372.28zM74.748 6.44h4.9l-5.572 7.056L79.9 21h-5.04l-3.332-4.452L68.084 21h-4.872l5.824-7.476-5.544-7.084h5.012l3.108 3.948 3.136-3.948zm4.753 7.252c0-2.24.756-4.06 2.268-5.46 1.512-1.4 3.38-2.1 5.6-2.1 2.26 0 4.144.71 5.656 2.128 1.512 1.4 2.268 3.21 2.268 5.432 0 2.24-.765 4.06-2.296 5.46-1.53 1.381-3.406 2.072-5.628 2.072-2.22 0-4.088-.71-5.6-2.128-1.512-1.419-2.268-3.22-2.268-5.404zm4.2 0c0 1.064.346 1.96 1.036 2.688.71.71 1.587 1.064 2.632 1.064 1.12 0 2.016-.345 2.688-1.036.691-.69 1.036-1.596 1.036-2.716 0-1.101-.345-2.007-1.036-2.716-.69-.71-1.586-1.064-2.688-1.064-1.1 0-1.988.355-2.66 1.064-.672.71-1.008 1.615-1.008 2.716zM104.436 21H97.1V6.44h6.356c.653 0 1.241.028 1.764.084.523.037 1.083.14 1.68.308.597.168 1.092.392 1.484.672.411.28.747.672 1.008 1.176.261.504.392 1.101.392 1.792 0 .41-.084.84-.252 1.288-.205.467-.569.961-1.092 1.484.56.261.98.7 1.26 1.316a4.37 4.37 0 01.448 1.932c0 1.55-.551 2.688-1.652 3.416-1.101.728-2.455 1.092-4.06 1.092zm-.56-5.628h-2.716v1.988h2.884c1.269 0 1.904-.317 1.904-.952 0-.373-.159-.644-.476-.812-.355-.15-.887-.224-1.596-.224zm-.504-5.292h-2.212v1.792h3.052c.915 0 1.372-.299 1.372-.896a.798.798 0 00-.336-.672c-.243-.15-.868-.224-1.876-.224zm10.619 1.232l-1.932-2.94c.709-.765 1.652-1.325 2.828-1.68a11.959 11.959 0 013.584-.56c1.885 0 3.351.532 4.396 1.596s1.568 2.548 1.568 4.452V21h-4.06v-1.316c-.411.467-.999.83-1.764 1.092-.747.261-1.465.392-2.156.392-1.531 0-2.8-.42-3.808-1.26-1.008-.84-1.512-2.007-1.512-3.5 0-1.139.355-2.081 1.064-2.828.709-.747 1.531-1.26 2.464-1.54.952-.28 1.979-.42 3.08-.42s1.979.121 2.632.364c.037-.71-.149-1.232-.56-1.568-.429-.336-1.027-.504-1.792-.504-1.363 0-2.707.467-4.032 1.4zm3.304 6.356a3.87 3.87 0 001.792-.448c.597-.299 1.027-.7 1.288-1.204v-.672c-.653-.243-1.391-.364-2.212-.364-.635 0-1.176.056-1.624.168-.803.261-1.204.681-1.204 1.26 0 .448.196.775.588.98.411.187.868.28 1.372.28zM140.569 21h-4.06v-5.46h-5.572V21h-4.06V6.44h4.06v5.32h5.572V6.44h4.06V21zm12.491-7.924L146.536 21h-3.444V6.44h4.06v7.924l6.524-7.924h3.444V21h-4.06v-7.924zm17.579 2.772l2.436 2.464c-1.549 1.941-3.64 2.912-6.272 2.912-2.333 0-4.228-.69-5.684-2.072-1.456-1.381-2.184-3.201-2.184-5.46 0-2.296.691-4.125 2.072-5.488 1.4-1.381 3.229-2.072 5.488-2.072 2.035 0 3.696.616 4.984 1.848 1.307 1.232 1.96 2.847 1.96 4.844 0 .523-.075 1.307-.224 2.352h-10.024a2.547 2.547 0 001.316 1.708c.691.373 1.475.56 2.352.56 1.643 0 2.903-.532 3.78-1.596zm-4.284-6.076c-1.549 0-2.576.635-3.08 1.904h5.964c-.336-1.27-1.297-1.904-2.884-1.904zm14.81 3.92c0-2.24.756-4.06 2.268-5.46 1.512-1.4 3.379-2.1 5.6-2.1 2.259 0 4.144.71 5.656 2.128 1.512 1.4 2.268 3.21 2.268 5.432 0 2.24-.765 4.06-2.296 5.46-1.53 1.381-3.406 2.072-5.628 2.072-2.221 0-4.088-.71-5.6-2.128-1.512-1.419-2.268-3.22-2.268-5.404zm4.2 0c0 1.064.346 1.96 1.036 2.688.71.71 1.587 1.064 2.632 1.064 1.12 0 2.016-.345 2.688-1.036.691-.69 1.036-1.596 1.036-2.716 0-1.101-.345-2.007-1.036-2.716-.69-.71-1.586-1.064-2.688-1.064-1.101 0-1.988.355-2.66 1.064-.672.71-1.008 1.615-1.008 2.716zM212.456 21h-4.06v-5.46h-5.572V21h-4.06V6.44h4.06v5.32h5.572V6.44h4.06V21zm16.271 0h-4.06V10.22h-3.948v.392c0 .784-.019 1.493-.056 2.128a37.215 37.215 0 01-.224 2.268c-.094.877-.271 1.652-.532 2.324a10.1 10.1 0 01-.952 1.904 3.845 3.845 0 01-1.512 1.428c-.635.317-1.372.476-2.212.476a7.139 7.139 0 01-1.456-.14v-3.64c.112.019.28.028.504.028.672 0 1.157-.205 1.456-.616.317-.41.569-1.008.756-1.792.261-1.101.392-2.893.392-5.376V6.44h11.844V21zm4.537-9.688l-1.932-2.94c.71-.765 1.652-1.325 2.828-1.68 1.195-.373 2.39-.56 3.584-.56 1.886 0 3.351.532 4.396 1.596 1.046 1.064 1.568 2.548 1.568 4.452V21h-4.06v-1.316c-.41.467-.998.83-1.764 1.092-.746.261-1.465.392-2.156.392-1.53 0-2.8-.42-3.808-1.26-1.008-.84-1.512-2.007-1.512-3.5 0-1.139.355-2.081 1.064-2.828.71-.747 1.531-1.26 2.464-1.54.952-.28 1.979-.42 3.08-.42 1.102 0 1.979.121 2.632.364.038-.71-.149-1.232-.56-1.568-.429-.336-1.026-.504-1.792-.504-1.362 0-2.706.467-4.032 1.4zm3.304 6.356a3.86 3.86 0 001.792-.448c.598-.299 1.027-.7 1.288-1.204v-.672c-.653-.243-1.39-.364-2.212-.364-.634 0-1.176.056-1.624.168-.802.261-1.204.681-1.204 1.26 0 .448.196.775.588.98.411.187.868.28 1.372.28zm19.551-4.592L249.595 21h-3.444V6.44h4.06v7.924l6.524-7.924h3.444V21h-4.06v-7.924zM248.335.336h3.724c.037.99.522 1.484 1.456 1.484.914 0 1.372-.495 1.372-1.484h3.696c-.038 1.456-.532 2.585-1.484 3.388-.934.784-2.128 1.176-3.584 1.176-1.531 0-2.772-.392-3.724-1.176-.934-.784-1.419-1.913-1.456-3.388zM276.386 21h-4.06v-5.46h-5.572V21h-4.06V6.44h4.06v5.32h5.572V6.44h4.06V21z" fill="#000"/></svg>