<svg width="60" height="39" fill="none" xmlns="http://www.w3.org/2000/svg"><path d="M30.02 24.85c-2.888 0-4.212.202-7.265.588-1.547.196-2.916.47-4.031.816-1.103.342-2.01.772-2.584 1.308l-.001.002c-.453.427-.679.924-.646 1.449.032.505.297.943.63 1.288.66.683 1.738 1.163 2.688 1.266 1.683.187 5.023.12 11.222.12 5.581 0 8.846.053 10.67-.072v.026l.559-.067c.941-.112 1.983-.567 2.624-1.243.325-.343.576-.774.612-1.272.033-.448-.112-.887-.423-1.293l-.143-.172c-.245-.275-.597-.507-1.001-.71a9.772 9.772 0 00-1.473-.568c-1.126-.346-2.553-.64-4.161-.875-3.203-.466-4.392-.591-7.276-.591zM10.2 17.895c-2.631-.755-3.653-1.102-5.407-.84h-.001c-.372.057-.683.18-.907.417-.22.231-.293.509-.336.712-.111.517-.125 1.026.062 1.859.172.776.723 1.261 1.36 1.539.626.273 1.374.367 2.073.367v.001c2.186.003 4.37-.122 6.54-.377h-.001c.486-.047.782-.42.883-.763.1-.344.055-.832-.35-1.125-.78-.574-2.108-1.27-3.917-1.79h.001zm45.062-.872c-1.388-.19-2.992.16-5.47.872-1.802.517-3.15 1.2-3.928 1.796v.001c-.38.292-.462.744-.387 1.093.069.324.323.736.807.786v.001a58.85 58.85 0 006.662.376c.696 0 1.446-.093 2.074-.365.637-.277 1.192-.763 1.36-1.545h0a5.33 5.33 0 00.068-1.943h-.002a1.28 1.28 0 00-.23-.578 1.098 1.098 0 00-.679-.448v0l-.275-.046zM29.996 3.396c-2.39 0-5.122.162-7.632.504-2.496.341-4.822.868-6.367 1.618-1.126.546-1.98 1.455-2.673 2.462-.69 1.006-1.243 2.144-1.74 3.174l-.005.012c-.037.083-.077.16-.126.26a1.456 1.456 0 00.1 1.446 1.522 1.522 0 001.292.665h.002c4.177-.11 12.906-.47 17.15-.47 4.242 0 12.971.351 17.142.461h0a1.512 1.512 0 001.292-.664 1.46 1.46 0 00.172-1.27l-.07-.176-.124-.26-.002-.004-.385-.789c-.399-.801-.839-1.63-1.356-2.385-.648-.944-1.44-1.802-2.463-2.356l-.208-.106c-1.546-.753-3.871-1.28-6.368-1.62a58.506 58.506 0 00-7.63-.502zM3.49 36.583l-.438-.054a1.527 1.527 0 01-.77-.323 1.45 1.45 0 01-.468-.665c-.023-.07-.785-2.354-1.192-6.15-.191-1.802-.156-4.635.093-7.388.448-4.889 1.174-5.732 1.369-5.987.558-.725 1.481-1.221 2.597-1.81v.001a.948.948 0 00.499-.683.928.928 0 00-.005-.328l-.028-.106-.04-.103a.937.937 0 00-.185-.268l-.006-.006-.106-.116a1.396 1.396 0 01-.32-.999c.035-.367.21-.71.494-.961.25-.22.567-.354.903-.382l.144-.005h1.956l.193.012.118.014.111-.04a.342.342 0 01.068-.016l.258-.035.119-.233.01-.018.005-.011c1.166-2.403 2.683-5.494 5.782-6.998 2.346-1.137 5.725-1.749 8.78-2.072A65.935 65.935 0 0129.997.5c.866 0 3.523.03 6.564.353 3.057.324 6.437.937 8.786 2.076 3.1 1.504 4.617 4.595 5.783 6.998l.104.215.233.053a.584.584 0 01.094.032l.124.051.131-.016.193-.012h1.952c.389-.004.763.136 1.048.387.249.219.414.51.474.824l.02.137c.017.204-.011.41-.083.602a1.434 1.434 0 01-.337.522l-.004.004a.942.942 0 00-.186.268l-.04.103a.932.932 0 00.463 1.114v0c1.115.586 2.037 1.084 2.601 1.814v.001c.18.233.833.99 1.282 5.114l.087.87c.22 2.413.272 4.88.154 6.668l-.062.722c-.406 3.784-1.164 6.066-1.192 6.149a1.45 1.45 0 01-.47.667 1.526 1.526 0 01-.77.322l-.441.053v.458c0 .38-.156.747-.436 1.02-.28.274-.663.43-1.065.43h-7.001c-.402 0-.785-.156-1.066-.43a1.425 1.425 0 01-.434-1.02v-.491l-.491-.01c-.939-.016-1.613-.18-2.368-.368h-.001a20.87 20.87 0 00-3.594-.615h-.001a118.954 118.954 0 00-10.05-.477c-2.005 0-5.172.093-8.499.355l-1.427.122a20.83 20.83 0 00-3.145.503l-.442.11c-.787.199-1.484.372-2.492.372h-.5v.5c0 .38-.154.748-.434 1.021-.28.274-.664.429-1.066.429h-7c-.403 0-.786-.156-1.066-.429a1.428 1.428 0 01-.436-1.021v-.467z" fill="#06F" stroke="#06F"/></svg>