<svg width="59" height="55" fill="none" xmlns="http://www.w3.org/2000/svg"><path d="M39.27 25.509a7.457 7.457 0 017.09 7.691v.036a7.451 7.451 0 01-7.09 7.725 7.414 7.414 0 01-7.054-7.723l.001-.02v-.02a7.414 7.414 0 017.053-7.69zm-2.524-10.88v0l.011.007a1.737 1.737 0 01.887 1.762 1.737 1.737 0 01-.233.656l-.004.008L24.32 39.706a1.81 1.81 0 01-1.552.89h-.02c-.3.014-.598-.063-.854-.22l-.014-.008a1.773 1.773 0 01-.738-2.273l.08-.157 13.09-22.648.003-.003a1.772 1.772 0 011.772-.882c.232.03.457.107.66.224zm2.466 14.427a3.87 3.87 0 00-3.413 4.16 3.87 3.87 0 003.413 4.163l.058.006.057-.006a3.911 3.911 0 003.45-4.162 3.87 3.87 0 00-3.455-4.162l-.054-.006-.056.007zM19.396 14.037a7.422 7.422 0 017.054 7.69v.04a7.413 7.413 0 01-7.054 7.723 7.452 7.452 0 01-7.09-7.725v-.035a7.45 7.45 0 011.977-5.306 7.46 7.46 0 015.113-2.387zm-.051 3.547a3.875 3.875 0 00-3.456 4.168 3.907 3.907 0 003.45 4.155l.058.007.057-.007a3.87 3.87 0 003.413-4.161 3.832 3.832 0 00-3.419-4.162l-.051-.005-.052.005z" fill="#06F" stroke="#06F"/><path d="M29.349.514a27.964 27.964 0 0119.999 7.543A27.932 27.932 0 0158.166 27.5a27.932 27.932 0 01-8.818 19.443 27.964 27.964 0 01-20 7.543h-.031A27.962 27.962 0 019.32 46.943 27.933 27.933 0 01.5 27.5 27.933 27.933 0 019.32 8.057 27.962 27.962 0 0129.316.514h.032zm-.016 3.58a24.415 24.415 0 00-17.445 6.48A24.39 24.39 0 004.084 27.48l-.001.02.001.02a24.39 24.39 0 007.804 16.906 24.414 24.414 0 0017.445 6.478 24.413 24.413 0 0017.445-6.478 24.39 24.39 0 007.805-16.906l.001-.02-.001-.02a24.39 24.39 0 00-7.805-16.906 24.414 24.414 0 00-17.445-6.48z" fill="#06F" stroke="#06F"/></svg>