<svg width="1716" height="597" fill="none" xmlns="http://www.w3.org/2000/svg"><g opacity=".6" fill="#fff"><path d="M1684.3 512.921V501h31.7v31.699h-11.83v-19.778h-19.87z"/><path d="M1662.9 534.326v-11.831h31.7v31.609h-11.92v-19.778h-19.78z"/><path d="M1641.49 555.818v-11.921h31.61v31.699h-11.83v-19.778h-19.78z"/><path d="M1620 577.222v-11.921h31.7V597h-11.92v-19.778H1620z"/></g><g clip-path="url(#clip0_2502_329)" fill="#fff"><path d="M1052.08 30.86c0 1.165-.87 2.038-2.04 2.038s-2.04-.873-2.04-2.038c0-1.164.87-2.038 2.04-2.038s2.04.97 2.04 2.038zm17.39 0c0 1.165-.87 2.038-2.04 2.038s-2.04-.873-2.04-2.038c0-1.164.87-2.038 2.04-2.038 1.07 0 2.04.97 2.04 2.038zm17.29 0c0 1.165-.87 2.038-2.04 2.038-1.16 0-2.04-.873-2.04-2.038 0-1.164.88-2.038 2.04-2.038 1.17 0 2.04.97 2.04 2.038zm17.39 0c0 1.165-.87 2.038-2.04 2.038-1.16 0-2.04-.873-2.04-2.038 0-1.164.88-2.038 2.04-2.038 1.17 0 2.04.97 2.04 2.038zm17.39 0c0 1.165-.87 2.038-2.04 2.038s-2.04-.873-2.04-2.038c0-1.164.87-2.038 2.04-2.038 1.07 0 2.04.97 2.04 2.038zm17.39 0c0 1.165-.88 2.038-2.04 2.038-1.17 0-2.04-.873-2.04-2.038 0-1.164.87-2.038 2.04-2.038 1.16 0 2.04.97 2.04 2.038zm17.29 0c0 1.165-.87 2.038-2.04 2.038-1.16 0-2.04-.873-2.04-2.038 0-1.164.88-2.038 2.04-2.038 1.17 0 2.04.97 2.04 2.038zm17.39 0c0 1.165-.87 2.038-2.04 2.038-1.16 0-2.04-.873-2.04-2.038 0-1.164.88-2.038 2.04-2.038 1.17 0 2.04.97 2.04 2.038zm17.39 0c0 1.165-.87 2.038-2.04 2.038s-2.04-.873-2.04-2.038c0-1.164.87-2.038 2.04-2.038 1.07 0 2.04.97 2.04 2.038zm-138.92 14.46c0 1.164-.87 2.037-2.04 2.037s-2.04-.873-2.04-2.038c0-1.164.87-2.038 2.04-2.038s2.04.874 2.04 2.038zm17.39 0c0 1.164-.87 2.037-2.04 2.037s-2.04-.873-2.04-2.038c0-1.164.87-2.038 2.04-2.038 1.07 0 2.04.874 2.04 2.038zm17.29 0c0 1.164-.87 2.037-2.04 2.037-1.16 0-2.04-.873-2.04-2.038 0-1.164.88-2.038 2.04-2.038 1.17 0 2.04.874 2.04 2.038zm17.39 0c0 1.164-.87 2.037-2.04 2.037-1.16 0-2.04-.873-2.04-2.038 0-1.164.88-2.038 2.04-2.038 1.17 0 2.04.874 2.04 2.038zm17.39 0c0 1.164-.87 2.037-2.04 2.037s-2.04-.873-2.04-2.038c0-1.164.87-2.038 2.04-2.038 1.07 0 2.04.874 2.04 2.038zm17.39 0c0 1.164-.88 2.037-2.04 2.037-1.17 0-2.04-.873-2.04-2.038 0-1.164.87-2.038 2.04-2.038 1.16 0 2.04.874 2.04 2.038zm17.29 0c0 1.164-.87 2.037-2.04 2.037-1.16 0-2.04-.873-2.04-2.038 0-1.164.88-2.038 2.04-2.038 1.17 0 2.04.874 2.04 2.038zm17.39 0c0 1.164-.87 2.037-2.04 2.037-1.16 0-2.04-.873-2.04-2.038 0-1.164.88-2.038 2.04-2.038 1.17 0 2.04.874 2.04 2.038zm17.39 0c0 1.164-.87 2.037-2.04 2.037s-2.04-.873-2.04-2.038c0-1.164.87-2.038 2.04-2.038 1.07 0 2.04.874 2.04 2.038zM1052.08 2.038c0 1.164-.87 2.038-2.04 2.038s-2.04-.874-2.04-2.038c0-1.165.87-2.038 2.04-2.038s2.04.873 2.04 2.038zm17.39 0c0 1.164-.87 2.038-2.04 2.038s-2.04-.874-2.04-2.038c0-1.165.87-2.038 2.04-2.038 1.07 0 2.04.873 2.04 2.038zm17.29 0c0 1.164-.87 2.038-2.04 2.038-1.16 0-2.04-.874-2.04-2.038 0-1.165.97-2.038 2.04-2.038 1.17 0 2.04.873 2.04 2.038zm17.39 0c0 1.164-.87 2.038-2.04 2.038-1.16 0-2.04-.874-2.04-2.038 0-1.165.97-2.038 2.04-2.038s2.04.873 2.04 2.038zm17.39 0c0 1.164-.87 2.038-2.04 2.038s-2.04-.874-2.04-2.038c0-1.165.87-2.038 2.04-2.038 1.07 0 2.04.873 2.04 2.038zm17.39 0c0 1.164-.88 2.038-2.04 2.038-1.17 0-2.04-.874-2.04-2.038 0-1.165.87-2.038 2.04-2.038 1.16 0 2.04.873 2.04 2.038zm17.29 0c0 1.164-.87 2.038-2.04 2.038-1.16 0-2.04-.874-2.04-2.038 0-1.165.88-2.038 2.04-2.038 1.17 0 2.04.873 2.04 2.038zm17.39 0c0 1.164-.87 2.038-2.04 2.038-1.16 0-2.04-.874-2.04-2.038 0-1.165.88-2.038 2.04-2.038 1.17 0 2.04.873 2.04 2.038zm17.39 0c0 1.164-.87 2.038-2.04 2.038s-2.04-.874-2.04-2.038c0-1.165.87-2.038 2.04-2.038 1.07 0 2.04.873 2.04 2.038zm-138.92 14.459c0 1.164-.87 2.038-2.04 2.038s-2.04-.97-2.04-2.038c0-1.165.87-2.038 2.04-2.038s2.04.873 2.04 2.038zm17.39 0c0 1.164-.87 2.038-2.04 2.038s-2.04-.874-2.04-2.038c0-1.165.87-2.038 2.04-2.038 1.07 0 2.04.873 2.04 2.038zm17.29 0c0 1.164-.87 2.038-2.04 2.038-1.16 0-2.04-.874-2.04-2.038 0-1.165.88-2.038 2.04-2.038 1.17 0 2.04.873 2.04 2.038zm17.39 0c0 1.164-.87 2.038-2.04 2.038-1.16 0-2.04-.874-2.04-2.038 0-1.165.88-2.038 2.04-2.038 1.17 0 2.04.873 2.04 2.038zm17.39 0c0 1.164-.87 2.038-2.04 2.038s-2.04-.874-2.04-2.038c0-1.165.87-2.038 2.04-2.038 1.07 0 2.04.873 2.04 2.038zm17.39 0c0 1.164-.88 2.038-2.04 2.038-1.17 0-2.04-.874-2.04-2.038 0-1.165.87-2.038 2.04-2.038 1.16 0 2.04.873 2.04 2.038zm17.29 0c0 1.164-.87 2.038-2.04 2.038-1.16 0-2.04-.874-2.04-2.038 0-1.165.88-2.038 2.04-2.038 1.17 0 2.04.873 2.04 2.038zm17.39 0c0 1.164-.87 2.038-2.04 2.038-1.16 0-2.04-.874-2.04-2.038 0-1.165.88-2.038 2.04-2.038 1.17 0 2.04.873 2.04 2.038zm17.39 0c0 1.164-.87 2.038-2.04 2.038s-2.04-.874-2.04-2.038c0-1.165.87-2.038 2.04-2.038 1.07 0 2.04.873 2.04 2.038zM1052.08 59.68c0 1.165-.87 2.038-2.04 2.038s-2.04-.873-2.04-2.038c0-1.164.87-2.037 2.04-2.037s2.04.97 2.04 2.038zm17.39 0c0 1.165-.87 2.038-2.04 2.038s-2.04-.873-2.04-2.038c0-1.164.87-2.037 2.04-2.037 1.07 0 2.04.97 2.04 2.038zm17.29 0c0 1.165-.87 2.038-2.04 2.038-1.16 0-2.04-.873-2.04-2.038 0-1.164.88-2.037 2.04-2.037 1.17 0 2.04.97 2.04 2.038zm17.39 0c0 1.165-.87 2.038-2.04 2.038-1.16 0-2.04-.873-2.04-2.038 0-1.164.88-2.037 2.04-2.037 1.17 0 2.04.97 2.04 2.038zm17.39 0c0 1.165-.87 2.038-2.04 2.038s-2.04-.873-2.04-2.038c0-1.164.87-2.037 2.04-2.037 1.07 0 2.04.97 2.04 2.038zm17.39 0c0 1.165-.88 2.038-2.04 2.038-1.17 0-2.04-.873-2.04-2.038 0-1.164.87-2.037 2.04-2.037 1.16 0 2.04.97 2.04 2.038zm17.29 0c0 1.165-.87 2.038-2.04 2.038-1.16 0-2.04-.873-2.04-2.038 0-1.164.88-2.037 2.04-2.037 1.17 0 2.04.97 2.04 2.038zm17.39 0c0 1.165-.87 2.038-2.04 2.038-1.16 0-2.04-.873-2.04-2.038 0-1.164.88-2.037 2.04-2.037 1.17 0 2.04.97 2.04 2.038zm17.39 0c0 1.165-.87 2.038-2.04 2.038s-2.04-.873-2.04-2.038c0-1.164.87-2.037 2.04-2.037 1.07 0 2.04.97 2.04 2.038zm-138.92 14.46c0 1.164-.87 2.037-2.04 2.037s-2.04-.873-2.04-2.038c0-1.164.87-2.037 2.04-2.037s2.04.873 2.04 2.037zm17.39 0c0 1.164-.87 2.037-2.04 2.037s-2.04-.873-2.04-2.038c0-1.164.87-2.037 2.04-2.037 1.07 0 2.04.873 2.04 2.037zm17.29 0c0 1.164-.87 2.037-2.04 2.037-1.16 0-2.04-.873-2.04-2.038 0-1.164.88-2.037 2.04-2.037 1.17 0 2.04.873 2.04 2.037zm15.35 2.037a2.037 2.037 0 100-4.075 2.037 2.037 0 100 4.075zm19.43-2.037c0 1.164-.87 2.037-2.04 2.037s-2.04-.873-2.04-2.038c0-1.164.87-2.037 2.04-2.037 1.07 0 2.04.873 2.04 2.037zm17.39 0c0 1.164-.88 2.037-2.04 2.037-1.17 0-2.04-.873-2.04-2.038 0-1.164.87-2.037 2.04-2.037 1.16 0 2.04.873 2.04 2.037zm17.29 0c0 1.164-.87 2.037-2.04 2.037-1.16 0-2.04-.873-2.04-2.038 0-1.164.88-2.037 2.04-2.037 1.17 0 2.04.873 2.04 2.037zm15.35 2.037a2.037 2.037 0 100-4.075 2.037 2.037 0 100 4.075zM1191 74.14c0 1.164-.87 2.037-2.04 2.037s-2.04-.873-2.04-2.038c0-1.164.87-2.037 2.04-2.037 1.07 0 2.04.873 2.04 2.037zM1052.08 88.6c0 1.165-.87 2.038-2.04 2.038s-2.04-.873-2.04-2.038c0-1.164.87-2.037 2.04-2.037s2.04.873 2.04 2.037zm17.39 0c0 1.165-.87 2.038-2.04 2.038s-2.04-.873-2.04-2.038c0-1.164.87-2.037 2.04-2.037 1.07 0 2.04.873 2.04 2.037zm17.29 0c0 1.165-.87 2.038-2.04 2.038-1.16 0-2.04-.873-2.04-2.038 0-1.164.88-2.037 2.04-2.037 1.17 0 2.04.873 2.04 2.037zm17.39 0c0 1.165-.87 2.038-2.04 2.038-1.16 0-2.04-.873-2.04-2.038 0-1.164.88-2.037 2.04-2.037 1.17 0 2.04.873 2.04 2.037zm17.39 0c0 1.165-.87 2.038-2.04 2.038s-2.04-.873-2.04-2.038c0-1.164.87-2.037 2.04-2.037 1.07 0 2.04.873 2.04 2.037zm17.39 0c0 1.165-.88 2.038-2.04 2.038-1.17 0-2.04-.873-2.04-2.038 0-1.164.87-2.037 2.04-2.037 1.16 0 2.04.873 2.04 2.037zm17.29 0c0 1.165-.87 2.038-2.04 2.038-1.16 0-2.04-.873-2.04-2.038 0-1.164.88-2.037 2.04-2.037 1.17 0 2.04.873 2.04 2.037zm17.39 0c0 1.165-.87 2.038-2.04 2.038-1.16 0-2.04-.873-2.04-2.038 0-1.164.88-2.037 2.04-2.037 1.17 0 2.04.873 2.04 2.037zm17.39 0c0 1.165-.87 2.038-2.04 2.038s-2.04-.873-2.04-2.038c0-1.164.87-2.037 2.04-2.037 1.07 0 2.04.873 2.04 2.037zm-138.92 14.362c0 1.164-.87 2.038-2.04 2.038s-2.04-.874-2.04-2.038c0-1.165.87-2.038 2.04-2.038s2.04.97 2.04 2.038zm17.39 0c0 1.164-.87 2.038-2.04 2.038s-2.04-.874-2.04-2.038c0-1.165.87-2.038 2.04-2.038 1.07 0 2.04.97 2.04 2.038zm17.29 0c0 1.164-.87 2.038-2.04 2.038-1.16 0-2.04-.874-2.04-2.038 0-1.165.88-2.038 2.04-2.038 1.17 0 2.04.97 2.04 2.038zm17.39 0c0 1.164-.87 2.038-2.04 2.038-1.16 0-2.04-.874-2.04-2.038 0-1.165.88-2.038 2.04-2.038 1.17 0 2.04.97 2.04 2.038zm17.39 0c0 1.164-.87 2.038-2.04 2.038s-2.04-.874-2.04-2.038c0-1.165.87-2.038 2.04-2.038 1.07 0 2.04.97 2.04 2.038zm17.39 0c0 1.164-.88 2.038-2.04 2.038-1.17 0-2.04-.874-2.04-2.038 0-1.165.87-2.038 2.04-2.038 1.16 0 2.04.97 2.04 2.038zm17.29 0c0 1.164-.87 2.038-2.04 2.038-1.16 0-2.04-.874-2.04-2.038 0-1.165.88-2.038 2.04-2.038 1.17 0 2.04.97 2.04 2.038zm17.39 0c0 1.164-.87 2.038-2.04 2.038-1.16 0-2.04-.874-2.04-2.038 0-1.165.88-2.038 2.04-2.038 1.17 0 2.04.97 2.04 2.038zm17.39 0c0 1.164-.87 2.038-2.04 2.038s-2.04-.874-2.04-2.038c0-1.165.87-2.038 2.04-2.038 1.07 0 2.04.97 2.04 2.038z"/></g><path opacity=".6" d="M41 81.978c-9.362 9.363-24.616 9.363-33.978 0-9.363-9.362-9.363-24.616 0-33.978L41 81.978z" fill="#fff"/><defs><clipPath id="clip0_2502_329"><path fill="#fff" transform="translate(1048)" d="M0 0h143v105H0z"/></clipPath></defs></svg>