<svg width="160" height="151" fill="none" xmlns="http://www.w3.org/2000/svg"><path d="M73.112 66.496c29.314-21.665 50.16-43.195 46.56-48.09-3.599-4.893-30.28 8.702-59.594 30.367-29.314 21.664-50.16 43.194-46.56 48.089 3.599 4.894 30.28-8.702 59.594-30.366z" stroke="#fff" stroke-opacity=".12" stroke-miterlimit="10"/><path d="M66.112 57.496c29.314-21.665 50.16-43.195 46.56-48.09-3.599-4.893-30.28 8.702-59.594 30.367-29.314 21.664-50.16 43.194-46.56 48.089 3.599 4.894 30.28-8.702 59.594-30.366zm40 54c29.314-21.665 50.16-43.195 46.56-48.09-3.599-4.893-30.281 8.702-59.594 30.367-29.314 21.664-50.16 43.194-46.56 48.088 3.599 4.895 30.28-8.701 59.594-30.365z" stroke="#fff" stroke-opacity=".12" stroke-miterlimit="10"/><path d="M99.112 102.496c29.314-21.665 50.16-43.195 46.56-48.09-3.599-4.893-30.281 8.702-59.594 30.367-29.314 21.664-50.16 43.194-46.56 48.088 3.599 4.895 30.28-8.701 59.594-30.365z" stroke="#fff" stroke-opacity=".12" stroke-miterlimit="10"/><path d="M93.112 93.496c29.314-21.665 50.16-43.195 46.56-48.09-3.599-4.893-30.281 8.702-59.594 30.367-29.314 21.664-50.16 43.194-46.56 48.088 3.599 4.895 30.28-8.701 59.594-30.365z" stroke="#fff" stroke-opacity=".12" stroke-miterlimit="10"/><path d="M86.112 84.496c29.314-21.665 50.16-43.195 46.56-48.09-3.599-4.893-30.281 8.702-59.594 30.367-29.314 21.664-50.16 43.194-46.56 48.088 3.599 4.895 30.28-8.701 59.594-30.365z" stroke="#fff" stroke-opacity=".12" stroke-miterlimit="10"/><path d="M79.112 75.496c29.314-21.665 50.16-43.195 46.56-48.09-3.599-4.893-30.28 8.702-59.594 30.367-29.314 21.664-50.16 43.194-46.56 48.088 3.599 4.895 30.28-8.7 59.594-30.365z" stroke="#fff" stroke-opacity=".12" stroke-miterlimit="10"/></svg>