<svg width="61" height="55" fill="none" xmlns="http://www.w3.org/2000/svg"><g clip-path="url(#clip0_1_13)"><path d="M60.547 31.322c.56 5.27-.927 10.57-4.194 14.739-3.56 4.538-8.723 7.21-14.343 8.208-6.458 1.145-13.288.792-19.764-.019-5.37-.676-11.036-1.807-15.328-5.343-8.71-7.174-8.933-22.111-2.142-30.56 2.185-2.718 5.077-4.891 8.326-6.144-.259-1.624.479-3.249 1.793-4.254a4.39 4.39 0 012.02-.884c1.046-.156 1.963.314 2.99.301 1.981-.024 1.618-1.441 2.405-2.624.268-.402.628-.685 1.115-.777 2.252-.411 3.834 3.761 5.84 1.283C30.408 3.84 30.289 1.655 31.84.515c1.17-.863 2.707-.564 3.782.31 1.39 1.135 1.695 2.982 1.716 4.68a35.278 35.278 0 01-.612 6.979c-.034.17-.067.356-.101.557 11.606-1.798 22.67 6.526 23.922 18.28zm-2.115 8.564a19.39 19.39 0 00.542-11.368c-2.502-9.933-12.55-16.056-22.538-14.444-.271 1.387-.704 2.966-1.627 3.655-1.049.783-2.25.085-3.079-.747-.091.034-.198.021-.292-.073-4.03-4.078-10.229-5.782-15.788-4.413-5.388 1.326-9.923 5.233-12.361 10.176C.878 27.555.549 33.324 1.935 38.554c.299-.344.79-.515 1.244-.698a14.677 14.677 0 014.175-.99c2.28-.198 4.76.164 6.486 1.798 3.98 3.773.216 8.71-2.95 11.511.472.244.954.473 1.457.68 4.989 2.039 10.633 2.57 15.964 2.865 5.568.31 11.414.35 16.796-1.292a21.115 21.115 0 004.34-1.884c-1.935-.759-3.962-2.081-4.776-4.047-.759-1.847-.317-3.999.86-5.572 2.807-3.752 9.344-3.65 12.9-1.039zm-.4 1.012c-1.96-.518-3.602-1.497-5.696-1.6-1.847-.092-3.889.405-5.254 1.716-1.47 1.408-2.088 3.645-1.103 5.498.88 1.655 2.618 2.462 4.078 3.505.04.027.07.064.094.1 3.55-2.234 6.294-5.47 7.882-9.22zM35.928 11.975c.384-2.259.677-4.679.558-6.977-.073-1.45-.427-3.032-1.786-3.819-1.716-.993-2.92.247-3.511 1.768-.485 1.247-.805 2.66-1.945 3.508-1.103.82-2.261.533-3.267-.292-.424-.351-1.28-1.396-1.822-1.341-.875.088-1.32.798-1.552 1.499-.192.573-.396 1.11-.899 1.481-1.161.863-2.676.116-3.947.055-2.319-.116-3.934 1.92-3.895 4.072a17.308 17.308 0 014.136-.86c5.008-.402 9.954 1.363 13.444 4.95.423.302.853.597 1.28.896a.31.31 0 01.143.216c1.375.418 1.969-.847 2.295-1.892.332-1.067.582-2.161.768-3.264zM9.76 49.54c2.508-2.243 6.242-5.818 3.782-9.39-1.137-1.652-3.236-2.24-5.141-2.298-.656-.018-6.285.296-6.13 1.524a.165.165 0 01-.057.14c1.329 4.282 3.864 7.76 7.546 10.024z" fill="#000072"/><path d="M58.974 28.518a19.39 19.39 0 01-.542 11.368c-3.557-2.612-10.094-2.712-12.901 1.04-1.177 1.572-1.619 3.724-.86 5.57.814 1.966 2.84 3.29 4.776 4.048a21.116 21.116 0 01-4.34 1.884C39.725 54.07 33.879 54.03 28.31 53.72c-5.33-.296-10.975-.826-15.964-2.865a18.708 18.708 0 01-1.457-.68c3.166-2.8 6.93-7.738 2.95-11.511-1.725-1.634-4.206-1.996-6.486-1.798a14.67 14.67 0 00-4.175.99c-.454.183-.945.354-1.244.698-1.386-5.23-1.057-11 1.354-15.882 2.438-4.943 6.973-8.85 12.361-10.176 5.56-1.369 11.759.335 15.788 4.413.094.095.2.107.292.073.83.832 2.03 1.53 3.079.747.923-.689 1.356-2.268 1.627-3.654 9.988-1.613 20.036 4.51 22.538 14.443zM47.6 33.258c3.295-.796 8.842-3.052 8.028-7.389-.284-1.511-1.411-2.578-2.95-2.73-1.555-.153-2.823.621-3.798 1.713-1.585-2.585-5.711-3.13-7.235.042-.826 1.72.454 3.6 1.487 4.928.866 1.11 2.2 2.399 3.682 2.603-.1.418.231.966.786.832zm-10.765.64c.323-.449-.113-1.11-.627-1.095-4.14.137-8.284.357-12.39.908-.036-.018-.067-.04-.103-.054-.729-.345-1.299.618-.631 1.078 2.968 2.045 4.514 5.221 6.985 7.748.317.323.841.228 1.073-.137a154.438 154.438 0 015.693-8.449zm-19.487-.824c2.405-1.764 8.067-4.849 5.882-8.71-1.725-3.042-5.48-1.058-6.882 1.347-1.932-1.987-6.421-2.155-7.351.783-1.259 3.978 4.358 6.73 7.546 6.55a.361.361 0 00.116-.027c.168.18.424.25.689.057z" fill="#1DA1F2"/><path d="M55.628 25.87c.814 4.336-4.733 6.592-8.028 7.387-.555.134-.887-.414-.786-.832-1.481-.204-2.816-1.493-3.682-2.603-1.033-1.328-2.313-3.209-1.487-4.928 1.524-3.173 5.65-2.627 7.235-.042.975-1.092 2.243-1.866 3.798-1.713 1.539.152 2.666 1.219 2.95 2.73zM54.1 28.185c.625-1.158.643-2.899-.65-3.636-1.633-.927-3.318.43-4.2 1.688-.286.406-.904.36-1.06-.14-1.13-3.602-7-2.255-5.105 1.439.482.935 1.08 1.837 1.805 2.602.783.83 1.712 1.22 2.654 1.805 2.344-.543 5.358-1.546 6.556-3.758z" fill="#000072"/><path d="M52.336 39.298c2.094.103 3.737 1.082 5.697 1.6-1.588 3.749-4.331 6.985-7.882 9.22a.369.369 0 00-.095-.101c-1.46-1.042-3.197-1.85-4.077-3.505-.985-1.853-.366-4.09 1.103-5.498 1.365-1.31 3.407-1.808 5.254-1.716z" fill="#FACCE3"/><path d="M53.452 24.55c1.292.737 1.274 2.478.649 3.636-1.198 2.212-4.212 3.215-6.556 3.758-.942-.585-1.871-.976-2.654-1.805-.726-.765-1.323-1.667-1.805-2.602-1.895-3.694 3.975-5.041 5.105-1.439.156.5.774.546 1.06.14.882-1.258 2.567-2.615 4.2-1.688z" fill="#FF2247"/><path d="M36.208 32.803c.514-.015.95.646.627 1.094a154.438 154.438 0 00-5.693 8.449c-.232.365-.756.46-1.073.137-2.471-2.527-4.017-5.702-6.985-7.748-.668-.46-.098-1.423.63-1.078.037.015.068.036.104.054 4.106-.551 8.25-.77 12.39-.908zm-5.755 8.08a183.546 183.546 0 014.331-6.568c-3.163.134-6.33.29-9.497.344 2.067 1.664 3.435 4.221 5.166 6.224z" fill="#000072"/><path d="M36.485 4.998c.119 2.298-.174 4.718-.558 6.977a24.884 24.884 0 01-.768 3.264c-.326 1.045-.92 2.31-2.295 1.892a.31.31 0 00-.143-.216c-.427-.299-.857-.594-1.28-.896-3.49-3.587-8.436-5.352-13.444-4.95-1.417.113-2.8.412-4.136.86-.04-2.152 1.576-4.188 3.895-4.072 1.271.061 2.786.808 3.947-.055.503-.372.707-.908.9-1.48.23-.702.676-1.412 1.55-1.5.543-.055 1.4.99 1.823 1.34 1.006.827 2.164 1.113 3.267.293 1.14-.847 1.46-2.261 1.945-3.508.591-1.52 1.795-2.761 3.51-1.768 1.36.787 1.714 2.369 1.787 3.82z" fill="#FF2247"/><path d="M34.784 34.315a183.546 183.546 0 00-4.33 6.568c-1.732-2.003-3.1-4.56-5.167-6.224 3.167-.055 6.334-.21 9.497-.344z" fill="#F39200"/><path d="M23.23 24.364c2.185 3.861-3.477 6.946-5.882 8.71-.265.192-.521.122-.689-.057a.361.361 0 01-.116.027c-3.188.18-8.805-2.572-7.546-6.55.93-2.938 5.419-2.77 7.351-.783 1.402-2.405 5.157-4.389 6.882-1.347zm-.86 2.347c.418-1.86-1.023-3.085-2.864-2.506-1.326.418-2.192 1.527-2.472 2.86-.104.49-.841.57-1.07.14-1.353-2.527-7.208-2.055-5.602 1.475 1.04 2.282 3.944 3.072 6.148 3.639a.656.656 0 01.222-.293c1.792-1.31 5.108-2.947 5.639-5.315z" fill="#000072"/><path d="M19.506 24.205c1.84-.579 3.282.647 2.865 2.506-.53 2.368-3.847 4.004-5.639 5.315a.655.655 0 00-.222.292c-2.204-.566-5.108-1.356-6.148-3.638-1.606-3.53 4.249-4.002 5.602-1.476.229.43.966.35 1.07-.14.28-1.332 1.146-2.441 2.472-2.859z" fill="#FF2247"/><path d="M13.541 40.151c2.46 3.572-1.274 7.147-3.782 9.39-3.682-2.264-6.218-5.742-7.546-10.024a.165.165 0 00.058-.14c-.156-1.228 5.473-1.542 6.129-1.524 1.905.058 4.004.646 5.141 2.298z" fill="#FACCE3"/></g><defs><clipPath id="clip0_1_13"><path fill="#fff" d="M0 0h60.663v55H0z"/></clipPath></defs></svg>