<svg width="135" height="128" fill="none" xmlns="http://www.w3.org/2000/svg"><path d="M62.254 56.996c24.858-18.402 42.492-36.748 39.386-40.978-3.105-4.229-25.773 7.26-50.631 25.663C26.151 60.082 8.517 78.428 11.623 82.657c3.105 4.229 25.773-7.26 50.63-25.662z" stroke="#828282" stroke-opacity=".11" stroke-miterlimit="10"/><path d="M56.254 48.996C81.112 30.594 98.746 12.248 95.64 8.018c-3.105-4.229-25.773 7.26-50.631 25.663C20.151 52.082 2.517 70.428 5.622 74.657c3.106 4.229 25.774-7.26 50.632-25.662zm34 46c24.858-18.402 42.492-36.748 39.386-40.977-3.105-4.23-25.773 7.26-50.631 25.661-24.858 18.402-42.492 36.748-39.386 40.978 3.105 4.229 25.773-7.261 50.63-25.662z" stroke="#828282" stroke-opacity=".11" stroke-miterlimit="10"/><path d="M84.254 86.996c24.858-18.402 42.492-36.748 39.386-40.977-3.105-4.23-25.773 7.26-50.631 25.661-24.858 18.402-42.492 36.748-39.386 40.978 3.105 4.229 25.773-7.261 50.63-25.662z" stroke="#828282" stroke-opacity=".11" stroke-miterlimit="10"/><path d="M78.254 79.996c24.858-18.402 42.492-36.748 39.386-40.977-3.105-4.23-25.773 7.26-50.631 25.661-24.858 18.402-42.492 36.748-39.386 40.978 3.105 4.229 25.773-7.26 50.63-25.662z" stroke="#828282" stroke-opacity=".11" stroke-miterlimit="10"/><path d="M73.254 71.996c24.858-18.402 42.492-36.748 39.386-40.977-3.105-4.23-25.773 7.26-50.631 25.662-24.858 18.401-42.492 36.747-39.386 40.977 3.105 4.229 25.773-7.26 50.63-25.662z" stroke="#828282" stroke-opacity=".11" stroke-miterlimit="10"/><path d="M67.254 63.996c24.858-18.402 42.492-36.748 39.386-40.978-3.105-4.229-25.773 7.26-50.631 25.663-24.858 18.401-42.492 36.747-39.386 40.977 3.105 4.229 25.773-7.26 50.63-25.662z" stroke="#828282" stroke-opacity=".11" stroke-miterlimit="10"/></svg>