<svg width="186" height="69" fill="none" xmlns="http://www.w3.org/2000/svg"><g clip-path="url(#clip0_12_352)"><path d="M36.783 15.314V7.658c0-.845-.686-1.53-1.532-1.53h-1.532V1.533c0-.846-.686-1.531-1.532-1.531-2.169 0-5.49-.167-9.39 2.168-2.423-.721-4.137-.637-5.93-.637-.846 0-1.532.685-1.532 1.53v3.063h-1.532c-.846 0-1.532.686-1.532 1.531v7.656c0 6.236 4.687 11.398 10.724 12.154v20a1.532 1.532 0 003.064 0V42.11h2.298c4.646 0 8.426-3.778 8.426-8.422v-2.297c0-.845-.686-1.53-1.532-1.53h-3.83a8.39 8.39 0 00-5.362 1.93v-4.324c6.029-.746 10.724-5.882 10.724-12.153zm-3.064 0a9.173 9.173 0 01-3.111 6.874c.03-.246.047-.495.047-.75 0-3.877-1.45-7.421-3.836-10.122a12.235 12.235 0 016.9-2.126v6.124zm-3.064-12.25v3.372a15.28 15.28 0 00-.843.197 15.324 15.324 0 00-3.365-2.825 12.243 12.243 0 014.208-.743zM18.4 4.597c3.044 0 6 1.11 8.298 3.233a15.28 15.28 0 00-2.174 1.365A15.26 15.26 0 0018.4 6.436v-1.84zm-3.064 10.718V9.19c6.758 0 12.256 5.495 12.256 12.249a3.066 3.066 0 01-3.144 3.06c-5.382-.132-9.112-4.406-9.112-9.185zm16.086 17.609h2.298v.765a5.367 5.367 0 01-5.362 5.36H26.06v-.766a5.367 5.367 0 015.362-5.36z" fill="#fff"/></g><path d="M48.171 23.717l6.119-10.751h4.107V30H54.29V19.26L48.171 30h-4.106V12.965h4.106v10.752zm22.743.515h4.095c-.054 1.186-.374 2.23-.96 3.136-.584.904-1.395 1.61-2.433 2.117-1.03.5-2.246.749-3.65.749-1.139 0-2.156-.191-3.053-.573a6.222 6.222 0 01-2.27-1.65c-.616-.717-1.088-1.587-1.416-2.609-.32-1.022-.48-2.172-.48-3.451v-.925c0-1.279.168-2.43.504-3.45.343-1.03.826-1.904 1.45-2.622a6.294 6.294 0 012.27-1.66c.881-.383 1.86-.574 2.937-.574 1.482 0 2.733.265 3.755.795 1.022.53 1.814 1.26 2.375 2.188.562.92.893 1.97.995 3.147h-4.095c-.016-.64-.125-1.174-.328-1.603a2.025 2.025 0 00-.96-.982c-.436-.219-1.017-.328-1.742-.328-.507 0-.948.094-1.322.281-.375.187-.687.484-.936.89-.25.405-.437.931-.562 1.579-.117.64-.175 1.411-.175 2.316v.948c0 .904.054 1.677.163 2.316.11.64.285 1.162.527 1.568.242.406.554.706.936.9.39.188.866.282 1.427.282.624 0 1.15-.098 1.58-.293.428-.203.76-.507.994-.912.234-.414.359-.94.374-1.58zm16.04 0h4.095c-.055 1.186-.375 2.23-.96 3.136-.585.904-1.396 1.61-2.433 2.117-1.03.5-2.247.749-3.65.749-1.14 0-2.157-.191-3.054-.573a6.222 6.222 0 01-2.27-1.65c-.616-.717-1.088-1.587-1.415-2.609-.32-1.022-.48-2.172-.48-3.451v-.925c0-1.279.168-2.43.503-3.45.343-1.03.827-1.904 1.45-2.622a6.294 6.294 0 012.27-1.66c.882-.383 1.86-.574 2.937-.574 1.482 0 2.734.265 3.756.795 1.021.53 1.813 1.26 2.375 2.188.561.92.893 1.97.994 3.147h-4.095c-.015-.64-.125-1.174-.327-1.603a2.025 2.025 0 00-.96-.982c-.436-.219-1.018-.328-1.743-.328-.507 0-.948.094-1.322.281-.374.187-.686.484-.936.89-.25.405-.437.931-.561 1.579-.118.64-.176 1.411-.176 2.316v.948c0 .904.055 1.677.164 2.316.109.64.284 1.162.526 1.568.242.406.554.706.936.9.39.188.866.282 1.427.282.624 0 1.151-.098 1.58-.293.429-.203.76-.507.994-.912.234-.414.36-.94.375-1.58zm17.911-11.266v3.17h-8.798v-3.17h8.798zm2.773 0V30h-4.107V12.965h4.107zm-11.852 0h4.084l-.445 8.657c-.07 1.31-.203 2.441-.398 3.393-.195.944-.456 1.74-.784 2.387-.327.64-.721 1.15-1.181 1.532-.46.383-.995.655-1.603.82-.6.163-1.276.245-2.024.245h-.995v-3.159l.445-.047a2.41 2.41 0 00.947-.292 2.09 2.09 0 00.703-.726c.202-.32.37-.729.503-1.228.132-.5.237-1.104.315-1.813a29.59 29.59 0 00.176-2.516l.257-7.254zm26.452 13.875V30h-9.079v-3.159h9.079zm-7.616-13.876V30h-4.107V12.965h4.107zm6.446 6.763v3.053h-7.909v-3.053h7.909zm1.205-6.763v3.171h-9.114v-3.17h9.114zm15.537 13.876V30h-11.969v-3.159h11.969zm-10.612 0v7.336h-3.802l-.281-7.336h4.083zm13.408 0l-.433 7.347h-3.685v-7.347h4.118zm-4.586-13.876v3.171h-8.553v-3.17h8.553zm2.761 0V30h-4.083V12.965h4.083zm-11.583 0h4.095l-.503 6.985c-.086 1.194-.222 2.23-.409 3.112-.188.882-.41 1.642-.667 2.282a9.324 9.324 0 01-.843 1.65 8.15 8.15 0 01-.959 1.204c-.328.343-.655.655-.983.936-.327.281-.643.57-.947.866h-2.492v-3.159h.818c.242-.172.484-.402.726-.69.249-.296.483-.698.702-1.205.218-.507.409-1.166.573-1.977.164-.812.289-1.818.374-3.019l.515-6.984zm20.532 10.612l4.025-10.612h4.34l-5.744 13.513c-.218.5-.472.975-.76 1.428a5.555 5.555 0 01-1.007 1.205 4.255 4.255 0 01-1.357.83c-.522.203-1.135.305-1.837.305-.171 0-.382-.004-.631-.012-.242 0-.453-.004-.632-.012l-.07-3.182c.101.023.241.039.421.047h.386c.468 0 .838-.055 1.111-.164a1.46 1.46 0 00.644-.515c.164-.234.304-.53.421-.889l.69-1.942zm-2.281-10.612l3.486 7.395 1.334 4.726h-2.948l-6.236-12.12h4.364zm16.238 10.752l6.119-10.751h4.107V30h-4.107V19.26L161.687 30h-4.106V12.965h4.106v10.752zm4.715-15.338h2.703c0 .702-.18 1.326-.539 1.872-.35.538-.85.96-1.497 1.264-.647.304-1.412.456-2.293.456-1.334 0-2.391-.331-3.171-.994-.78-.671-1.17-1.537-1.17-2.598h2.691c0 .382.125.726.375 1.03.249.304.674.456 1.275.456.6 0 1.022-.152 1.263-.456a1.61 1.61 0 00.363-1.03zM48.37 31.966V49h-4.095V31.965h4.095zm9.828 0l-6.12 10.295h-4.422l-.491-3.709h2.796l3.276-6.587h4.96zM53.939 49l-3.99-7.453 2.984-2.749L58.783 49h-4.844zM64 42.717l6.119-10.752h4.106V49H70.12V38.26L64 49h-4.106V31.965H64v10.752zm27.353-10.752V49h-4.107V35.136h-6.118V49h-4.095V31.965h14.32zm9.686 11.255h-4.235v-3.17h4.235c.578 0 1.046-.098 1.404-.293.359-.195.62-.464.784-.807a2.65 2.65 0 00.258-1.181c0-.468-.086-.901-.258-1.3a2.096 2.096 0 00-.784-.959c-.358-.25-.826-.374-1.404-.374h-2.69V49h-4.107V31.965h6.797c1.365 0 2.539.25 3.522.75.991.498 1.751 1.185 2.281 2.058.531.866.796 1.857.796 2.972 0 1.1-.265 2.06-.796 2.878-.53.82-1.29 1.459-2.281 1.919-.983.452-2.157.678-3.522.678z" fill="#fff"/><defs><clipPath id="clip0_12_352"><path fill="#fff" transform="translate(.014)" d="M0 0h49.026v49H0z"/></clipPath></defs></svg>