<svg width="148" height="33" fill="none" xmlns="http://www.w3.org/2000/svg"><path d="M49.194 26.304c-1.886 0-3.539-.426-4.958-1.278-1.401-.853-2.506-2.03-3.314-3.53-.79-1.52-1.186-3.272-1.186-5.255s.395-3.725 1.186-5.226c.808-1.52 1.913-2.705 3.314-3.558 1.42-.852 3.072-1.279 4.958-1.279 1.868 0 3.512.427 4.931 1.28 1.42.852 2.524 2.038 3.314 3.557.79 1.501 1.186 3.243 1.186 5.226s-.395 3.735-1.186 5.254c-.79 1.501-1.895 2.678-3.314 3.53-1.419.853-3.063 1.28-4.93 1.28zm0-3.196c1.796 0 3.225-.612 4.284-1.835 1.078-1.223 1.617-2.9 1.617-5.032 0-2.13-.539-3.808-1.617-5.031-1.06-1.223-2.488-1.835-4.284-1.835-1.796 0-3.233.612-4.311 1.835-1.078 1.223-1.617 2.9-1.617 5.031s.539 3.809 1.617 5.032c1.078 1.223 2.515 1.835 4.311 1.835zm12.396 8.978V12.183h3.071l.377 1.973c.432-.611.998-1.149 1.698-1.612.719-.463 1.644-.695 2.775-.695 1.258 0 2.38.315 3.369.945.988.63 1.77 1.492 2.344 2.586.575 1.093.862 2.335.862 3.725 0 1.39-.287 2.631-.862 3.724a6.744 6.744 0 01-2.344 2.558c-.988.611-2.111.917-3.368.917-1.007 0-1.887-.194-2.641-.583a4.807 4.807 0 01-1.832-1.64v8.005h-3.45zm7.194-8.895c1.096 0 2.003-.38 2.721-1.14.72-.76 1.078-1.742 1.078-2.946 0-1.205-.359-2.197-1.078-2.975-.718-.778-1.625-1.167-2.721-1.167-1.114 0-2.03.389-2.749 1.167-.7.76-1.05 1.742-1.05 2.947 0 1.204.35 2.196 1.05 2.974.72.76 1.635 1.14 2.749 1.14zm15.812 2.779c-1.401 0-2.524-.351-3.368-1.056-.844-.704-1.267-1.955-1.267-3.752v-6.005h-2.29v-2.974h2.29l.404-3.697h3.045v3.697h3.611v2.974h-3.61v6.032c0 .668.134 1.13.404 1.39.287.241.772.362 1.455.362h1.67v3.03h-2.344zm7.246-15.928c-.629 0-1.15-.194-1.563-.583-.395-.39-.593-.88-.593-1.474 0-.593.198-1.075.593-1.445.413-.39.934-.584 1.563-.584.628 0 1.14.195 1.536.584.413.37.62.852.62 1.445 0 .593-.207 1.084-.62 1.474-.396.389-.908.583-1.536.583zm-1.725 15.929V12.183h3.449V25.97h-3.449zm7.049-.001V12.184h3.045l.297 1.862a4.718 4.718 0 011.697-1.584c.718-.408 1.545-.612 2.479-.612 2.066 0 3.53.825 4.392 2.474a5.283 5.283 0 011.94-1.807 5.597 5.597 0 012.695-.667c1.742 0 3.081.538 4.015 1.612.934 1.075 1.401 2.65 1.401 4.726v7.784h-3.45v-7.45c0-1.186-.224-2.094-.673-2.725-.431-.63-1.104-.945-2.02-.945-.935 0-1.689.352-2.264 1.057-.557.704-.835 1.686-.835 2.946v7.117h-3.45v-7.45c0-1.186-.224-2.094-.674-2.725-.448-.63-1.14-.945-2.074-.945-.916 0-1.662.352-2.236 1.057-.557.704-.836 1.686-.836 2.946v7.117h-3.449zm31.729.334c-1.347 0-2.541-.296-3.584-.89a6.337 6.337 0 01-2.451-2.501c-.593-1.075-.889-2.317-.889-3.725 0-1.427.286-2.697.862-3.808.592-1.112 1.4-1.974 2.424-2.586 1.043-.63 2.264-.945 3.665-.945 1.311 0 2.47.297 3.477.89a6.17 6.17 0 012.343 2.446c.576 1.02.862 2.159.862 3.42 0 .203-.008.416-.026.639 0 .222-.009.454-.027.695h-10.159c.072 1.074.431 1.918 1.078 2.53.665.61 1.464.916 2.398.916.701 0 1.284-.157 1.752-.472.485-.334.844-.76 1.078-1.279h3.502a6.634 6.634 0 01-1.266 2.39 6.112 6.112 0 01-2.155 1.669c-.845.407-1.806.611-2.884.611zm.027-11.564c-.844 0-1.59.25-2.236.75-.647.483-1.06 1.224-1.24 2.225h6.656c-.054-.909-.377-1.631-.97-2.169-.593-.537-1.33-.806-2.21-.806zm9.584 11.23V12.184h3.071l.323 2.585a5.629 5.629 0 011.968-2.113c.844-.537 1.832-.806 2.964-.806v3.753h-.97c-.755 0-1.428.12-2.021.361s-1.06.658-1.402 1.251c-.323.593-.485 1.418-.485 2.474v6.283h-3.448z" fill="#0070a0"/><path d="M29.899 8.339L11.82 27.23a.184.184 0 01-.317-.133l.117-9.277c0-.07.038-.132.098-.164L29.68 8.043c.186-.1.365.143.219.296z" fill="#0070a0" fill-opacity=".8"/><path d="M30.769 6.827l-.24.343L10 18.276 2.505 13.3c-.175-.121-.127-.4.085-.439l28.179-6.034z" fill="#0070a0"/><path fill-rule="evenodd" clip-rule="evenodd" d="M31.077 6.621a.379.379 0 01-.007.422l-.239.343a.371.371 0 01-.128.114l-20.53 11.106a.366.366 0 01-.376-.017L2.3 13.613l-.006-.004c-.42-.291-.34-1.005.222-1.115L30.69 6.461a.368.368 0 01.386.16zM2.97 13.162l7.048 4.679L28.95 7.599 2.971 13.162z" fill="#0070a0"/><path fill-rule="evenodd" clip-rule="evenodd" d="M31.117 6.949a.377.377 0 00-.178-.455.367.367 0 00-.47.112l-.189.263L9.72 18.207a.376.376 0 00-.187.4l1.59 8.425a.372.372 0 00.33.302.37.37 0 00.379-.236l2.44-6.33L30.794 7.714a.374.374 0 00.122-.172l.202-.593z" fill="url(#paint0_linear_2_746)"/><path d="M30.768 6.826l-6.179 20.025a.245.245 0 01-.36.132l-8.034-5.036-1.707-1.164 15.77-13.279c.197-.165.357-.37.472-.6l.038-.078z" fill="#0070a0"/><path fill-rule="evenodd" clip-rule="evenodd" d="M30.907 6.479a.376.376 0 01.214.459l-6.178 20.024-.002.005a.613.613 0 01-.905.335L16 22.265a.626.626 0 01-.012-.008l-1.706-1.164a.376.376 0 01-.03-.599l15.77-13.278c.158-.132.286-.296.378-.48l.038-.078a.368.368 0 01.469-.179zm-.969 1.783l-14.834 12.49 1.291.88 7.891 4.946 5.652-18.316z" fill="#0070a0"/><defs><linearGradient id="paint0_linear_2_746" x1="24.357" y1="3.282" x2="11.902" y2="30.423" gradientUnits="userSpaceOnUse"><stop offset="0" stop-color="#ABB3B7"/><stop offset="1" stop-color="#BBD3DF"/></linearGradient></defs></svg>