<svg width="160" height="160" fill="none" xmlns="http://www.w3.org/2000/svg"><path d="M44.425 117.459c-6.181-1.392-12.11-4.427-17.078-9.044-15.086-14.02-15.902-37.73-1.82-52.885 14.083-15.154 37.789-16.076 52.875-2.055 4.968 4.617 8.43 10.307 10.27 16.37-12.583-2.821-26.352.936-35.797 11.1-9.445 10.163-12.184 24.171-8.45 36.514z" stroke="#fff" stroke-opacity=".1" stroke-miterlimit="10"/><path d="M117.397 115.63c-1.392 6.181-4.427 12.11-9.044 17.078-14.02 15.087-37.73 15.903-52.883 1.82-15.154-14.083-16.076-37.789-2.056-52.876 4.617-4.968 10.307-8.429 16.37-10.27-2.82 12.584.936 26.353 11.1 35.798 10.209 9.488 24.17 12.184 36.513 8.45z" stroke="#fff" stroke-opacity=".1" stroke-miterlimit="10"/><path d="M114.651 42.723c6.181 1.392 12.109 4.427 17.078 9.044 15.086 14.02 15.902 37.73 1.82 52.885-14.083 15.154-37.789 16.076-52.875 2.055-4.968-4.617-8.43-10.307-10.27-16.37 12.583 2.82 26.352-.936 35.797-11.1 9.4-10.206 12.184-24.17 8.45-36.514z" stroke="#fff" stroke-opacity=".1" stroke-miterlimit="10"/><path d="M42.663 45.404c1.392-6.181 4.427-12.11 9.044-17.078 14.02-15.087 37.73-15.903 52.883-1.82 15.154 14.083 16.076 37.79 2.056 52.876-4.617 4.968-10.307 8.43-16.37 10.27 2.82-12.583-.936-26.353-11.1-35.798-10.209-9.488-24.17-12.184-36.513-8.45z" stroke="#fff" stroke-opacity=".1" stroke-miterlimit="10"/></svg>