<svg width="104" height="80" viewBox="0 0 104 80" fill="none" xmlns="http://www.w3.org/2000/svg">
<path d="M63.4659 32.9571L63.4652 32.9583L63.4614 32.9652L63.3188 33.2238H63.3185C60.6311 38.1436 59.2778 43.6205 59.2778 49.6858C59.2778 58.5486 61.1593 65.5678 64.7895 70.8662C68.273 75.8547 74.1255 78.5 82.7628 78.5C88.1549 78.5 92.1943 76.8435 95.0824 73.6673L95.0846 73.6649L63.4659 32.9571ZM63.4659 32.9571C66.3139 27.7557 69.7674 23.1403 73.8259 19.1048C78.0186 14.9409 82.4576 11.4154 87.1425 8.52209C91.3247 5.93929 94.905 3.77394 97.8854 2.02466L101.877 8.32447C97.6117 10.6738 94.0919 12.7519 91.3264 14.5573C88.1915 16.5042 85.0352 19.0947 81.8544 22.3074C81.8539 22.3079 81.8534 22.3084 81.853 22.3088L81.8518 22.31M63.4659 32.9571L81.8518 22.31M81.8518 22.31C78.7376 25.4625 76.3415 28.7504 74.6957 32.1791L74.6933 32.1841L74.6933 32.184M81.8518 22.31L74.6933 32.184M74.6933 32.184L74.6897 32.1917M74.6933 32.184L74.6897 32.1917M74.6897 32.1917L74.6866 32.1984L74.6863 32.199M74.6897 32.1917L74.6863 32.199M74.6863 32.199C73.1399 35.5462 72.0712 39.8546 71.436 45.0681L71.2994 46.189L71.2311 46.7495M74.6863 32.199L71.2311 46.7495M71.2311 46.7495H71.7957M71.2311 46.7495H71.7957M71.7957 46.7495H72.9249H80.4204C86.6483 46.7495 91.313 48.223 94.6036 50.9829L94.6045 50.9837M71.7957 46.7495L94.6045 50.9837M94.6045 50.9837L94.616 50.9933L94.6159 50.9934M94.6045 50.9837L94.6159 50.9934M94.6159 50.9934L94.6253 51.0008M94.6159 50.9934L94.6253 51.0008M94.6253 51.0008L94.637 51.0101L94.6384 51.0112M94.6253 51.0008L94.6384 51.0112M94.6384 51.0112C97.9467 53.6219 99.689 57.5263 99.689 62.9945M94.6384 51.0112L99.689 62.9945M99.689 62.9945C99.689 66.6898 98.2156 70.2358 95.0867 73.6625L99.689 62.9945ZM24.0753 22.3087L24.0752 22.3088L24.0728 22.3112C21.0589 25.3693 18.7173 28.6079 17.0741 32.0312C15.4185 35.4804 14.2948 39.8434 13.6582 45.0681L13.5216 46.189L13.4533 46.7495H14.0179H15.1471H22.6426C28.8705 46.7495 33.5352 48.223 36.8259 50.9829L36.8365 50.9918L36.8419 50.9964L36.8475 51.0009L36.8592 51.0102L36.8606 51.0112C40.1689 53.6219 41.9114 57.5263 41.9114 62.9945C41.9114 66.6907 40.4372 70.2374 37.3068 73.6649L37.3067 73.6648L37.3047 73.6673C37.3036 73.6685 37.3025 73.6697 37.3014 73.6709C34.4134 76.8447 30.3751 78.5 24.985 78.5C16.3476 78.5 10.495 75.8546 7.01157 70.8659C3.3815 65.5676 1.5 58.5485 1.5 49.6858C1.5 43.6205 2.85333 38.1436 5.54076 33.2238H5.54116L5.68368 32.965L5.68748 32.9581L5.68805 32.9571C8.53609 27.7557 11.9897 23.1403 16.0482 19.1048C20.2408 14.9409 24.6799 11.4154 29.3647 8.52209C33.5469 5.93929 37.1273 3.77393 40.1077 2.02465L44.0992 8.32447C39.8339 10.6738 36.3142 12.7519 33.5486 14.5573C30.4134 16.5044 27.2566 19.0953 24.0753 22.3087Z" stroke="#DADEDF"/>
</svg>
