<svg width="150" height="32" viewBox="0 0 150 32" fill="none" xmlns="http://www.w3.org/2000/svg">
<g clip-path="url(#clip0_2_456)">
<path d="M6.16 26H1.82V6.4H5.852L12.124 15.78L18.088 6.4H22.008V26H17.668V14.24L12.572 22.052H11.424L6.16 14.156V26ZM35.0444 18.076L28.5204 26H25.0764V11.44H29.1364V19.364L35.6604 11.44H39.1044V26H35.0444V18.076ZM51.6154 11.44H56.5154L50.9434 18.496L56.7674 26H51.7274L48.3954 21.548L44.9514 26H40.0794L45.9034 18.524L40.3594 11.44H45.3714L48.4794 15.388L51.6154 11.44ZM68.0726 20.848L70.5086 23.312C68.9593 25.2533 66.8686 26.224 64.2366 26.224C61.9033 26.224 60.0086 25.5333 58.5526 24.152C57.0966 22.7707 56.3686 20.9507 56.3686 18.692C56.3686 16.396 57.0593 14.5667 58.4406 13.204C59.8406 11.8227 61.6699 11.132 63.9286 11.132C65.9633 11.132 67.6246 11.748 68.9126 12.98C70.2193 14.212 70.8726 15.8267 70.8726 17.824C70.8726 18.3467 70.7979 19.1307 70.6486 20.176H60.6246C60.8113 20.9413 61.2499 21.5107 61.9406 21.884C62.6313 22.2573 63.4153 22.444 64.2926 22.444C65.9353 22.444 67.1953 21.912 68.0726 20.848ZM63.7886 14.772C62.2393 14.772 61.2126 15.4067 60.7086 16.676H66.6726C66.3366 15.4067 65.3753 14.772 63.7886 14.772ZM85.7463 26H81.6863V15.22H77.7383V15.612C77.7383 16.396 77.7196 17.1053 77.6823 17.74C77.6449 18.356 77.5703 19.112 77.4583 20.008C77.3649 20.8853 77.1876 21.66 76.9263 22.332C76.6836 22.9853 76.3663 23.62 75.9743 24.236C75.6009 24.852 75.0969 25.328 74.4623 25.664C73.8276 25.9813 73.0903 26.14 72.2503 26.14C71.7276 26.14 71.2423 26.0933 70.7943 26V22.36C70.9063 22.3787 71.0743 22.388 71.2983 22.388C71.9703 22.388 72.4556 22.1827 72.7543 21.772C73.0716 21.3613 73.3236 20.764 73.5103 19.98C73.7716 18.8787 73.9023 17.0867 73.9023 14.604V11.44H85.7463V26ZM94.5118 26H88.2678V11.44H92.3278V15.304H94.7078C96.6678 15.304 98.2171 15.7333 99.3558 16.592C100.494 17.432 101.064 18.776 101.064 20.624C101.064 22.4533 100.438 23.8067 99.1878 24.684C97.9558 25.5613 96.3971 26 94.5118 26ZM94.4278 19.084H92.3278V22.22H94.4278C96.0518 22.22 96.8638 21.6973 96.8638 20.652C96.8638 20.204 96.7238 19.8587 96.4438 19.616C96.1825 19.3733 95.8931 19.224 95.5758 19.168C95.2771 19.112 94.8945 19.084 94.4278 19.084ZM113.541 20.54L116.509 22.304C115.874 23.536 114.969 24.4973 113.793 25.188C112.617 25.8787 111.329 26.224 109.929 26.224C107.614 26.224 105.719 25.5333 104.245 24.152C102.77 22.7707 102.033 20.9507 102.033 18.692C102.033 16.4707 102.761 14.66 104.217 13.26C105.691 11.8413 107.53 11.132 109.733 11.132C111.189 11.132 112.523 11.4307 113.737 12.028C114.969 12.6253 115.855 13.54 116.397 14.772L113.373 16.732C112.887 16.0973 112.393 15.64 111.889 15.36C111.385 15.0613 110.75 14.912 109.985 14.912C108.865 14.912 107.959 15.2667 107.269 15.976C106.578 16.6667 106.233 17.572 106.233 18.692C106.233 19.7933 106.643 20.6987 107.465 21.408C108.286 22.0987 109.257 22.444 110.377 22.444C111.721 22.444 112.775 21.8093 113.541 20.54ZM116.99 18.692C116.99 16.452 117.746 14.632 119.258 13.232C120.77 11.832 122.636 11.132 124.858 11.132C127.116 11.132 129.002 11.8413 130.514 13.26C132.026 14.66 132.782 16.4707 132.782 18.692C132.782 20.932 132.016 22.752 130.486 24.152C128.955 25.5333 127.079 26.224 124.858 26.224C122.636 26.224 120.77 25.5147 119.258 24.096C117.746 22.6773 116.99 20.876 116.99 18.692ZM121.19 18.692C121.19 19.756 121.535 20.652 122.226 21.38C122.935 22.0893 123.812 22.444 124.858 22.444C125.978 22.444 126.874 22.0987 127.546 21.408C128.236 20.7173 128.582 19.812 128.582 18.692C128.582 17.5907 128.236 16.6853 127.546 15.976C126.855 15.2667 125.959 14.912 124.858 14.912C123.756 14.912 122.87 15.2667 122.198 15.976C121.526 16.6853 121.19 17.5907 121.19 18.692ZM148.28 26H144.22V20.54H138.648V26H134.588V11.44H138.648V16.76H144.22V11.44H148.28V26Z" fill="black"/>
</g>
<defs>
<clipPath id="clip0_2_456">
<rect width="150" height="32" fill="white"/>
</clipPath>
</defs>
</svg>
