<svg width="71" height="60" fill="none" xmlns="http://www.w3.org/2000/svg"><g clip-path="url(#clip0_2_206)"><path fill-rule="evenodd" clip-rule="evenodd" d="M.311 9.37C10.9 14.578 16.193 20.695 16.193 27.723c-4.513.521-8.245 2.365-11.195 5.532C2.047 36.42.572 40.087.572 44.252c0 4.425 1.432 8.156 4.295 11.193C7.731 58.482 11.333 60 15.672 60c4.86 0 9.069-1.974 12.627-5.922 3.558-3.948 5.337-8.742 5.337-14.382 0-16.92-9.46-30.151-28.378-39.696L.311 9.37zm37.364 0c10.675 5.207 16.012 11.324 16.012 18.352-4.6.521-8.375 2.365-11.325 5.532-2.951 3.167-4.426 6.833-4.426 10.998 0 4.425 1.453 8.156 4.36 11.193C45.205 58.482 48.827 60 53.167 60c4.86 0 9.047-1.974 12.562-5.922C69.243 50.13 71 45.336 71 39.696 71 22.776 61.584 9.545 42.752 0l-5.077 9.37z" fill="#C2D8FE"/></g><defs><clipPath id="clip0_2_206"><path fill="#fff" transform="matrix(-1 0 0 1 71 0)" d="M0 0h71v60H0z"/></clipPath></defs></svg>