<svg width="30" height="40" fill="none" xmlns="http://www.w3.org/2000/svg"><path d="M11.25 0h7.5a3.75 3.75 0 013.538 2.5h3.962A3.75 3.75 0 0130 6.25v30A3.75 3.75 0 0126.25 40H3.75A3.75 3.75 0 010 36.25v-30A3.75 3.75 0 013.75 2.5h3.963A3.75 3.75 0 0111.25 0zM10 3.75A1.25 1.25 0 0011.25 5h7.5a1.25 1.25 0 000-2.5h-7.5A1.25 1.25 0 0010 3.75zm11.875 14.375a1.875 1.875 0 100-3.75 1.875 1.875 0 000 3.75zm0 7.5a1.875 1.875 0 100-3.75 1.875 1.875 0 000 3.75zM20 31.25a1.875 1.875 0 103.75 0 1.875 1.875 0 00-3.75 0zm-2.5-15A1.25 1.25 0 0016.25 15H7.5a1.25 1.25 0 000 2.5h8.75a1.25 1.25 0 001.25-1.25zm0 7.5a1.25 1.25 0 00-1.25-1.25H7.5a1.25 1.25 0 000 2.5h8.75a1.25 1.25 0 001.25-1.25zm0 7.5A1.25 1.25 0 0016.25 30H7.5a1.25 1.25 0 000 2.5h8.75a1.25 1.25 0 001.25-1.25z" fill="#4472E8"/></svg>