<svg width="40" height="40" fill="none" xmlns="http://www.w3.org/2000/svg"><g clip-path="url(#clip0_2_257)" fill="#4472E8"><path d="M39.301 12.288L35.994 8.98l2.486-2.486a1.17 1.17 0 000-1.657l-3.329-3.329c-.44-.44-1.218-.44-1.657 0l-2.486 2.487L27.7.687A2.344 2.344 0 0024.386 4l11.6 11.601a2.344 2.344 0 003.315-3.314zM15.614 35.999l-11.6-11.601a2.344 2.344 0 00-3.315 3.314l3.308 3.309-2.481 2.48a1.171 1.171 0 000 1.657l3.329 3.328a1.167 1.167 0 001.657 0l2.48-2.48 3.308 3.307A2.344 2.344 0 0015.614 36zm5.457-22.054l-7.115 7.138 4.972 4.972 7.115-7.139-4.972-4.971zm14.916 4.971L21.072 4.002a2.344 2.344 0 00-3.315 3.314l14.916 14.916a2.344 2.344 0 003.314-3.315zM22.243 32.684L7.328 17.77a2.344 2.344 0 00-3.315 3.314L18.93 36a2.344 2.344 0 003.314-3.315z"/></g><defs><clipPath id="clip0_2_257"><path fill="#fff" d="M0 0h40v40H0z"/></clipPath></defs></svg>