<svg width="243" height="42" viewBox="0 0 243 42" fill="none" xmlns="http://www.w3.org/2000/svg">
<g clip-path="url(#clip0_1_856)">
<path d="M-13.0125 39.3641V2.6359C-13.0125 2.28718 -12.7123 1.97949 -12.3397 1.97949H31.5816C31.9439 1.97949 32.2441 2.28718 32.2441 2.6359V39.3641C32.2441 39.7333 31.9439 40.0308 31.5816 40.0308H-12.3397C-12.7123 40.0308 -13.0125 39.7333 -13.0125 39.3641ZM-12.3397 0C-13.8096 0 -15 1.18974 -15 2.6359V39.3641C-15 40.8205 -13.8096 42 -12.3397 42H31.5816C33.0412 42 34.2316 40.8205 34.2316 39.3641V2.6359C34.2316 1.18974 33.0515 0 31.5816 0H-12.3397Z" fill="#9CA09E"/>
<path d="M25.1326 25.1591L12.7419 25.1181C11.9035 25.1181 11.2203 24.4514 11.2203 23.6206C11.2203 23.2924 11.3341 22.995 11.5101 22.7488L17.8349 16.4411C18.1143 16.1027 18.4456 15.9899 18.9218 15.9899C19.3048 15.9899 19.636 16.1232 19.8948 16.3386L26.3748 22.8001C26.5404 23.0463 26.6336 23.3334 26.6336 23.6411C26.644 24.4822 25.9711 25.1591 25.1326 25.1591ZM6.55176 25.1181L-5.8493 25.1488C-6.67742 25.1488 -7.35026 24.4719 -7.35026 23.6411C-7.35026 23.3334 -7.2571 23.0463 -7.10183 22.8001L-0.611458 16.3386C-0.331967 16.1129 0.0199823 15.9899 0.371932 15.9899C0.8481 15.9899 1.17935 16.1027 1.45884 16.4411L7.78358 22.7488C7.94921 22.995 8.06307 23.2924 8.06307 23.6206C8.06307 24.4514 7.39023 25.1181 6.55176 25.1181ZM28.1139 5.66165L19.9673 13.7437V13.7642C19.7085 14.0617 19.2841 14.2258 18.9011 14.2258C18.5181 14.2258 18.1765 14.0411 17.8866 13.7129L9.61579 5.53857L1.37602 13.7232C1.08618 14.0514 0.723882 14.2258 0.340878 14.2258C-0.0421267 14.2258 -0.456186 14.0411 -0.725324 13.7437L-8.86158 5.66165L-8.92369 5.61037V36.6155H28.176V5.61037L28.1139 5.66165Z" fill="#9CA09E"/>
<path d="M59.8825 36.5745V12.1642H47.4194V5.61035H80.8028V12.1642H69.0436V36.5642H59.8825V36.5745ZM85.0366 36.5745V5.61035H115.128V12.4104H93.0279V18.2668H114.662V24.3591H93.0279V30.4616H115.128V36.5539H85.0366V36.5745ZM160.488 36.5745V5.61035H190.58V12.4104H168.48V18.2668H190.114V24.3591H168.48V30.4616H190.58V36.5539H160.488V36.5745ZM232.835 36.6257L218.26 20.2975L231.365 5.61035H220.434L212.774 14.1437L205.145 5.61035H194.214L207.267 20.2975L192.692 36.5745H203.747L212.763 26.4719L221.779 36.6257H232.835ZM120.998 5.61035V36.5745H129.217V24.8411H137.332L146.39 36.5642H156.255C156.255 36.5642 147.208 24.718 147.321 24.8411C157.424 25.0668 161.213 5.6001 144.03 5.6001L120.998 5.61035ZM129.279 11.9283H143.854C148.615 11.9283 148.74 18.2668 144.03 18.2668H129.217L129.279 11.9283ZM238.197 36.1129C236.002 36.1129 234.243 34.3283 234.243 32.1129C234.243 29.8975 236.002 28.1129 238.197 28.1129C240.381 28.1129 242.151 29.8975 242.151 32.1129C242.151 34.318 240.381 36.1129 238.197 36.1129ZM233.373 32.1129C233.373 34.7488 235.526 36.8719 238.197 36.8719C240.857 36.8719 243.01 34.7386 243.01 32.1129C243.01 29.477 240.857 27.3334 238.197 27.3334C235.526 27.3334 233.373 29.477 233.373 32.1129ZM237.12 31.8155V30.1232H238.29C238.89 30.1232 239.512 30.2052 239.512 30.9437C239.512 31.7745 238.818 31.8052 238.042 31.8052L237.12 31.8155ZM236.272 34.9334H237.12V32.595H238.052L239.605 34.9334H240.454L238.849 32.5232C239.698 32.4411 240.36 31.9693 240.36 30.9745C240.36 29.877 239.688 29.3437 238.435 29.3437H236.261L236.272 34.9334Z" fill="#9CA09E"/>
</g>
<defs>
<clipPath id="clip0_1_856">
<rect width="258" height="42" fill="white" transform="translate(-15)"/>
</clipPath>
</defs>
</svg>
