<svg width="259" height="126" fill="none" xmlns="http://www.w3.org/2000/svg"><path d="M246.973 125.536H21.657c-5.087 0-10.175-2.908-12.356-7.269-7.268-11.629-11.629-27.62-7.995-39.248C4.94 65.209 16.57 53.579 30.38 49.946 28.2 28.14 44.916 6.336 66.72 1.248c21.805-5.087 45.064 5.815 56.693 24.712 2.18 3.635 4.361 7.269 7.995 7.996 3.634.726 7.268-.727 10.902-2.18 14.537-6.542 32.708-5.089 46.517 2.906 13.81 8.722 23.259 23.986 23.985 39.976 11.63-5.088 26.166-2.907 35.615 5.814 9.449 8.722 13.083 23.259 8.722 34.888.727.727-1.454 10.176-10.176 10.176z" fill="#6F95D4"/><path d="M152 77a28.88 28.88 0 01-29 29 28.88 28.88 0 01-29-29 28.88 28.88 0 0129-29 28.88 28.88 0 0129 29z" fill="#E94552"/><path d="M121.926 58.204l17.722 22.018h-10.204v15.574h-15.037V80.76h-10.203l17.722-22.555z" fill="#fff"/></svg>