<svg width="160" height="151" viewBox="0 0 160 151" fill="none" xmlns="http://www.w3.org/2000/svg">
<path d="M73.112 66.4956C102.426 44.831 123.272 23.3009 119.672 18.4068C116.073 13.5128 89.3914 27.108 60.0775 48.7727C30.7636 70.4373 9.91787 91.9674 13.5172 96.8615C17.1166 101.756 43.7981 88.1603 73.112 66.4956Z" stroke="white" stroke-opacity="0.12" stroke-miterlimit="10"/>
<path d="M66.112 57.4956C95.4259 35.831 116.272 14.3009 112.672 9.40685C109.073 4.5128 82.3914 18.108 53.0775 39.7727C23.7636 61.4373 2.91787 82.9674 6.51724 87.8615C10.1166 92.7555 36.7981 79.1603 66.112 57.4956Z" stroke="white" stroke-opacity="0.12" stroke-miterlimit="10"/>
<path d="M106.112 111.496C135.426 89.831 156.272 68.3009 152.672 63.4068C149.073 58.5128 122.391 72.108 93.0775 93.7727C63.7636 115.437 42.9179 136.967 46.5172 141.861C50.1166 146.756 76.7981 133.16 106.112 111.496Z" stroke="white" stroke-opacity="0.12" stroke-miterlimit="10"/>
<path d="M99.112 102.496C128.426 80.831 149.272 59.3009 145.672 54.4068C142.073 49.5128 115.391 63.108 86.0775 84.7727C56.7636 106.437 35.9179 127.967 39.5172 132.861C43.1166 137.756 69.7981 124.16 99.112 102.496Z" stroke="white" stroke-opacity="0.12" stroke-miterlimit="10"/>
<path d="M93.112 93.4956C122.426 71.831 143.272 50.3009 139.672 45.4068C136.073 40.5128 109.391 54.108 80.0775 75.7727C50.7636 97.4373 29.9179 118.967 33.5172 123.861C37.1166 128.756 63.7981 115.16 93.112 93.4956Z" stroke="white" stroke-opacity="0.12" stroke-miterlimit="10"/>
<path d="M86.112 84.4956C115.426 62.831 136.272 41.3009 132.672 36.4068C129.073 31.5128 102.391 45.108 73.0775 66.7727C43.7636 88.4373 22.9179 109.967 26.5172 114.861C30.1166 119.756 56.7981 106.16 86.112 84.4956Z" stroke="white" stroke-opacity="0.12" stroke-miterlimit="10"/>
<path d="M79.112 75.4956C108.426 53.831 129.272 32.3009 125.672 27.4068C122.073 22.5128 95.3914 36.108 66.0775 57.7727C36.7636 79.4373 15.9179 100.967 19.5172 105.861C23.1166 110.756 49.7981 97.1603 79.112 75.4956Z" stroke="white" stroke-opacity="0.12" stroke-miterlimit="10"/>
</svg>
