<svg width="134" height="88" fill="none" xmlns="http://www.w3.org/2000/svg"><path d="M24.488 24.5h5.95v22.33h15.05V49h-21V24.5zm30.924 24.85c-2.497 0-4.375-.455-5.635-1.365-1.237-.933-1.855-2.24-1.855-3.92 0-1.773.735-3.138 2.205-4.095 1.47-.957 3.593-1.435 6.37-1.435h4.585V37.38c0-1.307-.362-2.31-1.085-3.01-.724-.7-1.762-1.05-3.115-1.05-1.33 0-2.392.338-3.185 1.015-.77.677-1.249 1.668-1.435 2.975h-3.85c.256-1.89 1.155-3.325 2.695-4.305 1.54-1.003 3.628-1.505 6.265-1.505 2.893 0 5.098.537 6.615 1.61 1.516 1.073 2.275 2.625 2.275 4.655v5.53c0 2.123.175 4.025.525 5.705h-4.83a20.22 20.22 0 01-.49-2.345 5.7 5.7 0 01-2.625 2.065c-1.05.42-2.194.63-3.43.63zm1.085-1.75c1.446 0 2.566-.385 3.36-1.155.816-.793 1.225-1.843 1.225-3.15v-2.94h-3.115c-1.564 0-2.765.327-3.605.98-.84.63-1.26 1.528-1.26 2.695 0 1.19.28 2.088.84 2.695.583.583 1.435.875 2.555.875zm12.61-15.75h5.32l6.405 12.32 6.37-12.32h3.115l-8.75 17.5h-3.185l-9.275-17.5zm29.44 17.5c-2.497 0-4.376-.455-5.636-1.365-1.236-.933-1.855-2.24-1.855-3.92 0-1.773.735-3.138 2.205-4.095 1.47-.957 3.594-1.435 6.37-1.435h4.585V37.38c0-1.307-.361-2.31-1.085-3.01-.723-.7-1.761-1.05-3.115-1.05-1.33 0-2.391.338-3.185 1.015-.77.677-1.248 1.668-1.435 2.975h-3.85c.257-1.89 1.155-3.325 2.695-4.305 1.54-1.003 3.629-1.505 6.265-1.505 2.894 0 5.099.537 6.615 1.61 1.517 1.073 2.275 2.625 2.275 4.655v5.53c0 2.123.175 4.025.525 5.705h-4.83a20.454 20.454 0 01-.49-2.345 5.692 5.692 0 01-2.625 2.065c-1.05.42-2.193.63-3.43.63zm1.084-1.75c1.447 0 2.567-.385 3.36-1.155.817-.793 1.225-1.843 1.225-3.15v-2.94h-3.115c-1.563 0-2.765.327-3.605.98-.84.63-1.26 1.528-1.26 2.695 0 1.19.28 2.088.84 2.695.584.583 1.435.875 2.555.875zM33.874 79l-4.71-5.9c-.12.007-.303.01-.55.01-.66 0-1.433-.033-2.32-.1V79h-2.22V64.55c1.513-.34 3.077-.51 4.69-.51 2.194 0 3.82.36 4.88 1.08 1.06.713 1.59 1.853 1.59 3.42 0 1.133-.32 2.06-.96 2.78-.633.72-1.573 1.223-2.82 1.51l4.97 6.17h-2.55zm-7.58-7.69c.453.047.85.08 1.19.1.347.02.753.03 1.22.03 1.534 0 2.65-.23 3.35-.69.7-.467 1.05-1.193 1.05-2.18 0-.7-.146-1.26-.44-1.68-.287-.42-.737-.723-1.35-.91-.607-.187-1.407-.28-2.4-.28-.5 0-.95.02-1.35.06-.4.04-.823.1-1.27.18v5.37zm16.543 7.89c-1.114 0-2.084-.21-2.91-.63a4.43 4.43 0 01-1.91-1.89c-.447-.84-.67-1.88-.67-3.12 0-1.227.22-2.257.66-3.09a4.372 4.372 0 011.9-1.89c.82-.42 1.796-.63 2.93-.63 1.733 0 3.08.473 4.04 1.42.96.94 1.44 2.337 1.44 4.19 0 1.22-.227 2.253-.68 3.1a4.475 4.475 0 01-1.92 1.9c-.82.427-1.78.64-2.88.64zm0-1.76c2.173 0 3.26-1.29 3.26-3.87 0-1.34-.28-2.317-.84-2.93-.56-.62-1.367-.93-2.42-.93-1.054 0-1.864.307-2.43.92-.56.613-.84 1.587-.84 2.92 0 2.593 1.09 3.89 3.27 3.89zm12.036-9.49c1.147 0 2.08.137 2.8.41.72.267 1.26.713 1.62 1.34.36.627.54 1.48.54 2.56V79h-1.86l-.16-1.17h-.12c-.406.427-.92.76-1.54 1-.62.233-1.28.35-1.98.35-.8 0-1.483-.123-2.05-.37-.566-.253-.996-.607-1.29-1.06-.293-.453-.44-.987-.44-1.6 0-.967.36-1.713 1.08-2.24.727-.533 1.88-.87 3.46-1.01l2.72-.27v-.52c0-.64-.11-1.14-.33-1.5-.22-.36-.553-.613-1-.76-.44-.147-1.026-.22-1.76-.22-.506 0-1.056.043-1.65.13-.586.087-1.15.217-1.69.39v-1.66a10.657 10.657 0 011.77-.4 13.36 13.36 0 011.88-.14zm-.11 9.69c.534 0 1.05-.093 1.55-.28.5-.193.947-.48 1.34-.86v-2.55l-2.55.25c-.886.1-1.52.293-1.9.58-.38.28-.57.68-.57 1.2 0 .527.177.937.53 1.23.354.287.887.43 1.6.43zm11.553 1.56c-1.367 0-2.607-.16-3.72-.48v-1.61c1.193.333 2.436.5 3.73.5 1 0 1.72-.133 2.16-.4.44-.273.66-.67.66-1.19 0-.28-.05-.51-.15-.69-.1-.187-.27-.34-.51-.46-.24-.127-.57-.223-.99-.29l-1.93-.3c-1.12-.18-1.93-.52-2.43-1.02-.494-.5-.74-1.17-.74-2.01 0-1.02.42-1.823 1.26-2.41.846-.593 2.136-.89 3.87-.89.546 0 1.09.037 1.63.11.546.067 1.05.167 1.51.3v1.6a11.698 11.698 0 00-3.13-.42c-1.1 0-1.877.143-2.33.43-.454.287-.68.683-.68 1.19 0 .38.116.69.35.93.233.233.65.403 1.25.51l1.93.3c1.113.173 1.93.493 2.45.96.52.467.78 1.143.78 2.03 0 .687-.187 1.277-.56 1.77-.367.493-.924.873-1.67 1.14-.74.267-1.654.4-2.74.4zm12.706-1.82c.213 0 .43-.013.65-.04.22-.027.493-.073.82-.14v1.76a8.84 8.84 0 01-2.03.24c-1.34 0-2.36-.327-3.06-.98-.7-.653-1.05-1.64-1.05-2.96v-5.35h-2.17v-1.79h2.17l.38-3.92h1.84v3.92h3.77v1.79h-3.77v4.94c0 .9.2 1.547.6 1.94.4.393 1.016.59 1.85.59zm12.741-3.16h-7.89c.04.787.21 1.423.51 1.91.3.48.75.833 1.35 1.06.6.227 1.37.34 2.31.34.933 0 1.967-.143 3.1-.43v1.65c-1.18.3-2.317.45-3.41.45-2.027 0-3.547-.457-4.56-1.37-1.007-.92-1.51-2.337-1.51-4.25 0-1.2.203-2.22.61-3.06.407-.84.993-1.477 1.76-1.91.773-.44 1.703-.66 2.79-.66 1.6 0 2.823.49 3.67 1.47.847.973 1.27 2.38 1.27 4.22v.58zm-4.97-4.8c-.933 0-1.647.283-2.14.85-.493.56-.757 1.43-.79 2.61h5.81c-.027-1.18-.28-2.05-.76-2.61-.48-.567-1.187-.85-2.12-.85zm7.472-1.3h1.83l.17 1.39h.13c.394-.473.9-.843 1.52-1.11.627-.267 1.28-.4 1.96-.4.387 0 .75.033 1.09.1v1.99a6.767 6.767 0 00-1.2-.09c-.586 0-1.183.113-1.79.34a3.59 3.59 0 00-1.49 1.01V79h-2.22V68.12zm11.719 11.08c-1.367 0-2.607-.16-3.72-.48v-1.61c1.193.333 2.436.5 3.73.5 1 0 1.72-.133 2.16-.4.44-.273.66-.67.66-1.19 0-.28-.05-.51-.15-.69-.1-.187-.27-.34-.51-.46-.24-.127-.57-.223-.99-.29l-1.93-.3c-1.12-.18-1.93-.52-2.43-1.02-.494-.5-.74-1.17-.74-2.01 0-1.02.42-1.823 1.26-2.41.846-.593 2.136-.89 3.87-.89.546 0 1.09.037 1.63.11.546.067 1.05.167 1.51.3v1.6a11.703 11.703 0 00-3.13-.42c-1.1 0-1.877.143-2.33.43-.454.287-.68.683-.68 1.19 0 .38.116.69.35.93.233.233.65.403 1.25.51l1.93.3c1.113.173 1.93.493 2.45.96.52.467.78 1.143.78 2.03 0 .687-.187 1.277-.56 1.77-.367.493-.924.873-1.67 1.14-.74.267-1.654.4-2.74.4zM27.63 17.557c2.989-.64 5.282-4.326 5.282-8.777 0-4.452-2.293-8.138-5.282-8.777-.107-.023-.206.078-.206.207v17.14m-1.09 0V.21c0-.13-.1-.23-.207-.207-2.988.64-5.281 4.326-5.281 8.778 0 4.451 2.292 8.137 5.281 8.777m11.12 4.114c2.853 1.122 6.7-.712 9.013-4.467 2.313-3.754 2.295-8.137.105-10.337-.079-.079-.214-.049-.281.06L37.18 21.385m-.919-.608l8.904-14.455c.067-.11.036-.25-.066-.29-2.854-1.12-6.7.713-9.014 4.468-2.313 3.754-2.294 8.137-.105 10.337m-19.225.835c-2.853 1.122-6.7-.712-9.014-4.467-2.313-3.754-2.294-8.137-.105-10.337.079-.079.214-.049.281.06l8.904 14.456m.919-.607L8.836 6.322c-.067-.11-.036-.25.067-.29 2.853-1.12 6.7.713 9.013 4.469 2.314 3.754 2.295 8.137.105 10.337" fill="#3D3017"/></svg>