<svg width="46" height="46" fill="none" xmlns="http://www.w3.org/2000/svg"><g clip-path="url(#clip0_29_153)"><path d="M45.438 42.729L32.357 29.647a18.12 18.12 0 004.06-11.438C36.416 8.169 28.246 0 18.207 0 8.168 0 0 8.169 0 18.209s8.169 18.208 18.208 18.208a18.12 18.12 0 0011.439-4.06l13.08 13.082a1.912 1.912 0 002.711 0c.75-.75.75-1.961 0-2.71zm-27.23-10.145c-7.927 0-14.375-6.448-14.375-14.375 0-7.928 6.448-14.375 14.375-14.375 7.928 0 14.375 6.447 14.375 14.375 0 7.927-6.448 14.375-14.375 14.375z" fill="#fff"/></g><defs><clipPath id="clip0_29_153"><path fill="#fff" d="M0 0h46v46H0z"/></clipPath></defs></svg>