<svg width="186" height="69" viewBox="0 0 186 69" fill="none" xmlns="http://www.w3.org/2000/svg">
<g clip-path="url(#clip0_12_352)">
<path d="M36.7829 15.3143V7.65842C36.7829 6.81284 36.0971 6.12726 35.251 6.12726H33.719V1.53375C33.719 0.68816 33.0332 0.0025787 32.187 0.0025787C30.0182 0.0025787 26.6967 -0.163553 22.7976 2.1711C20.3739 1.45001 18.6597 1.53375 16.8674 1.53375C16.0213 1.53375 15.3354 2.21933 15.3354 3.06492V6.12726H13.8035C12.9573 6.12726 12.2715 6.81284 12.2715 7.65842V15.3143C12.2715 21.5501 16.9579 26.7123 22.9952 27.4681V47.4688C22.9952 48.3144 23.6811 49 24.5272 49C25.3733 49 26.0592 48.3144 26.0592 47.4688V42.1097H28.3571C33.0031 42.1097 36.7829 38.3319 36.7829 33.6883V31.3915C36.7829 30.546 36.0971 29.8604 35.251 29.8604H31.4211C29.3859 29.8604 27.517 30.5853 26.0592 31.7903V27.4674C32.0876 26.7212 36.7829 21.5847 36.7829 15.3143V15.3143ZM33.719 15.3143C33.719 18.0393 32.5133 20.5004 30.6076 22.1879C30.6377 21.9422 30.6551 21.6926 30.6551 21.4389C30.6551 17.5614 29.2047 14.0165 26.8187 11.3159C28.8415 9.93633 31.2399 9.18959 33.719 9.18959V15.3143ZM30.6551 3.06492V6.43617C30.372 6.49378 30.0908 6.55952 29.812 6.63292C28.8182 5.52101 27.6847 4.57369 26.4472 3.8082C27.7848 3.31938 29.2049 3.06492 30.6551 3.06492V3.06492ZM18.3994 4.59609C21.4429 4.59609 24.3985 5.70685 26.6972 7.82915C25.9385 8.22046 25.2111 8.67665 24.5227 9.1939C22.7415 7.85547 20.6602 6.89562 18.3994 6.43512V4.59609ZM15.3354 15.3143V9.18959C22.0932 9.18959 27.5911 14.6846 27.5911 21.4389C27.5911 23.15 26.1774 24.5443 24.4467 24.4998C19.0647 24.367 15.3354 20.0933 15.3354 15.3143ZM31.4211 32.9227H33.719V33.6883C33.719 36.6433 31.3137 39.0474 28.3571 39.0474H26.0592V38.2818C26.0592 35.3268 28.4646 32.9227 31.4211 32.9227Z" fill="white"/>
</g>
<path d="M48.1712 23.7174L54.29 12.9655H58.3966V30H54.29V19.2599L48.1712 30H44.0647V12.9655H48.1712V23.7174ZM70.9144 24.2321H75.0092C74.9546 25.4177 74.6349 26.4628 74.0499 27.3676C73.4649 28.2724 72.6537 28.9782 71.6164 29.4852C70.5868 29.9844 69.3701 30.234 67.9661 30.234C66.8274 30.234 65.8095 30.0429 64.9126 29.6607C64.0234 29.2785 63.2668 28.7287 62.6429 28.0111C62.0267 27.2935 61.5548 26.4239 61.2272 25.4021C60.9074 24.3803 60.7475 23.2299 60.7475 21.9507V21.0265C60.7475 19.7473 60.9152 18.5969 61.2506 17.5751C61.5938 16.5456 62.0774 15.672 62.7014 14.9544C63.3331 14.2291 64.0897 13.6753 64.9711 13.2931C65.8524 12.9109 66.8313 12.7198 67.9076 12.7198C69.3896 12.7198 70.6414 12.985 71.6632 13.5154C72.6849 14.0458 73.4766 14.775 74.0382 15.7032C74.5998 16.6236 74.9312 17.6726 75.0326 18.8504H70.9378C70.9222 18.2108 70.813 17.6765 70.6102 17.2475C70.4074 16.8108 70.0876 16.4832 69.6509 16.2648C69.2141 16.0464 68.633 15.9372 67.9076 15.9372C67.4007 15.9372 66.96 16.0308 66.5856 16.218C66.2112 16.4052 65.8992 16.7016 65.6496 17.1071C65.4 17.5127 65.2128 18.0392 65.0881 18.6866C64.9711 19.3261 64.9126 20.0983 64.9126 21.0031V21.9507C64.9126 22.8555 64.9672 23.6277 65.0764 24.2672C65.1856 24.9068 65.361 25.4294 65.6028 25.835C65.8446 26.2406 66.1566 26.5408 66.5388 26.7358C66.9288 26.923 67.4046 27.0166 67.9661 27.0166C68.5901 27.0166 69.1166 26.9191 69.5456 26.7241C69.9745 26.5213 70.306 26.2172 70.54 25.8116C70.774 25.3982 70.8988 24.8717 70.9144 24.2321ZM86.9538 24.2321H91.0486C90.994 25.4177 90.6743 26.4628 90.0893 27.3676C89.5043 28.2724 88.6931 28.9782 87.6558 29.4852C86.6262 29.9844 85.4095 30.234 84.0055 30.234C82.8668 30.234 81.8489 30.0429 80.952 29.6607C80.0628 29.2785 79.3062 28.7287 78.6823 28.0111C78.0661 27.2935 77.5942 26.4239 77.2666 25.4021C76.9468 24.3803 76.7869 23.2299 76.7869 21.9507V21.0265C76.7869 19.7473 76.9546 18.5969 77.29 17.5751C77.6332 16.5456 78.1168 15.672 78.7408 14.9544C79.3725 14.2291 80.1291 13.6753 81.0105 13.2931C81.8918 12.9109 82.8707 12.7198 83.947 12.7198C85.429 12.7198 86.6808 12.985 87.7026 13.5154C88.7243 14.0458 89.516 14.775 90.0776 15.7032C90.6392 16.6236 90.9706 17.6726 91.072 18.8504H86.9772C86.9616 18.2108 86.8524 17.6765 86.6496 17.2475C86.4468 16.8108 86.1271 16.4832 85.6903 16.2648C85.2535 16.0464 84.6724 15.9372 83.947 15.9372C83.4401 15.9372 82.9994 16.0308 82.625 16.218C82.2506 16.4052 81.9386 16.7016 81.689 17.1071C81.4394 17.5127 81.2523 18.0392 81.1275 18.6866C81.0105 19.3261 80.952 20.0983 80.952 21.0031V21.9507C80.952 22.8555 81.0066 23.6277 81.1158 24.2672C81.225 24.9068 81.4005 25.4294 81.6422 25.835C81.884 26.2406 82.196 26.5408 82.5782 26.7358C82.9682 26.923 83.444 27.0166 84.0055 27.0166C84.6295 27.0166 85.156 26.9191 85.585 26.7241C86.014 26.5213 86.3454 26.2172 86.5794 25.8116C86.8134 25.3982 86.9382 24.8717 86.9538 24.2321ZM104.865 12.9655V16.1361H96.0671V12.9655H104.865ZM107.638 12.9655V30H103.531V12.9655H107.638ZM95.7863 12.9655H99.8695L99.4249 21.6232C99.3547 22.9335 99.2221 24.0645 99.0271 25.016C98.8321 25.9598 98.5708 26.7553 98.2432 27.4027C97.9156 28.0423 97.5218 28.5532 97.0616 28.9353C96.6014 29.3175 96.0671 29.5905 95.4587 29.7543C94.8582 29.9181 94.1835 30 93.4347 30H92.4403V26.8411L92.8849 26.7943C93.2436 26.7553 93.5595 26.6578 93.8325 26.5018C94.1055 26.3381 94.3395 26.0963 94.5345 25.7765C94.7373 25.4567 94.905 25.0472 95.0376 24.548C95.1702 24.0489 95.2755 23.4444 95.3534 22.7346C95.4392 22.017 95.4977 21.1786 95.5289 20.2192L95.7863 12.9655ZM122.238 26.8411V30H113.159V26.8411H122.238ZM114.622 12.9655V30H110.515V12.9655H114.622ZM121.068 19.7278V22.7814H113.159V19.7278H121.068ZM122.273 12.9655V16.1361H113.159V12.9655H122.273ZM137.81 26.8411V30H125.841V26.8411H137.81ZM127.198 26.8411V34.1767H123.396L123.115 26.8411H127.198ZM140.606 26.8411L140.173 34.1884H136.488V26.8411H140.606ZM136.02 12.9655V16.1361H127.467V12.9655H136.02ZM138.781 12.9655V30H134.698V12.9655H138.781ZM127.198 12.9655H131.293L130.79 19.9501C130.704 21.1435 130.568 22.1808 130.381 23.0622C130.193 23.9436 129.971 24.704 129.714 25.3436C129.456 25.9832 129.175 26.533 128.871 26.9932C128.567 27.4534 128.247 27.8551 127.912 28.1983C127.584 28.5415 127.257 28.8534 126.929 29.1342C126.602 29.415 126.286 29.7036 125.982 30H123.49V26.8411H124.308C124.55 26.6695 124.792 26.4395 125.034 26.1509C125.283 25.8545 125.517 25.4528 125.736 24.9458C125.954 24.4388 126.145 23.7798 126.309 22.9686C126.473 22.1574 126.598 21.1513 126.683 19.9501L127.198 12.9655ZM147.73 23.577L151.755 12.9655H156.095L150.351 26.4784C150.133 26.9776 149.879 27.4534 149.591 27.9058C149.31 28.3582 148.974 28.7599 148.584 29.1108C148.202 29.4618 147.75 29.7387 147.227 29.9415C146.705 30.1443 146.092 30.2457 145.39 30.2457C145.219 30.2457 145.008 30.2418 144.759 30.234C144.517 30.234 144.306 30.2301 144.127 30.2223L144.057 27.04C144.158 27.0634 144.298 27.079 144.478 27.0868C144.657 27.0868 144.786 27.0868 144.864 27.0868C145.332 27.0868 145.702 27.0322 145.975 26.923C146.248 26.806 146.463 26.6344 146.619 26.4083C146.783 26.1743 146.923 25.8779 147.04 25.5191L147.73 23.577ZM145.449 12.9655L148.935 20.3596L150.269 25.0862H147.321L141.085 12.9655H145.449ZM161.687 23.7174L167.806 12.9655H171.913V30H167.806V19.2599L161.687 30H157.581V12.9655H161.687V23.7174ZM166.402 8.37931H169.105C169.105 9.08128 168.925 9.70526 168.566 10.2512C168.216 10.7894 167.716 11.2106 167.069 11.5148C166.422 11.819 165.657 11.9711 164.776 11.9711C163.442 11.9711 162.385 11.6396 161.605 10.9766C160.825 10.3058 160.435 9.44007 160.435 8.37931H163.126C163.126 8.76149 163.251 9.10468 163.501 9.40887C163.75 9.71305 164.175 9.86515 164.776 9.86515C165.376 9.86515 165.798 9.71305 166.039 9.40887C166.281 9.10468 166.402 8.76149 166.402 8.37931ZM48.3701 31.9655V49H44.2752V31.9655H48.3701ZM58.1977 31.9655L52.0788 42.2611H47.6564L47.165 38.5523H49.9612L53.2371 31.9655H58.1977ZM53.939 49L49.9495 41.5474L52.9329 38.798L58.7826 49H53.939ZM64 42.7174L70.1188 31.9655H74.2254V49H70.1188V38.2599L64 49H59.8935V31.9655H64V42.7174ZM91.3528 31.9655V49H87.2463V35.1361H81.1275V49H77.0326V31.9655H91.3528ZM101.039 43.2204H96.8042V40.0499H101.039C101.617 40.0499 102.085 39.9524 102.443 39.7574C102.802 39.5624 103.063 39.2933 103.227 38.9501C103.399 38.5991 103.485 38.2053 103.485 37.7685C103.485 37.3005 103.399 36.8676 103.227 36.4698C103.063 36.072 102.802 35.7523 102.443 35.5105C102.085 35.2609 101.617 35.1361 101.039 35.1361H98.3485V49H94.242V31.9655H101.039C102.404 31.9655 103.578 32.2151 104.561 32.7143C105.552 33.2135 106.312 33.8998 106.842 34.7734C107.373 35.6392 107.638 36.6297 107.638 37.7451C107.638 38.8448 107.373 39.8042 106.842 40.6232C106.312 41.4421 105.552 42.0817 104.561 42.5419C103.578 42.9943 102.404 43.2204 101.039 43.2204Z" fill="white"/>
<defs>
<clipPath id="clip0_12_352">
<rect width="49.0255" height="49" fill="white" transform="translate(0.0144043)"/>
</clipPath>
</defs>
</svg>
