<svg width="211" height="60" fill="none" xmlns="http://www.w3.org/2000/svg"><path d="M91.688 20.212c0 1.493-.467 2.623-1.4 3.388-.915.765-2.539 1.148-4.872 1.148H76.68V7.024h8.456c1.55 0 2.753.168 3.612.504.877.317 1.493.793 1.848 1.428.355.635.532 1.428.532 2.38 0 1.307-.317 2.324-.952 3.052-.616.71-1.783 1.139-3.5 1.288v.084c1.27.093 2.268.308 2.996.644.728.317 1.241.784 1.54 1.4.317.616.476 1.419.476 2.408zm-7.784-9.66H81.16v3.472h2.744c.915 0 1.577-.112 1.988-.336.41-.243.616-.71.616-1.4 0-.672-.205-1.13-.616-1.372-.41-.243-1.073-.364-1.988-.364zm.56 7.14H81.16v3.556h3.304c.915 0 1.577-.121 1.988-.364.41-.261.616-.737.616-1.428 0-.71-.205-1.176-.616-1.4-.41-.243-1.073-.364-1.988-.364zm14.223 7.056h-4.48V5.904h4.48v18.844zm7.848.252c-1.717 0-2.94-.457-3.668-1.372-.728-.915-1.092-2.221-1.092-3.92v-8.596h4.48l.028 7.504c0 .84.149 1.437.448 1.792.299.336.905.504 1.82.504.877 0 1.465-.15 1.764-.448.317-.317.485-.85.504-1.596v-7.756h4.48v13.636h-4.256l-.224-1.54h-.084c-.243.541-.737.98-1.484 1.316-.747.317-1.652.476-2.716.476zm24.13-.7c-.523.187-1.251.355-2.184.504-.915.13-2.007.196-3.276.196-1.606 0-2.978-.205-4.116-.616-1.12-.43-1.97-1.148-2.548-2.156-.579-1.027-.868-2.445-.868-4.256 0-2.464.56-4.247 1.68-5.348 1.138-1.101 2.893-1.652 5.264-1.652 1.698 0 3.033.243 4.004.728.989.485 1.689 1.176 2.1 2.072.429.877.644 1.923.644 3.136 0 .355-.019.737-.056 1.148-.019.41-.066.812-.14 1.204l-.112.112h-9.212c.13.821.513 1.363 1.148 1.624.653.261 1.708.392 3.164.392.97 0 1.773-.019 2.408-.056.653-.056 1.316-.13 1.988-.224l.112.084V24.3zm-3.192-7.868c0-.448-.075-.83-.224-1.148-.131-.336-.402-.588-.812-.756-.411-.187-1.018-.28-1.82-.28-1.176 0-1.951.205-2.324.616-.355.392-.532.915-.532 1.568h5.712z" fill="#1DA1F2"/><path d="M89.896 50.912v3.528a27.23 27.23 0 01-2.632.42c-.859.093-1.876.14-3.052.14-1.512 0-2.79-.13-3.836-.392-1.027-.261-1.857-.719-2.492-1.372-.616-.672-1.064-1.615-1.344-2.828-.28-1.213-.42-2.772-.42-4.676 0-1.83.14-3.332.42-4.508.28-1.176.728-2.081 1.344-2.716.635-.653 1.465-1.101 2.492-1.344 1.045-.261 2.324-.392 3.836-.392 1.176 0 2.193.047 3.052.14.859.075 1.736.215 2.632.42v3.64l-.084.056a17.522 17.522 0 00-2.268-.392c-.728-.093-1.624-.14-2.688-.14-.859 0-1.568.065-2.128.196-.541.112-.97.345-1.288.7-.317.355-.541.877-.672 1.568-.112.69-.168 1.615-.168 2.772 0 1.213.056 2.193.168 2.94.13.728.355 1.279.672 1.652.317.373.747.625 1.288.756.56.13 1.27.196 2.128.196 1.045 0 1.932-.028 2.66-.084a15.645 15.645 0 002.24-.392l.14.112zm6.85 3.836h-4.48V35.932h4.48v7.672h.084c.261-.84.737-1.484 1.428-1.932.71-.467 1.633-.7 2.772-.7 1.083 0 1.969.177 2.66.532.709.355 1.232.98 1.568 1.876.355.877.532 2.119.532 3.724v7.644h-4.48l-.028-6.776c0-1.045-.159-1.792-.476-2.24-.317-.448-.915-.672-1.792-.672-.784 0-1.353.205-1.708.616-.355.41-.541 1.101-.56 2.072v7zm16.318-18.704c.056.672.084 1.232.084 1.68 0 .261-.009.532-.028.812 0 .261-.018.56-.056.896a13.2 13.2 0 01-1.148.168 11.005 11.005 0 01-3.304-.168 20.197 20.197 0 01-.084-.868c-.018-.28-.028-.55-.028-.812 0-.243.01-.504.028-.784.019-.28.047-.588.084-.924a5.82 5.82 0 011.12-.168c.392-.037.775-.056 1.148-.056.355 0 .71.019 1.064.056.374.019.747.075 1.12.168zm0 18.704h-4.48V41.112h4.48v13.636zm13.712-3.948v3.64c-.466.187-1.157.327-2.072.42-.914.093-1.885.14-2.912.14-1.474 0-2.706-.205-3.696-.616-.97-.41-1.698-1.12-2.184-2.128-.466-1.008-.709-2.408-.728-4.2 0-1.848.252-3.285.756-4.312.523-1.027 1.279-1.745 2.268-2.156.99-.41 2.175-.616 3.556-.616.822 0 1.69.056 2.604.168.915.112 1.662.261 2.24.448l.028 3.752-.084.056a16.565 16.565 0 00-1.792-.252 21.327 21.327 0 00-1.876-.084c-1.25 0-2.118.233-2.604.7-.485.467-.728 1.25-.728 2.352 0 .84.103 1.465.308 1.876.206.41.551.681 1.036.812.486.13 1.148.196 1.988.196.654 0 1.279-.028 1.876-.084.598-.056 1.232-.121 1.904-.196l.112.084zm6.993 3.948h-4.48V35.904h4.48V46.88h.056l3.528-5.768h4.928v.112l-4.144 6.44v.112l4.816 6.972h-5.152l-3.948-6.3-.084-.028v6.328zm22.571-.448c-.522.187-1.25.355-2.184.504-.914.13-2.006.196-3.276.196-1.605 0-2.977-.205-4.116-.616-1.12-.43-1.969-1.148-2.548-2.156-.578-1.027-.868-2.445-.868-4.256 0-2.464.56-4.247 1.68-5.348 1.139-1.101 2.894-1.652 5.264-1.652 1.699 0 3.034.243 4.004.728.99.485 1.69 1.176 2.1 2.072.43.877.644 1.923.644 3.136 0 .355-.018.737-.056 1.148-.018.41-.065.812-.14 1.204l-.112.112h-9.212c.131.821.514 1.363 1.148 1.624.654.261 1.708.392 3.164.392.971 0 1.774-.019 2.408-.056.654-.056 1.316-.13 1.988-.224l.112.084V54.3zm-3.192-7.868c0-.448-.074-.83-.224-1.148-.13-.336-.401-.588-.812-.756-.41-.187-1.017-.28-1.82-.28-1.176 0-1.95.205-2.324.616-.354.392-.532.915-.532 1.568h5.712zm10.754 8.316h-4.48V41.112h4.256l.224 2.492h.084c.262-.84.728-1.484 1.4-1.932.672-.467 1.606-.7 2.8-.7 1.624 0 2.819.457 3.584 1.372.784.915 1.176 2.501 1.176 4.76v7.644h-4.48l-.028-6.776c0-1.045-.158-1.792-.476-2.24-.317-.448-.914-.672-1.792-.672-.821 0-1.4.205-1.736.616-.336.392-.513 1.073-.532 2.044v7.028z" fill="#111"/><g clip-path="url(#clip0_22_412)"><path d="M60.547 34.322c.56 5.27-.927 10.57-4.194 14.739-3.56 4.538-8.723 7.21-14.343 8.208-6.458 1.145-13.288.792-19.764-.019-5.37-.676-11.036-1.807-15.328-5.343-8.71-7.174-8.933-22.111-2.142-30.56 2.185-2.718 5.077-4.891 8.326-6.144-.259-1.624.479-3.249 1.793-4.255a4.39 4.39 0 012.02-.883c1.046-.156 1.963.314 2.99.301 1.981-.024 1.618-1.441 2.405-2.624.268-.402.628-.685 1.115-.777 2.252-.411 3.834 3.761 5.84 1.283 1.143-1.408 1.024-3.593 2.575-4.733 1.17-.863 2.707-.564 3.782.31 1.39 1.135 1.695 2.982 1.716 4.68a35.278 35.278 0 01-.612 6.979c-.034.17-.067.356-.101.557 11.606-1.798 22.67 6.526 23.922 18.28zm-2.115 8.564a19.39 19.39 0 00.542-11.368c-2.502-9.933-12.55-16.056-22.538-14.444-.271 1.387-.704 2.966-1.627 3.655-1.049.783-2.25.085-3.079-.747-.091.034-.198.021-.292-.073-4.03-4.078-10.229-5.782-15.788-4.413-5.388 1.326-9.923 5.233-12.361 10.176C.878 30.555.549 36.324 1.935 41.554c.299-.344.79-.515 1.244-.698a14.677 14.677 0 014.175-.99c2.28-.198 4.76.164 6.486 1.798 3.98 3.773.216 8.71-2.95 11.511.472.244.954.473 1.457.68 4.989 2.039 10.633 2.57 15.964 2.865 5.568.31 11.414.35 16.796-1.292a21.115 21.115 0 004.34-1.884c-1.935-.759-3.962-2.081-4.776-4.047-.759-1.847-.317-3.999.86-5.572 2.807-3.752 9.344-3.65 12.9-1.039zm-.4 1.012c-1.96-.518-3.602-1.497-5.696-1.6-1.847-.092-3.889.405-5.254 1.716-1.47 1.408-2.088 3.645-1.103 5.498.88 1.655 2.618 2.462 4.078 3.505.04.027.07.064.094.1 3.55-2.234 6.294-5.47 7.882-9.22zM35.928 14.975c.384-2.259.677-4.679.558-6.977-.073-1.45-.427-3.032-1.786-3.819-1.716-.993-2.92.247-3.511 1.768-.485 1.247-.805 2.66-1.945 3.508-1.103.82-2.261.533-3.267-.292-.424-.351-1.28-1.396-1.822-1.341-.875.088-1.32.798-1.552 1.499-.192.573-.396 1.11-.899 1.481-1.161.863-2.676.116-3.947.055-2.319-.116-3.934 1.92-3.895 4.072a17.308 17.308 0 014.136-.86c5.008-.402 9.954 1.363 13.444 4.95.423.302.853.597 1.28.896a.31.31 0 01.143.216c1.375.418 1.969-.847 2.295-1.892.332-1.067.582-2.161.768-3.264zM9.76 52.54c2.508-2.243 6.242-5.818 3.782-9.39-1.137-1.652-3.236-2.24-5.141-2.298-.656-.018-6.285.296-6.13 1.524a.165.165 0 01-.057.14c1.329 4.282 3.864 7.76 7.546 10.024z" fill="#000072"/><path d="M58.974 31.518a19.39 19.39 0 01-.542 11.368c-3.557-2.612-10.094-2.712-12.901 1.04-1.177 1.572-1.619 3.724-.86 5.57.814 1.966 2.84 3.29 4.776 4.048a21.116 21.116 0 01-4.34 1.884C39.725 57.07 33.879 57.03 28.31 56.72c-5.33-.296-10.975-.826-15.964-2.865a18.708 18.708 0 01-1.457-.68c3.166-2.8 6.93-7.738 2.95-11.511-1.725-1.634-4.206-1.996-6.486-1.798a14.67 14.67 0 00-4.175.99c-.454.183-.945.354-1.244.698-1.386-5.23-1.057-11 1.354-15.882 2.438-4.943 6.973-8.85 12.361-10.176 5.56-1.369 11.759.335 15.788 4.413.094.095.2.107.292.073.83.832 2.03 1.53 3.079.747.923-.689 1.356-2.268 1.627-3.654 9.988-1.613 20.036 4.51 22.538 14.443zM47.6 36.258c3.295-.796 8.842-3.052 8.028-7.389-.284-1.511-1.411-2.578-2.95-2.73-1.555-.153-2.823.621-3.798 1.713-1.585-2.585-5.711-3.13-7.235.042-.826 1.72.454 3.6 1.487 4.928.866 1.11 2.2 2.399 3.682 2.603-.1.418.231.966.786.832zm-10.765.64c.323-.449-.113-1.11-.627-1.095-4.14.137-8.284.357-12.39.908-.036-.018-.067-.04-.103-.054-.729-.345-1.299.618-.631 1.078 2.968 2.045 4.514 5.221 6.985 7.748.317.323.841.228 1.073-.137a154.438 154.438 0 015.693-8.449zm-19.487-.824c2.405-1.764 8.067-4.849 5.882-8.71-1.725-3.042-5.48-1.058-6.882 1.347-1.932-1.987-6.421-2.155-7.351.783-1.259 3.978 4.358 6.73 7.546 6.55a.361.361 0 00.116-.027c.168.18.424.25.689.057z" fill="#1DA1F2"/><path d="M55.628 28.87c.814 4.336-4.733 6.592-8.028 7.387-.555.134-.887-.414-.786-.832-1.481-.204-2.816-1.493-3.682-2.603-1.033-1.328-2.313-3.209-1.487-4.928 1.524-3.173 5.65-2.627 7.235-.042.975-1.092 2.243-1.866 3.798-1.713 1.539.152 2.666 1.219 2.95 2.73zM54.1 31.185c.625-1.158.643-2.899-.65-3.636-1.633-.927-3.318.43-4.2 1.688-.286.406-.904.36-1.06-.14-1.13-3.602-7-2.255-5.105 1.439.482.935 1.08 1.837 1.805 2.602.783.83 1.712 1.22 2.654 1.805 2.344-.543 5.358-1.546 6.556-3.758z" fill="#000072"/><path d="M52.336 42.298c2.094.103 3.737 1.082 5.697 1.6-1.588 3.749-4.331 6.985-7.882 9.22a.369.369 0 00-.095-.101c-1.46-1.042-3.197-1.85-4.077-3.505-.985-1.853-.366-4.09 1.103-5.498 1.365-1.31 3.407-1.808 5.254-1.716z" fill="#FACCE3"/><path d="M53.452 27.55c1.292.737 1.274 2.478.649 3.636-1.198 2.212-4.212 3.215-6.556 3.758-.942-.586-1.871-.976-2.654-1.805-.726-.765-1.323-1.667-1.805-2.602-1.895-3.694 3.975-5.041 5.105-1.439.156.5.774.546 1.06.14.882-1.258 2.567-2.615 4.2-1.688z" fill="#FF2247"/><path d="M36.208 35.803c.514-.015.95.646.627 1.094a154.438 154.438 0 00-5.693 8.449c-.232.365-.756.46-1.073.137-2.471-2.527-4.017-5.702-6.985-7.748-.668-.46-.098-1.423.63-1.078.037.015.068.036.104.054 4.106-.551 8.25-.77 12.39-.908zm-5.755 8.08a183.546 183.546 0 014.331-6.568c-3.163.134-6.33.29-9.497.344 2.067 1.664 3.435 4.221 5.166 6.224z" fill="#000072"/><path d="M36.485 7.998c.119 2.298-.174 4.718-.558 6.977a24.884 24.884 0 01-.768 3.264c-.326 1.045-.92 2.31-2.295 1.892a.31.31 0 00-.143-.216c-.427-.299-.857-.594-1.28-.896-3.49-3.587-8.436-5.352-13.444-4.95-1.417.113-2.8.412-4.136.86-.04-2.152 1.576-4.188 3.895-4.072 1.271.061 2.786.808 3.947-.055.503-.371.707-.908.9-1.48.23-.702.676-1.412 1.55-1.5.543-.055 1.4.99 1.823 1.34 1.006.827 2.164 1.113 3.267.293 1.14-.847 1.46-2.261 1.945-3.508.591-1.52 1.795-2.761 3.51-1.768 1.36.787 1.714 2.369 1.787 3.82z" fill="#FF2247"/><path d="M34.784 37.315a183.546 183.546 0 00-4.33 6.568c-1.732-2.003-3.1-4.56-5.167-6.224 3.167-.055 6.334-.21 9.497-.344z" fill="#F39200"/><path d="M23.23 27.364c2.185 3.861-3.477 6.946-5.882 8.71-.265.192-.521.122-.689-.057a.361.361 0 01-.116.027c-3.188.18-8.805-2.572-7.546-6.55.93-2.938 5.419-2.77 7.351-.783 1.402-2.405 5.157-4.389 6.882-1.347zm-.86 2.347c.418-1.86-1.023-3.085-2.864-2.506-1.326.418-2.192 1.527-2.472 2.86-.104.49-.841.57-1.07.14-1.353-2.527-7.208-2.055-5.602 1.475 1.04 2.282 3.944 3.072 6.148 3.639a.656.656 0 01.222-.293c1.792-1.31 5.108-2.947 5.639-5.315z" fill="#000072"/><path d="M19.506 27.205c1.84-.579 3.282.647 2.865 2.506-.53 2.368-3.847 4.004-5.639 5.315a.655.655 0 00-.222.292c-2.204-.566-5.108-1.356-6.148-3.638-1.606-3.53 4.249-4.002 5.602-1.476.229.43.966.35 1.07-.14.28-1.332 1.146-2.441 2.472-2.859z" fill="#FF2247"/><path d="M13.541 43.151c2.46 3.572-1.274 7.147-3.782 9.39-3.682-2.264-6.218-5.742-7.546-10.024a.165.165 0 00.058-.14c-.156-1.228 5.473-1.542 6.129-1.524 1.905.058 4.004.646 5.141 2.298z" fill="#FACCE3"/></g><g clip-path="url(#clip1_22_412)"><path d="M134.377 17.134c-.927-5.387-5.176-8.453-9.754-8.254a1.18 1.18 0 01-.372-.042 1.23 1.23 0 01-.831-1.576c2.074-6.098 8.364-6.081 6.2-2.12 4.656-1.73 12.053 2.63 7.234 4.388 4.063 2.273 4.121 5.56 1.341 4.786a9.911 9.911 0 01.57.616c3.297 3.874.374 6.895-4.388 2.202z" fill="#FF2247"/><path d="M130.009 4.166c-.753-1.62-4.871-.594-6.501 4.08a1.215 1.215 0 01-.088-.984c1.887-5.547 7.261-6.034 6.589-3.096zm8.31 4.298c-.911-1.75-5.04-3.63-8.653-2.398l-1.098.378c-.256.088-.442-.252-.227-.418.904-.698 1.771-1.041 1.771-1.041 3.849-1.053 9.112 1.575 8.207 3.48z" fill="#fff" opacity=".55"/><path d="M136.421 19.193c-.705-.4-1.478-.989-2.3-1.799a.361.361 0 01-.104-.198c-.841-4.885-4.697-8.154-9.378-7.95a1.577 1.577 0 01-1.329-.632 1.593 1.593 0 01-.235-1.47c1.081-3.178 3.327-4.847 5.073-5.09.891-.124 1.621.124 2.006.68.201.291.438.879.12 1.832 2.65-.614 5.829.322 7.471 1.687.783.65 1.136 1.342 1.022 2-.091.528-.468.972-1.123 1.326 2.331 1.506 3.159 3.336 2.727 4.386-.205.497-.647.78-1.246.825 1.698 2.036 1.698 3.76.893 4.572-.672.678-1.95.767-3.597-.169zm-1.705-2.238c2.229 2.163 4.089 2.594 4.783 1.893.657-.663.333-2.386-1.561-4.273a.364.364 0 01.355-.61c.348.096 1.18.262 1.403-.279.29-.704-.47-2.41-3.02-3.837a.374.374 0 01-.185-.348.364.364 0 01.238-.313c.793-.29 1.248-.656 1.319-1.06.066-.38-.208-.847-.769-1.314-1.658-1.377-5.08-2.24-7.532-1.33a.365.365 0 01-.448-.517c.43-.787.52-1.433.254-1.818-.221-.32-.697-.456-1.304-.372-1.525.213-3.502 1.718-4.483 4.602a.85.85 0 00.129.796.835.835 0 00.712.341c5.022-.218 9.162 3.246 10.109 8.439z" fill="#000072"/><path d="M134.377 17.134c-.56-3.254-2.333-5.662-4.658-7.014 1.936.402 5.145 1.418 5.782 4.135.905 4.013 4.784 3.977 3.264.677 3.297 3.874.374 6.895-4.388 2.202zm3.818-2.818s-1.052-1.35-2.434-2.275c1.161-.565 3.563 2.198 4.091.314 0 0 .898 2.484-1.657 1.96zm-1.341-4.786s-1.254-.765-2.95-.553c.736-1.77 4.78.391 4.074-2.062 0 0 1.024 1.607-1.124 2.615z" fill="#000072" opacity=".3"/></g><defs><clipPath id="clip0_22_412"><path fill="#fff" transform="translate(0 3)" d="M0 0h60.663v55H0z"/></clipPath><clipPath id="clip1_22_412"><path fill="#fff" transform="rotate(29.594 63.463 240.247)" d="M0 0h21.003v12H0z"/></clipPath></defs></svg>