<svg width="154" height="124" fill="none" xmlns="http://www.w3.org/2000/svg"><g opacity=".4" clip-path="url(#clip0_82_73)" fill="#B89577"><path d="M154 64.55c-.529 6.909-1.024 13.85-1.586 20.76-.33 4.013-1.057 7.961-2.444 11.745-.991 2.73-2.246 5.33-3.931 7.698-2.279 3.159-4.559 6.35-6.937 9.41-2.51 3.224-5.682 5.757-9.447 7.304-3.337 1.381-6.805 2.5-10.505 2.566-1.552.033-3.138-.165-4.658-.461-2.213-.427-4.393-1.02-6.573-1.579-.463-.132-.925-.263-1.387-.461-3.172-1.513-6.178-3.29-8.721-5.757a9.494 9.494 0 01-2.313-3.487 214.146 214.146 0 01-2.345-6.449c-.66-1.875-1.288-3.816-1.982-5.659-2.08-5.395-2.84-10.955-2.543-16.746.396-7.896 2.147-15.463 4.723-22.898 1.817-5.231 4.526-9.903 8.622-13.752 1.189-1.119 2.279-2.37 3.468-3.52 1.091-1.02 2.181-2.008 3.403-2.896 2.642-1.908 5.516-3.454 8.555-4.672a17.527 17.527 0 016.211-1.349 44.056 44.056 0 003.6-.23 14.309 14.309 0 016.772.757c3.303 1.184 6.474 2.632 9.117 5.066 4.063 3.751 7.73 7.732 9.249 13.26.958 3.684 1.586 7.467 1.652 11.35zm-32.604 51.357c.298-.066.628-.165.991-.198.859-.066 1.421-.526 1.949-1.217.958-1.283 2.048-2.468 3.105-3.685.925-1.053 1.949-2.04 2.808-3.125 1.553-1.942 3.039-3.948 4.526-5.922 1.354-1.81 2.609-3.652 3.336-5.824.198-.592.297-1.151-.066-1.71-.495-.79-.297-1.481.165-2.238.364-.592.628-1.283.859-1.94.429-1.251.562-2.567.529-3.916-.033-3.125.429-6.152 1.684-9.047.529-1.185.76-2.534 1.024-3.817.232-1.02-.132-1.875-1.057-2.5-1.057-.724-1.222-1.415-.33-2.237 1.255-1.218 1.85-2.665 2.213-4.31.033-.198.231-.362.363-.56.826 1.612.43 4.179-.858 5.922 1.717 1.711 2.015 2.435 1.949 5.001a7.85 7.85 0 01-.166 1.546c-.561 3.159-1.156 6.284-1.189 9.541-.033 2.929-1.09 5.593-3.501 7.502-.099.066-.132.197-.232.329 1.652 2.994.595 5.889-.528 8.751.562.855.628.888.528 1.908-.165 1.481-.429 2.928-.66 4.409-.066.428-.165.855-.264 1.283.66-.494 1.09-1.02 1.123-1.81.165-2.171.297-4.309.561-6.481.198-1.678.463-3.323.76-5 .099-.527.363-1.02.562-1.547a2.7 2.7 0 00.462.165c.099.032.198 0 .297 0 .232-3.62.265-3.817 1.057-4.606.496.46.628 1.118.727 1.743.397 2.336.396 4.705.132 7.074-.132.987-.231 2.007-.363 2.994a.962.962 0 00.297.065c.198-.427.43-.822.529-1.25a8.139 8.139 0 00.198-1.776c-.033-2.139-.132-4.244-.165-6.383l-.099-6.843c0-.23.132-.46.33-.987.462 1.151.826 2.007 1.189 2.895.099-.395.033-.757.033-1.086-.099-1.875-.495-3.75-.132-5.626.099-.592.165-1.217.991-1.217-.033-.428-.099-.724-.099-1.053-.033-1.48-.066-2.96-.033-4.441 0-.724.099-1.415.958-1.678-.066-.395-.165-.724-.198-1.02a221.533 221.533 0 01-.265-4.672c-.033-.493.1-1.02.033-1.513-.198-1.908-.462-3.816-.66-5.725-.033-.329.033-.658.099-1.053.33.23.528.33.793.527-.199-1.119-.298-2.106-.562-3.06-.264-.987-.727-1.94-1.024-2.928-.297-.921-.958-1.71-1.024-2.928 2.577 1.119 3.105 3.685 4.691 5.593-.066-.395-.099-.625-.132-.822-1.024-3.981-3.172-7.337-5.55-10.594-2.51-3.488-5.814-5.824-9.877-7.172a12.3 12.3 0 00-3.27-.593c.892.757 1.751 1.316 2.411 2.073 1.784 2.106 3.634 4.178 5.682 6.054.429.394.793.79 1.189 1.184 1.09 1.119 1.85 2.402 2.246 3.915.694 2.665.793 5.396.727 8.126 0 .494-.132.955-.231 1.448h-.297c-.132-.428-.298-.888-.364-1.316-.495-2.369-.826-4.738-1.486-7.04-.859-3.126-2.445-5.824-5.319-7.633-.528-.33-1.024-.79-1.519-1.185-1.553-1.151-3.072-2.336-4.625-3.454-1.156-.823-2.51-1.02-3.898-1.218-.165-.032-.429 0-.561.132-1.156.888-2.379 1.678-3.403 2.665-1.189 1.118-1.255 2.467-.495 3.882.495.921.859 1.875.958 2.961.132 1.415.396 1.678 1.817 1.875.264-.164.693-.164 1.09-.197 1.057-.033 2.081-.132 3.138-.164.826-.033 1.619.032 2.544.625-.463.098-.628.131-.826.197-1.751.428-3.535.822-5.253 1.349-1.684.526-2.114 1.217-1.915 2.994.165 1.546-.1 2.96-.859 4.277-.265.46-.496.921-.694 1.382-.628 1.381-.793 2.763-.264 4.21.594 1.646 1.255 3.29 1.883 4.936.066.197.231.329.429.592.132-2.435-.793-4.77.165-7.04.231.361.397.723.397 1.118.132 2.533.231 5.034.363 7.567.033.46.099.954.264 1.349.43 1.02 1.156 1.842 2.048 2.467.694.494 1.355 1.02 2.015 1.547.265.23.562.46.298 1.02-1.454-.691-2.742-1.547-4.03-2.37-1.322-.855-2.577-1.874-3.766-2.796-.628 1.218-1.255 2.5-1.916 3.784-.859 1.579-1.057 3.158-.397 4.869.76 1.908.892 3.882.496 5.922-.165.79-.264 1.58-.396 2.369-.397 2.763-.892 5.56-1.157 8.323-.264 2.632-.363 5.297-.462 7.929-.033 1.185.033 2.402.132 3.586.066.527.231 1.119.562 1.547 1.156 1.711 2.444 3.323 3.732 5.001zm-16.483-4.87v-.822c-.033-1.316-.165-2.665-.099-3.981.066-1.217.33-2.435.561-3.652.033-.197.397-.461.595-.461.165 0 .462.329.495.56.133.559.166 1.118.166 1.678.033 2.401 0 4.803 0 7.205 1.09 1.053 2.444 1.809 3.964 2.336 1.783.658 3.039 1.875 3.798 3.652.331.822.793 1.579 1.289 2.303.198.296.594.592.925.658 1.42.296 2.84.197 4.327-.066-.132-.198-.165-.296-.231-.395-2.445-2.764-4.922-5.527-7.367-8.291-1.883-2.138-3.138-4.54-3.336-7.435-.033-.494-.132-.954-.198-1.415l-2.081-11.844c-.099-.526-.066-1.053-.099-1.58.066-.032.165-.032.231-.065.297.33.594.691 1.057 1.184-.496-2.73-1.718-5.066-1.586-7.698 1.256 1.678 1.85 3.619 2.445 5.56.594 1.941 1.09 3.915 1.618 5.856.099 0 .166-.033.265-.033-.166-1.382-.199-2.796-.529-4.145-.727-3.191-1.619-6.383-2.411-9.574-.265-1.02-.397-2.04-.529-3.093-.066-.394-.165-.855.297-1.217 1.058 1.152 1.289 2.6 1.784 3.948.496 1.349.925 2.698 1.388 4.047.066-.033.165-.033.231-.066-.132-.757-.198-1.546-.43-2.303-.759-2.468-.693-4.836.694-7.074.231-.361.231-.69.132-1.118-.297-1.152-.561-2.336-.66-3.52-.166-1.547-.133-3.126-.232-4.672-.099-1.448-.66-2.73-1.354-3.948-.595-1.02-1.619-1.316-2.709-.856a3.108 3.108 0 00-1.09.757c-.594.625-1.123 1.382-1.718 2.007-.759.79-.825 1.58-.33 2.566.364.757.496 1.678.562 2.566.099 1.283.033 2.567.066 3.85 0 .724.099 1.447.066 2.171-.033.362-.33.691-.628 1.283.066.592.165 1.514.231 2.435.033.921.397 1.842-.033 2.763-.627-.065-.693-.493-.759-.888a184.011 184.011 0 01-.562-4.277c-.099-.69.066-1.25.826-1.382-.198-1.776-.363-3.454-.595-5.132-.264-1.941-1.85-2.961-3.666-2.435-2.247.658-6.178 4.77-6.74 7.04-.032.198-.098.396-.131.593-.793 4.08-1.123 8.192-1.057 12.338.066 3.224.693 6.382 1.684 9.442.034.099.133.197.298.526.43-3.125.892-5.987 2.774-8.356.1.658.067 1.283 0 1.908-.264 3.915-.561 7.83-.825 11.745-.066.823.23 1.579.825 2.336.1-6.185 1.62-12.798 3.436-14.673.066.395.165.69.132.987-.132.92-.264 1.842-.462 2.73-.991 4.574-1.289 9.212-1.52 13.851-.066 1.053.033 1.185.859 1.547.099-1.81.099-3.652.297-5.462.264-2.698 1.057-5.264 2.18-7.731.199-.428.331-.987 1.124-1.152-.1 2.73-.925 5.198-1.157 7.797-.231 2.632-.693 5.199-.891 7.896.792.165 1.453.297 2.213.494-.066-.724-.033-1.316-.132-1.842-.331-1.942-.265-3.85.099-5.758.231-1.283.66-2.566 1.024-3.816.132-.428.33-.922 1.024-.856.066.296.165.593.132.856-.132 2.763-.297 5.527-.43 8.29-.066.889-.165 1.744-.231 2.632-.198.56.033.823.694.691zm8.093-70.57c-2.213 1.151-4.162 2.369-5.814 3.98-1.685 1.679-3.369 3.324-4.955 5.1-1.024 1.152-1.85 2.5-2.775 3.784-.363.493-.363.987-.099 1.579.76 1.777 1.421 3.553 2.181 5.33.462 1.118.991 2.237 1.552 3.52.496-.757.859-1.316 1.156-1.744-.297-1.052-.594-1.974-.826-2.895-.066-.263-.099-.592 0-.822.1-.23.364-.428.562-.494.132-.033.396.23.462.428.133.428.166.855.265 1.283.099.494.099.987.33 1.349 1.024-.658 1.949-1.316 2.94-1.81 1.123-.526 2.279-.065 3.369.264.562-1.514.529-1.547-.528-2.5a6.76 6.76 0 00-2.577-1.481c-1.123-.362-1.916-1.152-2.543-2.106-.165-.263-.199-.724-.066-.987.198-.428.66-.428 1.057-.263.396.164.826.362 1.156.625.892.625 1.718 1.316 2.576 1.974.496.395.991.822 1.751.658.066-.197.132-.395.132-.592.033-.23 0-.494-.033-.724-.462-2.6-.099-5.132.826-7.567.76-1.974-.066-3.784-.099-5.89zm7.961 10.43c-1.288-1.054-1.52-1.58-1.42-2.995.033-.296.066-.559.099-.822.099-.856-.099-1.645-.562-2.5-1.718 2.73-2.114 5.724-2.643 8.685.397-.329.694-.724 1.091-1.086.198-.197.627-.427.792-.362.265.165.463.527.496.823.033.46-.066.954-.165 1.415-.397 2.204-1.09 4.342-1.982 6.415-.463 1.053-.76 2.172-1.123 3.257.066.033.165.066.231.099.198-.46.396-.921.66-1.349.265-.428.298-1.086 1.057-1.283-.198 1.151-.363 2.204-.594 3.257-.397 1.875-.958 3.75-1.255 5.626-.331 1.908-.727 3.783-1.421 5.593-.132.329-.264.724-.231 1.053.198 1.678.429 3.356.694 5.297.693-.856 1.189-1.48 1.651-2.04.199-1.415.298-2.764.562-4.08.231-1.151.594-2.237.925-3.356.892-3.092 1.288-6.185.462-9.376a5.227 5.227 0 01-.066-2.369c.298-1.447.826-2.83 1.222-4.244.199-.658.463-1.316.496-1.974.066-1.349.231-2.6 1.024-3.685zm-4.393 31.221c-.562 1.053-.991 2.04-1.553 2.928-1.321 2.106-2.114 4.409-2.477 6.844-.364 2.467-.661 4.935-.991 7.37-.397 3.158.924 5.757 2.906 8.06 0-.527-.099-1.02-.165-1.514-.627-3.981-.165-7.929.265-11.877.33-2.928 1.123-5.823 1.717-8.718.198-.954.43-1.941.298-3.093zM98.372 55.831c-1.882 4.113-3.138 8.39-4.162 12.765 1.817-1.414 3.568-2.862 5.88-3.553-1.057-1.81-1.19-3.652-1.024-5.56.1-1.25 0-2.467-.694-3.652zm31.613 57.246c-1.09.658-1.85 1.448-2.544 2.303-1.255 1.514-2.642 2.797-4.69 3.06v1.941c2.015-.526 4.03-.921 5.913-1.678.297-.132.561-.296.858-.461.364-.197.496-.46.496-.888-.066-1.349-.033-2.763-.033-4.277zm-8.49-76.032c-2.576.593-4.921 1.58-7.234 2.797.132.395.231.69.364.987.396.888.396.888 1.354.69.826-.164 1.652-.295 2.477-.526.364-.098.793-.296.991-.559.694-1.086 1.322-2.171 2.048-3.389zm16.517 67.478c-.066-.033-.099-.033-.165-.066-1.09 1.514-2.18 3.027-3.237 4.573-.166.264-.133.658-.133 1.02-.033 1.119 0 2.205-.033 3.323 0 .329-.066.658-.132 1.086 1.322-.823 1.553-1.119 1.85-2.27.33-1.448.694-2.862 1.024-4.31.297-1.119.562-2.237.826-3.356zm-6.508 12.206c.859-.461.925-.428.958-.954.166-1.579.298-3.126.463-4.836a55.135 55.135 0 00-1.949 1.48c.165 1.481.33 2.862.528 4.31zm9.943-10.857c.066.033.166.066.232.099.33-.461.66-.921.859-1.185-.067-.658-.133-1.085-.133-1.48v-3.093h-.033c-.33 1.843-.627 3.751-.925 5.659zm-31.183-10.758h-.297c.099 1.151.231 2.336.33 3.487.793-1.217.099-2.336-.033-3.487zm6.376-51.686c-.628.099-1.024.197-1.487.263.165.56.297.954.496 1.612.396-.724.627-1.184.991-1.875zm33.528 24.148c.165.856.364 1.678.529 2.534.462-.987.231-1.81-.529-2.534zm-3.039 27.801h.198l-.099-1.81h-.099v1.81z"/><path d="M137.351 69.057c1.256 1.217.892 2.96 1.388 4.474.462-.658 0-1.645 1.057-2.04.099.362.264.691.297.987.033 1.382.033 2.797.066 4.212 0 .625-.33.79-.859.92-.528.133-.892-.032-1.057-.525-.76-1.974-1.519-3.948-1.684-6.087-.033-.658-.133-1.48.792-1.941zm-8.555 4.869c-.628.165-1.123 0-1.355-.625-.594-1.645-.958-3.323-.693-5.067.033-.131.132-.263.297-.625.264.362.496.56.562.79.165.69.198 1.415.33 2.138.132.823.099 1.678.628 2.5.165-1.743-.793-3.487.528-5 .661.263.661.823.727 1.25.297 2.073.528 4.113.793 6.185.066.428.297 1.053-.397 1.185-.66.099-.693-.526-.859-.954-.198-.56-.363-1.119-.561-1.777zm-5.319-28.623c-.198.889.199 1.81-.495 2.566-.562-.888-.793-2.895-.595-5.066.066-.724.066-.724.628-1.35.429.494.429.494.595 1.58.132-.099.231-.197.33-.263s.198-.099.429-.23c.133.296.331.592.331.855-.033 1.678-.099 3.389-.265 5.165-.891-.592-.891-.625-.958-3.257zm12.718 31.551c-.198-.296-.429-.526-.495-.79-.562-2.335-1.156-4.671-1.652-7.007-.165-.79-.297-1.645.297-2.533.199.263.463.427.529.625.297.954.594 1.908.76 2.895.33 1.777.594 3.553.891 5.33.067.46.232.954-.33 1.48zM125.36 63.628c.199.362.397.56.43.757.231 2.961.429 5.922.627 8.883 0 .132-.165.263-.297.494-.925-.724-.859-1.744-.991-2.6-.297-2.434-1.189-4.934.231-7.534zm-2.51 30.894c.198.526.363.855.429 1.217.364 2.27.727 4.573 1.057 6.843.033.197-.099.526-.231.559-.165.066-.495-.033-.628-.164-.231-.263-.429-.592-.495-.954-.363-1.711-.727-3.422-.991-5.166-.132-1.02.132-1.546.859-2.335zm-2.742.986c.231.724.463 1.218.529 1.744.33 2.04.627 4.113.958 6.153.033.164.066.329.033.46-.066.165-.199.362-.331.428-.099.033-.33-.066-.396-.165-.165-.263-.33-.559-.397-.855-.396-1.777-.825-3.586-1.123-5.396-.198-.756-.231-1.579.727-2.368zm13.048-20.463c-.099-.264-.231-.56-.264-.823-.397-2.237-.76-4.507-1.123-6.744-.066-.395-.099-.79-.033-1.185.033-.23.297-.427.462-.625.198.165.463.263.595.494.132.197.198.46.198.69.264 2.304.529 4.607.76 6.91.033.427-.099.888-.165 1.316-.166-.033-.298-.033-.43-.033zm-9.15 19.937c.099-.56-.165-1.283.529-1.382.726-.098.693.658.825 1.119.232.888.364 1.81.628 2.698.264.954.661 1.875.958 2.829.066.198-.066.428-.099.625-.198-.066-.43-.098-.628-.164a.338.338 0 01-.165-.198c-.892-1.776-1.784-3.586-2.048-5.527zm12.222-40.072c-1.42-.132-3.27-1.875-3.303-3.027 0-.263.165-.658.363-.79.198-.098.595.033.859.132.165.066.264.296.397.428.66.69 1.321 1.349 1.948 2.072.166.198.364.56.298.79-.066.23-.463.362-.562.395zm-9.745 40.368c.133-.197.232-.559.463-.658.429-.197.661.165.826.494.132.296.264.592.363.888.363 1.02.727 2.04 1.024 3.06.066.197-.033.428-.033.658-.231-.066-.628-.033-.727-.198-.892-1.25-1.552-2.599-1.916-4.244zm5.385 2.172c-1.09-.593-1.883-1.382-2.577-2.303-.099-.132-.132-.362-.132-.56 0-.427.463-.69.727-.362.76.922 1.453 1.876 2.147 2.83.033.033-.033.131-.165.395zm-1.222-49.646c-.859.098-1.057-.46-1.256-.954-.462-1.053-.429-1.711.099-2.468.793.33.43 1.086.595 1.645.198.526.363 1.086.562 1.777zm-3.072-.724c-1.19-.79-1.619-2.698-.958-3.75.462.591.627 1.25.958 3.75zm5.417 47.738c.76.032 1.354.131 1.817.625-.958.592-1.454.427-1.817-.625zm-.033 1.447c-.991-.296-1.123-.493-.958-1.513.859.197.628 1.053.958 1.513zm-1.288-50.699c.132.296.231.593.396.987-.628-.329-.628-.329-.396-.987zm-29.235 34.249c-.198.297-.33.626-.495.658-.198 0-.529-.197-.628-.427-.297-.658-.495-1.35-.759-2.007-.43-1.218-.892-2.402-1.289-3.62-.132-.394-.33-.92.198-1.184.529-.263.826.264.958.626a308.152 308.152 0 012.015 5.954zm-4.822-8.685c.693.822 1.288 2.895 1.618 5.593.033.263-.033.559-.066.954-.793-.593-.925-.889-1.619-4.113-.165-.822-.495-1.645.067-2.434zm8.522 10.824c-.132-.099-.396-.198-.429-.33a58.718 58.718 0 01-.793-3.487c-.033-.164.231-.46.429-.592.066-.033.463.198.529.362.363 1.283.561 2.6.594 3.915a.99.99 0 01-.33.132zm1.156-4.277c.562 1.25.661 2.336.463 3.52-.859-.592-1.156-2.434-.463-3.52zm3.072-30.762c-.033.264-.066.757-.198 1.218-.033.131-.297.296-.429.296s-.364-.23-.364-.362a27.326 27.326 0 01-.264-2.83c0-.23.264-.625.463-.69.429-.132.627.263.66.658.066.493.066.987.132 1.71zm-5.714 4.245c.462 1.677.759 3.322 1.024 5.132-.859-.691-1.322-2.04-1.553-4.047-.066-.329-.231-.757.529-1.086zM52.192 69.814c-6.507.263-12.85-.757-18.994-2.895-1.982-.691-3.898-1.514-5.847-2.27-4.558-1.81-8.72-4.278-12.75-7.041-1.355-.954-2.544-2.073-3.634-3.323A57.63 57.63 0 011.85 39.908c-2.841-6.383-2.312-12.634 1.057-18.72 1.354-2.468 3.204-4.475 5.55-6.054 2.444-1.678 4.393-3.882 6.342-6.086 1.42-1.613 3.204-2.468 5.318-2.797 1.288-.197 1.916-.987 1.75-2.303-.131-.757.166-1.217.694-1.678 1.09-.921 2.346-1.58 3.766-1.776C27.747.296 29.135.066 30.522 0c1.52-.033 3.04.066 4.56.197 3.534.297 7.068.626 10.504 1.448 6.804 1.645 12.916 4.672 18.267 9.18.66.558 1.288 1.216 1.85 1.874 3.898 4.606 7.597 9.344 10.9 14.378.166.263.33.559.562.79 2.51 2.895 3.667 6.349 4.195 10.067.496 3.454.397 6.876-.099 10.297-.132.889-.231 1.744-.396 2.6-.892 4.507-3.138 8.356-6.937 10.922-3.403 2.303-6.673 4.935-10.637 6.35-2.279.823-4.591 1.48-7.036 1.448-1.321.065-2.675.197-4.063.263zM35.345 3.257c-1.024-.066-2.147-.197-3.27-.164-2.676 0-5.285.46-7.796 1.48-.264.099-.627.33-.66.56a141.895 141.895 0 00-.727 3.98c.297.132.462.23.66.296 3.006.987 5.748 2.468 8.49 4.014 1.85 1.053 3.832 1.908 5.814 2.665 3.105 1.217 6.243 2.303 9.15 4.014a17.379 17.379 0 014.955 4.343c1.321 1.71 2.61 3.487 4.327 4.836 1.85 1.48 3.733 2.928 5.55 4.441 1.255 1.053 2.543 2.106 3.6 3.39 1.454 1.776 2.676 3.717 3.997 5.56a12.114 12.114 0 012.28 6.48c.066.988.198 2.008.264 2.995 0 .164-.132.361-.297.756-.496-1.151-.892-2.105-1.322-3.06-.958-2.138-2.048-4.178-3.832-5.79-1.618-1.447-3.17-2.96-4.756-4.441a17.62 17.62 0 00-1.19-1.02c-2.147-1.514-3.996-3.356-5.615-5.429-2.048-2.665-4.69-4.507-7.994-5.264-2.61-.592-4.955-1.678-7.036-3.29-.297-.164-.628-.395-1.123-.757.132.724.231 1.12.297 1.547.132 1.184.694 2.105 1.619 2.862.693.56 1.321 1.184 1.949 1.777 1.024.954 2.015 1.94 3.105 2.96.066-1.052-.43-1.842-.727-2.664-.198-.56-.297-1.086.198-1.58.397-.394.991-.361 1.685.066.99.658 1.916 1.382 2.477 2.435.661 1.217 1.322 2.467 1.85 3.784.364.855.826 1.546 1.652 1.974.462.23.892.559 1.288.888 1.652 1.447 3.303 2.928 4.955 4.408.297.264.496.658.958 1.25-.727-.065-1.19-.032-1.585-.164a90.591 90.591 0 01-3.865-1.382c-.958-.395-1.883-.954-2.841-1.283-1.487-.526-2.841-1.151-3.733-2.434-1.618.361-2.246.032-2.84-1.48-.034-.067-.034-.165-.067-.231-.396-.79-.76-1.612-1.222-2.336-.991-1.546-2.444-2.665-3.865-3.784-1.52-1.085-2.808-2.303-3.766-3.882-.726-1.217-2.015-1.678-3.27-2.171-.826-.33-1.586.033-2.345.296-1.586.625-3.27.79-4.955.625-1.355-.132-2.709-.164-4.096.099.396.362.792.69 1.255.855 1.321.494 2.643.954 3.997 1.349 2.213.658 4.393 1.415 5.913 3.29 1.387 1.71 3.204 2.73 5.219 3.553 2.907 1.185 5.649 2.698 8.093 4.738 1.388 1.184 2.973 2.007 4.724 2.599 1.288.428 2.543 1.02 3.766 1.612 1.156.56 2.246 1.25 3.336 1.908 1.486.889 2.94 1.81 4.393 2.73.529.33 1.057.758 1.586 1.087 2.147 1.25 3.237 3.092 3.138 5.56-.066 1.316.694 2.007 1.619 2.763.297-.724.594-1.349.76-2.007.099-.394.132-.888.032-1.283-.363-1.118-.858-2.171-1.189-3.257-.297-.987-.892-1.645-1.717-2.237a25.494 25.494 0 01-2.379-1.842c-.396-.362-.66-.856-.297-1.415.363-.527.892-.46 1.387-.23 1.289.559 2.478 1.349 3.403 2.434.297.362.495.823.693 1.25.628 1.514 1.223 3.027 1.883 4.54.562 1.25.694 2.468.066 3.718-.495.954-1.024 1.909-1.618 2.797-.727 1.053-1.487.954-2.048-.198-.298-.625-.628-1.316-1.123-1.842-.793-.855-1.322-1.81-1.487-2.961-.264-1.678-1.288-2.698-2.775-3.487-2.51-1.35-4.889-2.928-7.3-4.442-.529-.329-1.024-.822-1.387-1.316-.892-1.217-2.148-1.875-3.535-2.402-1.42-.559-2.84-1.118-4.195-1.842-1.718-.921-3.535-1.546-5.418-2.007-1.024-.263-2.048-.493-3.072-.724-3.237-.658-5.846-2.237-7.696-4.968-.86-1.283-2.015-2.04-3.469-2.467-.43-.132-.826-.263-1.255-.362-2.61-.724-4.955-1.875-6.97-3.685-1.486-1.382-3.204-2.467-4.922-3.487-.727-.428-1.453-.954-1.883-1.645-.76-1.283-1.85-2.073-3.336-2.764-.132.198-.33.46-.529.724-.495.757-1.057 1.48-1.52 2.27-3.369 5.626-3.6 11.45-.792 17.371.595 1.25 1.255 2.435 1.883 3.652.132.23.297.428.561.823v-1.777c.86.165.958.165 1.19.855.396 1.12.693 2.303.99 3.455.43 1.58 1.817 3.52 3.37 4.573-.264-.592-.463-1.053-.694-1.513-.363-.757-.76-1.48-1.09-2.27-.264-.658-.33-1.316.33-1.942-1.024-1.348-1.981-2.796-3.105-4.013-2.08-2.303-2.906-5.067-3.17-8.028-.133-1.744-.034-3.52-.034-5.297 0-.23.1-.493.198-.822.529.395.43.855.496 1.25.165 1.744.264 3.52.528 5.264.397 2.467 1.223 4.705 3.139 6.481a55.523 55.523 0 013.435 3.389c2.94 3.257 6.342 6.02 9.646 8.916.198.197.462.362.627.56.364.493.066 1.118-.528 1.118-.43 0-.892-.099-1.255-.296-.86-.395-1.62-.922-2.379-1.448-.462-.296-.892-.592-1.354-.888-.066.066-.132.098-.198.164.528 1.152 1.189 2.237 1.618 3.422.826 2.171 2.841 2.698 4.625 3.619-.231-.527-.562-.987-.859-1.448-.264-.395-.529-.822-.694-1.25-.165-.493-.33-1.086.232-1.415.594-.329.99.132 1.288.56.297.394.462.855.727 1.25.76 1.184 1.453 2.401 2.312 3.52.826 1.086 2.18 1.283 3.501 1.843-.528-1.678-2.213-2.764-1.486-4.607-.991-.625-1.95-1.184-2.28-2.368.958-.46.958-.46 2.148-.066 5.219 1.678 10.405 3.389 15.624 5.034 2.247.723 4.526 1.414 6.838 2.007.76.197 1.586.296 2.379.197.99-.099 1.982-.362 2.94-.658 3.005-.921 6.11-1.349 9.216-1.81.132-.032.264-.065.363-.032.264.131.694.263.727.46.066.296-.1.691-.33.921-.232.23-.628.362-.959.46-.792.264-1.618.429-2.444.725-1.949.658-3.93.822-5.946.658-1.75-.132-3.534-.264-5.285-.23-1.685.032-3.37.032-5.021-.461a5.46 5.46 0 00-1.057-.198c-2.841-.361-5.649-.92-8.39-1.776-.232-.066-.463-.099-.992-.198 1.09 1.086 1.982 1.974 2.874 2.797.364.329.727.625 1.156.855.595.33 1.057.724 1.024 1.514 4.691 1.151 9.316 1.908 14.106 1.678a2.999 2.999 0 00-.727-.362c-.793-.264-1.619-.494-2.379-.856-.528-.23-1.024-.658-1.453-1.052-.165-.132-.198-.527-.1-.757.067-.165.43-.33.596-.263.66.164 1.32.361 1.948.592 1.19.46 2.379.954 3.568 1.414.958.395 1.982.494 2.973.757.859.23 1.883-.329 2.742-.954-.595-.099-1.19-.099-1.751-.099-.43 0-.892 0-1.321-.098-.727-.165-1.223-.724-1.157-1.218.067-.526.562-.658 1.52-.526 1.09.164 2.213.263 3.27.395.529-.987.529-.987 1.42-.79.595.099 1.19.165 1.785.263.594.1 1.09-.032 1.552-.427 1.19-.954 2.445-1.843 3.634-2.797 2.444-2.007 4.294-4.474 5.318-7.468.528-1.546.826-3.191 1.156-4.803.694-3.62.727-7.271-.132-10.857-.462-1.942-1.255-3.751-2.444-5.33a899.275 899.275 0 00-8.622-10.989c-1.586-2.007-3.138-4.112-4.922-5.922-4.46-4.573-9.877-7.666-15.823-9.87-2.61-.987-5.384-1.283-8.159-1.612-.297-.033-.595 0-.925 0 .397 2.106.793 4.08 1.19 6.02.065.33.131.626.098.955-.033.197-.198.493-.363.56-.165.065-.495-.067-.595-.231a3.244 3.244 0 01-.495-1.086c-.595-1.941-1.057-3.98-1.619-6.25zM33.1 19.937c.033.132.033.1 0 .066-.033-.099-.066-.164-.132-.197-1.255-.658-2.412-1.283-4.03-1.152-2.544.198-4.988.625-7.4 1.58-.858.328-1.85.592-2.774.625-2.346.065-4.493-.757-6.607-1.678-.462-.198-.859-.527-.793-1.086.066-.592.496-.888 1.057-1.02.496-.131.991-.197 1.652-.329-.363-.658-.694-1.184-.99-1.71-1.95 1.184-3.767 2.533-4.097 3.717.198.165.43.395.694.56.892.526 1.783 1.052 2.708 1.546.397.197.826.329 1.223.493.958.362 1.982.658 2.907 1.119 1.024.526 2.015.625 3.138.559 1.651-.099 3.303-.197 4.955-.099 1.883.099 3.534-.329 5.12-1.349 1.024-.658 2.213-1.085 3.37-1.645zm-18.069-3.52c1.321-.296 2.478-.79 3.402-1.645.727-.658.76-.855.298-1.744-.397-.79-.562-1.579-.298-2.434.1-.395.265-.757.43-1.283-.463.066-.826.066-1.123.197-.86.46-1.718.888-2.51 1.415-1.025.69-1.355 1.776-1.025 2.928.264.822.529 1.612.826 2.566zm15.13 41.52c.627 1.382 1.221 2.533 1.684 3.718.33.855.892 1.381 1.784 1.612.528.131 1.057.394 1.585.559.793.23 1.619.428 2.445.658-.232-.46-.529-.69-.826-.954-.595-.56-1.222-1.053-1.718-1.678-.826-.987-.694-1.415.529-2.106a268.222 268.222 0 00-5.484-1.81zm-13.082-2.764c.066-.066.1-.131.165-.197-.066-.132-.132-.296-.198-.428-.66-1.086-1.222-2.171-1.09-3.487 0-.165-.066-.395-.198-.527-.793-.79-1.586-1.546-2.412-2.335-.033.131-.066.23-.066.296.529 1.645 1.09 3.257 1.652 4.902.066.23.198.46.396.592.562.395 1.156.79 1.751 1.184zm9.183-38.855c-.594-.493-1.09-.954-1.651-1.349-.694-.493-.826-.493-1.42.132-.959.987-2.049 1.678-3.37 2.007-.231.066-.463.197-.892.362l7.333-1.152z"/><path d="M44.297 43.987c-1.552.033-2.874-.23-4.228-.46-1.784-.296-3.336-1.152-4.955-1.81-1.651-.69-3.204-.46-4.46.823-1.453 1.48-3.17 2.434-5.12 3.026a84.91 84.91 0 00-3.402 1.152c.231-.526.297-.987.529-1.283.462-.56.958-1.086 1.52-1.514 1.09-.822 2.245-1.579 3.335-2.401 1.553-1.152 3.238-1.514 5.12-1.185 1.883.33 3.667.856 5.418 1.547 1.553.592 3.27.822 4.922 1.217.529.066 1.024.066 1.321.888zm4.295 22.043c-1.751-.296-3.37-.888-4.89-1.842-.33-.197-.594-.56-.792-.888-.297-.527-.033-1.02.562-1.02.429 0 .891.131 1.255.296 1.387.69 2.775 1.415 4.162 2.138.132.066.33.132.396.23.132.165.33.461.265.593-.1.197-.397.329-.595.46-.066.1-.231.033-.363.033zm11.561-46.422c-.132.132-.231.428-.43.527-.131.066-.429-.132-.627-.198-.066-.033-.099-.131-.132-.197-.595-1.678-1.156-3.389-1.718-5.1a1.2 1.2 0 01.1-.822c.132-.23.462-.46.726-.526.165-.033.495.296.562.493.495 1.908.99 3.784 1.52 5.823zm-4.79-4.046l-.264.526c-.231-.131-.528-.164-.66-.362-.232-.362-.364-.79-.496-1.217-.363-1.217-.727-2.402-1.09-3.586-.066-.263-.165-.527-.198-.823-.033-.427-.066-.987.462-1.085.595-.132.694.427.826.855a222.44 222.44 0 011.321 5c.033.165.033.363.1.692zM14.898 41.816c-.76-.855-1.487-5.1-1.321-7.567.033-.395 0-.823.693-.987.132.296.33.592.364.921.198 2.369.33 4.705.495 7.074 0 .131-.099.296-.231.559zm49.648-18.918c.133-.164.298-.592.529-.625.231-.033.66.264.793.527.66 1.381 1.222 2.763 1.817 4.178.132.329.264.757-.166.921-.198.066-.561-.066-.726-.23-1.024-1.283-1.817-2.73-2.214-4.343 0-.066 0-.164-.032-.428zM12.024 27.11c.066.197.165.394.165.625.198 3.027.364 6.086.463 9.113-.628-.822-1.123-4.376-1.19-8.29 0-.494.133-.955.199-1.448h.363zm51.466-3.652c-.133.197-.265.526-.33.526-.232-.033-.562-.197-.628-.362a107.62 107.62 0 01-1.19-4.375c-.099-.362-.033-.757.397-.889.43-.098.693.23.76.593.33 1.48.66 2.96.99 4.507zm-5.154 2.105c-.43-.296-.726-.427-.892-.658-.99-1.25-1.585-2.698-1.916-4.244-.032-.23-.066-.493 0-.724a.598.598 0 01.397-.394c.165-.033.363.131.495.23.1.099.133.296.199.428a171.227 171.227 0 011.651 4.375c.066.23.033.46.066.987zM54.009 54.22c-.231.295-.396.657-.66.92-.86.856-1.751 1.645-2.61 2.468-.1.066-.198.197-.298.23-.264.033-.627.099-.726-.033-.132-.164-.066-.493 0-.756.033-.132.165-.264.297-.362 1.09-.889 2.18-1.777 3.27-2.632.132-.099.364-.066.529-.066.066.066.132.132.198.23zm8.589-25.729c-.166-.032-.298-.032-.33-.065-1.025-1.152-1.586-2.567-2.016-4.014-.066-.198.165-.527.364-.658.099-.066.528.066.594.197.562 1.382 1.09 2.797 1.619 4.211 0 .066-.132.198-.231.33zm9.182 3.981c.562.691 1.751 5.66 1.719 7.14-.199-.23-.397-.33-.463-.494-.561-1.744-1.057-3.487-1.586-5.264-.165-.526-.132-.987.33-1.382zM39.474 4.54c.199.132.364.198.529.33 1.057.69 2.114 1.414 3.171 2.105.1.066.231.131.297.197.067.132.166.362.133.395-.1.132-.33.263-.463.23a8.44 8.44 0 01-3.964-2.368c-.132-.132-.132-.428-.099-.658.033-.1.231-.165.396-.23zm9.844 6.712c-.99-1.612-1.949-3.126-2.907-4.672-.099-.132.033-.428.1-.888 1.42 1.283 2.114 2.796 2.873 4.244.199.329.463.756-.066 1.316zM32.24 9.442c-1.288-.723-2.08-3.125-1.684-4.54.792.592.627 1.513.892 2.237.33.757.528 1.547.792 2.303zm-15.46 32.44c-.759-1.514-1.354-3.06-1.552-4.738l.297-.099c.496 1.58 1.024 3.192 1.52 4.77-.1.034-.165.034-.264.067zm53.481-9.344c-1.123-1.02-1.52-2.566-.859-3.75.298 1.316.562 2.467.86 3.75zM35.61 8.752c-.925-1.316-1.784-2.5-2.775-3.916 1.156.527 2.543 2.567 2.775 3.916zM72.64 43.23c.033.297.066.428.033.527-.1.724-.231 1.48-.33 2.237-.53-.724-.43-1.513.297-2.763z"/></g><defs><clipPath id="clip0_82_73"><path fill="#fff" d="M0 0h154v124H0z"/></clipPath></defs></svg>