<svg width="20" height="20" fill="none" xmlns="http://www.w3.org/2000/svg"><path d="M.833 8.332A.833.833 0 010 7.5V.833A.833.833 0 01.833 0h6.668a.833.833 0 01.833.833V7.5a.833.833 0 01-.833.833H.833zm11.668 0a.833.833 0 01-.833-.833V.833A.833.833 0 0112.5 0h6.666A.833.833 0 0120 .833V7.5a.833.833 0 01-.833.833H12.5zM.833 20A.833.833 0 010 19.167v-6.668a.833.833 0 01.833-.833h6.668a.833.833 0 01.833.833v6.668a.833.833 0 01-.833.833H.833zm11.668 0a.833.833 0 01-.833-.833v-6.668a.833.833 0 01.833-.833h6.666a.833.833 0 01.833.833v6.668a.833.833 0 01-.833.833H12.5z" fill="#2F70D9"/></svg>