<svg width="293" height="82" viewBox="0 0 293 82" fill="none" xmlns="http://www.w3.org/2000/svg">
<path d="M281.31 2.35777C286.331 2.35777 290.399 6.17733 290.399 10.8908V71.8413C290.399 76.5548 286.331 80.3744 281.31 80.3744H10.8196C5.79932 80.3744 1.73114 76.5548 1.73114 71.8413V10.8908C1.73114 6.17733 5.79932 2.35777 10.8196 2.35777H281.31ZM281.31 0.732422H10.8196C4.86883 0.732422 0 5.30371 0 10.8908V71.8413C0 77.4285 4.86883 81.9997 10.8196 81.9997H281.31C287.261 81.9997 292.13 77.4285 292.13 71.8413V10.8908C292.13 5.30371 287.261 0.732422 281.31 0.732422Z" fill="white"/>
<path d="M102.613 21.5377C102.613 23.2443 102.072 24.6055 100.99 25.6011C99.7778 26.7998 98.1765 27.4093 96.229 27.4093C94.3464 27.4093 92.7667 26.7998 91.4467 25.5808C90.1267 24.3617 89.4775 22.838 89.4775 21.0501C89.4775 19.2419 90.1267 17.7384 91.4467 16.5194C92.7667 15.3004 94.3464 14.6909 96.229 14.6909C97.1595 14.6909 98.0467 14.8535 98.8906 15.1988C99.7345 15.5442 100.405 15.9912 100.925 16.5601L99.7778 17.6369C98.9122 16.682 97.7437 16.1944 96.229 16.1944C94.8657 16.1944 93.6756 16.6413 92.6802 17.5556C91.6847 18.4495 91.187 19.6279 91.187 21.0704C91.187 22.5129 91.6847 23.6913 92.6802 24.5852C93.6756 25.4792 94.8657 25.9465 96.229 25.9465C97.6788 25.9465 98.8906 25.4995 99.8644 24.5852C100.492 23.996 100.86 23.1631 100.946 22.1066H96.229V20.6234H102.526C102.569 20.9485 102.613 21.2533 102.613 21.5377Z" fill="white" stroke="white" stroke-width="0.406337" stroke-miterlimit="10"/>
<path d="M112.588 16.4585H106.681V20.3187H112.004V21.7815H106.681V25.6417H112.588V27.1452H105.014V14.9551H112.588V16.4585Z" fill="white" stroke="white" stroke-width="0.406337" stroke-miterlimit="10"/>
<path d="M119.621 27.1452H117.955V16.4585H114.32V14.9551H123.235V16.4585H119.6V27.1452H119.621Z" fill="white" stroke="white" stroke-width="0.406337" stroke-miterlimit="10"/>
<path d="M129.705 27.1452V14.9551H131.371V27.1452H129.705Z" fill="white" stroke="white" stroke-width="0.406337" stroke-miterlimit="10"/>
<path d="M138.773 27.1452H137.106V16.4585H133.471V14.9551H142.386V16.4585H138.751V27.1452H138.773Z" fill="white" stroke="white" stroke-width="0.406337" stroke-miterlimit="10"/>
<path d="M159.286 25.56C158.009 26.7993 156.429 27.4088 154.525 27.4088C152.621 27.4088 151.041 26.7993 149.765 25.56C148.488 24.3206 147.86 22.8172 147.86 21.0496C147.86 19.282 148.488 17.7583 149.765 16.5393C151.041 15.2999 152.621 14.6904 154.525 14.6904C156.408 14.6904 157.987 15.2999 159.286 16.5393C160.562 17.7786 161.212 19.282 161.212 21.0496C161.19 22.8375 160.562 24.3409 159.286 25.56ZM150.998 24.5441C151.95 25.4584 153.14 25.9053 154.525 25.9053C155.91 25.9053 157.1 25.4584 158.052 24.5441C159.004 23.6299 159.502 22.4718 159.502 21.0496C159.502 19.6274 159.026 18.4694 158.052 17.5551C157.1 16.6408 155.91 16.1736 154.525 16.1736C153.14 16.1736 151.95 16.6205 150.998 17.5348C150.046 18.4694 149.548 19.6274 149.548 21.0496C149.548 22.4718 150.046 23.6299 150.998 24.5441Z" fill="white" stroke="white" stroke-width="0.406337" stroke-miterlimit="10"/>
<path d="M163.549 27.1452V14.9551H165.583L171.902 24.443H171.967L171.902 22.0863V14.9551H173.568V27.1452H171.837L165.237 17.2102H165.172L165.237 19.567V27.1452H163.549Z" fill="white" stroke="white" stroke-width="0.406337" stroke-miterlimit="10"/>
<path d="M147.45 44.9215C142.365 44.9215 138.21 48.5582 138.21 53.5562C138.21 58.5338 142.365 62.1908 147.45 62.1908C152.536 62.1908 156.69 58.5338 156.69 53.5562C156.69 48.5582 152.536 44.9215 147.45 44.9215ZM147.45 58.7979C144.659 58.7979 142.257 56.6443 142.257 53.5562C142.257 50.4477 144.659 48.3144 147.45 48.3144C150.242 48.3144 152.644 50.4477 152.644 53.5562C152.644 56.6443 150.22 58.7979 147.45 58.7979ZM127.283 44.9215C122.197 44.9215 118.043 48.5582 118.043 53.5562C118.043 58.5338 122.197 62.1908 127.283 62.1908C132.368 62.1908 136.523 58.5338 136.523 53.5562C136.523 48.5582 132.368 44.9215 127.283 44.9215ZM127.283 58.7979C124.491 58.7979 122.089 56.6443 122.089 53.5562C122.089 50.4477 124.491 48.3144 127.283 48.3144C130.074 48.3144 132.476 50.4477 132.476 53.5562C132.476 56.6443 130.074 58.7979 127.283 58.7979ZM103.306 47.583V51.24H112.655C112.373 53.292 111.637 54.8158 110.534 55.852C109.171 57.1319 107.05 58.5338 103.328 58.5338C97.572 58.5338 93.071 54.186 93.071 48.7817C93.071 43.3774 97.572 39.0296 103.328 39.0296C106.422 39.0296 108.695 40.1673 110.361 41.6505L113.109 39.0702C110.772 36.9776 107.677 35.3726 103.306 35.3726C95.4297 35.3726 88.8081 41.3864 88.8081 48.802C88.8081 56.1973 95.4297 62.2315 103.306 62.2315C107.569 62.2315 110.772 60.9312 113.282 58.4728C115.857 56.0551 116.658 52.6419 116.658 49.8991C116.658 49.0458 116.593 48.2535 116.441 47.6033H103.306V47.583ZM201.354 50.4274C200.596 48.4973 198.259 44.9215 193.477 44.9215C188.738 44.9215 184.8 48.416 184.8 53.5562C184.8 58.3916 188.695 62.1908 193.931 62.1908C198.151 62.1908 200.596 59.7731 201.592 58.3713L198.454 56.4005C197.415 57.843 195.987 58.7979 193.931 58.7979C191.876 58.7979 190.404 57.904 189.474 56.177L201.786 51.4026L201.354 50.4274ZM188.803 53.3123C188.695 49.9804 191.551 48.2738 193.607 48.2738C195.208 48.2738 196.571 49.0255 197.026 50.1023L188.803 53.3123ZM178.806 61.6829H182.852V36.2868H178.806V61.6829ZM172.184 46.8516H172.032C171.124 45.8357 169.392 44.9215 167.185 44.9215C162.576 44.9215 158.356 48.7207 158.356 53.5968C158.356 58.4322 162.576 62.2111 167.185 62.2111C169.371 62.2111 171.124 61.2969 172.032 60.2404H172.162V61.4797C172.162 64.7914 170.28 66.5589 167.25 66.5589C164.783 66.5589 163.247 64.893 162.619 63.4911L159.092 64.8726C160.109 67.1684 162.793 69.9722 167.25 69.9722C171.989 69.9722 175.992 67.3513 175.992 60.9718V45.4497H172.162V46.8516H172.184ZM167.532 58.7979C164.74 58.7979 162.403 56.6037 162.403 53.5968C162.403 50.5493 164.74 48.3347 167.532 48.3347C170.28 48.3347 172.444 50.5696 172.444 53.5968C172.465 56.6037 170.301 58.7979 167.532 58.7979ZM220.31 36.2868H210.637V61.6829H214.683V52.0527H220.331C224.81 52.0527 229.203 49.0052 229.203 44.1698C229.203 39.3343 224.767 36.2868 220.31 36.2868ZM220.396 48.5176H214.662V39.8016H220.396C223.426 39.8016 225.135 42.1584 225.135 44.1494C225.135 46.1405 223.426 48.5176 220.396 48.5176ZM245.368 44.8809C242.446 44.8809 239.417 46.0999 238.162 48.7614L241.754 50.1632C242.511 48.7614 243.94 48.2941 245.433 48.2941C247.532 48.2941 249.652 49.4725 249.674 51.5651V51.8292C248.938 51.4432 247.38 50.854 245.454 50.854C241.581 50.854 237.664 52.8451 237.664 56.563C237.664 59.956 240.823 62.1502 244.372 62.1502C247.077 62.1502 248.592 61.0124 249.522 59.6715H249.652V61.6423H253.547V51.9105C253.569 47.4001 249.977 44.8809 245.368 44.8809ZM244.87 58.7979C243.55 58.7979 241.711 58.1681 241.711 56.6443C241.711 54.6939 244.004 53.9422 245.995 53.9422C247.77 53.9422 248.614 54.3079 249.674 54.7955C249.371 57.1319 247.207 58.7979 244.87 58.7979ZM267.764 45.4294L263.133 56.4411H263.004L258.2 45.4294H253.85L261.056 60.8296L256.945 69.383H261.164L272.265 45.4294H267.764ZM231.41 61.6829H235.457V36.2868H231.41V61.6829Z" fill="white"/>
<path d="M22.5901 16.0509C21.9626 16.6807 21.5947 17.6559 21.5947 18.8953V63.8362C21.5947 65.0959 21.9626 66.0711 22.5901 66.6806L22.7416 66.8228L49.5527 41.6705V41.3657V41.061L22.7416 15.9087L22.5901 16.0509Z" fill="url(#paint0_linear_479_1745)"/>
<path d="M58.4923 50.0612L49.5552 41.6703V41.3656V41.0608L58.4923 32.6699L58.687 32.7715L69.2687 38.4196C72.2982 40.0247 72.2982 42.6659 69.2687 44.2912L58.687 49.9393L58.4923 50.0612Z" fill="url(#paint1_linear_479_1745)"/>
<path d="M58.6859 49.9598L49.5542 41.3657L22.5918 66.6805C23.5872 67.676 25.2318 67.7979 27.0927 66.8024L58.6859 49.9598Z" fill="url(#paint2_linear_479_1745)"/>
<path d="M58.686 32.7922L27.0712 15.9292C25.2103 14.9337 23.5657 15.0556 22.5703 16.0511L49.5543 41.3659L58.686 32.7922Z" fill="url(#paint3_linear_479_1745)"/>
<path opacity="0.2" d="M58.4909 49.7568L27.0709 66.5182C25.3181 67.4528 23.7384 67.3918 22.743 66.5385L22.5916 66.6807L22.743 66.823C23.7601 67.6763 25.3181 67.7372 27.0709 66.8026L58.6857 49.9397L58.4909 49.7568Z" fill="black"/>
<path opacity="0.12" d="M22.59 66.3961C21.9624 65.7663 21.5945 64.7911 21.5945 63.5518V63.8565C21.5945 65.1161 21.9624 66.0913 22.59 66.7008L22.7415 66.5586L22.59 66.3961Z" fill="black"/>
<path opacity="0.12" d="M69.2682 44.0069L58.4702 49.7565L58.665 49.9394L69.2466 44.2913C70.7613 43.4787 71.5187 42.4222 71.5187 41.3657C71.4105 42.3206 70.6531 43.2755 69.2682 44.0069Z" fill="black"/>
<path opacity="0.25" d="M27.0713 16.2134L69.268 38.7244C70.6313 39.4558 71.4103 40.3904 71.5402 41.3656C71.5402 40.3092 70.7828 39.2324 69.268 38.44L27.0713 15.929C24.0418 14.3239 21.575 15.6648 21.575 18.9155V19.2203C21.575 15.9493 24.0635 14.6084 27.0713 16.2134Z" fill="white"/>
<defs>
<linearGradient id="paint0_linear_479_1745" x1="47.1715" y1="18.4276" x2="13.1426" y2="54.6714" gradientUnits="userSpaceOnUse">
<stop stop-color="#00A0FF"/>
<stop offset="0.00657445" stop-color="#00A1FF"/>
<stop offset="0.2601" stop-color="#00BEFF"/>
<stop offset="0.5122" stop-color="#00D2FF"/>
<stop offset="0.7604" stop-color="#00DFFF"/>
<stop offset="1" stop-color="#00E3FF"/>
</linearGradient>
<linearGradient id="paint1_linear_479_1745" x1="73.2164" y1="41.3686" x2="20.8556" y2="41.3686" gradientUnits="userSpaceOnUse">
<stop stop-color="#FFE000"/>
<stop offset="0.4087" stop-color="#FFBD00"/>
<stop offset="0.7754" stop-color="#FFA500"/>
<stop offset="1" stop-color="#FF9C00"/>
</linearGradient>
<linearGradient id="paint2_linear_479_1745" x1="53.7238" y1="46.0309" x2="7.57791" y2="95.1802" gradientUnits="userSpaceOnUse">
<stop stop-color="#FF3A44"/>
<stop offset="1" stop-color="#C31162"/>
</linearGradient>
<linearGradient id="paint3_linear_479_1745" x1="15.7912" y1="1.09039" x2="36.3974" y2="23.0375" gradientUnits="userSpaceOnUse">
<stop stop-color="#32A071"/>
<stop offset="0.0685" stop-color="#2DA771"/>
<stop offset="0.4762" stop-color="#15CF74"/>
<stop offset="0.8009" stop-color="#06E775"/>
<stop offset="1" stop-color="#00F076"/>
</linearGradient>
</defs>
</svg>
