<svg width="12" height="17" fill="none" xmlns="http://www.w3.org/2000/svg"><g clip-path="url(#clip0_3_1010)"><path d="M6.05 0A5.594 5.594 0 00.464 5.588c0 2.966 5.07 9.895 5.286 10.189l.201.274a.124.124 0 00.1.051.125.125 0 00.102-.051l.201-.274c.216-.294 5.286-7.223 5.286-10.189A5.595 5.595 0 006.051 0zm0 3.586c1.105 0 2.002.898 2.002 2.002A2.004 2.004 0 016.051 7.59a2.004 2.004 0 01-2.002-2.002c0-1.104.898-2.002 2.002-2.002z" fill="#D6CECE"/></g><defs><clipPath id="clip0_3_1010"><path fill="#fff" d="M0 0h12v16.102H0z"/></clipPath></defs></svg>