<svg width="17" height="17" fill="none" xmlns="http://www.w3.org/2000/svg"><g clip-path="url(#clip0_3_1017)"><path d="M15.113 11.372c-.041-.032-3.037-2.192-3.86-2.037-.392.07-.616.338-1.066.873a14.49 14.49 0 01-.382.442 6.894 6.894 0 01-4.35-4.35c.148-.136.355-.31.444-.384.533-.448.801-.673.87-1.066.143-.815-2.014-3.831-2.037-3.858a1.152 1.152 0 00-.858-.489C3 .503.503 3.743.503 4.288c0 .032.045 3.254 4.02 7.296 4.037 3.97 7.26 4.015 7.29 4.015.547 0 3.785-2.497 3.785-3.371a1.15 1.15 0 00-.485-.856z" fill="#D6CECE"/></g><defs><clipPath id="clip0_3_1017"><path fill="#fff" d="M0 0h16.102v16.102H0z"/></clipPath></defs></svg>