<svg width="15" height="15" fill="none" xmlns="http://www.w3.org/2000/svg"><path d="M7.5 4.188a1.92 1.92 0 00-1.917 1.917A1.92 1.92 0 007.5 8.022a1.92 1.92 0 001.917-1.917A1.92 1.92 0 007.5 4.187z" fill="#F5F5F5"/><path d="M11.986 1.858A6.303 6.303 0 007.5 0C5.806 0 4.213.66 3.014 1.858a6.303 6.303 0 00-1.858 4.486c0 3.428 3.242 6.28 4.983 7.811.242.213.451.397.617.553a1.09 1.09 0 001.488 0c.167-.156.376-.34.618-.553 1.741-1.531 4.983-4.383 4.983-7.81 0-1.695-.66-3.289-1.859-4.487zM7.5 8.9a2.799 2.799 0 01-2.795-2.796A2.799 2.799 0 017.5 3.31a2.799 2.799 0 012.796 2.795A2.799 2.799 0 017.5 8.9z" fill="#F5F5F5"/></svg>