<svg width="15" height="15" fill="none" xmlns="http://www.w3.org/2000/svg"><g clip-path="url(#clip0_420_76)"><path d="M2.797.698c-.235.007-.44.13-.613.303l-.287.287L5.012 4.46l.452-.452a.708.708 0 000-.995L3.452 1C3.257.806 3.031.69 2.797.698zm5.4 1.181a4.92 4.92 0 014.923 4.922c-.007.32.476.32.468 0a5.396 5.396 0 00-5.402-5.389c-.299.036-.278.46.011.467zm-6.633-.26l-.33.33c-.54.54-.536 1.246-.536 1.573 0 1.35.54 3.683 3.818 6.961 3.279 3.279 5.612 3.819 6.962 3.819.326 0 1.033.003 1.573-.537l.298-.298-3.115-3.172-.327.327c-.194.194-.337.217-.476.2a.841.841 0 01-.387-.178c-.573-.443-1.5-1.078-2.556-2.133-1.054-1.055-1.69-1.983-2.133-2.556a.836.836 0 01-.178-.385c-.016-.14.009-.284.203-.478l.3-.3-3.116-3.173zm6.633 1.198c-.305.007-.305.462 0 .469A3.512 3.512 0 0111.713 6.8c.007.306.462.306.469 0a3.988 3.988 0 00-3.985-3.984zm0 1.406c-.313 0-.313.47 0 .47 1.168 0 2.11.94 2.11 2.108 0 .313.468.313.468 0a2.582 2.582 0 00-2.578-2.578zm0 1.876a.7.7 0 01.705.702c-.007.32.476.32.469 0A1.18 1.18 0 008.186 5.63c-.324.015-.301.484.011.47zm3.292 3.232a.7.7 0 00-.497.204l-.427.427 3.116 3.173.318-.318c.172-.172.295-.38.303-.614.007-.234-.108-.46-.303-.655l-2.012-2.013a.702.702 0 00-.498-.204z" fill="#F5F5F5"/></g><defs><clipPath id="clip0_420_76"><path fill="#fff" d="M0 0h15v15H0z"/></clipPath></defs></svg>