<svg width="15" height="15" fill="none" xmlns="http://www.w3.org/2000/svg"><g clip-path="url(#clip0_1_503)"><path d="M.265 7.231l3.456 1.29 1.338 4.302a.407.407 0 00.646.195l1.927-1.57a.575.575 0 01.7-.02l3.475 2.523c.24.173.579.042.639-.247L14.99 1.46a.407.407 0 00-.545-.463L.26 6.469a.408.408 0 00.004.762zm4.578.603l6.755-4.16c.122-.075.247.09.142.186L6.166 9.042a1.156 1.156 0 00-.359.692l-.19 1.407c-.025.188-.289.207-.34.025l-.73-2.567a.68.68 0 01.296-.765z" fill="#F5F5F5"/></g><defs><clipPath id="clip0_1_503"><path fill="#fff" d="M0 0h15v15H0z"/></clipPath></defs></svg>