<svg width="165" height="165" fill="none" xmlns="http://www.w3.org/2000/svg"><path d="M44.7 122.172a35.367 35.367 0 01-17.324-8.789C12.274 99.38 12.223 74.877 27.264 58.73c15.04-16.147 39.536-17.89 54.64-3.887a35.24 35.24 0 0110.052 16.594c-12.892-2.499-27.228 1.846-37.316 12.676-10.087 10.83-13.381 25.413-9.94 38.059z" stroke="#fff" stroke-opacity=".1" stroke-miterlimit="10"/><path d="M120.225 117.688c-1.661 6.46-5.012 12.718-9.965 18.035-15.04 16.147-39.591 17.839-54.761 3.773-15.17-14.065-15.276-38.619-.236-54.766 4.953-5.318 10.962-9.11 17.298-11.236-3.367 13.152.026 27.299 10.2 36.732 10.22 9.477 24.564 11.775 37.464 7.462z" stroke="#fff" stroke-opacity=".1" stroke-miterlimit="10"/><path d="M119.891 42.362a35.364 35.364 0 0117.323 8.79c15.103 14.002 15.154 38.505.114 54.653-15.04 16.147-39.537 17.89-54.64 3.887a35.245 35.245 0 01-10.053-16.595c12.893 2.5 27.229-1.846 37.316-12.675 10.042-10.873 13.381-25.413 9.94-38.06z" stroke="#fff" stroke-opacity=".1" stroke-miterlimit="10"/><path d="M45.666 47.4c1.662-6.46 5.013-12.718 9.965-18.035 15.04-16.147 39.592-17.84 54.762-3.774 15.17 14.066 15.276 38.62.236 54.767-4.953 5.317-10.962 9.11-17.298 11.236 3.367-13.152-.026-27.299-10.2-36.732C72.91 45.385 58.565 43.087 45.665 47.4z" stroke="#fff" stroke-opacity=".1" stroke-miterlimit="10"/></svg>