<svg width="137" height="27" viewBox="0 0 137 27" fill="none" xmlns="http://www.w3.org/2000/svg">
<path d="M21.24 6.72V25.6C21.24 25.96 21 26.2 20.64 26.2H16.16C15.8 26.2 15.6 25.96 15.56 25.6L15.44 24.12C14.04 25.68 12.16 26.76 9.68 26.76C4.12 26.76 0 22.08 0 16.24C0 10.4 4.12 5.72 9.68 5.72C12.04 5.72 14 6.84 15.44 8.48L15.56 6.8C15.6 6.44 15.8 6.2 16.16 6.2H20.64C21 6.12 21.24 6.36 21.24 6.72ZM14.96 16.16C14.96 13.48 13.04 11.24 10.44 11.24C7.8 11.24 5.88 13.36 5.88 16.16C5.88 19 7.8 21.12 10.44 21.12C13.04 21.12 14.96 18.84 14.96 16.16Z" fill="#322F2E"/>
<path d="M39.12 7.6L37.76 11.12C37.6 11.6 37.24 11.68 36.76 11.56C36.36 11.44 35.84 11.24 35.08 11.24C32.52 11.24 31 13.12 31 15.6V25.6C31 25.96 30.76 26.2 30.4 26.2H25.48C25.12 26.2 24.88 25.96 24.88 25.6V6.72C24.88 6.36 25.12 6.12 25.48 6.12H30.2C30.56 6.12 30.76 6.36 30.8 6.72L30.96 9.04C32 7.08 33.68 5.64 36.12 5.64C37.32 5.64 38.32 6.12 38.92 6.68C39.24 7 39.24 7.32 39.12 7.6Z" fill="#322F2E"/>
<path d="M53.84 19.48C54.16 19.2 54.44 19.2 54.76 19.48L57.72 22.32C57.96 22.56 58 22.88 57.76 23.2C55.88 25.36 53.08 26.76 49.88 26.76C44.08 26.76 39.6 22.12 39.6 16.24C39.6 10.36 44.12 5.72 49.88 5.72C53 5.72 55.76 7.12 57.64 9.28C57.88 9.56 57.84 9.88 57.6 10.16L54.6 12.96C54.32 13.24 54.04 13.2 53.72 12.92C52.56 11.92 51.4 11.36 50.04 11.36C47.36 11.36 45.48 13.44 45.48 16.2C45.48 18.96 47.36 21.04 50.04 21.04C51.48 21.04 52.68 20.48 53.84 19.48Z" fill="#322F2E"/>
<path d="M80.68 6.72V25.6C80.68 25.96 80.44 26.2 80.08 26.2H75.6C75.24 26.2 75.04 25.96 75 25.6L74.88 24.12C73.48 25.68 71.6 26.76 69.12 26.76C63.56 26.76 59.44 22.08 59.44 16.24C59.44 10.4 63.56 5.72 69.12 5.72C71.48 5.72 73.44 6.84 74.88 8.48L75 6.8C75.04 6.44 75.24 6.2 75.6 6.2H80.08C80.44 6.12 80.68 6.36 80.68 6.72ZM74.4 16.16C74.4 13.48 72.48 11.24 69.88 11.24C67.24 11.24 65.32 13.36 65.32 16.16C65.32 19 67.24 21.12 69.88 21.12C72.48 21.12 74.4 18.84 74.4 16.16Z" fill="#322F2E"/>
<path d="M98.56 7.6L97.2 11.12C97.04 11.6 96.68 11.68 96.16 11.56C95.76 11.44 95.24 11.24 94.48 11.24C91.92 11.24 90.4 13.12 90.4 15.6V25.6C90.4 25.96 90.16 26.2 89.8 26.2H84.88C84.52 26.2 84.28 25.96 84.28 25.6V6.72C84.28 6.36 84.52 6.12 84.88 6.12H89.6C89.96 6.12 90.16 6.36 90.2 6.72L90.36 9.04C91.4 7.08 93.08 5.64 95.52 5.64C96.72 5.64 97.72 6.12 98.32 6.68C98.68 7 98.68 7.32 98.56 7.6Z" fill="#322F2E"/>
<path d="M113.12 6.72V10.44C113.12 10.8 112.88 11.04 112.52 11.04H109.64V25.56C109.64 25.92 109.4 26.16 109.04 26.16H104.12C103.76 26.16 103.52 25.92 103.52 25.56V11.08H100.64C100.28 11.08 100.04 10.84 100.04 10.48V6.72C100.04 6.36 100.28 6.12 100.64 6.12H103.52V0.6C103.52 0.24 103.76 0 104.12 0H109.04C109.4 0 109.64 0.24 109.64 0.6V6.12H112.52C112.88 6.12 113.12 6.36 113.12 6.72Z" fill="#322F2E"/>
<path d="M136.08 6.72V25.6C136.08 25.96 135.84 26.2 135.48 26.2H131C130.64 26.2 130.44 25.96 130.4 25.6L130.28 24.12C128.88 25.68 127 26.76 124.52 26.76C118.96 26.76 114.84 22.08 114.84 16.24C114.84 10.4 118.96 5.72 124.52 5.72C126.88 5.72 128.84 6.84 130.28 8.48L130.4 6.8C130.44 6.44 130.64 6.2 131 6.2H135.48C135.84 6.12 136.08 6.36 136.08 6.72ZM129.8 16.16C129.8 13.48 127.88 11.24 125.28 11.24C122.64 11.24 120.72 13.36 120.72 16.16C120.72 19 122.64 21.12 125.28 21.12C127.88 21.12 129.8 18.84 129.8 16.16Z" fill="#322F2E"/>
</svg>
