<svg width="300" height="85" fill="none" xmlns="http://www.w3.org/2000/svg"><g filter="url(#filter0_d_1176_34)" fill="#fff" clip-path="url(#clip0_1176_34)"><path d="M257 55.5a8.5 8.5 0 11-17 0 8.5 8.5 0 0117 0z"/><path d="M8 31.5C8 16.864 19.864 5 34.5 5h232C281.136 5 293 16.864 293 31.5S281.136 58 266.5 58h-232C19.864 58 8 46.136 8 31.5zm265 42a4.5 4.5 0 11-9 0 4.5 4.5 0 019 0z"/></g><defs><clipPath id="clip0_1176_34"><path fill="#fff" d="M0 0h300v85H0z"/></clipPath><filter id="filter0_d_1176_34" x="0" y="-3" width="305" height="93" filterUnits="userSpaceOnUse" color-interpolation-filters="sRGB"><feFlood flood-opacity="0" result="BackgroundImageFix"/><feColorMatrix in="SourceAlpha" values="0 0 0 0 0 0 0 0 0 0 0 0 0 0 0 0 0 0 127 0" result="hardAlpha"/><feOffset dx="2" dy="2"/><feGaussianBlur stdDeviation="5"/><feColorMatrix values="0 0 0 0 0.0901961 0 0 0 0 0.227451 0 0 0 0 0.337255 0 0 0 0.15 0"/><feBlend in2="BackgroundImageFix" result="effect1_dropShadow_1176_34"/><feBlend in="SourceGraphic" in2="effect1_dropShadow_1176_34" result="shape"/></filter></defs></svg>