<svg width="18" height="14" fill="none" xmlns="http://www.w3.org/2000/svg"><path d="M9.482 4.902l1.17.544 1.74-.517V3.714c0-2.062-1.74-3.714-3.82-3.714C6.5 0 4.75 1.643 4.75 3.687v5.536c0 .51-.41.91-.91.91s-.911-.4-.911-.91v-2.34H0V9.26a3.83 3.83 0 003.83 3.83c2.099 0 3.83-1.687 3.83-3.777V3.848c0-.5.411-.91.911-.91s.911.41.911.91v1.054zm4.732 1.982v2.455c0 .5-.41.902-.91.902s-.911-.402-.911-.902V6.93l-1.741.517-1.17-.544v2.393c0 2.098 1.723 3.794 3.83 3.794a3.83 3.83 0 003.83-3.83V6.884h-2.928z" fill="#fff"/></svg>