<svg width="210" height="79" fill="none" xmlns="http://www.w3.org/2000/svg"><path d="M29.696 28.03c2.154-1.962 5.079-3.107 8.043-3.25 1.015 0 2.033.006 3.047-.002-.051 1.037 0 2.078-.03 3.115A11.144 11.144 0 0138.2 34.3c-1.969 2.448-4.98 4.09-8.175 4.514-1.396.215-2.813.078-4.217.116.024-1.142-.052-2.287.042-3.426.275-2.825 1.673-5.532 3.846-7.473zm12.03-3.252c1.088.011 2.176-.006 3.266.005 2.715.183 5.394 1.177 7.438 2.901 2.255 1.846 3.8 4.485 4.196 7.304.173 1.308.064 2.63.13 3.944-.95-.003-1.898-.006-2.849 0-2.336-.06-4.634-.782-6.59-1.997-.902-.616-1.828-1.24-2.504-2.095a11.277 11.277 0 01-2.874-5.659c-.286-1.453-.17-2.936-.213-4.403zM25.81 39.763c.966.053 1.935-.043 2.898.059 4.122.084 8.123 2.293 10.259 5.656 1.224 1.883 1.883 4.115 1.797 6.333-.003.727.01 1.45-.012 2.174-1.53-.044-3.074.075-4.589-.207-3.363-.54-6.456-2.45-8.318-5.176a11.192 11.192 0 01-2.041-6.795c0-.683 0-1.364.006-2.044zm25.798.308c1.658-.351 3.367-.293 5.052-.293l.074.07c-.037 1.52.088 3.057-.232 4.56-.674 3.371-3.013 6.382-6.161 8.036-1.96 1.04-4.208 1.552-6.447 1.53-.716.002-1.435-.012-2.151.008 0-1.259-.055-2.523.094-3.776.347-3.031 2.066-5.853 4.537-7.76a13.12 13.12 0 015.234-2.375zm17.634 8.284c0 .512-.186.945-.557 1.3-.351.334-.795.501-1.33.501-.517 0-.95-.167-1.3-.502a1.776 1.776 0 01-.527-1.299V30.113c0-.512.176-.935.526-1.27a1.899 1.899 0 011.362-.53c.536 0 .97.176 1.3.53.35.335.526.758.526 1.27v18.244zm14.905-13.992c.536 0 .98.177 1.331.531.35.335.526.758.526 1.27v7.498c0 2.086-.609 3.739-1.826 4.96-1.217 1.22-2.97 1.83-5.261 1.83-2.29 0-4.044-.61-5.26-1.83-1.197-1.221-1.795-2.874-1.795-4.96v-7.498c0-.512.175-.935.526-1.27.35-.354.794-.531 1.33-.531.537 0 .98.177 1.33.531.352.335.527.758.527 1.27v7.498c0 1.2.28 2.096.836 2.686.557.57 1.392.856 2.506.856 1.135 0 1.98-.285 2.538-.856.557-.59.836-1.486.836-2.686v-7.498c0-.512.175-.935.526-1.27.35-.354.794-.531 1.33-.531zm13.026-.295c1.65 0 2.868.383 3.652 1.15.784.749 1.3 1.723 1.547 2.923l-.526-.265.248-.473c.247-.452.629-.934 1.145-1.446a6.631 6.631 0 011.857-1.328c.742-.374 1.568-.561 2.475-.561 1.486 0 2.61.305 3.374.915.784.61 1.32 1.427 1.609 2.45.289 1.004.433 2.125.433 3.365v7.557c0 .512-.175.945-.526 1.3-.351.334-.794.501-1.331.501-.536 0-.98-.167-1.33-.502a1.776 1.776 0 01-.527-1.299v-7.557c0-.65-.082-1.23-.247-1.742a2.403 2.403 0 00-.898-1.269c-.433-.315-1.052-.472-1.856-.472-.784 0-1.455.157-2.012.472-.557.315-.98.738-1.269 1.27-.268.511-.402 1.092-.402 1.741v7.557c0 .512-.176.945-.526 1.3-.351.334-.795.501-1.331.501-.536 0-.98-.167-1.33-.502a1.775 1.775 0 01-.527-1.299v-7.557c0-.65-.082-1.23-.248-1.742a2.405 2.405 0 00-.897-1.269c-.433-.315-1.052-.472-1.857-.472-.784 0-1.454.157-2.011.472-.557.315-.98.738-1.269 1.27-.268.511-.402 1.092-.402 1.741v7.557c0 .512-.175.945-.526 1.3-.351.334-.794.501-1.33.501-.537 0-.98-.167-1.332-.502a1.776 1.776 0 01-.526-1.299V36.164c0-.512.175-.935.526-1.27.351-.354.794-.531 1.331-.531.537 0 .98.177 1.331.531.35.335.526.758.526 1.27v1.269l-.465-.089c.186-.334.445-.688.774-1.062.33-.394.733-.758 1.207-1.093.475-.334 1-.6 1.578-.797a5.342 5.342 0 011.888-.324zm21.783 14.287c0 .512-.175.945-.526 1.3-.351.334-.794.501-1.331.501-.536 0-.98-.167-1.331-.502a1.778 1.778 0 01-.525-1.299V36.164c0-.512.175-.935.525-1.27.351-.354.795-.531 1.331-.531.537 0 .98.177 1.331.531.351.335.526.758.526 1.27v12.191zm-1.888-15.911c-.701 0-1.196-.108-1.486-.325-.288-.216-.432-.6-.432-1.151v-.56c0-.572.155-.955.463-1.152.331-.217.826-.325 1.486-.325.723 0 1.228.108 1.516.325.29.216.434.6.434 1.151v.561c0 .57-.155.964-.465 1.18-.308.198-.814.296-1.516.296zm13.008 1.624c1.527 0 2.682.305 3.466.915.805.61 1.351 1.427 1.64 2.45.31 1.004.464 2.125.464 3.365v7.557c0 .512-.175.945-.526 1.3-.35.334-.794.501-1.331.501-.536 0-.979-.167-1.33-.502a1.776 1.776 0 01-.527-1.299v-7.557c0-.65-.092-1.23-.277-1.742a2.357 2.357 0 00-.929-1.269c-.454-.315-1.104-.472-1.95-.472-.825 0-1.527.157-2.104.472a3.42 3.42 0 00-1.3 1.27c-.289.511-.434 1.092-.434 1.741v7.557c0 .512-.174.945-.525 1.3-.351.334-.795.501-1.331.501-.537 0-.98-.167-1.33-.502a1.772 1.772 0 01-.527-1.299V36.164c0-.512.175-.935.527-1.27.35-.354.793-.531 1.33-.531.536 0 .98.177 1.331.531.351.335.525.758.525 1.27v1.269l-.463-.089c.186-.334.453-.688.804-1.062a7.252 7.252 0 011.238-1.093 6.069 6.069 0 011.609-.797 5.696 5.696 0 011.95-.324zm23.944 8.206c0 1.614-.382 3.04-1.145 4.28a7.828 7.828 0 01-3.033 2.864c-1.259.69-2.672 1.033-4.24 1.033s-2.992-.344-4.27-1.033a8.121 8.121 0 01-3.033-2.863c-.743-1.24-1.114-2.667-1.114-4.28 0-1.614.371-3.032 1.114-4.252a8.049 8.049 0 013.033-2.893c1.278-.708 2.702-1.062 4.27-1.062 1.568 0 2.981.354 4.24 1.062a7.763 7.763 0 013.033 2.893c.763 1.22 1.145 2.637 1.145 4.251zm-3.714 0c0-1.003-.216-1.87-.65-2.598a4.431 4.431 0 00-1.702-1.741c-.701-.413-1.485-.62-2.352-.62-.866 0-1.661.207-2.383.62a4.724 4.724 0 00-1.702 1.741c-.412.729-.619 1.595-.619 2.598 0 .984.207 1.85.619 2.598a4.792 4.792 0 001.702 1.712c.722.413 1.517.62 2.383.62.867 0 1.651-.206 2.352-.62a4.487 4.487 0 001.702-1.712c.434-.748.65-1.614.65-2.598zm17.555-7.911c.536 0 .98.177 1.331.531.35.335.526.758.526 1.27v7.498c0 2.086-.609 3.739-1.826 4.96-1.218 1.22-2.971 1.83-5.261 1.83s-4.044-.61-5.261-1.83c-1.197-1.221-1.795-2.874-1.795-4.96v-7.498c0-.512.175-.935.526-1.27.351-.354.794-.531 1.331-.531.536 0 .98.177 1.331.531.35.335.526.758.526 1.27v7.498c0 1.2.278 2.096.835 2.686.557.57 1.393.856 2.507.856 1.134 0 1.981-.285 2.537-.856.558-.59.836-1.486.836-2.686v-7.498c0-.512.176-.935.526-1.27.351-.354.795-.531 1.331-.531zm3.37 13.343c-.206-.276-.299-.63-.278-1.063.021-.433.289-.807.805-1.121.33-.197.68-.276 1.052-.237.371.02.732.197 1.083.532a7.31 7.31 0 001.888 1.328c.66.315 1.485.472 2.475.472.31-.02.65-.059 1.021-.118.372-.078.692-.236.96-.472.288-.256.433-.64.433-1.151 0-.433-.155-.778-.464-1.033-.31-.256-.722-.473-1.238-.65a18.605 18.605 0 00-1.671-.502c-.64-.177-1.3-.374-1.981-.59a8.939 8.939 0 01-1.826-.827 4.282 4.282 0 01-1.361-1.387c-.351-.57-.526-1.29-.526-2.155 0-.984.288-1.82.866-2.51.578-.688 1.321-1.22 2.228-1.593a7.715 7.715 0 012.909-.561c.64 0 1.31.078 2.012.236a7.384 7.384 0 012.011.708 4.76 4.76 0 011.61 1.27c.226.295.361.649.402 1.062.041.414-.155.788-.588 1.122a1.6 1.6 0 01-1.083.325c-.412-.04-.753-.177-1.021-.413-.351-.433-.825-.778-1.424-1.034-.578-.255-1.248-.383-2.012-.383-.309 0-.649.039-1.021.118-.35.059-.66.206-.928.443-.268.216-.403.57-.403 1.062 0 .453.155.817.465 1.092.309.256.722.473 1.238.65a62.33 62.33 0 001.702.472 25.57 25.57 0 011.888.561 7.613 7.613 0 011.763.856c.537.354.97.817 1.3 1.388.331.55.495 1.26.495 2.125 0 1.004-.309 1.86-.928 2.568-.619.709-1.393 1.25-2.321 1.624a7.922 7.922 0 01-2.847.531 11.81 11.81 0 01-3.652-.59 6.408 6.408 0 01-3.033-2.155z" fill="#81818B"/></svg>