<svg width="1002" height="925" viewBox="0 0 1002 925" fill="none" xmlns="http://www.w3.org/2000/svg">
<g opacity="0.7">
<g filter="url(#filter0_f_1_927)">
<path d="M612.356 280.317C647.764 314.845 668.005 362.025 668.626 411.477C669.248 460.929 650.199 508.602 615.671 544.01C581.143 579.417 533.963 599.658 484.512 600.28C435.06 600.901 387.386 581.853 351.979 547.325L482.168 413.821L612.356 280.317Z" fill="#AC6AFF"/>
</g>
<g filter="url(#filter1_f_1_927)">
<path d="M306.237 569.692C270.9 535.091 250.756 487.87 250.236 438.417C249.715 388.964 268.861 341.33 303.462 305.993C338.063 270.657 385.284 250.513 434.737 249.992C484.19 249.472 531.824 268.618 567.161 303.219L436.699 436.455L306.237 569.692Z" fill="#FF82CD"/>
</g>
<g filter="url(#filter2_f_1_927)">
<path d="M531.086 451.935C495.749 417.335 475.605 370.114 475.085 320.661C474.564 271.208 493.711 223.573 528.311 188.237C562.912 152.9 610.133 132.756 659.586 132.236C709.039 131.715 756.673 150.861 792.01 185.462L661.548 318.699L531.086 451.935Z" fill="#5AF899" fill-opacity="0.7"/>
</g>
<g filter="url(#filter3_f_1_927)">
<path d="M334.883 674.623C299.547 640.022 279.402 592.801 278.882 543.348C278.362 493.895 297.508 446.26 332.109 410.924C366.709 375.587 413.93 355.443 463.383 354.923C512.836 354.402 560.471 373.549 595.807 408.149L465.345 541.386L334.883 674.623Z" fill="#FFDF6C"/>
</g>
</g>
<path d="M182.1 557C180.7 557 179.3 556.2 178.1 555.5C176.2 554.5 175 553.9 174 554.5L173 553C175 551.7 177.1 552.9 178.9 553.9C180.8 554.9 182 555.5 183 554.9C184 554.2 184 552.9 183.7 550.8C183.5 548.7 183.3 546.3 185.2 545C187.2 543.7 189.3 544.9 191.1 545.9C193 546.9 194.2 547.5 195.2 546.9C196.2 546.2 196.2 544.9 195.9 542.8C195.7 540.7 195.5 538.3 197.4 537C199.4 535.7 201.5 536.9 203.3 537.9C205.2 538.9 206.4 539.5 207.4 538.9C208.4 538.2 208.4 536.9 208.1 534.8C207.9 532.7 207.7 530.3 209.6 529C211.6 527.7 213.7 528.9 215.5 529.9C217.4 530.9 218.6 531.5 219.6 530.9C220.6 530.2 220.6 528.9 220.3 526.8C220.1 524.7 219.9 522.3 221.8 521C223.8 519.7 225.9 520.9 227.7 521.9C229.6 522.9 230.8 523.5 231.8 522.9C232.8 522.2 232.8 520.9 232.6 518.8C232.4 516.7 232.2 514.3 234.1 513L235.1 514.5C234.1 515.2 234.1 516.5 234.3 518.6C234.5 520.7 234.7 523.1 232.8 524.4C230.8 525.7 228.7 524.5 226.9 523.5C225 522.5 223.8 521.9 222.8 522.5C221.8 523.2 221.8 524.5 222.1 526.6C222.3 528.7 222.5 531.1 220.6 532.4C218.6 533.7 216.5 532.5 214.7 531.5C212.8 530.5 211.6 529.9 210.6 530.5C209.6 531.2 209.6 532.5 209.9 534.6C210.1 536.7 210.3 539.1 208.4 540.4C206.4 541.7 204.3 540.5 202.5 539.5C200.6 538.5 199.4 537.9 198.4 538.5C197.4 539.2 197.4 540.5 197.7 542.6C197.9 544.7 198.1 547.1 196.2 548.4C194.2 549.7 192.1 548.5 190.3 547.5C188.4 546.5 187.2 545.9 186.2 546.5C185.2 547.2 185.2 548.5 185.5 550.6C185.7 552.7 185.9 555.1 184 556.4C183.3 556.8 182.7 557 182.1 557Z" fill="white"/>
<path d="M707.1 241C705.7 241 704.3 240.2 703.1 239.5C701.2 238.5 700 237.9 699 238.5L698 237C700 235.7 702.1 236.9 703.9 237.9C705.8 238.9 707 239.5 708 238.9C709 238.2 709 236.9 708.7 234.8C708.5 232.7 708.3 230.3 710.2 229C712.2 227.7 714.3 228.9 716.1 229.9C718 230.9 719.2 231.5 720.2 230.9C721.2 230.2 721.2 228.9 720.9 226.8C720.7 224.7 720.5 222.3 722.4 221C724.4 219.7 726.5 220.9 728.3 221.9C730.2 222.9 731.4 223.5 732.4 222.9C733.4 222.2 733.4 220.9 733.1 218.8C732.9 216.7 732.7 214.3 734.6 213C736.6 211.7 738.7 212.9 740.5 213.9C742.4 214.9 743.6 215.5 744.6 214.9C745.6 214.2 745.6 212.9 745.3 210.8C745.1 208.7 744.9 206.3 746.8 205C748.8 203.7 750.9 204.9 752.7 205.9C754.6 206.9 755.8 207.5 756.8 206.9C757.8 206.2 757.8 204.9 757.6 202.8C757.4 200.7 757.2 198.3 759.1 197L760.1 198.5C759.1 199.2 759.1 200.5 759.3 202.6C759.5 204.7 759.7 207.1 757.8 208.4C755.8 209.7 753.7 208.5 751.9 207.5C750 206.5 748.8 205.9 747.8 206.5C746.8 207.2 746.8 208.5 747.1 210.6C747.3 212.7 747.5 215.1 745.6 216.4C743.6 217.7 741.5 216.5 739.7 215.5C737.8 214.5 736.6 213.9 735.6 214.5C734.6 215.2 734.6 216.5 734.9 218.6C735.1 220.7 735.3 223.1 733.4 224.4C731.4 225.7 729.3 224.5 727.5 223.5C725.6 222.5 724.4 221.9 723.4 222.5C722.4 223.2 722.4 224.5 722.7 226.6C722.9 228.7 723.1 231.1 721.2 232.4C719.2 233.7 717.1 232.5 715.3 231.5C713.4 230.5 712.2 229.9 711.2 230.5C710.2 231.2 710.2 232.5 710.5 234.6C710.7 236.7 710.9 239.1 709 240.4C708.3 240.8 707.7 241 707.1 241Z" fill="white"/>
<path d="M739.1 510C737.7 510 736.3 509.2 735.1 508.5C733.2 507.5 732 506.9 731 507.5L730 506C732 504.7 734.1 505.9 735.9 506.9C737.8 507.9 739 508.5 740 507.9C741 507.2 741 505.9 740.7 503.8C740.5 501.7 740.3 499.3 742.2 498C744.2 496.7 746.3 497.9 748.1 498.9C750 499.9 751.2 500.5 752.2 499.9C753.2 499.2 753.2 497.9 752.9 495.8C752.7 493.7 752.5 491.3 754.4 490C756.4 488.7 758.5 489.9 760.3 490.9C762.2 491.9 763.4 492.5 764.4 491.9C765.4 491.2 765.4 489.9 765.1 487.8C764.9 485.7 764.7 483.3 766.6 482C768.6 480.7 770.7 481.9 772.5 482.9C774.4 483.9 775.6 484.5 776.6 483.9C777.6 483.2 777.6 481.9 777.3 479.8C777.1 477.7 776.9 475.3 778.8 474C780.8 472.7 782.9 473.9 784.7 474.9C786.6 475.9 787.8 476.5 788.8 475.9C789.8 475.2 789.8 473.9 789.6 471.8C789.4 469.7 789.2 467.3 791.1 466L792.1 467.5C791.1 468.2 791.1 469.5 791.3 471.6C791.5 473.7 791.7 476.1 789.8 477.4C787.8 478.7 785.7 477.5 783.9 476.5C782 475.5 780.8 474.9 779.8 475.5C778.8 476.2 778.8 477.5 779.1 479.6C779.3 481.7 779.5 484.1 777.6 485.4C775.6 486.7 773.5 485.5 771.7 484.5C769.8 483.5 768.6 482.9 767.6 483.5C766.6 484.2 766.6 485.5 766.9 487.6C767.1 489.7 767.3 492.1 765.4 493.4C763.4 494.7 761.3 493.5 759.5 492.5C757.6 491.5 756.4 490.9 755.4 491.5C754.4 492.2 754.4 493.5 754.7 495.6C754.9 497.7 755.1 500.1 753.2 501.4C751.2 502.7 749.1 501.5 747.3 500.5C745.4 499.5 744.2 498.9 743.2 499.5C742.2 500.2 742.2 501.5 742.5 503.6C742.7 505.7 742.9 508.1 741 509.4C740.3 509.8 739.7 510 739.1 510Z" fill="white"/>
<path d="M901.923 194.482C902.333 194.482 902.665 194.151 902.665 193.741C902.665 193.332 902.333 193 901.923 193C901.514 193 901.182 193.332 901.182 193.741C901.182 194.151 901.514 194.482 901.923 194.482Z" fill="#8643DC"/>
<path d="M898.217 198.188C898.627 198.188 898.959 197.857 898.959 197.447C898.959 197.038 898.627 196.706 898.217 196.706C897.808 196.706 897.476 197.038 897.476 197.447C897.476 197.857 897.808 198.188 898.217 198.188Z" fill="#8643DC"/>
<path d="M894.326 201.895C894.735 201.895 895.067 201.563 895.067 201.153C895.067 200.744 894.735 200.412 894.326 200.412C893.917 200.412 893.585 200.744 893.585 201.153C893.585 201.563 893.917 201.895 894.326 201.895Z" fill="#8643DC"/>
<path d="M890.62 205.601C891.029 205.601 891.361 205.269 891.361 204.859C891.361 204.45 891.029 204.118 890.62 204.118C890.21 204.118 889.879 204.45 889.879 204.859C889.879 205.269 890.21 205.601 890.62 205.601Z" fill="#8643DC"/>
<path d="M886.728 209.492C887.138 209.492 887.47 209.16 887.47 208.751C887.47 208.341 887.138 208.01 886.728 208.01C886.319 208.01 885.987 208.341 885.987 208.751C885.987 209.16 886.319 209.492 886.728 209.492Z" fill="#8643DC"/>
<path d="M883.022 213.198C883.432 213.198 883.764 212.866 883.764 212.457C883.764 212.047 883.432 211.716 883.022 211.716C882.613 211.716 882.281 212.047 882.281 212.457C882.281 212.866 882.613 213.198 883.022 213.198Z" fill="#8643DC"/>
<path d="M879.131 216.904C879.54 216.904 879.872 216.572 879.872 216.163C879.872 215.754 879.54 215.422 879.131 215.422C878.722 215.422 878.39 215.754 878.39 216.163C878.39 216.572 878.722 216.904 879.131 216.904Z" fill="#8643DC"/>
<path d="M875.425 220.61C875.834 220.61 876.166 220.278 876.166 219.869C876.166 219.46 875.834 219.128 875.425 219.128C875.015 219.128 874.684 219.46 874.684 219.869C874.684 220.278 875.015 220.61 875.425 220.61Z" fill="#8643DC"/>
<path d="M871.534 224.316C871.943 224.316 872.275 223.985 872.275 223.575C872.275 223.166 871.943 222.834 871.534 222.834C871.124 222.834 870.792 223.166 870.792 223.575C870.792 223.985 871.124 224.316 871.534 224.316Z" fill="#8643DC"/>
<path d="M867.827 228.022C868.237 228.022 868.569 227.691 868.569 227.281C868.569 226.872 868.237 226.54 867.827 226.54C867.418 226.54 867.086 226.872 867.086 227.281C867.086 227.691 867.418 228.022 867.827 228.022Z" fill="#8643DC"/>
<path d="M863.936 231.728C864.346 231.728 864.677 231.397 864.677 230.987C864.677 230.578 864.346 230.246 863.936 230.246C863.527 230.246 863.195 230.578 863.195 230.987C863.195 231.397 863.527 231.728 863.936 231.728Z" fill="#8643DC"/>
<path d="M860.23 235.435C860.639 235.435 860.971 235.103 860.971 234.693C860.971 234.284 860.639 233.952 860.23 233.952C859.821 233.952 859.489 234.284 859.489 234.693C859.489 235.103 859.821 235.435 860.23 235.435Z" fill="#8643DC"/>
<path d="M856.339 239.141C856.748 239.141 857.08 238.809 857.08 238.399C857.08 237.99 856.748 237.658 856.339 237.658C855.929 237.658 855.597 237.99 855.597 238.399C855.597 238.809 855.929 239.141 856.339 239.141Z" fill="#8643DC"/>
<path d="M852.633 242.847C853.042 242.847 853.374 242.515 853.374 242.105C853.374 241.696 853.042 241.364 852.633 241.364C852.223 241.364 851.891 241.696 851.891 242.105C851.891 242.515 852.223 242.847 852.633 242.847Z" fill="#8643DC"/>
<path d="M848.741 246.553C849.151 246.553 849.482 246.221 849.482 245.812C849.482 245.402 849.151 245.07 848.741 245.07C848.332 245.07 848 245.402 848 245.812C848 246.221 848.332 246.553 848.741 246.553Z" fill="#8643DC"/>
<path d="M906.371 198.93C906.78 198.93 907.112 198.598 907.112 198.188C907.112 197.779 906.78 197.447 906.371 197.447C905.961 197.447 905.629 197.779 905.629 198.188C905.629 198.598 905.961 198.93 906.371 198.93Z" fill="#8643DC"/>
<path d="M902.664 202.636C903.074 202.636 903.406 202.304 903.406 201.895C903.406 201.485 903.074 201.153 902.664 201.153C902.255 201.153 901.923 201.485 901.923 201.895C901.923 202.304 902.255 202.636 902.664 202.636Z" fill="#8643DC"/>
<path d="M898.773 206.527C899.182 206.527 899.514 206.195 899.514 205.786C899.514 205.377 899.182 205.045 898.773 205.045C898.364 205.045 898.032 205.377 898.032 205.786C898.032 206.195 898.364 206.527 898.773 206.527Z" fill="#8643DC"/>
<path d="M894.882 210.233C895.291 210.233 895.623 209.901 895.623 209.492C895.623 209.083 895.291 208.751 894.882 208.751C894.472 208.751 894.141 209.083 894.141 209.492C894.141 209.901 894.472 210.233 894.882 210.233Z" fill="#8643DC"/>
<path d="M891.176 213.939C891.585 213.939 891.917 213.607 891.917 213.198C891.917 212.789 891.585 212.457 891.176 212.457C890.766 212.457 890.434 212.789 890.434 213.198C890.434 213.607 890.766 213.939 891.176 213.939Z" fill="#8643DC"/>
<path d="M887.284 217.645C887.694 217.645 888.026 217.313 888.026 216.904C888.026 216.495 887.694 216.163 887.284 216.163C886.875 216.163 886.543 216.495 886.543 216.904C886.543 217.313 886.875 217.645 887.284 217.645Z" fill="#8643DC"/>
<path d="M883.578 221.352C883.988 221.352 884.32 221.02 884.32 220.61C884.32 220.201 883.988 219.869 883.578 219.869C883.169 219.869 882.837 220.201 882.837 220.61C882.837 221.02 883.169 221.352 883.578 221.352Z" fill="#8643DC"/>
<path d="M879.687 225.058C880.096 225.058 880.428 224.726 880.428 224.316C880.428 223.907 880.096 223.575 879.687 223.575C879.277 223.575 878.946 223.907 878.946 224.316C878.946 224.726 879.277 225.058 879.687 225.058Z" fill="#8643DC"/>
<path d="M875.981 228.764C876.39 228.764 876.722 228.432 876.722 228.022C876.722 227.613 876.39 227.281 875.981 227.281C875.571 227.281 875.24 227.613 875.24 228.022C875.24 228.432 875.571 228.764 875.981 228.764Z" fill="#8643DC"/>
<path d="M872.089 232.47C872.499 232.47 872.831 232.138 872.831 231.729C872.831 231.319 872.499 230.987 872.089 230.987C871.68 230.987 871.348 231.319 871.348 231.729C871.348 232.138 871.68 232.47 872.089 232.47Z" fill="#8643DC"/>
<path d="M868.383 236.176C868.793 236.176 869.124 235.844 869.124 235.435C869.124 235.025 868.793 234.693 868.383 234.693C867.974 234.693 867.642 235.025 867.642 235.435C867.642 235.844 867.974 236.176 868.383 236.176Z" fill="#8643DC"/>
<path d="M864.492 239.882C864.901 239.882 865.233 239.55 865.233 239.141C865.233 238.731 864.901 238.399 864.492 238.399C864.082 238.399 863.751 238.731 863.751 239.141C863.751 239.55 864.082 239.882 864.492 239.882Z" fill="#8643DC"/>
<path d="M860.786 243.588C861.195 243.588 861.527 243.256 861.527 242.847C861.527 242.437 861.195 242.105 860.786 242.105C860.377 242.105 860.045 242.437 860.045 242.847C860.045 243.256 860.377 243.588 860.786 243.588Z" fill="#8643DC"/>
<path d="M856.894 247.294C857.304 247.294 857.636 246.962 857.636 246.553C857.636 246.143 857.304 245.812 856.894 245.812C856.485 245.812 856.153 246.143 856.153 246.553C856.153 246.962 856.485 247.294 856.894 247.294Z" fill="#8643DC"/>
<path d="M853.188 251C853.598 251 853.93 250.668 853.93 250.259C853.93 249.849 853.598 249.518 853.188 249.518C852.779 249.518 852.447 249.849 852.447 250.259C852.447 250.668 852.779 251 853.188 251Z" fill="#8643DC"/>
<path d="M910.818 203.562C911.227 203.562 911.559 203.23 911.559 202.821C911.559 202.412 911.227 202.08 910.818 202.08C910.409 202.08 910.077 202.412 910.077 202.821C910.077 203.23 910.409 203.562 910.818 203.562Z" fill="#8643DC"/>
<path d="M906.927 207.268C907.336 207.268 907.668 206.936 907.668 206.527C907.668 206.118 907.336 205.786 906.927 205.786C906.517 205.786 906.185 206.118 906.185 206.527C906.185 206.936 906.517 207.268 906.927 207.268Z" fill="#8643DC"/>
<path d="M903.221 210.974C903.63 210.974 903.962 210.643 903.962 210.233C903.962 209.824 903.63 209.492 903.221 209.492C902.811 209.492 902.479 209.824 902.479 210.233C902.479 210.643 902.811 210.974 903.221 210.974Z" fill="#8643DC"/>
<path d="M899.329 214.68C899.738 214.68 900.07 214.349 900.07 213.939C900.07 213.53 899.738 213.198 899.329 213.198C898.92 213.198 898.588 213.53 898.588 213.939C898.588 214.349 898.92 214.68 899.329 214.68Z" fill="#8643DC"/>
<path d="M895.623 218.386C896.032 218.386 896.364 218.055 896.364 217.645C896.364 217.236 896.032 216.904 895.623 216.904C895.214 216.904 894.882 217.236 894.882 217.645C894.882 218.055 895.214 218.386 895.623 218.386Z" fill="#8643DC"/>
<path d="M891.732 222.093C892.141 222.093 892.473 221.761 892.473 221.351C892.473 220.942 892.141 220.61 891.732 220.61C891.322 220.61 890.991 220.942 890.991 221.351C890.991 221.761 891.322 222.093 891.732 222.093Z" fill="#8643DC"/>
<path d="M888.026 225.799C888.435 225.799 888.767 225.467 888.767 225.057C888.767 224.648 888.435 224.316 888.026 224.316C887.616 224.316 887.284 224.648 887.284 225.057C887.284 225.467 887.616 225.799 888.026 225.799Z" fill="#8643DC"/>
<path d="M884.134 229.505C884.544 229.505 884.876 229.173 884.876 228.764C884.876 228.354 884.544 228.022 884.134 228.022C883.725 228.022 883.393 228.354 883.393 228.764C883.393 229.173 883.725 229.505 884.134 229.505Z" fill="#8643DC"/>
<path d="M880.243 233.211C880.652 233.211 880.984 232.879 880.984 232.47C880.984 232.06 880.652 231.729 880.243 231.729C879.834 231.729 879.502 232.06 879.502 232.47C879.502 232.879 879.834 233.211 880.243 233.211Z" fill="#8643DC"/>
<path d="M876.537 236.917C876.946 236.917 877.278 236.585 877.278 236.176C877.278 235.766 876.946 235.435 876.537 235.435C876.128 235.435 875.796 235.766 875.796 236.176C875.796 236.585 876.128 236.917 876.537 236.917Z" fill="#8643DC"/>
<path d="M872.645 240.623C873.055 240.623 873.387 240.291 873.387 239.882C873.387 239.472 873.055 239.141 872.645 239.141C872.236 239.141 871.904 239.472 871.904 239.882C871.904 240.291 872.236 240.623 872.645 240.623Z" fill="#8643DC"/>
<path d="M868.939 244.329C869.349 244.329 869.681 243.997 869.681 243.588C869.681 243.179 869.349 242.847 868.939 242.847C868.53 242.847 868.198 243.179 868.198 243.588C868.198 243.997 868.53 244.329 868.939 244.329Z" fill="#8643DC"/>
<path d="M865.048 248.035C865.457 248.035 865.789 247.703 865.789 247.294C865.789 246.885 865.457 246.553 865.048 246.553C864.639 246.553 864.307 246.885 864.307 247.294C864.307 247.703 864.639 248.035 865.048 248.035Z" fill="#8643DC"/>
<path d="M861.342 251.741C861.751 251.741 862.083 251.409 862.083 251C862.083 250.591 861.751 250.259 861.342 250.259C860.933 250.259 860.601 250.591 860.601 251C860.601 251.409 860.933 251.741 861.342 251.741Z" fill="#8643DC"/>
<path d="M857.451 255.447C857.86 255.447 858.192 255.115 858.192 254.706C858.192 254.297 857.86 253.965 857.451 253.965C857.041 253.965 856.709 254.297 856.709 254.706C856.709 255.115 857.041 255.447 857.451 255.447Z" fill="#8643DC"/>
<path d="M915.08 208.01C915.489 208.01 915.821 207.678 915.821 207.268C915.821 206.859 915.489 206.527 915.08 206.527C914.671 206.527 914.339 206.859 914.339 207.268C914.339 207.678 914.671 208.01 915.08 208.01Z" fill="#8643DC"/>
<path d="M911.374 211.716C911.783 211.716 912.115 211.384 912.115 210.974C912.115 210.565 911.783 210.233 911.374 210.233C910.964 210.233 910.633 210.565 910.633 210.974C910.633 211.384 910.964 211.716 911.374 211.716Z" fill="#8643DC"/>
<path d="M907.483 215.422C907.892 215.422 908.224 215.09 908.224 214.68C908.224 214.271 907.892 213.939 907.483 213.939C907.073 213.939 906.741 214.271 906.741 214.68C906.741 215.09 907.073 215.422 907.483 215.422Z" fill="#8643DC"/>
<path d="M903.776 219.128C904.186 219.128 904.518 218.796 904.518 218.386C904.518 217.977 904.186 217.645 903.776 217.645C903.367 217.645 903.035 217.977 903.035 218.386C903.035 218.796 903.367 219.128 903.776 219.128Z" fill="#8643DC"/>
<path d="M899.885 222.834C900.294 222.834 900.626 222.502 900.626 222.093C900.626 221.683 900.294 221.351 899.885 221.351C899.476 221.351 899.144 221.683 899.144 222.093C899.144 222.502 899.476 222.834 899.885 222.834Z" fill="#8643DC"/>
<path d="M896.179 226.54C896.588 226.54 896.92 226.208 896.92 225.799C896.92 225.389 896.588 225.057 896.179 225.057C895.77 225.057 895.438 225.389 895.438 225.799C895.438 226.208 895.77 226.54 896.179 226.54Z" fill="#8643DC"/>
<path d="M892.288 230.246C892.697 230.246 893.029 229.914 893.029 229.505C893.029 229.095 892.697 228.763 892.288 228.763C891.878 228.763 891.546 229.095 891.546 229.505C891.546 229.914 891.878 230.246 892.288 230.246Z" fill="#8643DC"/>
<path d="M888.582 233.952C888.991 233.952 889.323 233.62 889.323 233.211C889.323 232.801 888.991 232.469 888.582 232.469C888.172 232.469 887.84 232.801 887.84 233.211C887.84 233.62 888.172 233.952 888.582 233.952Z" fill="#8643DC"/>
<path d="M884.69 237.658C885.099 237.658 885.431 237.326 885.431 236.917C885.431 236.508 885.099 236.176 884.69 236.176C884.281 236.176 883.949 236.508 883.949 236.917C883.949 237.326 884.281 237.658 884.69 237.658Z" fill="#8643DC"/>
<path d="M880.984 241.364C881.393 241.364 881.725 241.032 881.725 240.623C881.725 240.214 881.393 239.882 880.984 239.882C880.575 239.882 880.243 240.214 880.243 240.623C880.243 241.032 880.575 241.364 880.984 241.364Z" fill="#8643DC"/>
<path d="M877.093 245.07C877.502 245.07 877.834 244.738 877.834 244.329C877.834 243.92 877.502 243.588 877.093 243.588C876.683 243.588 876.351 243.92 876.351 244.329C876.351 244.738 876.683 245.07 877.093 245.07Z" fill="#8643DC"/>
<path d="M873.387 248.776C873.796 248.776 874.128 248.445 874.128 248.035C874.128 247.626 873.796 247.294 873.387 247.294C872.977 247.294 872.645 247.626 872.645 248.035C872.645 248.445 872.977 248.776 873.387 248.776Z" fill="#8643DC"/>
<path d="M869.495 252.482C869.905 252.482 870.237 252.151 870.237 251.741C870.237 251.332 869.905 251 869.495 251C869.086 251 868.754 251.332 868.754 251.741C868.754 252.151 869.086 252.482 869.495 252.482Z" fill="#8643DC"/>
<path d="M865.789 256.189C866.199 256.189 866.53 255.857 866.53 255.447C866.53 255.038 866.199 254.706 865.789 254.706C865.38 254.706 865.048 255.038 865.048 255.447C865.048 255.857 865.38 256.189 865.789 256.189Z" fill="#8643DC"/>
<path d="M861.898 260.08C862.307 260.08 862.639 259.748 862.639 259.339C862.639 258.929 862.307 258.597 861.898 258.597C861.489 258.597 861.157 258.929 861.157 259.339C861.157 259.748 861.489 260.08 861.898 260.08Z" fill="#8643DC"/>
<path d="M919.527 212.457C919.936 212.457 920.268 212.125 920.268 211.716C920.268 211.306 919.936 210.974 919.527 210.974C919.118 210.974 918.786 211.306 918.786 211.716C918.786 212.125 919.118 212.457 919.527 212.457Z" fill="#8643DC"/>
<path d="M915.636 216.163C916.045 216.163 916.377 215.831 916.377 215.422C916.377 215.012 916.045 214.68 915.636 214.68C915.226 214.68 914.895 215.012 914.895 215.422C914.895 215.831 915.226 216.163 915.636 216.163Z" fill="#8643DC"/>
<path d="M911.93 219.869C912.339 219.869 912.671 219.537 912.671 219.128C912.671 218.718 912.339 218.386 911.93 218.386C911.52 218.386 911.188 218.718 911.188 219.128C911.188 219.537 911.52 219.869 911.93 219.869Z" fill="#8643DC"/>
<path d="M908.038 223.575C908.448 223.575 908.779 223.243 908.779 222.834C908.779 222.424 908.448 222.093 908.038 222.093C907.629 222.093 907.297 222.424 907.297 222.834C907.297 223.243 907.629 223.575 908.038 223.575Z" fill="#8643DC"/>
<path d="M904.332 227.281C904.742 227.281 905.073 226.949 905.073 226.54C905.073 226.13 904.742 225.799 904.332 225.799C903.923 225.799 903.591 226.13 903.591 226.54C903.591 226.949 903.923 227.281 904.332 227.281Z" fill="#8643DC"/>
<path d="M900.441 230.987C900.85 230.987 901.182 230.655 901.182 230.246C901.182 229.837 900.85 229.505 900.441 229.505C900.031 229.505 899.7 229.837 899.7 230.246C899.7 230.655 900.031 230.987 900.441 230.987Z" fill="#8643DC"/>
<path d="M896.735 234.693C897.144 234.693 897.476 234.361 897.476 233.952C897.476 233.543 897.144 233.211 896.735 233.211C896.325 233.211 895.993 233.543 895.993 233.952C895.993 234.361 896.325 234.693 896.735 234.693Z" fill="#8643DC"/>
<path d="M892.843 238.399C893.253 238.399 893.585 238.067 893.585 237.658C893.585 237.249 893.253 236.917 892.843 236.917C892.434 236.917 892.102 237.249 892.102 237.658C892.102 238.067 892.434 238.399 892.843 238.399Z" fill="#8643DC"/>
<path d="M889.137 242.106C889.547 242.106 889.879 241.774 889.879 241.364C889.879 240.955 889.547 240.623 889.137 240.623C888.728 240.623 888.396 240.955 888.396 241.364C888.396 241.774 888.728 242.106 889.137 242.106Z" fill="#8643DC"/>
<path d="M885.246 245.812C885.655 245.812 885.987 245.48 885.987 245.07C885.987 244.661 885.655 244.329 885.246 244.329C884.837 244.329 884.505 244.661 884.505 245.07C884.505 245.48 884.837 245.812 885.246 245.812Z" fill="#8643DC"/>
<path d="M881.54 249.518C881.949 249.518 882.281 249.186 882.281 248.776C882.281 248.367 881.949 248.035 881.54 248.035C881.131 248.035 880.799 248.367 880.799 248.776C880.799 249.186 881.131 249.518 881.54 249.518Z" fill="#8643DC"/>
<path d="M877.648 253.224C878.058 253.224 878.39 252.892 878.39 252.482C878.39 252.073 878.058 251.741 877.648 251.741C877.239 251.741 876.907 252.073 876.907 252.482C876.907 252.892 877.239 253.224 877.648 253.224Z" fill="#8643DC"/>
<path d="M873.942 257.115C874.352 257.115 874.684 256.783 874.684 256.374C874.684 255.964 874.352 255.633 873.942 255.633C873.533 255.633 873.201 255.964 873.201 256.374C873.201 256.783 873.533 257.115 873.942 257.115Z" fill="#8643DC"/>
<path d="M870.051 260.821C870.46 260.821 870.792 260.489 870.792 260.08C870.792 259.67 870.46 259.339 870.051 259.339C869.642 259.339 869.31 259.67 869.31 260.08C869.31 260.489 869.642 260.821 870.051 260.821Z" fill="#8643DC"/>
<path d="M866.345 264.527C866.754 264.527 867.086 264.195 867.086 263.786C867.086 263.377 866.754 263.045 866.345 263.045C865.936 263.045 865.604 263.377 865.604 263.786C865.604 264.195 865.936 264.527 866.345 264.527Z" fill="#8643DC"/>
<path d="M923.974 216.904C924.384 216.904 924.716 216.572 924.716 216.163C924.716 215.754 924.384 215.422 923.974 215.422C923.565 215.422 923.233 215.754 923.233 216.163C923.233 216.572 923.565 216.904 923.974 216.904Z" fill="#8643DC"/>
<path d="M920.083 220.61C920.492 220.61 920.824 220.278 920.824 219.869C920.824 219.46 920.492 219.128 920.083 219.128C919.674 219.128 919.342 219.46 919.342 219.869C919.342 220.278 919.674 220.61 920.083 220.61Z" fill="#8643DC"/>
<path d="M916.377 224.316C916.786 224.316 917.118 223.985 917.118 223.575C917.118 223.166 916.786 222.834 916.377 222.834C915.968 222.834 915.636 223.166 915.636 223.575C915.636 223.985 915.968 224.316 916.377 224.316Z" fill="#8643DC"/>
<path d="M912.486 228.022C912.895 228.022 913.227 227.691 913.227 227.281C913.227 226.872 912.895 226.54 912.486 226.54C912.076 226.54 911.744 226.872 911.744 227.281C911.744 227.691 912.076 228.022 912.486 228.022Z" fill="#8643DC"/>
<path d="M908.594 231.728C909.004 231.728 909.335 231.397 909.335 230.987C909.335 230.578 909.004 230.246 908.594 230.246C908.185 230.246 907.853 230.578 907.853 230.987C907.853 231.397 908.185 231.728 908.594 231.728Z" fill="#8643DC"/>
<path d="M904.888 235.435C905.298 235.435 905.629 235.103 905.629 234.693C905.629 234.284 905.298 233.952 904.888 233.952C904.479 233.952 904.147 234.284 904.147 234.693C904.147 235.103 904.479 235.435 904.888 235.435Z" fill="#8643DC"/>
<path d="M900.997 239.141C901.406 239.141 901.738 238.809 901.738 238.399C901.738 237.99 901.406 237.658 900.997 237.658C900.587 237.658 900.256 237.99 900.256 238.399C900.256 238.809 900.587 239.141 900.997 239.141Z" fill="#8643DC"/>
<path d="M897.291 242.847C897.7 242.847 898.032 242.515 898.032 242.105C898.032 241.696 897.7 241.364 897.291 241.364C896.881 241.364 896.55 241.696 896.55 242.105C896.55 242.515 896.881 242.847 897.291 242.847Z" fill="#8643DC"/>
<path d="M893.399 246.553C893.809 246.553 894.14 246.221 894.14 245.812C894.14 245.402 893.809 245.071 893.399 245.071C892.99 245.071 892.658 245.402 892.658 245.812C892.658 246.221 892.99 246.553 893.399 246.553Z" fill="#8643DC"/>
<path d="M889.693 250.259C890.103 250.259 890.434 249.927 890.434 249.518C890.434 249.108 890.103 248.777 889.693 248.777C889.284 248.777 888.952 249.108 888.952 249.518C888.952 249.927 889.284 250.259 889.693 250.259Z" fill="#8643DC"/>
<path d="M885.802 254.15C886.211 254.15 886.543 253.818 886.543 253.409C886.543 253 886.211 252.668 885.802 252.668C885.393 252.668 885.061 253 885.061 253.409C885.061 253.818 885.393 254.15 885.802 254.15Z" fill="#8643DC"/>
<path d="M882.096 257.856C882.505 257.856 882.837 257.525 882.837 257.115C882.837 256.706 882.505 256.374 882.096 256.374C881.686 256.374 881.355 256.706 881.355 257.115C881.355 257.525 881.686 257.856 882.096 257.856Z" fill="#8643DC"/>
<path d="M878.204 261.563C878.614 261.563 878.946 261.231 878.946 260.821C878.946 260.412 878.614 260.08 878.204 260.08C877.795 260.08 877.463 260.412 877.463 260.821C877.463 261.231 877.795 261.563 878.204 261.563Z" fill="#8643DC"/>
<path d="M874.498 265.269C874.908 265.269 875.239 264.937 875.239 264.527C875.239 264.118 874.908 263.786 874.498 263.786C874.089 263.786 873.757 264.118 873.757 264.527C873.757 264.937 874.089 265.269 874.498 265.269Z" fill="#8643DC"/>
<path d="M870.607 268.975C871.016 268.975 871.348 268.643 871.348 268.233C871.348 267.824 871.016 267.492 870.607 267.492C870.198 267.492 869.866 267.824 869.866 268.233C869.866 268.643 870.198 268.975 870.607 268.975Z" fill="#8643DC"/>
<path d="M928.236 221.352C928.646 221.352 928.978 221.02 928.978 220.61C928.978 220.201 928.646 219.869 928.236 219.869C927.827 219.869 927.495 220.201 927.495 220.61C927.495 221.02 927.827 221.352 928.236 221.352Z" fill="#8643DC"/>
<path d="M924.53 225.058C924.94 225.058 925.272 224.726 925.272 224.316C925.272 223.907 924.94 223.575 924.53 223.575C924.121 223.575 923.789 223.907 923.789 224.316C923.789 224.726 924.121 225.058 924.53 225.058Z" fill="#8643DC"/>
<path d="M920.639 228.764C921.048 228.764 921.38 228.432 921.38 228.022C921.38 227.613 921.048 227.281 920.639 227.281C920.23 227.281 919.898 227.613 919.898 228.022C919.898 228.432 920.23 228.764 920.639 228.764Z" fill="#8643DC"/>
<path d="M916.933 232.47C917.342 232.47 917.674 232.138 917.674 231.729C917.674 231.319 917.342 230.987 916.933 230.987C916.523 230.987 916.192 231.319 916.192 231.729C916.192 232.138 916.523 232.47 916.933 232.47Z" fill="#8643DC"/>
<path d="M913.042 236.176C913.451 236.176 913.783 235.844 913.783 235.435C913.783 235.025 913.451 234.693 913.042 234.693C912.632 234.693 912.3 235.025 912.3 235.435C912.3 235.844 912.632 236.176 913.042 236.176Z" fill="#8643DC"/>
<path d="M909.336 239.882C909.745 239.882 910.077 239.55 910.077 239.141C910.077 238.731 909.745 238.399 909.336 238.399C908.926 238.399 908.594 238.731 908.594 239.141C908.594 239.55 908.926 239.882 909.336 239.882Z" fill="#8643DC"/>
<path d="M905.444 243.588C905.854 243.588 906.185 243.256 906.185 242.847C906.185 242.437 905.854 242.105 905.444 242.105C905.035 242.105 904.703 242.437 904.703 242.847C904.703 243.256 905.035 243.588 905.444 243.588Z" fill="#8643DC"/>
<path d="M901.738 247.294C902.148 247.294 902.479 246.962 902.479 246.553C902.479 246.143 902.148 245.812 901.738 245.812C901.329 245.812 900.997 246.143 900.997 246.553C900.997 246.962 901.329 247.294 901.738 247.294Z" fill="#8643DC"/>
<path d="M897.847 251C898.256 251 898.588 250.668 898.588 250.259C898.588 249.85 898.256 249.518 897.847 249.518C897.437 249.518 897.106 249.85 897.106 250.259C897.106 250.668 897.437 251 897.847 251Z" fill="#8643DC"/>
<path d="M893.955 254.892C894.365 254.892 894.697 254.56 894.697 254.15C894.697 253.741 894.365 253.409 893.955 253.409C893.546 253.409 893.214 253.741 893.214 254.15C893.214 254.56 893.546 254.892 893.955 254.892Z" fill="#8643DC"/>
<path d="M890.249 258.598C890.659 258.598 890.99 258.266 890.99 257.856C890.99 257.447 890.659 257.115 890.249 257.115C889.84 257.115 889.508 257.447 889.508 257.856C889.508 258.266 889.84 258.598 890.249 258.598Z" fill="#8643DC"/>
<path d="M886.358 262.304C886.767 262.304 887.099 261.972 887.099 261.562C887.099 261.153 886.767 260.821 886.358 260.821C885.948 260.821 885.617 261.153 885.617 261.562C885.617 261.972 885.948 262.304 886.358 262.304Z" fill="#8643DC"/>
<path d="M882.652 266.01C883.061 266.01 883.393 265.678 883.393 265.269C883.393 264.859 883.061 264.527 882.652 264.527C882.242 264.527 881.91 264.859 881.91 265.269C881.91 265.678 882.242 266.01 882.652 266.01Z" fill="#8643DC"/>
<path d="M878.76 269.716C879.17 269.716 879.502 269.384 879.502 268.975C879.502 268.565 879.17 268.233 878.76 268.233C878.351 268.233 878.019 268.565 878.019 268.975C878.019 269.384 878.351 269.716 878.76 269.716Z" fill="#8643DC"/>
<path d="M875.054 273.422C875.464 273.422 875.796 273.09 875.796 272.681C875.796 272.271 875.464 271.939 875.054 271.939C874.645 271.939 874.313 272.271 874.313 272.681C874.313 273.09 874.645 273.422 875.054 273.422Z" fill="#8643DC"/>
<path d="M932.684 225.799C933.093 225.799 933.425 225.467 933.425 225.058C933.425 224.648 933.093 224.316 932.684 224.316C932.274 224.316 931.943 224.648 931.943 225.058C931.943 225.467 932.274 225.799 932.684 225.799Z" fill="#8643DC"/>
<path d="M928.792 229.505C929.202 229.505 929.534 229.173 929.534 228.764C929.534 228.354 929.202 228.022 928.792 228.022C928.383 228.022 928.051 228.354 928.051 228.764C928.051 229.173 928.383 229.505 928.792 229.505Z" fill="#8643DC"/>
<path d="M925.086 233.211C925.496 233.211 925.828 232.879 925.828 232.47C925.828 232.06 925.496 231.729 925.086 231.729C924.677 231.729 924.345 232.06 924.345 232.47C924.345 232.879 924.677 233.211 925.086 233.211Z" fill="#8643DC"/>
<path d="M921.195 236.917C921.604 236.917 921.936 236.585 921.936 236.176C921.936 235.766 921.604 235.435 921.195 235.435C920.786 235.435 920.454 235.766 920.454 236.176C920.454 236.585 920.786 236.917 921.195 236.917Z" fill="#8643DC"/>
<path d="M917.489 240.623C917.898 240.623 918.23 240.291 918.23 239.882C918.23 239.472 917.898 239.141 917.489 239.141C917.079 239.141 916.748 239.472 916.748 239.882C916.748 240.291 917.079 240.623 917.489 240.623Z" fill="#8643DC"/>
<path d="M913.597 244.329C914.007 244.329 914.339 243.997 914.339 243.588C914.339 243.179 914.007 242.847 913.597 242.847C913.188 242.847 912.856 243.179 912.856 243.588C912.856 243.997 913.188 244.329 913.597 244.329Z" fill="#8643DC"/>
<path d="M909.891 248.035C910.301 248.035 910.633 247.703 910.633 247.294C910.633 246.885 910.301 246.553 909.891 246.553C909.482 246.553 909.15 246.885 909.15 247.294C909.15 247.703 909.482 248.035 909.891 248.035Z" fill="#8643DC"/>
<path d="M906 251.927C906.409 251.927 906.741 251.595 906.741 251.186C906.741 250.776 906.409 250.444 906 250.444C905.591 250.444 905.259 250.776 905.259 251.186C905.259 251.595 905.591 251.927 906 251.927Z" fill="#8643DC"/>
<path d="M902.294 255.633C902.703 255.633 903.035 255.301 903.035 254.892C903.035 254.482 902.703 254.15 902.294 254.15C901.885 254.15 901.553 254.482 901.553 254.892C901.553 255.301 901.885 255.633 902.294 255.633Z" fill="#8643DC"/>
<path d="M898.403 259.339C898.812 259.339 899.144 259.007 899.144 258.598C899.144 258.188 898.812 257.856 898.403 257.856C897.993 257.856 897.661 258.188 897.661 258.598C897.661 259.007 897.993 259.339 898.403 259.339Z" fill="#8643DC"/>
<path d="M894.696 263.045C895.106 263.045 895.438 262.713 895.438 262.304C895.438 261.894 895.106 261.562 894.696 261.562C894.287 261.562 893.955 261.894 893.955 262.304C893.955 262.713 894.287 263.045 894.696 263.045Z" fill="#8643DC"/>
<path d="M890.805 266.751C891.215 266.751 891.546 266.419 891.546 266.01C891.546 265.6 891.215 265.269 890.805 265.269C890.396 265.269 890.064 265.6 890.064 266.01C890.064 266.419 890.396 266.751 890.805 266.751Z" fill="#8643DC"/>
<path d="M887.099 270.457C887.508 270.457 887.84 270.125 887.84 269.716C887.84 269.306 887.508 268.975 887.099 268.975C886.69 268.975 886.358 269.306 886.358 269.716C886.358 270.125 886.69 270.457 887.099 270.457Z" fill="#8643DC"/>
<path d="M883.208 274.163C883.617 274.163 883.949 273.831 883.949 273.422C883.949 273.013 883.617 272.681 883.208 272.681C882.798 272.681 882.466 273.013 882.466 273.422C882.466 273.831 882.798 274.163 883.208 274.163Z" fill="#8643DC"/>
<path d="M879.502 277.869C879.911 277.869 880.243 277.537 880.243 277.128C880.243 276.719 879.911 276.387 879.502 276.387C879.092 276.387 878.76 276.719 878.76 277.128C878.76 277.537 879.092 277.869 879.502 277.869Z" fill="#8643DC"/>
<path d="M936.946 230.246C937.355 230.246 937.687 229.914 937.687 229.505C937.687 229.096 937.355 228.764 936.946 228.764C936.536 228.764 936.204 229.096 936.204 229.505C936.204 229.914 936.536 230.246 936.946 230.246Z" fill="#8643DC"/>
<path d="M933.239 233.952C933.649 233.952 933.981 233.62 933.981 233.211C933.981 232.802 933.649 232.47 933.239 232.47C932.83 232.47 932.498 232.802 932.498 233.211C932.498 233.62 932.83 233.952 933.239 233.952Z" fill="#8643DC"/>
<path d="M929.348 237.658C929.758 237.658 930.089 237.326 930.089 236.917C930.089 236.508 929.758 236.176 929.348 236.176C928.939 236.176 928.607 236.508 928.607 236.917C928.607 237.326 928.939 237.658 929.348 237.658Z" fill="#8643DC"/>
<path d="M925.642 241.364C926.051 241.364 926.383 241.032 926.383 240.623C926.383 240.214 926.051 239.882 925.642 239.882C925.233 239.882 924.901 240.214 924.901 240.623C924.901 241.032 925.233 241.364 925.642 241.364Z" fill="#8643DC"/>
<path d="M921.751 245.07C922.16 245.07 922.492 244.738 922.492 244.329C922.492 243.92 922.16 243.588 921.751 243.588C921.341 243.588 921.01 243.92 921.01 244.329C921.01 244.738 921.341 245.07 921.751 245.07Z" fill="#8643DC"/>
<path d="M918.045 248.962C918.454 248.962 918.786 248.63 918.786 248.22C918.786 247.811 918.454 247.479 918.045 247.479C917.635 247.479 917.304 247.811 917.304 248.22C917.304 248.63 917.635 248.962 918.045 248.962Z" fill="#8643DC"/>
<path d="M914.153 252.668C914.563 252.668 914.895 252.336 914.895 251.927C914.895 251.517 914.563 251.185 914.153 251.185C913.744 251.185 913.412 251.517 913.412 251.927C913.412 252.336 913.744 252.668 914.153 252.668Z" fill="#8643DC"/>
<path d="M910.447 256.374C910.857 256.374 911.189 256.042 911.189 255.633C911.189 255.223 910.857 254.892 910.447 254.892C910.038 254.892 909.706 255.223 909.706 255.633C909.706 256.042 910.038 256.374 910.447 256.374Z" fill="#8643DC"/>
<path d="M906.556 260.08C906.965 260.08 907.297 259.748 907.297 259.339C907.297 258.929 906.965 258.598 906.556 258.598C906.146 258.598 905.815 258.929 905.815 259.339C905.815 259.748 906.146 260.08 906.556 260.08Z" fill="#8643DC"/>
<path d="M902.85 263.786C903.259 263.786 903.591 263.454 903.591 263.045C903.591 262.636 903.259 262.304 902.85 262.304C902.44 262.304 902.109 262.636 902.109 263.045C902.109 263.454 902.44 263.786 902.85 263.786Z" fill="#8643DC"/>
<path d="M898.958 267.492C899.368 267.492 899.7 267.16 899.7 266.751C899.7 266.342 899.368 266.01 898.958 266.01C898.549 266.01 898.217 266.342 898.217 266.751C898.217 267.16 898.549 267.492 898.958 267.492Z" fill="#8643DC"/>
<path d="M895.252 271.198C895.662 271.198 895.994 270.866 895.994 270.457C895.994 270.048 895.662 269.716 895.252 269.716C894.843 269.716 894.511 270.048 894.511 270.457C894.511 270.866 894.843 271.198 895.252 271.198Z" fill="#8643DC"/>
<path d="M891.361 274.904C891.77 274.904 892.102 274.572 892.102 274.163C892.102 273.754 891.77 273.422 891.361 273.422C890.952 273.422 890.62 273.754 890.62 274.163C890.62 274.572 890.952 274.904 891.361 274.904Z" fill="#8643DC"/>
<path d="M887.655 278.61C888.064 278.61 888.396 278.278 888.396 277.869C888.396 277.46 888.064 277.128 887.655 277.128C887.246 277.128 886.914 277.46 886.914 277.869C886.914 278.278 887.246 278.61 887.655 278.61Z" fill="#8643DC"/>
<path d="M883.764 282.316C884.173 282.316 884.505 281.985 884.505 281.575C884.505 281.166 884.173 280.834 883.764 280.834C883.354 280.834 883.022 281.166 883.022 281.575C883.022 281.985 883.354 282.316 883.764 282.316Z" fill="#8643DC"/>
<path d="M941.393 234.693C941.802 234.693 942.134 234.362 942.134 233.952C942.134 233.543 941.802 233.211 941.393 233.211C940.984 233.211 940.652 233.543 940.652 233.952C940.652 234.362 940.984 234.693 941.393 234.693Z" fill="#8643DC"/>
<path d="M937.687 238.399C938.096 238.399 938.428 238.068 938.428 237.658C938.428 237.249 938.096 236.917 937.687 236.917C937.277 236.917 936.946 237.249 936.946 237.658C936.946 238.068 937.277 238.399 937.687 238.399Z" fill="#8643DC"/>
<path d="M933.795 242.106C934.205 242.106 934.537 241.774 934.537 241.364C934.537 240.955 934.205 240.623 933.795 240.623C933.386 240.623 933.054 240.955 933.054 241.364C933.054 241.774 933.386 242.106 933.795 242.106Z" fill="#8643DC"/>
<path d="M930.089 245.997C930.499 245.997 930.831 245.665 930.831 245.256C930.831 244.846 930.499 244.514 930.089 244.514C929.68 244.514 929.348 244.846 929.348 245.256C929.348 245.665 929.68 245.997 930.089 245.997Z" fill="#8643DC"/>
<path d="M926.198 249.703C926.607 249.703 926.939 249.371 926.939 248.962C926.939 248.552 926.607 248.22 926.198 248.22C925.789 248.22 925.457 248.552 925.457 248.962C925.457 249.371 925.789 249.703 926.198 249.703Z" fill="#8643DC"/>
<path d="M922.307 253.409C922.716 253.409 923.048 253.077 923.048 252.668C923.048 252.258 922.716 251.927 922.307 251.927C921.897 251.927 921.565 252.258 921.565 252.668C921.565 253.077 921.897 253.409 922.307 253.409Z" fill="#8643DC"/>
<path d="M918.601 257.115C919.01 257.115 919.342 256.783 919.342 256.374C919.342 255.965 919.01 255.633 918.601 255.633C918.191 255.633 917.859 255.965 917.859 256.374C917.859 256.783 918.191 257.115 918.601 257.115Z" fill="#8643DC"/>
<path d="M914.709 260.821C915.119 260.821 915.45 260.489 915.45 260.08C915.45 259.671 915.119 259.339 914.709 259.339C914.3 259.339 913.968 259.671 913.968 260.08C913.968 260.489 914.3 260.821 914.709 260.821Z" fill="#8643DC"/>
<path d="M911.003 264.527C911.413 264.527 911.744 264.195 911.744 263.786C911.744 263.377 911.413 263.045 911.003 263.045C910.594 263.045 910.262 263.377 910.262 263.786C910.262 264.195 910.594 264.527 911.003 264.527Z" fill="#8643DC"/>
<path d="M907.112 268.233C907.521 268.233 907.853 267.902 907.853 267.492C907.853 267.083 907.521 266.751 907.112 266.751C906.702 266.751 906.371 267.083 906.371 267.492C906.371 267.902 906.702 268.233 907.112 268.233Z" fill="#8643DC"/>
<path d="M903.406 271.939C903.815 271.939 904.147 271.608 904.147 271.198C904.147 270.789 903.815 270.457 903.406 270.457C902.996 270.457 902.665 270.789 902.665 271.198C902.665 271.608 902.996 271.939 903.406 271.939Z" fill="#8643DC"/>
<path d="M899.514 275.646C899.924 275.646 900.255 275.314 900.255 274.904C900.255 274.495 899.924 274.163 899.514 274.163C899.105 274.163 898.773 274.495 898.773 274.904C898.773 275.314 899.105 275.646 899.514 275.646Z" fill="#8643DC"/>
<path d="M895.808 279.352C896.218 279.352 896.549 279.02 896.549 278.61C896.549 278.201 896.218 277.869 895.808 277.869C895.399 277.869 895.067 278.201 895.067 278.61C895.067 279.02 895.399 279.352 895.808 279.352Z" fill="#8643DC"/>
<path d="M891.917 283.058C892.326 283.058 892.658 282.726 892.658 282.316C892.658 281.907 892.326 281.575 891.917 281.575C891.507 281.575 891.176 281.907 891.176 282.316C891.176 282.726 891.507 283.058 891.917 283.058Z" fill="#8643DC"/>
<path d="M888.211 286.764C888.62 286.764 888.952 286.432 888.952 286.022C888.952 285.613 888.62 285.281 888.211 285.281C887.801 285.281 887.47 285.613 887.47 286.022C887.47 286.432 887.801 286.764 888.211 286.764Z" fill="#8643DC"/>
<path d="M945.84 239.141C946.249 239.141 946.581 238.809 946.581 238.399C946.581 237.99 946.249 237.658 945.84 237.658C945.431 237.658 945.099 237.99 945.099 238.399C945.099 238.809 945.431 239.141 945.84 239.141Z" fill="#8643DC"/>
<path d="M941.949 243.032C942.358 243.032 942.69 242.7 942.69 242.291C942.69 241.881 942.358 241.55 941.949 241.55C941.539 241.55 941.208 241.881 941.208 242.291C941.208 242.7 941.539 243.032 941.949 243.032Z" fill="#8643DC"/>
<path d="M938.243 246.738C938.652 246.738 938.984 246.406 938.984 245.997C938.984 245.588 938.652 245.256 938.243 245.256C937.833 245.256 937.502 245.588 937.502 245.997C937.502 246.406 937.833 246.738 938.243 246.738Z" fill="#8643DC"/>
<path d="M934.351 250.444C934.761 250.444 935.093 250.112 935.093 249.703C935.093 249.294 934.761 248.962 934.351 248.962C933.942 248.962 933.61 249.294 933.61 249.703C933.61 250.112 933.942 250.444 934.351 250.444Z" fill="#8643DC"/>
<path d="M930.645 254.15C931.055 254.15 931.387 253.818 931.387 253.409C931.387 253 931.055 252.668 930.645 252.668C930.236 252.668 929.904 253 929.904 253.409C929.904 253.818 930.236 254.15 930.645 254.15Z" fill="#8643DC"/>
<path d="M926.754 257.856C927.163 257.856 927.495 257.524 927.495 257.115C927.495 256.706 927.163 256.374 926.754 256.374C926.345 256.374 926.013 256.706 926.013 257.115C926.013 257.524 926.345 257.856 926.754 257.856Z" fill="#8643DC"/>
<path d="M923.048 261.562C923.457 261.562 923.789 261.23 923.789 260.821C923.789 260.412 923.457 260.08 923.048 260.08C922.639 260.08 922.307 260.412 922.307 260.821C922.307 261.23 922.639 261.562 923.048 261.562Z" fill="#8643DC"/>
<path d="M919.156 265.268C919.566 265.268 919.898 264.937 919.898 264.527C919.898 264.118 919.566 263.786 919.156 263.786C918.747 263.786 918.415 264.118 918.415 264.527C918.415 264.937 918.747 265.268 919.156 265.268Z" fill="#8643DC"/>
<path d="M915.45 268.974C915.86 268.974 916.192 268.643 916.192 268.233C916.192 267.824 915.86 267.492 915.45 267.492C915.041 267.492 914.709 267.824 914.709 268.233C914.709 268.643 915.041 268.974 915.45 268.974Z" fill="#8643DC"/>
<path d="M911.559 272.68C911.968 272.68 912.3 272.349 912.3 271.939C912.3 271.53 911.968 271.198 911.559 271.198C911.15 271.198 910.818 271.53 910.818 271.939C910.818 272.349 911.15 272.68 911.559 272.68Z" fill="#8643DC"/>
<path d="M907.668 276.387C908.077 276.387 908.409 276.055 908.409 275.646C908.409 275.236 908.077 274.904 907.668 274.904C907.258 274.904 906.926 275.236 906.926 275.646C906.926 276.055 907.258 276.387 907.668 276.387Z" fill="#8643DC"/>
<path d="M903.962 280.093C904.371 280.093 904.703 279.761 904.703 279.352C904.703 278.942 904.371 278.61 903.962 278.61C903.552 278.61 903.22 278.942 903.22 279.352C903.22 279.761 903.552 280.093 903.962 280.093Z" fill="#8643DC"/>
<path d="M900.07 283.799C900.48 283.799 900.812 283.467 900.812 283.058C900.812 282.648 900.48 282.316 900.07 282.316C899.661 282.316 899.329 282.648 899.329 283.058C899.329 283.467 899.661 283.799 900.07 283.799Z" fill="#8643DC"/>
<path d="M896.364 287.505C896.774 287.505 897.105 287.173 897.105 286.764C897.105 286.354 896.774 286.022 896.364 286.022C895.955 286.022 895.623 286.354 895.623 286.764C895.623 287.173 895.955 287.505 896.364 287.505Z" fill="#8643DC"/>
<path d="M892.473 291.211C892.882 291.211 893.214 290.879 893.214 290.47C893.214 290.06 892.882 289.729 892.473 289.729C892.063 289.729 891.732 290.06 891.732 290.47C891.732 290.879 892.063 291.211 892.473 291.211Z" fill="#8643DC"/>
<path d="M950.102 243.773C950.512 243.773 950.844 243.441 950.844 243.032C950.844 242.623 950.512 242.291 950.102 242.291C949.693 242.291 949.361 242.623 949.361 243.032C949.361 243.441 949.693 243.773 950.102 243.773Z" fill="#8643DC"/>
<path d="M946.396 247.479C946.806 247.479 947.137 247.147 947.137 246.738C947.137 246.329 946.806 245.997 946.396 245.997C945.987 245.997 945.655 246.329 945.655 246.738C945.655 247.147 945.987 247.479 946.396 247.479Z" fill="#8643DC"/>
<path d="M942.505 251.185C942.914 251.185 943.246 250.853 943.246 250.444C943.246 250.035 942.914 249.703 942.505 249.703C942.095 249.703 941.764 250.035 941.764 250.444C941.764 250.853 942.095 251.185 942.505 251.185Z" fill="#8643DC"/>
<path d="M938.799 254.891C939.208 254.891 939.54 254.559 939.54 254.15C939.54 253.741 939.208 253.409 938.799 253.409C938.389 253.409 938.057 253.741 938.057 254.15C938.057 254.559 938.389 254.891 938.799 254.891Z" fill="#8643DC"/>
<path d="M934.907 258.597C935.317 258.597 935.648 258.266 935.648 257.856C935.648 257.447 935.317 257.115 934.907 257.115C934.498 257.115 934.166 257.447 934.166 257.856C934.166 258.266 934.498 258.597 934.907 258.597Z" fill="#8643DC"/>
<path d="M931.201 262.303C931.611 262.303 931.943 261.972 931.943 261.562C931.943 261.153 931.611 260.821 931.201 260.821C930.792 260.821 930.46 261.153 930.46 261.562C930.46 261.972 930.792 262.303 931.201 262.303Z" fill="#8643DC"/>
<path d="M927.31 266.01C927.719 266.01 928.051 265.678 928.051 265.268C928.051 264.859 927.719 264.527 927.31 264.527C926.9 264.527 926.569 264.859 926.569 265.268C926.569 265.678 926.9 266.01 927.31 266.01Z" fill="#8643DC"/>
<path d="M923.604 269.716C924.013 269.716 924.345 269.384 924.345 268.974C924.345 268.565 924.013 268.233 923.604 268.233C923.194 268.233 922.863 268.565 922.863 268.974C922.863 269.384 923.194 269.716 923.604 269.716Z" fill="#8643DC"/>
<path d="M919.712 273.422C920.122 273.422 920.454 273.09 920.454 272.681C920.454 272.271 920.122 271.939 919.712 271.939C919.303 271.939 918.971 272.271 918.971 272.681C918.971 273.09 919.303 273.422 919.712 273.422Z" fill="#8643DC"/>
<path d="M916.006 277.128C916.416 277.128 916.748 276.796 916.748 276.387C916.748 275.977 916.416 275.646 916.006 275.646C915.597 275.646 915.265 275.977 915.265 276.387C915.265 276.796 915.597 277.128 916.006 277.128Z" fill="#8643DC"/>
<path d="M912.115 280.834C912.524 280.834 912.856 280.502 912.856 280.093C912.856 279.683 912.524 279.352 912.115 279.352C911.706 279.352 911.374 279.683 911.374 280.093C911.374 280.502 911.706 280.834 912.115 280.834Z" fill="#8643DC"/>
<path d="M908.409 284.54C908.818 284.54 909.15 284.208 909.15 283.799C909.15 283.389 908.818 283.058 908.409 283.058C908 283.058 907.668 283.389 907.668 283.799C907.668 284.208 908 284.54 908.409 284.54Z" fill="#8643DC"/>
<path d="M904.518 288.246C904.927 288.246 905.259 287.914 905.259 287.505C905.259 287.096 904.927 286.764 904.518 286.764C904.108 286.764 903.776 287.096 903.776 287.505C903.776 287.914 904.108 288.246 904.518 288.246Z" fill="#8643DC"/>
<path d="M900.811 291.952C901.221 291.952 901.553 291.62 901.553 291.211C901.553 290.802 901.221 290.47 900.811 290.47C900.402 290.47 900.07 290.802 900.07 291.211C900.07 291.62 900.402 291.952 900.811 291.952Z" fill="#8643DC"/>
<path d="M896.92 295.658C897.33 295.658 897.661 295.326 897.661 294.917C897.661 294.508 897.33 294.176 896.92 294.176C896.511 294.176 896.179 294.508 896.179 294.917C896.179 295.326 896.511 295.658 896.92 295.658Z" fill="#8643DC"/>
<path d="M954.549 248.22C954.959 248.22 955.291 247.889 955.291 247.479C955.291 247.07 954.959 246.738 954.549 246.738C954.14 246.738 953.808 247.07 953.808 247.479C953.808 247.889 954.14 248.22 954.549 248.22Z" fill="#8643DC"/>
<path d="M950.658 251.926C951.067 251.926 951.399 251.595 951.399 251.185C951.399 250.776 951.067 250.444 950.658 250.444C950.249 250.444 949.917 250.776 949.917 251.185C949.917 251.595 950.249 251.926 950.658 251.926Z" fill="#8643DC"/>
<path d="M946.952 255.633C947.361 255.633 947.693 255.301 947.693 254.891C947.693 254.482 947.361 254.15 946.952 254.15C946.543 254.15 946.211 254.482 946.211 254.891C946.211 255.301 946.543 255.633 946.952 255.633Z" fill="#8643DC"/>
<path d="M943.061 259.339C943.47 259.339 943.802 259.007 943.802 258.597C943.802 258.188 943.47 257.856 943.061 257.856C942.651 257.856 942.319 258.188 942.319 258.597C942.319 259.007 942.651 259.339 943.061 259.339Z" fill="#8643DC"/>
<path d="M939.355 263.045C939.764 263.045 940.096 262.713 940.096 262.303C940.096 261.894 939.764 261.562 939.355 261.562C938.945 261.562 938.613 261.894 938.613 262.303C938.613 262.713 938.945 263.045 939.355 263.045Z" fill="#8643DC"/>
<path d="M935.463 266.751C935.873 266.751 936.205 266.419 936.205 266.01C936.205 265.6 935.873 265.268 935.463 265.268C935.054 265.268 934.722 265.6 934.722 266.01C934.722 266.419 935.054 266.751 935.463 266.751Z" fill="#8643DC"/>
<path d="M931.757 270.457C932.167 270.457 932.498 270.125 932.498 269.716C932.498 269.306 932.167 268.974 931.757 268.974C931.348 268.974 931.016 269.306 931.016 269.716C931.016 270.125 931.348 270.457 931.757 270.457Z" fill="#8643DC"/>
<path d="M927.866 274.163C928.275 274.163 928.607 273.831 928.607 273.422C928.607 273.013 928.275 272.681 927.866 272.681C927.456 272.681 927.125 273.013 927.125 273.422C927.125 273.831 927.456 274.163 927.866 274.163Z" fill="#8643DC"/>
<path d="M924.16 277.869C924.569 277.869 924.901 277.537 924.901 277.128C924.901 276.719 924.569 276.387 924.16 276.387C923.75 276.387 923.419 276.719 923.419 277.128C923.419 277.537 923.75 277.869 924.16 277.869Z" fill="#8643DC"/>
<path d="M920.268 281.575C920.678 281.575 921.01 281.243 921.01 280.834C921.01 280.425 920.678 280.093 920.268 280.093C919.859 280.093 919.527 280.425 919.527 280.834C919.527 281.243 919.859 281.575 920.268 281.575Z" fill="#8643DC"/>
<path d="M916.562 285.281C916.972 285.281 917.303 284.949 917.303 284.54C917.303 284.131 916.972 283.799 916.562 283.799C916.153 283.799 915.821 284.131 915.821 284.54C915.821 284.949 916.153 285.281 916.562 285.281Z" fill="#8643DC"/>
<path d="M912.671 288.987C913.08 288.987 913.412 288.655 913.412 288.246C913.412 287.837 913.08 287.505 912.671 287.505C912.262 287.505 911.93 287.837 911.93 288.246C911.93 288.655 912.262 288.987 912.671 288.987Z" fill="#8643DC"/>
<path d="M908.965 292.693C909.374 292.693 909.706 292.362 909.706 291.952C909.706 291.543 909.374 291.211 908.965 291.211C908.555 291.211 908.224 291.543 908.224 291.952C908.224 292.362 908.555 292.693 908.965 292.693Z" fill="#8643DC"/>
<path d="M905.074 296.585C905.483 296.585 905.815 296.253 905.815 295.843C905.815 295.434 905.483 295.102 905.074 295.102C904.664 295.102 904.332 295.434 904.332 295.843C904.332 296.253 904.664 296.585 905.074 296.585Z" fill="#8643DC"/>
<path d="M901.367 300.291C901.777 300.291 902.109 299.959 902.109 299.55C902.109 299.14 901.777 298.808 901.367 298.808C900.958 298.808 900.626 299.14 900.626 299.55C900.626 299.959 900.958 300.291 901.367 300.291Z" fill="#8643DC"/>
<path d="M958.997 252.668C959.406 252.668 959.738 252.336 959.738 251.927C959.738 251.517 959.406 251.185 958.997 251.185C958.588 251.185 958.256 251.517 958.256 251.927C958.256 252.336 958.588 252.668 958.997 252.668Z" fill="#8643DC"/>
<path d="M955.106 256.374C955.515 256.374 955.847 256.042 955.847 255.633C955.847 255.223 955.515 254.891 955.106 254.891C954.696 254.891 954.364 255.223 954.364 255.633C954.364 256.042 954.696 256.374 955.106 256.374Z" fill="#8643DC"/>
<path d="M951.399 260.08C951.809 260.08 952.141 259.748 952.141 259.339C952.141 258.929 951.809 258.597 951.399 258.597C950.99 258.597 950.658 258.929 950.658 259.339C950.658 259.748 950.99 260.08 951.399 260.08Z" fill="#8643DC"/>
<path d="M947.508 263.786C947.917 263.786 948.249 263.454 948.249 263.045C948.249 262.635 947.917 262.303 947.508 262.303C947.099 262.303 946.767 262.635 946.767 263.045C946.767 263.454 947.099 263.786 947.508 263.786Z" fill="#8643DC"/>
<path d="M943.802 267.492C944.211 267.492 944.543 267.16 944.543 266.751C944.543 266.341 944.211 266.01 943.802 266.01C943.393 266.01 943.061 266.341 943.061 266.751C943.061 267.16 943.393 267.492 943.802 267.492Z" fill="#8643DC"/>
<path d="M939.911 271.198C940.32 271.198 940.652 270.866 940.652 270.457C940.652 270.047 940.32 269.716 939.911 269.716C939.501 269.716 939.169 270.047 939.169 270.457C939.169 270.866 939.501 271.198 939.911 271.198Z" fill="#8643DC"/>
<path d="M936.019 274.904C936.429 274.904 936.761 274.572 936.761 274.163C936.761 273.753 936.429 273.422 936.019 273.422C935.61 273.422 935.278 273.753 935.278 274.163C935.278 274.572 935.61 274.904 936.019 274.904Z" fill="#8643DC"/>
<path d="M932.313 278.61C932.723 278.61 933.054 278.278 933.054 277.869C933.054 277.46 932.723 277.128 932.313 277.128C931.904 277.128 931.572 277.46 931.572 277.869C931.572 278.278 931.904 278.61 932.313 278.61Z" fill="#8643DC"/>
<path d="M928.422 282.316C928.831 282.316 929.163 281.985 929.163 281.575C929.163 281.166 928.831 280.834 928.422 280.834C928.013 280.834 927.681 281.166 927.681 281.575C927.681 281.985 928.013 282.316 928.422 282.316Z" fill="#8643DC"/>
<path d="M924.716 286.022C925.125 286.022 925.457 285.691 925.457 285.281C925.457 284.872 925.125 284.54 924.716 284.54C924.306 284.54 923.975 284.872 923.975 285.281C923.975 285.691 924.306 286.022 924.716 286.022Z" fill="#8643DC"/>
<path d="M920.824 289.728C921.234 289.728 921.566 289.397 921.566 288.987C921.566 288.578 921.234 288.246 920.824 288.246C920.415 288.246 920.083 288.578 920.083 288.987C920.083 289.397 920.415 289.728 920.824 289.728Z" fill="#8643DC"/>
<path d="M917.118 293.62C917.528 293.62 917.859 293.288 917.859 292.879C917.859 292.469 917.528 292.137 917.118 292.137C916.709 292.137 916.377 292.469 916.377 292.879C916.377 293.288 916.709 293.62 917.118 293.62Z" fill="#8643DC"/>
<path d="M913.227 297.326C913.636 297.326 913.968 296.994 913.968 296.585C913.968 296.175 913.636 295.844 913.227 295.844C912.817 295.844 912.486 296.175 912.486 296.585C912.486 296.994 912.817 297.326 913.227 297.326Z" fill="#8643DC"/>
<path d="M909.521 301.032C909.93 301.032 910.262 300.7 910.262 300.291C910.262 299.881 909.93 299.55 909.521 299.55C909.111 299.55 908.78 299.881 908.78 300.291C908.78 300.7 909.111 301.032 909.521 301.032Z" fill="#8643DC"/>
<path d="M905.629 304.738C906.039 304.738 906.371 304.406 906.371 303.997C906.371 303.587 906.039 303.256 905.629 303.256C905.22 303.256 904.888 303.587 904.888 303.997C904.888 304.406 905.22 304.738 905.629 304.738Z" fill="#8643DC"/>
<path d="M963.259 257.115C963.668 257.115 964 256.783 964 256.374C964 255.964 963.668 255.633 963.259 255.633C962.85 255.633 962.518 255.964 962.518 256.374C962.518 256.783 962.85 257.115 963.259 257.115Z" fill="#8643DC"/>
<path d="M959.553 260.821C959.962 260.821 960.294 260.489 960.294 260.08C960.294 259.67 959.962 259.339 959.553 259.339C959.143 259.339 958.812 259.67 958.812 260.08C958.812 260.489 959.143 260.821 959.553 260.821Z" fill="#8643DC"/>
<path d="M955.661 264.527C956.071 264.527 956.403 264.195 956.403 263.786C956.403 263.377 956.071 263.045 955.661 263.045C955.252 263.045 954.92 263.377 954.92 263.786C954.92 264.195 955.252 264.527 955.661 264.527Z" fill="#8643DC"/>
<path d="M951.955 268.233C952.365 268.233 952.697 267.901 952.697 267.492C952.697 267.083 952.365 266.751 951.955 266.751C951.546 266.751 951.214 267.083 951.214 267.492C951.214 267.901 951.546 268.233 951.955 268.233Z" fill="#8643DC"/>
<path d="M948.064 271.939C948.473 271.939 948.805 271.607 948.805 271.198C948.805 270.789 948.473 270.457 948.064 270.457C947.655 270.457 947.323 270.789 947.323 271.198C947.323 271.607 947.655 271.939 948.064 271.939Z" fill="#8643DC"/>
<path d="M944.358 275.645C944.767 275.645 945.099 275.313 945.099 274.904C945.099 274.495 944.767 274.163 944.358 274.163C943.949 274.163 943.617 274.495 943.617 274.904C943.617 275.313 943.949 275.645 944.358 275.645Z" fill="#8643DC"/>
<path d="M940.467 279.351C940.876 279.351 941.208 279.019 941.208 278.61C941.208 278.201 940.876 277.869 940.467 277.869C940.057 277.869 939.725 278.201 939.725 278.61C939.725 279.019 940.057 279.351 940.467 279.351Z" fill="#8643DC"/>
<path d="M936.76 283.057C937.17 283.057 937.502 282.726 937.502 282.316C937.502 281.907 937.17 281.575 936.76 281.575C936.351 281.575 936.019 281.907 936.019 282.316C936.019 282.726 936.351 283.057 936.76 283.057Z" fill="#8643DC"/>
<path d="M932.869 286.764C933.278 286.764 933.61 286.432 933.61 286.022C933.61 285.613 933.278 285.281 932.869 285.281C932.46 285.281 932.128 285.613 932.128 286.022C932.128 286.432 932.46 286.764 932.869 286.764Z" fill="#8643DC"/>
<path d="M929.163 290.655C929.572 290.655 929.904 290.323 929.904 289.914C929.904 289.504 929.572 289.173 929.163 289.173C928.754 289.173 928.422 289.504 928.422 289.914C928.422 290.323 928.754 290.655 929.163 290.655Z" fill="#8643DC"/>
<path d="M925.272 294.361C925.681 294.361 926.013 294.029 926.013 293.62C926.013 293.211 925.681 292.879 925.272 292.879C924.862 292.879 924.53 293.211 924.53 293.62C924.53 294.029 924.862 294.361 925.272 294.361Z" fill="#8643DC"/>
<path d="M921.38 298.067C921.79 298.067 922.122 297.735 922.122 297.326C922.122 296.917 921.79 296.585 921.38 296.585C920.971 296.585 920.639 296.917 920.639 297.326C920.639 297.735 920.971 298.067 921.38 298.067Z" fill="#8643DC"/>
<path d="M917.674 301.773C918.084 301.773 918.416 301.441 918.416 301.032C918.416 300.623 918.084 300.291 917.674 300.291C917.265 300.291 916.933 300.623 916.933 301.032C916.933 301.441 917.265 301.773 917.674 301.773Z" fill="#8643DC"/>
<path d="M913.783 305.479C914.192 305.479 914.524 305.147 914.524 304.738C914.524 304.329 914.192 303.997 913.783 303.997C913.373 303.997 913.042 304.329 913.042 304.738C913.042 305.147 913.373 305.479 913.783 305.479Z" fill="#8643DC"/>
<path d="M910.077 309.185C910.486 309.185 910.818 308.853 910.818 308.444C910.818 308.035 910.486 307.703 910.077 307.703C909.667 307.703 909.335 308.035 909.335 308.444C909.335 308.853 909.667 309.185 910.077 309.185Z" fill="#8643DC"/>
<path d="M848 628.2L847.228 627.194L836 635.813L836.772 636.819L848 628.2Z" fill="#09E6DF"/>
<path d="M846.763 637.228L838.144 626L837.138 626.772L845.758 638L846.763 637.228Z" fill="#09E6DF"/>
<path d="M933 318.2L932.228 317.194L921 325.813L921.772 326.819L933 318.2Z" fill="#8643DC"/>
<path d="M931.763 327.228L923.144 316L922.138 316.772L930.758 328L931.763 327.228Z" fill="#8643DC"/>
<path d="M238.416 182.416C240.302 182.738 242.093 181.471 242.416 179.584C242.738 177.698 241.471 175.907 239.584 175.584C237.698 175.262 235.907 176.529 235.584 178.416C235.262 180.302 236.529 182.093 238.416 182.416Z" fill="#FF59C1"/>
<path d="M340.416 753.416C342.302 753.738 344.093 752.471 344.416 750.584C344.738 748.698 343.471 746.907 341.584 746.584C339.698 746.262 337.907 747.529 337.584 749.416C337.262 751.302 338.529 753.093 340.416 753.416Z" fill="#8643DC"/>
<path d="M763.416 271.416C765.302 271.738 767.093 270.471 767.416 268.584C767.738 266.698 766.471 264.907 764.584 264.584C762.698 264.262 760.907 265.529 760.584 267.416C760.262 269.302 761.529 271.093 763.416 271.416Z" fill="#43DC77"/>
<path d="M632.416 29.4158C634.302 29.7384 636.093 28.4707 636.416 26.5843C636.738 24.6978 635.471 22.9069 633.584 22.5843C631.698 22.2616 629.907 23.5293 629.584 25.4157C629.262 27.3022 630.529 29.0931 632.416 29.4158Z" fill="#F57DC8"/>
<defs>
<filter id="filter0_f_1_927" x="101.979" y="30.3174" width="816.662" height="819.977" filterUnits="userSpaceOnUse" color-interpolation-filters="sRGB">
<feFlood flood-opacity="0" result="BackgroundImageFix"/>
<feBlend mode="normal" in="SourceGraphic" in2="BackgroundImageFix" result="shape"/>
<feGaussianBlur stdDeviation="125" result="effect1_foregroundBlur_1_927"/>
</filter>
<filter id="filter1_f_1_927" x="0.225246" y="-0.0180664" width="816.936" height="819.71" filterUnits="userSpaceOnUse" color-interpolation-filters="sRGB">
<feFlood flood-opacity="0" result="BackgroundImageFix"/>
<feBlend mode="normal" in="SourceGraphic" in2="BackgroundImageFix" result="shape"/>
<feGaussianBlur stdDeviation="125" result="effect1_foregroundBlur_1_927"/>
</filter>
<filter id="filter2_f_1_927" x="225.074" y="-117.775" width="816.936" height="819.71" filterUnits="userSpaceOnUse" color-interpolation-filters="sRGB">
<feFlood flood-opacity="0" result="BackgroundImageFix"/>
<feBlend mode="normal" in="SourceGraphic" in2="BackgroundImageFix" result="shape"/>
<feGaussianBlur stdDeviation="125" result="effect1_foregroundBlur_1_927"/>
</filter>
<filter id="filter3_f_1_927" x="28.8717" y="104.912" width="816.936" height="819.71" filterUnits="userSpaceOnUse" color-interpolation-filters="sRGB">
<feFlood flood-opacity="0" result="BackgroundImageFix"/>
<feBlend mode="normal" in="SourceGraphic" in2="BackgroundImageFix" result="shape"/>
<feGaussianBlur stdDeviation="125" result="effect1_foregroundBlur_1_927"/>
</filter>
</defs>
</svg>
