<svg width="21" height="21" fill="none" xmlns="http://www.w3.org/2000/svg"><path fill-rule="evenodd" clip-rule="evenodd" d="M15.765 20.724c-2.02-.506-6.155-1.933-9.905-5.682C2.111 11.293.684 7.158.178 5.138-.112 3.977.411 2.856 1.3 2.222L3.628.56a3 3 0 014.21.734L9.304 3.41a2 2 0 01-.482 2.766l-1.169.835c.177.676.727 2.066 2.45 3.789 1.723 1.723 3.113 2.273 3.79 2.45l.834-1.169a2 2 0 012.766-.482l2.117 1.466a3 3 0 01.734 4.21l-1.663 2.328c-.635.888-1.755 1.412-2.916 1.121zm-8.49-7.096c3.409 3.41 7.171 4.704 8.976 5.156.264.067.583-.036.802-.343l1.663-2.328a1 1 0 00-.244-1.404l-2.118-1.466-.895 1.255c-.367.512-1.044.914-1.832.744-.984-.212-2.803-.893-4.938-3.028S5.873 8.26 5.66 7.276c-.17-.789.231-1.466.744-1.832l1.254-.896-1.465-2.117a1 1 0 00-1.404-.244L2.462 3.85c-.307.219-.41.538-.344.802.453 1.804 1.747 5.567 5.157 8.976z" fill="#151618"/></svg>