<svg width="33" height="32" fill="none" xmlns="http://www.w3.org/2000/svg"><g clip-path="url(#clip0_6_355)" filter="url(#filter0_d_6_355)"><g clip-path="url(#clip1_6_355)"><path d="M20.38 18h-.79l-.28-.27a6.471 6.471 0 001.57-4.23 6.5 6.5 0 10-6.5 6.5c1.61 0 3.09-.59 4.23-1.57l.27.28v.79l5 4.99L25.37 23l-4.99-5zm-6 0c-2.49 0-4.5-2.01-4.5-4.5S11.89 9 14.38 9s4.5 2.01 4.5 4.5-2.01 4.5-4.5 4.5z" fill="#fff"/></g></g><defs><clipPath id="clip0_6_355"><path fill="#fff" transform="translate(4.88 4)" d="M0 0h24.012v24H0z"/></clipPath><clipPath id="clip1_6_355"><path fill="#fff" transform="translate(4.88 4)" d="M0 0h24v24H0z"/></clipPath><filter id="filter0_d_6_355" x=".88" y="0" width="32.013" height="32" filterUnits="userSpaceOnUse" color-interpolation-filters="sRGB"><feFlood flood-opacity="0" result="BackgroundImageFix"/><feColorMatrix in="SourceAlpha" values="0 0 0 0 0 0 0 0 0 0 0 0 0 0 0 0 0 0 127 0" result="hardAlpha"/><feOffset/><feGaussianBlur stdDeviation="2"/><feColorMatrix values="0 0 0 0 0 0 0 0 0 0 0 0 0 0 0 0 0 0 0.1 0"/><feBlend in2="BackgroundImageFix" result="effect1_dropShadow_6_355"/><feBlend in="SourceGraphic" in2="effect1_dropShadow_6_355" result="shape"/></filter></defs></svg>