<svg width="124" height="70" fill="none" xmlns="http://www.w3.org/2000/svg"><g clip-path="url(#clip0_1_9)" fill="#000"><path d="M22.12 20.525L4.497 2.808A9.51 9.51 0 00-2.245 0h-15.302a9.511 9.511 0 00-6.754 2.808l-8.812 8.859-8.836 8.858a9.61 9.61 0 00-2.789 6.786v15.378a9.61 9.61 0 002.79 6.786l17.623 17.717A9.518 9.518 0 00-17.58 70h15.302a9.519 9.519 0 006.762-2.808l17.642-17.717a9.613 9.613 0 002.787-6.786V27.311a9.612 9.612 0 00-2.795-6.786z"/><path d="M-9.944 16.418c-10.211 0-18.489 8.32-18.489 18.582 0 10.263 8.278 18.582 18.49 18.582 10.21 0 18.488-8.32 18.488-18.581 0-10.263-8.278-18.581-18.489-18.583z" stroke="#000" stroke-width="31"/><path d="M43.619 23.23h-7.034v23.4h6.981c7.459 0 12.15-4.479 12.15-11.702 0-7.222-4.623-11.698-12.097-11.698zm-.053 20.247h-3.2V26.385h3.166c5.229 0 8.179 3.182 8.179 8.543 0 5.362-2.902 8.557-8.145 8.557v-.008zm20.737-14.146c-4.353 0-6.983 2.408-7.123 5.7h3.678c.103-1.9 1.319-2.953 3.38-2.953 2.136 0 3.43 1.188 3.43 3.447v.512l-4.278.43c-3.74.408-6.78 1.696-6.78 5.186 0 3.091 2.462 5.303 5.986 5.303 2.53 0 4.422-1.326 5.132-3.667h.097v3.327h3.546V36.217c-.047-4.576-2.775-6.886-7.068-6.886zm3.343 9.885c0 3.224-1.517 5.022-4.15 5.022-1.623 0-3.037-.917-3.037-2.511s1.282-2.442 3.506-2.678l3.681-.43v.597zm14.12-9.885c-2.461 0-4.221 1.291-4.926 3.662h-.066V29.67h-3.577v16.97h3.678V36.453c0-2.781 1.113-4.34 3.374-4.34s3.385 1.426 3.385 4.576v9.94h3.667V35.608c0-3.73-1.82-6.276-5.535-6.276zM97.037 44.22c-2.8 0-4.354-2.512-4.354-6.07 0-3.558 1.451-6.072 4.185-6.072 1.992 0 3.371 1.254 3.778 3.447h3.693c-.641-4.001-3.609-6.173-7.56-6.173-4.927 0-7.998 4.243-7.998 8.82 0 4.68 3.166 8.818 8.126 8.818 3.958 0 6.952-2.238 7.593-6.239h-3.741c-.348 2.148-1.767 3.468-3.722 3.468zm16.486-14.889c-5.028 0-7.899 4.14-7.899 8.819 0 4.68 2.939 8.819 7.963 8.819 4.118 0 6.751-2.238 7.458-5.587h-3.678c-.406 1.358-1.35 2.85-3.54 2.85-2.567 0-4.353-1.797-4.525-4.88h12.06c.512-5.916-2.815-10.02-7.839-10.02zm-4.187 7.26c.235-2.747 1.71-4.508 4.187-4.508 2.478 0 3.913 1.766 4.148 4.508h-8.335z"/><g clip-path="url(#clip1_1_9)"><path d="M24.12 20.525L6.497 2.808A9.51 9.51 0 00-.245 0h-15.302a9.511 9.511 0 00-6.754 2.808l-8.812 8.859-8.836 8.858a9.61 9.61 0 00-2.789 6.786v15.378a9.61 9.61 0 002.79 6.786l17.623 17.717A9.518 9.518 0 00-15.58 70H-.277a9.519 9.519 0 006.762-2.808l17.642-17.717a9.613 9.613 0 002.787-6.786V27.311a9.612 9.612 0 00-2.795-6.786z"/><path d="M-7.944 16.418c-10.211 0-18.489 8.32-18.489 18.582 0 10.263 8.278 18.582 18.49 18.582 10.21 0 18.488-8.32 18.488-18.581 0-10.263-8.278-18.581-18.489-18.583z" stroke="#000" stroke-width="31"/><path d="M45.619 23.23h-7.034v23.4h6.981c7.459 0 12.15-4.479 12.15-11.702 0-7.222-4.623-11.698-12.097-11.698zm-.053 20.247h-3.2V26.385h3.166c5.229 0 8.179 3.182 8.179 8.543 0 5.362-2.902 8.557-8.145 8.557v-.008zm20.737-14.146c-4.353 0-6.983 2.408-7.123 5.7h3.678c.103-1.9 1.319-2.953 3.38-2.953 2.136 0 3.43 1.188 3.43 3.447v.512l-4.278.43c-3.74.408-6.78 1.696-6.78 5.186 0 3.091 2.462 5.303 5.986 5.303 2.53 0 4.422-1.326 5.132-3.667h.097v3.327h3.546V36.217c-.047-4.576-2.775-6.886-7.068-6.886zm3.343 9.885c0 3.224-1.517 5.022-4.15 5.022-1.623 0-3.037-.917-3.037-2.511s1.282-2.442 3.507-2.678l3.68-.43v.597zm14.12-9.885c-2.461 0-4.221 1.291-4.926 3.662h-.066V29.67h-3.577v16.97h3.678V36.453c0-2.781 1.113-4.34 3.374-4.34s3.385 1.426 3.385 4.576v9.94h3.667V35.608c0-3.73-1.82-6.276-5.535-6.276zM99.037 44.22c-2.8 0-4.354-2.512-4.354-6.07 0-3.558 1.451-6.072 4.185-6.072 1.992 0 3.371 1.254 3.778 3.447h3.693c-.641-4.001-3.609-6.173-7.56-6.173-4.927 0-7.998 4.243-7.998 8.82 0 4.68 3.166 8.818 8.126 8.818 3.958 0 6.952-2.238 7.593-6.239h-3.741c-.348 2.148-1.767 3.468-3.722 3.468zm16.486-14.889c-5.028 0-7.899 4.14-7.899 8.819 0 4.68 2.939 8.819 7.963 8.819 4.118 0 6.751-2.238 7.458-5.587h-3.678c-.406 1.358-1.35 2.85-3.54 2.85-2.567 0-4.353-1.797-4.525-4.88h12.06c.512-5.916-2.815-10.02-7.839-10.02zm-4.187 7.26c.235-2.747 1.71-4.508 4.187-4.508 2.478 0 3.913 1.766 4.148 4.508h-8.335z"/></g></g><defs><clipPath id="clip0_1_9"><path fill="#fff" d="M0 0h124v70H0z"/></clipPath><clipPath id="clip1_1_9"><path fill="#fff" transform="translate(2)" d="M0 0h124v70H0z"/></clipPath></defs></svg>