<svg width="136" height="42" fill="none" xmlns="http://www.w3.org/2000/svg"><path d="M41.6 29h8.92v-2.54h-6.2V14.6H41.6V29zm14.98.3c1.08 0 2.03-.24 2.85-.72a5.09 5.09 0 001.93-2.01c.467-.86.7-1.85.7-2.97 0-1.113-.23-2.097-.69-2.95a5.073 5.073 0 00-1.93-2.02c-.82-.487-1.773-.73-2.86-.73-1.066 0-2.01.24-2.83.72a5.093 5.093 0 00-1.93 2.01c-.466.853-.7 1.843-.7 2.97 0 1.113.227 2.1.68 2.96.46.853 1.1 1.523 1.92 2.01.82.487 1.774.73 2.86.73zm0-2.54c-.846 0-1.49-.283-1.93-.85-.433-.573-.65-1.343-.65-2.31 0-.94.207-1.7.62-2.28.42-.587 1.074-.88 1.96-.88.86 0 1.507.287 1.94.86.44.573.66 1.34.66 2.3 0 .927-.216 1.687-.65 2.28-.426.587-1.076.88-1.95.88zm11.56 2.54c.506 0 .973-.06 1.4-.18a4.48 4.48 0 001.18-.51v1.09c.013.4-.09.733-.31 1-.214.273-.5.477-.86.61-.36.14-.744.21-1.15.21-.38 0-.734-.083-1.06-.25a1.737 1.737 0 01-.74-.73l-2.52 1.22c.413.7 1.003 1.263 1.77 1.69.766.433 1.61.65 2.53.65a7.36 7.36 0 002.21-.32c.68-.207 1.253-.523 1.72-.95.473-.427.796-.97.97-1.63.06-.233.1-.47.12-.71a6.61 6.61 0 00.04-.75V18.2h-2.38v.6a4.075 4.075 0 00-1.25-.66c-.46-.16-.97-.24-1.53-.24-1.034 0-1.934.247-2.7.74-.767.493-1.364 1.17-1.79 2.03-.42.853-.63 1.83-.63 2.93 0 1.08.206 2.05.62 2.91.42.86 1.003 1.54 1.75 2.04.746.5 1.616.75 2.61.75zm.44-2.42c-.587 0-1.067-.147-1.44-.44a2.59 2.59 0 01-.83-1.18 4.87 4.87 0 01-.27-1.66c0-.6.093-1.147.28-1.64.186-.5.473-.897.86-1.19.393-.3.893-.45 1.5-.45.853 0 1.463.303 1.83.91.366.6.55 1.39.55 2.37 0 .98-.187 1.773-.56 2.38-.367.6-1.007.9-1.92.9zM80.6 29.3c1.08 0 2.03-.24 2.85-.72a5.09 5.09 0 001.93-2.01c.466-.86.7-1.85.7-2.97 0-1.113-.23-2.097-.69-2.95a5.073 5.073 0 00-1.93-2.02c-.82-.487-1.774-.73-2.86-.73-1.067 0-2.01.24-2.83.72a5.093 5.093 0 00-1.93 2.01c-.467.853-.7 1.843-.7 2.97 0 1.113.226 2.1.68 2.96.46.853 1.1 1.523 1.92 2.01.82.487 1.773.73 2.86.73zm0-2.54c-.847 0-1.49-.283-1.93-.85-.434-.573-.65-1.343-.65-2.31 0-.94.206-1.7.62-2.28.42-.587 1.073-.88 1.96-.88.86 0 1.506.287 1.94.86.44.573.66 1.34.66 2.3 0 .927-.217 1.687-.65 2.28-.427.587-1.077.88-1.95.88zM91.283 29h2.72v-5.94h6.44V29h2.72V14.6h-2.72v5.92h-6.44V14.6h-2.72V29zm19.207.3a5.3 5.3 0 002.87-.82 4.773 4.773 0 001.93-2.3l-2.72-.78c-.413.907-1.16 1.36-2.24 1.36-.74 0-1.323-.207-1.75-.62-.42-.413-.68-1.007-.78-1.78h7.58c.114-1.307-.02-2.443-.4-3.41-.38-.967-.966-1.717-1.76-2.25-.793-.533-1.756-.8-2.89-.8-1.066 0-2.01.243-2.83.73a5.062 5.062 0 00-1.93 2.03c-.466.873-.7 1.9-.7 3.08 0 1.08.237 2.04.71 2.88a5.25 5.25 0 001.98 1.97c.847.473 1.824.71 2.93.71zm-.04-9.04c.654 0 1.154.163 1.5.49.354.327.58.857.68 1.59h-4.76c.287-1.387 1.147-2.08 2.58-2.08zm6.688 8.74h2.74v-5.52c0-1.253.494-2.107 1.48-2.56.32-.153.677-.243 1.07-.27.4-.033.75-.003 1.05.09V18.2a4.877 4.877 0 00-1.46.04 3.65 3.65 0 00-1.32.48 2.923 2.923 0 00-.67.53c-.186.207-.35.437-.49.69V18.2h-2.4V29zm12.567.3a5.3 5.3 0 002.87-.82c.88-.547 1.523-1.313 1.93-2.3l-2.72-.78c-.413.907-1.16 1.36-2.24 1.36-.74 0-1.323-.207-1.75-.62-.42-.413-.68-1.007-.78-1.78h7.58c.113-1.307-.02-2.443-.4-3.41-.38-.967-.967-1.717-1.76-2.25-.793-.533-1.757-.8-2.89-.8-1.067 0-2.01.243-2.83.73a5.062 5.062 0 00-1.93 2.03c-.467.873-.7 1.9-.7 3.08 0 1.08.237 2.04.71 2.88a5.25 5.25 0 001.98 1.97c.847.473 1.823.71 2.93.71zm-.04-9.04c.653 0 1.153.163 1.5.49.353.327.58.857.68 1.59h-4.76c.287-1.387 1.147-2.08 2.58-2.08zM11.394 35.454l6.334-18.223h4.883L14.012 42H8.811L.212 17.23h4.883l6.299 18.224z" fill="#DEDEDE"/><path d="M17.606 7.392l-6.334 18.223H6.39L14.988.846h5.201l8.599 24.77h-4.883L17.606 7.391z" fill="#DEDEDE"/></svg>