<svg width="481" height="479" fill="none" xmlns="http://www.w3.org/2000/svg"><path d="M371.353 163.284H137.669v-9.231a10.191 10.191 0 0110.192-10.19h220.378a27.794 27.794 0 00-.565 5.563v.225H174.211v7.765h194.45l.187-.053a29.316 29.316 0 002.505 5.921z" fill="#CCEFF6"/><path d="M264.803 314.621a7.55 7.55 0 016.977 4.659 7.559 7.559 0 01.432 4.363 7.557 7.557 0 01-5.933 5.932 7.562 7.562 0 01-4.364-.431 7.549 7.549 0 01-4.66-6.976 7.544 7.544 0 012.213-5.334 7.547 7.547 0 015.335-2.213zm136.196-113.468v86.939a47.173 47.173 0 00-5.216 2.634l-3.937-1.331.102-.305V184.632l9.051 16.521z" fill="#F7CEDC"/><path d="M400.999 183.284v17.869l-9.053-16.526v-4.095a51.942 51.942 0 009.053 2.752zm-17.5 152.648H366.99l7.711-27.527h5.071a27.864 27.864 0 00-2.018 10.383 29.129 29.129 0 005.745 17.144z" fill="#006B99"/><path d="M374.707 308.405l-7.712 27.527H142.366a13.749 13.749 0 01-13.75-13.747v-65.656l9.053-11.559v53.246c0 2.701 1.074 5.294 2.986 7.204a10.187 10.187 0 007.206 2.985h226.846zm-102.34 13.763a7.538 7.538 0 00-1.271-4.196 7.55 7.55 0 00-11.619-1.148 7.543 7.543 0 00-1.642 8.227 7.55 7.55 0 002.781 3.39 7.552 7.552 0 004.195 1.276 7.553 7.553 0 007.55-7.549h.006z" fill="#F7CEDC"/><path d="M371.453 188.84a3.997 3.997 0 012.884 1.133 3.982 3.982 0 011.203 2.853 3.983 3.983 0 01-1.203 2.855 3.979 3.979 0 01-1.328.857 3.96 3.96 0 01-1.556.275h-91.917a3.987 3.987 0 01-2.217-.668 3.993 3.993 0 01-1.47-1.79 3.964 3.964 0 01-.226-2.305 3.977 3.977 0 011.094-2.041 3.953 3.953 0 012.819-1.169h91.917z" fill="#CCEFF6"/><path d="M371.455 205.888a3.99 3.99 0 013.988 3.989 3.98 3.98 0 01-1.169 2.818 3.983 3.983 0 01-2.819 1.169H233.032a4 4 0 01-3.99-3.993 4.005 4.005 0 011.173-2.815 4.011 4.011 0 012.817-1.168h138.423z" fill="#006B99"/><path d="M371.453 222.938a3.992 3.992 0 012.884 1.132 3.988 3.988 0 01.889 4.403 4.002 4.002 0 01-2.217 2.164 4.015 4.015 0 01-1.556.274h-45.412a3.989 3.989 0 01-2.821-6.806 3.996 3.996 0 012.821-1.167h45.412z" fill="#CCEFF6"/><path d="M371.455 239.979a3.99 3.99 0 013.988 3.987 3.99 3.99 0 01-3.988 3.987H225.282a3.985 3.985 0 01-2.82-1.17 3.984 3.984 0 01-1.171-2.821 3.992 3.992 0 013.991-3.983h146.173z" fill="#006B99"/><path d="M371.453 257.035a3.99 3.99 0 013.892 3.987 3.992 3.992 0 01-3.892 3.988h-76.414a3.998 3.998 0 01-3.992-3.991 3.996 3.996 0 013.992-3.984h76.414z" fill="#CCEFF6"/><path d="M371.455 274.084a3.985 3.985 0 013.773 5.535c-.207.489-.51.933-.891 1.305-.38.372-.832.663-1.326.856a3.95 3.95 0 01-1.556.276h-22.161a3.99 3.99 0 01-3.99-3.991 3.986 3.986 0 011.173-2.814 3.981 3.981 0 012.817-1.167h22.161z" fill="#006B99"/><path d="M371.455 291.13a3.992 3.992 0 013.988 3.99 3.992 3.992 0 01-3.988 3.987h-122.92a4.013 4.013 0 01-2.823-1.171 4.006 4.006 0 01-1.17-2.822 4 4 0 013.993-3.984h122.92z" fill="#CCEFF6"/><path d="M371.763 171.822l-3.867 7.944H248.535a3.993 3.993 0 01-2.821-1.168 3.99 3.99 0 010-5.639 3.993 3.993 0 012.821-1.168h122.92c.107 0 .201.024.308.031z" fill="#006B99"/><path d="M142.366 137.259h228.096a28.77 28.77 0 00-2.223 6.603H147.861a10.196 10.196 0 00-10.192 10.191v32.531a45.861 45.861 0 00-9.053-5.223v-30.355a13.743 13.743 0 014.027-9.72 13.75 13.75 0 019.723-4.027z" fill="#F7CEDC"/><path d="M368.85 157.363l-.187.053H174.211v-7.765h193.472a27.16 27.16 0 001.167 7.712z" fill="#006B99"/><path d="M327.277 274.084a3.985 3.985 0 012.758 6.771 3.985 3.985 0 01-2.758 1.201H173.353a3.99 3.99 0 01-3.99-3.989 3.993 3.993 0 013.99-3.983h153.924z" fill="#CCEFF6"/><path d="M304.023 222.938a3.985 3.985 0 013.892 3.987 3.986 3.986 0 01-1.135 2.784 3.982 3.982 0 01-2.757 1.202h-130.67a3.995 3.995 0 01-3.99-3.99 3.99 3.99 0 013.99-3.983h130.67z" fill="#006B99"/><path d="M294.497 355.7l3.273 14.421h-65.922l7.751-34.189 54.898 19.768z" fill="#F7CEDC"/><path d="M290.016 335.932l4.481 19.768-54.9-19.768h50.419zm-16.996-78.897a3.995 3.995 0 012.756 1.202 3.984 3.984 0 010 5.569 3.988 3.988 0 01-2.756 1.204h-99.667a3.997 3.997 0 01-3.99-3.991 3.99 3.99 0 013.99-3.984h99.667zm-15.501-68.195a4.004 4.004 0 011.556.275 3.999 3.999 0 012.53 3.711c0 .533-.108 1.06-.313 1.55a4.009 4.009 0 01-2.217 2.162 3.967 3.967 0 01-1.556.275h-84.166a3.96 3.96 0 01-1.556-.275 3.99 3.99 0 01-2.217-5.26 3.983 3.983 0 013.773-2.438h84.166z" fill="#006B99"/><path d="M226.515 171.791a3.987 3.987 0 110 7.975h-53.162a3.995 3.995 0 01-3.99-3.99 3.993 3.993 0 013.99-3.985h53.162z" fill="#CCEFF6"/><path d="M226.515 291.13a3.987 3.987 0 012.82 6.808 3.992 3.992 0 01-2.82 1.169h-53.162a3.996 3.996 0 01-3.99-3.993 3.992 3.992 0 013.99-3.984h53.162z" fill="#006B99"/><path d="M211.013 205.888a3.992 3.992 0 013.99 3.989 3.984 3.984 0 01-1.169 2.818 3.985 3.985 0 01-2.821 1.169h-37.66a3.995 3.995 0 01-3.99-3.993 3.992 3.992 0 013.99-3.983h37.66zm-7.751 34.091c1.058 0 2.073.42 2.821 1.167a3.996 3.996 0 011.169 2.82 3.998 3.998 0 01-1.169 2.821 3.992 3.992 0 01-2.821 1.166h-29.909a3.992 3.992 0 01-3.99-3.991 3.994 3.994 0 013.99-3.983h29.909z" fill="#CCEFF6"/><path d="M151.171 207.114c.526.195.985.538 1.322.987a2.934 2.934 0 01.247 3.155 2.942 2.942 0 01-1.152 1.181v-.504c0-.395 0-.79-.031-1.186v-.092a27.152 27.152 0 00-.386-3.541zm-1.054-34.308a2.972 2.972 0 012.924 3.543 2.978 2.978 0 01-2.331 2.339 2.97 2.97 0 11-.593-5.882zm0 17.05a2.975 2.975 0 012.747 1.826 2.964 2.964 0 01-.639 3.237 2.968 2.968 0 11-2.108-5.063zm0 34.098a2.966 2.966 0 110 5.933 2.993 2.993 0 01-1.748-.611 3 3 0 01-1.059-1.519l-.407-.257a30.289 30.289 0 001.883-3.384l.131.06c.247-.243.997-.222 1.2-.222zm0 34.095a2.964 2.964 0 012.751 1.828 2.962 2.962 0 01-.638 3.238 2.963 2.963 0 01-3.238.649 2.974 2.974 0 01-1.836-2.745c0-.786.312-1.541.867-2.096a2.963 2.963 0 012.094-.874zm0 17.05a2.959 2.959 0 011.651.497 2.959 2.959 0 011.268 3.044 2.961 2.961 0 01-.811 1.521 2.962 2.962 0 01-3.235.648 2.965 2.965 0 01-1.834-2.742 2.966 2.966 0 012.961-2.968zm0 17.047a2.964 2.964 0 012.751 1.828 2.966 2.966 0 01-2.16 4.054 2.96 2.96 0 01-1.717-.169 2.963 2.963 0 01-1.835-2.745 2.969 2.969 0 012.961-2.968zm-16.549-52.154l4.312 2.039-.219.464v2.475l-9.052 11.559v-14.034a45.227 45.227 0 004.959-2.503zm-14.757 5.689l.084.381c-4.005 9.082-9.103 18.095-15.074 23.109a145.297 145.297 0 00-5.596 4.943c-.676-9.903-1.404-19.924-2.1-28.052a57.95 57.95 0 0010.41.937 57.127 57.127 0 0012.276-1.318z" fill="#006B99"/><path d="M90.73 291.079a23.72 23.72 0 016.628-8.906c.441-.339.882-.682 1.332-1.008a97.427 97.427 0 0123.044-11.975c-.218.464-8.542 18.095-16.528 24.83-1.852 1.556-3.706 2.952-5.457 4.311a48.158 48.158 0 00-5.03 4.408 18.105 18.105 0 00-5.402 13.106v.395H85.9v-.395a75.607 75.607 0 011.164-12.454 50.886 50.886 0 013.665-12.312z" fill="#CCEFF6"/><path d="M100.597 315.845v.395h-4.154a81.645 81.645 0 00-1.736-13.5 48.041 48.041 0 015.03-4.409c.534 8.99.86 15.715.86 17.514z" fill="#006B99"/><path d="M98.69 281.158c-.45.333-.891.676-1.332 1.015a23.72 23.72 0 00-6.628 8.906c-.922-1.437-2.063-3.031-3.38-4.806-3.061-4.138-7.028-9.175-11.098-14.772a155.602 155.602 0 01-13.084-20.752s-.024-.038-.062-.107a89.881 89.881 0 01-1.634-3.419c-16.952-37.383-5.97-74.657-5.97-74.657a177.518 177.518 0 0116.323 17.005 30.703 30.703 0 00-10.353 22.364c0 16.577 14.78 30.472 34.652 34.129.697 8.128 1.425 18.149 2.101 28.052.156 2.363.319 4.716.465 7.042z" fill="#CCEFF6"/><path d="M85.399 289.216s1.272 7.572 1.676 14.167a75.618 75.618 0 00-1.164 12.454v.395h-3.404v-.395c1.198-8.013-.03-17.033 0-21.296a54.105 54.105 0 012.892-5.325z" fill="#006B99"/><path d="M87.35 286.273a54.103 54.103 0 00-4.843 8.268 52.406 52.406 0 00-4.843 21.653v.038h-1.366a133.574 133.574 0 00-2.566-24.76c.784-4.101 1.198-8.751 1.699-13.495.225-2.138.465-4.299.76-6.43l.061-.048c4.07 5.603 8.037 10.632 11.099 14.774z" fill="#CCEFF6"/><path d="M76.298 316.24H70.26c-.395-20.536-14.283-27.022-28.189-38.738-14.373-12.098-29.33-44.034-29.33-44.034a171.231 171.231 0 0141.978 22.101c.402.341.82.661 1.255.958 10.06 7.891 15.185 22.149 17.757 34.944a133.584 133.584 0 012.566 24.769z" fill="#CCEFF6"/><path d="M76.252 271.501l-.062.048a200.449 200.449 0 00-.76 6.432c-1.379-9.153-8.711-14.019-19.452-21.45-.42-.325-.831-.651-1.258-.958-9.742-8.168-12.787-28.092-12.787-28.092 11.154 6.557 20.337 21.752 21.173 23.162.039.069.063.108.063.108a155.484 155.484 0 0013.084 20.75z" fill="#006B99"/><path d="M128.616 242.495a45.215 45.215 0 004.952-2.503l4.311 2.039 21.08 9.919-13.654-22.139a30.371 30.371 0 001.612-2.311 30.073 30.073 0 001.883-3.385 28.005 28.005 0 002.788-11.678v-.504c0-.395 0-.79-.031-1.186" stroke="#006B99" stroke-width="1.543" stroke-linecap="round" stroke-linejoin="round"/><path d="M151.567 210.655a27.167 27.167 0 00-.395-3.541 33.163 33.163 0 00-13.503-20.529 45.887 45.887 0 00-9.052-5.224 54.947 54.947 0 00-22.081-4.493 50.852 50.852 0 00-34.71 12.694 30.69 30.69 0 00-10.353 22.365c0 16.575 14.78 30.47 34.652 34.128a58.15 58.15 0 0010.411.937 57.002 57.002 0 0012.276-1.319 52.76 52.76 0 009.805-3.174m243.154-70.677l2.202-4.524a32.412 32.412 0 01-2.635-4.014 29.191 29.191 0 01-2.495-5.921 27.12 27.12 0 01-1.164-7.712v-.225a27.726 27.726 0 01.56-5.564 28.817 28.817 0 012.219-6.602c6.355-13.374 22.885-22.906 42.278-22.906 24.88 0 45.057 15.699 45.057 35.072 0 19.373-20.177 35.068-45.057 35.068a56.326 56.326 0 01-11.737-1.217 51.253 51.253 0 01-9.051-2.745 47.43 47.43 0 01-6.228-3.053l-21.08 8.991 3.271-6.706 3.873-7.945m20.062 117.577l-13.479-4.563 5.682 16.079a31.472 31.472 0 00-4.279 7.493 27.822 27.822 0 00-2.016 10.383 29.119 29.119 0 005.749 17.144c7.711 10.693 22.43 17.924 39.317 17.924 24.882 0 45.057-15.701 45.057-35.068 0-19.365-20.175-35.065-45.057-35.065a55.145 55.145 0 00-21.817 4.378 47.283 47.283 0 00-5.217 2.635l-3.94-1.34z" stroke="#006B99" stroke-width="1.543" stroke-linecap="round" stroke-linejoin="round"/><path d="M128.616 181.361v-30.355a13.748 13.748 0 0113.75-13.747h228.096M239.605 335.932h-97.239a13.749 13.749 0 01-13.75-13.747v-79.688m254.881 93.435h-93.481m110.983-152.648v104.817" stroke="#006B99" stroke-width="1.543" stroke-linecap="round" stroke-linejoin="round"/><path d="M137.669 186.594v-32.541a10.191 10.191 0 0110.192-10.19h220.378m11.533 164.544H147.861a10.193 10.193 0 01-10.192-10.191v-55.719m254.277-61.955v108.552M137.669 163.283h233.674" stroke="#006B99" stroke-width="1.543" stroke-linecap="round" stroke-linejoin="round"/><path d="M368.664 157.416H174.213v-7.765h193.403m-95.255 172.517a7.565 7.565 0 01-1.271 4.196 7.558 7.558 0 01-7.751 3.217 7.566 7.566 0 01-5.939-5.93 7.55 7.55 0 013.208-7.754 7.549 7.549 0 019.536.933 7.554 7.554 0 012.217 5.338zm-40.513 47.953l7.751-34.189h50.419l4.479 19.768 3.273 14.421m-4.623-.001h-54.703m1.153-34.188l54.9 19.768m-83.507 14.42h11.953m3.549 0h11.952m-197.97 0h11.954m46.688 0h30.817m-73.956 0h16.167m221.005 0H305.1m3.549 0h11.952M159.246 158.316l7.929-4.572-7.929-4.581m-5.123 0l-7.937 4.581 7.937 4.572m237.823 26.316l9.053 16.521m-26.298 107.252l-7.711 27.527M137.669 244.97l-9.053 11.559m-29.5 113.59H72.144c-4.288 0-8.4-1.701-11.432-4.732a16.167 16.167 0 01-4.735-11.431V316.24h59.306v37.716a16.163 16.163 0 01-16.167 16.163zM76.298 316.24a133.542 133.542 0 00-2.566-24.769c-2.572-12.795-7.696-27.063-17.755-34.944-.419-.325-.83-.651-1.257-.958a171.231 171.231 0 00-41.977-22.101s14.959 31.936 29.329 44.034c13.905 11.716 27.787 18.202 28.19 38.738m12.244-21.691a52.394 52.394 0 00-4.843 21.652m9.687-29.928a54.104 54.104 0 00-4.844 8.268m36.389-48.479c-4.005 9.082-9.102 18.095-15.074 23.109a144.982 144.982 0 00-5.596 4.943m-24.492 17.357c.783-4.1 1.197-8.748 1.698-13.494.225-2.138.465-4.297.76-6.43m45.56-2.376c-.225.479-8.55 18.103-16.529 24.837-1.851 1.556-3.706 2.953-5.456 4.311a48.062 48.062 0 00-5.03 4.409 18.112 18.112 0 00-5.403 13.105m9.357-34.675a97.496 97.496 0 0123.044-11.975m-35.833 46.662a75.607 75.607 0 011.164-12.454 50.9 50.9 0 013.665-12.305 23.7 23.7 0 016.628-8.905c.441-.339.882-.682 1.332-1.008m-3.983 21.567a81.645 81.645 0 011.736 13.5" stroke="#006B99" stroke-width="1.543" stroke-linecap="round" stroke-linejoin="round"/><path d="M63.168 250.756a155.644 155.644 0 0013.084 20.753c4.072 5.596 8.037 10.633 11.098 14.772 1.318 1.774 2.458 3.376 3.38 4.803M71.825 189.568a177.507 177.507 0 00-16.322-17.004s-10.983 37.272 5.97 74.657a91.28 91.28 0 001.633 3.417m35.584 30.535c-.147-2.334-.31-4.688-.465-7.051-.675-9.904-1.404-19.924-2.1-28.054m4.472 69.777c0-1.799-.326-8.524-.853-17.514" stroke="#006B99" stroke-width="1.543" stroke-linecap="round" stroke-linejoin="round"/><path d="M63.169 250.757s-.024-.039-.063-.11c-.836-1.41-10.02-16.606-21.173-23.16 0 0 3.045 19.922 12.787 28.09a15 15 0 001.258.958c10.74 7.425 18.073 12.299 19.453 21.45m7.076 16.556c-.03 4.263 1.198 13.284 0 21.296m2.891-26.621s1.272 7.572 1.676 14.167m76.134-134.56v131.058m63.307-120.115h-53.162a3.995 3.995 0 01-3.99-3.99 3.993 3.993 0 013.99-3.985h53.162a3.987 3.987 0 110 7.975zm145.256-7.944c-.115 0-.209-.031-.316-.031h-122.92a3.988 3.988 0 000 7.975h119.361l3.875-7.944zm-218.686 3.954a2.957 2.957 0 01-1.833 2.735 2.972 2.972 0 01-1.713.168 2.978 2.978 0 01-1.517-.812 2.968 2.968 0 014.196-4.193 2.964 2.964 0 01.867 2.102zm104.434 21.037h-84.166a3.96 3.96 0 01-1.556-.275 3.99 3.99 0 01-2.217-5.26 3.983 3.983 0 013.773-2.438h84.166a4.004 4.004 0 011.556.275 3.999 3.999 0 012.53 3.711c0 .533-.108 1.06-.313 1.55a4.009 4.009 0 01-2.217 2.162 3.967 3.967 0 01-1.556.275zm113.934 0h-91.917a3.987 3.987 0 01-2.217-.668 3.993 3.993 0 01-1.47-1.79 3.964 3.964 0 01-.226-2.305 3.977 3.977 0 011.094-2.041 3.953 3.953 0 012.819-1.169h91.917a3.997 3.997 0 012.884 1.133 3.982 3.982 0 011.203 2.853 3.983 3.983 0 01-1.203 2.855 3.979 3.979 0 01-1.328.857 3.96 3.96 0 01-1.556.275zm-218.368-3.989a2.954 2.954 0 01-1.831 2.736 2.955 2.955 0 01-1.713.169 2.98 2.98 0 01-1.518-.81 2.969 2.969 0 013.231-4.838 2.968 2.968 0 011.607 1.607c.149.36.225.745.224 1.136zm57.928 21.05h-37.66a3.996 3.996 0 01-3.99-3.993 4 4 0 013.99-3.984h37.66c1.058 0 2.074.42 2.821 1.169a3.984 3.984 0 010 5.639 3.993 3.993 0 01-2.821 1.169zm160.442 0H233.032a4 4 0 01-3.99-3.993 4.003 4.003 0 011.173-2.815 4.008 4.008 0 012.817-1.169h138.423c1.057 0 2.071.42 2.819 1.169a3.985 3.985 0 010 5.639 3.992 3.992 0 01-2.819 1.169zm-219.858-1.941c0 .17 0 .341-.016.504a2.955 2.955 0 001.489-2.794 2.951 2.951 0 00-1.906-2.529h-.017a28.21 28.21 0 01.412 3.55v.096c.029.383.038.778.038 1.173zm152.426 18.978h-130.67a3.995 3.995 0 01-3.99-3.99 3.99 3.99 0 013.99-3.983h130.67a3.985 3.985 0 013.892 3.987 3.986 3.986 0 01-1.135 2.784 3.982 3.982 0 01-2.757 1.202zm67.43 0h-45.412a3.989 3.989 0 01-2.821-6.806 3.996 3.996 0 012.821-1.167h45.412a3.992 3.992 0 012.884 1.132 3.988 3.988 0 01.889 4.403 4.002 4.002 0 01-2.217 2.164 4.015 4.015 0 01-1.556.274zm-222.531-6.739c.24-.24.992-.222 1.198-.222.787 0 1.542.312 2.099.868a2.971 2.971 0 010 4.198 2.975 2.975 0 01-2.099.868 3.008 3.008 0 01-2.807-2.131m55.949 20.208h-29.909a3.995 3.995 0 01-3.99-3.993 3.996 3.996 0 013.99-3.983h29.909a3.99 3.99 0 013.99 3.989 3.988 3.988 0 01-3.99 3.987zm168.193 0H225.282a3.999 3.999 0 01-3.991-3.993 4.002 4.002 0 013.991-3.983h146.173a3.988 3.988 0 010 7.976zM273.02 265.01h-99.667a3.997 3.997 0 01-3.99-3.991 3.99 3.99 0 013.99-3.984h99.667a3.995 3.995 0 012.756 1.202 3.984 3.984 0 010 5.569 3.988 3.988 0 01-2.756 1.204zm98.433 0h-76.414a3.998 3.998 0 01-3.992-3.991 3.996 3.996 0 013.992-3.984h76.414a3.99 3.99 0 013.892 3.987 3.992 3.992 0 01-3.892 3.988zm-218.368-3.991c0 .586-.175 1.159-.501 1.645a2.963 2.963 0 01-4.562.445 2.964 2.964 0 01.449-4.56 2.96 2.96 0 011.647-.5 2.956 2.956 0 012.744 1.833c.148.361.224.748.223 1.137zm174.192 21.037H173.353a3.99 3.99 0 01-3.99-3.989 3.993 3.993 0 013.99-3.983h153.924a3.985 3.985 0 012.758 6.771 3.985 3.985 0 01-2.758 1.201zm44.178 0h-22.161a3.99 3.99 0 01-3.99-3.991 3.986 3.986 0 011.173-2.814 3.981 3.981 0 012.817-1.167h22.161a3.985 3.985 0 013.773 5.535c-.207.489-.51.933-.891 1.305-.38.372-.832.663-1.326.856a3.95 3.95 0 01-1.556.276zm-218.37-3.997a2.967 2.967 0 01-5.874.577 2.972 2.972 0 011.26-3.044 2.96 2.96 0 011.647-.5 2.97 2.97 0 012.743 1.831c.149.36.225.746.224 1.136zm73.43 21.048h-53.162a3.996 3.996 0 01-3.99-3.993 3.992 3.992 0 013.99-3.984h53.162a3.987 3.987 0 012.82 6.808 3.992 3.992 0 01-2.82 1.169zm144.94 0h-122.92a4.013 4.013 0 01-2.823-1.171 4.006 4.006 0 01-1.17-2.822 4 4 0 013.993-3.984h122.92a3.992 3.992 0 013.988 3.99 3.992 3.992 0 01-3.988 3.987zm-218.369-3.993a2.968 2.968 0 01-3.545 2.906 2.974 2.974 0 01-2.33-2.329 2.972 2.972 0 011.26-3.043 2.962 2.962 0 014.389 1.33c.149.36.226.747.226 1.136z" stroke="#006B99" stroke-width="1.543" stroke-linecap="round" stroke-linejoin="round"/><path d="M96.853 211.747h-.566a11.052 11.052 0 01-7.542-3.526 11.042 11.042 0 01.395-15.416 11.05 11.05 0 017.713-3.136" stroke="#006B99" stroke-width="2.316" stroke-linecap="round" stroke-linejoin="round"/><path d="M81.165 211.731h15.688-.278a11.045 11.045 0 00.278 22.088m19.834-22.072h.565a11.051 11.051 0 0010.481-11.314 11.049 11.049 0 00-11.046-10.764" stroke="#006B99" stroke-width="2.316" stroke-linecap="round" stroke-linejoin="round"/><path d="M132.374 211.731h-15.687.287a11.047 11.047 0 01-.287 22.088m305.564-71.474l21.059-12.15-21.059-12.16m-21.616 0l-21.059 12.16 21.059 12.15" stroke="#006B99" stroke-width="2.316" stroke-linecap="round" stroke-linejoin="round"/><path d="M417.439 132.541l-12.588 35.128" stroke="#006B99" stroke-width="1.543" stroke-linecap="round" stroke-linejoin="round"/><path d="M398.797 333.25l3.411-10.354 8.093-24.565 8.098 24.565 3.411 10.354m-19.602-10.354h16.191" stroke="#006B99" stroke-width="2.316" stroke-linecap="round" stroke-linejoin="round"/><path d="M439.333 327.222c-2.223 4.765-6.387 7.532-9.285 6.183-2.899-1.349-3.439-6.315-1.216-11.088 2.223-4.774 6.377-7.534 9.284-6.185a5.506 5.506 0 012.589 5.323 13.86 13.86 0 01-1.372 5.767z" stroke="#006B99" stroke-width="1.543" stroke-linecap="round" stroke-linejoin="round"/><path d="M440.699 321.384v.071c.426 4.192-2.138 15.236 4.552 10.741" stroke="#006B99" stroke-width="1.543" stroke-linecap="round" stroke-linejoin="round"/></svg>