<svg width="1920" height="821" fill="none" xmlns="http://www.w3.org/2000/svg"><mask id="a" style="mask-type:alpha" maskUnits="userSpaceOnUse" x="0" y="0" width="1930" height="821"><path fill="#fff" d="M0 0h1930v821H0z"/></mask><g mask="url(#a)" clip-rule="evenodd" stroke-width="2"><path d="M1660.53 928.472c-.08-21.98-31.71-46.699-45.23-59.442-26.71-25.206-54.5-48.482-82.03-72.129-27.53-23.648-55.13-47.232-81.38-73.193-17.05-16.853-37.08-35.834-48.64-59.898-24.62-51.283 53.02-43.667 73.13-44.789 51.17-2.866 109.85-1.558 157.81-28.263 28.63-15.943 40.05-42.68 33.9-81.649-1.98-12.673-7.85-27.256-2.88-39.602 5.31-13.187 17.51-20.796 27.65-25.898 36.95-18.59 79.45-20.744 118.55-23.077 42.17-2.564 84.73-1.814 126.6-2.013 17.75-.083 36.29-8.334 53.2-15.039 22.16-8.788 44.06-18.66 66.04-28.205 48.36-20.949 98.18-43.013 149.34-48.334 32.04-3.333 67.06 1.173 91.94 30.167 12.5 14.558 19.04 36.199 26.27 55.424 8.74 23.224 17.14 46.673 26.45 69.532 29.99 73.623 72.81 145.566 142.31 149.181 10.52.545 20.84-1.23 31.31-1.564 6.66-.205 12.59 1.878 15.07 10.898 6.23 22.622-13.35 58.334-21.37 76.282-17.58 39.289-37.4 76.815-55.96 115.316-12.29 25.461-33.55 60.257-33.77 91.193-.2 27.564 28.14 47.487 43.57 61.065 14.46 12.711 40.66 30.495 42.24 56.355.77 12.54-5.62 22.93-12.3 31-11.7 14.1-25.17 24.05-35.7 40.14-17.25 26.4-31.67 62.72-29.33 98.29 1.63 24.65 12.5 40.79 26.33 56.22 5.81 6.48 10.52 11.07 10.83 21.61.5 16.72-4.57 34.42-8.74 49.93-14.92 55.49-36.12 109.15-59.7 159.25-11.78 25.04-24.51 50-40.13 71.36-10.24 14.03-24.04 30.72-39.64 30.7-18.07 0-37.19-8.43-54.76-14.74-32.81-11.79-65.22-25.42-97.5-39.4-74.65-32.35-148.6-67.31-221.85-104.9-51.6-26.52-104.29-53.07-152.79-88.33-9.46-6.92-18.39-15-26.67-24.11-8.85-9.57-19.82-13.85-30.95-17.05-69.07-19.81-144.74-4.6-214.1 4.94-17.6 2.42-35.21 4.85-52.86 6.54-15.18 1.45-33.35 5.63-48.1-.64-29.06-12.34-3.66-57.82 7.09-76.36 37.82-65.25 86.61-120.45 131.84-176.81 21.5-26.84 43.17-53.61 63.51-81.97 10.59-14.744 31.47-38.718 31.4-57.988z" stroke="#5BE7C3"/><path d="M1673.56 924.76c-11.59-23.259-31.93-40.45-48.81-56.629-24.3-23.291-49.36-45.288-74.04-67.919-23.34-21.401-46.73-43.046-68.34-67.349-13.18-14.821-29.72-32.544-35.96-54.464-13.54-47.511 59.31-40.303 77.29-41.546 44.71-3.075 95.4-3.78 136.76-28.795 25.83-15.621 36.44-41.527 30.93-77.492-1.9-12.443-5.34-23.067-.99-35.446 5.02-14.327 16.57-23.259 27.16-29.564 33.18-19.755 72.39-23.951 108.36-27.444 37.15-3.607 75.86-6.151 111.82-3.511 14.37 1.051 30.93-4.914 45.16-9.489 21.89-7.049 43.56-15.18 65.35-22.741 44.28-15.377 89.71-30.192 135.77-31.877 33.25-1.217 67.93 5.383 95.59 30.891 28.04 25.867 40.48 65.965 56.03 104.083 26.86 65.901 63.12 146.026 125.25 159.95 9.42 2.114 18.48.967 27.89 1.486 4.84.263 10.35 1.096 12.8 7.266 6.37 16.019-11.09 45.308-16.96 57.578-16.24 33.908-34.49 66.157-51.5 99.412-13.51 26.405-30.64 55.745-35.86 87.046-6.34 37.983 35.09 65.01 49.66 91.754 25.27 46.38-22.6 72.8-46.19 94.91-27.1 25.39-49.47 71.7-25.17 110.98 9.29 15.02 20.72 23.97 24.87 43.57 6.49 30.66 1.58 65.69-3.68 95.99-7.94 45.55-20.49 90.61-37.56 131.77-12.22 29.48-32.51 75.69-62.21 72.23-20-2.31-40.33-10.77-59.8-18.24-29.15-11.18-57.94-23.92-86.58-37.16-66.09-30.47-131.46-64.08-195.55-101.03-43.73-25.23-165.7-128.32-174.88-132-27.36-10.95-58.48-9.03-86.69-7.33-37.53 2.26-74.87 8.1-112.18 13.52-17.76 2.56-35.61 5.69-53.46 6.95-12.71.9-29.4 1.67-40.53-7.88-21.73-18.64 2.48-61.29 12.49-79.33 30.66-55.32 69.46-103.22 105.83-152.2 17.85-24.05 35.97-48.058 52.18-74.034 6.53-10.489 22.91-31.55 15.75-45.916z" stroke="#5ACEF2"/><path d="M1689.6 912.839c-31.66-46.544-75.36-81.16-113.07-120.033-18.93-19.516-37.97-39.564-54.3-62.811-8.49-12.088-19.1-27.374-20.73-44.224-4.37-45.076 61.28-38.981 80.94-40.692 37.99-3.32 80.91-5.839 115.38-28.842 21.06-14.062 31.43-37.142 27.5-67.477-1.75-13.459-4.47-24.893 0-38.109 4.52-13.389 13.94-22.837 23.48-29.919 27.41-20.368 61.47-26.88 92.33-31.732 36.2-5.651 72.68-7.858 109.13-6.602 31.93 1.083 63.7-11.101 94.87-19.131 41.3-10.633 83.34-19.92 125.6-18.517 33.37 1.115 67.01 9.877 95.54 33.162 28.99 23.714 46.42 59.209 62.14 97.511 23.76 57.901 53.36 135.492 105.48 157.482 7.58 3.205 14.65 3.557 22.46 4.115 3.8.269 8.7.352 10.59 5.473 4.53 12.332-12.22 36.238-16.9 44.57-14.92 26.599-31.1 51.999-46.39 78.245-14.28 24.502-29.83 50.037-38.7 78.75-14.11 45.731 31.01 72.47 29.75 116.042-.79 27.06-20.82 46.46-36.69 59.88-19.53 16.5-47.66 27.36-57.43 57.47-7.28 22.43 4.14 35.49 12.94 52.51 14.91 28.85 15.93 67.94 14.38 101.33-2.09 45.11-10.27 90.89-24.18 132.36-6.31 18.8-14.03 38.36-25.41 52.96-10.65 13.68-20.73 17.19-34.97 14.38-43.59-8.58-87.6-32.52-129.39-53.9-52.52-26.87-104.31-56.53-154.55-89.91-34.27-22.76-69.3-46.84-99.37-78.28-7.84-8.2-15.87-17.11-21.6-27.92-4.33-8.13-6.17-14.84-13.47-19.48-21.65-13.74-51.75-10.15-74.95-8.72-37.08 2.28-73.98 8.33-110.84 13.79-21.5 3.2-62.01 13.28-79.19-10.9-14.82-20.88 3.07-56.48 12.2-74.88 23.11-46.52 52.85-87.34 80.43-129.38 12.64-19.269 25.78-38.683 36.22-60.102 2.67-5.461 6.94-12.697 7.67-19.331.83-7.601-3.02-13.402-6.9-19.138z" stroke="#5BE7C3"/><path d="M1692.32 923.666c-29.25-41.154-64.5-74.963-95.9-113.474-14.09-17.267-28.31-35.381-39.04-56.445-5.77-11.328-11.9-25.586-10.3-39.666 4.56-40.409 58.56-36.76 80.38-39.126 32.42-3.477 69.66-6.979 98.32-28.768 18.78-14.272 25.82-35.349 22.31-62.533-3.76-29.159 4.66-50.325 23.8-66.592 24.01-20.378 54.32-28.684 82.19-34.585 33.59-7.076 67.6-10.213 101.62-9.372 33.08.821 65.14-6.35 98.01-11.013 43.58-6.177 88.55-9.223 131.64 3.438 37.51 11.026 71.4 35.323 96.8 72.898 26.53 39.216 39.67 88.625 61.21 132.011 13.44 27.062 32.17 62.859 57.28 73.379 8.38 3.508 23.64-1.225 16.95 16.035-3.82 9.872-10.98 18.531-16.63 26.6-9.13 13.04-18.57 25.721-27.86 38.582-19.79 27.414-40.99 55.412-55.82 87.874-18.69 40.872 9.09 72.327 5.71 113.771-1.82 22.3-13.81 40.1-26.5 54.08-8.2 9.06-17.18 16.9-26.35 24.22-9.57 7.65-20.9 13.47-29.25 23.36-11.9 14.06-6.74 30.72-4.5 48.9 3.92 31.96 4.79 64.42 2.56 96.65-2.71 39.5-9.08 80.14-22.51 116.04-5.22 13.98-11.83 28.79-21.65 38.16-9.83 9.37-19.99 8.73-31.24 5.91-33.39-8.34-66.7-27.74-98.37-46.13-39.64-23.02-78.49-48.75-115.6-78.02-25.62-20.2-51.31-42.03-72.74-69.42-6.24-7.98-12.17-16.51-16.96-26.05-3.29-6.53-5.06-14.97-9.83-19.88-14.92-15.34-44.89-10.76-62.39-9.86-34.93 1.77-69.31 10.22-104.2 12.27-19.04 1.12-48.86 3.95-62.84-17.02-13.15-19.71-1.24-50.76 6.62-69.75 15.45-37.34 36.2-70.61 54.8-105.33 7.64-14.282 16.02-29.227 20.97-45.539 4.41-14.534-3.19-25.054-10.69-35.605z" stroke="#5ACEF2"/><path d="M1699.51 924.344c-23.28-36.214-51.35-68.361-74.81-105.164-13.72-21.553-37.37-57.787-26.75-88.172 11.65-33.389 52.25-34.299 75.72-36.989 27.93-3.202 60.73-7.577 84.64-28.425 7.56-6.591 14-15.315 16.73-26.805 2.92-12.298-.28-23.058-.69-35.369-.87-25.825 11.05-46.558 26.82-60.796 22.3-20.131 50.17-29.649 76.5-36.285 29.84-7.484 60.17-11.174 90.55-11.016 29.05.128 57.78-.705 86.85-1.666 38.02-1.281 76.58.788 113.46 13.848 36.33 12.874 69.36 37.002 95.3 72.492 25.31 34.632 42.39 76.963 57.35 120.081 8.48 24.474 22.82 61.046 43.06 73.408 9.01 5.502 17.84 5.124 8.27 19.433-12.06 18.017-28.3 32.473-42.26 47.884-20.14 22.238-40.79 44.912-57.69 71.352-10.79 16.883-15.61 33.267-14.86 55.128.57 16.653 3.18 33.137 1.86 49.847-3.09 39.24-26.98 66.15-48.11 91.2-13.59 16.12-26 28.41-32.99 51.33-8.27 27.1-11.75 56.57-17.28 84.7-6.07 30.9-13.09 63.03-26.34 90.24-11.8 24.22-26.16 35.08-47.64 28.56-33.5-10.17-66.53-35.23-96.28-58.41-30.27-23.58-60.03-50.1-85.11-82.52-13.55-17.5-22.79-38.05-34.82-56.86-15.13-23.61-49.36-14.67-69.71-12.67-33.76 3.32-140.02 28.15-130.21-52.26 4.09-33.57 20.2-64.54 31.99-94.16 4.89-12.288 11.96-27.039 13.06-41.124 1.2-15.34-9.61-29.911-16.61-40.812z" stroke="#FF8062"/><path d="M1711.81 927.411c-17.8-32.817-39.09-63.82-54.36-99.265-9.9-22.955-19.63-53.625-6.85-77.913 14.42-27.409 46.22-33.798 69.58-37.29 24.08-3.595 52.82-6.62 72.49-27.402 6.26-6.62 11.42-15.547 12.38-26.236.93-10.254-1.69-20.507-.82-30.946 1.94-23.442 12.93-42.757 27.1-56.765 41.91-41.443 104.29-50.659 154.86-51.742 25.31-.538 51.36 2.288 76.84 4.313 33.06 2.628 66.16 8.267 97.69 21.859 67.03 28.889 111.96 92.96 143.34 172.686 9.87 25.095 17.43 52.248 32.91 72.415 7.97 10.413 6.23 17.892-1.93 27.389-12.75 14.842-28.3 26.185-42.46 38.572-20.13 17.617-40.69 35.496-58.5 56.599-12.27 14.547-20.98 28.562-23.62 50.376-1.89 15.553-1.45 31.401-2.58 47.049-2.16 29.73-9.56 59.23-22.65 83.89-10.4 19.55-22.78 37.31-35.57 54.25-16.64 22.05-30.71 44.45-43.34 70.63-16.75 34.64-40.29 98.54-79.74 81.63-43.51-18.66-84.29-66.07-112.21-112.02-9.37-15.42-17.07-34.34-29.71-45.71-18.93-17-38.14-16.41-60.65-16.34-33.71.1-107.05 9.56-107.84-55.75-.32-25.88 8.34-50.34 12.49-75.235 4.67-27.876-4.7-46.678-16.85-69.044z" stroke="#F1B170"/><path d="M1725.06 930.341c-17.6-42.771-57.07-113.054-27.05-160.616 15.86-25.135 43.9-34.58 67.43-40.209 18.93-4.554 41.77-6.263 56.07-25.565 10.52-14.191 5.85-34.843 9.88-52.608 5-22.023 16.47-40.043 30.58-53.587 39.41-37.854 94.2-49.47 141.61-51.942 49.23-2.562 103.48 9.42 149.81 32.468 57.77 28.747 101.04 83.18 131.31 152.111 5.59 12.724 10.66 25.782 16.02 38.66 3.6 8.639 8.94 16.996 11.78 26.083 4.73 15.152-.84 27.537-9.77 37.412-12.84 14.216-28.62 24.334-43.26 35.003-20.02 14.601-40.49 28.939-59.12 46.07-12.52 11.527-25.62 23.944-30.1 43.943-3.06 13.64-3.69 28.087-3.58 42.214.24 30.292-.99 54.782-11.92 82.532-17.99 45.54-45.65 86.49-74.87 120.57-22.93 26.74-59.22 68.28-92.63 50.4-29.98-16.01-47.52-54.33-67.27-85.31-9.6-15.06-20.39-28.82-33.06-39.53-15.98-13.51-31.03-19.17-49.96-21.38-31.87-3.72-79.92-4.69-89.77-54.13-3.64-18.24-1.56-37.14-3.47-55.623-2.49-24.438-9.78-45.391-18.66-66.966z" stroke="#5BE7C3"/><path d="M1743.36 931.926c-12.53-46.8-29-105.781 1.28-147.376 14.66-20.15 35.28-31.414 55.24-39.832 14.3-6.032 37-7.808 45.76-26.355 6.44-13.649 7.33-32.478 13.16-47.102 8-20.105 20.12-36.664 34.34-49.628 37.05-33.779 85.31-46.832 129.32-50.57 95.62-8.109 192.91 56.481 244.08 162.75 15.26 31.677 34.95 65.392 10.3 97.755-26.92 35.306-67.47 51.846-99.6 76.932-12.28 9.578-27.92 21.092-34.77 38.434-4.12 10.425-4.4 23.503-4.59 34.979-.49 29.227-2.37 55.517-11.46 82.787-14.03 42.14-36.41 81.03-61.77 112.88-22.11 27.77-53.65 60.41-85.77 40.39-24.62-15.39-40.24-48.05-59.38-72.12-21.29-26.81-47.62-44.88-76.54-53.71-28.14-8.56-58.99-14.34-73.82-50.73-5.08-12.48-10.4-28.64-12.3-42.457-3.08-22.779-7.59-45.195-13.48-67.027v0z" stroke="#FF8062"/><path d="M1763.77 932.251c-5.8-47.258-6.44-96.535 20.5-133.782 12.57-17.376 28.46-29.721 44.53-40.906 11.83-8.23 24.04-15.172 32.87-28.664 8.18-12.493 14.4-26.998 22.3-39.817 10.42-16.988 22.89-31.695 36.93-43.554 35.18-29.67 77.99-43.547 118.94-48.361 19.82-2.339 41.32-3.557 61.01 2.821 19.02 6.153 37.82 15.883 55.3 27.228 37.17 24.094 69.38 59.379 92.74 103.99 16.01 30.6 24.67 60.353 3.93 91.395-23.38 34.991-60.03 54.297-90.24 77.006-20.72 15.576-43.94 30.843-47.81 63.943-3.09 26.337-5.59 51.33-13.56 76.23-11.87 36.72-29.32 69.98-51.31 97.82-20.12 25.35-45.57 46.87-74.34 33.33-22.8-10.75-40.48-34.83-60.4-52.05-22.2-19.23-46.59-29.83-72.27-38.35-23.08-7.7-44.81-19.52-59.72-44.61-3.06-5.13-6.26-10.71-8.62-16.45-3-7.32-2.77-14.57-3.36-22.776-1.53-21.652-4.8-43.054-7.42-64.443z" stroke="#F1B170"/><path d="M1786.27 928.391c.5-44.888 8.84-87.311 31.7-122.294 9.78-14.964 21.45-27.291 32.2-41.004 8.66-11.055 16.84-21.327 26.8-30.437 23.62-21.571 42.81-49.485 67.91-68.694 33.51-25.679 71.88-39.874 109.97-45.549 18.59-2.774 37.8-3.743 56.62-.61 16.15 2.69 31.63 12.134 45.98 21.796 28.14 18.926 55.46 45.825 73.73 79.858 40.27 75.03-39.14 129.58-79.89 161.526-18.75 14.695-47.39 31.715-55.07 60.823-5.49 20.794-8.83 41.941-15.9 62.094-18.98 54.12-57.53 117.77-108.89 109.3-21.98-3.62-42.01-18.33-62.53-28.2-21.12-10.17-42.93-15.84-64.89-22.06-20.52-5.81-36.88-14.08-50.13-36.25-6.34-10.59-5.78-23.26-6.34-36.247-.92-21.333-1.49-42.789-1.27-64.052z" stroke="#5BE7C3"/><path d="M1806.76 922.639c8.25-67.755 38.9-141.725 83.96-181.073 53.01-46.287 110.43-85.264 173.76-96.469 29.36-5.196 61.53-7.752 89.23 9.238 21.09 12.922 45.58 32.238 57.18 59.401 28.39 66.442-34.75 119.334-70.73 150.072-19.37 16.548-44.03 32.673-58.62 56.838-8.47 14.011-12.8 32.545-19.64 47.934-20.72 46.63-54.83 84.24-97.33 90.97-19.64 3.11-39.44-.74-58.93-3.79-19.96-3.13-40.17-4.83-60.01-9.19-15.83-3.48-34.49-9.38-40.32-31.3-7.36-27.618-1.92-64.962 1.45-92.631z" stroke="#5ACEF2"/><path d="M1826.85 911.757c12.03-63.702 37.52-125.838 80.36-163.867 22.72-20.165 49.09-34.085 74.41-47.838 28.7-15.587 58.69-27.687 89.32-33.688 38.13-7.476 99.89-14.215 119.82 41.985 19.77 55.782-30.2 105.153-59.75 133.288-18.95 18.024-39.22 34.566-57.32 54.27-9.82 10.682-17.38 23.024-25.69 35.553-22.95 34.714-55.68 62.195-89.04 76.86-32.33 14.23-72.32 20.52-106.45 15.82-14.73-2.02-25.25-8.83-29.71-28.209-6.17-26.936-.92-57.86 4.05-84.174z" stroke="#F1B170"/><path d="M1846.81 894.599c11.96-56.086 37.75-107.314 75.36-140.976 42.16-37.735 96.45-58.704 146.35-69.367 26.53-5.664 84.01-21.02 97.53 22.929 13.52 43.948-25.57 87.258-48.06 111.1-27.3 28.892-56.74 56.789-86.14 82.712-25.54 22.539-52.8 45.583-80.47 62.989-15.6 9.874-31.86 17.936-48.57 24.09-12.38 4.521-28.12 11.264-41.09 7.899-32.73-8.499-20.62-74.559-14.91-101.376z" stroke="#FF8062"/><path d="M1871.46 877.804c26.23-106.067 109.34-158.232 189.36-176.415 18.59-4.22 70.72-19.438 81.11 12.963 10.07 31.415-21.96 68.67-36.95 86.321-46.47 54.695-103.89 95.249-158.29 135.425-16.98 12.54-47.61 39.753-68.67 27.2-22.87-13.654-12-63.501-6.56-85.494z" stroke="#5ACEF2"/><path d="M1898.33 857.387c22.81-78.109 89.16-122.908 150.16-137.677 14.94-3.613 52.89-14.864 64.21 6.933 10.47 20.163-14.52 49.38-23.87 60.99-20.82 25.853-45.49 47.15-69.86 67.621-22.53 18.939-45.31 38.353-69.02 54.371-12.49 8.432-35.91 26.423-50.1 13.404-15.28-14.006-6.59-48.297-1.52-65.642z" stroke="#5ACEF2"/><path d="M1164.85 988.572c-.63-50.041-21.19-102.048-11.04-153.037 8.34-41.877 50.31-45.373 75.49-64.346 20.01-15.073 31.37-41.775 42.19-67.394 9.72-23 18.45-46.692 28.69-69.315 6.63-14.625 18.02-43.343 32.4-43.862 13.76-.499 26.38 21.88 34.38 35.109 10.42 17.244 19.67 35.628 29.79 53.147 17.06 29.551 37.53 51.424 60.97 72.126a2089.99 2089.99 0 0081.33 68.252c20.29 16.206 40.72 32.291 60.21 50.098 12.24 11.174 39.23 32.138 39.35 52.737.06 9.829-7.13 20.715-11.99 28.571-8.21 13.3-17.57 25.46-26.96 37.357-17.49 22.165-35.73 43.315-53.76 64.725-23.41 27.79-45.77 55.13-66.35 86.68-21.27 32.66-41.6 66.39-62.34 99.66-14.05 22.54-28.08 47.85-48.34 61.68-25.38 17.29-46.21-.94-71.87-1.15-22.08-.19-20.45-66.37-23.26-84.77-2.81-18.63-9.02-35.97-11.42-54.64-3-23.31-3.04-47.16-3.78-70.71-.89-28.82-1.25-56.25-25.05-67.24-13.55-6.24-28.21-7.55-42.23-11.29-9.08-2.43-26.22-6.58-26.41-22.388z" stroke="#FF8062"/><path d="M1175.7 979.674c-2.31-41.947-15.99-95.636-3.06-138.936 11.05-37.002 45.59-41.799 68.85-61.237 19.2-16.032 27.75-42.267 37.35-68.041 7.7-20.675 15.17-41.549 23.91-61.563 6.44-14.75 16.28-39.651 29.67-42.704 12.04-2.745 24.96 19.239 31.72 30.423 9.86 16.327 18.29 34.059 27 51.418 15.31 30.494 30.98 57.915 53.39 80.316 22.5 22.496 47.12 39.317 72 56.824 19.46 13.698 38.83 27.794 57.32 43.608 13.78 11.774 33.58 26.844 39.89 47.84 4.99 16.61-20.32 44.172-27.78 53.901-15.37 20.002-31.64 38.777-47.95 57.437-19.88 22.74-40.4 42.63-57.95 68.57-31.41 46.38-57.65 104.13-98.06 138.6-24.37 20.79-51.49 26.11-78.6 23-10.73-1.23-13.31-20.84-14.66-32.27-2.25-19-2.53-38.32-4.26-57.39-1.62-17.85-5.22-34.82-8.12-52.32-2.93-17.74-3.75-35.92-5.91-53.78-1.34-11.08-2.67-23.99-8.52-32.9-6.05-9.23-16.04-13.09-24.77-16.03-16.4-5.47-59.83-5.16-61.46-34.766z" stroke="#5BE7C3"/><path d="M1189.67 962.112c-3.89-38.504-9.34-86.46 6.51-121.935 12.96-29.006 40.6-35.263 60.34-54.163 16.42-15.717 22.63-40.714 30.78-63.943 6.69-19.053 13.41-38.19 21.51-56.321 6.15-13.75 14.07-32.394 26.28-37.191 10.44-4.099 22.23 14.263 28.01 23.402 9.85 15.576 17.88 33.028 25.86 50.25 13.05 28.18 25.06 58.281 43.63 81.203 18.05 22.243 39.48 35.372 61.32 50.134 16.73 11.311 33.35 23.056 49.12 36.544 12.1 10.35 27.09 22.615 33.4 39.836 5.45 14.853-8.55 32.433-15.54 42.911-11.55 17.292-24.37 33.156-37.02 49.081-13.64 17.19-28.75 33.04-41.95 50.64-27.77 37.05-49.95 78.07-84.17 106.46-22.16 18.39-51.98 35.09-78.18 32.09-18.84-2.17-17.6-56.11-19.41-73.34-2.97-28.18-8.72-57.79-17.85-83.75-7.83-22.24-26.46-29.1-43.59-34.089-10.74-3.132-21.99-4.823-32.37-9.664-12.02-5.611-15.05-12.015-16.68-28.155z" stroke="#5ACEF2"/><path d="M1202.7 944.066c-2.32-32.553-1.8-71.048 13.21-99.207 13.16-24.666 36.58-31.16 53.23-50.59 13-15.159 18.11-39.876 25.1-59.923 8.55-24.511 20.52-69.782 42.08-79.006 20.05-8.575 41.02 46.202 48.28 62.537 11.49 25.854 21.1 54.206 35.04 78.081 12 20.555 28.08 31.917 45.15 44.128 21.76 15.596 54.81 34.088 66.44 64.483 8.68 22.649-19.53 56.319-29.16 72.012-10.07 16.392-17.66 35.819-28.05 51.639-16.41 24.95-42.99 45.04-64.94 60.38-21.33 14.91-49.04 31.42-73.25 30.44-15.9-.65-18.93-32.43-22.33-47.95-4.86-22.07-11.32-41.85-25.21-56.86-14.14-15.284-30.8-22.484-48.32-28.785-8.99-3.212-19.24-5.717-27.29-12.205-8.89-7.059-9.09-16.662-9.98-29.174z" stroke="#F1B170"/><path d="M1218.57 925.3c.13-28.123 5.1-58.113 19.84-79.807 12.28-18.069 31.49-24.109 43.24-42.581 9.31-14.625 14.05-35.155 20.28-52.138 7.62-20.811 18.4-57.167 37.35-64.39 18.5-7.031 34.86 33.013 41.96 48.858 10.38 23.234 18.79 47.862 29.27 71.032 8.21 18.178 18.25 29.894 31.62 41.61 15.69 13.761 37.59 29.005 45.97 51.773 6.05 16.484-8.58 42.824-13.9 57.346-3.56 9.754-6.82 19.661-8.61 30.233-1.39 8.232-1.53 15.854-5.57 22.924-10.17 17.78-32.48 20.1-47.61 25.96-20.11 7.78-41.43 16.62-62.47 18.31-12.93 1.05-19.52-14.36-26.9-25.2-8.72-12.82-21.07-22.03-31.85-31.703-14.23-12.784-29.71-20.735-45.73-28.878-7.23-3.675-15.72-7.28-21.32-14.586-5.84-7.574-5.61-18.613-5.57-28.763z" stroke="#FF8062"/><path d="M1235.25 908.603c2.55-23.62 10.52-46.195 23.96-62.893 10.31-12.819 24-20.037 32.27-35.439 7.71-14.358 13.08-30.684 19.45-46.035 6.74-16.229 16.75-43.355 32.29-47.772 16.75-4.756 29.65 22.607 36.8 37.773 9.02 19.165 15.88 39.785 23.95 59.61 6.08 14.777 13.83 28.291 23.01 40.093 9.61 12.442 22.66 24.357 27.53 41.465 4.3 15.153-3.75 33.485-5.17 48.849-1.52 16.415 1.14 33.657-7.28 47.752-17.38 29.064-61 23.674-85.93 24.304-24.6.64-44.38-17.15-64.29-34.072-13.15-11.172-26.84-20.633-40.32-31.043-13.75-10.62-18.52-21.805-16.27-42.592z" stroke="#5ACEF2"/><path d="M1250.74 895.086c7.56-34.219 31.15-52.406 48.02-78.265 13.8-21.17 24.15-65.012 47.39-70.811 26.39-6.582 42.19 51.507 51.37 73.922 10.18 24.859 28.31 45.08 35.85 71.395 3.96 13.812.56 26.7-1.55 40.505-2.31 15.159-4.05 30.658-12.04 42.86-15.72 24.012-46.42 23.845-68.53 24.506-22.89.686-43.13-15.769-61.37-32.191-19.34-17.392-46.88-36.83-39.14-71.921z" stroke="#5ACEF2"/><path d="M1263.39 885.806c8.52-24.379 26.41-44.199 40.92-62.91 12.12-15.598 25.15-46.999 43.62-49.237 21.72-2.64 34.87 30.89 43.42 51.45 8.4 20.203 20.52 41.534 25.18 63.707 4.85 23.098-8.08 54.206-20.41 70.55-13.75 18.226-36.25 24.96-55.56 24.233-20.21-.74-38.76-15.802-54.07-31.426-16.36-16.702-33-38.065-23.1-66.367z" stroke="#FF8062"/><path d="M1275.14 881.214c8.13-20.277 22.22-37.43 35.22-52.731 10.03-11.812 24.83-31.898 39.3-32.39 15.92-.543 29.41 16.316 35.74 33.597 6.23 17.045 12.81 38.415 13.74 57.114 2.03 40.721-39.26 86.335-70.26 82.624-29.39-3.52-69.96-47.812-53.74-88.214z" stroke="#5ACEF2"/><path d="M1285.99 878.981c11.22-26.42 38.47-64.085 63.7-64.979 28.95-1.023 36.22 40.891 32.45 71.266-3.84 31.001-37.22 75.873-63.84 69.81-25.98-5.917-45.6-44.764-32.31-76.097z" stroke="#5BE7C3"/></g></svg>