<svg width="17" height="17" viewBox="0 0 17 17" fill="none" xmlns="http://www.w3.org/2000/svg">
<g clip-path="url(#clip0_3_1017)">
<path d="M15.1128 11.3723C15.0715 11.3396 12.076 9.18042 11.2538 9.3354C10.8613 9.40484 10.6369 9.67253 10.1866 10.2084C10.1141 10.295 9.94 10.5023 9.80464 10.6497C9.52004 10.5569 9.24241 10.4439 8.97388 10.3116C7.58785 9.63681 6.46799 8.51695 5.79322 7.13092C5.66081 6.86243 5.54781 6.5848 5.45507 6.30016C5.60301 6.1643 5.81033 5.99019 5.89889 5.91572C6.43227 5.46788 6.70047 5.24346 6.76991 4.84997C6.91231 4.0348 4.75464 1.01868 4.73199 0.991512C4.6341 0.851661 4.50634 0.735319 4.35796 0.650904C4.20958 0.56649 4.04429 0.516113 3.87405 0.503418C2.99951 0.503418 0.502686 3.74245 0.502686 4.2879C0.502686 4.31961 0.548476 7.54203 4.52216 11.5842C8.56026 15.5533 11.7822 15.5991 11.8139 15.5991C12.3598 15.5991 15.5984 13.1023 15.5984 12.2277C15.5858 12.0581 15.5357 11.8934 15.4518 11.7454C15.3678 11.5975 15.252 11.47 15.1128 11.3723Z" fill="#D6CECE"/>
</g>
<defs>
<clipPath id="clip0_3_1017">
<rect width="16.1021" height="16.1021" fill="white"/>
</clipPath>
</defs>
</svg>
