<svg width="19" height="17" fill="none" xmlns="http://www.w3.org/2000/svg"><path fill-rule="evenodd" clip-rule="evenodd" d="M16.772 4.089c.007.174.009.35.009.524 0 5.302-3.73 11.424-10.55 11.424-2.096 0-4.044-.668-5.685-1.805.29.032.584.056.884.056 1.737 0 3.337-.644 4.606-1.726C4.413 12.54 3.043 11.37 2.57 9.78a3.394 3.394 0 001.676-.071C2.55 9.343 1.271 7.722 1.271 5.774v-.048c.5.294 1.073.477 1.681.501-.996-.723-1.651-1.956-1.651-3.347 0-.731.182-1.423.503-2.019 1.828 2.433 4.562 4.03 7.644 4.197a4.367 4.367 0 01-.096-.914c0-2.218 1.66-4.014 3.709-4.014 1.066 0 2.03.485 2.705 1.264a6.96 6.96 0 002.357-.97c-.278.938-.865 1.725-1.632 2.218a6.955 6.955 0 002.13-.628 7.924 7.924 0 01-1.85 2.075z" fill="#000"/></svg>