<svg width="40" height="41" fill="none" xmlns="http://www.w3.org/2000/svg"><path d="M30.028 18.193A5.376 5.376 0 0028.49 22.5l-.027-.026a6.388 6.388 0 01-6.903 6.902l.027.027a5.409 5.409 0 104.884 4.88l.027.026a6.388 6.388 0 016.903-6.903l-.028-.027a5.398 5.398 0 10-3.34-9.186h-.005z" fill="#5454D4"/><path d="M19.18 25.935l-.029-.026A5.34 5.34 0 0025 20.065l.028.026a6.388 6.388 0 016.903-6.903l-.028-.026a5.409 5.409 0 10-4.88-4.88l-.026-.028a6.387 6.387 0 01-6.903 6.903l.027.028a5.34 5.34 0 00-5.849 5.844l-.026-.026a6.39 6.39 0 01-6.903 6.903l.026.026a5.409 5.409 0 104.88 4.88l.027.026a6.388 6.388 0 016.903-6.903z" fill="#FF7143"/><path d="M9.324 22.984a5.37 5.37 0 001.536-4.308l.028.027a6.388 6.388 0 016.906-6.903l-.028-.027a5.407 5.407 0 10-4.88-4.879l-.026-.026a6.388 6.388 0 01-6.903 6.903l.027.026a5.398 5.398 0 103.342 9.187h-.002z" fill="#5454D4"/></svg>