<svg width="500" height="460" viewBox="0 0 500 460" fill="none" xmlns="http://www.w3.org/2000/svg">
<g clip-path="url(#clip0_1_124)">
<path fill-rule="evenodd" clip-rule="evenodd" d="M213.703 366.878C199.946 367.02 186.385 368.603 173.02 371.626C157.819 375.064 148.121 386.947 150.307 399.46C152.757 413.499 165.992 424.784 183.353 427.641C190.068 428.746 197.697 429.73 206.244 430.594C245.072 434.519 278.459 432.115 298.179 432.115C317.899 432.115 315.213 431.374 337.264 430.594C359.314 429.815 349.809 430.328 381.467 429.172C393.085 428.747 404.701 428.303 416.316 427.839C417.543 427.79 418.765 427.679 419.975 427.505C436.517 429.333 458.697 435.419 454.476 431.618C451.422 428.866 446.734 423.38 440.413 415.159C442.535 411.712 443.523 407.89 443.285 404.053L442.422 389.636C441.718 377.891 429.931 368.515 415.243 368.017C392.9 367.258 373.368 366.878 356.644 366.878C322.281 366.878 325.193 369.016 288.048 369.016C250.903 369.016 247.955 366.524 213.703 366.878Z" fill="#F1F6D2"/>
<path d="M210.327 380.436H206.214V391.844H204.535V380.436H200.431V379.047H210.327V380.436ZM214.157 383.485C214.877 382.601 215.815 382.158 216.969 382.158C218.979 382.158 219.993 383.292 220.01 385.56V391.844H218.384V385.551C218.378 384.865 218.22 384.358 217.91 384.03C217.605 383.702 217.127 383.538 216.477 383.538C215.95 383.538 215.487 383.679 215.088 383.96C214.69 384.241 214.379 384.61 214.157 385.067V391.844H212.531V378.344H214.157V383.485ZM224.771 391.844H223.145V382.334H224.771V391.844ZM223.014 379.812C223.014 379.548 223.093 379.325 223.251 379.144C223.415 378.962 223.655 378.871 223.972 378.871C224.288 378.871 224.528 378.962 224.692 379.144C224.856 379.325 224.938 379.548 224.938 379.812C224.938 380.075 224.856 380.295 224.692 380.471C224.528 380.646 224.288 380.734 223.972 380.734C223.655 380.734 223.415 380.646 223.251 380.471C223.093 380.295 223.014 380.075 223.014 379.812ZM233.479 389.321C233.479 388.882 233.312 388.542 232.978 388.302C232.65 388.056 232.073 387.845 231.246 387.669C230.426 387.493 229.773 387.282 229.286 387.036C228.806 386.79 228.449 386.497 228.214 386.157C227.986 385.817 227.871 385.413 227.871 384.944C227.871 384.165 228.2 383.506 228.856 382.967C229.518 382.428 230.362 382.158 231.387 382.158C232.465 382.158 233.338 382.437 234.006 382.993C234.68 383.55 235.017 384.262 235.017 385.129H233.382C233.382 384.684 233.192 384.3 232.811 383.978C232.436 383.655 231.961 383.494 231.387 383.494C230.795 383.494 230.332 383.623 229.998 383.881C229.664 384.139 229.497 384.476 229.497 384.892C229.497 385.284 229.653 385.58 229.963 385.779C230.274 385.979 230.833 386.169 231.642 386.351C232.456 386.532 233.116 386.749 233.619 387.001C234.123 387.253 234.495 387.558 234.736 387.915C234.982 388.267 235.105 388.697 235.105 389.207C235.105 390.057 234.765 390.739 234.085 391.255C233.406 391.765 232.524 392.02 231.44 392.02C230.678 392.02 230.004 391.885 229.418 391.615C228.832 391.346 228.372 390.971 228.038 390.49C227.71 390.004 227.546 389.479 227.546 388.917H229.172C229.201 389.462 229.418 389.896 229.823 390.218C230.233 390.534 230.772 390.692 231.44 390.692C232.055 390.692 232.547 390.569 232.916 390.323C233.291 390.071 233.479 389.737 233.479 389.321ZM248.679 391.844C248.585 391.656 248.509 391.322 248.45 390.842C247.695 391.627 246.792 392.02 245.743 392.02C244.806 392.02 244.035 391.756 243.432 391.229C242.834 390.695 242.535 390.021 242.535 389.207C242.535 388.217 242.91 387.449 243.66 386.904C244.416 386.354 245.477 386.078 246.842 386.078H248.424V385.331C248.424 384.763 248.254 384.312 247.914 383.978C247.574 383.638 247.073 383.468 246.411 383.468C245.831 383.468 245.345 383.614 244.952 383.907C244.56 384.2 244.363 384.555 244.363 384.971H242.729C242.729 384.496 242.896 384.039 243.23 383.6C243.57 383.154 244.027 382.803 244.601 382.545C245.181 382.287 245.817 382.158 246.508 382.158C247.604 382.158 248.462 382.434 249.083 382.984C249.704 383.529 250.027 384.282 250.05 385.243V389.62C250.05 390.493 250.161 391.188 250.384 391.703V391.844H248.679ZM245.981 390.604C246.49 390.604 246.974 390.473 247.431 390.209C247.888 389.945 248.219 389.603 248.424 389.181V387.229H247.15C245.157 387.229 244.161 387.812 244.161 388.979C244.161 389.488 244.331 389.887 244.671 390.174C245.011 390.461 245.447 390.604 245.981 390.604ZM256.973 390.692C257.553 390.692 258.06 390.517 258.494 390.165C258.927 389.813 259.168 389.374 259.214 388.847H260.753C260.723 389.392 260.536 389.91 260.19 390.402C259.844 390.895 259.381 391.287 258.801 391.58C258.227 391.873 257.618 392.02 256.973 392.02C255.678 392.02 254.647 391.589 253.88 390.728C253.118 389.86 252.737 388.677 252.737 387.177V386.904C252.737 385.979 252.907 385.155 253.247 384.435C253.587 383.714 254.073 383.154 254.706 382.756C255.344 382.357 256.097 382.158 256.964 382.158C258.031 382.158 258.916 382.478 259.619 383.116C260.328 383.755 260.706 384.584 260.753 385.604H259.214C259.168 384.988 258.933 384.484 258.511 384.092C258.095 383.693 257.58 383.494 256.964 383.494C256.138 383.494 255.497 383.793 255.04 384.391C254.589 384.982 254.363 385.841 254.363 386.966V387.273C254.363 388.369 254.589 389.213 255.04 389.805C255.491 390.396 256.135 390.692 256.973 390.692ZM264.679 382.334L264.732 383.529C265.458 382.615 266.407 382.158 267.579 382.158C269.589 382.158 270.603 383.292 270.62 385.56V391.844H268.994V385.551C268.988 384.865 268.83 384.358 268.52 384.03C268.215 383.702 267.737 383.538 267.087 383.538C266.56 383.538 266.097 383.679 265.698 383.96C265.3 384.241 264.989 384.61 264.767 385.067V391.844H263.141V382.334H264.679ZM277.579 392.02C276.29 392.02 275.241 391.598 274.432 390.754C273.624 389.904 273.219 388.771 273.219 387.353V387.054C273.219 386.11 273.398 385.27 273.755 384.531C274.119 383.787 274.623 383.207 275.267 382.791C275.918 382.369 276.621 382.158 277.376 382.158C278.613 382.158 279.574 382.565 280.259 383.38C280.945 384.194 281.288 385.36 281.288 386.878V387.555H274.845C274.869 388.492 275.141 389.251 275.663 389.831C276.19 390.405 276.858 390.692 277.667 390.692C278.241 390.692 278.727 390.575 279.126 390.341C279.524 390.106 279.873 389.796 280.171 389.409L281.165 390.183C280.368 391.407 279.172 392.02 277.579 392.02ZM277.376 383.494C276.72 383.494 276.169 383.734 275.724 384.215C275.279 384.689 275.003 385.357 274.898 386.219H279.662V386.096C279.615 385.27 279.392 384.631 278.994 384.18C278.595 383.723 278.056 383.494 277.376 383.494ZM290.291 382.334L290.335 383.389C291.033 382.568 291.973 382.158 293.157 382.158C294.487 382.158 295.392 382.668 295.872 383.688C296.189 383.23 296.599 382.861 297.103 382.58C297.613 382.299 298.213 382.158 298.905 382.158C300.991 382.158 302.051 383.263 302.086 385.472V391.844H300.46V385.568C300.46 384.889 300.305 384.382 299.995 384.048C299.684 383.708 299.162 383.538 298.43 383.538C297.827 383.538 297.326 383.72 296.927 384.083C296.529 384.44 296.297 384.924 296.233 385.533V391.844H294.598V385.612C294.598 384.229 293.921 383.538 292.568 383.538C291.501 383.538 290.772 383.992 290.379 384.9V391.844H288.753V382.334H290.291ZM309.054 392.02C307.764 392.02 306.716 391.598 305.907 390.754C305.098 389.904 304.694 388.771 304.694 387.353V387.054C304.694 386.11 304.873 385.27 305.23 384.531C305.594 383.787 306.098 383.207 306.742 382.791C307.392 382.369 308.096 382.158 308.851 382.158C310.088 382.158 311.049 382.565 311.734 383.38C312.42 384.194 312.763 385.36 312.763 386.878V387.555H306.32C306.344 388.492 306.616 389.251 307.138 389.831C307.665 390.405 308.333 390.692 309.141 390.692C309.716 390.692 310.202 390.575 310.6 390.341C310.999 390.106 311.348 389.796 311.646 389.409L312.639 390.183C311.843 391.407 310.647 392.02 309.054 392.02ZM308.851 383.494C308.195 383.494 307.644 383.734 307.199 384.215C306.754 384.689 306.478 385.357 306.373 386.219H311.137V386.096C311.09 385.27 310.867 384.631 310.469 384.18C310.07 383.723 309.531 383.494 308.851 383.494ZM314.817 387.01C314.817 385.551 315.162 384.379 315.854 383.494C316.545 382.604 317.45 382.158 318.57 382.158C319.683 382.158 320.565 382.539 321.215 383.301V378.344H322.841V391.844H321.347L321.268 390.824C320.617 391.621 319.712 392.02 318.552 392.02C317.45 392.02 316.551 391.568 315.854 390.666C315.162 389.764 314.817 388.586 314.817 387.133V387.01ZM316.443 387.194C316.443 388.272 316.665 389.116 317.111 389.726C317.556 390.335 318.171 390.64 318.956 390.64C319.988 390.64 320.741 390.177 321.215 389.251V384.883C320.729 383.986 319.982 383.538 318.974 383.538C318.177 383.538 317.556 383.846 317.111 384.461C316.665 385.076 316.443 385.987 316.443 387.194ZM327.699 391.844H326.073V382.334H327.699V391.844ZM325.941 379.812C325.941 379.548 326.02 379.325 326.178 379.144C326.342 378.962 326.583 378.871 326.899 378.871C327.216 378.871 327.456 378.962 327.62 379.144C327.784 379.325 327.866 379.548 327.866 379.812C327.866 380.075 327.784 380.295 327.62 380.471C327.456 380.646 327.216 380.734 326.899 380.734C326.583 380.734 326.342 380.646 326.178 380.471C326.02 380.295 325.941 380.075 325.941 379.812ZM334.684 390.692C335.264 390.692 335.771 390.517 336.204 390.165C336.638 389.813 336.878 389.374 336.925 388.847H338.463C338.434 389.392 338.246 389.91 337.901 390.402C337.555 390.895 337.092 391.287 336.512 391.58C335.938 391.873 335.328 392.02 334.684 392.02C333.389 392.02 332.358 391.589 331.59 390.728C330.828 389.86 330.447 388.677 330.447 387.177V386.904C330.447 385.979 330.617 385.155 330.957 384.435C331.297 383.714 331.783 383.154 332.416 382.756C333.055 382.357 333.808 382.158 334.675 382.158C335.741 382.158 336.626 382.478 337.329 383.116C338.038 383.755 338.416 384.584 338.463 385.604H336.925C336.878 384.988 336.644 384.484 336.222 384.092C335.806 383.693 335.29 383.494 334.675 383.494C333.849 383.494 333.207 383.793 332.75 384.391C332.299 384.982 332.073 385.841 332.073 386.966V387.273C332.073 388.369 332.299 389.213 332.75 389.805C333.201 390.396 333.846 390.692 334.684 390.692ZM342.618 391.844H340.992V382.334H342.618V391.844ZM340.86 379.812C340.86 379.548 340.939 379.325 341.097 379.144C341.261 378.962 341.502 378.871 341.818 378.871C342.134 378.871 342.375 378.962 342.539 379.144C342.703 379.325 342.785 379.548 342.785 379.812C342.785 380.075 342.703 380.295 342.539 380.471C342.375 380.646 342.134 380.734 341.818 380.734C341.502 380.734 341.261 380.646 341.097 380.471C340.939 380.295 340.86 380.075 340.86 379.812ZM347.326 382.334L347.379 383.529C348.106 382.615 349.055 382.158 350.227 382.158C352.236 382.158 353.25 383.292 353.268 385.56V391.844H351.642V385.551C351.636 384.865 351.478 384.358 351.167 384.03C350.862 383.702 350.385 383.538 349.734 383.538C349.207 383.538 348.744 383.679 348.346 383.96C347.947 384.241 347.637 384.61 347.414 385.067V391.844H345.788V382.334H347.326ZM360.226 392.02C358.937 392.02 357.888 391.598 357.08 390.754C356.271 389.904 355.867 388.771 355.867 387.353V387.054C355.867 386.11 356.045 385.27 356.403 384.531C356.766 383.787 357.27 383.207 357.915 382.791C358.565 382.369 359.268 382.158 360.024 382.158C361.26 382.158 362.221 382.565 362.907 383.38C363.592 384.194 363.935 385.36 363.935 386.878V387.555H357.493C357.516 388.492 357.789 389.251 358.31 389.831C358.837 390.405 359.505 390.692 360.314 390.692C360.888 390.692 361.374 390.575 361.773 390.341C362.171 390.106 362.52 389.796 362.819 389.409L363.812 390.183C363.015 391.407 361.82 392.02 360.226 392.02ZM360.024 383.494C359.368 383.494 358.817 383.734 358.372 384.215C357.926 384.689 357.651 385.357 357.545 386.219H362.309V386.096C362.262 385.27 362.04 384.631 361.641 384.18C361.243 383.723 360.704 383.494 360.024 383.494ZM373.176 391.844H371.55V382.334H373.176V391.844ZM371.418 379.812C371.418 379.548 371.497 379.325 371.656 379.144C371.82 378.962 372.06 378.871 372.376 378.871C372.693 378.871 372.933 378.962 373.097 379.144C373.261 379.325 373.343 379.548 373.343 379.812C373.343 380.075 373.261 380.295 373.097 380.471C372.933 380.646 372.693 380.734 372.376 380.734C372.06 380.734 371.82 380.646 371.656 380.471C371.497 380.295 371.418 380.075 371.418 379.812ZM381.884 389.321C381.884 388.882 381.717 388.542 381.383 388.302C381.054 388.056 380.477 387.845 379.651 387.669C378.831 387.493 378.178 387.282 377.691 387.036C377.211 386.79 376.853 386.497 376.619 386.157C376.39 385.817 376.276 385.413 376.276 384.944C376.276 384.165 376.604 383.506 377.261 382.967C377.923 382.428 378.766 382.158 379.792 382.158C380.87 382.158 381.743 382.437 382.411 382.993C383.085 383.55 383.422 384.262 383.422 385.129H381.787C381.787 384.684 381.596 384.3 381.216 383.978C380.841 383.655 380.366 383.494 379.792 383.494C379.2 383.494 378.737 383.623 378.403 383.881C378.069 384.139 377.902 384.476 377.902 384.892C377.902 385.284 378.057 385.58 378.368 385.779C378.679 385.979 379.238 386.169 380.047 386.351C380.861 386.532 381.52 386.749 382.024 387.001C382.528 387.253 382.9 387.558 383.14 387.915C383.387 388.267 383.51 388.697 383.51 389.207C383.51 390.057 383.17 390.739 382.49 391.255C381.81 391.765 380.929 392.02 379.845 392.02C379.083 392.02 378.409 391.885 377.823 391.615C377.237 391.346 376.777 390.971 376.443 390.49C376.115 390.004 375.951 389.479 375.951 388.917H377.577C377.606 389.462 377.823 389.896 378.227 390.218C378.637 390.534 379.177 390.692 379.845 390.692C380.46 390.692 380.952 390.569 381.321 390.323C381.696 390.071 381.884 389.737 381.884 389.321ZM207.102 413.903C206.469 414.647 205.54 415.02 204.315 415.02C203.302 415.02 202.528 414.727 201.995 414.141C201.468 413.549 201.201 412.676 201.195 411.521V405.334H202.821V411.478C202.821 412.919 203.407 413.64 204.579 413.64C205.821 413.64 206.647 413.177 207.058 412.251V405.334H208.684V414.844H207.137L207.102 413.903ZM219.755 410.194C219.755 411.642 219.424 412.808 218.762 413.692C218.1 414.577 217.204 415.02 216.073 415.02C214.918 415.02 214.01 414.653 213.348 413.921V418.5H211.722V405.334H213.207L213.287 406.389C213.949 405.568 214.869 405.158 216.046 405.158C217.189 405.158 218.091 405.589 218.753 406.45C219.421 407.312 219.755 408.51 219.755 410.045V410.194ZM218.129 410.01C218.129 408.938 217.901 408.091 217.444 407.47C216.987 406.849 216.36 406.538 215.563 406.538C214.579 406.538 213.84 406.975 213.348 407.848V412.392C213.834 413.259 214.579 413.692 215.581 413.692C216.36 413.692 216.978 413.385 217.435 412.77C217.898 412.148 218.129 411.229 218.129 410.01ZM227.927 412.321C227.927 411.882 227.76 411.542 227.426 411.302C227.098 411.056 226.52 410.845 225.694 410.669C224.874 410.493 224.221 410.282 223.734 410.036C223.254 409.79 222.896 409.497 222.662 409.157C222.433 408.817 222.319 408.413 222.319 407.944C222.319 407.165 222.647 406.506 223.304 405.967C223.966 405.428 224.809 405.158 225.835 405.158C226.913 405.158 227.786 405.437 228.454 405.993C229.128 406.55 229.465 407.262 229.465 408.129H227.83C227.83 407.684 227.64 407.3 227.259 406.978C226.884 406.655 226.409 406.494 225.835 406.494C225.243 406.494 224.78 406.623 224.446 406.881C224.112 407.139 223.945 407.476 223.945 407.892C223.945 408.284 224.1 408.58 224.411 408.779C224.722 408.979 225.281 409.169 226.09 409.351C226.904 409.532 227.563 409.749 228.067 410.001C228.571 410.253 228.943 410.558 229.183 410.915C229.43 411.267 229.553 411.697 229.553 412.207C229.553 413.057 229.213 413.739 228.533 414.255C227.853 414.765 226.972 415.02 225.888 415.02C225.126 415.02 224.452 414.885 223.866 414.615C223.28 414.346 222.82 413.971 222.486 413.49C222.158 413.004 221.994 412.479 221.994 411.917H223.62C223.649 412.462 223.866 412.896 224.27 413.218C224.681 413.534 225.22 413.692 225.888 413.692C226.503 413.692 226.995 413.569 227.364 413.323C227.739 413.071 227.927 412.737 227.927 412.321ZM236.177 415.02C234.888 415.02 233.839 414.598 233.031 413.754C232.222 412.904 231.818 411.771 231.818 410.353V410.054C231.818 409.11 231.996 408.27 232.354 407.531C232.717 406.787 233.221 406.207 233.866 405.791C234.516 405.369 235.219 405.158 235.975 405.158C237.211 405.158 238.172 405.565 238.858 406.38C239.543 407.194 239.886 408.36 239.886 409.878V410.555H233.444C233.467 411.492 233.74 412.251 234.261 412.831C234.788 413.405 235.456 413.692 236.265 413.692C236.839 413.692 237.326 413.575 237.724 413.341C238.122 413.106 238.471 412.796 238.77 412.409L239.763 413.183C238.966 414.407 237.771 415.02 236.177 415.02ZM235.975 406.494C235.319 406.494 234.768 406.734 234.323 407.215C233.877 407.689 233.602 408.357 233.496 409.219H238.26V409.096C238.213 408.27 237.991 407.631 237.592 407.18C237.194 406.723 236.655 406.494 235.975 406.494ZM244.542 403.031V405.334H246.317V406.591H244.542V412.488C244.542 412.869 244.621 413.156 244.779 413.35C244.937 413.537 245.207 413.631 245.588 413.631C245.775 413.631 246.033 413.596 246.361 413.525V414.844C245.933 414.961 245.517 415.02 245.113 415.02C244.386 415.02 243.839 414.8 243.469 414.36C243.1 413.921 242.916 413.297 242.916 412.488V406.591H241.184V405.334H242.916V403.031H244.542ZM250.99 403.031V405.334H252.766V406.591H250.99V412.488C250.99 412.869 251.07 413.156 251.228 413.35C251.386 413.537 251.655 413.631 252.036 413.631C252.224 413.631 252.482 413.596 252.81 413.525V414.844C252.382 414.961 251.966 415.02 251.562 415.02C250.835 415.02 250.287 414.8 249.918 414.36C249.549 413.921 249.364 413.297 249.364 412.488V406.591H247.633V405.334H249.364V403.031H250.99ZM257 414.844H255.374V405.334H257V414.844ZM255.242 402.812C255.242 402.548 255.321 402.325 255.479 402.144C255.643 401.962 255.883 401.871 256.2 401.871C256.516 401.871 256.756 401.962 256.921 402.144C257.085 402.325 257.167 402.548 257.167 402.812C257.167 403.075 257.085 403.295 256.921 403.471C256.756 403.646 256.516 403.734 256.2 403.734C255.883 403.734 255.643 403.646 255.479 403.471C255.321 403.295 255.242 403.075 255.242 402.812ZM261.708 405.334L261.761 406.529C262.487 405.615 263.437 405.158 264.608 405.158C266.618 405.158 267.632 406.292 267.649 408.56V414.844H266.024V408.551C266.018 407.865 265.859 407.358 265.549 407.03C265.244 406.702 264.767 406.538 264.116 406.538C263.589 406.538 263.126 406.679 262.728 406.96C262.329 407.241 262.019 407.61 261.796 408.067V414.844H260.17V405.334H261.708ZM270.275 410.01C270.275 408.527 270.618 407.35 271.303 406.477C271.989 405.598 272.897 405.158 274.028 405.158C275.188 405.158 276.093 405.568 276.744 406.389L276.823 405.334H278.308V414.615C278.308 415.846 277.942 416.815 277.209 417.524C276.483 418.233 275.504 418.588 274.274 418.588C273.588 418.588 272.918 418.441 272.261 418.148C271.605 417.855 271.104 417.454 270.758 416.944L271.602 415.969C272.299 416.83 273.152 417.261 274.16 417.261C274.951 417.261 275.566 417.038 276.005 416.593C276.451 416.147 276.673 415.521 276.673 414.712V413.895C276.023 414.645 275.135 415.02 274.01 415.02C272.897 415.02 271.995 414.571 271.303 413.675C270.618 412.778 270.275 411.557 270.275 410.01ZM271.91 410.194C271.91 411.267 272.129 412.11 272.569 412.726C273.008 413.335 273.624 413.64 274.415 413.64C275.44 413.64 276.193 413.174 276.673 412.242V407.9C276.175 406.992 275.428 406.538 274.432 406.538C273.641 406.538 273.023 406.846 272.578 407.461C272.132 408.076 271.91 408.987 271.91 410.194ZM287.883 405.334L287.927 406.389C288.624 405.568 289.565 405.158 290.748 405.158C292.079 405.158 292.984 405.668 293.464 406.688C293.781 406.23 294.191 405.861 294.695 405.58C295.204 405.299 295.805 405.158 296.496 405.158C298.582 405.158 299.643 406.263 299.678 408.472V414.844H298.052V408.568C298.052 407.889 297.897 407.382 297.586 407.048C297.276 406.708 296.754 406.538 296.022 406.538C295.418 406.538 294.917 406.72 294.519 407.083C294.121 407.44 293.889 407.924 293.825 408.533V414.844H292.19V408.612C292.19 407.229 291.513 406.538 290.16 406.538C289.093 406.538 288.364 406.992 287.971 407.9V414.844H286.345V405.334H287.883ZM305.81 412.462L308.025 405.334H309.765L305.942 416.312C305.35 417.894 304.41 418.685 303.121 418.685L302.813 418.658L302.207 418.544V417.226L302.646 417.261C303.197 417.261 303.625 417.149 303.93 416.927C304.24 416.704 304.495 416.297 304.694 415.705L305.055 414.738L301.662 405.334H303.437L305.81 412.462ZM322.346 412.321C322.346 411.882 322.179 411.542 321.845 411.302C321.517 411.056 320.94 410.845 320.114 410.669C319.294 410.493 318.64 410.282 318.154 410.036C317.674 409.79 317.316 409.497 317.082 409.157C316.853 408.817 316.739 408.413 316.739 407.944C316.739 407.165 317.067 406.506 317.723 405.967C318.385 405.428 319.229 405.158 320.255 405.158C321.333 405.158 322.206 405.437 322.874 405.993C323.548 406.55 323.884 407.262 323.884 408.129H322.25C322.25 407.684 322.059 407.3 321.678 406.978C321.303 406.655 320.829 406.494 320.255 406.494C319.663 406.494 319.2 406.623 318.866 406.881C318.532 407.139 318.365 407.476 318.365 407.892C318.365 408.284 318.52 408.58 318.831 408.779C319.141 408.979 319.701 409.169 320.509 409.351C321.324 409.532 321.983 409.749 322.487 410.001C322.991 410.253 323.363 410.558 323.603 410.915C323.849 411.267 323.972 411.697 323.972 412.207C323.972 413.057 323.633 413.739 322.953 414.255C322.273 414.765 321.391 415.02 320.307 415.02C319.546 415.02 318.872 414.885 318.286 414.615C317.7 414.346 317.24 413.971 316.906 413.49C316.578 413.004 316.414 412.479 316.414 411.917H318.04C318.069 412.462 318.286 412.896 318.69 413.218C319.1 413.534 319.639 413.692 320.307 413.692C320.923 413.692 321.415 413.569 321.784 413.323C322.159 413.071 322.346 412.737 322.346 412.321ZM328.857 403.031V405.334H330.632V406.591H328.857V412.488C328.857 412.869 328.936 413.156 329.094 413.35C329.252 413.537 329.522 413.631 329.902 413.631C330.09 413.631 330.348 413.596 330.676 413.525V414.844C330.248 414.961 329.832 415.02 329.428 415.02C328.701 415.02 328.153 414.8 327.784 414.36C327.415 413.921 327.231 413.297 327.231 412.488V406.591H325.499V405.334H327.231V403.031H328.857ZM332.493 410.001C332.493 409.069 332.674 408.231 333.038 407.487C333.407 406.743 333.917 406.169 334.567 405.765C335.223 405.36 335.97 405.158 336.808 405.158C338.103 405.158 339.149 405.606 339.946 406.503C340.749 407.399 341.15 408.592 341.15 410.08V410.194C341.15 411.12 340.971 411.952 340.614 412.69C340.262 413.423 339.755 413.994 339.093 414.404C338.437 414.814 337.681 415.02 336.826 415.02C335.537 415.02 334.491 414.571 333.688 413.675C332.891 412.778 332.493 411.592 332.493 410.115V410.001ZM334.128 410.194C334.128 411.249 334.371 412.096 334.857 412.734C335.349 413.373 336.005 413.692 336.826 413.692C337.652 413.692 338.308 413.37 338.795 412.726C339.281 412.075 339.524 411.167 339.524 410.001C339.524 408.958 339.275 408.114 338.777 407.47C338.285 406.819 337.629 406.494 336.808 406.494C336.005 406.494 335.358 406.813 334.866 407.452C334.374 408.091 334.128 409.005 334.128 410.194ZM345.278 405.334L345.322 406.389C346.02 405.568 346.96 405.158 348.144 405.158C349.474 405.158 350.379 405.668 350.859 406.688C351.176 406.23 351.586 405.861 352.09 405.58C352.6 405.299 353.2 405.158 353.892 405.158C355.978 405.158 357.038 406.263 357.073 408.472V414.844H355.447V408.568C355.447 407.889 355.292 407.382 354.981 407.048C354.671 406.708 354.149 406.538 353.417 406.538C352.814 406.538 352.313 406.72 351.914 407.083C351.516 407.44 351.284 407.924 351.22 408.533V414.844H349.585V408.612C349.585 407.229 348.908 406.538 347.555 406.538C346.488 406.538 345.759 406.992 345.366 407.9V414.844H343.74V405.334H345.278ZM365.965 414.844C365.872 414.656 365.795 414.322 365.737 413.842C364.981 414.627 364.079 415.02 363.03 415.02C362.092 415.02 361.322 414.756 360.718 414.229C360.121 413.695 359.822 413.021 359.822 412.207C359.822 411.217 360.197 410.449 360.947 409.904C361.703 409.354 362.763 409.078 364.128 409.078H365.71V408.331C365.71 407.763 365.541 407.312 365.201 406.978C364.861 406.638 364.36 406.468 363.698 406.468C363.118 406.468 362.631 406.614 362.239 406.907C361.846 407.2 361.65 407.555 361.65 407.971H360.015C360.015 407.496 360.182 407.039 360.516 406.6C360.856 406.154 361.313 405.803 361.887 405.545C362.467 405.287 363.103 405.158 363.794 405.158C364.89 405.158 365.749 405.434 366.37 405.984C366.991 406.529 367.313 407.282 367.336 408.243V412.62C367.336 413.493 367.448 414.188 367.67 414.703V414.844H365.965ZM363.267 413.604C363.777 413.604 364.26 413.473 364.717 413.209C365.174 412.945 365.505 412.603 365.71 412.181V410.229H364.436C362.444 410.229 361.448 410.812 361.448 411.979C361.448 412.488 361.618 412.887 361.958 413.174C362.297 413.461 362.734 413.604 363.267 413.604ZM374.26 413.692C374.84 413.692 375.347 413.517 375.78 413.165C376.214 412.813 376.454 412.374 376.501 411.847H378.039C378.01 412.392 377.822 412.91 377.476 413.402C377.131 413.895 376.668 414.287 376.088 414.58C375.514 414.873 374.904 415.02 374.26 415.02C372.965 415.02 371.934 414.589 371.166 413.728C370.404 412.86 370.023 411.677 370.023 410.177V409.904C370.023 408.979 370.193 408.155 370.533 407.435C370.873 406.714 371.359 406.154 371.992 405.756C372.631 405.357 373.384 405.158 374.251 405.158C375.317 405.158 376.202 405.478 376.905 406.116C377.614 406.755 377.992 407.584 378.039 408.604H376.501C376.454 407.988 376.22 407.484 375.798 407.092C375.382 406.693 374.866 406.494 374.251 406.494C373.425 406.494 372.783 406.793 372.326 407.391C371.875 407.982 371.649 408.841 371.649 409.966V410.273C371.649 411.369 371.875 412.213 372.326 412.805C372.777 413.396 373.422 413.692 374.26 413.692ZM382.053 406.485C382.774 405.601 383.711 405.158 384.866 405.158C386.875 405.158 387.889 406.292 387.907 408.56V414.844H386.281V408.551C386.275 407.865 386.117 407.358 385.806 407.03C385.501 406.702 385.024 406.538 384.373 406.538C383.846 406.538 383.383 406.679 382.985 406.96C382.586 407.241 382.276 407.61 382.053 408.067V414.844H380.427V401.344H382.053V406.485ZM390.936 413.991C390.936 413.71 391.018 413.476 391.182 413.288C391.352 413.101 391.604 413.007 391.938 413.007C392.272 413.007 392.524 413.101 392.694 413.288C392.87 413.476 392.958 413.71 392.958 413.991C392.958 414.261 392.87 414.486 392.694 414.668C392.524 414.85 392.272 414.94 391.938 414.94C391.604 414.94 391.352 414.85 391.182 414.668C391.018 414.486 390.936 414.261 390.936 413.991Z" fill="#0B4A72"/>
</g>
<g clip-path="url(#clip1_1_124)">
<path fill-rule="evenodd" clip-rule="evenodd" d="M268.986 248.882C284.322 249.042 299.439 250.816 314.338 254.205C331.284 258.061 342.094 271.384 339.658 285.413C336.926 301.154 322.173 313.807 302.819 317.01C295.334 318.249 286.829 319.353 277.301 320.321C234.018 324.722 196.8 322.026 174.817 322.026C152.834 322.026 155.829 321.195 131.247 320.321C106.667 319.448 117.263 320.023 81.9707 318.727C69.0201 318.251 56.0708 317.752 43.1228 317.232C41.7549 317.178 40.3927 317.053 39.0448 316.858C20.6038 318.907 -4.12113 325.731 0.583857 321.47C3.98885 318.384 9.21484 312.233 16.2608 303.016C13.896 299.151 12.794 294.865 13.0588 290.563L14.0218 274.399C14.8058 261.231 27.9458 250.718 44.3198 250.16C69.2257 249.308 90.9997 248.882 109.643 248.882C147.95 248.882 144.703 251.279 186.111 251.279C227.518 251.279 230.804 248.486 268.986 248.882Z" fill="#F8E2EE"/>
<path d="M53.665 269.047L57.8486 279.488L62.0322 269.047H64.2207V281.844H62.5332V276.86L62.6914 271.481L58.4902 281.844H57.1982L53.0059 271.508L53.1729 276.86V281.844H51.4854V269.047H53.665ZM70.6166 279.462L72.8315 272.334H74.5717L70.7485 283.312C70.1567 284.894 69.2162 285.685 67.9272 285.685L67.6196 285.658L67.0131 285.544V284.226L67.4526 284.261C68.0034 284.261 68.4311 284.149 68.7358 283.927C69.0463 283.704 69.3012 283.297 69.5004 282.705L69.8608 281.738L66.4682 272.334H68.2436L70.6166 279.462ZM83.1448 272.334L83.1888 273.389C83.8861 272.568 84.8265 272.158 86.0101 272.158C87.3402 272.158 88.2454 272.668 88.7259 273.688C89.0423 273.23 89.4525 272.861 89.9564 272.58C90.4661 272.299 91.0667 272.158 91.7581 272.158C93.8441 272.158 94.9046 273.263 94.9398 275.472V281.844H93.3138V275.568C93.3138 274.889 93.1585 274.382 92.848 274.048C92.5374 273.708 92.0159 273.538 91.2835 273.538C90.68 273.538 90.179 273.72 89.7806 274.083C89.3821 274.44 89.1507 274.924 89.0863 275.533V281.844H87.4515V275.612C87.4515 274.229 86.7747 273.538 85.4212 273.538C84.3548 273.538 83.6253 273.992 83.2327 274.9V281.844H81.6068V272.334H83.1448ZM101.907 282.02C100.618 282.02 99.5691 281.598 98.7605 280.754C97.9519 279.904 97.5476 278.771 97.5476 277.353V277.054C97.5476 276.11 97.7263 275.27 98.0838 274.531C98.447 273.787 98.9509 273.207 99.5955 272.791C100.246 272.369 100.949 272.158 101.705 272.158C102.941 272.158 103.902 272.565 104.588 273.38C105.273 274.194 105.616 275.36 105.616 276.878V277.555H99.1736C99.197 278.492 99.4695 279.251 99.991 279.831C100.518 280.405 101.186 280.692 101.995 280.692C102.569 280.692 103.055 280.575 103.454 280.341C103.852 280.106 104.201 279.796 104.5 279.409L105.493 280.183C104.696 281.407 103.501 282.02 101.907 282.02ZM101.705 273.494C101.049 273.494 100.498 273.734 100.053 274.215C99.6072 274.689 99.3318 275.357 99.2263 276.219H103.99V276.096C103.943 275.27 103.72 274.631 103.322 274.18C102.924 273.723 102.385 273.494 101.705 273.494ZM107.67 277.01C107.67 275.551 108.016 274.379 108.707 273.494C109.399 272.604 110.304 272.158 111.423 272.158C112.536 272.158 113.418 272.539 114.069 273.301V268.344H115.695V281.844H114.2L114.121 280.824C113.471 281.621 112.566 282.02 111.405 282.02C110.304 282.02 109.404 281.568 108.707 280.666C108.016 279.764 107.67 278.586 107.67 277.133V277.01ZM109.296 277.194C109.296 278.272 109.519 279.116 109.964 279.726C110.409 280.335 111.025 280.64 111.81 280.64C112.841 280.64 113.594 280.177 114.069 279.251V274.883C113.582 273.986 112.835 273.538 111.827 273.538C111.03 273.538 110.409 273.846 109.964 274.461C109.519 275.076 109.296 275.987 109.296 277.194ZM120.552 281.844H118.926V272.334H120.552V281.844ZM118.795 269.812C118.795 269.548 118.874 269.325 119.032 269.144C119.196 268.962 119.436 268.871 119.753 268.871C120.069 268.871 120.309 268.962 120.473 269.144C120.637 269.325 120.719 269.548 120.719 269.812C120.719 270.075 120.637 270.295 120.473 270.471C120.309 270.646 120.069 270.734 119.753 270.734C119.436 270.734 119.196 270.646 119.032 270.471C118.874 270.295 118.795 270.075 118.795 269.812ZM127.537 280.692C128.117 280.692 128.624 280.517 129.058 280.165C129.491 279.813 129.732 279.374 129.778 278.847H131.316C131.287 279.392 131.1 279.91 130.754 280.402C130.408 280.895 129.945 281.287 129.365 281.58C128.791 281.873 128.182 282.02 127.537 282.02C126.242 282.02 125.211 281.589 124.443 280.728C123.682 279.86 123.301 278.677 123.301 277.177V276.904C123.301 275.979 123.471 275.155 123.811 274.435C124.15 273.714 124.637 273.154 125.27 272.756C125.908 272.357 126.661 272.158 127.528 272.158C128.595 272.158 129.48 272.478 130.183 273.116C130.892 273.755 131.27 274.584 131.316 275.604H129.778C129.732 274.988 129.497 274.484 129.075 274.092C128.659 273.693 128.144 273.494 127.528 273.494C126.702 273.494 126.061 273.793 125.604 274.391C125.152 274.982 124.927 275.841 124.927 276.966V277.273C124.927 278.369 125.152 279.213 125.604 279.805C126.055 280.396 126.699 280.692 127.537 280.692ZM135.471 281.844H133.845V272.334H135.471V281.844ZM133.713 269.812C133.713 269.548 133.793 269.325 133.951 269.144C134.115 268.962 134.355 268.871 134.671 268.871C134.988 268.871 135.228 268.962 135.392 269.144C135.556 269.325 135.638 269.548 135.638 269.812C135.638 270.075 135.556 270.295 135.392 270.471C135.228 270.646 134.988 270.734 134.671 270.734C134.355 270.734 134.115 270.646 133.951 270.471C133.793 270.295 133.713 270.075 133.713 269.812ZM140.18 272.334L140.232 273.529C140.959 272.615 141.908 272.158 143.08 272.158C145.09 272.158 146.103 273.292 146.121 275.56V281.844H144.495V275.551C144.489 274.865 144.331 274.358 144.02 274.03C143.716 273.702 143.238 273.538 142.588 273.538C142.061 273.538 141.598 273.679 141.199 273.96C140.801 274.241 140.49 274.61 140.268 275.067V281.844H138.642V272.334H140.18ZM153.079 282.02C151.79 282.02 150.742 281.598 149.933 280.754C149.124 279.904 148.72 278.771 148.72 277.353V277.054C148.72 276.11 148.899 275.27 149.256 274.531C149.62 273.787 150.123 273.207 150.768 272.791C151.418 272.369 152.121 272.158 152.877 272.158C154.114 272.158 155.075 272.565 155.76 273.38C156.446 274.194 156.788 275.36 156.788 276.878V277.555H150.346C150.37 278.492 150.642 279.251 151.163 279.831C151.691 280.405 152.359 280.692 153.167 280.692C153.742 280.692 154.228 280.575 154.626 280.341C155.025 280.106 155.373 279.796 155.672 279.409L156.665 280.183C155.869 281.407 154.673 282.02 153.079 282.02ZM152.877 273.494C152.221 273.494 151.67 273.734 151.225 274.215C150.78 274.689 150.504 275.357 150.399 276.219H155.162V276.096C155.116 275.27 154.893 274.631 154.495 274.18C154.096 273.723 153.557 273.494 152.877 273.494ZM163.867 277.01C163.867 275.551 164.213 274.379 164.905 273.494C165.596 272.604 166.501 272.158 167.62 272.158C168.734 272.158 169.616 272.539 170.266 273.301V268.344H171.892V281.844H170.398L170.319 280.824C169.668 281.621 168.763 282.02 167.603 282.02C166.501 282.02 165.602 281.568 164.905 280.666C164.213 279.764 163.867 278.586 163.867 277.133V277.01ZM165.493 277.194C165.493 278.272 165.716 279.116 166.161 279.726C166.607 280.335 167.222 280.64 168.007 280.64C169.038 280.64 169.791 280.177 170.266 279.251V274.883C169.78 273.986 169.033 273.538 168.025 273.538C167.228 273.538 166.607 273.846 166.161 274.461C165.716 275.076 165.493 275.987 165.493 277.194ZM174.552 277.001C174.552 276.069 174.734 275.231 175.097 274.487C175.467 273.743 175.976 273.169 176.627 272.765C177.283 272.36 178.03 272.158 178.868 272.158C180.163 272.158 181.209 272.606 182.006 273.503C182.808 274.399 183.21 275.592 183.21 277.08V277.194C183.21 278.12 183.031 278.952 182.674 279.69C182.322 280.423 181.815 280.994 181.153 281.404C180.497 281.814 179.741 282.02 178.885 282.02C177.596 282.02 176.551 281.571 175.748 280.675C174.951 279.778 174.552 278.592 174.552 277.115V277.001ZM176.187 277.194C176.187 278.249 176.43 279.096 176.917 279.734C177.409 280.373 178.065 280.692 178.885 280.692C179.712 280.692 180.368 280.37 180.854 279.726C181.341 279.075 181.584 278.167 181.584 277.001C181.584 275.958 181.335 275.114 180.837 274.47C180.344 273.819 179.688 273.494 178.868 273.494C178.065 273.494 177.418 273.813 176.926 274.452C176.433 275.091 176.187 276.005 176.187 277.194ZM189.755 282.02C188.466 282.02 187.417 281.598 186.609 280.754C185.8 279.904 185.396 278.771 185.396 277.353V277.054C185.396 276.11 185.574 275.27 185.932 274.531C186.295 273.787 186.799 273.207 187.444 272.791C188.094 272.369 188.797 272.158 189.553 272.158C190.789 272.158 191.75 272.565 192.436 273.38C193.121 274.194 193.464 275.36 193.464 276.878V277.555H187.022C187.045 278.492 187.318 279.251 187.839 279.831C188.366 280.405 189.034 280.692 189.843 280.692C190.417 280.692 190.903 280.575 191.302 280.341C191.7 280.106 192.049 279.796 192.348 279.409L193.341 280.183C192.544 281.407 191.349 282.02 189.755 282.02ZM189.553 273.494C188.897 273.494 188.346 273.734 187.901 274.215C187.455 274.689 187.18 275.357 187.074 276.219H191.838V276.096C191.791 275.27 191.569 274.631 191.17 274.18C190.772 273.723 190.233 273.494 189.553 273.494ZM201.451 279.321C201.451 278.882 201.284 278.542 200.95 278.302C200.622 278.056 200.045 277.845 199.218 277.669C198.398 277.493 197.745 277.282 197.258 277.036C196.778 276.79 196.421 276.497 196.186 276.157C195.958 275.817 195.843 275.413 195.843 274.944C195.843 274.165 196.171 273.506 196.828 272.967C197.49 272.428 198.334 272.158 199.359 272.158C200.437 272.158 201.31 272.437 201.978 272.993C202.652 273.55 202.989 274.262 202.989 275.129H201.354C201.354 274.684 201.164 274.3 200.783 273.978C200.408 273.655 199.933 273.494 199.359 273.494C198.767 273.494 198.304 273.623 197.97 273.881C197.636 274.139 197.469 274.476 197.469 274.892C197.469 275.284 197.625 275.58 197.935 275.779C198.246 275.979 198.805 276.169 199.614 276.351C200.428 276.532 201.087 276.749 201.591 277.001C202.095 277.253 202.467 277.558 202.708 277.915C202.954 278.267 203.077 278.697 203.077 279.207C203.077 280.057 202.737 280.739 202.057 281.255C201.378 281.765 200.496 282.02 199.412 282.02C198.65 282.02 197.976 281.885 197.39 281.615C196.804 281.346 196.344 280.971 196.01 280.49C195.682 280.004 195.518 279.479 195.518 278.917H197.144C197.173 279.462 197.39 279.896 197.795 280.218C198.205 280.534 198.744 280.692 199.412 280.692C200.027 280.692 200.519 280.569 200.888 280.323C201.263 280.071 201.451 279.737 201.451 279.321ZM207.293 272.334L207.346 273.529C208.072 272.615 209.022 272.158 210.193 272.158C212.203 272.158 213.217 273.292 213.234 275.56V281.844H211.608V275.551C211.603 274.865 211.444 274.358 211.134 274.03C210.829 273.702 210.352 273.538 209.701 273.538C209.174 273.538 208.711 273.679 208.313 273.96C207.914 274.241 207.604 274.61 207.381 275.067V281.844H205.755V272.334H207.293ZM215.658 272.65L214.735 272.018C215.28 271.256 215.561 270.453 215.579 269.609V268.344H217.187V269.486C217.181 270.072 217.035 270.658 216.748 271.244C216.466 271.824 216.103 272.293 215.658 272.65ZM221.913 270.031V272.334H223.688V273.591H221.913V279.488C221.913 279.869 221.992 280.156 222.15 280.35C222.309 280.537 222.578 280.631 222.959 280.631C223.146 280.631 223.404 280.596 223.732 280.525V281.844C223.305 281.961 222.889 282.02 222.484 282.02C221.758 282.02 221.21 281.8 220.841 281.36C220.472 280.921 220.287 280.297 220.287 279.488V273.591H218.556V272.334H220.287V270.031H221.913ZM236.718 279.321C236.718 278.882 236.551 278.542 236.217 278.302C235.888 278.056 235.311 277.845 234.485 277.669C233.665 277.493 233.012 277.282 232.525 277.036C232.045 276.79 231.687 276.497 231.453 276.157C231.224 275.817 231.11 275.413 231.11 274.944C231.11 274.165 231.438 273.506 232.095 272.967C232.757 272.428 233.6 272.158 234.626 272.158C235.704 272.158 236.577 272.437 237.245 272.993C237.919 273.55 238.256 274.262 238.256 275.129H236.621C236.621 274.684 236.43 274.3 236.05 273.978C235.675 273.655 235.2 273.494 234.626 273.494C234.034 273.494 233.571 273.623 233.237 273.881C232.903 274.139 232.736 274.476 232.736 274.892C232.736 275.284 232.891 275.58 233.202 275.779C233.512 275.979 234.072 276.169 234.881 276.351C235.695 276.532 236.354 276.749 236.858 277.001C237.362 277.253 237.734 277.558 237.974 277.915C238.221 278.267 238.344 278.697 238.344 279.207C238.344 280.057 238.004 280.739 237.324 281.255C236.644 281.765 235.762 282.02 234.679 282.02C233.917 282.02 233.243 281.885 232.657 281.615C232.071 281.346 231.611 280.971 231.277 280.49C230.949 280.004 230.785 279.479 230.785 278.917H232.411C232.44 279.462 232.657 279.896 233.061 280.218C233.471 280.534 234.011 280.692 234.679 280.692C235.294 280.692 235.786 280.569 236.155 280.323C236.53 280.071 236.718 279.737 236.718 279.321ZM244.968 282.02C243.679 282.02 242.63 281.598 241.822 280.754C241.013 279.904 240.609 278.771 240.609 277.353V277.054C240.609 276.11 240.787 275.27 241.145 274.531C241.508 273.787 242.012 273.207 242.656 272.791C243.307 272.369 244.01 272.158 244.766 272.158C246.002 272.158 246.963 272.565 247.649 273.38C248.334 274.194 248.677 275.36 248.677 276.878V277.555H242.235C242.258 278.492 242.531 279.251 243.052 279.831C243.579 280.405 244.247 280.692 245.056 280.692C245.63 280.692 246.116 280.575 246.515 280.341C246.913 280.106 247.262 279.796 247.561 279.409L248.554 280.183C247.757 281.407 246.562 282.02 244.968 282.02ZM244.766 273.494C244.11 273.494 243.559 273.734 243.114 274.215C242.668 274.689 242.393 275.357 242.287 276.219H247.051V276.096C247.004 275.27 246.781 274.631 246.383 274.18C245.985 273.723 245.446 273.494 244.766 273.494ZM255.073 282.02C253.784 282.02 252.735 281.598 251.926 280.754C251.118 279.904 250.714 278.771 250.714 277.353V277.054C250.714 276.11 250.892 275.27 251.25 274.531C251.613 273.787 252.117 273.207 252.761 272.791C253.412 272.369 254.115 272.158 254.871 272.158C256.107 272.158 257.068 272.565 257.754 273.38C258.439 274.194 258.782 275.36 258.782 276.878V277.555H252.34C252.363 278.492 252.635 279.251 253.157 279.831C253.684 280.405 254.352 280.692 255.161 280.692C255.735 280.692 256.221 280.575 256.62 280.341C257.018 280.106 257.367 279.796 257.666 279.409L258.659 280.183C257.862 281.407 256.667 282.02 255.073 282.02ZM254.871 273.494C254.215 273.494 253.664 273.734 253.218 274.215C252.773 274.689 252.498 275.357 252.392 276.219H257.156V276.096C257.109 275.27 256.886 274.631 256.488 274.18C256.09 273.723 255.55 273.494 254.871 273.494ZM262.761 272.334L262.805 273.389C263.502 272.568 264.443 272.158 265.626 272.158C266.956 272.158 267.861 272.668 268.342 273.688C268.658 273.23 269.068 272.861 269.572 272.58C270.082 272.299 270.683 272.158 271.374 272.158C273.46 272.158 274.521 273.263 274.556 275.472V281.844H272.93V275.568C272.93 274.889 272.775 274.382 272.464 274.048C272.153 273.708 271.632 273.538 270.9 273.538C270.296 273.538 269.795 273.72 269.397 274.083C268.998 274.44 268.767 274.924 268.702 275.533V281.844H267.068V275.612C267.068 274.229 266.391 273.538 265.037 273.538C263.971 273.538 263.241 273.992 262.849 274.9V281.844H261.223V272.334H262.761ZM53.4365 293.031V295.334H55.2119V296.591H53.4365V302.488C53.4365 302.869 53.5156 303.156 53.6738 303.35C53.832 303.537 54.1016 303.631 54.4824 303.631C54.6699 303.631 54.9277 303.596 55.2559 303.525V304.844C54.8281 304.961 54.4121 305.02 54.0078 305.02C53.2812 305.02 52.7334 304.8 52.3643 304.36C51.9951 303.921 51.8105 303.297 51.8105 302.488V296.591H50.0791V295.334H51.8105V293.031H53.4365ZM57.0727 300.001C57.0727 299.069 57.2543 298.231 57.6176 297.487C57.9868 296.743 58.4965 296.169 59.1469 295.765C59.8032 295.36 60.5502 295.158 61.3881 295.158C62.683 295.158 63.7289 295.606 64.5258 296.503C65.3286 297.399 65.7299 298.592 65.7299 300.08V300.194C65.7299 301.12 65.5512 301.952 65.1938 302.69C64.8422 303.423 64.3354 303.994 63.6733 304.404C63.017 304.814 62.2612 305.02 61.4057 305.02C60.1166 305.02 59.0707 304.571 58.268 303.675C57.4711 302.778 57.0727 301.592 57.0727 300.115V300.001ZM58.7075 300.194C58.7075 301.249 58.9506 302.096 59.437 302.734C59.9291 303.373 60.5854 303.692 61.4057 303.692C62.2319 303.692 62.8881 303.37 63.3745 302.726C63.8608 302.075 64.1039 301.167 64.1039 300.001C64.1039 298.958 63.8549 298.114 63.3569 297.47C62.8647 296.819 62.2084 296.494 61.3881 296.494C60.5854 296.494 59.9379 296.813 59.4457 297.452C58.9536 298.091 58.7075 299.005 58.7075 300.194ZM81.4046 300.194C81.4046 301.647 81.0706 302.816 80.4027 303.701C79.7347 304.58 78.8382 305.02 77.7132 305.02C76.512 305.02 75.5833 304.595 74.9271 303.745L74.848 304.844H73.3538V291.344H74.9798V296.38C75.6361 295.565 76.5413 295.158 77.6956 295.158C78.8499 295.158 79.7552 295.595 80.4114 296.468C81.0736 297.341 81.4046 298.536 81.4046 300.054V300.194ZM79.7786 300.01C79.7786 298.902 79.5648 298.047 79.137 297.443C78.7093 296.84 78.0941 296.538 77.2913 296.538C76.2191 296.538 75.4486 297.036 74.9798 298.032V302.146C75.4779 303.142 76.2542 303.64 77.3089 303.64C78.0882 303.64 78.6946 303.338 79.1282 302.734C79.5618 302.131 79.7786 301.223 79.7786 300.01ZM87.9675 305.02C86.6785 305.02 85.6297 304.598 84.8211 303.754C84.0125 302.904 83.6082 301.771 83.6082 300.353V300.054C83.6082 299.11 83.7869 298.27 84.1443 297.531C84.5076 296.787 85.0115 296.207 85.656 295.791C86.3064 295.369 87.0095 295.158 87.7654 295.158C89.0017 295.158 89.9627 295.565 90.6482 296.38C91.3338 297.194 91.6765 298.36 91.6765 299.878V300.555H85.2341C85.2576 301.492 85.53 302.251 86.0515 302.831C86.5789 303.405 87.2468 303.692 88.0554 303.692C88.6297 303.692 89.116 303.575 89.5144 303.341C89.9129 303.106 90.2615 302.796 90.5603 302.409L91.5535 303.183C90.7566 304.407 89.5613 305.02 87.9675 305.02ZM87.7654 296.494C87.1091 296.494 86.5584 296.734 86.113 297.215C85.6677 297.689 85.3923 298.357 85.2869 299.219H90.0505V299.096C90.0037 298.27 89.781 297.631 89.3826 297.18C88.9841 296.723 88.4451 296.494 87.7654 296.494ZM107.571 302.603L109.399 295.334H111.025L108.256 304.844H106.938L104.627 297.637L102.377 304.844H101.058L98.2985 295.334H99.9157L101.788 302.453L104.003 295.334H105.312L107.571 302.603ZM112.816 300.001C112.816 299.069 112.997 298.231 113.36 297.487C113.73 296.743 114.239 296.169 114.89 295.765C115.546 295.36 116.293 295.158 117.131 295.158C118.426 295.158 119.472 295.606 120.269 296.503C121.071 297.399 121.473 298.592 121.473 300.08V300.194C121.473 301.12 121.294 301.952 120.937 302.69C120.585 303.423 120.078 303.994 119.416 304.404C118.76 304.814 118.004 305.02 117.149 305.02C115.859 305.02 114.814 304.571 114.011 303.675C113.214 302.778 112.816 301.592 112.816 300.115V300.001ZM114.45 300.194C114.45 301.249 114.693 302.096 115.18 302.734C115.672 303.373 116.328 303.692 117.149 303.692C117.975 303.692 118.631 303.37 119.117 302.726C119.604 302.075 119.847 301.167 119.847 300.001C119.847 298.958 119.598 298.114 119.1 297.47C118.607 296.819 117.951 296.494 117.131 296.494C116.328 296.494 115.681 296.813 115.189 297.452C114.696 298.091 114.45 299.005 114.45 300.194ZM128.668 296.793C128.422 296.752 128.156 296.731 127.869 296.731C126.802 296.731 126.079 297.186 125.698 298.094V304.844H124.072V295.334H125.654L125.68 296.433C126.213 295.583 126.969 295.158 127.948 295.158C128.264 295.158 128.504 295.199 128.668 295.281V296.793ZM133.386 300.44L132.366 301.504V304.844H130.74V291.344H132.366V299.509L133.236 298.463L136.198 295.334H138.176L134.476 299.307L138.606 304.844H136.699L133.386 300.44ZM142.181 304.844H140.555V295.334H142.181V304.844ZM140.423 292.812C140.423 292.548 140.502 292.325 140.661 292.144C140.825 291.962 141.065 291.871 141.381 291.871C141.698 291.871 141.938 291.962 142.102 292.144C142.266 292.325 142.348 292.548 142.348 292.812C142.348 293.075 142.266 293.295 142.102 293.471C141.938 293.646 141.698 293.734 141.381 293.734C141.065 293.734 140.825 293.646 140.661 293.471C140.502 293.295 140.423 293.075 140.423 292.812ZM146.889 295.334L146.942 296.529C147.669 295.615 148.618 295.158 149.79 295.158C151.8 295.158 152.813 296.292 152.831 298.56V304.844H151.205V298.551C151.199 297.865 151.041 297.358 150.73 297.03C150.426 296.702 149.948 296.538 149.298 296.538C148.77 296.538 148.307 296.679 147.909 296.96C147.511 297.241 147.2 297.61 146.977 298.067V304.844H145.351V295.334H146.889ZM155.456 300.01C155.456 298.527 155.799 297.35 156.485 296.477C157.17 295.598 158.078 295.158 159.209 295.158C160.369 295.158 161.275 295.568 161.925 296.389L162.004 295.334H163.49V304.615C163.49 305.846 163.123 306.815 162.391 307.524C161.664 308.233 160.686 308.588 159.455 308.588C158.77 308.588 158.099 308.441 157.443 308.148C156.786 307.855 156.285 307.454 155.94 306.944L156.783 305.969C157.481 306.83 158.333 307.261 159.341 307.261C160.132 307.261 160.747 307.038 161.187 306.593C161.632 306.147 161.855 305.521 161.855 304.712V303.895C161.204 304.645 160.317 305.02 159.192 305.02C158.078 305.02 157.176 304.571 156.485 303.675C155.799 302.778 155.456 301.557 155.456 300.01ZM157.091 300.194C157.091 301.267 157.311 302.11 157.75 302.726C158.19 303.335 158.805 303.64 159.596 303.64C160.621 303.64 161.374 303.174 161.855 302.242V297.9C161.357 296.992 160.61 296.538 159.614 296.538C158.823 296.538 158.204 296.846 157.759 297.461C157.314 298.076 157.091 298.987 157.091 300.194ZM166.546 303.991C166.546 303.71 166.628 303.476 166.792 303.288C166.962 303.101 167.214 303.007 167.548 303.007C167.882 303.007 168.134 303.101 168.303 303.288C168.479 303.476 168.567 303.71 168.567 303.991C168.567 304.261 168.479 304.486 168.303 304.668C168.134 304.85 167.882 304.94 167.548 304.94C167.214 304.94 166.962 304.85 166.792 304.668C166.628 304.486 166.546 304.261 166.546 303.991Z" fill="#0B4A72"/>
</g>
<g clip-path="url(#clip2_1_124)">
<path fill-rule="evenodd" clip-rule="evenodd" d="M214.957 145.878C200.929 146.018 187.101 147.576 173.473 150.553C157.972 153.94 148.084 165.643 150.313 177.966C152.812 191.792 166.306 202.906 184.009 205.72C190.856 206.808 198.635 207.777 207.351 208.628C246.942 212.493 280.986 210.126 301.094 210.126C321.202 210.126 318.463 209.396 340.948 208.628C363.431 207.861 353.739 208.366 386.021 207.228C397.867 206.809 409.712 206.372 421.555 205.915C422.807 205.867 424.053 205.757 425.285 205.586C442.154 207.386 464.77 213.38 460.466 209.637C457.351 206.927 452.571 201.524 446.126 193.427C448.289 190.032 449.297 186.268 449.055 182.489L448.174 168.291C447.457 156.724 435.438 147.49 420.46 147C397.679 146.251 377.762 145.878 360.709 145.878C325.67 145.878 328.64 147.983 290.764 147.983C252.888 147.983 249.882 145.529 214.957 145.878Z" fill="#D7E0E9"/>
<path d="M203.296 171.844H201.608V159.047H203.296V171.844ZM213.346 163.485C214.066 162.601 215.004 162.158 216.158 162.158C218.168 162.158 219.182 163.292 219.199 165.56V171.844H217.573V165.551C217.567 164.865 217.409 164.358 217.099 164.03C216.794 163.702 216.316 163.538 215.666 163.538C215.139 163.538 214.676 163.679 214.277 163.96C213.879 164.241 213.568 164.61 213.346 165.067V171.844H211.72V158.344H213.346V163.485ZM228.065 171.844C227.971 171.656 227.895 171.322 227.836 170.842C227.08 171.627 226.178 172.02 225.129 172.02C224.192 172.02 223.421 171.756 222.818 171.229C222.22 170.695 221.921 170.021 221.921 169.207C221.921 168.217 222.296 167.449 223.046 166.904C223.802 166.354 224.863 166.078 226.228 166.078H227.81V165.331C227.81 164.763 227.64 164.312 227.3 163.978C226.96 163.638 226.459 163.468 225.797 163.468C225.217 163.468 224.731 163.614 224.338 163.907C223.946 164.2 223.749 164.555 223.749 164.971H222.115C222.115 164.496 222.282 164.039 222.616 163.6C222.955 163.154 223.412 162.803 223.987 162.545C224.567 162.287 225.202 162.158 225.894 162.158C226.99 162.158 227.848 162.434 228.469 162.984C229.09 163.529 229.412 164.282 229.436 165.243V169.62C229.436 170.493 229.547 171.188 229.77 171.703V171.844H228.065ZM225.367 170.604C225.876 170.604 226.36 170.473 226.817 170.209C227.274 169.945 227.605 169.603 227.81 169.181V167.229H226.535C224.543 167.229 223.547 167.812 223.547 168.979C223.547 169.488 223.717 169.887 224.057 170.174C224.397 170.461 224.833 170.604 225.367 170.604ZM235.542 169.638L237.897 162.334H239.558L236.148 171.844H234.909L231.464 162.334H233.125L235.542 169.638ZM245.506 172.02C244.217 172.02 243.168 171.598 242.36 170.754C241.551 169.904 241.147 168.771 241.147 167.353V167.054C241.147 166.11 241.325 165.27 241.683 164.531C242.046 163.787 242.55 163.207 243.195 162.791C243.845 162.369 244.548 162.158 245.304 162.158C246.54 162.158 247.501 162.565 248.187 163.38C248.872 164.194 249.215 165.36 249.215 166.878V167.555H242.773C242.796 168.492 243.069 169.251 243.59 169.831C244.117 170.405 244.785 170.692 245.594 170.692C246.168 170.692 246.654 170.575 247.053 170.341C247.451 170.106 247.8 169.796 248.099 169.409L249.092 170.183C248.295 171.407 247.1 172.02 245.506 172.02ZM245.304 163.494C244.648 163.494 244.097 163.734 243.652 164.215C243.206 164.689 242.931 165.357 242.825 166.219H247.589V166.096C247.542 165.27 247.32 164.631 246.921 164.18C246.523 163.723 245.984 163.494 245.304 163.494ZM262.561 171.844C262.467 171.656 262.391 171.322 262.332 170.842C261.576 171.627 260.674 172.02 259.625 172.02C258.688 172.02 257.917 171.756 257.314 171.229C256.716 170.695 256.417 170.021 256.417 169.207C256.417 168.217 256.792 167.449 257.542 166.904C258.298 166.354 259.358 166.078 260.724 166.078H262.306V165.331C262.306 164.763 262.136 164.312 261.796 163.978C261.456 163.638 260.955 163.468 260.293 163.468C259.713 163.468 259.227 163.614 258.834 163.907C258.441 164.2 258.245 164.555 258.245 164.971H256.61C256.61 164.496 256.777 164.039 257.111 163.6C257.451 163.154 257.908 162.803 258.482 162.545C259.063 162.287 259.698 162.158 260.39 162.158C261.485 162.158 262.344 162.434 262.965 162.984C263.586 163.529 263.908 164.282 263.932 165.243V169.62C263.932 170.493 264.043 171.188 264.266 171.703V171.844H262.561ZM259.862 170.604C260.372 170.604 260.856 170.473 261.313 170.209C261.77 169.945 262.101 169.603 262.306 169.181V167.229H261.031C259.039 167.229 258.043 167.812 258.043 168.979C258.043 169.488 258.213 169.887 258.553 170.174C258.893 170.461 259.329 170.604 259.862 170.604ZM273.691 163.485C274.412 162.601 275.35 162.158 276.504 162.158C278.514 162.158 279.527 163.292 279.545 165.56V171.844H277.919V165.551C277.913 164.865 277.755 164.358 277.444 164.03C277.14 163.702 276.662 163.538 276.012 163.538C275.484 163.538 275.021 163.679 274.623 163.96C274.225 164.241 273.914 164.61 273.691 165.067V171.844H272.065V158.344H273.691V163.485ZM286.486 172.02C285.197 172.02 284.148 171.598 283.339 170.754C282.531 169.904 282.126 168.771 282.126 167.353V167.054C282.126 166.11 282.305 165.27 282.662 164.531C283.026 163.787 283.53 163.207 284.174 162.791C284.825 162.369 285.528 162.158 286.284 162.158C287.52 162.158 288.481 162.565 289.166 163.38C289.852 164.194 290.195 165.36 290.195 166.878V167.555H283.752C283.776 168.492 284.048 169.251 284.57 169.831C285.097 170.405 285.765 170.692 286.574 170.692C287.148 170.692 287.634 170.575 288.033 170.341C288.431 170.106 288.78 169.796 289.079 169.409L290.072 170.183C289.275 171.407 288.079 172.02 286.486 172.02ZM286.284 163.494C285.627 163.494 285.077 163.734 284.631 164.215C284.186 164.689 283.911 165.357 283.805 166.219H288.569V166.096C288.522 165.27 288.299 164.631 287.901 164.18C287.502 163.723 286.963 163.494 286.284 163.494ZM298.515 171.844C298.422 171.656 298.346 171.322 298.287 170.842C297.531 171.627 296.629 172.02 295.58 172.02C294.642 172.02 293.872 171.756 293.268 171.229C292.671 170.695 292.372 170.021 292.372 169.207C292.372 168.217 292.747 167.449 293.497 166.904C294.253 166.354 295.313 166.078 296.679 166.078H298.261V165.331C298.261 164.763 298.091 164.312 297.751 163.978C297.411 163.638 296.91 163.468 296.248 163.468C295.668 163.468 295.181 163.614 294.789 163.907C294.396 164.2 294.2 164.555 294.2 164.971H292.565C292.565 164.496 292.732 164.039 293.066 163.6C293.406 163.154 293.863 162.803 294.437 162.545C295.017 162.287 295.653 162.158 296.345 162.158C297.44 162.158 298.299 162.434 298.92 162.984C299.541 163.529 299.863 164.282 299.887 165.243V169.62C299.887 170.493 299.998 171.188 300.221 171.703V171.844H298.515ZM295.817 170.604C296.327 170.604 296.81 170.473 297.267 170.209C297.724 169.945 298.056 169.603 298.261 169.181V167.229H296.986C294.994 167.229 293.998 167.812 293.998 168.979C293.998 169.488 294.168 169.887 294.508 170.174C294.848 170.461 295.284 170.604 295.817 170.604ZM302.6 167.01C302.6 165.551 302.946 164.379 303.637 163.494C304.328 162.604 305.234 162.158 306.353 162.158C307.466 162.158 308.348 162.539 308.998 163.301V158.344H310.624V171.844H309.13L309.051 170.824C308.401 171.621 307.495 172.02 306.335 172.02C305.234 172.02 304.334 171.568 303.637 170.666C302.946 169.764 302.6 168.586 302.6 167.133V167.01ZM304.226 167.194C304.226 168.272 304.449 169.116 304.894 169.726C305.339 170.335 305.954 170.64 306.74 170.64C307.771 170.64 308.524 170.177 308.998 169.251V164.883C308.512 163.986 307.765 163.538 306.757 163.538C305.96 163.538 305.339 163.846 304.894 164.461C304.449 165.076 304.226 165.987 304.226 167.194ZM319.587 171.844C319.493 171.656 319.417 171.322 319.358 170.842C318.602 171.627 317.7 172.02 316.651 172.02C315.714 172.02 314.943 171.756 314.34 171.229C313.742 170.695 313.443 170.021 313.443 169.207C313.443 168.217 313.818 167.449 314.568 166.904C315.324 166.354 316.384 166.078 317.75 166.078H319.332V165.331C319.332 164.763 319.162 164.312 318.822 163.978C318.482 163.638 317.981 163.468 317.319 163.468C316.739 163.468 316.253 163.614 315.86 163.907C315.467 164.2 315.271 164.555 315.271 164.971H313.636C313.636 164.496 313.803 164.039 314.137 163.6C314.477 163.154 314.934 162.803 315.509 162.545C316.089 162.287 316.724 162.158 317.416 162.158C318.511 162.158 319.37 162.434 319.991 162.984C320.612 163.529 320.934 164.282 320.958 165.243V169.62C320.958 170.493 321.069 171.188 321.292 171.703V171.844H319.587ZM316.888 170.604C317.398 170.604 317.882 170.473 318.339 170.209C318.796 169.945 319.127 169.603 319.332 169.181V167.229H318.057C316.065 167.229 315.069 167.812 315.069 168.979C315.069 169.488 315.239 169.887 315.579 170.174C315.919 170.461 316.355 170.604 316.888 170.604ZM327.881 170.692C328.461 170.692 328.968 170.517 329.402 170.165C329.835 169.813 330.075 169.374 330.122 168.847H331.66C331.631 169.392 331.444 169.91 331.098 170.402C330.752 170.895 330.289 171.287 329.709 171.58C329.135 171.873 328.526 172.02 327.881 172.02C326.586 172.02 325.555 171.589 324.787 170.728C324.026 169.86 323.645 168.677 323.645 167.177V166.904C323.645 165.979 323.815 165.155 324.154 164.435C324.494 163.714 324.981 163.154 325.613 162.756C326.252 162.357 327.005 162.158 327.872 162.158C328.939 162.158 329.823 162.478 330.527 163.116C331.236 163.755 331.613 164.584 331.66 165.604H330.122C330.075 164.988 329.841 164.484 329.419 164.092C329.003 163.693 328.487 163.494 327.872 163.494C327.046 163.494 326.404 163.793 325.947 164.391C325.496 164.982 325.271 165.841 325.271 166.966V167.273C325.271 168.369 325.496 169.213 325.947 169.805C326.399 170.396 327.043 170.692 327.881 170.692ZM335.674 163.485C336.395 162.601 337.333 162.158 338.487 162.158C340.497 162.158 341.51 163.292 341.528 165.56V171.844H339.902V165.551C339.896 164.865 339.738 164.358 339.427 164.03C339.123 163.702 338.645 163.538 337.995 163.538C337.467 163.538 337.004 163.679 336.606 163.96C336.208 164.241 335.897 164.61 335.674 165.067V171.844H334.048V158.344H335.674V163.485ZM348.469 172.02C347.18 172.02 346.131 171.598 345.322 170.754C344.514 169.904 344.109 168.771 344.109 167.353V167.054C344.109 166.11 344.288 165.27 344.646 164.531C345.009 163.787 345.513 163.207 346.157 162.791C346.808 162.369 347.511 162.158 348.267 162.158C349.503 162.158 350.464 162.565 351.149 163.38C351.835 164.194 352.178 165.36 352.178 166.878V167.555H345.735C345.759 168.492 346.031 169.251 346.553 169.831C347.08 170.405 347.748 170.692 348.557 170.692C349.131 170.692 349.617 170.575 350.016 170.341C350.414 170.106 350.763 169.796 351.062 169.409L352.055 170.183C351.258 171.407 350.063 172.02 348.469 172.02ZM348.267 163.494C347.61 163.494 347.06 163.734 346.614 164.215C346.169 164.689 345.894 165.357 345.788 166.219H350.552V166.096C350.505 165.27 350.282 164.631 349.884 164.18C349.485 163.723 348.946 163.494 348.267 163.494ZM354.575 174.393L353.652 173.76C354.203 172.992 354.49 172.201 354.513 171.387V169.919H356.104V171.193C356.104 171.785 355.958 172.377 355.665 172.969C355.377 173.561 355.014 174.035 354.575 174.393ZM367.56 170.692C368.14 170.692 368.647 170.517 369.08 170.165C369.514 169.813 369.754 169.374 369.801 168.847H371.339C371.31 169.392 371.122 169.91 370.777 170.402C370.431 170.895 369.968 171.287 369.388 171.58C368.814 171.873 368.204 172.02 367.56 172.02C366.265 172.02 365.234 171.589 364.466 170.728C363.704 169.86 363.324 168.677 363.324 167.177V166.904C363.324 165.979 363.494 165.155 363.833 164.435C364.173 163.714 364.66 163.154 365.292 162.756C365.931 162.357 366.684 162.158 367.551 162.158C368.618 162.158 369.502 162.478 370.205 163.116C370.914 163.755 371.292 164.584 371.339 165.604H369.801C369.754 164.988 369.52 164.484 369.098 164.092C368.682 163.693 368.166 163.494 367.551 163.494C366.725 163.494 366.083 163.793 365.626 164.391C365.175 164.982 364.95 165.841 364.95 166.966V167.273C364.95 168.369 365.175 169.213 365.626 169.805C366.077 170.396 366.722 170.692 367.56 170.692ZM379.598 171.844C379.505 171.656 379.429 171.322 379.37 170.842C378.614 171.627 377.712 172.02 376.663 172.02C375.725 172.02 374.955 171.756 374.351 171.229C373.754 170.695 373.455 170.021 373.455 169.207C373.455 168.217 373.83 167.449 374.58 166.904C375.336 166.354 376.396 166.078 377.762 166.078H379.344V165.331C379.344 164.763 379.174 164.312 378.834 163.978C378.494 163.638 377.993 163.468 377.331 163.468C376.751 163.468 376.264 163.614 375.872 163.907C375.479 164.2 375.283 164.555 375.283 164.971H373.648C373.648 164.496 373.815 164.039 374.149 163.6C374.489 163.154 374.946 162.803 375.52 162.545C376.1 162.287 376.736 162.158 377.428 162.158C378.523 162.158 379.382 162.434 380.003 162.984C380.624 163.529 380.946 164.282 380.97 165.243V169.62C380.97 170.493 381.081 171.188 381.304 171.703V171.844H379.598ZM376.9 170.604C377.41 170.604 377.893 170.473 378.35 170.209C378.807 169.945 379.138 169.603 379.344 169.181V167.229H378.069C376.077 167.229 375.081 167.812 375.081 168.979C375.081 169.488 375.251 169.887 375.591 170.174C375.93 170.461 376.367 170.604 376.9 170.604ZM385.616 162.334L385.669 163.529C386.396 162.615 387.345 162.158 388.517 162.158C390.527 162.158 391.54 163.292 391.558 165.56V171.844H389.932V165.551C389.926 164.865 389.768 164.358 389.457 164.03C389.153 163.702 388.675 163.538 388.025 163.538C387.497 163.538 387.034 163.679 386.636 163.96C386.238 164.241 385.927 164.61 385.704 165.067V171.844H384.078V162.334H385.616ZM401.66 171.844H399.973V159.047H401.66V171.844ZM203.437 183.031V185.334H205.212V186.591H203.437V192.488C203.437 192.869 203.516 193.156 203.674 193.35C203.832 193.537 204.102 193.631 204.482 193.631C204.67 193.631 204.928 193.596 205.256 193.525V194.844C204.828 194.961 204.412 195.02 204.008 195.02C203.281 195.02 202.733 194.8 202.364 194.36C201.995 193.921 201.811 193.297 201.811 192.488V186.591H200.079V185.334H201.811V183.031H203.437ZM213.55 194.844C213.456 194.656 213.38 194.322 213.322 193.842C212.566 194.627 211.664 195.02 210.615 195.02C209.677 195.02 208.907 194.756 208.303 194.229C207.706 193.695 207.407 193.021 207.407 192.207C207.407 191.217 207.782 190.449 208.532 189.904C209.288 189.354 210.348 189.078 211.713 189.078H213.295V188.331C213.295 187.763 213.125 187.312 212.786 186.978C212.446 186.638 211.945 186.468 211.283 186.468C210.703 186.468 210.216 186.614 209.824 186.907C209.431 187.2 209.235 187.555 209.235 187.971H207.6C207.6 187.496 207.767 187.039 208.101 186.6C208.441 186.154 208.898 185.803 209.472 185.545C210.052 185.287 210.688 185.158 211.379 185.158C212.475 185.158 213.333 185.434 213.955 185.984C214.576 186.529 214.898 187.282 214.921 188.243V192.62C214.921 193.493 215.033 194.188 215.255 194.703V194.844H213.55ZM210.852 193.604C211.362 193.604 211.845 193.473 212.302 193.209C212.759 192.945 213.09 192.603 213.295 192.181V190.229H212.021C210.029 190.229 209.033 190.812 209.033 191.979C209.033 192.488 209.203 192.887 209.542 193.174C209.882 193.461 210.319 193.604 210.852 193.604ZM220.684 190.44L219.665 191.504V194.844H218.039V181.344H219.665V189.509L220.535 188.463L223.497 185.334H225.474L221.774 189.307L225.905 194.844H223.998L220.684 190.44ZM231.484 195.02C230.195 195.02 229.146 194.598 228.337 193.754C227.529 192.904 227.124 191.771 227.124 190.353V190.054C227.124 189.11 227.303 188.27 227.66 187.531C228.024 186.787 228.528 186.207 229.172 185.791C229.823 185.369 230.526 185.158 231.282 185.158C232.518 185.158 233.479 185.565 234.164 186.38C234.85 187.194 235.193 188.36 235.193 189.878V190.555H228.75C228.774 191.492 229.046 192.251 229.568 192.831C230.095 193.405 230.763 193.692 231.572 193.692C232.146 193.692 232.632 193.575 233.031 193.341C233.429 193.106 233.778 192.796 234.076 192.409L235.07 193.183C234.273 194.407 233.077 195.02 231.484 195.02ZM231.282 186.494C230.625 186.494 230.075 186.734 229.629 187.215C229.184 187.689 228.909 188.357 228.803 189.219H233.567V189.096C233.52 188.27 233.297 187.631 232.899 187.18C232.5 186.723 231.961 186.494 231.282 186.494ZM249.988 191.504H244.627L243.423 194.844H241.683L246.57 182.047H248.046L252.942 194.844H251.21L249.988 191.504ZM245.137 190.115H249.487L247.308 184.13L245.137 190.115ZM254.574 190.01C254.574 188.551 254.92 187.379 255.611 186.494C256.302 185.604 257.208 185.158 258.327 185.158C259.44 185.158 260.322 185.539 260.972 186.301V181.344H262.598V194.844H261.104L261.025 193.824C260.375 194.621 259.469 195.02 258.309 195.02C257.208 195.02 256.308 194.568 255.611 193.666C254.92 192.764 254.574 191.586 254.574 190.133V190.01ZM256.2 190.194C256.2 191.272 256.423 192.116 256.868 192.726C257.313 193.335 257.928 193.64 258.714 193.64C259.745 193.64 260.498 193.177 260.972 192.251V187.883C260.486 186.986 259.739 186.538 258.731 186.538C257.934 186.538 257.313 186.846 256.868 187.461C256.423 188.076 256.2 188.987 256.2 190.194ZM268.827 192.638L271.183 185.334H272.844L269.434 194.844H268.194L264.749 185.334H266.41L268.827 192.638ZM276.735 194.844H275.109V185.334H276.735V194.844ZM274.977 182.812C274.977 182.548 275.056 182.325 275.214 182.144C275.378 181.962 275.619 181.871 275.935 181.871C276.251 181.871 276.492 181.962 276.656 182.144C276.82 182.325 276.902 182.548 276.902 182.812C276.902 183.075 276.82 183.295 276.656 183.471C276.492 183.646 276.251 183.734 275.935 183.734C275.619 183.734 275.378 183.646 275.214 183.471C275.056 183.295 274.977 183.075 274.977 182.812ZM281.672 194.844H280.046V181.344H281.672V194.844ZM286.749 191.24C286.761 190.543 286.84 189.992 286.987 189.588C287.133 189.184 287.432 188.735 287.883 188.243L289.035 187.057C289.527 186.5 289.773 185.902 289.773 185.264C289.773 184.648 289.612 184.168 289.289 183.822C288.967 183.471 288.498 183.295 287.883 183.295C287.286 183.295 286.805 183.453 286.442 183.77C286.079 184.086 285.897 184.511 285.897 185.044H284.271C284.283 184.095 284.62 183.33 285.282 182.75C285.95 182.164 286.817 181.871 287.883 181.871C288.991 181.871 289.852 182.17 290.467 182.768C291.088 183.359 291.399 184.174 291.399 185.211C291.399 186.236 290.924 187.247 289.975 188.243L289.017 189.192C288.589 189.667 288.375 190.35 288.375 191.24H286.749ZM286.679 194.026C286.679 193.763 286.758 193.543 286.916 193.367C287.08 193.186 287.321 193.095 287.637 193.095C287.954 193.095 288.194 193.186 288.358 193.367C288.522 193.543 288.604 193.763 288.604 194.026C288.604 194.29 288.522 194.51 288.358 194.686C288.194 194.855 287.954 194.94 287.637 194.94C287.321 194.94 287.08 194.855 286.916 194.686C286.758 194.51 286.679 194.29 286.679 194.026Z" fill="#0B4A72"/>
</g>
<g clip-path="url(#clip3_1_124)">
<path fill-rule="evenodd" clip-rule="evenodd" d="M268.986 37.8807C284.322 38.0335 299.439 39.736 314.338 42.9881C331.284 46.687 342.094 59.4701 339.658 72.9307C336.926 88.0336 322.173 100.173 302.819 103.247C295.334 104.435 286.829 105.494 277.301 106.423C234.018 110.646 196.8 108.059 174.817 108.059C152.834 108.059 155.829 107.262 131.247 106.423C106.667 105.585 117.263 106.138 81.9707 104.894C69.0201 104.437 56.0708 103.959 43.1228 103.46C41.7549 103.408 40.3927 103.287 39.0448 103.1C20.6038 105.067 -4.12113 111.614 0.583857 107.525C3.98885 104.565 9.21484 98.6635 16.2608 89.8194C13.896 86.1112 12.794 81.9993 13.0588 77.8714L14.0218 62.3626C14.8058 49.7284 27.9458 39.6418 44.3198 39.1063C69.2257 38.289 90.9997 37.8807 109.643 37.8807C147.95 37.8807 144.703 40.1805 186.111 40.1805C227.518 40.1805 230.804 37.5003 268.986 37.8807Z" fill="#FFF2CE"/>
<path d="M53.2959 61.8438H51.6084V49.0469H53.2959V61.8438ZM62.2319 59.3213C62.2319 58.8818 62.0649 58.542 61.7309 58.3018C61.4028 58.0557 60.8256 57.8447 59.9995 57.6689C59.1791 57.4932 58.5258 57.2822 58.0395 57.0361C57.559 56.79 57.2016 56.4971 56.9672 56.1572C56.7387 55.8174 56.6245 55.4131 56.6245 54.9443C56.6245 54.165 56.9526 53.5059 57.6088 52.9668C58.2709 52.4277 59.1147 52.1582 60.1401 52.1582C61.2182 52.1582 62.0912 52.4365 62.7592 52.9932C63.433 53.5498 63.77 54.2617 63.77 55.1289H62.1352C62.1352 54.6836 61.9448 54.2998 61.5639 53.9775C61.1889 53.6553 60.7143 53.4941 60.1401 53.4941C59.5483 53.4941 59.0854 53.623 58.7514 53.8809C58.4174 54.1387 58.2504 54.4756 58.2504 54.8916C58.2504 55.2842 58.4057 55.5801 58.7162 55.7793C59.0268 55.9785 59.5864 56.1689 60.395 56.3506C61.2094 56.5322 61.8686 56.749 62.3725 57.001C62.8764 57.2529 63.2485 57.5576 63.4887 57.915C63.7348 58.2666 63.8579 58.6973 63.8579 59.207C63.8579 60.0566 63.518 60.7393 62.8383 61.2549C62.1586 61.7646 61.2768 62.0195 60.1928 62.0195C59.4311 62.0195 58.7573 61.8848 58.1713 61.6152C57.5854 61.3457 57.1254 60.9707 56.7914 60.4902C56.4633 60.0039 56.2993 59.4795 56.2993 58.917H57.9252C57.9545 59.4619 58.1713 59.8955 58.5756 60.2178C58.9858 60.5342 59.5248 60.6924 60.1928 60.6924C60.808 60.6924 61.3002 60.5693 61.6694 60.3232C62.0444 60.0713 62.2319 59.7373 62.2319 59.3213ZM73.3275 61.8438H71.7015V52.334H73.3275V61.8438ZM71.5696 49.8115C71.5696 49.5479 71.6488 49.3252 71.807 49.1436C71.971 48.9619 72.2113 48.8711 72.5277 48.8711C72.8441 48.8711 73.0843 48.9619 73.2484 49.1436C73.4124 49.3252 73.4945 49.5479 73.4945 49.8115C73.4945 50.0752 73.4124 50.2949 73.2484 50.4707C73.0843 50.6465 72.8441 50.7344 72.5277 50.7344C72.2113 50.7344 71.971 50.6465 71.807 50.4707C71.6488 50.2949 71.5696 50.0752 71.5696 49.8115ZM78.7039 50.0312V52.334H80.4793V53.5908H78.7039V59.4883C78.7039 59.8691 78.783 60.1562 78.9412 60.3496C79.0994 60.5371 79.3689 60.6309 79.7498 60.6309C79.9373 60.6309 80.1951 60.5957 80.5232 60.5254V61.8438C80.0955 61.9609 79.6795 62.0195 79.2752 62.0195C78.5486 62.0195 78.0007 61.7998 77.6316 61.3604C77.2625 60.9209 77.0779 60.2969 77.0779 59.4883V53.5908H75.3464V52.334H77.0779V50.0312H78.7039ZM87.5407 57.001C87.5407 56.0693 87.7223 55.2314 88.0856 54.4873C88.4547 53.7432 88.9645 53.1689 89.6149 52.7646C90.2711 52.3604 91.0182 52.1582 91.8561 52.1582C93.151 52.1582 94.1969 52.6064 94.9938 53.5029C95.7965 54.3994 96.1979 55.5918 96.1979 57.0801V57.1943C96.1979 58.1201 96.0192 58.9521 95.6618 59.6904C95.3102 60.4229 94.8034 60.9941 94.1413 61.4043C93.485 61.8145 92.7291 62.0195 91.8737 62.0195C90.5846 62.0195 89.5387 61.5713 88.736 60.6748C87.9391 59.7783 87.5407 58.5918 87.5407 57.1152V57.001ZM89.1754 57.1943C89.1754 58.249 89.4186 59.0957 89.9049 59.7344C90.3971 60.373 91.0534 60.6924 91.8737 60.6924C92.6998 60.6924 93.3561 60.3701 93.8424 59.7256C94.3288 59.0752 94.5719 58.167 94.5719 57.001C94.5719 55.958 94.3229 55.1143 93.8248 54.4697C93.3327 53.8193 92.6764 53.4941 91.8561 53.4941C91.0534 53.4941 90.4059 53.8135 89.9137 54.4521C89.4215 55.0908 89.1754 56.0049 89.1754 57.1943ZM101.451 57.4404L100.432 58.5039V61.8438H98.8057V48.3438H100.432V56.5088L101.302 55.4629L104.264 52.334H106.241L102.541 56.3066L106.672 61.8438H104.765L101.451 57.4404ZM114.351 61.8438C114.257 61.6562 114.181 61.3223 114.123 60.8418C113.367 61.627 112.464 62.0195 111.416 62.0195C110.478 62.0195 109.708 61.7559 109.104 61.2285C108.506 60.6953 108.208 60.0215 108.208 59.207C108.208 58.2168 108.583 57.4492 109.333 56.9043C110.088 56.3535 111.149 56.0781 112.514 56.0781H114.096V55.3311C114.096 54.7627 113.926 54.3115 113.586 53.9775C113.247 53.6377 112.746 53.4678 112.084 53.4678C111.503 53.4678 111.017 53.6143 110.625 53.9072C110.232 54.2002 110.036 54.5547 110.036 54.9707H108.401C108.401 54.4961 108.568 54.0391 108.902 53.5996C109.242 53.1543 109.699 52.8027 110.273 52.5449C110.853 52.2871 111.489 52.1582 112.18 52.1582C113.276 52.1582 114.134 52.4336 114.755 52.9844C115.376 53.5293 115.699 54.2822 115.722 55.2432V59.6201C115.722 60.4932 115.834 61.1875 116.056 61.7031V61.8438H114.351ZM111.653 60.6045C112.163 60.6045 112.646 60.4727 113.103 60.209C113.56 59.9453 113.891 59.6025 114.096 59.1807V57.2295H112.822C110.83 57.2295 109.834 57.8125 109.834 58.9785C109.834 59.4883 110.003 59.8867 110.343 60.1738C110.683 60.4609 111.12 60.6045 111.653 60.6045ZM121.802 59.4619L124.017 52.334H125.757L121.934 63.3115C121.342 64.8936 120.401 65.6846 119.112 65.6846L118.805 65.6582L118.198 65.5439V64.2256L118.638 64.2607C119.188 64.2607 119.616 64.1494 119.921 63.9268C120.231 63.7041 120.486 63.2969 120.686 62.7051L121.046 61.7383L117.653 52.334H119.429L121.802 59.4619ZM135.007 50.0312V52.334H136.782V53.5908H135.007V59.4883C135.007 59.8691 135.086 60.1562 135.244 60.3496C135.402 60.5371 135.672 60.6309 136.053 60.6309C136.24 60.6309 136.498 60.5957 136.826 60.5254V61.8438C136.398 61.9609 135.982 62.0195 135.578 62.0195C134.851 62.0195 134.304 61.7998 133.934 61.3604C133.565 60.9209 133.381 60.2969 133.381 59.4883V53.5908H131.649V52.334H133.381V50.0312H135.007ZM138.643 57.001C138.643 56.0693 138.824 55.2314 139.188 54.4873C139.557 53.7432 140.067 53.1689 140.717 52.7646C141.373 52.3604 142.12 52.1582 142.958 52.1582C144.253 52.1582 145.299 52.6064 146.096 53.5029C146.899 54.3994 147.3 55.5918 147.3 57.0801V57.1943C147.3 58.1201 147.121 58.9521 146.764 59.6904C146.412 60.4229 145.906 60.9941 145.243 61.4043C144.587 61.8145 143.831 62.0195 142.976 62.0195C141.687 62.0195 140.641 61.5713 139.838 60.6748C139.041 59.7783 138.643 58.5918 138.643 57.1152V57.001ZM140.278 57.1943C140.278 58.249 140.521 59.0957 141.007 59.7344C141.499 60.373 142.156 60.6924 142.976 60.6924C143.802 60.6924 144.458 60.3701 144.945 59.7256C145.431 59.0752 145.674 58.167 145.674 57.001C145.674 55.958 145.425 55.1143 144.927 54.4697C144.435 53.8193 143.779 53.4941 142.958 53.4941C142.156 53.4941 141.508 53.8135 141.016 54.4521C140.524 55.0908 140.278 56.0049 140.278 57.1943ZM154.528 57.0098C154.528 55.5508 154.874 54.3789 155.566 53.4941C156.257 52.6035 157.162 52.1582 158.281 52.1582C159.395 52.1582 160.277 52.5391 160.927 53.3008V48.3438H162.553V61.8438H161.059L160.98 60.8242C160.329 61.6211 159.424 62.0195 158.264 62.0195C157.162 62.0195 156.263 61.5684 155.566 60.666C154.874 59.7637 154.528 58.5859 154.528 57.1328V57.0098ZM156.154 57.1943C156.154 58.2725 156.377 59.1162 156.822 59.7256C157.268 60.335 157.883 60.6396 158.668 60.6396C159.699 60.6396 160.452 60.1768 160.927 59.251V54.8828C160.441 53.9863 159.694 53.5381 158.686 53.5381C157.889 53.5381 157.268 53.8457 156.822 54.4609C156.377 55.0762 156.154 55.9873 156.154 57.1943ZM170.241 53.793C169.995 53.752 169.728 53.7314 169.441 53.7314C168.375 53.7314 167.651 54.1855 167.27 55.0938V61.8438H165.644V52.334H167.226L167.253 53.4326C167.786 52.583 168.542 52.1582 169.52 52.1582C169.837 52.1582 170.077 52.1992 170.241 52.2812V53.793ZM174.07 61.8438H172.444V52.334H174.07V61.8438ZM172.313 49.8115C172.313 49.5479 172.392 49.3252 172.55 49.1436C172.714 48.9619 172.954 48.8711 173.271 48.8711C173.587 48.8711 173.827 48.9619 173.991 49.1436C174.155 49.3252 174.237 49.5479 174.237 49.8115C174.237 50.0752 174.155 50.2949 173.991 50.4707C173.827 50.6465 173.587 50.7344 173.271 50.7344C172.954 50.7344 172.714 50.6465 172.55 50.4707C172.392 50.2949 172.313 50.0752 172.313 49.8115ZM178.779 52.334L178.832 53.5293C179.558 52.6152 180.507 52.1582 181.679 52.1582C183.689 52.1582 184.703 53.292 184.72 55.5596V61.8438H183.094V55.5508C183.088 54.8652 182.93 54.3584 182.62 54.0303C182.315 53.7021 181.837 53.5381 181.187 53.5381C180.66 53.5381 180.197 53.6787 179.798 53.96C179.4 54.2412 179.089 54.6104 178.867 55.0674V61.8438H177.241V52.334H178.779ZM190.387 57.4404L189.367 58.5039V61.8438H187.741V48.3438H189.367V56.5088L190.237 55.4629L193.199 52.334H195.177L191.476 56.3066L195.607 61.8438H193.7L190.387 57.4404ZM210.86 59.6025L212.688 52.334H214.314L211.546 61.8438H210.227L207.916 54.6367L205.666 61.8438H204.347L201.588 52.334H203.205L205.077 59.4531L207.292 52.334H208.601L210.86 59.6025ZM218.302 61.8438H216.676V52.334H218.302V61.8438ZM216.544 49.8115C216.544 49.5479 216.623 49.3252 216.781 49.1436C216.946 48.9619 217.186 48.8711 217.502 48.8711C217.819 48.8711 218.059 48.9619 218.223 49.1436C218.387 49.3252 218.469 49.5479 218.469 49.8115C218.469 50.0752 218.387 50.2949 218.223 50.4707C218.059 50.6465 217.819 50.7344 217.502 50.7344C217.186 50.7344 216.946 50.6465 216.781 50.4707C216.623 50.2949 216.544 50.0752 216.544 49.8115ZM223.678 50.0312V52.334H225.454V53.5908H223.678V59.4883C223.678 59.8691 223.758 60.1562 223.916 60.3496C224.074 60.5371 224.343 60.6309 224.724 60.6309C224.912 60.6309 225.17 60.5957 225.498 60.5254V61.8438C225.07 61.9609 224.654 62.0195 224.25 62.0195C223.523 62.0195 222.975 61.7998 222.606 61.3604C222.237 60.9209 222.052 60.2969 222.052 59.4883V53.5908H220.321V52.334H222.052V50.0312H223.678ZM229.547 53.4854C230.268 52.6006 231.205 52.1582 232.359 52.1582C234.369 52.1582 235.383 53.292 235.401 55.5596V61.8438H233.775V55.5508C233.769 54.8652 233.61 54.3584 233.3 54.0303C232.995 53.7021 232.518 53.5381 231.867 53.5381C231.34 53.5381 230.877 53.6787 230.479 53.96C230.08 54.2412 229.77 54.6104 229.547 55.0674V61.8438H227.921V48.3438H229.547V53.4854ZM53.4365 73.0312V75.334H55.2119V76.5908H53.4365V82.4883C53.4365 82.8691 53.5156 83.1562 53.6738 83.3496C53.832 83.5371 54.1016 83.6309 54.4824 83.6309C54.6699 83.6309 54.9277 83.5957 55.2559 83.5254V84.8438C54.8281 84.9609 54.4121 85.0195 54.0078 85.0195C53.2812 85.0195 52.7334 84.7998 52.3643 84.3604C51.9951 83.9209 51.8105 83.2969 51.8105 82.4883V76.5908H50.0791V75.334H51.8105V73.0312H53.4365ZM59.3051 76.4854C60.0258 75.6006 60.9633 75.1582 62.1176 75.1582C64.1274 75.1582 65.1411 76.292 65.1586 78.5596V84.8438H63.5327V78.5508C63.5268 77.8652 63.3686 77.3584 63.058 77.0303C62.7534 76.7021 62.2758 76.5381 61.6254 76.5381C61.0981 76.5381 60.6352 76.6787 60.2368 76.96C59.8383 77.2412 59.5278 77.6104 59.3051 78.0674V84.8438H57.6791V71.3438H59.3051V76.4854ZM72.0995 85.0195C70.8104 85.0195 69.7616 84.5977 68.953 83.7539C68.1444 82.9043 67.7401 81.7705 67.7401 80.3525V80.0537C67.7401 79.1104 67.9188 78.2695 68.2763 77.5312C68.6395 76.7871 69.1434 76.207 69.788 75.791C70.4384 75.3691 71.1415 75.1582 71.8973 75.1582C73.1337 75.1582 74.0946 75.5654 74.7802 76.3799C75.4657 77.1943 75.8085 78.3604 75.8085 79.8779V80.5547H69.3661C69.3895 81.4922 69.662 82.251 70.1835 82.8311C70.7108 83.4053 71.3788 83.6924 72.1874 83.6924C72.7616 83.6924 73.2479 83.5752 73.6464 83.3408C74.0448 83.1064 74.3934 82.7959 74.6923 82.4092L75.6854 83.1826C74.8886 84.4072 73.6932 85.0195 72.0995 85.0195ZM71.8973 76.4941C71.2411 76.4941 70.6903 76.7344 70.245 77.2148C69.7997 77.6895 69.5243 78.3574 69.4188 79.2188H74.1825V79.0957C74.1356 78.2695 73.913 77.6309 73.5145 77.1797C73.1161 76.7227 72.577 76.4941 71.8973 76.4941ZM83.7952 82.3213C83.7952 81.8818 83.6282 81.542 83.2943 81.3018C82.9661 81.0557 82.389 80.8447 81.5628 80.6689C80.7425 80.4932 80.0892 80.2822 79.6029 80.0361C79.1224 79.79 78.765 79.4971 78.5306 79.1572C78.3021 78.8174 78.1878 78.4131 78.1878 77.9443C78.1878 77.165 78.5159 76.5059 79.1722 75.9668C79.8343 75.4277 80.678 75.1582 81.7034 75.1582C82.7816 75.1582 83.6546 75.4365 84.3226 75.9932C84.9964 76.5498 85.3333 77.2617 85.3333 78.1289H83.6986C83.6986 77.6836 83.5081 77.2998 83.1273 76.9775C82.7523 76.6553 82.2777 76.4941 81.7034 76.4941C81.1116 76.4941 80.6488 76.623 80.3148 76.8809C79.9808 77.1387 79.8138 77.4756 79.8138 77.8916C79.8138 78.2842 79.9691 78.5801 80.2796 78.7793C80.5902 78.9785 81.1497 79.1689 81.9583 79.3506C82.7728 79.5322 83.432 79.749 83.9359 80.001C84.4398 80.2529 84.8118 80.5576 85.0521 80.915C85.2982 81.2666 85.4212 81.6973 85.4212 82.207C85.4212 83.0566 85.0814 83.7393 84.4017 84.2549C83.722 84.7646 82.8402 85.0195 81.7562 85.0195C80.9945 85.0195 80.3206 84.8848 79.7347 84.6152C79.1488 84.3457 78.6888 83.9707 78.3548 83.4902C78.0267 83.0039 77.8626 82.4795 77.8626 81.917H79.4886C79.5179 82.4619 79.7347 82.8955 80.139 83.2178C80.5491 83.5342 81.0882 83.6924 81.7562 83.6924C82.3714 83.6924 82.8636 83.5693 83.2327 83.3232C83.6077 83.0713 83.7952 82.7373 83.7952 82.3213ZM92.0457 85.0195C90.7566 85.0195 89.7078 84.5977 88.8992 83.7539C88.0906 82.9043 87.6863 81.7705 87.6863 80.3525V80.0537C87.6863 79.1104 87.865 78.2695 88.2224 77.5312C88.5857 76.7871 89.0896 76.207 89.7341 75.791C90.3845 75.3691 91.0877 75.1582 91.8435 75.1582C93.0798 75.1582 94.0408 75.5654 94.7263 76.3799C95.4119 77.1943 95.7547 78.3604 95.7547 79.8779V80.5547H89.3123C89.3357 81.4922 89.6082 82.251 90.1297 82.8311C90.657 83.4053 91.325 83.6924 92.1336 83.6924C92.7078 83.6924 93.1941 83.5752 93.5925 83.3408C93.991 83.1064 94.3396 82.7959 94.6384 82.4092L95.6316 83.1826C94.8347 84.4072 93.6394 85.0195 92.0457 85.0195ZM91.8435 76.4941C91.1873 76.4941 90.6365 76.7344 90.1912 77.2148C89.7459 77.6895 89.4705 78.3574 89.365 79.2188H94.1287V79.0957C94.0818 78.2695 93.8591 77.6309 93.4607 77.1797C93.0623 76.7227 92.5232 76.4941 91.8435 76.4941ZM111.262 80.1943C111.262 81.6416 110.931 82.8076 110.269 83.6924C109.607 84.5771 108.711 85.0195 107.58 85.0195C106.425 85.0195 105.517 84.6533 104.855 83.9209V88.5H103.229V75.334H104.714L104.794 76.3887C105.456 75.5684 106.376 75.1582 107.553 75.1582C108.696 75.1582 109.598 75.5889 110.26 76.4502C110.928 77.3115 111.262 78.5098 111.262 80.0449V80.1943ZM109.636 80.0098C109.636 78.9375 109.408 78.0908 108.951 77.4697C108.494 76.8486 107.867 76.5381 107.07 76.5381C106.086 76.5381 105.347 76.9746 104.855 77.8477V82.3916C105.341 83.2588 106.086 83.6924 107.088 83.6924C107.867 83.6924 108.485 83.3848 108.942 82.7695C109.405 82.1484 109.636 81.2285 109.636 80.0098ZM115.663 84.8438H114.037V75.334H115.663V84.8438ZM113.905 72.8115C113.905 72.5479 113.984 72.3252 114.143 72.1436C114.307 71.9619 114.547 71.8711 114.863 71.8711C115.18 71.8711 115.42 71.9619 115.584 72.1436C115.748 72.3252 115.83 72.5479 115.83 72.8115C115.83 73.0752 115.748 73.2949 115.584 73.4707C115.42 73.6465 115.18 73.7344 114.863 73.7344C114.547 73.7344 114.307 73.6465 114.143 73.4707C113.984 73.2949 113.905 73.0752 113.905 72.8115ZM120.6 84.8438H118.974V71.3438H120.6V84.8438ZM125.537 84.8438H123.911V71.3438H125.537V84.8438ZM134.245 82.3213C134.245 81.8818 134.078 81.542 133.744 81.3018C133.415 81.0557 132.838 80.8447 132.012 80.6689C131.192 80.4932 130.538 80.2822 130.052 80.0361C129.572 79.79 129.214 79.4971 128.98 79.1572C128.751 78.8174 128.637 78.4131 128.637 77.9443C128.637 77.165 128.965 76.5059 129.621 75.9668C130.284 75.4277 131.127 75.1582 132.153 75.1582C133.231 75.1582 134.104 75.4365 134.772 75.9932C135.446 76.5498 135.783 77.2617 135.783 78.1289H134.148C134.148 77.6836 133.957 77.2998 133.577 76.9775C133.202 76.6553 132.727 76.4941 132.153 76.4941C131.561 76.4941 131.098 76.623 130.764 76.8809C130.43 77.1387 130.263 77.4756 130.263 77.8916C130.263 78.2842 130.418 78.5801 130.729 78.7793C131.039 78.9785 131.599 79.1689 132.408 79.3506C133.222 79.5322 133.881 79.749 134.385 80.001C134.889 80.2529 135.261 80.5576 135.501 80.915C135.747 81.2666 135.871 81.6973 135.871 82.207C135.871 83.0566 135.531 83.7393 134.851 84.2549C134.171 84.7646 133.289 85.0195 132.205 85.0195C131.444 85.0195 130.77 84.8848 130.184 84.6152C129.598 84.3457 129.138 83.9707 128.804 83.4902C128.476 83.0039 128.312 82.4795 128.312 81.917H129.938C129.967 82.4619 130.184 82.8955 130.588 83.2178C130.998 83.5342 131.537 83.6924 132.205 83.6924C132.821 83.6924 133.313 83.5693 133.682 83.3232C134.057 83.0713 134.245 82.7373 134.245 82.3213ZM140.456 81.2402C140.468 80.543 140.547 79.9922 140.693 79.5879C140.84 79.1836 141.139 78.7354 141.59 78.2432L142.741 77.0566C143.233 76.5 143.479 75.9023 143.479 75.2637C143.479 74.6484 143.318 74.168 142.996 73.8223C142.674 73.4707 142.205 73.2949 141.59 73.2949C140.992 73.2949 140.512 73.4531 140.148 73.7695C139.785 74.0859 139.603 74.5107 139.603 75.0439H137.977C137.989 74.0947 138.326 73.3301 138.988 72.75C139.656 72.1641 140.523 71.8711 141.59 71.8711C142.697 71.8711 143.558 72.1699 144.174 72.7676C144.795 73.3594 145.105 74.1738 145.105 75.2109C145.105 76.2363 144.631 77.2471 143.681 78.2432L142.723 79.1924C142.296 79.667 142.082 80.3496 142.082 81.2402H140.456ZM140.386 84.0264C140.386 83.7627 140.465 83.543 140.623 83.3672C140.787 83.1855 141.027 83.0947 141.344 83.0947C141.66 83.0947 141.9 83.1855 142.064 83.3672C142.228 83.543 142.31 83.7627 142.31 84.0264C142.31 84.29 142.228 84.5098 142.064 84.6855C141.9 84.8555 141.66 84.9404 141.344 84.9404C141.027 84.9404 140.787 84.8555 140.623 84.6855C140.465 84.5098 140.386 84.29 140.386 84.0264Z" fill="#0B4A72"/>
</g>
<defs>
<clipPath id="clip0_1_124">
<rect width="340" height="112" fill="white" transform="translate(150 347.844)"/>
</clipPath>
<clipPath id="clip1_1_124">
<rect width="340" height="112" fill="white" transform="translate(0 237.844)"/>
</clipPath>
<clipPath id="clip2_1_124">
<rect width="340" height="112" fill="white" transform="translate(150 127.844)"/>
</clipPath>
<clipPath id="clip3_1_124">
<rect width="340" height="112" fill="white" transform="translate(0 17.8438)"/>
</clipPath>
</defs>
</svg>
