<svg width="30" height="22" fill="none" xmlns="http://www.w3.org/2000/svg"><path d="M6.625 12.875c1.583-.375 3.042-.563 4.375-.563 1.333 0 2.792.188 4.375.563 1.583.375 3.02 1 4.313 1.875 1.333.875 2 1.854 2 2.938v4H.313v-4c0-1.084.645-2.063 1.937-2.938a13.637 13.637 0 014.375-1.875zM19 11c-.542 0-1.125-.104-1.75-.313 1.167-1.374 1.75-3.041 1.75-5C19 4.896 18.833 4 18.5 3c-.333-1-.75-1.792-1.25-2.375.625-.208 1.208-.313 1.75-.313 1.458 0 2.708.542 3.75 1.625 1.042 1.042 1.563 2.292 1.563 3.75 0 1.459-.521 2.709-1.563 3.75C21.708 10.48 20.458 11 19 11zM7.25 9.437c-1.042-1.041-1.563-2.291-1.563-3.75 0-1.458.521-2.708 1.563-3.75C8.292.855 9.542.313 11 .313c1.458 0 2.708.542 3.75 1.625 1.042 1.042 1.563 2.292 1.563 3.75 0 1.459-.521 2.709-1.563 3.75C13.708 10.48 12.458 11 11 11c-1.458 0-2.708-.52-3.75-1.563zm14 3.063c2.208.333 4.167.958 5.875 1.875 1.708.875 2.563 1.98 2.563 3.313v4h-5.375v-4c0-2.042-1.021-3.771-3.063-5.188z" fill="#fff"/></svg>