<svg width="27" height="29" fill="none" xmlns="http://www.w3.org/2000/svg"><path d="M20 12.688c-1.292 0-2.5.25-3.625.75a9.018 9.018 0 00-3 2 9.656 9.656 0 00-2 2.937A9.515 9.515 0 0010.687 22c0 1 .146 1.958.438 2.875a9.002 9.002 0 001.25 2.438H2.687c-.75 0-1.395-.25-1.937-.75-.5-.542-.75-1.167-.75-1.875V3.313C0 2.603.25 2 .75 1.5 1.292.958 1.938.687 2.688.687h16c.708 0 1.312.271 1.812.813.542.5.813 1.104.813 1.813v9.437A14.505 14.505 0 0020 12.687zm-14.688 0l3.375-2 3.313 2V3.312H5.312v9.376zM20 15.312c1.208 0 2.313.313 3.313.938a6.232 6.232 0 012.437 2.438c.625 1 .938 2.104.938 3.312a6.445 6.445 0 01-.938 3.375c-.583 1-1.396 1.813-2.438 2.438-1 .583-2.104.875-3.312.875a6.795 6.795 0 01-3.375-.875 7.568 7.568 0 01-2.438-2.438A6.795 6.795 0 0113.313 22c0-1.208.291-2.313.874-3.313.626-1.041 1.438-1.854 2.438-2.437A6.445 6.445 0 0120 15.312zm-1.688 10L23.688 22l-5.375-3.313v6.625z" fill="#fff"/></svg>