<svg width="15" height="15" fill="none" xmlns="http://www.w3.org/2000/svg"><path d="M3.01 8.057c.692.692 1.534 1.039 2.523 1.039.99 0 1.83-.347 2.524-1.04.692-.692 1.039-1.533 1.039-2.523 0-.99-.347-1.83-1.04-2.523-.692-.693-1.533-1.04-2.523-1.04-.99 0-1.83.347-2.523 1.04-.693.692-1.04 1.534-1.04 2.523 0 .99.347 1.83 1.04 2.524zm7.273 1.039l3.934 3.933-1.188 1.188-3.933-3.934v-.63l-.223-.223c-.94.816-2.053 1.224-3.34 1.224-1.435 0-2.66-.495-3.674-1.484C.87 8.18.375 6.968.375 5.533S.87 2.886 1.859 1.896C2.874.882 4.1.375 5.533.375c1.435 0 2.647.507 3.637 1.521.99.99 1.484 2.202 1.484 3.637 0 .52-.123 1.113-.37 1.781-.248.644-.533 1.163-.854 1.559l.222.223h.631z" fill="#fff"/></svg>