<svg width="158" height="67" fill="none" xmlns="http://www.w3.org/2000/svg"><path d="M70.457 63.148a.173.173 0 01-.161-.11L47.226 3.104a.173.173 0 01.1-.222.172.172 0 01.22.098l23.071 59.936a.17.17 0 01-.099.22.152.152 0 01-.061.013zm19.166-6.626l-4.195-10.884-.024-.058h-.727l-4.243 10.983-5.01-12.935h-1.063L79.977 58.2l.022.058h.776l4.266-11.063 4.257 11.063h.751l5.638-14.63h-1.08l-4.984 12.894zm9.706 1.736h7.886v-.927h-6.883v-6.297h5.676v-.927h-5.676v-5.551h6.883v-.928h-7.886v14.63zm34.484-14.63H132.6l-7.211 7.714v-7.714h-1.001v14.63h1.001v-5.594l1.576-1.706 6.428 7.27.028.03h1.278l-7.056-8.011 6.17-6.62zm-21.834 14.63h7.886v-.927h-6.883v-6.297h5.675v-.927h-5.675v-5.551h6.883v-.928h-7.886v14.63zm-32.123-18.1h1.053L75.27 25.523h-.824l-5.634 14.635h1.05l1.66-4.315h6.665l1.668 4.315zm-2.022-5.24h-5.955l2.978-7.74 2.977 7.74zm19.27-8.458h5.168v13.705h1.002V26.46h5.168v-.927H97.104v.927zm21.232-6.766c1.169-1.255 1.788-3.037 1.788-5.152 0-4.597-2.842-7.34-7.602-7.34h-4.074v14.631h4.074c2.537 0 4.492-.72 5.814-2.139zm.785-5.152c0 2.368-.854 6.34-6.575 6.34h-3.097V8.154h3.097c5.721 0 6.575 4.001 6.575 6.388zM93.538 9.216l8.897 12.617h.74V7.203h-.977V19.82L93.303 7.203h-.742v14.63h.977V9.216zm37.289-2.352c-4.264 0-7.359 3.22-7.359 7.654 0 4.434 3.095 7.652 7.359 7.652 4.264 0 7.361-3.218 7.361-7.652s-3.095-7.654-7.361-7.654zm6.36 7.654c0 3.945-2.615 6.702-6.358 6.702-3.742 0-6.357-2.755-6.357-6.702 0-3.945 2.613-6.703 6.357-6.703 3.743 0 6.358 2.758 6.358 6.703zm14.692-7.315V19.82l-8.894-12.617h-.743v14.63h.978V9.216l8.896 12.617h.741V7.203h-.978zM71.757 20.906h-6.883V7.203H63.87v14.63h7.886v-.927zm9.11 1.264c4.264 0 7.36-3.218 7.36-7.652s-3.095-7.654-7.36-7.654c-4.264 0-7.36 3.22-7.36 7.654 0 4.434 3.096 7.652 7.36 7.652zm-6.358-7.652c0-3.945 2.613-6.703 6.358-6.703 3.742 0 6.357 2.756 6.357 6.703 0 3.945-2.613 6.702-6.357 6.702-3.743 0-6.358-2.757-6.358-6.702zm10.729 25.645h1.003V33.97h3.124l4.301 6.193h1.187l-4.411-6.262c2.527-.373 3.434-2.372 3.434-4.142 0-1.953-1.131-4.236-4.319-4.236h-4.319v14.64zm4.319-13.712c3.077 0 3.316 2.532 3.316 3.308 0 .988-.323 3.283-3.316 3.283H86.24v-6.591h3.317zm-79.938 4.98s.001 0 0 0c.001 0 .001 0 0 0h14.82a1.053 1.053 0 100-2.104H10.675V7.93a1.055 1.055 0 00-2.109 0v22.448a1.05 1.05 0 001.053 1.053z" fill="#000"/><path d="M19.403 57.786l.004-.008 18.057-46.912 4.412 11.46h-6.598a1.054 1.054 0 100 2.106h7.41l2.434 6.326a1.055 1.055 0 001.97-.755L38.449 7.552l-.01-.026-.023-.049c-.007-.016-.016-.03-.023-.047a.492.492 0 00-.055-.09c-.01-.012-.017-.023-.026-.036-.01-.016-.023-.03-.034-.045l-.03-.035-.038-.042-.035-.032c-.012-.013-.027-.024-.04-.037l-.038-.03a.641.641 0 00-.084-.057l-.05-.03-.04-.02a.56.56 0 00-.058-.025l-.02-.009a.775.775 0 00-.078-.025l-.04-.011a.363.363 0 00-.057-.013l-.045-.009-.055-.005a.405.405 0 00-.05-.004h-.101c-.017 0-.033.002-.05.004l-.054.005a.404.404 0 00-.046.01.67.67 0 00-.058.012l-.04.01a.803.803 0 00-.062.02c-.006.003-.011.004-.019.006-.007.002-.012.006-.02.01-.02.007-.038.016-.058.025l-.038.02c-.017.009-.035.018-.051.029a.641.641 0 00-.084.056l-.039.03c-.014.01-.027.023-.042.036l-.032.03a.44.44 0 00-.04.043l-.03.032-.036.048c-.01.01-.017.023-.026.036l-.03.05-.025.04a.58.58 0 00-.023.048l-.022.05-.011.025-18.057 46.913-7.822-20.307a1.055 1.055 0 00-1.97.752l8.803 22.87c.004.008.008.013.01.02a1.033 1.033 0 00.165.277c.026.03.053.06.082.087.013.013.028.024.042.037a.57.57 0 00.066.05l.046.033c.032.022.065.04.102.059l.06.027a.2.2 0 00.034.014c.006.002.011.002.017.006.051.018.104.032.159.043l.02.006c.06.01.122.018.184.018.027 0 .056-.005.084-.007.027-.002.055-.004.08-.008a1.534 1.534 0 00.173-.043c.013-.004.028-.006.04-.011a1.043 1.043 0 00.602-.6z" fill="#000"/><path d="M46.483 33.55a1.053 1.053 0 00-1.362.605L37.3 54.466 30.726 37.38a1.056 1.056 0 00-1.97.753l7.562 19.645c.002.008.007.013.01.02a.935.935 0 00.058.122l.016.027c.018.031.04.062.062.091.01.011.016.024.026.035a.855.855 0 00.116.118c.028.024.055.045.086.067.009.008.02.015.03.022.036.024.074.046.114.066l.035.016c.018.007.034.016.053.024.009.003.016.003.025.007a1.057 1.057 0 00.175.047c.059.01.117.017.177.017l.013-.002a.98.98 0 00.162-.015l.057-.012c.04-.01.08-.02.12-.033.01-.004.018-.004.03-.008a.562.562 0 00.058-.025l.025-.01a.973.973 0 00.12-.07l.022-.016a1.36 1.36 0 00.095-.075c.008-.005.015-.013.022-.018.033-.031.064-.064.093-.098l.022-.03a.948.948 0 00.067-.098c.004-.007.01-.014.013-.022a.985.985 0 00.06-.125l.01-.018 8.803-22.87a1.057 1.057 0 00-.61-1.362z" fill="#000"/></svg>