<svg width="197" height="197" fill="none" xmlns="http://www.w3.org/2000/svg"><g opacity=".6"><path opacity=".6" d="M65.393 31.51a1.826 1.826 0 002.528.886c1.26-.57 1.533-1.566.821-3.12l-3.283-7.212 1.86-.843 3.284 7.202c1.193 2.615.383 4.63-1.882 5.658a3.775 3.775 0 01-5.243-1.685l1.915-.887zm13.549-1.216c-3.152.898-6.085-1.007-7.081-4.476-.996-3.47.503-6.632 3.644-7.53 3.141-.897 6.096.985 7.092 4.465.996 3.48-.514 6.644-3.655 7.541zM76.009 20.05c-2.047.58-2.857 2.736-2.19 5.199.668 2.462 2.54 3.863 4.587 3.283 2.046-.58 2.878-2.747 2.188-5.21-.69-2.462-2.539-3.863-4.585-3.272zm9.018 3.524l-.82-7.223 2.035-.23.8 7.005c.262 2.309 1.356 3.283 3.162 3.064 1.806-.219 2.66-1.39 2.397-3.7l-.8-7.004 2.037-.23.82 7.246c.373 3.283-1.368 5.188-4.246 5.472-2.878.285-5.045-1.094-5.385-4.4zm14.393-1.138l-.187 4.925-2.046-.11.47-12.038 4.663.175c2.506.098 4.071 1.423 3.972 3.787a3.277 3.277 0 01-2.008 3.103c-.404.17-.837.257-1.275.257l3.283 5.122-2.32-.088-3.185-5.034-1.368-.099zm.065-1.718l2.583.098c1.357.055 2.189-.645 2.189-1.762 0-1.116-.701-1.882-2.058-1.937l-2.605-.098-.109 3.699zm17.62 8.942l-1.543-.307-4.377-9.85-1.708 8.635-1.926-.383 2.342-11.864 1.893.383 4.094 9.358 1.63-8.23 1.927.383-2.332 11.875zm11.722-8.701l.066 12.969-1.937-.744v-3.58l-4.378-1.63-2.288 2.67-1.937-.733 8.603-9.653 1.871.7zm-4.958 5.581l3.087 1.172v-4.729l-3.087 3.557zm11.995-2.528l1.784 1.007-5.001 8.909 5.077 2.834-.919 1.642-6.862-3.83 5.921-10.562zm15.356 21.561a1.833 1.833 0 00-.43 2.07c.1.231.246.44.43.611.94.996 1.98.952 3.217-.23l5.767-5.472 1.402 1.489-5.757 5.472c-2.091 1.97-4.258 1.86-5.965 0a3.76 3.76 0 01-.915-1.243 3.765 3.765 0 01-.054-3.021c.2-.48.495-.914.871-1.274l1.434 1.598zm5.547 12.433c-1.871-2.693-1.028-6.086 1.938-8.143 2.966-2.058 6.435-1.686 8.306 1.007 1.872 2.692 1.096 6.085-1.925 8.153-3.021 2.069-6.458 1.675-8.319-1.017zm8.756-6.096c-1.215-1.74-3.523-1.817-5.625-.35-2.101 1.466-2.835 3.655-1.62 5.395 1.215 1.74 3.535 1.839 5.637.372 2.101-1.467 2.813-3.7 1.598-5.407l.01-.01zm-.437 9.664l6.567-3.12.874 1.86-6.369 3.022c-2.102.996-2.66 2.353-1.882 3.983.777 1.631 2.189 2.069 4.278 1.095l6.37-3.032.887 1.86-6.567 3.12c-2.988 1.423-5.362.383-6.567-2.189-1.203-2.572-.601-5.166 2.409-6.6zm5.735 13.275l-4.707 1.39-.579-1.959 11.601-3.436 1.324 4.476c.711 2.397 0 4.3-2.309 4.98a3.286 3.286 0 01-4.213-1.981L168.15 83.1l-.657-2.189 3.743-4.618-.415-1.445zm1.642-.481l.733 2.473a1.871 1.871 0 001.611 1.502 1.869 1.869 0 001.924-1.072 1.868 1.868 0 00.021-1.524l-.733-2.42-3.556 1.04zm-2.824 19.59l-.209-1.554 7.936-7.289-8.756 1.094-.218-1.937 12.038-1.587.252 1.915-7.562 6.885 8.327-1.095.253 1.948-12.061 1.62zm12.038 8.241l-12.257 4.257.066-2.09 3.392-1.094.143-4.619-3.283-1.346.065-2.069 11.874 4.991v1.97zm-6.883-2.89l-.11 3.284 4.531-1.499-4.421-1.784zm6.259 10.529l-.371 2.014-10.102-1.828-1.029 5.713-1.806-.317 1.402-7.738 11.906 2.156zm-15.454 21.495a1.823 1.823 0 00-2.538.844c-.646 1.214-.263 2.188 1.247 2.976l6.994 3.71-.952 1.817-7.004-3.722c-2.54-1.346-3.119-3.435-1.96-5.625a3.793 3.793 0 013.722-2.291 3.787 3.787 0 011.488.409l-.997 1.882zm-9.991 9.259c1.947-2.626 5.472-2.911 8.339-.765 2.867 2.144 3.655 5.559 1.708 8.196-1.948 2.639-5.473 2.945-8.351.788-2.878-2.155-3.644-5.581-1.696-8.219zm8.569 6.337c1.27-1.707.602-3.917-1.467-5.472-2.068-1.554-4.377-1.521-5.625.197-1.248 1.719-.613 3.94 1.455 5.472 2.069 1.533 4.379 1.511 5.627-.197h.01zm-9.28 2.693l5.067 5.21-1.467 1.422-4.913-5.056c-1.621-1.664-3.086-1.751-4.379-.493-1.291 1.258-1.258 2.725.361 4.377l4.915 5.069-1.467 1.422-5.077-5.231c-2.311-2.364-2.091-4.947 0-6.961 2.089-2.014 4.64-2.146 6.96.241zm-10.726 9.718l-2.834-3.995 1.663-1.192 7.005 9.85-3.809 2.702c-2.035 1.445-4.083 1.358-5.472-.579a3.29 3.29 0 01-.712-2.42 3.282 3.282 0 011.215-2.209l-5.746-2.036 1.894-1.346 5.581 2.046 1.215-.821zm.996 1.402l-2.112 1.488a1.847 1.847 0 00-.561.524c-.15.211-.252.451-.303.705a1.858 1.858 0 00.319 1.469 1.875 1.875 0 002.734.322l2.112-1.488-2.189-3.02zm-19.437 3.687l1.412-.7 9.467 5.133-3.93-7.891 1.773-.876 5.385 10.835-1.73.865-8.962-4.925 3.731 7.518-1.761.876-5.385-10.835zm-3.919 13.965l-7.989-10.189 1.992-.601 2.189 2.834 4.432-1.346.208-3.557 1.981-.603-.952 12.926-1.861.536zm.515-7.441l-3.163.962 2.878 3.799.285-4.761zm-7.957 9.357l-2.025.296-1.499-10.158-5.757.854-.262-1.816 7.77-1.15 1.773 11.974zm-25.347-7.705a1.84 1.84 0 00-1.609-2.189c-1.368-.208-2.188.459-2.418 2.189l-1.248 7.814-2.025-.318 1.248-7.824c.449-2.835 2.189-4.072 4.695-3.678a3.756 3.756 0 012.7 1.423 3.753 3.753 0 01.759 2.955l-2.102-.372zm-11.973-6.458c3.12.985 4.52 4.192 3.425 7.662-1.094 3.469-4.082 5.253-7.2 4.268-3.12-.985-4.543-4.192-3.448-7.662 1.094-3.468 4.104-5.253 7.223-4.268zm-3.218 10.157c2.025.645 3.907-.701 4.673-3.141.767-2.44 0-4.63-2.013-5.276-2.014-.645-3.918.702-4.695 3.152-.778 2.452.01 4.63 2.035 5.265zm-5.549-7.924L65 174.848l-1.817-.93 3.207-6.271c1.094-2.069.678-3.48-.942-4.312-1.62-.832-2.976-.307-4.038 1.761l-3.207 6.272-1.828-.93 3.284-6.491c1.51-2.943 4.016-3.556 6.567-2.243 2.55 1.313 3.567 3.71 2.057 6.676zm-12.641-7.015l2.879-3.973 1.663 1.203-7.092 9.85-3.787-2.735c-2.025-1.467-2.594-3.437-1.215-5.352a3.277 3.277 0 014.553-1.018l.088-6.096 1.882 1.368-.153 5.953 1.182.8zm-1.007 1.39l-2.101-1.511a1.858 1.858 0 00-1.457-.504 1.87 1.87 0 00-.732 3.503l2.09 1.51 2.2-2.998zm-9.761-17.194l1.094 1.095-1.817 10.605 6.25-6.228 1.4 1.39-8.536 8.592-1.368-1.369 1.784-10.068-5.921 5.954-1.401-1.39 8.515-8.581zm-14.513.767l7.092-10.847 1.226 1.697-1.992 2.965 2.714 3.755 3.447-.952 1.204 1.674-12.531 3.284-1.16-1.576zm7.212-1.927l-1.937-2.682-2.66 3.963 4.597-1.281zm-11.392-4.52l-.942-1.827 9.117-4.707-2.616-5.155 1.62-.842 3.611 6.982-10.79 5.549zm-.888-26.453a1.822 1.822 0 001.506-1.452 1.828 1.828 0 00-.006-.737c-.23-1.357-1.095-1.893-2.813-1.598l-7.803 1.325-.35-2.014 7.814-1.335c2.834-.482 4.575.821 4.99 3.283a3.774 3.774 0 01-2.987 4.662l-.35-2.134zM27.58 100c.066 3.283-2.528 5.625-6.129 5.702-3.6.076-6.293-2.189-6.359-5.473-.065-3.283 2.507-5.647 6.13-5.713 3.622-.065 6.281 2.211 6.358 5.483zm-10.66.218c0 2.124 1.926 3.47 4.487 3.415 2.561-.055 4.378-1.467 4.378-3.601s-1.915-3.48-4.476-3.425c-2.561.054-4.433 1.488-4.389 3.611zm5.702-7.803l-7.201-1.094.295-2.025 6.983.996c2.298.34 3.513-.482 3.776-2.277.262-1.795-.679-2.922-2.977-3.283l-6.983-.996.285-2.036 7.223 1.095c3.283.47 4.673 2.648 4.258 5.472-.416 2.824-2.364 4.619-5.659 4.148zm2.55-14.239l4.695 1.445-.602 1.959-11.568-3.546 1.368-4.465C19.8 71.172 21.484 70 23.74 70.69a3.282 3.282 0 012.43 3.984l5.789-1.893-.679 2.188-5.68 1.785-.427 1.422zm-1.641-.47l.766-2.463a1.872 1.872 0 10-3.546-1.094l-.755 2.462 3.535 1.095zm13.177-14.808l-.69 1.412-10.637 1.685 7.912 3.874-.864 1.773-10.868-5.319.843-1.75 10.113-1.544-7.541-3.699.864-1.762 10.868 5.33zm-5.429-13.495l12.498 3.24-1.214 1.707-3.448-.941-2.692 3.776 2.057 3.01-1.204 1.674-7.146-10.802 1.149-1.664zm4.126 6.217l1.926-2.693-4.608-1.247 2.682 3.94zm.624-12.247l1.412-1.466 7.43 7.113 3.996-4.148 1.324 1.27-5.472 5.67-8.69-8.439z" fill="#424928"/><path opacity=".57" d="M28.368 122.118c1.412 3.108-.646 8.548-.646 8.548s-5.472-2.014-6.862-5.122c-1.39-3.109-.339-5.199 1.74-6.151 2.08-.952 4.356-.383 5.768 2.725z" fill="#8E9373"/><path opacity=".6" d="M23.158 117.948a18.705 18.705 0 001.817 6.819m3.305-2.605a9.49 9.49 0 01.197 5.374c-.14.739-.322 1.47-.547 2.189-.088.284-.164.503-.208.656v.142h-.142c-.153 0-.372-.153-.635-.273a21.937 21.937 0 01-2.014-1.018 9.495 9.495 0 01-3.929-3.688 5.155 5.155 0 01-.438-3.809 3.777 3.777 0 012.124-2.189 3.768 3.768 0 013.053-.164 5.1 5.1 0 012.54 2.78z" stroke="#424928" stroke-width=".417"/><path opacity=".6" d="M26.321 122.994s-1.543-1.325-2.44-.92c-.898.405-.767 2.036-.767 2.036" stroke="#424928" stroke-width=".417"/><path opacity=".57" d="M57.47 38.032c-2.408 2.463-8.22 2.463-8.22 2.463s0-5.812 2.375-8.23c2.375-2.42 4.75-2.19 6.37-.537s1.893 3.885-.526 6.304z" fill="#8E9373"/><path opacity=".6" d="M59.549 31.739c-2.14.991-4.07 2.38-5.691 4.093m3.546 2.134a9.39 9.39 0 01-4.97 2.08c-.723.128-1.454.216-2.188.262h-.843v-.843c.033-.755.11-1.508.23-2.254a9.534 9.534 0 012.069-4.969 5.155 5.155 0 013.414-1.75 3.799 3.799 0 012.802 1.247A3.742 3.742 0 0159.1 34.55a5.155 5.155 0 01-1.696 3.415z" stroke="#424928" stroke-width=".417"/><path opacity=".6" d="M55.937 36.434s.7-1.915 0-2.616c-.7-.7-2.19 0-2.19 0" stroke="#424928" stroke-width=".417"/><path opacity=".57" d="M144.325 40.024c-2.813-1.937-3.853-7.661-3.853-7.661s5.713-1.095 8.526.864c2.813 1.96 2.965 4.28 1.674 6.162-1.291 1.882-3.535 2.572-6.347.635z" fill="#8E9373"/><path opacity=".6" d="M150.945 40.921a18.71 18.71 0 00-5.044-4.87m-1.521 3.885a9.469 9.469 0 01-2.945-4.509 20.853 20.853 0 01-.656-2.189 20.418 20.418 0 01-.154-.667v-.154h.154l.679-.098a22.53 22.53 0 012.265-.153 9.406 9.406 0 015.254 1.094 5.136 5.136 0 012.341 3.043 4.197 4.197 0 01-.693 2.98 4.196 4.196 0 01-2.535 1.715 5.175 5.175 0 01-3.71-1.062z" stroke="#424928" stroke-width=".417"/><path opacity=".6" d="M145.626 38.229s2.015.328 2.573-.481c.558-.81-.394-2.19-.394-2.19" stroke="#424928" stroke-width=".417"/><path opacity=".57" d="M168.544 123.672c.636-3.36 5.473-6.566 5.473-6.566s3.283 4.782 2.659 8.142c-.624 3.36-2.725 4.444-4.958 4.017-2.232-.427-3.765-2.255-3.174-5.593z" fill="#8E9373"/><path opacity=".6" d="M170.438 130.075a18.628 18.628 0 002.419-6.567m-4.17.164a9.511 9.511 0 012.933-4.509 21.565 21.565 0 011.718-1.477l.558-.416.121-.088.088.131.361.58c.399.648.765 1.317 1.094 2.003a9.449 9.449 0 011.094 5.276 5.173 5.173 0 01-1.839 3.37 4.178 4.178 0 01-5.592-1.094 5.137 5.137 0 01-.536-3.776z" stroke="#424928" stroke-width=".417"/><path opacity=".6" d="M170.733 124.121s.493 1.981 1.467 2.189c.973.208 1.794-1.215 1.794-1.215" stroke="#424928" stroke-width=".417"/><path opacity=".57" d="M97.504 172.638c3.404-.285 7.836 3.47 7.836 3.47s-3.721 4.465-7.125 4.76c-3.403.296-5.012-1.379-5.187-3.699-.175-2.321 1.094-4.246 4.476-4.531z" fill="#8E9373"/><path opacity=".6" d="M91.824 176.206c2.274.628 4.648.817 6.993.558m-1.302-4.028a9.537 9.537 0 015.133 1.609c.654.385 1.286.805 1.894 1.258l.536.416.12.099-.131.088-.46.503a20.04 20.04 0 01-1.652 1.554 9.37 9.37 0 01-4.783 2.474 5.13 5.13 0 01-3.732-.866 4.173 4.173 0 01-.493-5.68 5.178 5.178 0 013.568-1.455z" stroke="#424928" stroke-width=".417"/><path opacity=".6" d="M97.636 174.86s-1.762 1.018-1.675 1.991c.088.974 1.664 1.401 1.664 1.401" stroke="#424928" stroke-width=".417"/></g></svg>