<svg width="446" height="315" fill="none" xmlns="http://www.w3.org/2000/svg"><path opacity=".2" d="M90.867 307.073c0 4.589 62.94 7.927 140.469 7.927s140.47-3.755 140.47-7.927c0-4.59-62.941-7.928-140.47-7.928-77.529-.417-140.469 3.338-140.469 7.928z" fill="#5872E2"/><path d="M304.28 37.952v250.762c0 9.597-7.919 17.524-17.506 17.524H175.482c-9.587 0-17.506-7.927-17.506-17.524V37.952c0-9.597 7.919-17.524 17.506-17.524h111.292c9.587 0 17.506 7.927 17.506 17.524z" fill="#A7BBE4"/><path d="M286.774 23.766H258.43c-1.667 0-2.918.417-4.168 1.669l-4.169 3.338c-1.25.834-2.5 1.669-4.168 1.669h-29.594c-1.667 0-2.918-.418-4.168-1.67l-4.585-3.754c-1.251-.835-2.501-1.67-4.169-1.67h-28.344c-7.919 0-14.172 6.26-14.172 14.187v250.762c0 7.928 6.253 14.186 14.172 14.186h111.292c7.92 0 14.172-6.258 14.172-14.186V37.952c.834-7.927-5.836-14.186-13.755-14.186z" fill="url(#paint0_linear_24_1335)"/><path d="M235.922 27.104H221.75c-.834 0-1.251-.417-1.251-1.252 0-.834.417-1.251 1.251-1.251h14.172c.833 0 1.25.417 1.25 1.251 0 .418-.417 1.252-1.25 1.252zm5.001 0c-.416 0-.833 0-.833-.417-.417-.417-.417-.417-.417-.835v-.417s0-.417.417-.417c.417-.417.833-.417 1.25-.417h.834l.417.417v.417c0 .417 0 .835-.417.835-.834.417-.834.834-1.251.834z" fill="#CEE1FE"/><path d="M238.006 156.031H205.91c-2.084 0-4.168-1.669-4.168-4.172 0-2.504 1.667-4.172 4.168-4.172h32.096c2.084 0 4.168 1.668 4.168 4.172 0 2.503-2.084 4.172-4.168 4.172zm22.925-4.172c0-2.086-1.667-4.172-4.168-4.172h-7.503c-2.084 0-4.168 1.668-4.168 4.172 0 2.503 1.667 4.172 4.168 4.172h7.503c2.501 0 4.168-1.669 4.168-4.172z" fill="#B7D3FD"/><path d="M279.688 178.979h-96.703c-3.751 0-7.086-2.921-7.086-7.093 0-3.755 2.918-7.093 7.086-7.093h96.703c3.751 0 7.086 2.921 7.086 7.093-.417 3.755-3.335 7.093-7.086 7.093zm0 22.948h-96.703c-3.751 0-7.086-2.92-7.086-7.093 0-3.755 2.918-7.093 7.086-7.093h96.703c3.751 0 7.086 2.921 7.086 7.093-.417 4.173-3.335 7.093-7.086 7.093z" fill="#fff"/><path d="M212.996 173.973c-.417.417-.833.417-1.25.417-.417 0-.834-.417-1.251-.834-.417-.417-.417-.835-.417-1.669v-1.669c0-.417.417-.417.417-.417s.417 0 .417.417v1.669c0 .417 0 .834.417.834 0 .418.417.418.834.418.416 0 .416 0 .833-.418.417-.417.417-.417.417-.834v-1.669c0-.417.417-.417.417-.417h.417v4.589h-.417c-.417 0-.834 0-.834-.417zm2.918.417c-.417 0-.417-.417-.834-.417v-.834l.417-.418s.417 0 .417.418c.417.417.417.417.834.417h.416s.417 0 .417-.417v-.418s-.417 0-.417-.417h-.416c-.417 0-.834-.417-1.251-.417-.417-.417-.417-.417-.417-.834 0-.418 0-.835.417-.835.417-.417.834-.417 1.251-.417h.833c.417 0 .417.417.417.417v.835h-.834c-.416 0-.833-.001-.833.417 0 0 0 .417.417.417 0 0 .416 0 .416.417.417 0 .834.417.834.417.417.418.417.418.417.835s0 .834-.417.834c-.417.418-.834.418-1.25.418 0-.418-.417-.418-.834-.418zm4.168-.417c-.417-.417-.833-.834-.833-1.669 0-.417.416-1.251.833-1.669.417-.417.834-.834 1.668-.834.416 0 1.25.417 1.667.834.417.418.833.835.833 1.669 0 .417 0 .417-.416.417h-2.918c0 .418.417.418.417.835.417 0 .417.417.833.417.417 0 .834 0 .834-.417h.834v.834l-.417.418h-.834c-1.25-.418-2.084-.418-2.501-.835zm2.918-2.086c0-.417-.417-.417-.417-.834-.417 0-.417-.418-.833-.418-.417 0-.417 0-.834.418-.417 0-.417.417-.417.834H223zm2.501 2.503c0-.417 0 0 0 0v-4.172h.834v.417c.416-.417.833-.417 1.25-.417.417 0 .417 0 .417.417 0 .418-.417.418-.417.418-.417 0-.834-.001-.834.417-.416.417-.416.834-.416.834v1.669c0 .417-.417.417-.834.417zm7.086-.417v-1.669c0-.417 0-.834-.417-.834 0-.418-.417-.417-.834-.417-.416 0-.416-.001-.833.417 0 .417-.417.417-.417.834v1.669c0 .417 0 .417-.417.417h-.417v-4.589h.834v.417c.417-.417.834-.417 1.25-.417.417 0 .834.417 1.251.834.417.418.417.835.417 1.669v1.669c0 .417 0 .417-.417.417v-.417zm2.501 0c-.417-.417-.834-.834-.834-1.669 0-.417.417-1.251.834-1.669.417-.417.833-.834 1.667-.834.417 0 1.251.417 1.667.834.417.418.834.835.834 1.669v2.086h-.417c-.417 0-.417 0-.417-.417-.416.417-.833.417-1.25.417-.834 0-1.667 0-2.084-.417zm2.501-.834c.417-.418.417-.418.417-.835s0-.834-.417-.834c-.417-.418-.417-.417-.834-.417s-.834-.001-.834.417c-.416.417-.416.417-.416.834s0 .835.416.835c.417.417.417.417.834.417s.834 0 .834-.417zm3.334 1.251c-.416-.417-.416 0 0 0v-4.172h.417c.417 0 .417 0 .417.417.417-.417.417-.417.834-.417.416 0 .833 0 1.25.417.417-.417.834-.417 1.251-.417.416 0 .833 0 1.25.417.417.418.417.835.417 1.252v2.503c0 .418 0 .418-.417.418h-.417v-3.338l-.417-.417s-.416-.001-.416.417l-.417.417v2.503c0 .418 0 .418-.417.418h-.417v-2.921c0-.417 0-.417-.417-.417l-.417-.417c-.416 0-.416-.001-.416.417l-.417.417v2.086c-.417.417-.834.417-1.251.417zm7.503-.417c-.417-.417-.834-.834-.834-1.669 0-.417.417-1.251.834-1.669.417-.417.834-.834 1.667-.834.417 0 1.251.417 1.668.834.417.418.833.835.833 1.669 0 .417 0 .417-.416.417h-2.918c0 .418.417.418.417.835.416 0 .416.417.833.417s.834 0 .834-.417h.834v.834l-.417.418h-.834c-1.25-.418-2.084-.418-2.501-.835zm2.918-2.086c0-.417-.417-.417-.417-.834-.417 0-.417-.418-.834-.418-.416 0-.416 0-.833.418-.417 0-.417.417-.417.834h2.501zm-33.346 24.199v-.417h-.834v-.834h.417-.417l-.416-.418V194h.833c0-.417.417-.417.417-.417.417 0 .417.417.417.417h.834v.835h-.417.417v.834h-.834v.417c.417 0 .417.418-.417 0 .417.418.417 0 0 0zm4.585 0c-.417 0-.417 0 0 0v-.417h-.833v-.834h.416-.416l-.417-.418V194h.833c0-.417.417-.417.417-.417.417 0 .417.417.417.417h.834v.835h-.417.417v.834H223v.417s0 .418-.417 0c0 .418 0 0 0 0zm4.168 0c-.416 0 0 0 0 0v-.417h-.833v-.834h.417-.417l-.417-.418V194h.834c0-.417.416-.417.416-.417.417 0 .417.417.417.417h.834v.835h-.417.417v.834h-.834v.417s0 .418-.417 0c0 .418 0 0 0 0zm4.169 0v-.417h-.834v-.834h.417-.417l-.417-.418V194h.834c0-.417.417-.417.417-.417.416 0 .416.417.416.417h.834v.835h-.417.417v.834h-.834v.417s0 .418-.416 0c0 .418 0 0 0 0zm4.168 0v-.417h-.834v-.834h.417-.417l-.417-.418V194h.834c0-.417.417-.417.417-.417.417 0 .417.417.417.417h.833v.835h-.417.417v.834h-.833v.417c.416 0 0 .418-.417 0 .417.418 0 0 0 0zm4.168 0v-.417h-.834v-.834h.417-.417l-.416-.418V194h.833c0-.417.417-.417.417-.417.417 0 .417.417.417.417h.834v.835h-.417.417v.834h-.834v.417c.417 0 0 .418-.417 0 .417.418.417 0 0 0zm4.585 0c-.417 0-.417 0 0 0v-.417h-.834v-.834h.417-.417l-.416-.418V194h.833c0-.417.417-.417.417-.417.417 0 .417.417.417.417h.834v.835h-.417.417v.834h-.834v.417s0 .418-.417 0c0 .418 0 0 0 0z" fill="#DBE8EC"/><path d="M252.594 224.459h-42.932c-3.335 0-6.253-2.921-6.253-6.259 0-3.338 2.918-6.259 6.253-6.259h42.932c3.335 0 6.253 2.921 6.253 6.259 0 3.338-2.918 6.259-6.253 6.259z" fill="#DD706F"/><path d="M259.264 93.862c0 15.438-12.505 27.956-27.928 27.956-15.422 0-27.927-12.518-27.927-27.956 0-15.438 12.505-27.955 27.927-27.955 15.423 0 27.928 12.517 27.928 27.955z" fill="#80A6F4"/><path d="M240.507 81.345c0 5.007-4.169 9.18-9.171 9.18-5.001 0-9.17-4.173-9.17-9.18s4.169-9.179 9.17-9.179c5.002 0 9.171 4.172 9.171 9.18zm-9.171 12.518c-7.919 0-15.422 2.92-21.257 7.927 3.334 8.345 11.254 14.604 21.257 14.604 9.587 0 17.924-5.842 21.258-14.604-5.835-4.59-13.338-7.927-21.258-7.927z" fill="#fff"/><path d="M220.916 241.566h-62.523v47.149h62.523c2.918 0 5.419-2.504 5.419-5.424v-36.3c0-2.921-2.501-5.425-5.419-5.425z" fill="#122030"/><path d="M223.417 239.062H113.376c-2.918 0-5.419 2.504-5.419 5.425v36.3c0 2.92 2.501 5.424 5.419 5.424h110.041c2.918 0 5.419-2.504 5.419-5.424v-36.3c0-3.338-2.501-5.425-5.419-5.425z" fill="#294878"/><path d="M172.981 256.586c0-.417.417-.834.834-.834h30.845c.417 0 .833.417.833.834 0 .418-.416.835-.833.835h-30.845c-.417.417-.834 0-.834-.835zm0 16.69c0-.417.417-.835.834-.835h30.845c.417 0 .833.418.833.835s-.416.834-.833.834h-30.845c-.417 0-.834-.417-.834-.834z" fill="#42628C"/><path d="M150.056 249.076h-32.095v27.121h32.095v-27.121z" fill="#fff"/><path d="M164.228 274.945c-2.501 0-4.585-2.086-4.585-4.59 0-2.503 2.084-4.589 4.585-4.589s4.585 2.086 4.585 4.589c.417 2.504-2.084 4.59-4.585 4.59zm0-16.69a4.587 4.587 0 004.585-4.589 4.588 4.588 0 00-4.585-4.59 4.588 4.588 0 00-4.585 4.59 4.587 4.587 0 004.585 4.589zm43.766 15.021c0-.417.417-1.252 1.251-1.252h2.918c.416 0 1.25.418 1.25 1.252 0 .417-.417 1.252-1.25 1.252h-2.918c-.417-.417-1.251-.835-1.251-1.252z" fill="#80A6F4"/><path d="M220.499 267.852c0 .417-.417.834-.834.834h-45.433c-.417 0-.834-.417-.834-.834 0-.418.417-.835.834-.835h45.433c.417-.417.834 0 .834.835z" fill="#42628C"/><path d="M207.994 256.587c0-.418.417-1.252 1.251-1.252h2.918c.416 0 1.25.417 1.25 1.252 0 .417-.417 1.251-1.25 1.251h-2.918c-.417 0-1.251-.417-1.251-1.251z" fill="#80A6F4"/><path d="M220.499 251.58c0 .417-.417.835-.834.835h-45.433c-.417 0-.834-.418-.834-.835s.417-.834.834-.834h45.433c.417-.418.834 0 .834.834z" fill="#42628C"/><path d="M304.28 37.952v2.504h-20.007c-2.084 0-4.168-1.67-4.168-4.173V20.011h6.669c9.587.417 17.506 8.345 17.506 17.941z" fill="#122030"/><path d="M285.94 38.787h41.266a3.737 3.737 0 003.751-3.755V11.666a3.737 3.737 0 00-3.751-3.755H285.94a3.737 3.737 0 00-3.751 3.755v23.366a3.737 3.737 0 003.751 3.755z" fill="#80A6F4"/><path d="M337.209 7.91c0 3.339-2.501 5.842-5.835 5.842-3.335 0-5.836-2.503-5.836-5.841s2.501-5.842 5.836-5.842c2.918 0 5.835 2.921 5.835 5.842z" fill="#DD706F"/><path d="M323.871 14.169l-17.09 10.848-17.089-10.848m28.344 12.517l5.835 4.59m-34.179 0l5.835-4.59" stroke="#3A609A" stroke-width=".438" stroke-miterlimit="10" stroke-linecap="round" stroke-linejoin="round"/><path d="M356.383 183.152c2.084-3.338 7.086-3.338 9.17 0l11.254 19.61 11.255 19.611c2.084 3.338-.417 7.927-4.585 7.927H338.46c-4.168 0-6.669-4.172-4.585-7.927l11.254-19.611 11.254-19.61z" fill="#fff"/><path d="M357.217 218.617c0-2.086 1.25-3.338 3.334-3.338 2.085 0 3.335 1.669 3.335 3.338 0 2.086-1.25 3.338-3.335 3.338-1.667 0-3.334-1.252-3.334-3.338zm.833-14.186v-5.007h5.836v5.007l-1.25 9.179h-3.752l-.834-9.179z" fill="#DD706F"/><path d="M2.5 141.427c0-.417-.416-.417-.416-.417H0v2.503c.417.417.417.417.834.417.416 0 .833 0 .833-.417v-1.252c.834-.417.834-.417.834-.834 0 .417 0 .417 0 0zm12.089 0c0-.417-.417-.417-.417-.417h-.834c-.416 0-.833 0-1.25.417v2.503c.417.418.417.418.834.418.416 0 .833 0 .833-.418v-1.251c.834-.835.834-.835.834-1.252 0 .417 0 .417 0 0zm12.088 0c0-.417-.417-.417-.417-.417-.417-.417-.834-.417-1.25-.417h-.834v2.503c.417.417.417.417.833.417.417 0 .834 0 .834-.417v-1.252c.834 0 .834 0 .834-.417 0 .417 0 .417 0 0zm12.087 0c-.416 0-.416 0 0 0 0-.417-.416-.417-.416-.417h-2.084v2.503c.416.417.416.417.833.417s.834 0 .834-.417v-1.252c.834-.417.834-.417.834-.834 0 .417 0 .417 0 0zm11.671 0c0-.417-.416-.417-.416-.417-.417-.417-.834-.417-1.25-.417h-.834v2.503c.416.417.416.417.833.417s.834 0 .834-.417v-1.252c1.25 0 1.25 0 .834-.417.416.417.416.417 0 0zm10.005 1.252c0 .417.416.417.416.417.417.417.417.417.834.417h1.25v-2.503h-.834c-.416 0-.833 0-1.25.417v1.252c-.834-.418-.834-.418-.417 0 0 0-.417-.418 0 0zM2.5 153.527c0-.417-.416-.417-.416-.417-.417-.417-1.25-.417-1.667 0v1.252c0 .417 0 .834.417.834h2.501v-1.252c-.834 0-.834 0-.834-.417 0 .417 0 .417 0 0zm12.089.001c0-.418-.417-.418-.417-.418h-.834c-.416 0-.833 0-1.25.418v2.503h2.501c.417-.417.417-.417.417-.834-.417-1.252-.417-1.252-.417-1.669 0 .417 0 .417 0 0zm12.088-.001c0-.417-.417-.417-.417-.417-.417-.418-.834-.418-1.25-.418h-.834v1.252c0 .417 0 .835.417.835.416.417.416.417.833.417h1.251v-1.669c0 .417 0 .417 0 0zm12.087.001c-.416 0-.416 0 0 0 0-.418-.416-.418-.416-.418h-.834c-.417 0-.834 0-1.25.418v2.503h2.5v-2.503c0 .417 0 .417 0 0zm11.671 0c0-.418-.416-.418-.416-.418h-.834c-.417 0-.834 0-1.25.418v2.503h2.5c.417-.417.417-.417.417-.834 0-1.252 0-1.252-.416-1.669.416.417.416.417 0 0zm12.088-.001c0-.417-.417-.417-.417-.417-.416-.418-.833-.418-1.25-.418h-.834v1.252c0 .417 0 .835.417.835.417.417.417.417.834.417h1.25v-1.252c.417 0 .417 0 0-.417 0 .417 0 .417 0 0zM2.5 165.627c0-.417-.416-.417-.416-.417H0v2.503c.417.418.417.418.834.418h1.25v-1.252c.417-.835.417-.835.417-1.252 0 .417 0 0 0 0zm12.089 0c0-.417-.417-.417-.417-.417h-2.084v2.503h1.25c.417 0 .834 0 .834-.417v-1.252c.417 0 .417 0 .417-.417 0 .417 0 0 0 0zm12.088 0c0-.417-.417-.417-.417-.417h-2.084v2.503h2.501v-2.086c0 .417 0 0 0 0zm12.087 0c-.416 0-.416 0 0 0 0-.417-.416-.417-.416-.417h-2.084v2.503h1.25c.417 0 .834 0 .834-.417v-1.252c.416 0 .416 0 .416-.417 0 .417 0 0 0 0zm11.671 0c0-.417-.416-.417-.416-.417h-2.084v2.503h2.5v-1.251c.417-.418.417-.418 0-.835.417.417.417 0 0 0zm12.088 0c0-.417-.417-.417-.417-.417h-2.084v2.503h1.251c.417 0 .833 0 .833-.417v-1.252c.834 0 .834 0 .417-.417 0 .417 0 0 0 0zM2.5 177.727c0-.417-.416-.417-.416-.417-.417-.417-1.25-.417-1.667 0v2.503c.417.418.417.418.833.418.417 0 .834 0 .834-.418v-1.251c.417-.418.417-.418.417-.835 0 .417 0 0 0 0zm12.089 0l-.417-.417c-.417-.417-1.25-.417-1.667 0v2.503c.416.418.416.418.833.418s.834 0 .834-.418v-1.251c.417-.418.417-.418.417-.835 0 .417 0 0 0 0zm12.088 0l-.417-.417c-.417-.417-.834-.417-1.25-.417h-.834v2.503c.417.417.417.417.833.417h1.251v-1.251c.417-.418.417-.418.417-.835 0 .417 0 0 0 0zm12.087 0c-.416 0-.416 0 0 0l-.416-.417c-.417-.417-1.25-.417-1.668 0v2.503c.417.418.417.418.834.418s.834 0 .834-.418v-1.251c.416-.418.416-.418.416-.835 0 .417 0 0 0 0zm11.671 0c0-.417-.416-.417-.416-.417h-.834c-.417 0-.834 0-1.25.417v2.503c.416.418.416.418.833.418h1.251v-1.252c.833-1.252.833-1.252.416-1.669.417.417.417 0 0 0zm12.088 0v-.417c-.417-.417-1.25-.417-1.667 0v2.503c.417.418.417.418.834.418.416 0 .833 0 .833-.418v-1.251c.417-.418.417-.418 0-.835 0 .417 0 0 0 0zM2.5 189.827c0-.417-.416-.417-.416-.417-.417-.418-1.25-.418-1.667 0v1.251c0 .418 0 .835.417.835h2.501c.416-.417.416-.417.416-.835-1.25-.417-1.25-.417-1.25-.834zm12.089 0c0-.417-.417-.417-.417-.417h-.834c-.416 0-.833 0-1.25.417v1.252c0 .417 0 .835.417.835.416.417.416.417.833.417h1.251c.417-.417.417-.417.417-.835-.417-1.251-.417-1.251-.417-1.669zm12.088 0c0-.417-.417-.417-.417-.417h-.834c-.417 0-.833 0-1.25.417v1.252c0 .417 0 .835.417.835h2.5c.417-.418.417-.418.417-.835-.833-.834-.833-.834-.833-1.252zm12.087.001c-.416 0-.416 0 0 0 0-.418-.416-.418-.416-.418-.417-.417-.834-.417-1.25-.417h-.834v1.252c0 .417 0 .834.416.834.417.418.417.418.834.418s.834 0 .834-.418c.416-.417.416-.417.416-.834v-.417zm11.671-.001c0-.417-.416-.417-.416-.417-.417-.418-1.25-.418-1.668 0v1.251c0 .418 0 .835.417.835h2.502c.417-.417.417-.417.417-.835-.834-.417-.834-.417-1.25-.834.416 0 .416 0 0 0zm12.088 0c0-.417-.417-.417-.417-.417h-.833c-.417 0-.834 0-1.25.417v1.252c0 .417 0 .835.416.835.417.417.417.417.834.417h1.25c.417-.417.417-.417.417-.835 0-1.251 0-1.251-.417-1.669zm323.038 66.342c0-.417-.417-.417-.417-.417h-2.084v2.503c.417.418.417.418.833.418.417 0 .834 0 .834-.418v-1.251c1.251-.418 1.251-.418.834-.835 0 .417 0 .417 0 0zm12.088 0c0-.417-.417-.417-.417-.417h-.834c-.417 0-.834 0-1.25.417v2.504c.416.417.416.417.833.417s.834 0 .834-.417v-1.252c.834-.835.834-.835.834-1.252 0 .417 0 .417 0 0zm12.087 0c0-.417-.416-.417-.416-.417-.417-.417-.834-.417-1.251-.417h-.833v2.503c.416.418.416.418.833.418s.834 0 .834-.418v-1.251c.833 0 .833 0 .833-.418 0 .418 0 .418 0 0zm12.088 0c0-.417-.417-.417-.417-.417h-2.084v2.503c.417.418.417.418.834.418s.834 0 .834-.418v-1.251c.833-.418.833-.418.833-.835 0 .417 0 .417 0 0zm12.088 0c0-.417-.417-.417-.417-.417-.416-.417-.833-.417-1.25-.417h-.834v2.503c.417.418.417.418.834.418s.834 0 .834-.418v-1.251c.833 0 .833 0 .833-.418 0 .418 0 .418 0 0zm9.587 1.252c0 .417.417.417.417.417.417.417.417.417.833.417H446v-2.503h-.834c-.416 0-.833 0-1.25.417v1.252c-.417-.417-.417-.417-.417 0 0-.417 0-.417 0 0zm-57.938 10.848c0-.417-.417-.417-.417-.417-.417-.417-1.251-.417-1.667 0v1.252c0 .417 0 .834.416.834h2.501v-1.252c-.416 0-.416.001-.833-.417 0 .418 0 0 0 0zm12.088.001c0-.417-.417-.417-.417-.417h-.834c-.417 0-.834 0-1.25.417v2.503h2.501c.416-.417.416-.417.416-.834-.416-1.252-.416-1.252-.416-1.669 0 .417 0 0 0 0zm12.087-.001c0-.417-.416-.417-.416-.417-.417-.417-.834-.417-1.251-.417h-.833v1.251c0 .418 0 .835.416.835.417.417.417.417.834.417h1.25v-1.669c0 .417 0 0 0 0zm12.088.001c0-.417-.417-.417-.417-.417h-.833c-.417 0-.834 0-1.251.417v2.503h2.501v-2.503c0 .417 0 0 0 0zm12.088 0c0-.417-.417-.417-.417-.417h-.833c-.417 0-.834 0-1.251.417v2.503h2.501c.417-.417.417-.417.417-.834-.417-1.252-.417-1.252-.417-1.669 0 .417 0 0 0 0zm12.088-.001c0-.417-.417-.417-.417-.417-.417-.417-.834-.417-1.25-.417h-.834v1.251c0 .418 0 .835.417.835.417.417.417.417.833.417H446v-1.669c0 .417 0 0 0 0zm-60.439 12.1c0-.417-.417-.417-.417-.417h-2.084v2.504c.417.417.417.417.833.417h1.251v-1.252c0-.417.834-.834.417-1.252zm12.088 0c0-.417-.417-.417-.417-.417h-2.084v2.504h1.25c.417 0 .834 0 .834-.418v-1.251c0-.418.417 0 .417-.418zm12.087 0c0-.417-.416-.417-.416-.417h-2.084v2.504h2.5v-2.087zm12.088 0c0-.417-.417-.417-.417-.417h-2.084v2.504h1.251c.417 0 .833 0 .833-.418v-1.251c0-.418.417 0 .417-.418zm12.088 0c0-.417-.417-.417-.417-.417h-2.084v2.504h2.501v-2.087zm12.088 0c0-.417-.417-.417-.417-.417h-2.084v2.504h1.25c.417 0 .834 0 .834-.418v-1.251c0-.418.417 0 .417-.418z" fill="#CFEDFE"/><path d="M172.981 64.655v79.276c0 2.921-2.501 5.424-5.418 5.424h-9.587V59.648h9.587c3.334 0 5.418 2.087 5.418 5.007z" fill="#122030"/><path d="M34.596 146.017h136.301c2.918 0 5.419-2.503 5.419-5.424V61.735c0-2.921-2.501-5.425-5.419-5.425h-136.3c-2.919 0-5.42 2.504-5.42 5.425v78.858c.417 3.338 2.502 5.424 5.42 5.424z" fill="#80A6F4"/><path d="M176.316 69.245H29.594v22.531h146.722v-22.53z" fill="#294878"/><path d="M146.721 119.731a11.213 11.213 0 01-11.254 11.266 11.213 11.213 0 01-11.254-11.266 11.213 11.213 0 0111.254-11.265 11.212 11.212 0 0111.254 11.265z" fill="#fff"/><path d="M152.557 130.997c6.216 0 11.254-5.044 11.254-11.266 0-6.221-5.038-11.265-11.254-11.265-6.216 0-11.254 5.044-11.254 11.265 0 6.222 5.038 11.266 11.254 11.266zm-61.69-15.021H45.85a3.738 3.738 0 01-3.75-3.755 3.738 3.738 0 013.75-3.755h45.434a3.738 3.738 0 013.751 3.755c-.416 2.086-2.084 3.755-4.168 3.755zm-23.342 11.683a3.738 3.738 0 00-3.751-3.755H45.85a3.738 3.738 0 00-3.75 3.755 3.738 3.738 0 003.75 3.755h18.34c1.668 0 3.335-1.669 3.335-3.755z" fill="#CEE1FE"/><g opacity=".2" fill="#5872E2"><path opacity=".2" d="M143.804 171.469c.417-.834.833-2.086.833-3.338a7.475 7.475 0 00-7.502-7.51 7.475 7.475 0 00-7.503 7.51c0 1.252.417 2.504.833 3.338-.416.418-.833 1.252-.833 2.087 0 1.669 1.25 2.92 2.918 2.92h.833v1.252c0 .834.834 1.252 1.251 1.252h5.418c.834 0 1.251-.835 1.251-1.252v-1.252h.833c1.668 0 2.918-1.251 2.918-2.92-.417-.835-.833-1.669-1.25-2.087zm-9.587 1.669c-1.251 0-2.084-.834-2.084-2.086 0-1.252.833-2.086 2.084-2.086 1.25 0 2.084.834 2.084 2.086 0 1.252-.834 2.086-2.084 2.086zm3.334 2.087h-1.25c-.417 0-.417-.418-.417-.418l.834-1.251h.417l.833 1.251c0 .418 0 .418-.417.418zm2.085-2.087c-1.251 0-2.085-.834-2.085-2.086 0-1.252.834-2.086 2.085-2.086 1.25 0 2.084.834 2.084 2.086 0 1.252-.834 2.086-2.084 2.086zm9.17 5.425c-.417-.835-1.668-1.669-2.501-1.252-.834.417-1.668 1.252-1.251 2.504l-17.506 6.258c-.417-.834-1.668-1.251-2.501-.834-.834.417-1.668 1.669-1.251 2.503 0 .417.417.835.834 1.252v1.252c.417.834 1.667 1.669 2.501 1.251.833-.417 1.667-1.251 1.25-2.503l17.507-6.259c.417.835 1.667 1.252 2.501.835.833-.417 1.667-1.669 1.25-2.504 0-.417-.417-.834-.833-1.251.416-.418.416-.835 0-1.252z"/><path opacity=".2" d="M125.047 178.563c.417-.835 1.667-1.669 2.501-1.252.833.417 1.667 1.252 1.25 2.504l17.507 6.258c.416-.834 1.667-1.251 2.501-.834.833.417 1.667 1.669 1.25 2.503 0 .417-.417.835-.834 1.252v1.252c-.416.834-1.667 1.669-2.5 1.251-.834-.417-1.668-1.251-1.251-2.503l-17.507-6.259c-.416.835-1.667 1.252-2.5.835-.834-.417-1.668-1.669-1.251-2.504 0-.417.417-.834.834-1.251v-1.252z"/></g><path opacity=".2" d="M326.789 199.007c0-3.755-3.335-7.093-7.086-7.093-3.752 0-7.086 2.921-7.086 6.676v.417c0 1.252.417 2.504.833 3.755l-1.25 3.755 4.168-1.251c.834.417 2.084.834 3.335.834 4.168.417 7.086-2.92 7.086-7.093 0 .417 0 0 0 0zm-7.086 6.259c-1.251 0-2.501-.417-3.335-.835l-2.501.835.834-2.086c-.834-.835-1.251-2.087-1.251-3.338v-.418c.417-2.92 2.918-5.424 5.836-5.424 3.335 0 5.835 2.504 6.252 5.424v.418c.417 2.92-2.501 5.424-5.835 5.424zm3.334-4.173v.835c0 .417-.833.834-1.25.834-.417 0-.417.418-2.084-.417-1.668-.834-2.918-2.503-2.918-2.503s-.417-.418-.834-1.252v-.417c0-.835.417-1.252.417-1.669l.417-.418h.417s.417 0 .417.418c0 .417.417 1.251.417 1.251v.418s-.001.417-.417.417v.417s.417.835.833 1.252c.834.417 1.251.834 1.251.834h.417s.416-.417.416-.834h.417c.834 0 1.668.417 2.084.834 0 0 0-.417 0 0zm1.251-138.524c-.417-.418-.417-.418 0 0h-2.501c-.417 0-1.251-.418-1.667-.418-.417 0-.834-.417-1.251-.834h-.417c.834 0 1.668 0 2.501-.417l2.501-1.252c-2.084 0-2.918-1.669-3.334-2.503h1.667c-.417 0-.834-.418-.834-.418-.417 0-.417-.417-.833-.834-.417-.417-.417-.417-.417-.835 0-.417-.417-.834-.417-1.251h1.667c-.417 0-.417-.418-.833-.418-.417-.417-.417-.417-.417-.834s-.417-.834-.417-1.252v-.834c0-.418 0-.835.417-1.252l.833.834c.834.835 1.251 1.252 2.085 1.67.416.417 1.25.417 1.667.834.417 0 .833.417 1.25.417h.834V51.72c0-.417 0-.834.417-1.251 0-.418.417-.835.833-.835.417-.417.417-.417.834-.417s.834-.417 1.251-.417h.833c.417 0 .417 0 .834.417.417 0 .833.417.833.834h.417c.417 0 .834-.417 1.251-.417h.417c0 .417-.417.835-.834 1.252 0 .417-.417.417-.834.417h.417c.417 0 .834-.417 1.251-.417-.417.417-.834 1.252-1.668 1.669v1.252c0 .834-.417 1.669-.417 2.503-.416 1.252-1.25 2.504-2.084 3.755-.833.835-1.667 1.67-2.917 2.087-.834.417-2.084.834-2.918.834.834-.834.834-.834 0-.417 0-.418 0-.418 0 0z" fill="#5872E2"/><g opacity=".2" fill="#5872E2"><path opacity=".2" d="M115.043 42.541l-7.503-7.51.417-.417-.834-.835c2.084-3.755 1.668-8.345-1.25-11.265-3.752-3.755-9.587-3.755-12.922 0-3.751 3.755-3.751 9.596 0 12.934 2.918 2.92 7.92 3.338 11.255 1.252l.833.834.417-.417 7.503 7.51c.417.418 1.667.418 2.084 0 .834-.417.834-1.251 0-2.086zM94.202 33.78c-2.918-2.92-2.918-7.093 0-10.014 2.918-2.92 7.086-2.92 10.004 0 2.917 2.921 2.917 7.093 0 10.014-2.918 2.92-7.086 2.92-10.004 0z"/><path opacity=".2" d="M99.204 23.348c-1.25 0-2.918.417-3.752 1.669-.416.417-.416.417 0 .834.417.417.417.417.834 0 .834-.834 1.667-1.252 2.918-1.252 1.25 0 2.084.418 2.917 1.252h.834c.417-.417.417-.417 0-.834-.834-.835-2.084-1.67-3.751-1.67z"/></g><path d="M175.482 20.428c-9.587 0-17.506 7.927-17.506 17.524v12.1h25.426c.834 0 1.667-.835 1.667-1.67V20.429h-9.587z" fill="#122030"/><path d="M186.32 47.548h-45.017c-.834 0-1.667-.834-1.667-1.669V11.25c0-.835.833-1.67 1.667-1.67h45.017c.833 0 1.667.835 1.667 1.67v34.63c0 .835-.834 1.67-1.667 1.67z" fill="#DD706F"/><path d="M157.976 20.01h-9.587c-.834 0-1.668-.835-1.668-1.67 0-.834.834-1.668 1.668-1.668h9.587c.833 0 1.667.834 1.667 1.669 0 1.252-.834 1.669-1.667 1.669zm21.258 20.862h-17.507c-.834 0-1.667-.834-1.667-1.669 0-.834.833-1.669 1.667-1.669h17.507c.833 0 1.667.835 1.667 1.67 0 .834-.834 1.668-1.667 1.668z" fill="#B75B5A"/><path d="M179.234 25.434h-30.845c-.834 0-1.668-.835-1.668-1.67 0-.834.834-1.668 1.668-1.668h30.845c.833 0 1.667.834 1.667 1.669 0 1.251-.834 1.669-1.667 1.669zm-23.342 5.841h-7.503c-.834 0-1.668-.834-1.668-1.668 0-.835.834-1.67 1.668-1.67h7.503c.833 0 1.667.835 1.667 1.67 0 .834-.417 1.668-1.667 1.668z" fill="#fff"/><path d="M161.31 31.275h-.833c-.834 0-1.668-.834-1.668-1.668 0-.835.834-1.67 1.668-1.67h.833c.834 0 1.668.835 1.668 1.67 0 .834-.834 1.668-1.668 1.668z" fill="#F4D75D"/><path opacity=".2" d="M93.368 278.7c-4.168 0-7.92 3.338-7.92 7.928 0 4.172 3.335 7.927 7.92 7.927s7.92-3.338 7.92-7.927c0-4.59-3.751-7.928-7.92-7.928zm6.253 7.093H97.12c0-1.669-.417-3.338-.834-5.007 1.25.835 2.918 2.504 3.335 5.007zm-6.253 7.093c-.417 0-1.667-1.669-1.667-5.424h3.335c0 3.338-1.25 5.424-1.668 5.424zm-1.667-7.093c0-3.338 1.25-5.424 1.667-5.424.417 0 1.668 1.669 1.668 5.424H91.7zm-.834-5.007a15.58 15.58 0 00-.833 5.007h-2.501c0-2.503 1.25-4.172 3.334-5.007zm-3.751 6.676h2.5c0 1.669.418 3.338.835 5.007-1.668-1.252-2.918-2.921-3.335-5.007zm8.753 4.59a15.58 15.58 0 00.834-5.007h2.5c0 2.503-1.666 4.172-3.334 5.007z" fill="#5872E2"/><path d="M277.604 106.379C277.604 88.021 292.609 73 310.95 73c18.34 0 33.345 15.02 33.345 33.379 0 18.359-15.005 33.38-33.345 33.38-2.501 0-5.002-.418-7.503-.835l-8.754 8.762v-12.1c-10.003-5.841-17.089-16.689-17.089-29.207z" fill="#fff"/><path d="M318.869 124.321c-5.002 2.086-10.837 2.086-15.839 0-3.335-1.252-5.419-4.59-5.419-7.928V99.286h27.094v17.107c0 3.338-2.501 6.676-5.836 7.928z" fill="#CEE1FE"/><path d="M317.619 115.559l-2.918 2.92-3.751-3.338-3.335 3.338-3.335-2.92 3.752-3.338-3.752-3.755 3.335-2.921 3.335 3.338 3.751-3.338 2.918 2.921-3.335 3.755 3.335 3.338zm3.334-16.69h-4.585v-8.763c0-1.251-.833-2.086-2.084-2.086h-6.252c-1.251 0-2.084.835-2.084 2.087v4.59h-4.585v-4.59c0-3.756 2.917-6.676 6.669-6.676h6.252c3.752 0 6.669 2.92 6.669 6.675v8.763z" fill="#80A6F4"/><path d="M304.28 279.535v-27.121h-1.667c-7.503 0-13.755 6.259-13.755 13.769s6.252 13.769 13.755 13.769c.417-.417 1.251-.417 1.667-.417z" fill="#122030"/><path d="M318.036 264.097c0 7.51-6.253 13.769-13.756 13.769-7.502 0-13.755-6.259-13.755-13.769s6.253-13.769 13.755-13.769c7.503 0 13.756 6.259 13.756 13.769z" fill="#DD706F"/><path d="M306.781 264.097l3.335-3.338c.834-.834.834-2.086 0-2.503-.834-.835-2.084-.835-2.501 0l-3.335 3.338-3.334-3.338c-.834-.835-2.084-.835-2.501 0-.834.834-.834 2.086 0 2.503l3.334 3.338-3.334 3.338c-.834.835-.834 2.086 0 2.503.417.418.834.418 1.25.418.417 0 .834 0 1.251-.418l3.334-3.337 3.335 3.337c.417.418.834.418 1.25.418.417 0 .834 0 1.251-.418.834-.834.834-2.086 0-2.503l-3.335-3.338zM67.525 34.197v-2.504l-2.5-.417c0-.834-.418-1.669-.834-2.086l1.667-2.086-2.084-2.086-2.084 1.669c-.834-.418-1.25-.835-2.084-.835l-.417-2.503h-2.501l-.417 2.503c-.834 0-1.667.417-2.084.835l-2.084-1.67-2.084 2.087 1.667 2.086c-.417.834-.834 1.252-.834 2.086l-2.5.418v2.503l2.5.417c0 .835.417 1.67.834 2.086l-1.667 2.087 2.084 2.086 2.084-1.67c.834.418 1.25.835 2.084.835l.417 2.504h2.5l.418-2.504c.833 0 1.667-.417 2.084-.834l2.084 1.669 2.084-2.086-1.667-2.087c.416-.834.833-1.251.833-2.086l2.501-.417zm-9.587 2.086c-1.667 0-2.917-1.252-2.917-2.92 0-1.67 1.25-2.921 2.917-2.921 1.668 0 2.918 1.252 2.918 2.92 0 1.252-1.25 2.921-2.918 2.921zm24.176-21.279v-3.338l-3.335-.418c-.416-.834-.416-2.086-1.25-2.92l2.084-2.504-2.5-2.503-2.502 2.086c-.833-.417-1.667-.834-2.918-1.252L71.278.817h-3.335l-.417 3.338c-.833.418-2.084.418-2.918 1.252l-2.5-2.086-2.501 2.503 2.084 2.504c-.417.834-.834 1.669-1.25 2.92l-3.335.418v3.338l3.334.417c.417.834.417 2.086 1.25 2.92l-2.083 2.504 2.5 2.503 2.502-2.086c.833.417 1.667.835 2.917 1.252l.417 3.338h3.335l.416-3.338c.834-.417 2.085-.417 2.918-1.252l2.501 2.086 2.501-2.503-2.084-2.503c.417-.835.834-1.67 1.25-2.921l3.335-.417zm-12.505 2.503c-2.084 0-4.168-1.669-4.168-4.172 0-2.087 1.667-4.173 4.168-4.173 2.085 0 4.169 1.67 4.169 4.173-.417 2.503-2.085 4.172-4.169 4.172z" fill="#fff"/><path d="M83.781 219.452c.834 0 2.084 0 2.918-.418-4.168-5.841-10.004-10.848-17.09-13.351.417 7.51 6.67 13.769 14.172 13.769z" fill="#122030"/><path d="M132.966 199.841H99.204c-1.668-6.258-7.086-10.848-13.755-10.848-7.92 0-14.172 6.259-14.172 14.186 0 7.928 6.252 14.187 14.172 14.187 6.669 0 12.087-4.59 13.755-10.849h16.256v4.173c0 .834.833 1.669 1.667 1.669h5.836c.833 0 1.667-.835 1.667-1.669h3.334v.417c0 .834.834 1.669 1.668 1.669.833 0 1.667-.835 1.667-1.669v-4.172h1.251c.833 0 1.25-.835 1.25-1.252v-4.173c.834-1.251 0-1.669-.834-1.669zm-47.1 10.431c-3.752 0-7.087-3.337-7.087-7.093 0-3.755 3.335-7.093 7.086-7.093 3.752 0 7.086 3.338 7.086 7.093-.416 4.173-3.334 7.093-7.086 7.093z" fill="#fff"/><path d="M329.29 171.886c0 6.259 3.334 12.1 8.336 15.438l.834-.834c7.919-8.762 10.42-20.445 7.919-31.711 0-.834-.416-1.251-.416-1.669-9.17 1.669-16.673 9.18-16.673 18.776z" fill="#122030"/><path d="M349.714 189.41c10.359 0 18.757-8.406 18.757-18.776 0-10.369-8.398-18.776-18.757-18.776-10.359 0-18.757 8.407-18.757 18.776 0 10.37 8.398 18.776 18.757 18.776z" fill="#DD706F"/><path d="M351.381 178.562v3.338h-2.917v-3.338c-2.085-.417-4.169-1.252-5.419-2.504l1.667-2.92c1.667 1.251 3.752 2.503 5.419 2.503 1.25 0 2.084-.417 2.084-1.252 0-2.503-7.92-.834-7.92-6.258 0-2.504 1.668-4.173 4.585-4.59v-3.338h2.918v3.338c1.667 0 3.335.835 4.585 1.669l-1.667 3.338c-1.667-.835-3.752-1.669-5.002-1.669-.834 0-1.667.417-1.667.834 0 2.504 7.919 1.252 7.919 6.676.417 2.087-1.667 3.756-4.585 4.173z" fill="#fff"/><path d="M83.781 144.766c0 6.259 3.335 12.1 8.337 15.438l.833-.834c7.92-8.763 10.421-20.445 7.92-31.711 0-.834-.417-1.252-.417-1.669-9.587 1.252-16.673 9.18-16.673 18.776z" fill="#122030"/><path d="M103.789 162.29c10.359 0 18.757-8.406 18.757-18.776 0-10.369-8.398-18.776-18.757-18.776-10.36 0-18.757 8.407-18.757 18.776 0 10.37 8.398 18.776 18.757 18.776z" fill="#DD706F"/><path d="M105.456 151.025v3.338h-2.918v-3.338c-2.084-.418-4.168-1.252-5.418-2.504l1.667-2.92c1.667 1.251 3.751 2.503 5.419 2.503 1.25 0 2.084-.417 2.084-1.252 0-2.503-7.92-.834-7.92-6.258 0-2.504 1.667-4.173 4.585-4.59v-3.338h2.918v2.921c1.667 0 3.334.834 4.585 1.669l-1.667 3.338c-1.668-.835-3.752-1.669-5.002-1.669-.834 0-1.667.417-1.667.834 0 2.504 7.919 1.252 7.919 6.676.417 2.503-1.667 4.172-4.585 4.59z" fill="#fff"/><defs><linearGradient id="paint0_linear_24_1335" x1="231.234" y1="-7.864" x2="231.234" y2="333.797" gradientUnits="userSpaceOnUse"><stop stop-color="#fff"/><stop offset=".265" stop-color="#F5F7FC"/><stop offset=".714" stop-color="#DAE3F4"/><stop offset="1" stop-color="#C6D4EE"/></linearGradient></defs></svg>