<svg xmlns="http://www.w3.org/2000/svg" viewBox="0 0 252.23 252.23"><path d="M251.276 172.678c.181-.341.38-.666.549-1.017.481-.995-.836-1.755-1.473-.861-11.199 15.74-32.491 17.511-42.486.207-4.307-7.458-5.853-16.007-10.457-23.277-5.326-8.409-13.325-13.222-22.691-15.255 34.556-46.338 7.19-122.278-55.364-122.412-19.719-.042-36.349 7.467-48.762 19.234-3.015 1.231-5.74 3.61-7.678 5.958-1.793 2.173-3.906 5.54-4.337 8.76-14.832 23.645-17.255 55.456-2.103 81.428-17.06-1.814-30.398 10.578-32.583 27.622-1.416 11.036 2.695 21.949-.675 32.966-2.971 9.71-10.593 15.811-15.841 24.012-6.098 9.531-9.522 17.454-5.886 28.462.385 1.167 1.789 1.032 2.221.182.246-.026.476-.123.61-.389 9.512-19.015 30.551-20.179 45.079-33.175 15.434-13.806 9.01-44.18 28.814-52.935 1.313 5.992 4.815 11.866 7.839 18.329 7.807 16.682.953 28.365-.944 44.192-.827 6.896.092 11.093 4.234 16.676.716.965 1.988.778 2.566.081l.039-.01c.579-.18.591-.899.176-1.186-.041-.137-.07-.273-.159-.417-.027-.044-.043-.089-.069-.133 1.384-2.019 10.965-11.164 11.371-11.497 4.073-3.336 8.455-6.338 12.269-9.988 4.725-4.523 8.877-9.575 11.16-15.763 1.254-3.4 1.618-6.515 1.397-9.447.293 2.51.766 4.854 1.645 6.858 7.956 18.164 23.63 26.855 14.734 50.241-.162.425-.037.798.208 1.084.043.617.662 1.205 1.408.85 12.757-6.076 22.659-16.841 23.911-31.49 1.776-20.78-18.6-32.504-13.688-53.539 7.531 1.405 19.292 16.179 21.747 22.2 1.327 3.254 1.95 6.773 3.362 10.027 1.493 3.444 3.279 6.88 5.536 9.891 6.497 8.666 15.851 13.652 26.725 13.933 22.353.577 37.673-18.162 38.55-39.364.023-.589-.449-.959-.954-1.038zm-134.397-24.539c13.229 5.349 9.771 22.325 11.204 34.811-.97-12.268-12.112-21.373-11.204-34.811zm88.931 60.54c-18.609-5.721-21.21-23.091-26.804-38.592-4.007-11.105-11.533-16.341-23.007-15.199-.695-.546-1.907-.459-2.26.653-1.463 4.605-2.045 8.992-1.658 13.287-.397-1.131-1.186-2.107-2.066-2.968-.66-.645-1.797-.849-2.602-.336-1.287.82-1.961 2.115-2.085 3.452-.211.942-.192 1.915.254 2.826.726 1.483 2.328 2.439 3.978 2.116 1.602-.314 2.656-1.747 2.779-3.339.565 3.7 1.821 7.349 3.915 11.022.491.861.983 1.694 1.474 2.527-1.79-1.489-4.261-2.87-6.253-1.655-2.479 1.513-1.598 5.075-.648 7.237a13.164 13.164 0 002.457 3.692c1.364 1.856 3.343 3.782 5.511 4.076 2.659.36 3.994-2.169 3.888-4.494 2.382 4.812 4.03 9.821 3.794 16.037-.088-.119-.149-.252-.254-.363a3.25 3.25 0 00-1.82-.985 3.032 3.032 0 00-2.418-.593c-.028.005-.045.022-.073.027-.524-.376-1.242-.392-1.64.382-1.313 2.548-2.092 6.563-1.208 9.372.764 2.428 2.926 2.49 4.691 1.54.43-.148.826-.389 1.182-.721-2.839 8.772-9.219 15.726-17.079 20.924 8.876-22.056-10.837-34.97-16.026-55.28-3.068-12.005 2.488-35.183-15.11-37.439-.684-.977-2.698-.984-2.95.456-3.271 18.666 18 29.798 6.787 49.229-6.831 11.838-24.204 19.079-30.14 31.145-4.826-12.156 3.974-25.491 4.132-38.044.481.4.987.777 1.535 1.107 1.266.766 2.61-.031 3.094-1.258 1.1-2.793.937-5.893-.249-8.635-.958-2.214-3.176-5.431-5.879-5.405-.44.004-.813.086-1.138.218a1.412 1.412 0 00-.657.198c-3.379-8.04-8.34-16.266-9.818-24.408.403-.677.246-1.575-.304-2.1-.395-3.873.077-7.721 2.054-11.511.584-1.119-.983-2.022-1.684-.984-3.062 4.541-4.035 8.745-3.787 12.835-21.605 7.671-15.429 37.42-29.336 52.082-13.611 14.35-36.347 15.78-44.846 34.939-1.558-11.908 4.911-20.921 11.533-29.957a13.675 13.675 0 00-1.579 4.945c-.189 1.628 1.85 2.431 3.076 1.766 3.255-1.765 5.05-5.137 5.194-8.771.014-.347-.106-.663-.259-.958.024-.899-1.11-1.737-2.094-1.269-.024.011-.039.031-.063.043-.316.024-.635.074-.92.27a8.633 8.633 0 00-1.189.999c2.793-3.864 5.464-7.787 7.393-12.001.428.441 1.034.753 1.913.849 2.412.264 4.654-1.47 5.83-3.441 1.187-1.99 2.228-5.462 1.436-7.741-.664-1.909-2.318-2.534-3.91-2.141-.435-.159-.949-.103-1.375.305-.268.256-.595.641-.949 1.118.474-5.528-.239-11.033-.252-16.633-.008-3.562.325-6.944.974-10.116 2.145.303 4.944-.885 6.57-2.132 4.758-3.649 7.992-8.832 9.459-14.62.16-.631.017-1.432-.384-2.018.009-.012.021-.013.03-.026l.242-.375c.33-.511.156-1.127-.201-1.556-.279-.334-.62-.531-.97-.706 4.082-2.271 8.931-3.718 14.607-4.108a75.514 75.514 0 003.078 4.541c.831 1.135 2.64.158 1.926-1.126-12.91-23.211-17.891-49.509-6.768-74.522 1.129-2.539 2.445-4.996 3.878-7.388 2.285 2.745 6.745 1.117 9.544-.657a24.9 24.9 0 009.683-11.535c1.245-3.034 1.295-6.785-1.75-7.648 11.182-8.826 24.891-14.417 39.258-14.831 4.165-.12 8.311.196 12.391.863-.586.895-.806 2.065-.195 3.403 2.29 5.01 9.414 8.009 14.549 8.364 3.434.238 6.779-1.701 7.098-4.434 10.698 5.777 19.879 14.349 26.067 24.977 16.052 27.569 10.75 58.681-4.859 84.392-2.451-.332-3.518 3.406-1.02 3.794 16.471 2.561 21.67 11.682 26.907 23.17-1.877-.406-3.732 1.071-3.839 3.131-.137 2.626 2.348 5.742 4.681 6.73 1.26.533 2.585.413 3.608-.189.368.755.734 1.51 1.128 2.273 3.161 6.138 7.282 11.099 13.668 14.07.842.392 1.69.729 2.537 1.027-1.504.775-1.962 3.462-.235 5.019 3.849 3.47 11.238 3.608 15.941 2.348 1.654-.443 3.695-1.199 4.076-3.119.365-1.838-.899-3.212-2.495-3.825-.244-.094-.529-.129-.787-.202 5.588-1.849 10.529-5.621 14.022-10.855-4.069 20.248-20.97 40.492-43.93 33.433z"/><path d="M101.312 27.551c.166-.801-.11-1.661-.652-2.258-.114-.401-.307-.784-.663-1.098-1.365-1.205-3.251-.557-4.663.161-2.843 1.444-6.72 4.541-7.469 7.836-.858 3.778 3.074 4.636 5.891 3.88a5.019 5.019 0 002.965-.708c2.045-1.245 4.133-4.192 4.285-6.903.091-.308.241-.594.306-.91zm25.023 3.829c-.456-2.607-3.23-3.891-5.614-4.167-.9-.104-1.75.079-2.471.438a3.62 3.62 0 00-1.926 1.154c-1.396.898-1.687 2.743-1.018 4.339 1.064 2.536 4.028 3.647 6.632 3.282 2.487-.348 4.875-2.313 4.397-5.046zm-86.47 131.144c.033-.431-.117-.801-.329-1.135-.005-.336.047-.671.012-1.005-.18-1.678-1.776-2.826-3.385-1.943-1.87 1.027-3.004 2.986-3.177 5.022-.755 1.743-.934 3.833-.644 5.546.287 1.697 2.424 1.829 3.502.925.804-.675 1.448-1.49 2.002-2.363 1.224-1.489 1.868-3.084 2.019-5.047zm61.35 40.714c.163-1.215.135-2.47-.15-3.72-.372-1.63-2.448-1.988-3.572-.943-.71.66-1.228 1.427-1.653 2.234-1.86 2.234-2.546 5.329-2.729 8.147-.102 1.583 1.763 2.415 3.02 1.733a9.85 9.85 0 004.378-4.806c.489-.843.759-1.775.706-2.645zm-8.706-46.025c-.594-2.339-3.259-4.26-5.393-3.432-.663-.199-1.435-.03-1.775.673-1.335 2.76-.397 6.594 2.351 8.19 1.351.785 3.131.623 4.161-.606 1.104-1.319 1.059-3.236.656-4.825zm95.847-11.063c-1.69-2.552-4.285-5.153-7.241-6.171-2.759-.95-5.394.591-6.255 3.19-.453.411-.764.982-.775 1.609-1.172 4.24 5.025 8.992 8.363 10.384 2.391.997 6.518 2.38 7.996-.69 1.219-2.532-.708-6.238-2.088-8.322zM94.882 92.454c.975-2.34.852-5.23-.041-7.494-.569-1.446-1.538-3.055-3.232-3.283-1.962-.265-2.951 1.311-3.531 2.913-1.093 3.021-1.969 8.356 1.49 10.236.962.523 1.843.646 2.607.49.31.002.621-.069.888-.293.043-.036.072-.082.114-.119.829-.515 1.405-1.413 1.705-2.45zm55.95-12.824c-.191-.443-.536-.679-.92-.832-.398-.706-1.348-1.071-2.075-.325-2.121 2.177-3.16 4.972-3.214 8.003-.043 2.41.55 6.178 3.214 7.071 2.956.991 4.68-2.483 5.005-4.824.44-3.187-.771-6.223-2.01-9.093zm-23.179 16.63c-.324-1.727-3.163-1.726-3.488 0-.237 1.256-.292 2.74-1.294 3.685-1.634 1.542-4.869.737-4.184-1.983.491-2.266-2.89-3.232-3.494-.964-.315 1.554-.828 5.422-3.905 3.577-1.598-.959-1.021-4.447-.934-5.964.081-1.409-2.001-1.602-2.393-.324-1.139 3.717-.932 9.061 3.664 10.247 2.265.585 3.89-.349 5.041-1.851 1.163 1.276 2.825 2.1 4.726 1.982 4.076-.254 6.981-4.562 6.261-8.405z"/></svg>