<svg width="21" height="22" fill="none" xmlns="http://www.w3.org/2000/svg"><path d="M21 10.51a10.482 10.482 0 00-1.773-5.83A10.533 10.533 0 0014.513.81c-1.92-.79-4.03-1-6.066-.59C6.41.62 4.54 1.63 3.073 3.09A10.505 10.505 0 00.8 14.54a10.58 10.58 0 003.867 4.71 10.531 10.531 0 005.833 1.77h.185v-8.18H8.429V10.2h2.256V8.27a3.18 3.18 0 01.16-1.36A3.17 3.17 0 0112.706 5c.43-.17.892-.23 1.351-.2.675 0 1.35.03 2.022.1v2.35H14.7c-1.087 0-1.3.52-1.3 1.28v1.67H16l-.34 2.63H13.4v7.78a10.516 10.516 0 005.489-3.78 10.498 10.498 0 002.11-6.32z" fill="#3D3017" opacity=".81"/></svg>