<svg width="18" height="18" fill="none" xmlns="http://www.w3.org/2000/svg"><path d="M9 .273c-2.37 0-2.667.01-3.598.053-.93.042-1.563.19-2.118.405a4.274 4.274 0 00-1.546 1.006A4.284 4.284 0 00.73 3.283c-.217.555-.364 1.19-.406 2.119C.283 6.332.273 6.63.273 9s.01 2.667.052 3.598c.043.929.19 1.563.406 2.118a4.276 4.276 0 001.006 1.546 4.28 4.28 0 001.546 1.007c.555.216 1.19.363 2.118.406.931.042 1.228.052 3.598.052s2.667-.01 3.598-.052c.929-.043 1.564-.19 2.12-.406a4.27 4.27 0 001.544-1.007 4.284 4.284 0 001.007-1.546c.215-.555.362-1.19.406-2.118.041-.93.052-1.228.052-3.598s-.01-2.667-.052-3.598c-.044-.93-.191-1.564-.406-2.118a4.284 4.284 0 00-1.007-1.547A4.265 4.265 0 0014.716.731c-.557-.216-1.191-.363-2.12-.405-.931-.043-1.228-.053-3.598-.053H9zm-.783 1.573H9c2.33 0 2.607.008 3.527.05.85.039 1.313.181 1.62.3.407.159.698.348 1.003.653.305.306.495.597.653 1.004.12.307.262.769.3 1.62.042.92.051 1.196.051 3.525 0 2.33-.009 2.606-.05 3.526-.04.85-.181 1.312-.301 1.62a2.697 2.697 0 01-.653 1.002 2.7 2.7 0 01-1.003.653c-.307.12-.77.262-1.62.3-.92.043-1.197.052-3.527.052s-2.606-.01-3.526-.051c-.851-.04-1.313-.182-1.62-.301a2.704 2.704 0 01-1.004-.653 2.706 2.706 0 01-.653-1.003c-.12-.307-.262-.77-.3-1.62-.043-.92-.051-1.196-.051-3.527 0-2.33.008-2.605.05-3.525.04-.851.181-1.313.3-1.62.159-.408.348-.699.654-1.004a2.708 2.708 0 011.003-.653c.308-.12.77-.262 1.62-.301.806-.037 1.118-.048 2.744-.05v.003zm5.442 1.449a1.047 1.047 0 100 2.095 1.047 1.047 0 000-2.096zM9 4.518a4.482 4.482 0 10.001 8.964 4.482 4.482 0 000-8.964zm0 1.573a2.91 2.91 0 110 5.818 2.91 2.91 0 010-5.818z" fill="#000"/></svg>