<svg width="18" height="18" fill="none" xmlns="http://www.w3.org/2000/svg"><path fill-rule="evenodd" clip-rule="evenodd" d="M1.707.5C1.04.5.5 1.04.5 1.707v14.586c0 .667.54 1.207 1.207 1.207h14.586c.667 0 1.207-.54 1.207-1.207V1.707C17.5 1.04 16.96.5 16.293.5H1.707zm2.609 5.28a1.475 1.475 0 100-2.95 1.475 1.475 0 000 2.95zM7.14 6.87h2.444v1.119s.663-1.327 2.468-1.327c1.61 0 2.943.793 2.943 3.21v5.098h-2.533v-4.48c0-1.426-.76-1.582-1.34-1.582-1.205 0-1.41 1.038-1.41 1.768v4.294H7.14v-8.1zm-1.54 0H3.03v8.1H5.6v-8.1z" fill="#000"/></svg>