<svg width="264" height="45" fill="none" xmlns="http://www.w3.org/2000/svg"><path d="M96.025 9.217c0-3.439-1.65-3.714-3.852-3.714h-7.841c-2.202 0-3.715.275-3.715 3.852v5.228c0 3.439 1.513 3.852 3.715 3.852h7.841c2.201 0 3.715-.413 3.715-3.852V9.217h.137zM92.173 23.8h-7.841c-5.366 0-10.18-1.376-10.18-8.667V8.529C74.288 1.376 79.103 0 84.468 0h7.704c5.228 0 10.18 1.376 10.18 8.53v6.603c0 7.291-4.677 8.667-10.18 8.667zm33.43 0h-8.942L104.967.413h7.016l9.08 18.572 9.08-18.572h7.016L125.603 23.8zm35.769-14.583c0-3.439-1.651-3.852-3.715-3.852h-7.841c-2.202 0-3.715.275-3.715 3.852v5.228c0 3.44 1.513 3.852 3.715 3.852h7.841c2.201 0 3.715-.413 3.715-3.852V9.217zM157.657 23.8h-7.841c-5.366 0-10.181-1.376-10.181-8.667V8.529c0-7.29 4.815-8.529 10.181-8.529h7.841c5.228 0 10.18 1.376 10.18 8.53v6.603c0 7.291-4.815 8.667-10.18 8.667zM191.5 9.492c0-3.026-.963-3.714-3.164-3.714h-10.869v12.519h10.869c2.338 0 3.164-1.513 3.164-3.99V9.492zM189.299 23.8h-18.16V.413h17.334c6.466 0 9.493 2.476 9.493 9.08v4.952c0 6.328-2.064 9.355-8.667 9.355zm33.429-14.583c0-3.439-1.65-3.852-3.714-3.852h-7.842c-2.201 0-3.714.275-3.714 3.852v5.228c0 3.44 1.513 3.852 3.714 3.852h7.842c2.201 0 3.714-.413 3.714-3.852V9.217zM219.014 23.8h-7.842c-5.365 0-10.18-1.376-10.18-8.667V8.529c0-7.29 4.815-8.529 10.18-8.529h7.842c5.228 0 10.18 1.376 10.18 8.53v6.603c0 7.291-4.677 8.667-10.18 8.667zm33.43 0h-8.942L231.808.275h7.016l9.08 18.572 9.08-18.572H264L252.444 23.8z" fill="#182877"/><path d="M80.48 41.272h-3.027c-2.752 0-3.027-1.101-3.027-3.577 0-2.202.413-3.302 2.752-3.302h3.026c1.651 0 2.89.138 2.89 2.063v.138h-.964v-.275c0-1.238-.688-1.238-1.788-1.238h-3.027c-1.788 0-1.788.55-1.788 2.751 0 1.926 0 2.477 2.063 2.477h2.89c1.237 0 1.788-.138 1.788-1.376v-.275h.963v.412c0 2.064-1.238 2.202-2.752 2.202zm8.391 0c-.55.962-1.65 2.889-3.852 2.889v-.964c.963 0 2.201-.963 2.752-1.925h-.275l-3.577-6.741h1.1l3.164 5.915 3.165-5.915h1.1l-3.577 6.74zm10.319-5.916H96.3c-1.788 0-1.926.688-1.926 2.614 0 2.2.413 2.614 1.926 2.614h2.89c1.788 0 1.788-.826 1.788-2.614 0-2.201-.276-2.614-1.789-2.614zm.274 5.916h-2.889c-.963 0-1.788-.138-2.2-.963v.963h-.964v-9.63h.963v3.714c.275-.825 1.376-.963 2.201-.963h2.89c2.338 0 2.613 1.376 2.613 3.44 0 2.2-.275 3.439-2.614 3.439zm9.63-6.054h-2.889c-1.788 0-1.926.413-1.926 2.064h6.604c0-1.926-.275-2.064-1.789-2.064zm0 6.053h-2.889c-2.614 0-3.026-.825-3.026-3.439 0-2.751.55-3.44 3.026-3.44h2.889c2.202 0 2.889.551 2.889 3.027v.688h-7.704c0 2.064.138 2.34 1.926 2.34h2.889c1.376 0 1.789-.139 1.789-1.102v-.275h1.1v.276c0 1.926-1.375 1.926-2.889 1.926zM120.1 36.87v-.413c0-.826-.275-1.101-1.101-1.101h-2.889c-1.238 0-1.65.55-1.65 1.788v4.128h-.963V34.53h.963v.825c.412-.688 1.1-.963 1.926-.963h2.889c1.238 0 1.926.688 1.926 1.926v.55H120.1zm7.842 4.402h-3.027c-1.513 0-3.027-.138-3.027-1.514v-.688h1.101v.55c0 .689.413.826 1.926.826h3.027c.688 0 1.788.138 1.788-1.1 0-.826-.275-.963-.825-1.101-.688 0-4.678-.138-5.503-.275-.826-.138-1.376-.413-1.376-1.651 0-1.926 1.101-1.926 2.889-1.926h3.027c1.238 0 2.614 0 2.614 1.513v.275h-1.101v-.275c0-.688-.55-.825-1.513-.825h-3.027c-1.238 0-1.926 0-1.926.963 0 .825.138 1.1.688 1.1.825.138 3.439.138 4.815.138 1.238 0 2.201.138 2.201 1.926.138 2.064-1.238 2.064-2.751 2.064zm9.905-6.054h-2.889c-1.789 0-1.926.413-1.926 2.064h6.603c0-1.926-.275-2.064-1.788-2.064zm0 6.053h-2.889c-2.614 0-3.027-.825-3.027-3.439 0-2.751.55-3.44 3.027-3.44h2.889c2.201 0 2.889.551 2.889 3.027v.688h-7.704c0 2.064.137 2.34 1.926 2.34h2.889c1.376 0 1.788-.139 1.788-1.102v-.275h1.101v.276c0 1.926-1.376 1.926-2.889 1.926zm9.905.001h-3.027c-2.751 0-3.026-1.101-3.026-3.577 0-2.202.413-3.302 2.751-3.302h3.027c1.651 0 2.889.138 2.889 2.063v.138h-.963v-.275c0-1.238-.688-1.238-1.789-1.238h-3.026c-1.789 0-1.789.55-1.789 2.751 0 1.926.138 2.477 2.064 2.477h2.889c1.238 0 1.788-.138 1.788-1.376v-.275h.963v.412c.138 2.064-1.1 2.202-2.751 2.202zm11.556 0v-.963c-.413.825-1.238.963-2.064.963h-2.889c-1.788 0-2.338-.688-2.338-2.477v-4.264h.963v4.264c0 1.1.137 1.651 1.375 1.651h2.889c1.376 0 2.202-.275 2.202-1.788V34.53h.963v6.74h-1.101zm9.08-4.402v-.413c0-.826-.275-1.101-1.101-1.101h-2.889c-1.238 0-1.651.55-1.651 1.788v4.128h-.963V34.53h.963v.825c.413-.688 1.101-.963 1.926-.963h2.889c1.238 0 1.926.688 1.926 1.926v.55h-1.1zm2.338 4.402V34.53h.963v6.74h-.963zm0-8.53v-1.1h.963v1.1h-.963zm7.842 8.53h-2.889c-1.513 0-1.926-.413-1.926-2.064v-3.99h-.963v-.825h.963v-1.65h.963v1.65h5.09v.825h-5.09v4.265c0 .688.275.826.963.826h2.889c.963 0 .963-.55.963-1.101v-.55h.963v.55c0 1.513-.55 2.064-1.926 2.064zm7.429 0c-.55.962-1.651 2.889-3.852 2.889v-.964c.963 0 2.201-.963 2.751-1.925h-.275l-3.577-6.741h1.101l3.164 5.915 3.164-5.915h1.101l-3.577 6.74z" fill="#C9262A"/><path d="M13.07 43.197h10.317s2.614 0 4.678-.412c1.375-.275 2.613-1.238 3.852-2.201.412-.413.963-.688 1.375-.963 2.339-1.514 5.09-1.376 5.503-1.239h3.302l-1.1 1.101h-2.34s-2.613-.275-4.814 1.1c-.413.276-.826.551-1.239.964-1.238.963-2.613 2.063-4.264 2.338-2.201.276-4.953.276-4.953.276h-7.979c-.825-.276-1.65-.688-2.339-.964z" fill="#323E8F"/><path d="M6.053 37.695h15.27s2.614 0 4.678-.413c1.376-.275 2.614-1.238 3.852-2.201.413-.413.963-.688 1.376-.963 1.65-1.376 5.227-1.376 5.503-1.238h9.355c-.138.412-.413.688-.55.963h-8.805s-3.44-.138-4.815 1.1c-.413.275-.826.55-1.239.963-1.238.963-2.613 2.064-4.264 2.339-2.064.413-4.815.413-4.815.413H7.016l-.963-.963z" fill="#2F519A"/><path d="M2.339 32.192H19.26s2.614 0 4.677-.413c1.376-.275 2.614-1.238 3.852-2.201.413-.413.963-.688 1.376-.963 2.064-1.513 5.09-1.376 5.503-1.238H48.15c-.137.413-.137.688-.275 1.1H34.668s-3.026-.275-4.815 1.1c-.413.276-.825.551-1.238.964-1.238.963-2.614 2.064-4.265 2.339-2.338.412-5.09.412-5.09.412H2.89a4.12 4.12 0 00-.55-1.1z" fill="#64548B"/><path d="M.55 26.689h16.646s2.614 0 4.678-.413c1.376-.275 2.614-1.238 3.852-2.201.413-.413.963-.688 1.376-.963 1.788-1.376 5.09-1.238 5.503-1.238h16.233v1.1H32.605s-3.165-.137-4.815 1.101c-.413.275-.826.55-1.239.963-1.238.963-2.613 2.064-4.264 2.339-2.064.413-4.815.413-4.815.413H.688c0-.413-.138-.688-.138-1.101z" fill="#784E7F"/><path d="M0 21.186h15.133s2.614 0 4.677-.413c1.376-.275 2.614-1.238 3.852-2.2.413-.413.963-.689 1.376-.964 2.064-1.513 5.09-1.376 5.503-1.238h17.884c.138.413.138.688.138 1.1H30.54s-3.027-.274-4.815 1.101c-.413.275-.825.55-1.238.963-1.238.963-2.614 2.064-4.265 2.339-2.339.413-5.09.413-5.09.413H0v-1.101z" fill="#893768"/><path d="M.688 15.82h12.381s2.614 0 4.678-.412c1.375-.275 2.614-1.238 3.852-2.201.413-.413.963-.688 1.375-.963 2.064-1.376 5.09-1.238 5.503-1.238H46.5c.138.412.275.688.413 1.1H28.34s-2.89-.137-4.815 1.1c-.413.276-.826.551-1.238.964-1.238.963-2.614 2.063-4.265 2.339-2.064.412-4.815.412-4.815.412H.413c0-.412.137-.825.275-1.1z" fill="#9D2957"/><path d="M2.614 10.318h8.254s2.614 0 4.678-.413c1.375-.275 2.613-1.238 3.852-2.201.412-.413.963-.688 1.375-.963 1.926-1.376 5.09-1.238 5.503-1.238h16.509c.275.275.55.688.825 1.1l-17.47-.137s-3.027-.138-4.815 1.1c-.413.276-.826.55-1.239.963-1.238.963-2.613 2.064-4.264 2.34-2.064.412-4.815.412-4.815.412H2.2c.138-.275.275-.688.413-.963z" fill="#B42443"/><path d="M6.603 4.815h2.34s2.613 0 4.677-.413c1.375-.275 2.613-1.238 3.714-2.063.413-.413.963-.688 1.376-.963C20.498 0 23.937.138 24.213.138h11.693c.55.275 1.238.687 1.789 1.1H24.213s-3.302-.137-4.816 1.1c-.412.276-.825.551-1.238.964-1.513.825-2.751 1.788-4.402 2.2-2.063.414-4.815.414-4.815.414H5.64c.276-.413.55-.826.963-1.101z" fill="#C9262A"/></svg>