<svg width="22" height="22" fill="none" xmlns="http://www.w3.org/2000/svg"><path d="M11 0C4.925 0 0 4.925 0 11s4.925 11 11 11 11-4.925 11-11S17.075 0 11 0zm5.809 16.05l-.881.881c-.157.157-.618.255-.632.255a10.394 10.394 0 01-7.44-3.041 10.407 10.407 0 01-3.044-7.466c0-.001.101-.449.258-.604l.881-.881c.322-.324.942-.47 1.375-.325l.185.062c.433.145.887.623 1.006 1.063L8.96 7.62c.12.442-.041 1.07-.363 1.393l-.589.588a6.247 6.247 0 004.393 4.394l.588-.588c.323-.324.952-.485 1.393-.366l1.625.445c.44.12.919.572 1.064 1.004l.062.188c.143.432-.002 1.051-.324 1.372z" fill="#C9262A"/></svg>