<svg width="494" height="379" fill="none" xmlns="http://www.w3.org/2000/svg"><g clip-path="url(#clip0_83_730)"><path d="M452.58 162.497c-4.866-18.828-12.351-36.77-22.457-53.323-17.715-29.063-49.03-73.162-84.586-90.347-54.894-26.535-104.798-27.798-149.711 13.9-44.913 41.698-72.36 160.475-88.579 180.692-16.218 20.218-64.874 24.008-83.588 55.598s-12.85 106.141-12.85 106.141H477.78s6.488-89.462-25.201-212.661z" fill="#C6FF00"/><path opacity=".8" d="M452.58 162.497c-4.866-18.828-12.351-36.77-22.457-53.323-17.715-29.063-49.03-73.162-84.586-90.347-54.894-26.535-104.798-27.798-149.711 13.9-44.913 41.698-72.36 160.475-88.579 180.692-16.218 20.218-64.874 24.008-83.588 55.598s-12.85 106.141-12.85 106.141H477.78s6.488-89.462-25.201-212.661z" fill="#fff"/><path d="M414.154 117.134c-5.614-3.032-8.109-.505-10.105-3.032-1.996-2.528 5.614-9.225-9.607-15.922 0 0-.998-14.404-21.708-14.91-20.71-.505-15.22 14.405-20.71 17.943-5.614 3.538-7.111-2.022-12.6 1.516-5.614 3.538-2.994 10.741-7.611 11.752-4.491 1.011-10.604-4.549-16.218-1.011-5.614 3.538-5.614 6.697-8.11 6.697-2.495 0-7.61-2.022-10.604 0-2.994 2.022-6.612 4.549-6.612 4.549h128.002c-.124.126 1.497-4.423-4.117-7.582z" fill="#fff"/><path opacity=".5" d="M414.154 117.134c-5.614-3.032-8.109-.505-10.105-3.032-1.996-2.528 5.614-9.225-9.607-15.922 0 0-.998-14.404-21.708-14.91-20.71-.505-15.22 14.405-20.71 17.943-5.614 3.538-7.111-2.022-12.6 1.516-5.614 3.538-2.994 10.741-7.611 11.752-4.491 1.011-10.604-4.549-16.218-1.011-5.614 3.538-5.614 6.697-8.11 6.697-2.495 0-7.61-2.022-10.604 0-2.994 2.022-6.612 4.549-6.612 4.549h128.002c-.124.126 1.497-4.423-4.117-7.582z" fill="#fff"/><path d="M261.574 39.045c-3.244-1.77-4.741-.253-5.988-1.77-1.248-1.516 3.244-5.433-5.739-9.35 0 0-.624-8.466-12.85-8.845-12.351-.253-8.983 8.466-12.351 10.614-3.244 2.148-4.242-1.263-7.486.885-3.244 2.148-1.747 6.318-4.491 6.95-2.745.631-6.238-2.78-9.607-.632-3.243 2.148-3.243 3.917-4.741 3.917-1.497 0-4.491-1.264-6.237 0a1031.23 1031.23 0 01-3.868 2.78h75.853c-.124 0 .749-2.78-2.495-4.55z" fill="#fff"/><path opacity=".5" d="M261.574 39.045c-3.244-1.77-4.741-.253-5.988-1.77-1.248-1.516 3.244-5.433-5.739-9.35 0 0-.624-8.466-12.85-8.845-12.351-.253-8.983 8.466-12.351 10.614-3.244 2.148-4.242-1.263-7.486.885-3.244 2.148-1.747 6.318-4.491 6.95-2.745.631-6.238-2.78-9.607-.632-3.243 2.148-3.243 3.917-4.741 3.917-1.497 0-4.491-1.264-6.237 0a1031.23 1031.23 0 01-3.868 2.78h75.853c-.124 0 .749-2.78-2.495-4.55z" fill="#fff"/><path d="M223.024 169.699c-3.244-1.769-4.741-.252-5.989-1.769-1.247-1.516 3.244-5.433-5.739-9.35 0 0-.623-8.466-12.85-8.845-12.351-.253-8.982 8.466-12.351 10.614-3.244 2.148-4.242-1.264-7.485.884-3.244 2.148-1.747 6.318-4.492 6.95-2.744.632-6.238-2.78-9.606-.632-3.244 2.148-3.244 3.917-4.741 3.917-1.497 0-4.491-1.263-6.238 0a980.982 980.982 0 01-3.868 2.78h75.854c-.125 0 .873-2.653-2.495-4.549z" fill="#fff"/><path opacity=".5" d="M223.024 169.699c-3.244-1.769-4.741-.252-5.989-1.769-1.247-1.516 3.244-5.433-5.739-9.35 0 0-.623-8.466-12.85-8.845-12.351-.253-8.982 8.466-12.351 10.614-3.244 2.148-4.242-1.264-7.485.884-3.244 2.148-1.747 6.318-4.492 6.95-2.744.632-6.238-2.78-9.606-.632-3.244 2.148-3.244 3.917-4.741 3.917-1.497 0-4.491-1.263-6.238 0a980.982 980.982 0 01-3.868 2.78h75.854c-.125 0 .873-2.653-2.495-4.549z" fill="#fff"/><path d="M15.55 374.779l149.835-190.928c3.618-4.549 10.48-4.549 13.973.253l93.32 126.232 87.331-144.807c3.493-5.938 12.102-5.686 15.345.38l112.034 207.859-471.838 1.011z" fill="#C6FF00"/><path opacity=".5" d="M15.55 374.779l149.835-190.928c3.618-4.549 10.48-4.549 13.973.253l93.32 126.232 87.331-144.807c3.493-5.938 12.102-5.686 15.345.38l112.034 207.859-471.838 1.011z" fill="#fff"/><mask id="a" style="mask-type:luminance" maskUnits="userSpaceOnUse" x="15" y="161" width="473" height="214"><path d="M15.55 374.779l149.835-190.928c3.618-4.549 10.48-4.549 13.973.253l93.32 126.232 87.331-144.807c3.493-5.938 12.102-5.686 15.345.38l112.034 207.859-471.838 1.011z" fill="#fff"/></mask><g opacity=".2" fill="#000" mask="url(#a)"><path d="M175.615 181.198L226.267 374.4l94.692-.127-141.476-190.169c-.998-1.39-2.371-2.401-3.868-2.906zm199.864-15.163c-1.871-3.412-5.24-4.928-8.608-4.675l73.857 212.534 46.785-.126-112.034-207.733z"/></g><mask id="b" style="mask-type:luminance" maskUnits="userSpaceOnUse" x="15" y="161" width="473" height="214"><path d="M15.55 374.779l149.835-190.928c3.618-4.549 10.48-4.549 13.973.253l93.32 126.232 87.331-144.807c3.493-5.938 12.102-5.686 15.345.38l112.034 207.859-471.838 1.011z" fill="#fff"/></mask><g mask="url(#b)"><path opacity=".2" d="M109.368 373.642l5.739-32.727-20.835 32.727h15.096z" fill="#000"/></g><path d="M376.727 374.273h64.25c-1.247-7.96-6.237-6.57-6.986-18.953-.374-6.192 5.365-13.9 4.866-22.113-.375-6.697-6.987-13.647-7.486-21.355-.499-6.949 5.115-14.657 4.616-22.112-.499-7.076-7.111-13.9-7.735-21.228-.624-7.203 4.866-14.911 4.242-22.24-.624-7.202-7.361-13.899-8.109-21.101-.749-7.329 4.616-15.29 3.742-22.239-.873-7.456-7.86-13.9-8.733-20.85-.998-7.707 3.868-15.794 2.745-22.491-1.372-8.087-8.858-14.026-10.48-19.965-2.869-11.12-2.495-21.86-5.988-22.618-3.743-.758-4.492 9.729-7.361 21.481-1.372 5.939-8.733 11.877-9.856 19.964-.998 6.571 4.117 14.532 3.368 22.113-.748 6.823-7.485 13.394-8.234 20.849-.623 6.95 4.866 14.658 4.367 21.987-.499 7.076-7.111 13.899-7.61 21.101-.499 7.203 5.24 14.784 4.865 21.86-.374 7.329-6.861 14.153-7.236 21.229-.374 7.455 5.49 14.91 5.115 21.86-.249 7.581-6.737 14.657-6.861 21.354-.25 8.087 5.614 15.542 5.364 21.734-.374 13.394-6.487 10.614-6.612 21.354l1.747.379z" fill="#BAEF00"/><path d="M404.298 138.741v232.5" stroke="#263238" stroke-miterlimit="10"/><path d="M414.279 163.129l-10.48 9.097-8.483-11.498" fill="#BAEF00"/><path d="M414.279 163.129l-10.48 9.097-8.483-11.498" stroke="#263238" stroke-miterlimit="10"/><path d="M414.279 203.563l-10.48 9.098-8.483-11.498" fill="#BAEF00"/><path d="M414.279 203.563l-10.48 9.098-8.483-11.498" stroke="#263238" stroke-miterlimit="10"/><path d="M414.279 241.597l-10.48 9.224-8.483-11.625" fill="#BAEF00"/><path d="M414.279 241.597l-10.48 9.224-8.483-11.625" stroke="#263238" stroke-miterlimit="10"/><path d="M414.279 286.96l-10.48 9.098-8.483-11.499" fill="#BAEF00"/><path d="M414.279 286.96l-10.48 9.098-8.483-11.499" stroke="#263238" stroke-miterlimit="10"/><path d="M414.279 332.702l-10.48 9.097-8.483-11.498" fill="#BAEF00"/><path d="M414.279 332.702l-10.48 9.097-8.483-11.498" stroke="#263238" stroke-miterlimit="10"/><path d="M309.107 374.273h55.768c-1.123-6.949-5.49-5.686-5.989-16.426-.249-5.434 4.616-12.004 4.242-19.08-.374-5.813-5.988-11.752-6.488-18.449-.374-6.065 4.492-12.762 3.993-19.206-.499-6.192-6.238-12.004-6.737-18.448-.499-6.192 4.242-13.015 3.743-19.207-.5-6.318-6.363-12.13-6.987-18.322-.624-6.318 3.992-13.267 3.244-19.333-.749-6.444-6.737-12.004-7.611-18.069-.873-6.697 3.369-13.773 2.371-19.459-1.248-7.076-7.735-12.13-8.983-17.311-2.495-9.603-2.245-18.954-5.24-19.586-3.243-.631-3.867 8.466-6.362 18.701-1.248 5.181-7.486 10.362-8.609 17.311-.873 5.687 3.618 12.636 2.87 19.207-.624 5.939-6.488 11.625-7.111 18.069-.5 6.065 4.241 12.762 3.742 19.08-.499 6.192-6.113 12.004-6.612 18.322-.374 6.192 4.491 12.762 4.242 18.954-.374 6.318-5.989 12.257-6.238 18.448-.25 6.445 4.741 12.889 4.491 18.954-.249 6.571-5.739 12.636-5.988 18.448-.25 7.076 4.865 13.521 4.741 18.828-.375 11.625-5.614 9.224-5.739 18.574h1.247z" fill="#BAEF00"/><path d="M332.936 169.952V371.62" stroke="#263238" stroke-miterlimit="10"/><path d="M341.669 191.18l-9.107 7.834-7.361-9.982" fill="#BAEF00"/><path d="M341.669 191.18l-9.107 7.834-7.361-9.982" stroke="#263238" stroke-miterlimit="10"/><path d="M341.669 226.181l-9.107 7.961-7.361-9.982" fill="#BAEF00"/><path d="M341.669 226.181l-9.107 7.961-7.361-9.982" stroke="#263238" stroke-miterlimit="10"/><path d="M341.669 259.287l-9.107 7.961-7.361-10.109" fill="#BAEF00"/><path d="M341.669 259.287l-9.107 7.961-7.361-10.109" stroke="#263238" stroke-miterlimit="10"/><path d="M341.669 298.585l-9.107 7.834-7.361-9.982" fill="#BAEF00"/><path d="M341.669 298.585l-9.107 7.834-7.361-9.982" stroke="#263238" stroke-miterlimit="10"/><path d="M341.669 338.261l-9.107 7.961-7.361-10.109" fill="#BAEF00"/><path d="M341.669 338.261l-9.107 7.961-7.361-10.109" stroke="#263238" stroke-miterlimit="10"/><path d="M32.392 374.273H88.16c-1.123-6.949-5.489-5.686-5.988-16.426-.25-5.434 4.616-12.004 4.242-19.08-.374-5.813-5.989-11.752-6.488-18.449-.374-6.065 4.492-12.762 3.993-19.206-.5-6.192-6.238-12.004-6.737-18.448-.5-6.192 4.241-13.015 3.742-19.207-.499-6.318-6.362-12.13-6.986-18.322-.624-6.318 3.992-13.267 3.244-19.333-.749-6.444-6.737-12.004-7.61-18.069-.874-6.697 3.368-13.773 2.37-19.459-1.248-7.076-7.735-12.13-8.983-17.311-2.495-9.603-2.246-18.954-5.24-19.586-3.244-.631-3.867 8.466-6.363 18.701-1.247 5.181-7.485 10.362-8.608 17.311-.873 5.687 3.618 12.636 2.87 19.207-.624 5.939-6.488 11.625-7.112 18.069-.499 6.065 4.242 12.762 3.743 19.08-.499 6.192-6.113 12.004-6.612 18.322-.374 6.192 4.491 12.762 4.242 18.954-.375 6.318-5.989 12.257-6.238 18.448-.25 6.445 4.74 12.889 4.491 18.954-.25 6.571-5.739 12.636-5.988 18.448-.25 7.076 4.865 13.521 4.74 18.828-.374 11.625-5.614 9.224-5.739 18.574h1.248z" fill="#BAEF00"/><path d="M56.346 169.952V371.62m8.733-180.44l-9.107 7.834-7.486-9.982m16.593 37.149l-9.107 7.961-7.486-9.982m16.593 35.127l-9.107 7.961-7.486-10.109m16.593 41.446l-9.107 7.834-7.486-9.982m16.593 41.824l-9.107 7.961-7.486-10.109" stroke="#263238" stroke-miterlimit="10"/><path d="M333.649 373.898c25.773-6.056 41.819-32.127 35.839-58.231-5.979-26.103-31.72-42.355-57.493-36.299-25.774 6.057-41.82 32.127-35.84 58.231 5.98 26.104 31.72 42.355 57.494 36.299z" fill="#263238"/><path d="M338.777 366.59c21.783-8.92 32.302-34.035 23.496-56.097-8.806-22.062-33.604-32.717-55.386-23.798-21.783 8.919-32.303 34.035-23.497 56.097 8.806 22.062 33.604 32.717 55.387 23.798z" fill="#fff"/><path d="M322.831 364.165c15.22 0 28.195-9.224 33.934-22.492m-33.934-52.691c-13.973 0-26.075 7.707-32.438 19.206m32.438-15.416c-12.601 0-23.455 6.95-29.194 17.311" stroke="#263238" stroke-miterlimit="10" stroke-linecap="round" stroke-linejoin="round"/><path d="M322.207 360.374h.624c13.723 0 25.451-8.34 30.69-20.344m-30.69-43.088c-10.979 0-20.585 6.192-25.576 15.289m25.576 43.973c11.852 0 22.207-7.202 26.698-17.564m-26.698-37.023c-9.232 0-17.342 5.181-21.583 12.763m21.583 37.275c9.856 0 18.339-5.812 22.332-14.405" stroke="#263238" stroke-miterlimit="10" stroke-linecap="round" stroke-linejoin="round"/><path d="M204.899 360.952c18.709-18.949 18.709-49.671 0-68.619-18.708-18.949-49.041-18.949-67.75 0-18.709 18.948-18.709 49.67 0 68.619 18.709 18.948 49.042 18.948 67.75 0z" fill="#263238"/><path d="M210.21 343.483c9.183-21.905-.907-47.202-22.535-56.501-21.627-9.3-46.604.918-55.786 22.823-9.182 21.906.907 47.202 22.535 56.502 21.628 9.3 46.604-.919 55.786-22.824z" fill="#fff"/><path d="M170.999 364.165c15.221 0 28.196-9.224 33.935-22.492m-33.935-52.691c-13.973 0-26.074 7.707-32.437 19.206m32.437-15.416c-12.6 0-23.454 6.95-29.193 17.311" stroke="#263238" stroke-miterlimit="10" stroke-linecap="round" stroke-linejoin="round"/><path d="M170.375 360.374h.624c13.724 0 25.451-8.34 30.691-20.344m-30.691-43.088c-10.979 0-20.585 6.192-25.575 15.289m25.575 43.973c11.852 0 22.207-7.202 26.699-17.564m-26.699-37.023c-9.232 0-17.341 5.181-21.583 12.763m21.583 37.275c9.856 0 18.34-5.812 22.332-14.405" stroke="#263238" stroke-miterlimit="10" stroke-linecap="round" stroke-linejoin="round"/><path d="M284.28 166.414l-5.739-25.904s-6.861-2.527-12.351.506c-4.491 2.527-20.335 24.893-25.7 32.6l-.374-.379s-.624-1.011-1.373 0c0 0-3.742 3.412-3.618 4.549 0 .253.624 1.011 1.373 2.022l-30.816 31.59s-8.359.126-9.856.884c-1.497.758-1.497.885-1.497 3.791 0 2.78.374 5.433.873 5.56.5.126 3.868.884 4.242-.127.375-1.137-.873-3.159-.873-3.159s.873-2.401 2.745-1.642c1.871.758 3.368 3.159 5.739 2.274 2.37-.884 4.491-4.928 4.491-4.928l33.311-25.019c.998 1.011 1.746 1.769 1.996 1.895 1.247.759 5.364-2.4 5.24-3.917v-.126l32.187-20.47z" fill="#263238"/><path d="M204.809 234.016c-.624 0-1.123-.253-1.372-.885l-7.735-13.773c-.5-.758-.125-1.769.623-2.274.749-.506 1.747-.127 2.246.631l7.735 13.774c.499.758.125 1.769-.624 2.274-.374.126-.624.253-.873.253z" fill="#fff" stroke="#263238" stroke-miterlimit="10" stroke-linecap="round" stroke-linejoin="round"/><path d="M233.004 178.292l-31.938 32.853s-8.359.126-9.856.884c-1.497.758-1.497.885-1.497 3.791 0 2.78.374 5.433.873 5.56.499.126 3.868.884 4.242-.127.374-1.137-.873-3.158-.873-3.158s.873-2.401 2.745-1.643c1.871.758 3.368 3.159 5.738 2.274 2.371-.884 4.492-4.928 4.492-4.928l34.683-26.029-8.609-9.477z" fill="#fff" stroke="#263238" stroke-miterlimit="10" stroke-linecap="round" stroke-linejoin="round"/><path d="M200.941 218.221c0-2.148-1.746-3.917-3.867-3.917s-3.868 1.769-3.868 3.917c0 2.148 1.747 3.917 3.868 3.917 2.121-.126 3.867-1.769 3.867-3.917zm100.431 3.538s-4.99 2.527-10.978 3.032c-5.989.506-10.106-.252-8.734 4.17 1.373 4.423 10.73 5.307 17.591 3.665 6.862-1.643 10.106-4.17 9.357-8.593-.998-4.549-5.115-3.159-7.236-2.274z" fill="#263238"/><path d="M279.664 212.029s-42.293 31.716-43.416 38.413c-1.123 6.697 6.612 57.241 6.612 57.241l6.613 2.274s3.618-45.11 7.111-53.702c3.618-8.593 39.049-28.936 39.798-39.171.873-10.362-7.985-10.362-16.718-5.055z" fill="#263238"/><path d="M242.86 307.683s-2.744.884-6.362 1.137-8.484-1.643-8.484-.253c0 1.39 5.988 6.697 9.107 6.95 2.995.253 6.862.505 6.862.505l.125 2.148 3.992 1.138 1.373-9.477-6.613-2.148z" fill="#263238"/><path d="M244.129 318.207l-13.023-6.678-1.86 3.721 13.023 6.678 1.86-3.721z" fill="#fff" stroke="#263238" stroke-miterlimit="10" stroke-linecap="round" stroke-linejoin="round"/><path d="M236.622 316.654l16.718 11.625 1.622-4.043-17.841-8.719-.499 1.137z" fill="#fff" stroke="#263238" stroke-miterlimit="10" stroke-linecap="round" stroke-linejoin="round"/><path d="M323.704 323.856l-33.435-85.165c-.125-.253-.25-.379-.375-.632l1.747-4.675c.374-.885-.125-1.769-.998-2.148-.873-.379-1.747.126-2.121 1.011l-3.867 10.361h-80.47c1.497-5.939 2.121-9.603 2.246-9.73.125-.884-.375-1.769-1.248-2.021-.873-.127-1.746.379-1.996 1.263-.125.506-11.478 56.735-33.56 93.758-.499.758-.25 1.769.499 2.275.249.126.499.252.873.252.499 0 1.123-.252 1.373-.758 11.727-19.712 20.46-44.604 26.074-63.937l54.645 65.454.374.758c.624.884 1.622 1.39 2.62 1.39h.125l64.5-2.78c.998 0 1.996-.632 2.62-1.517.748-1.01.748-2.148.374-3.159zm-120.392-78.089h80.095l-29.443 78.974-54.27-65.075c1.497-5.18 2.62-9.856 3.618-13.899zM256.21 327.9l31.938-85.418 32.437 82.638-64.375 2.78z" fill="#fff" stroke="#263238" stroke-miterlimit="10" stroke-linecap="round" stroke-linejoin="round"/><path d="M208.552 232.373c0-2.148-1.747-3.917-3.868-3.917-2.121 0-3.867 1.769-3.867 3.917 0 2.148 1.746 3.917 3.867 3.917 2.246-.126 3.868-1.769 3.868-3.917z" fill="#fff" stroke="#263238" stroke-miterlimit="10" stroke-linecap="round" stroke-linejoin="round"/><path d="M176.489 326.636c0-3.032-2.371-5.559-5.49-5.559s-5.489 2.4-5.489 5.559c0 3.033 2.37 5.56 5.489 5.56 3.119 0 5.49-2.527 5.49-5.56zm151.083 0c0-3.032-2.371-5.559-5.49-5.559-2.994 0-5.489 2.4-5.489 5.559 0 3.033 2.37 5.56 5.489 5.56 3.119-.126 5.49-2.527 5.49-5.56zm-61.132 0c0-6.318-4.991-11.372-11.229-11.372-6.237 0-11.228 5.054-11.228 11.372s4.991 11.373 11.228 11.373c6.238 0 11.229-5.181 11.229-11.373z" fill="#263238"/><path d="M272.303 328.784l-17.341-4.675c-1.372-.379-2.745.506-3.119 1.769-.374 1.516.624 3.033 2.121 3.159l19.462 2.654-1.123-2.907z" fill="#fff" stroke="#263238" stroke-miterlimit="10" stroke-linecap="round" stroke-linejoin="round"/><path d="M279.654 321.818l-9.818 10.94 3.047 2.805 9.817-10.941-3.046-2.804z" fill="#fff" stroke="#263238" stroke-miterlimit="10" stroke-linecap="round" stroke-linejoin="round"/><path d="M279.415 210.892s-33.186 31.084-34.808 39.677c-1.622 8.592 32.063 64.316 32.063 64.316l6.612-2.274s-18.963-48.901-16.468-52.565c2.495-3.665 46.785-33.991 53.397-44.226 6.612-10.235 2.869-20.596-2.121-25.272-4.99-4.675-38.675 20.344-38.675 20.344z" fill="#263238"/><path d="M257.457 250.569l9.232 9.477-4.616-11.499" stroke="#fff" stroke-width=".75" stroke-miterlimit="10" stroke-linecap="round" stroke-linejoin="round"/><path d="M250.97 269.27s-6.737-16.68-4.741-21.86c1.996-5.181 35.057-30.453 35.057-30.453s16.468-5.686 27.697-3.411m-9.108-3.033s5.739-2.78 14.223.379" stroke="#fff" stroke-width=".75" stroke-miterlimit="10" stroke-linecap="round" stroke-linejoin="round"/><path d="M276.67 314.885s-2.994 3.285-5.988 6.444c-2.995 3.033-6.862 3.917-5.49 4.676 1.373.884 3.618 1.642 7.735.252 4.117-1.39 9.357-6.065 9.357-6.065l.873 1.39 4.617-2.527-4.367-6.444-6.737 2.274z" fill="#263238"/><path d="M259.828 100.202c-4.117-4.422-11.478-7.076-17.467-6.065-5.863 1.137-7.485 9.098-8.608 14.026l-.998 4.422.125 3.412-1.872 7.202c-.249.885.375 1.896 1.373 2.022l2.121.253c.374 2.401 2.744 7.076 2.994 8.719 1.247 6.317 5.364 5.938 7.984 4.928 1.123-.38 2.995-1.643 4.741-3.159l6.238 5.307 11.104-12.257-4.741-6.95s1.372-17.185-2.994-21.86z" fill="#fff" stroke="#263238" stroke-miterlimit="10" stroke-linecap="round" stroke-linejoin="round"/><path d="M237.121 117.766c.125 1.011 0 1.895-.374 1.895-.374.127-.873-.631-.998-1.642s0-1.896.374-1.896c.375-.126.874.632.998 1.643z" fill="#263238"/><path d="M234.127 113.849s2.62-2.275 4.616.632" stroke="#263238" stroke-miterlimit="10" stroke-linecap="round" stroke-linejoin="round"/><path d="M243.484 106.773s-3.368 4.043-2.121 5.433c1.248 1.517 5.365 4.802 5.365 4.802s2.869-5.307 7.111-3.159c4.117 2.148.873 7.202 2.246 9.224 1.497 2.148 6.487-1.011 6.862-2.148.374-1.011 7.859-16.427 8.358-22.113.375-5.686-14.971-11.372-21.583-12.636-6.612-1.263-11.602 1.643-10.355.38 1.248-1.264 3.369-4.676-.624-5.055-3.992-.379-9.107 5.686-9.107 9.224 0 3.538 3.493 3.791 3.493 3.791s-9.981-2.527-7.236 3.412 7.236 5.686 11.478 5.939c3.992.379 6.113 2.906 6.113 2.906z" fill="#263238"/><path d="M251.094 114.607h-.124c-.624-.126-1.123-.758-1.123-1.39l1.497-13.015c.125-.632.624-1.137 1.372-1.137.624.126 1.123.758 1.123 1.39l-1.497 13.015c0 .632-.624 1.137-1.248 1.137z" fill="#fff" stroke="#263238" stroke-miterlimit="10"/><path d="M250.595 126.864c-3.119 0-5.738-2.654-5.738-5.813v-5.433c0-3.159 2.619-5.813 5.738-5.813s5.739 2.654 5.739 5.813v5.433c0 3.159-2.62 5.813-5.739 5.813zm1.373-39.55l-1.872 13.394a2.491 2.491 0 002.246 2.906h.125c1.372.126 2.62-.885 2.869-2.275l1.622-13.52c.125-1.39-.748-2.654-2.246-2.906-1.247.126-2.495 1.01-2.744 2.4z" fill="#fff" stroke="#263238" stroke-miterlimit="10"/><path d="M269.184 124.084s-19.961 18.322-19.711 21.354c.249 3.033-.375 16.68 7.111 31.969 7.361 15.289 16.343 28.178 19.587 33.991 3.244 5.812 12.85 1.516 12.85 1.516s20.211-7.203 26.823-13.521c6.613-6.444 0-18.069 0-18.069s-24.328-35.254-32.312-43.972c-7.985-8.593-14.348-13.268-14.348-13.268z" fill="#BAEF00" stroke="#263238" stroke-miterlimit="10" stroke-linecap="round" stroke-linejoin="round"/><path d="M249.098 148.092s4.117-3.664 7.361-6.697c3.244-3.033 19.962-6.444 24.079-5.56 4.117.885 5.239 4.675 5.988 4.423.873-.253 1.248-5.686-3.119-13.015-4.367-7.329-10.979-10.488-14.597-8.213-3.493 2.274-12.226 13.52-15.969 18.069-3.743 4.675-5.24 7.329-3.743 10.993z" fill="#BAEF00" stroke="#263238" stroke-miterlimit="10" stroke-linecap="round" stroke-linejoin="round"/><path d="M267.438 172.226s13.349 1.138 22.706-.758m-27.946 1.896s12.601 7.96 25.7 8.718" stroke="#263238" stroke-miterlimit="10" stroke-linecap="round" stroke-linejoin="round"/><path d="M273.925 140.005s-6.861-2.527-12.351.505c-5.489 3.033-27.572 35.254-27.572 35.254l11.229 12.131 34.433-22.113" fill="#BAEF00"/><path d="M273.925 140.005s-6.861-2.527-12.351.505c-5.489 3.033-27.572 35.254-27.572 35.254l11.229 12.131 34.433-22.113" stroke="#263238" stroke-miterlimit="10" stroke-linecap="round" stroke-linejoin="round"/><path d="M234.002 172.858s-3.742 3.412-3.618 4.549c.125 1.137 10.605 12.51 11.853 13.268 1.247.758 5.364-2.401 5.239-3.917-.124-1.517-12.101-13.773-12.101-13.773s-.624-1.138-1.373-.127z" fill="#C6FF00" stroke="#263238" stroke-miterlimit="10" stroke-linecap="round" stroke-linejoin="round"/><path d="M2.949 378.317h488.306c1.497 0 2.62-1.264 2.62-2.654 0-1.516-1.123-2.653-2.62-2.653H2.949c-1.497 0-2.62 1.263-2.62 2.653 0 1.517 1.123 2.654 2.62 2.654z" fill="#263238"/></g><defs><clipPath id="clip0_83_730"><path fill="#fff" transform="translate(.33)" d="M0 0h493.671v378.317H0z"/></clipPath></defs></svg>