<svg width="293" height="82" fill="none" xmlns="http://www.w3.org/2000/svg"><path d="M281.31 2.358c5.021 0 9.089 3.82 9.089 8.533v60.95c0 4.714-4.068 8.533-9.089 8.533H10.82c-5.02 0-9.089-3.82-9.089-8.533v-60.95c0-4.714 4.068-8.533 9.089-8.533h270.49zm0-1.626H10.82C4.869.732 0 5.304 0 10.891v60.95C0 77.43 4.869 82 10.82 82h270.49c5.951 0 10.82-4.572 10.82-10.159v-60.95c0-5.587-4.869-10.159-10.82-10.159z" fill="#fff"/><path d="M102.613 21.538c0 1.706-.541 3.067-1.623 4.063-1.212 1.199-2.813 1.808-4.761 1.808-1.883 0-3.462-.61-4.782-1.828-1.32-1.22-1.97-2.743-1.97-4.53 0-1.81.65-3.313 1.97-4.532 1.32-1.219 2.9-1.828 4.782-1.828.93 0 1.818.162 2.662.508.843.345 1.514.792 2.034 1.361l-1.147 1.077c-.866-.955-2.034-1.443-3.549-1.443-1.363 0-2.553.447-3.549 1.362-.995.893-1.493 2.072-1.493 3.514 0 1.443.498 2.621 1.493 3.515a5.164 5.164 0 003.549 1.361c1.45 0 2.662-.447 3.635-1.36.628-.59.996-1.423 1.082-2.48h-4.717v-1.483h6.297c.043.325.087.63.087.915zm9.975-5.079h-5.907v3.86h5.323v1.463h-5.323v3.86h5.907v1.503h-7.574v-12.19h7.574v1.504zm7.033 10.686h-1.666V16.46h-3.635v-1.504h8.915v1.504H119.6v10.686h.021zm10.084 0v-12.19h1.666v12.19h-1.666zm9.068 0h-1.667V16.46h-3.635v-1.504h8.915v1.504h-3.635v10.686h.022zm20.513-1.585c-1.277 1.24-2.857 1.849-4.761 1.849s-3.484-.61-4.76-1.849c-1.277-1.24-1.905-2.743-1.905-4.51 0-1.768.628-3.292 1.905-4.51 1.276-1.24 2.856-1.85 4.76-1.85 1.883 0 3.462.61 4.761 1.85 1.276 1.239 1.926 2.742 1.926 4.51-.022 1.787-.65 3.29-1.926 4.51zm-8.288-1.016c.952.914 2.142 1.361 3.527 1.361 1.385 0 2.575-.447 3.527-1.36.952-.915 1.45-2.073 1.45-3.495 0-1.423-.476-2.58-1.45-3.495-.952-.914-2.142-1.381-3.527-1.381-1.385 0-2.575.447-3.527 1.36-.952.935-1.45 2.093-1.45 3.516 0 1.422.498 2.58 1.45 3.494zm12.551 2.601v-12.19h2.034l6.319 9.488h.065l-.065-2.357v-7.13h1.666v12.19h-1.731l-6.6-9.936h-.065l.065 2.357v7.578h-1.688z" fill="#fff" stroke="#fff" stroke-width=".406" stroke-miterlimit="10"/><path d="M147.45 44.922c-5.085 0-9.24 3.636-9.24 8.634 0 4.978 4.155 8.635 9.24 8.635 5.086 0 9.24-3.657 9.24-8.635 0-4.998-4.154-8.634-9.24-8.634zm0 13.876c-2.791 0-5.193-2.154-5.193-5.242 0-3.108 2.402-5.242 5.193-5.242 2.792 0 5.194 2.134 5.194 5.242 0 3.088-2.424 5.242-5.194 5.242zM127.283 44.92c-5.086 0-9.24 3.637-9.24 8.635 0 4.978 4.154 8.635 9.24 8.635 5.085 0 9.24-3.657 9.24-8.635 0-4.998-4.155-8.634-9.24-8.634zm0 13.877c-2.792 0-5.194-2.154-5.194-5.242 0-3.108 2.402-5.242 5.194-5.242 2.791 0 5.193 2.134 5.193 5.242 0 3.088-2.402 5.242-5.193 5.242zm-23.977-11.215v3.657h9.349c-.282 2.052-1.018 3.576-2.121 4.612-1.363 1.28-3.484 2.682-7.206 2.682-5.756 0-10.257-4.348-10.257-9.752 0-5.405 4.501-9.752 10.257-9.752 3.094 0 5.367 1.137 7.033 2.62l2.748-2.58c-2.337-2.092-5.432-3.697-9.803-3.697-7.876 0-14.498 6.013-14.498 13.429 0 7.395 6.622 13.43 14.498 13.43 4.263 0 7.466-1.3 9.976-3.76 2.575-2.417 3.376-5.83 3.376-8.573 0-.853-.065-1.645-.217-2.296h-13.135v-.02zm98.048 2.844c-.758-1.93-3.095-5.505-7.877-5.505-4.739 0-8.677 3.494-8.677 8.634 0 4.836 3.895 8.635 9.131 8.635 4.22 0 6.665-2.418 7.661-3.82l-3.138-1.97c-1.039 1.442-2.467 2.397-4.523 2.397-2.055 0-3.527-.894-4.457-2.621l12.312-4.774-.432-.976zm-12.551 2.885c-.108-3.332 2.748-5.038 4.804-5.038 1.601 0 2.964.752 3.419 1.828l-8.223 3.21zm-9.997 8.37h4.046V36.288h-4.046v25.396zm-6.622-14.83h-.152c-.908-1.016-2.64-1.93-4.847-1.93-4.609 0-8.829 3.799-8.829 8.675 0 4.835 4.22 8.614 8.829 8.614 2.186 0 3.939-.914 4.847-1.97h.13v1.239c0 3.311-1.882 5.079-4.912 5.079-2.467 0-4.003-1.666-4.631-3.068l-3.527 1.382c1.017 2.295 3.701 5.1 8.158 5.1 4.739 0 8.742-2.622 8.742-9.001V45.45h-3.83v1.402h.022zm-4.652 11.946c-2.792 0-5.129-2.194-5.129-5.201 0-3.048 2.337-5.262 5.129-5.262 2.748 0 4.912 2.235 4.912 5.262.021 3.007-2.143 5.2-4.912 5.2zm52.778-22.511h-9.673v25.396h4.046v-9.63h5.648c4.479 0 8.872-3.048 8.872-7.883 0-4.836-4.436-7.883-8.893-7.883zm.086 12.23h-5.734v-8.715h5.734c3.03 0 4.739 2.356 4.739 4.347 0 1.992-1.709 4.369-4.739 4.369zm24.972-3.636c-2.922 0-5.951 1.219-7.206 3.88l3.592 1.402c.757-1.402 2.186-1.869 3.679-1.869 2.099 0 4.219 1.178 4.241 3.271v.264c-.736-.386-2.294-.975-4.22-.975-3.873 0-7.79 1.991-7.79 5.709 0 3.393 3.159 5.587 6.708 5.587 2.705 0 4.22-1.138 5.15-2.478h.13v1.97h3.895V51.91c.022-4.51-3.57-7.03-8.179-7.03zm-.498 13.917c-1.32 0-3.159-.63-3.159-2.154 0-1.95 2.293-2.702 4.284-2.702 1.775 0 2.619.366 3.679.853-.303 2.337-2.467 4.003-4.804 4.003zm22.894-13.369l-4.631 11.012h-.129L258.2 45.43h-4.35l7.206 15.4-4.111 8.554h4.219l11.101-23.954h-4.501zM231.41 61.683h4.047V36.287h-4.047v25.396z" fill="#fff"/><path d="M22.59 16.05c-.627.63-.995 1.606-.995 2.845v44.941c0 1.26.368 2.235.995 2.845l.152.142 26.81-25.152v-.61l-26.81-25.152-.152.142z" fill="url(#paint0_linear_479_1745)"/><path d="M58.492 50.061l-8.937-8.39v-.61l8.937-8.391.195.102 10.582 5.648c3.03 1.605 3.03 4.246 0 5.871L58.687 49.94l-.195.122z" fill="url(#paint1_linear_479_1745)"/><path d="M58.686 49.96l-9.132-8.594L22.592 66.68c.995.996 2.64 1.118 4.5.122L58.687 49.96z" fill="url(#paint2_linear_479_1745)"/><path d="M58.686 32.792L27.071 15.93c-1.86-.995-3.505-.873-4.5.122l26.983 25.315 9.132-8.574z" fill="url(#paint3_linear_479_1745)"/><path opacity=".2" d="M58.49 49.757L27.07 66.518c-1.752.935-3.332.874-4.327.02l-.151.143.151.142c1.017.853 2.575.914 4.328-.02L58.686 49.94l-.195-.183z" fill="#000"/><path opacity=".12" d="M22.59 66.396c-.628-.63-.995-1.605-.995-2.844v.304c0 1.26.367 2.235.995 2.845l.151-.142-.151-.163zm46.678-22.389l-10.798 5.75.195.182 10.582-5.648c1.514-.812 2.272-1.869 2.272-2.925-.109.955-.866 1.91-2.25 2.64z" fill="#000"/><path opacity=".25" d="M27.071 16.213l42.197 22.511c1.363.732 2.142 1.666 2.272 2.642 0-1.057-.757-2.134-2.272-2.926L27.071 15.929c-3.03-1.605-5.496-.264-5.496 2.987v.304c0-3.27 2.489-4.612 5.496-3.007z" fill="#fff"/><defs><linearGradient id="paint0_linear_479_1745" x1="47.172" y1="18.428" x2="13.143" y2="54.671" gradientUnits="userSpaceOnUse"><stop stop-color="#00A0FF"/><stop offset=".007" stop-color="#00A1FF"/><stop offset=".26" stop-color="#00BEFF"/><stop offset=".512" stop-color="#00D2FF"/><stop offset=".76" stop-color="#00DFFF"/><stop offset="1" stop-color="#00E3FF"/></linearGradient><linearGradient id="paint1_linear_479_1745" x1="73.216" y1="41.369" x2="20.856" y2="41.369" gradientUnits="userSpaceOnUse"><stop stop-color="#FFE000"/><stop offset=".409" stop-color="#FFBD00"/><stop offset=".775" stop-color="orange"/><stop offset="1" stop-color="#FF9C00"/></linearGradient><linearGradient id="paint2_linear_479_1745" x1="53.724" y1="46.031" x2="7.578" y2="95.18" gradientUnits="userSpaceOnUse"><stop stop-color="#FF3A44"/><stop offset="1" stop-color="#C31162"/></linearGradient><linearGradient id="paint3_linear_479_1745" x1="15.791" y1="1.09" x2="36.397" y2="23.038" gradientUnits="userSpaceOnUse"><stop stop-color="#32A071"/><stop offset=".069" stop-color="#2DA771"/><stop offset=".476" stop-color="#15CF74"/><stop offset=".801" stop-color="#06E775"/><stop offset="1" stop-color="#00F076"/></linearGradient></defs></svg>