<svg viewBox="-21 -139 681.332 681" xmlns="http://www.w3.org/2000/svg"><path d="M97.352 175.469V157.37a9.352 9.352 0 00-9.356-9.355c-5.164 0-9.355 4.187-9.355 9.355v18.09c0 5.172 4.191 9.36 9.355 9.36a9.35 9.35 0 009.356-9.352zm0 0"/><path d="M636.719 150.82c3.98-9.968 2.02-21.14-5.117-29.152-7.141-8.02-18.012-11.258-28.372-8.457-.21.059-.414.121-.62.195l-12.876 4.465a9.352 9.352 0 00-5.773 11.906 9.353 9.353 0 0011.906 5.774l12.512-4.336c3.437-.836 6.879.238 9.246 2.898 2.434 2.723 3.07 6.38 1.715 9.77l-11.88 29.773c-8.776 21.973-8.776 46.176 0 68.156 0 0 11.856 29.72 11.88 29.77 2.785 6.98-3.633 14.422-10.93 12.68l-76.73-27.266c.03-.02.058-.043.093-.062 16.485-10.664 26.743-29.567 26.743-49.2 0-12.66-4.2-25.191-11.825-35.285-4.308-5.699-9.636-10.535-15.66-14.363-.02-.012-.035-.02-.047-.031l29.91-10.375c4.883-1.692 7.473-7.024 5.778-11.907-1.692-4.882-7.024-7.464-11.906-5.773l-51.016 17.691c-9.695-3.097-20.219-6.761-31.527-10.836 4.675-26.496 3.242-42.19-4.54-51.73-5.042-6.18-12.39-9.312-21.84-9.312-14.929 0-36.359 7.796-71.25 25.98-28.429-9.531-58.093-18.426-87.952-25.027-.883-10.262 4.226-18.399 10.03-27.606 5.731-9.086 11.657-18.488 11.595-30.328-.079-15.266-13.207-27.57-28.782-26.504-70.703 4.824-112.222 59.332-122.757 75.016C53.5 78.168 14.512 133.125 2.469 156.492c-4.946 9.54-2.278 21.184 6.347 27.696l43.352 32.699-20.895 11.886a18.28 18.28 0 00-8.855 12.211 18.321 18.321 0 003.352 14.746c8.648 11.395 28.066 32.153 63.156 47.583.039 3.68.543 7.375 1.61 10.996 15.698 53.418 34.288 81.656 53.757 81.656 6.098 0 11.574-2.832 15.426-7.977 2.781-3.718 4.52-8.422 5.144-13.523 7.125-.156 13.188-3.965 16.68-10.492 3.277-6.121 4.027-14.387 2.473-22.403 6.789-2.508 12.09-8.316 13.875-15.797.183-.77.343-1.644.464-2.617 25.188-.273 52.747-2.777 84.063-7.648 5.105-.797 8.602-5.578 7.805-10.684-.793-5.11-5.578-8.597-10.68-7.808-31.984 4.976-59.832 7.414-85.106 7.453-5.07-9.719-15.847-21.438-37.578-33.696.47-.562.922-1.14 1.387-1.71a171.91 171.91 0 0010.746-14.735c.024-.035.047-.074.07-.11.426.266 9.028 5.356 13.032 7.419a.19.19 0 00.05.023c12.57 6.473 26.645 12.063 41.051 11.258 13.438-.75 27.465-9.418 27.086-24.418-.035-1.176-.136-2.355-.355-3.512.238-.082.476-.18.719-.27 9.593-3.636 19.296-11.179 20.18-22.16 0-.023 0-.05.003-.074.23-2.968-.168-6.77-2.398-10.726 6.953-5.371 11.02-12.856 10.492-20.442 0-.035-.004-.062-.004-.097-1.086-14.563-16.91-20.09-29.297-21.45-12.281-1.347-28.262-.136-47.633 3.579-1.195.23-5.976 1.199-6.172 1.238.727-9.82.579-19.684-.379-29.48-2.05-21.047-8.125-41.735-17.765-60.555.082-.004.16-.008.242-.016 22.402-1.012 44.57.34 66.742 3.535 43.399 6.254 86.285 18.188 127.61 32.684.043.016.078.035.117.05 44.258 14.97 87.539 33.173 132.254 46.758 19.242 5.848 35.164 18.36 35.164 40.172 0 19-13.903 35.778-32.614 39.176-64.113 11.652-126.609 31.05-190.582 43.559-5.066.992-8.375 5.91-7.382 10.976.992 5.075 5.906 8.383 10.976 7.39 16.18-3.163 32.363-6.69 48.192-10.331 37.25 19.555 60.703 30.133 76.77 30.137 8.226 0 14.66-2.774 19.116-8.239 6.914-8.468 8.188-22.109 4.055-46.047 12.348-2.902 24.059-5.511 34.84-7.628l99.367 35.308c10.031 3.578 22.164-.492 29.059-8.234 7.14-8.016 9.101-19.188 5.12-29.153l-11.882-29.77c-6.988-17.507-6.988-36.784 0-54.284zM445.844 94.523c5.355 0 6.797 1.77 7.336 2.434 2.605 3.188 4.675 11.633 1.16 33.383a3597.07 3597.07 0 01-10.07-3.703l-.317-.117-9.605-3.532-1.524-.558a3667.271 3667.271 0 00-22.02-8.016l-.027-.008c-3.804-1.37-7.64-2.738-11.507-4.11 17.156-8.288 35.44-15.773 46.574-15.773zM280.75 10.993c4.758-.321 8.777 3.355 8.8 7.925.036 6.39-4.019 12.816-8.714 20.258-5.754 9.129-12.57 19.945-13.031 33.738-9.47-1.758-18.926-3.25-28.356-4.43-19.23-2.402-38.601-3.437-57.976-2.812 16.343-19.567 50.136-51.324 99.277-54.68zM40.96 244.784l24.481-13.93c9.621-5.472 10.485-19.48 1.68-26.132l-47.039-35.477c-1.309-.992-1.734-2.734-.988-4.168 10.593-20.562 45.054-68.754 138.11-78.969a149.425 149.425 0 0113.296 30.098c6.406 20.25 8.492 41.887 6.094 62.988-.16.051-.313.118-.473.164-12.945 4.25-23.18 15.137-26.8 28.254-3.157 11.426-.989 23.996 5.714 33.75-.183.293-.367.586-.55.875a152.585 152.585 0 01-11.755 16.23 167.622 167.622 0 01-3.773 4.384c-.426-.098-.852-.176-1.277-.258a41.2 41.2 0 00-7.868-.781 41.178 41.178 0 00-24.964 8.484 41.11 41.11 0 00-11.762 14.367c-28.734-13.348-44.742-30.258-52.125-39.879zm159.395-52.113c16.708-3.598 34.36-7.024 51.403-3.68 6.73 1.383 8.484 3.582 8.5 3.606.055.933-1.961 4.168-6.578 6.336-1.067.5-2.278.945-3.625 1.289-7.926 2.027-9.516 13.152-2.262 17.226 2.156 1.211 3.316 2.258 3.898 2.922.274.313.54.629.383 1.063-.008.027-.012.046-.023.078-2.32 5.539-11.477 7.52-16.817 7.25-9.328-.469-13.414 12.164-5.539 17.218 1.57 1.008 2.414 3.012 1.387 4.715-2.254 3.743-8.32 3.75-12.082 3.52-8.59-.512-16.977-3.754-24.668-7.406-7.426-3.536-15.316-6.922-21.207-12.836-4.738-4.758-7.164-11.668-6.367-18.344 1.066-8.953 7.844-16.668 16.57-18.902 5.613-1.434 11.3-2.825 17.027-4.055zm-20.671 128.766c-.567 2.37-2.965 3.37-5.16 2.273-8.36-4.176-17.176 5.754-11.977 13.559 5.113 7.667 3.656 17.296 2.125 18.46 0 0-.082.024-.277.024-.434 0-2.09-.137-5.153-1.906-7.152-4.121-15.984 2.824-13.652 10.746 2.101 7.14-.317 12.14-1.297 12.656-4.09 0-19.441-12.535-35.809-68.227-2.515-8.554.692-18.449 7.782-23.902 6.175-4.746 14.773-5.867 21.98-2.934.024.012.047.02.078.032 7.801 3.199 15.117 7.586 21.86 12.629 6.84 5.117 13.832 10.82 17.789 18.566.02.04.043.078.062.117 1.727 3.422 2.07 6.133 1.649 7.906zm270.101-12.868c-.305.371-1.105 1.356-4.625 1.356-9.504-.004-26.305-6.895-48.703-18.051 4.14-1.004 53.738-12.559 53.64-13.152 3.497 21.047 1.419 27.73-.312 29.847zm0 0"/></svg>