<svg viewBox="0 0 64 64" xmlns="http://www.w3.org/2000/svg"><path d="M55 33l-7.652 3.601a46.218 46.218 0 01-38.206.524l-6.226-2.724a1.531 1.531 0 010-2.802l6.226-2.724a46.22 46.22 0 0138.206.524z" fill="#c1c8d1"/><path d="M46.177 37.132a46.23 46.23 0 01-8.393 2.747L38 40a18.977 18.977 0 0012 0z" fill="#e7e4dd"/><path d="M35.151 25.61L40 21.86a15.79 15.79 0 00-11.773.601l-6.271 2.894a46.104 46.104 0 0113.195.255z" fill="#d5cec2"/><path d="M25 33h-9.19c-.1.394-.238.776-.41 1.141l.008-.018L25 37z" fill="#fadfb2"/><path d="M55 33l-7.652-3.601a46.218 46.218 0 00-29.344-3.377L18 26l-1.342 2.684A6.228 6.228 0 0016 31.471 6.23 6.23 0 0115.81 33z" fill="#758190"/><path d="M11.112 37.933l1.862-1.117A6.235 6.235 0 0016 31.471c0-.968.225-1.922.658-2.787l1.329-2.659a46.24 46.24 0 00-8.845 2.85l-6.226 2.724a1.531 1.531 0 000 2.802l6.226 2.724c.651.285 1.308.554 1.97.808z" fill="#e7e4dd"/><path d="M60 33l2 10a34.86 34.86 0 01-6.53-9.06L55 33l.47-.94A34.87 34.87 0 0162 23z" fill="#d5cec2"/><path d="M21 33l-.001-1.583a5.03 5.03 0 00-.527-2.236l-.367-.734 1.79-.893.366.733c.483.966.738 2.048.738 3.129v1.583zm4 0l-.001-1.377c0-.97-.155-1.928-.461-2.846l-.487-1.461 1.897-.632.487 1.461a10.96 10.96 0 01.564 3.479V33zm4 0l-.001-1.377c0-.97-.155-1.928-.461-2.846l-.487-1.461 1.897-.632.487 1.461a10.96 10.96 0 01.564 3.479V33zm4 0l-.001-1.377c0-.97-.155-1.928-.461-2.846l-.487-1.461 1.897-.632.487 1.461a10.96 10.96 0 01.564 3.479V33z" fill="#8892a0"/><path d="M12.5 32.999c-.827 0-1.5-.673-1.5-1.5s.673-1.5 1.5-1.5 1.5.673 1.5 1.5-.673 1.5-1.5 1.5z" fill="#606060"/><path d="M37 33v-1.052c0-1.186-.19-2.356-.564-3.479l1.897-.633c.442 1.327.667 2.71.667 4.111v1.052z" fill="#8892a0"/></svg>