<svg viewBox="0 -23 480.329 480" xmlns="http://www.w3.org/2000/svg" xmlns:xlink="http://www.w3.org/1999/xlink"><linearGradient id="a"><stop offset="0" stop-color="#7ed4ef"/><stop offset=".229" stop-color="#66bfe6"/><stop offset=".711" stop-color="#298bd0"/><stop offset="1" stop-color="#0169c2"/></linearGradient><linearGradient id="b" gradientUnits="userSpaceOnUse" x1="-7.671" x2="485.609" xlink:href="#a" y1="217.027" y2="217.027"/><linearGradient id="c" gradientUnits="userSpaceOnUse" x1="-7.671" x2="485.609" xlink:href="#a" y1="260.571" y2="260.571"/><linearGradient id="d" gradientUnits="userSpaceOnUse" x1="-7.67" x2="485.61" xlink:href="#a" y1="141.319" y2="141.319"/><linearGradient id="e" gradientUnits="userSpaceOnUse" x1="-7.671" x2="485.609" xlink:href="#a" y1="393.315" y2="393.315"/><linearGradient id="f" gradientUnits="userSpaceOnUse" x1="-7.671" x2="485.609" xlink:href="#a" y1="314.363" y2="314.363"/><linearGradient id="g" gradientUnits="userSpaceOnUse" x1="-7.671" x2="485.609" xlink:href="#a" y1="265.315" y2="265.315"/><linearGradient id="h" gradientUnits="userSpaceOnUse" x1="-7.671" x2="485.609" xlink:href="#a" y1="57.315" y2="57.315"/><linearGradient id="i" gradientUnits="userSpaceOnUse" x1="-7.671" x2="485.609" xlink:href="#a" y1="241.315" y2="241.315"/><linearGradient id="j" gradientUnits="userSpaceOnUse" x1="-7.671" x2="485.609" xlink:href="#a" y1="337.315" y2="337.315"/><path d="M337.77 24.8c-44.344-8.093-71.258-.863-90.704 57.723C240.488 38.395 220.168 4.34 168.891.73A186.576 186.576 0 0063.457 23.81C25.852 45.399 2.004 84.816.328 128.149c-6.07 86.238 73.227 266.214 130.52 296.277a37.005 37.005 0 0017.21 4.722 27.26 27.26 0 0017.247-6.187c22.25-17.805 42.129-61.813 56.984-114.024a263.61 263.61 0 0018.04 87.762 48.723 48.723 0 0038.585 35.887 71.398 71.398 0 0012.8 1.215c15.063 0 32.704-5.461 52.169-25.078 3.422-2.559 6.75-5.145 9.804-7.688 61.145-50.969 126.641-153.023 126.641-223.719 0-114.027-99.695-144.64-142.558-152.515zM16.328 129.317a109.208 109.208 0 0155.2-91.714 167.773 167.773 0 0183.6-21.352c4.204 0 8.407.148 12.61.441 41.301 2.91 61.43 27.727 65.262 84.664-15.984-22.44-45.285-52.039-88.672-52.039v16c57.938 0 88.395 66.582 88.695 67.254l.586-.254c-.074 3.36-.113 6.664-.265 10.192-25.559-29.899-73.352-69.36-138.95-52.953-48.738 12.183-67.007 53.91-72.8 94.449a208.858 208.858 0 01-5.266-54.688zm139 281.149c-2.832 2.265-7.672 4.7-17.016-.207-33.335-17.488-77.414-98.399-102.527-174.297-.351-5.75-.55-12.04-.527-18.645h69.07v-16H35.816c2.77-39.785 16.52-84.754 62.45-96.242 57.664-14.398 100.312 21.266 123.254 48.242h-69.192v16h79.313a756.283 756.283 0 01-22.618 128h-56.695v16h52.152c-13.558 45.325-30.742 82.399-49.152 97.149zm98.328-25.11c-8.8-37.19 2.688-98.16 13.793-157.113 1.602-8.601 3.2-17.129 4.742-25.496 2.602-14.254 4.993-26.703 7.344-37.719 5-6.543 37.883-47.32 68.672-28.855l8.242-13.715c-26.344-15.805-51.746-2.957-68.937 11.297 9.129-28.504 20.343-38.863 42.144-38.863a120.03 120.03 0 0121.235 2.296c33.855 6.168 53.597 16.743 64 34.297 13.91 23.504 11.91 61.215-6.114 115.301-25.054 75.203-50.402 125.074-76.496 150.625-20.289 14.785-37.96 21.68-50.48 19.39-10.52-1.917-19.352-10.741-26.399-25.245a80.602 80.602 0 01-1.746-6.2zm133.266-41.183a722.464 722.464 0 0036.992-92.328c19.582-58.746 21.125-100.801 4.711-128.512-16.61-28.059-48.734-37.129-74.855-41.89-70.512-12.848-80.227 24.671-97.305 118.44-1.527 8.337-3.13 16.802-4.735 25.4-5.152 27.32-10.363 55.042-13.671 80.984a631.585 631.585 0 01-.243-64.13 735.256 735.256 0 0010.512-80.82 506.09 506.09 0 001.137-21.714c16.976-90.094 32.969-108.614 85.418-99.086 48.344 8.902 129.445 38.472 129.445 136.8 0 48.735-35.566 116.047-77.406 166.856zm0 0" fill="url(#b)"/><path d="M302.73 369.156l.575.094c3.226.414 6.476.625 9.726.633 43.664 0 54.074-41.434 63.32-78.281a236.818 236.818 0 0115.176-46.711c10.68-21.368 12.985-37.786 7.203-51.672-7.8-18.817-29.601-29.399-59.867-39.496a33.7 33.7 0 00-29.46 1.816c-18.337 11.375-22.626 42.574-27.587 78.656a507.602 507.602 0 01-9.246 53.176c-6.64 26.438-5.043 47.543 4.559 62.742a42.873 42.873 0 0025.601 19.043zm-14.64-77.898a521.237 521.237 0 009.598-54.88c4.226-30.769 8.226-59.823 20.167-67.25a18.527 18.527 0 0116-.222c26.13 8.711 44.665 17.223 50.137 30.399 3.793 9.152 1.602 21.715-6.765 38.402a248.238 248.238 0 00-16.364 50.008c-10.91 43.488-19.383 69.984-55.117 65.719a27.181 27.181 0 01-15.312-12.16c-6.907-11.223-7.704-28.512-2.344-50.016zm0 0" fill="url(#c)"/><path d="M364.75 144.473l7.156-14.313 16 8-7.156 14.313zm0 0" fill="url(#d)"/><path d="M280.328 385.316h16v16h-16zm0 0" fill="url(#e)"/><path d="M327.45 335.715c11.198-6.945 16.878-22.55 16.878-46.399h-16c0 23.391-5.773 30.536-9.207 32.711a13.097 13.097 0 01-11.289.094l-7.078 14.395a30.704 30.704 0 0013.117 2.933 25.55 25.55 0 0013.578-3.734zm0 0" fill="url(#f)"/><path d="M328.328 257.316h16v16h-16zm0 0" fill="url(#g)"/><path d="M112.328 49.316h16v16h-16zm0 0" fill="url(#h)"/><path d="M72.328 233.316h80v16h-80zm0 0" fill="url(#i)"/><path d="M128.328 329.316h32v16h-32zm0 0" fill="url(#j)"/></svg>