<svg width="120" height="61" fill="none" xmlns="http://www.w3.org/2000/svg"><path d="M32.257 26.984l.172.169c.01.016.032.03.048.046.596.545 2.147 1.714 3.387.502.143-.145.311-.311.5-.494l.384-.375c.066-.066.131-.134.201-.201l1.108-1.085.456-.45 2.82-2.767s.007-.003.02-.013l.1-.107c.214-.241.557-.827-.184-1.607-.02-.025-.05-.049-.07-.071L27.458 7.045c-1.35-1.322-3.56-1.322-4.9 0L1.35 27.858a3.359 3.359 0 000 4.806L22.56 53.48c1.34 1.318 3.549 1.318 4.899 0l13.484-13.236c.866-.852.372-1.564.244-1.712l-.023-.03-5.707-5.598c-1.13-1.105-2.055-.465-2.317-.231a.51.51 0 00-.077.074L26 39.679a1.427 1.427 0 01-.994.401c-.373 0-.73-.144-.995-.401l-8.6-8.446a1.363 1.363 0 010-1.947l8.6-8.441a1.424 1.424 0 011.989 0l6.225 6.106v.003c.007.005.022.015.032.03z" fill="#9CA09E"/><path d="M70.733 27.432v-.002l-6.223-6.11a1.434 1.434 0 00-1.989 0l-8.604 8.441a1.37 1.37 0 000 1.95l8.604 8.443a1.43 1.43 0 001.99 0l1.157-1.138-5.666-5.68h13.916c.012.014.032.028.046.045l.09.09 5.615 5.509.025.03c.126.15.622.862-.245 1.71l-13.48 13.232c-1.354 1.325-3.558 1.325-4.904 0l-21.206-20.81a3.366 3.366 0 010-4.809L61.065 7.522c1.346-1.322 3.55-1.322 4.903 0l13.734 13.486c.027.02.053.047.071.071.74.779.403 1.367.192 1.606l-.107.106c-.01.01-.018.015-.018.015l-2.819 2.77-.456.446-1.103 1.086a4.52 4.52 0 00-.21.201l-.38.377c-.186.18-.355.345-.5.49-1.238 1.214-2.789.046-3.388-.5-.015-.016-.036-.031-.046-.047l-.173-.168c-.015-.014-.025-.025-.032-.03z" fill="#9CA09E"/><path d="M110.25 26.984l.172.169c.012.016.032.03.049.046.597.545 2.147 1.714 3.381.502.151-.145.32-.311.501-.494l.385-.375c.069-.066.135-.134.208-.201l1.101-1.085.459-.45 2.822-2.767s.007-.003.015-.013l.107-.107c.211-.241.55-.827-.189-1.607-.022-.025-.049-.049-.068-.071L105.446 7.045c-1.344-1.322-3.547-1.322-4.897 0L79.34 27.858a3.37 3.37 0 000 4.806l21.209 20.816c1.35 1.318 3.553 1.318 4.897 0l13.49-13.236c.866-.852.365-1.564.243-1.712l-.022-.03-5.708-5.598c-1.128-1.105-2.049-.465-2.314-.231a.758.758 0 00-.079.074l-7.064 6.932a1.43 1.43 0 01-1.987 0l-8.601-8.446a1.365 1.365 0 010-1.947l8.601-8.441a1.428 1.428 0 011.987 0l6.228 6.106v.003a.112.112 0 01.03.03z" fill="#9CA09E"/></svg>