<svg width="170" height="170" fill="none" xmlns="http://www.w3.org/2000/svg"><path d="M84.567 0S49.103 25.331 1.337 16.646c0 0-18.095 120.142 78.887 152.711 0 0 2.895 1.447 9.41 0 99.152-24.608 78.164-152.71 78.164-152.71C120.031 25.33 84.567 0 84.567 0z" fill="#407CCA"/><path d="M84.567 13.754s-29.674 20.989-69.48 13.751c0 0-15.198 99.877 65.861 128.103 0 0 2.895 1.448 7.961 0C172.14 134.62 154.77 27.505 154.77 27.505c-40.529 7.238-70.203-13.751-70.203-13.751z" fill="#fff"/><path d="M84.567 20.264S57.788 39.08 21.6 32.567c0 0-13.751 91.192 59.347 115.8 0 0 2.171 1.447 7.238 0 75.269-18.818 59.347-115.8 59.347-115.8-35.464 7.238-62.966-12.303-62.966-12.303z" fill="#3B5CAD"/><path d="M85.29 144.025c-.723 0-2.17 0-2.894-.723-69.48-15.923-55.729-105.667-55.729-105.667 33.292 5.79 57.9-12.304 57.9-12.304l.724 118.694z" fill="#407CCA"/><path d="M104.832 119.415H66.473c-4.342 0-7.961-3.618-7.961-7.961V81.057c0-4.343 3.619-7.961 7.961-7.961h38.359c4.342 0 7.961 3.618 7.961 7.96v30.398c0 4.343-3.619 7.961-7.961 7.961z" fill="#fff"/><path d="M101.937 76.716s5.066-31.121-15.199-31.121c-17.37 0-15.922 19.54-15.922 30.397" stroke="#fff" stroke-width=".628" stroke-miterlimit="10"/><path d="M93.976 92.64c0-4.342-3.62-7.96-7.962-7.96s-7.96 3.618-7.96 7.96c0 2.896 1.447 5.79 3.618 6.515v9.408h7.961v-8.685c2.171-1.447 4.343-4.342 4.343-7.237z" fill="#3B5CAD"/></svg>