<svg width="24" height="24" viewBox="0 0 24 24" fill="none" xmlns="http://www.w3.org/2000/svg">
<path fill-rule="evenodd" clip-rule="evenodd" d="M13.5878 3.2517C12.9368 2.91968 12.0546 2.91456 11.3984 3.24572C9.10476 4.73726 6.6796 6.15909 4.60231 7.58476C4.29314 7.83439 4.07373 8.19713 4.07747 8.62411C4.0812 9.04933 4.30508 9.40722 4.61237 9.65274C6.6796 10.8985 9.10476 12.3204 11.3477 13.9529C11.9987 14.2849 12.8809 14.29 13.5371 13.9588C15.8952 12.3204 16.8653 11.8464 20.3332 9.6198C20.6424 9.37017 20.8618 9.00743 20.8581 8.58046C20.8543 8.15524 20.6305 7.79734 20.3232 7.55183C18.3204 6.15909 15.8952 4.73726 13.5878 3.2517ZM12.0661 4.50902C12.2986 4.3917 12.6805 4.39281 12.9146 4.51218C14.9252 5.68515 16.8653 7.10698 19.3238 8.59018C17.3503 9.95065 15.4102 11.3725 12.8694 12.6955C12.6369 12.8129 12.255 12.8118 12.021 12.6924C9.70197 11.3725 7.64966 9.95065 5.61175 8.61438C7.64966 7.10698 9.10476 6.15909 12.0661 4.50902Z" fill="#7E74F1"/>
<path d="M21.3895 12.1029C21.6023 12.4359 21.4985 12.8745 21.1577 13.0824L15.2332 16.6966C14.4401 17.0598 13.4642 17.5337 12.5 17.5338C11.5358 17.5338 10.5599 17.0598 9.70197 16.6969L3.84245 13.1236C3.50157 12.9157 3.3977 12.4772 3.61044 12.1441C3.82318 11.811 4.27197 11.7095 4.61285 11.9174L10.4724 15.4907C11.0002 15.8126 11.7497 16.112 12.5 16.1119C13.2503 16.1119 13.9349 15.8125 14.4626 15.4905L20.3871 11.8763C20.7279 11.6684 21.1767 11.7698 21.3895 12.1029Z" fill="#7E74F1"/>
<path d="M21.3895 15.6619C21.6023 15.9949 21.4985 16.4334 21.1577 16.6414L16.0271 19.7722C14.4401 20.531 13.7178 20.9999 12.4676 21C11.2175 21.0001 9.5898 20.057 8.90793 19.7726L3.84237 16.6826C3.50152 16.4747 3.3977 16.0362 3.61048 15.7031C3.82326 15.3701 4.27207 15.2686 4.61292 15.4765L9.67848 18.5665C10.4284 19.0239 11.4314 19.4296 12.4676 19.4295C13.5039 19.4295 14.5067 19.0237 15.2564 18.5662L20.387 15.4354C20.7278 15.2275 21.1766 15.3288 21.3895 15.6619Z" fill="#7E74F1"/>
</svg>
