<svg width="237" height="44" fill="none" xmlns="http://www.w3.org/2000/svg"><path d="M14.667 2.068L1.38 22l13.288 19.932L27.955 22 14.667 2.068zm0-2.068l14.667 22-14.667 22L.001 22 14.667 0z" fill="#FFC22D"/><path d="M10.678 16.852l-1.31 1.76-.548 5.573v-6.13l1.858-1.203zm3.442-5.368l-1.702 1.79-.577 2.713V13.36l1.31-1.114v.058l.968-.821zM6.405 24.186H8.82l-2.21.41-.938 1.804.733-2.214z" fill="#FFC22D"/><path d="M12.81 15.356v-1.614l1.858-1.437v1.804l-1.858 1.247zm.753 10.897h-.577v-1.818l.576-.059v1.877zm0-3.945l-.577.132v-1.819l.576-.205v1.892zm0-3.696l-.577.264v-1.833l.576-.323v1.892zm-1.683 7.641h-.469V24.61l.47-.058v1.701zm0-3.549l-.469.102v-1.642l.47-.162v1.702zm0-3.329l-.469.205v-1.643l.47-.264v1.702zm-1.446 6.878h-.391v-1.496l.39-.044v1.54zm0-3.212l-.391.088v-1.495l.39-.133v1.54zm0-3.021l-.391.176V18.7l.39-.22v1.54z" fill="#FFC22D"/><path d="M14.119 11.484l.548-.528-1.516 1.29V9.974l1.516-2.2 1.515 2.2v2.274l1.31 1.114v2.64l3.031 2.04v6.13h2.406l.733 2.23h-8.995V14.108l1.857 1.247v-1.613l-1.857-1.438V11.03l-.548.455zm.068-1.144l-.46.425v.88l.46-.396v-.909zm2.161 6.703l-.586-.323v1.892l.586.264v-1.833zm0 3.578l-.586-.205v1.892l.586.132v-1.819zm0 3.814l-.586-.059v1.877h.586v-1.818zm2.552 1.818h.391v-1.496l-.39-.044v1.54zm0-3.212l.391.088v-1.496l-.39-.132v1.54zm0-3.02l.391.175V18.7l-.39-.22v1.54zm-1.447 6.232h.48v-1.642l-.48-.059v1.701zm0-3.549l.48.117V21.18l-.48-.162v1.687zm0-3.33l.48.22v-1.642l-.48-.264v1.687zm-2.386-8.11l.46.396v-.88l-.46-.425v.91z" fill="#FFC22D"/><path d="M14.12 11.484l-.968.821v-.058l1.516-1.276-.548.513zm11.353 14.843l-21.56.073 10.755 16.133 10.805-16.206z" fill="#FFC22D"/><path d="M52.147 19.5c-.594-3.281-3.22-5.219-6.438-5.219-4.094 0-7.063 3.156-7.063 8.219 0 5.063 2.97 8.219 7.063 8.219 3.219 0 5.844-1.938 6.438-5.219h-1.938c-.469 2.219-2.375 3.406-4.5 3.406-2.906 0-5.188-2.25-5.188-6.406s2.282-6.406 5.188-6.406c2.125 0 4.031 1.187 4.5 3.406h1.938zm2.255-3.281h5.032V30.5h1.937V16.219h5.031V14.5h-12v1.719zM69.392 30.5h1.938v-5.844h3.5c3.727 0 5.406-2.265 5.406-5.093 0-2.829-1.68-5.063-5.437-5.063h-5.406v16zm1.938-7.563V16.22h3.406c2.602 0 3.594 1.422 3.594 3.343 0 1.922-.992 3.375-3.562 3.375H71.33zm25.527-.437c0-5.063-2.968-8.219-7.062-8.219s-7.063 3.156-7.063 8.219c0 5.063 2.97 8.219 7.063 8.219 4.094 0 7.062-3.157 7.062-8.219zm-1.875 0c0 4.156-2.28 6.406-5.187 6.406-2.906 0-5.188-2.25-5.188-6.406s2.282-6.406 5.188-6.406c2.906 0 5.187 2.25 5.187 6.406zm5.133-8v16h1.875l8.719-12.563h.156V30.5h1.938v-16h-1.875l-8.75 12.594h-.157V14.5h-1.906zm7.875-4c0 .813-.437 1.531-1.531 1.531-1.094 0-1.5-.719-1.5-1.531h-1.719c0 1.688 1.25 2.875 3.219 2.875 2 0 3.25-1.188 3.25-2.875h-1.719zm18.096 20h2.312l-6.687-8.969 6.469-7.031h-2.313l-6.406 6.938h-.844V14.5h-1.937v16h1.937v-7.344h1.969l5.5 7.344zm17.564-8c0-5.063-2.968-8.219-7.062-8.219s-7.063 3.156-7.063 8.219c0 5.063 2.969 8.219 7.063 8.219 4.094 0 7.062-3.157 7.062-8.219zm-1.875 0c0 4.156-2.281 6.406-5.187 6.406s-5.188-2.25-5.188-6.406 2.282-6.406 5.188-6.406c2.906 0 5.187 2.25 5.187 6.406zm5.133 8h1.938v-7.156h8.531V30.5h1.937v-16h-1.937v7.125h-8.531V14.5h-1.938v16zm15.41-14.281h5.032V30.5h1.937V16.219h5.031V14.5h-12v1.719zM177.309 30.5h1.937v-5.844h3.5c3.727 0 5.406-2.265 5.406-5.093 0-2.829-1.679-5.063-5.437-5.063h-5.406v16zm1.937-7.563V16.22h3.406c2.602 0 3.594 1.422 3.594 3.343 0 1.922-.992 3.375-3.562 3.375h-3.438zm25.527-.437c0-5.063-2.968-8.219-7.062-8.219s-7.063 3.156-7.063 8.219c0 5.063 2.969 8.219 7.063 8.219 4.094 0 7.062-3.157 7.062-8.219zm-1.875 0c0 4.156-2.281 6.406-5.187 6.406s-5.188-2.25-5.188-6.406 2.282-6.406 5.188-6.406c2.906 0 5.187 2.25 5.187 6.406zm3.758 8h.594c3.531 0 4.242-2.875 4.438-7.906l.25-6.375h5.968V30.5h1.938v-16h-9.75l-.281 7.719c-.172 4.718-.688 6.5-2.688 6.5h-.469V30.5zm18.996-9.281V14.5h-1.937v16h6c3.437 0 5.312-1.938 5.312-4.719 0-2.781-1.875-4.562-5.312-4.562h-4.063zm0 1.718h4.063c2.187 0 3.406 1.282 3.406 2.813 0 1.563-1.219 3.063-3.406 3.063h-4.063v-5.875z" fill="#212B31"/></svg>