<svg width="1920" height="3226" fill="none" xmlns="http://www.w3.org/2000/svg"><g clip-path="url(#clip0_2492_20164)" fill="#FFCF2D"><g opacity=".2"><path d="M177.474 2778.5h9.527V2753h-25.454v9.59h15.927v15.91z"/><path d="M160.161 2795.71h9.6v-25.42h-25.527v9.51h15.927v15.91z"/><path d="M142.927 2813h9.6v-25.5H127v9.59h15.927V2813z"/></g><g opacity=".12" clip-path="url(#clip1_2492_20164)"><path d="M1899.08 1845c-66.93 0-121.08 54.15-121.08 121.08 0 66.77 54.15 121.09 121.08 121.09 66.77 0 121.09-54.15 121.09-121.09-.17-66.93-54.32-121.08-121.09-121.08zm0 234.36c-62.61 0-113.27-50.66-113.27-113.28 0-62.61 50.66-113.27 113.27-113.27 62.62 0 113.28 50.66 113.28 113.27 0 62.45-50.83 113.28-113.28 113.28z"/><path d="M1899.08 1871.08c-52.32 0-94.84 42.52-94.84 94.84s42.52 94.84 94.84 94.84 94.84-42.36 94.84-94.68c0-52.48-42.52-95-94.84-95zm0 175.23c-44.34 0-80.39-36.05-80.39-80.39 0-44.35 36.05-80.39 80.39-80.39 44.35 0 80.39 36.04 80.39 80.39 0 44.34-36.04 80.39-80.39 80.39z"/></g><path d="M147.88 1515.7c0 1.28-.831 2.23-1.94 2.23-1.108 0-1.94-.95-1.94-2.23 0-1.27.832-2.22 1.94-2.22 1.109 0 1.94 1.06 1.94 2.22zm16.539 0c0 1.28-.832 2.23-1.941 2.23-1.108 0-1.94-.95-1.94-2.23 0-1.27.832-2.22 1.94-2.22 1.017 0 1.941 1.06 1.941 2.22zm16.445 0c0 1.28-.831 2.23-1.94 2.23s-1.94-.95-1.94-2.23c0-1.27.831-2.22 1.94-2.22s1.94 1.06 1.94 2.22zm16.538 0c0 1.28-.831 2.23-1.94 2.23s-1.94-.95-1.94-2.23c0-1.27.831-2.22 1.94-2.22s1.94 1.06 1.94 2.22zm16.538 0c0 1.28-.832 2.23-1.94 2.23-1.109 0-1.94-.95-1.94-2.23 0-1.27.831-2.22 1.94-2.22 1.016 0 1.94 1.06 1.94 2.22zm16.538 0c0 1.28-.831 2.23-1.94 2.23s-1.94-.95-1.94-2.23c0-1.27.831-2.22 1.94-2.22s1.94 1.06 1.94 2.22zm16.446 0c0 1.28-.832 2.23-1.94 2.23-1.109 0-1.941-.95-1.941-2.23 0-1.27.832-2.22 1.941-2.22 1.108 0 1.94 1.06 1.94 2.22zm16.538 0c0 1.28-.832 2.23-1.94 2.23-1.109 0-1.94-.95-1.94-2.23 0-1.27.831-2.22 1.94-2.22 1.108 0 1.94 1.06 1.94 2.22zm16.538 0c0 1.28-.831 2.23-1.94 2.23s-1.94-.95-1.94-2.23c0-1.27.831-2.22 1.94-2.22 1.016 0 1.94 1.06 1.94 2.22zm-132.12 15.8c0 1.27-.831 2.22-1.94 2.22-1.108 0-1.94-.95-1.94-2.22 0-1.27.832-2.23 1.94-2.23 1.109 0 1.94.96 1.94 2.23zm16.539 0c0 1.27-.832 2.22-1.941 2.22-1.108 0-1.94-.95-1.94-2.22 0-1.27.832-2.23 1.94-2.23 1.017 0 1.941.96 1.941 2.23zm16.445 0c0 1.27-.831 2.22-1.94 2.22s-1.94-.95-1.94-2.22c0-1.27.831-2.23 1.94-2.23s1.94.96 1.94 2.23zm16.538 0c0 1.27-.831 2.22-1.94 2.22s-1.94-.95-1.94-2.22c0-1.27.831-2.23 1.94-2.23s1.94.96 1.94 2.23zm16.538 0c0 1.27-.832 2.22-1.94 2.22-1.109 0-1.94-.95-1.94-2.22 0-1.27.831-2.23 1.94-2.23 1.016 0 1.94.96 1.94 2.23zm16.538 0c0 1.27-.831 2.22-1.94 2.22s-1.94-.95-1.94-2.22c0-1.27.831-2.23 1.94-2.23s1.94.96 1.94 2.23zm16.446 0c0 1.27-.832 2.22-1.94 2.22-1.109 0-1.941-.95-1.941-2.22 0-1.27.832-2.23 1.941-2.23 1.108 0 1.94.96 1.94 2.23zm16.538 0c0 1.27-.832 2.22-1.94 2.22-1.109 0-1.94-.95-1.94-2.22 0-1.27.831-2.23 1.94-2.23 1.108 0 1.94.96 1.94 2.23zm16.538 0c0 1.27-.831 2.22-1.94 2.22s-1.94-.95-1.94-2.22c0-1.27.831-2.23 1.94-2.23 1.016 0 1.94.96 1.94 2.23zm-132.12-47.27c0 1.27-.831 2.22-1.94 2.22-1.108 0-1.94-.95-1.94-2.22 0-1.28.832-2.23 1.94-2.23 1.109 0 1.94.95 1.94 2.23zm16.539 0c0 1.27-.832 2.22-1.941 2.22-1.108 0-1.94-.95-1.94-2.22 0-1.28.832-2.23 1.94-2.23 1.017 0 1.941.95 1.941 2.23zm16.445 0c0 1.27-.831 2.22-1.94 2.22s-1.94-.95-1.94-2.22c0-1.28.924-2.23 1.94-2.23 1.109 0 1.94.95 1.94 2.23zm16.538 0c0 1.27-.831 2.22-1.94 2.22s-1.94-.95-1.94-2.22c0-1.28.924-2.23 1.94-2.23s1.94.95 1.94 2.23zm16.538 0c0 1.27-.832 2.22-1.94 2.22-1.109 0-1.94-.95-1.94-2.22 0-1.28.831-2.23 1.94-2.23 1.016 0 1.94.95 1.94 2.23zm16.538 0c0 1.27-.831 2.22-1.94 2.22s-1.94-.95-1.94-2.22c0-1.28.831-2.23 1.94-2.23s1.94.95 1.94 2.23zm16.446 0c0 1.27-.832 2.22-1.94 2.22-1.109 0-1.941-.95-1.941-2.22 0-1.28.832-2.23 1.941-2.23 1.108 0 1.94.95 1.94 2.23zm16.538 0c0 1.27-.832 2.22-1.94 2.22-1.109 0-1.94-.95-1.94-2.22 0-1.28.831-2.23 1.94-2.23 1.108 0 1.94.95 1.94 2.23zm16.538 0c0 1.27-.831 2.22-1.94 2.22s-1.94-.95-1.94-2.22c0-1.28.831-2.23 1.94-2.23 1.016 0 1.94.95 1.94 2.23zm-132.12 15.79c0 1.27-.831 2.22-1.94 2.22-1.108 0-1.94-1.06-1.94-2.22 0-1.27.832-2.23 1.94-2.23 1.109 0 1.94.96 1.94 2.23zm16.539 0c0 1.27-.832 2.22-1.941 2.22-1.108 0-1.94-.95-1.94-2.22 0-1.27.832-2.23 1.94-2.23 1.017 0 1.941.96 1.941 2.23zm16.445 0c0 1.27-.831 2.22-1.94 2.22s-1.94-.95-1.94-2.22c0-1.27.831-2.23 1.94-2.23s1.94.96 1.94 2.23zm16.538 0c0 1.27-.831 2.22-1.94 2.22s-1.94-.95-1.94-2.22c0-1.27.831-2.23 1.94-2.23s1.94.96 1.94 2.23zm16.538 0c0 1.27-.832 2.22-1.94 2.22-1.109 0-1.94-.95-1.94-2.22 0-1.27.831-2.23 1.94-2.23 1.016 0 1.94.96 1.94 2.23zm16.538 0c0 1.27-.831 2.22-1.94 2.22s-1.94-.95-1.94-2.22c0-1.27.831-2.23 1.94-2.23s1.94.96 1.94 2.23zm16.446 0c0 1.27-.832 2.22-1.94 2.22-1.109 0-1.941-.95-1.941-2.22 0-1.27.832-2.23 1.941-2.23 1.108 0 1.94.96 1.94 2.23zm16.538 0c0 1.27-.832 2.22-1.94 2.22-1.109 0-1.94-.95-1.94-2.22 0-1.27.831-2.23 1.94-2.23 1.108 0 1.94.96 1.94 2.23zm16.538 0c0 1.27-.831 2.22-1.94 2.22s-1.94-.95-1.94-2.22c0-1.27.831-2.23 1.94-2.23 1.016 0 1.94.96 1.94 2.23zm-132.12 47.16c0 1.28-.831 2.23-1.94 2.23-1.108 0-1.94-.95-1.94-2.23 0-1.27.832-2.22 1.94-2.22 1.109 0 1.94 1.06 1.94 2.22zm16.539 0c0 1.28-.832 2.23-1.941 2.23-1.108 0-1.94-.95-1.94-2.23 0-1.27.832-2.22 1.94-2.22 1.017 0 1.941 1.06 1.941 2.22zm16.445 0c0 1.28-.831 2.23-1.94 2.23s-1.94-.95-1.94-2.23c0-1.27.831-2.22 1.94-2.22s1.94 1.06 1.94 2.22zm16.538 0c0 1.28-.831 2.23-1.94 2.23s-1.94-.95-1.94-2.23c0-1.27.831-2.22 1.94-2.22s1.94 1.06 1.94 2.22zm16.538 0c0 1.28-.832 2.23-1.94 2.23-1.109 0-1.94-.95-1.94-2.23 0-1.27.831-2.22 1.94-2.22 1.016 0 1.94 1.06 1.94 2.22zm16.538 0c0 1.28-.831 2.23-1.94 2.23s-1.94-.95-1.94-2.23c0-1.27.831-2.22 1.94-2.22s1.94 1.06 1.94 2.22zm16.446 0c0 1.28-.832 2.23-1.94 2.23-1.109 0-1.941-.95-1.941-2.23 0-1.27.832-2.22 1.941-2.22 1.108 0 1.94 1.06 1.94 2.22zm16.538 0c0 1.28-.832 2.23-1.94 2.23-1.109 0-1.94-.95-1.94-2.23 0-1.27.831-2.22 1.94-2.22 1.108 0 1.94 1.06 1.94 2.22zm16.538 0c0 1.28-.831 2.23-1.94 2.23s-1.94-.95-1.94-2.23c0-1.27.831-2.22 1.94-2.22 1.016 0 1.94 1.06 1.94 2.22zm-132.12 15.8c0 1.27-.831 2.22-1.94 2.22-1.108 0-1.94-.95-1.94-2.22 0-1.27.832-2.23 1.94-2.23 1.109 0 1.94.96 1.94 2.23zm16.539 0c0 1.27-.832 2.22-1.941 2.22-1.108 0-1.94-.95-1.94-2.22 0-1.27.832-2.23 1.94-2.23 1.017 0 1.941.96 1.941 2.23zm16.445 0c0 1.27-.831 2.22-1.94 2.22s-1.94-.95-1.94-2.22c0-1.27.831-2.23 1.94-2.23s1.94.96 1.94 2.23zm14.598 2.22c1.072 0 1.94-.99 1.94-2.22 0-1.23-.868-2.23-1.94-2.23-1.071 0-1.94 1-1.94 2.23s.869 2.22 1.94 2.22zm18.478-2.22c0 1.27-.832 2.22-1.94 2.22-1.109 0-1.94-.95-1.94-2.22 0-1.27.831-2.23 1.94-2.23 1.016 0 1.94.96 1.94 2.23zm16.538 0c0 1.27-.831 2.22-1.94 2.22s-1.94-.95-1.94-2.22c0-1.27.831-2.23 1.94-2.23s1.94.96 1.94 2.23zm16.446 0c0 1.27-.832 2.22-1.94 2.22-1.109 0-1.941-.95-1.941-2.22 0-1.27.832-2.23 1.941-2.23 1.108 0 1.94.96 1.94 2.23zm14.598 2.22c1.071 0 1.94-.99 1.94-2.22 0-1.23-.869-2.23-1.94-2.23-1.072 0-1.94 1-1.94 2.23s.868 2.22 1.94 2.22zm18.478-2.22c0 1.27-.831 2.22-1.94 2.22s-1.94-.95-1.94-2.22c0-1.27.831-2.23 1.94-2.23 1.016 0 1.94.96 1.94 2.23zm-132.12 15.79c0 1.27-.831 2.22-1.94 2.22-1.108 0-1.94-.95-1.94-2.22 0-1.27.832-2.23 1.94-2.23 1.109 0 1.94.96 1.94 2.23zm16.539 0c0 1.27-.832 2.22-1.941 2.22-1.108 0-1.94-.95-1.94-2.22 0-1.27.832-2.23 1.94-2.23 1.017 0 1.941.96 1.941 2.23zm16.445 0c0 1.27-.831 2.22-1.94 2.22s-1.94-.95-1.94-2.22c0-1.27.831-2.23 1.94-2.23s1.94.96 1.94 2.23zm16.538 0c0 1.27-.831 2.22-1.94 2.22s-1.94-.95-1.94-2.22c0-1.27.831-2.23 1.94-2.23s1.94.96 1.94 2.23zm16.538 0c0 1.27-.832 2.22-1.94 2.22-1.109 0-1.94-.95-1.94-2.22 0-1.27.831-2.23 1.94-2.23 1.016 0 1.94.96 1.94 2.23zm16.538 0c0 1.27-.831 2.22-1.94 2.22s-1.94-.95-1.94-2.22c0-1.27.831-2.23 1.94-2.23s1.94.96 1.94 2.23zm16.446 0c0 1.27-.832 2.22-1.94 2.22-1.109 0-1.941-.95-1.941-2.22 0-1.27.832-2.23 1.941-2.23 1.108 0 1.94.96 1.94 2.23zm16.538 0c0 1.27-.832 2.22-1.94 2.22-1.109 0-1.94-.95-1.94-2.22 0-1.27.831-2.23 1.94-2.23 1.108 0 1.94.96 1.94 2.23zm16.538 0c0 1.27-.831 2.22-1.94 2.22s-1.94-.95-1.94-2.22c0-1.27.831-2.23 1.94-2.23 1.016 0 1.94.96 1.94 2.23zm-132.12 15.69c0 1.27-.831 2.22-1.94 2.22-1.108 0-1.94-.95-1.94-2.22 0-1.28.832-2.23 1.94-2.23 1.109 0 1.94 1.06 1.94 2.23zm16.539 0c0 1.27-.832 2.22-1.941 2.22-1.108 0-1.94-.95-1.94-2.22 0-1.28.832-2.23 1.94-2.23 1.017 0 1.941 1.06 1.941 2.23zm16.445 0c0 1.27-.831 2.22-1.94 2.22s-1.94-.95-1.94-2.22c0-1.28.831-2.23 1.94-2.23s1.94 1.06 1.94 2.23zm16.538 0c0 1.27-.831 2.22-1.94 2.22s-1.94-.95-1.94-2.22c0-1.28.831-2.23 1.94-2.23s1.94 1.06 1.94 2.23zm16.538 0c0 1.27-.832 2.22-1.94 2.22-1.109 0-1.94-.95-1.94-2.22 0-1.28.831-2.23 1.94-2.23 1.016 0 1.94 1.06 1.94 2.23zm16.538 0c0 1.27-.831 2.22-1.94 2.22s-1.94-.95-1.94-2.22c0-1.28.831-2.23 1.94-2.23s1.94 1.06 1.94 2.23zm16.446 0c0 1.27-.832 2.22-1.94 2.22-1.109 0-1.941-.95-1.941-2.22 0-1.28.832-2.23 1.941-2.23 1.108 0 1.94 1.06 1.94 2.23zm16.538 0c0 1.27-.832 2.22-1.94 2.22-1.109 0-1.94-.95-1.94-2.22 0-1.28.831-2.23 1.94-2.23 1.108 0 1.94 1.06 1.94 2.23zm16.538 0c0 1.27-.831 2.22-1.94 2.22s-1.94-.95-1.94-2.22c0-1.28.831-2.23 1.94-2.23 1.016 0 1.94 1.06 1.94 2.23z"/><path d="M1760.02 154.901c9.29-5.36 12.49-17.282 7.13-26.558-5.36-9.277-17.28-12.467-26.56-7.108l19.43 33.666zm-26.28 15.173c9.29-5.36 12.49-17.282 7.13-26.558-5.35-9.277-17.28-12.467-26.56-7.108l19.43 33.666zm-26.28 15.172c9.29-5.36 12.49-17.282 7.13-26.559-5.35-9.276-17.28-12.466-26.56-7.107l19.43 33.666z" opacity=".2"/></g><defs><clipPath id="clip0_2492_20164"><path fill="#fff" d="M0 0h1920v3226H0z"/></clipPath><clipPath id="clip1_2492_20164"><path fill="#fff" transform="translate(1778 1845)" d="M0 0h242v242H0z"/></clipPath></defs></svg>