<svg width="1195" height="623" fill="none" xmlns="http://www.w3.org/2000/svg"><g clip-path="url(#clip0_2502_331)" fill="#fff"><path d="M272.08 548.86c0 1.165-.874 2.038-2.04 2.038s-2.04-.873-2.04-2.038c0-1.164.874-2.038 2.04-2.038s2.04.971 2.04 2.038zm17.389 0c0 1.165-.874 2.038-2.04 2.038s-2.04-.873-2.04-2.038c0-1.164.874-2.038 2.04-2.038 1.069 0 2.04.971 2.04 2.038zm17.293 0c0 1.165-.875 2.038-2.04 2.038-1.166 0-2.04-.873-2.04-2.038 0-1.164.874-2.038 2.04-2.038 1.165 0 2.04.971 2.04 2.038zm17.389 0c0 1.165-.874 2.038-2.04 2.038s-2.04-.873-2.04-2.038c0-1.164.874-2.038 2.04-2.038s2.04.971 2.04 2.038zm17.389 0c0 1.165-.874 2.038-2.04 2.038s-2.04-.873-2.04-2.038c0-1.164.874-2.038 2.04-2.038 1.069 0 2.04.971 2.04 2.038zm17.389 0c0 1.165-.874 2.038-2.04 2.038s-2.04-.873-2.04-2.038c0-1.164.874-2.038 2.04-2.038s2.04.971 2.04 2.038zm17.293 0c0 1.165-.875 2.038-2.04 2.038-1.166 0-2.04-.873-2.04-2.038 0-1.164.874-2.038 2.04-2.038 1.165 0 2.04.971 2.04 2.038zm17.389 0c0 1.165-.874 2.038-2.04 2.038s-2.04-.873-2.04-2.038c0-1.164.874-2.038 2.04-2.038s2.04.971 2.04 2.038zm17.389 0c0 1.165-.874 2.038-2.04 2.038s-2.04-.873-2.04-2.038c0-1.164.874-2.038 2.04-2.038 1.069 0 2.04.971 2.04 2.038zm-138.92 14.459c0 1.165-.874 2.038-2.04 2.038s-2.04-.873-2.04-2.038c0-1.164.874-2.038 2.04-2.038s2.04.874 2.04 2.038zm17.389 0c0 1.165-.874 2.038-2.04 2.038s-2.04-.873-2.04-2.038c0-1.164.874-2.038 2.04-2.038 1.069 0 2.04.874 2.04 2.038zm17.293 0c0 1.165-.875 2.038-2.04 2.038-1.166 0-2.04-.873-2.04-2.038 0-1.164.874-2.038 2.04-2.038 1.165 0 2.04.874 2.04 2.038zm17.389 0c0 1.165-.874 2.038-2.04 2.038s-2.04-.873-2.04-2.038c0-1.164.874-2.038 2.04-2.038s2.04.874 2.04 2.038zm17.389 0c0 1.165-.874 2.038-2.04 2.038s-2.04-.873-2.04-2.038c0-1.164.874-2.038 2.04-2.038 1.069 0 2.04.874 2.04 2.038zm17.389 0c0 1.165-.874 2.038-2.04 2.038s-2.04-.873-2.04-2.038c0-1.164.874-2.038 2.04-2.038s2.04.874 2.04 2.038zm17.293 0c0 1.165-.875 2.038-2.04 2.038-1.166 0-2.04-.873-2.04-2.038 0-1.164.874-2.038 2.04-2.038 1.165 0 2.04.874 2.04 2.038zm17.389 0c0 1.165-.874 2.038-2.04 2.038s-2.04-.873-2.04-2.038c0-1.164.874-2.038 2.04-2.038s2.04.874 2.04 2.038zm17.389 0c0 1.165-.874 2.038-2.04 2.038s-2.04-.873-2.04-2.038c0-1.164.874-2.038 2.04-2.038 1.069 0 2.04.874 2.04 2.038zm-138.92-43.281c0 1.164-.874 2.038-2.04 2.038s-2.04-.874-2.04-2.038c0-1.165.874-2.038 2.04-2.038s2.04.873 2.04 2.038zm17.389 0c0 1.164-.874 2.038-2.04 2.038s-2.04-.874-2.04-2.038c0-1.165.874-2.038 2.04-2.038 1.069 0 2.04.873 2.04 2.038zm17.293 0c0 1.164-.875 2.038-2.04 2.038-1.166 0-2.04-.874-2.04-2.038 0-1.165.971-2.038 2.04-2.038 1.165 0 2.04.873 2.04 2.038zm17.389 0c0 1.164-.874 2.038-2.04 2.038s-2.04-.874-2.04-2.038c0-1.165.971-2.038 2.04-2.038 1.068 0 2.04.873 2.04 2.038zm17.389 0c0 1.164-.874 2.038-2.04 2.038s-2.04-.874-2.04-2.038c0-1.165.874-2.038 2.04-2.038 1.069 0 2.04.873 2.04 2.038zm17.389 0c0 1.164-.874 2.038-2.04 2.038s-2.04-.874-2.04-2.038c0-1.165.874-2.038 2.04-2.038s2.04.873 2.04 2.038zm17.293 0c0 1.164-.875 2.038-2.04 2.038-1.166 0-2.04-.874-2.04-2.038 0-1.165.874-2.038 2.04-2.038 1.165 0 2.04.873 2.04 2.038zm17.389 0c0 1.164-.874 2.038-2.04 2.038s-2.04-.874-2.04-2.038c0-1.165.874-2.038 2.04-2.038s2.04.873 2.04 2.038zm17.389 0c0 1.164-.874 2.038-2.04 2.038s-2.04-.874-2.04-2.038c0-1.165.874-2.038 2.04-2.038 1.069 0 2.04.873 2.04 2.038zm-138.92 14.459c0 1.164-.874 2.038-2.04 2.038s-2.04-.971-2.04-2.038c0-1.165.874-2.038 2.04-2.038s2.04.873 2.04 2.038zm17.389 0c0 1.164-.874 2.038-2.04 2.038s-2.04-.874-2.04-2.038c0-1.165.874-2.038 2.04-2.038 1.069 0 2.04.873 2.04 2.038zm17.293 0c0 1.164-.875 2.038-2.04 2.038-1.166 0-2.04-.874-2.04-2.038 0-1.165.874-2.038 2.04-2.038 1.165 0 2.04.873 2.04 2.038zm17.389 0c0 1.164-.874 2.038-2.04 2.038s-2.04-.874-2.04-2.038c0-1.165.874-2.038 2.04-2.038s2.04.873 2.04 2.038zm17.389 0c0 1.164-.874 2.038-2.04 2.038s-2.04-.874-2.04-2.038c0-1.165.874-2.038 2.04-2.038 1.069 0 2.04.873 2.04 2.038zm17.389 0c0 1.164-.874 2.038-2.04 2.038s-2.04-.874-2.04-2.038c0-1.165.874-2.038 2.04-2.038s2.04.873 2.04 2.038zm17.293 0c0 1.164-.875 2.038-2.04 2.038-1.166 0-2.04-.874-2.04-2.038 0-1.165.874-2.038 2.04-2.038 1.165 0 2.04.873 2.04 2.038zm17.389 0c0 1.164-.874 2.038-2.04 2.038s-2.04-.874-2.04-2.038c0-1.165.874-2.038 2.04-2.038s2.04.873 2.04 2.038zm17.389 0c0 1.164-.874 2.038-2.04 2.038s-2.04-.874-2.04-2.038c0-1.165.874-2.038 2.04-2.038 1.069 0 2.04.873 2.04 2.038zM272.08 577.68c0 1.165-.874 2.038-2.04 2.038s-2.04-.873-2.04-2.038c0-1.164.874-2.037 2.04-2.037s2.04.97 2.04 2.037zm17.389 0c0 1.165-.874 2.038-2.04 2.038s-2.04-.873-2.04-2.038c0-1.164.874-2.037 2.04-2.037 1.069 0 2.04.97 2.04 2.037zm17.293 0c0 1.165-.875 2.038-2.04 2.038-1.166 0-2.04-.873-2.04-2.038 0-1.164.874-2.037 2.04-2.037 1.165 0 2.04.97 2.04 2.037zm17.389 0c0 1.165-.874 2.038-2.04 2.038s-2.04-.873-2.04-2.038c0-1.164.874-2.037 2.04-2.037s2.04.97 2.04 2.037zm17.389 0c0 1.165-.874 2.038-2.04 2.038s-2.04-.873-2.04-2.038c0-1.164.874-2.037 2.04-2.037 1.069 0 2.04.97 2.04 2.037zm17.389 0c0 1.165-.874 2.038-2.04 2.038s-2.04-.873-2.04-2.038c0-1.164.874-2.037 2.04-2.037s2.04.97 2.04 2.037zm17.293 0c0 1.165-.875 2.038-2.04 2.038-1.166 0-2.04-.873-2.04-2.038 0-1.164.874-2.037 2.04-2.037 1.165 0 2.04.97 2.04 2.037zm17.389 0c0 1.165-.874 2.038-2.04 2.038s-2.04-.873-2.04-2.038c0-1.164.874-2.037 2.04-2.037s2.04.97 2.04 2.037zm17.389 0c0 1.165-.874 2.038-2.04 2.038s-2.04-.873-2.04-2.038c0-1.164.874-2.037 2.04-2.037 1.069 0 2.04.97 2.04 2.037zm-138.92 14.459c0 1.165-.874 2.038-2.04 2.038s-2.04-.873-2.04-2.038c0-1.164.874-2.037 2.04-2.037s2.04.873 2.04 2.037zm17.389 0c0 1.165-.874 2.038-2.04 2.038s-2.04-.873-2.04-2.038c0-1.164.874-2.037 2.04-2.037 1.069 0 2.04.873 2.04 2.037zm17.293 0c0 1.165-.875 2.038-2.04 2.038-1.166 0-2.04-.873-2.04-2.038 0-1.164.874-2.037 2.04-2.037 1.165 0 2.04.873 2.04 2.037zm15.349 2.038a2.038 2.038 0 100-4.075 2.038 2.038 0 100 4.075zm19.429-2.038c0 1.165-.874 2.038-2.04 2.038s-2.04-.873-2.04-2.038c0-1.164.874-2.037 2.04-2.037 1.069 0 2.04.873 2.04 2.037zm17.389 0c0 1.165-.874 2.038-2.04 2.038s-2.04-.873-2.04-2.038c0-1.164.874-2.037 2.04-2.037s2.04.873 2.04 2.037zm17.293 0c0 1.165-.875 2.038-2.04 2.038-1.166 0-2.04-.873-2.04-2.038 0-1.164.874-2.037 2.04-2.037 1.165 0 2.04.873 2.04 2.037zm15.349 2.038a2.038 2.038 0 100-4.075 2.038 2.038 0 100 4.075zM411 592.139c0 1.165-.874 2.038-2.04 2.038s-2.04-.873-2.04-2.038c0-1.164.874-2.037 2.04-2.037 1.069 0 2.04.873 2.04 2.037zM272.08 606.6c0 1.165-.874 2.038-2.04 2.038s-2.04-.873-2.04-2.038c0-1.164.874-2.038 2.04-2.038s2.04.874 2.04 2.038zm17.389 0c0 1.165-.874 2.038-2.04 2.038s-2.04-.873-2.04-2.038c0-1.164.874-2.038 2.04-2.038 1.069 0 2.04.874 2.04 2.038zm17.293 0c0 1.165-.875 2.038-2.04 2.038-1.166 0-2.04-.873-2.04-2.038 0-1.164.874-2.038 2.04-2.038 1.165 0 2.04.874 2.04 2.038zm17.389 0c0 1.165-.874 2.038-2.04 2.038s-2.04-.873-2.04-2.038c0-1.164.874-2.038 2.04-2.038s2.04.874 2.04 2.038zm17.389 0c0 1.165-.874 2.038-2.04 2.038s-2.04-.873-2.04-2.038c0-1.164.874-2.038 2.04-2.038 1.069 0 2.04.874 2.04 2.038zm17.389 0c0 1.165-.874 2.038-2.04 2.038s-2.04-.873-2.04-2.038c0-1.164.874-2.038 2.04-2.038s2.04.874 2.04 2.038zm17.293 0c0 1.165-.875 2.038-2.04 2.038-1.166 0-2.04-.873-2.04-2.038 0-1.164.874-2.038 2.04-2.038 1.165 0 2.04.874 2.04 2.038zm17.389 0c0 1.165-.874 2.038-2.04 2.038s-2.04-.873-2.04-2.038c0-1.164.874-2.038 2.04-2.038s2.04.874 2.04 2.038zm17.389 0c0 1.165-.874 2.038-2.04 2.038s-2.04-.873-2.04-2.038c0-1.164.874-2.038 2.04-2.038 1.069 0 2.04.874 2.04 2.038zm-138.92 14.362c0 1.164-.874 2.038-2.04 2.038s-2.04-.874-2.04-2.038c0-1.165.874-2.038 2.04-2.038s2.04.97 2.04 2.038zm17.389 0c0 1.164-.874 2.038-2.04 2.038s-2.04-.874-2.04-2.038c0-1.165.874-2.038 2.04-2.038 1.069 0 2.04.97 2.04 2.038zm17.293 0c0 1.164-.875 2.038-2.04 2.038-1.166 0-2.04-.874-2.04-2.038 0-1.165.874-2.038 2.04-2.038 1.165 0 2.04.97 2.04 2.038zm17.389 0c0 1.164-.874 2.038-2.04 2.038s-2.04-.874-2.04-2.038c0-1.165.874-2.038 2.04-2.038s2.04.97 2.04 2.038zm17.389 0c0 1.164-.874 2.038-2.04 2.038s-2.04-.874-2.04-2.038c0-1.165.874-2.038 2.04-2.038 1.069 0 2.04.97 2.04 2.038zm17.389 0c0 1.164-.874 2.038-2.04 2.038s-2.04-.874-2.04-2.038c0-1.165.874-2.038 2.04-2.038s2.04.97 2.04 2.038zm17.293 0c0 1.164-.875 2.038-2.04 2.038-1.166 0-2.04-.874-2.04-2.038 0-1.165.874-2.038 2.04-2.038 1.165 0 2.04.97 2.04 2.038zm17.389 0c0 1.164-.874 2.038-2.04 2.038s-2.04-.874-2.04-2.038c0-1.165.874-2.038 2.04-2.038s2.04.97 2.04 2.038zm17.389 0c0 1.164-.874 2.038-2.04 2.038s-2.04-.874-2.04-2.038c0-1.165.874-2.038 2.04-2.038 1.069 0 2.04.97 2.04 2.038z"/></g><path d="M1173.73 141.89c10.6 0 19.23-8.725 19.23-19.437 0-10.711-8.63-19.436-19.23-19.436v38.873zm-30 0c10.6 0 19.23-8.725 19.23-19.437 0-10.711-8.63-19.436-19.23-19.436v38.873zm-30 0c10.6 0 19.23-8.725 19.23-19.437 0-10.711-8.63-19.436-19.23-19.436v38.873z" opacity=".6" fill="#fff"/><g opacity=".6" clip-path="url(#clip1_2502_331)" fill="#fff"><path d="M72.55 0C32.443 0 0 32.443 0 72.55c0 40.007 32.443 72.55 72.55 72.55 40.007 0 72.55-32.444 72.55-72.55C145 32.443 112.557 0 72.55 0zm0 140.422c-37.52 0-67.873-30.353-67.873-67.872 0-37.52 30.354-67.873 67.873-67.873 37.519 0 67.872 30.354 67.872 67.873 0 37.419-30.453 67.872-67.872 67.872z"/><path d="M72.55 15.625c-31.349 0-56.826 25.477-56.826 56.826 0 31.348 25.477 56.825 56.826 56.825 31.348 0 56.825-25.377 56.825-56.726 0-31.448-25.477-56.925-56.825-56.925zm0 104.993c-26.572 0-48.168-21.596-48.168-48.167 0-26.572 21.596-48.168 48.168-48.168s48.167 21.596 48.167 48.168c0 26.571-21.596 48.167-48.167 48.167z"/><path d="M72.55 40.603c-17.615 0-31.945 14.331-31.945 31.946 0 17.615 14.23 31.946 31.945 31.946 17.615 0 31.946-14.33 31.946-31.946-.099-17.615-14.33-31.946-31.946-31.946zm0 49.064c-9.454 0-17.117-7.663-17.117-17.118 0-9.454 7.663-17.117 17.117-17.117 9.455 0 17.118 7.663 17.118 17.117 0 9.455-7.663 17.118-17.118 17.118z"/></g><defs><clipPath id="clip0_2502_331"><path fill="#fff" transform="translate(268 518)" d="M0 0h143v105H0z"/></clipPath><clipPath id="clip1_2502_331"><path fill="#fff" d="M0 0h145v145H0z"/></clipPath></defs></svg>