<svg width="28" height="28" fill="none" xmlns="http://www.w3.org/2000/svg"><path d="M17.25 12.125c.417.375.896.563 1.438.563.541 0 1-.188 1.375-.563.416-.417.625-.896.625-1.438 0-.541-.209-1-.625-1.374-.375-.417-.834-.626-1.375-.626-.542 0-1.021.209-1.438.626a1.87 1.87 0 00-.563 1.374c0 .542.188 1.021.563 1.438zm-7.313 8.438C11.146 21.52 12.5 22 14 22c1.5 0 2.854-.48 4.063-1.438 1.208-1 2.083-2.291 2.625-3.875H7.313c.541 1.584 1.416 2.875 2.625 3.875zm.75-11.25c-.374-.417-.833-.626-1.374-.626-.542 0-1.021.209-1.438.626a1.87 1.87 0 00-.563 1.374c0 .542.188 1.021.563 1.438.417.375.896.563 1.438.563.541 0 1-.188 1.374-.563.417-.417.626-.896.626-1.438 0-.541-.209-1-.626-1.374zM4.564 4.625C7.188 2 10.332.687 14 .687S20.792 2 23.375 4.626C26 7.208 27.313 10.333 27.313 14S26 20.813 23.375 23.438c-2.583 2.583-5.708 3.875-9.375 3.875s-6.813-1.292-9.438-3.875C1.98 20.813.688 17.666.688 14c0-3.667 1.292-6.792 3.875-9.375z" fill="#fff"/></svg>