<svg width="17" height="17" fill="none" xmlns="http://www.w3.org/2000/svg"><path d="M12.357 13.732c.322-.321.693-.482 1.114-.482.42 0 .779.16 1.076.482.321.322.482.693.482 1.114 0 .42-.16.791-.482 1.113a1.466 1.466 0 01-1.076.445c-.42 0-.792-.148-1.114-.445-.321-.322-.482-.693-.482-1.113 0-.42.16-.792.482-1.114zM.78.596h2.598l.742 1.558h11.727c.222 0 .408.087.556.26a.755.755 0 01.223.557c0 .024-.037.148-.111.37l-2.82 5.122c-.298.544-.755.816-1.374.816h-5.9l-.705 1.3-.037.11c0 .124.062.186.185.186h9.166v1.596h-9.5c-.42 0-.791-.161-1.113-.483a1.592 1.592 0 01-.26-1.855l1.076-1.967-2.857-6.012H.779V.596zm3.637 13.136c.322-.321.693-.482 1.113-.482.42 0 .792.16 1.114.482.321.322.482.693.482 1.114 0 .42-.16.791-.482 1.113a1.592 1.592 0 01-1.114.445c-.42 0-.791-.148-1.113-.445a1.592 1.592 0 01-.445-1.113c0-.42.148-.792.445-1.114z" fill="#fff"/></svg>