<svg width="30" height="30" fill="none" xmlns="http://www.w3.org/2000/svg"><g clip-path="url(#clip0_2_60)"><path d="M30 15c0 8.284-6.716 15-15 15-8.284 0-15-6.716-15-15C0 6.716 6.716 0 15 0c8.284 0 15 6.716 15 15z" fill="#FFDF40"/><path d="M30 15c0-1.518-.226-2.983-.645-4.364l-4.121-4.12-1.676.96a10.9 10.9 0 00-.34-.34A11.352 11.352 0 0015 3.625C8.728 3.625 3.625 8.728 3.625 15a11.34 11.34 0 003.52 8.22l6.736 6.739c.37.027.742.041 1.119.041 8.284 0 15-6.716 15-15z" fill="#FF9F40"/><path d="M25.104 15c0 5.58-4.524 10.104-10.104 10.104C9.42 25.104 4.896 20.58 4.896 15 4.896 9.42 9.42 4.896 15 4.896c5.58 0 10.104 4.524 10.104 10.104z" fill="#fff"/><path d="M25.103 15c0 5.577-4.518 10.099-10.095 10.104V4.896c4.54.004 8.38 3.002 9.649 7.126.29.942.446 1.942.446 2.978z" fill="#fff"/><path d="M23.832 15c0 4.87-3.962 8.832-8.832 8.832-4.87 0-8.832-3.962-8.832-8.832 0-4.87 3.962-8.832 8.832-8.832 2.37 0 4.62.946 6.275 2.617l-1.661.952 5.044 2.286.576-5.507-1.694.97A11.355 11.355 0 0015 3.626C8.728 3.625 3.625 8.728 3.625 15S8.728 26.375 15 26.375 26.375 21.272 26.375 15h-2.543z" fill="#262626"/><path d="M21.275 8.785a8.817 8.817 0 00-6.267-2.617V3.625a11.356 11.356 0 018.532 3.861l1.694-.97-.576 5.507-.001-.001-5.043-2.285 1.661-.952zm5.1 6.215c0 6.27-5.098 11.37-11.367 11.375v-2.543c4.867-.005 8.824-3.965 8.824-8.832h2.543zM8.581 18.157c0-.366.028-.697.085-.993a2.71 2.71 0 01.299-.823c.142-.251.337-.487.585-.706a5.29 5.29 0 01.944-.646c.333-.178.627-.335.883-.469.256-.134.47-.258.64-.371.17-.114.3-.23.39-.348a.657.657 0 00.134-.408.813.813 0 00-.293-.627c-.195-.175-.475-.262-.84-.262-.195 0-.374.026-.536.079a2.04 2.04 0 00-.457.213c-.143.09-.273.189-.39.299-.118.11-.226.225-.323.347l-1.048-1.206c.106-.114.256-.238.45-.372a4.33 4.33 0 01.69-.378c.263-.117.556-.215.877-.292.32-.077.664-.116 1.03-.116.413 0 .783.05 1.108.152.325.102.599.244.822.427.223.183.394.402.512.658.117.256.176.534.176.834 0 .285-.052.537-.158.756-.106.22-.24.414-.402.585a3.06 3.06 0 01-.53.444c-.19.126-.376.238-.554.335l-.5.28a7.43 7.43 0 00-.554.348 5.74 5.74 0 00-.506.39 1.803 1.803 0 00-.353.396h3.691v1.474H8.581z" fill="#262626"/><path d="M18.791 19.704V17.89h-3.558v-1.45l4.082-5.24h1.109v5.228h1.072v1.462h-1.072v1.815H18.79zm-1.925-3.277h2.108v-2.754l-2.108 2.754z" fill="#262626"/></g><defs><clipPath id="clip0_2_60"><path fill="#fff" d="M0 0h30v30H0z"/></clipPath></defs></svg>