<svg width="40" height="40" fill="none" xmlns="http://www.w3.org/2000/svg"><path d="M10 13.052a2.581 2.581 0 002.578-2.578A2.581 2.581 0 0010 7.896a2.581 2.581 0 00-2.578 2.578A2.581 2.581 0 0010 13.052zm0 2.344a4.92 4.92 0 01-1.49-.231l-2.338 1.324v1.563h7.656v-1.563l-2.338-1.324c-.47.15-.97.23-1.49.23zm30 14.531v-3.84H0v3.84h16.25v3.033l-2.379 2.27h-3.285v2.343h18.828V35.23H26.13l-2.379-2.27v-3.033H40z" fill="#4472E8"/><path d="M40 23.742V2.427H0v21.315h40zM23.612 6.802h12.633v2.344H23.612V6.802zm0 5h10.133v2.344H23.612v-2.344zm0 5h12.633v2.344H23.612v-2.344zm-4.857-10h2.49v2.344h-2.49V6.802zm0 5h2.49v2.344h-2.49v-2.344zm0 5h2.49v2.344h-2.49v-2.344zm-14.927-1.68l2.477-1.402a4.9 4.9 0 01-1.227-3.246A4.927 4.927 0 0110 5.552a4.927 4.927 0 014.922 4.922 4.9 4.9 0 01-1.227 3.246l2.477 1.402v5.274H3.828v-5.274z" fill="#4472E8"/></svg>