<svg width="259" height="82" fill="none" xmlns="http://www.w3.org/2000/svg"><mask id="a" fill="#fff"><path d="M238.313.732H18.263c-.67 0-1.32.02-1.99.02-1.45.041-2.9.123-4.328.366-1.45.244-2.792.65-4.112 1.28a13.137 13.137 0 00-3.505 2.398 12.404 12.404 0 00-2.554 3.291 13.125 13.125 0 00-1.363 3.86c-.26 1.341-.346 2.703-.39 4.064 0 .63-.021 1.26-.021 1.869v46.952c0 .63.022 1.24.043 1.87.044 1.36.13 2.722.39 4.063.26 1.36.67 2.64 1.363 3.86a12.31 12.31 0 002.553 3.27 13.137 13.137 0 003.506 2.398c1.32.63 2.662 1.036 4.111 1.28 1.429.244 2.9.325 4.328.366.65.04 1.299.06 1.97.06H240.65c.649 0 1.341 0 1.99-.02 1.45-.04 2.9-.121 4.328-.365 1.45-.244 2.792-.65 4.133-1.28a13.488 13.488 0 003.506-2.398 13.1 13.1 0 002.553-3.27 12.484 12.484 0 001.342-3.86c.26-1.342.346-2.703.411-4.064v-1.87c.022-.73.022-1.462.022-2.214V20.115c0-.752 0-1.483-.022-2.215v-1.869c-.043-1.361-.13-2.722-.411-4.063a12.483 12.483 0 00-1.342-3.86 13.345 13.345 0 00-2.553-3.292 14.145 14.145 0 00-3.506-2.397 15.637 15.637 0 00-4.133-1.28C245.54.895 244.09.814 242.64.773c-.649 0-1.341-.02-1.99-.02-.758-.02-1.558-.02-2.337-.02z"/></mask><path d="M16.273.753V-1.28h-.057l.057 2.032zm-4.328.365l.337 2.004h.005l-.342-2.004zm-4.112 1.28l.864 1.84.011-.006-.875-1.834zM4.328 4.796L5.703 6.29l.016-.014.015-.015-1.406-1.466zM1.774 8.087l1.787.967.007-.012-1.794-.955zm-1.363 3.86l1.995.387v-.006l-1.995-.38zm-.39 4.064l-2.03-.065-.001.032v.033H.022zM.044 66.7l2.03-.064v-.006l-2.03.07zm.39 4.064l1.995-.381v-.006l-1.995.386zm1.363 3.86l1.793-.955-.013-.025-.013-.024-1.767 1.004zm2.553 3.27l1.407-1.466-.016-.014-.016-.015-1.375 1.496zm3.506 2.398l.875-1.834-.012-.005-.863 1.84zm4.111 1.28l.342-2.003h-.005l-.337 2.003zm4.328.366l.127-2.028-.034-.002-.035-.001-.058 2.03zm226.346.04l-.056-2.03h-.007l.063 2.03zm4.328-.365l-.337-2.004-.005.001.342 2.003zm4.133-1.28l.864 1.839-.864-1.84zm3.506-2.398l-1.375-1.495-.008.007-.008.007 1.391 1.481zm2.553-3.27l1.773.992.007-.013.007-.013-1.787-.967zm1.342-3.86l-1.995-.387-.003.018-.003.018 2.001.35zm.411-4.064l2.03.097.002-.049v-.048h-2.032zm0-1.87l-2.031-.06-.001.03v.03h2.032zm0-46.972h-2.032v.03l.001.03 2.031-.06zm0-1.869h2.032v-.032l-.001-.033-2.031.065zm-.411-4.063l-2.001.35.006.033.007.034 1.988-.417zm-1.342-3.86l1.787-.968-.007-.012-1.78.98zm-6.059-5.69l.887-1.827-.012-.006-.011-.005-.864 1.839zm-4.133-1.28l-.342 2.003.005.001.337-2.003zM242.64.774l.057-2.03-.028-.002h-.029V.773zm-1.99-.02l-.055 2.03.027.001h.028V.753zM238.313-1.3H20.623v4.063h217.69V-1.3zm-217.69 0h-2.361v4.063h2.36V-1.3zm-2.36 0c-.353 0-.699.005-1.026.01-.333.005-.647.01-.964.01v4.063c.353 0 .699-.005 1.026-.01.333-.005.647-.01.965-.01V-1.3zm-2.047.02c-1.479.042-3.042.127-4.613.395l.684 4.005c1.285-.22 2.622-.298 4.043-.337l-.114-4.062zm-4.608.394c-1.62.272-3.145.732-4.65 1.45l1.75 3.667a13.227 13.227 0 013.574-1.11l-.674-4.007zM6.97.559a15.169 15.169 0 00-4.048 2.77l2.812 2.933a11.106 11.106 0 012.963-2.024L6.97.559zM2.953 3.3A14.435 14.435 0 00-.02 7.132l3.587 1.91a10.372 10.372 0 012.135-2.75L2.953 3.3zM-.012 7.12a15.155 15.155 0 00-1.573 4.447l3.992.761a11.09 11.09 0 011.154-3.274L-.012 7.12zm-1.571 4.441c-.291 1.502-.382 2.99-.426 4.385l4.061.13c.043-1.329.125-2.562.354-3.742l-3.99-.773zm-.427 4.45c0 .294-.005.592-.01.907-.006.309-.012.636-.012.962h4.064c0-.284.005-.576.01-.892.006-.31.011-.642.011-.977H-2.01zm-.022 1.869v2.214h4.064V17.88h-4.064zm0 2.214v42.523h4.064V20.094h-4.064zm0 42.523v2.215h4.064v-2.214h-4.064zm0 2.215c0 .671.023 1.317.045 1.939l4.06-.14c-.021-.637-.041-1.21-.041-1.799h-4.064zm.045 1.934c.044 1.394.134 2.883.425 4.385l3.99-.773c-.23-1.18-.312-2.413-.354-3.741l-4.061.129zm.424 4.38c.29 1.522.764 3.024 1.592 4.482l3.534-2.007c-.557-.98-.906-2.037-1.135-3.237l-3.99.761zM.003 75.58a14.34 14.34 0 002.971 3.811l2.75-2.99A10.283 10.283 0 013.59 73.67L.003 75.58zm2.94 3.782a15.168 15.168 0 004.049 2.77l1.726-3.678a11.106 11.106 0 01-2.962-2.025l-2.813 2.933zm4.037 2.765a17.288 17.288 0 004.65 1.45l.673-4.007a13.226 13.226 0 01-3.573-1.11l-1.75 3.667zm4.645 1.449c1.571.268 3.157.352 4.611.394l.116-4.062c-1.401-.04-2.759-.118-4.044-.338l-.683 4.006zm4.542.39c.692.044 1.384.065 2.096.065v-4.063c-.629 0-1.236-.019-1.842-.057l-.254 4.055zm2.096.065h2.359v-4.063h-2.359v4.063zm2.36 0h217.69v-4.063H20.623v4.063zm217.69 0h2.337v-4.063h-2.337v4.063zm2.337 0c.643 0 1.367 0 2.054-.02l-.127-4.062c-.612.019-1.272.02-1.927.02v4.062zm2.047-.02c1.479-.042 3.042-.126 4.613-.395l-.684-4.005c-1.285.22-2.621.298-4.042.337l.113 4.062zm4.608-.394a17.69 17.69 0 004.66-1.444l-1.727-3.678c-1.165.546-2.328.9-3.607 1.115l.674 4.007zm4.66-1.444a15.528 15.528 0 004.033-2.755l-2.782-2.963a11.457 11.457 0 01-2.978 2.04l1.727 3.678zm4.017-2.74a15.146 15.146 0 002.951-3.776l-3.546-1.984a11.075 11.075 0 01-2.155 2.768l2.75 2.991zm2.965-3.8a14.496 14.496 0 001.556-4.478l-4.002-.7a10.468 10.468 0 01-1.127 3.243l3.573 1.934zm1.55-4.442c.289-1.496.38-2.985.446-4.352l-4.059-.194c-.065 1.355-.147 2.589-.377 3.774l3.99.772zm.448-4.45v-1.868h-4.064v1.869h4.064zm-.001-1.808c.023-.767.022-1.528.022-2.275h-4.063c0 .757 0 1.458-.021 2.155l4.062.12zm.022-2.275V20.115h-4.063v42.543h4.063zm0-42.543c0-.747.001-1.508-.022-2.275l-4.062.12c.021.697.021 1.398.021 2.155h4.063zm-.021-2.215v-1.869h-4.064V17.9h4.064zm-.001-1.934c-.044-1.392-.135-2.896-.454-4.415l-3.976.834c.244 1.162.326 2.38.369 3.71l4.061-.129zm-.441-4.348a14.496 14.496 0 00-1.556-4.478l-3.573 1.935a10.467 10.467 0 011.127 3.243l4.002-.7zm-1.563-4.49a15.395 15.395 0 00-2.942-3.793l-2.782 2.962a11.319 11.319 0 012.164 2.79l3.56-1.96zm-2.942-3.793a16.196 16.196 0 00-4.01-2.744l-1.773 3.656a12.125 12.125 0 013.001 2.05l2.782-2.962zM251.965.58a17.688 17.688 0 00-4.66-1.445l-.674 4.007a13.61 13.61 0 013.607 1.116L251.965.58zM247.31-.864c-1.571-.268-3.134-.352-4.613-.394l-.113 4.062c1.421.04 2.757.118 4.042.337l.684-4.005zm-4.67-.395c-.306 0-.626-.004-.964-.01-.333-.005-.684-.01-1.026-.01v4.063c.306 0 .626.005.964.01.333.005.684.01 1.026.01v-4.063zm-1.936-.02c-.789-.02-1.618-.02-2.391-.02v4.063c.784 0 1.557 0 2.282.02l.109-4.062z" fill="#fff" mask="url(#a)"/><path d="M53.6 41.976c-.065-5.587 4.869-8.31 5.107-8.431-2.791-3.82-7.12-4.348-8.634-4.389-3.635-.366-7.163 2.032-9.002 2.032-1.883 0-4.739-2.012-7.812-1.95-3.96.06-7.66 2.214-9.673 5.546-4.176 6.806-1.06 16.802 2.943 22.308 2.013 2.702 4.35 5.709 7.423 5.587 3.008-.122 4.133-1.788 7.747-1.788 3.592 0 4.63 1.788 7.768 1.727 3.224-.04 5.258-2.702 7.184-5.425 2.316-3.088 3.246-6.135 3.29-6.278-.109-.02-6.276-2.234-6.34-8.939zM47.693 25.54c1.623-1.89 2.726-4.47 2.402-7.091-2.337.101-5.259 1.523-6.947 3.372-1.493 1.626-2.813 4.307-2.467 6.827 2.619.183 5.324-1.24 7.012-3.109zm43.84 30.332H81.298L78.83 62.7h-4.328l9.695-25.234h4.5L98.393 62.7h-4.415l-2.445-6.827zm-9.175-3.149h8.115L86.47 41.651h-.109l-4.003 11.072zm37.003.773c0 5.709-3.268 9.386-8.18 9.386-2.791 0-4.998-1.178-6.167-3.21h-.086v9.102h-4.025V44.292h3.895v3.068h.065c1.125-1.97 3.505-3.25 6.232-3.25 4.998 0 8.266 3.677 8.266 9.386zm-4.133 0c0-3.718-2.056-6.177-5.172-6.177-3.073 0-5.15 2.5-5.15 6.177 0 3.697 2.077 6.196 5.15 6.196 3.116 0 5.172-2.438 5.172-6.196zm25.686 0c0 5.709-3.267 9.386-8.179 9.386-2.792 0-4.999-1.178-6.167-3.21h-.087v9.102h-4.003V44.292h3.895v3.068h.065c1.125-1.97 3.505-3.25 6.232-3.25 4.977 0 8.244 3.677 8.244 9.386zm-4.133 0c0-3.718-2.055-6.177-5.171-6.177-3.073 0-5.151 2.5-5.151 6.177 0 3.697 2.078 6.196 5.151 6.196 3.137 0 5.171-2.438 5.171-6.196zm18.394 2.174c.303 2.498 2.878 4.144 6.427 4.144 3.397 0 5.82-1.646 5.82-3.901 0-1.95-1.471-3.129-4.955-3.941l-3.484-.793c-4.934-1.117-7.227-3.291-7.227-6.806 0-4.348 4.046-7.334 9.781-7.334 5.669 0 9.564 2.986 9.694 7.334h-4.068c-.238-2.52-2.467-4.043-5.691-4.043-3.225 0-5.453 1.544-5.453 3.779 0 1.788 1.406 2.824 4.868 3.637l2.965.69c5.518 1.22 7.812 3.312 7.812 6.99 0 4.713-4.003 7.68-10.365 7.68-5.951 0-9.976-2.886-10.236-7.457h4.112v.02zm25.186-15.727v4.348h3.722v2.987h-3.722v10.138c0 1.585.736 2.316 2.381 2.316.411 0 1.06-.061 1.32-.081v2.966c-.455.102-1.342.183-2.229.183-3.96 0-5.518-1.402-5.518-4.957V47.297h-2.857v-2.986h2.857v-4.369h4.046zm5.865 13.552c0-5.79 3.635-9.427 9.283-9.427 5.67 0 9.283 3.637 9.283 9.427 0 5.81-3.592 9.427-9.283 9.427-5.669 0-9.283-3.617-9.283-9.427zm14.498 0c0-3.962-1.947-6.319-5.193-6.319-3.246 0-5.194 2.357-5.194 6.319 0 3.982 1.926 6.318 5.194 6.318 3.267 0 5.193-2.336 5.193-6.318zm7.422-9.204h3.831v3.13h.086c.606-2.073 2.402-3.333 4.718-3.333.584 0 1.06.082 1.385.143v3.535c-.325-.122-1.018-.224-1.797-.224-2.596 0-4.198 1.646-4.198 4.226v10.91h-4.025V44.292zm28.542 13.003c-.541 3.332-4.003 5.628-8.439 5.628-5.691 0-9.24-3.576-9.24-9.346s3.549-9.508 9.067-9.508c5.41 0 8.829 3.494 8.829 9.082v1.3h-13.828v.223c0 3.15 2.099 5.201 5.28 5.201 2.229 0 3.982-.995 4.523-2.58h3.808zm-13.589-5.506h9.803c-.087-2.824-2.013-4.673-4.804-4.673-2.77.02-4.783 1.91-4.999 4.673zM81.86 18.47c3.83 0 6.081 2.214 6.081 6.013 0 3.88-2.228 6.095-6.08 6.095h-4.675V18.47h4.675zM79.2 28.871h2.424c2.705 0 4.263-1.585 4.263-4.369 0-2.742-1.58-4.327-4.263-4.327H79.2v8.696zm10.992-2.864c0-2.946 1.753-4.754 4.588-4.754 2.834 0 4.587 1.788 4.587 4.754 0 2.966-1.753 4.754-4.587 4.754-2.835 0-4.588-1.788-4.588-4.754zm7.206 0c0-1.991-.952-3.149-2.618-3.149-1.667 0-2.619 1.158-2.619 3.15 0 1.99.93 3.148 2.619 3.148 1.688 0 2.618-1.158 2.618-3.149zm14.195 4.591h-1.991l-2.012-6.745h-.151l-2.013 6.745h-1.969l-2.683-9.142h1.947l1.753 6.989h.151l2.013-6.99h1.839l2.013 6.99h.151l1.731-6.99h1.926l-2.705 9.143zm4.934-9.163h1.861v1.463h.152c.476-1.016 1.45-1.625 2.9-1.625 2.163 0 3.375 1.218 3.375 3.392v5.933h-1.926v-5.465c0-1.463-.67-2.194-2.099-2.194-1.428 0-2.337.893-2.337 2.316v5.343h-1.926v-9.163zm11.339-3.555h1.926v12.718h-1.926V17.88zm4.61 8.127c0-2.946 1.753-4.754 4.587-4.754 2.835 0 4.588 1.788 4.588 4.754 0 2.966-1.753 4.754-4.588 4.754-2.856 0-4.587-1.788-4.587-4.754zm7.206 0c0-1.991-.953-3.149-2.619-3.149-1.666 0-2.618 1.158-2.618 3.15 0 1.99.93 3.148 2.618 3.148 1.666 0 2.619-1.158 2.619-3.149zm4.002 1.99c0-1.645 1.298-2.6 3.614-2.722l2.64-.142v-.793c0-.975-.671-1.503-1.991-1.503-1.082 0-1.818.366-2.034 1.016h-1.861c.195-1.565 1.774-2.58 3.982-2.58 2.445 0 3.83 1.137 3.83 3.067v6.258h-1.861v-1.28h-.152c-.584.914-1.644 1.442-2.921 1.442-1.883-.02-3.246-1.076-3.246-2.763zm6.275-.772v-.772l-2.38.143c-1.342.08-1.947.507-1.947 1.32 0 .833.757 1.3 1.796 1.3 1.449 0 2.531-.853 2.531-1.99zm4.436-1.218c0-2.885 1.579-4.714 4.046-4.714 1.342 0 2.467.59 2.987 1.605h.151V17.88h1.926v12.718h-1.861v-1.442h-.152c-.584.995-1.709 1.605-3.051 1.605-2.488-.02-4.046-1.849-4.046-4.754zm1.991 0c0 1.95.973 3.108 2.596 3.108 1.623 0 2.619-1.178 2.619-3.108 0-1.91-1.017-3.109-2.619-3.109-1.623.02-2.596 1.199-2.596 3.109zm15.06 0c0-2.946 1.753-4.754 4.588-4.754s4.587 1.788 4.587 4.754c0 2.966-1.752 4.754-4.587 4.754s-4.588-1.788-4.588-4.754zm7.206 0c0-1.991-.952-3.149-2.618-3.149s-2.619 1.158-2.619 3.15c0 1.99.931 3.148 2.619 3.148 1.666 0 2.618-1.158 2.618-3.149zm4.566-4.572h1.861v1.463h.152c.476-1.016 1.45-1.625 2.899-1.625 2.164 0 3.376 1.218 3.376 3.392v5.933h-1.926v-5.465c0-1.463-.671-2.194-2.099-2.194-1.428 0-2.337.893-2.337 2.316v5.343h-1.926v-9.163zm19.151-2.275v2.316h2.121V23h-2.121v4.713c0 .955.412 1.382 1.385 1.382.303 0 .455-.02.736-.041v1.503c-.303.041-.671.102-1.039.102-2.142 0-2.986-.711-2.986-2.479v-5.16h-1.536v-1.524h1.536V19.16h1.904zm4.718-1.28h1.904v5.039h.151c.477-1.016 1.494-1.646 2.965-1.646 2.077 0 3.354 1.24 3.354 3.413v5.912h-1.926v-5.465c0-1.463-.714-2.194-2.077-2.194-1.58 0-2.445.934-2.445 2.316v5.343h-1.926V17.88zm19.604 10.24c-.432 1.645-1.99 2.64-4.219 2.64-2.792 0-4.501-1.787-4.501-4.713s1.753-4.774 4.501-4.774c2.705 0 4.349 1.747 4.349 4.611v.63h-6.881v.102c.065 1.605 1.06 2.62 2.597 2.62 1.168 0 1.969-.385 2.315-1.117h1.839zm-6.751-2.947h4.912c-.043-1.442-.974-2.377-2.402-2.377-1.428 0-2.402.955-2.51 2.377z" fill="#fff"/></svg>