<svg width="32" height="33" fill="none" xmlns="http://www.w3.org/2000/svg"><path clip-rule="evenodd" d="M2.106 13.703h4.646v18.161H2.106c-.7 0-1.267-.54-1.267-1.206V14.909c0-.666.567-1.206 1.267-1.206zM28.78 28.464c-.295 2.264-1.807 3.4-4.495 3.4H10.217c-1.911 0-3.465-1.463-3.465-3.262V13.725c4.46-.435 6.691-1.992 6.691-6.18V5.538c0-2.115 1.8-3.83 4.022-3.83.846 0 1.671.254 2.357.727.945.652 1.547 1.888 1.547 3.667v5.809c0 .494.837.9 1.673.9h4.488c1.89 0 3.423 1.423 3.465 3.192.028 1.18-.71 4.83-2.215 12.461z" stroke="#fff" stroke-width="1.608" stroke-linecap="round" stroke-linejoin="round"/></svg>