<svg width="1002" height="925" fill="none" xmlns="http://www.w3.org/2000/svg"><g opacity=".7"><g filter="url(#filter0_f_1_927)"><path d="M612.356 280.317a186.474 186.474 0 01-260.377 267.008l130.189-133.504 130.188-133.504z" fill="#AC6AFF"/></g><g filter="url(#filter1_f_1_927)"><path d="M306.237 569.692a186.472 186.472 0 01-2.775-263.699 186.475 186.475 0 01263.699-2.774L436.699 436.455 306.237 569.692z" fill="#FF82CD"/></g><g filter="url(#filter2_f_1_927)"><path d="M531.086 451.935A186.472 186.472 0 11792.01 185.462L661.548 318.699 531.086 451.935z" fill="#5AF899" fill-opacity=".7"/></g><g filter="url(#filter3_f_1_927)"><path d="M334.883 674.623a186.476 186.476 0 01-2.774-263.699 186.472 186.472 0 01263.698-2.775L465.345 541.386 334.883 674.623z" fill="#FFDF6C"/></g></g><path d="M182.1 557c-1.4 0-2.8-.8-4-1.5-1.9-1-3.1-1.6-4.1-1l-1-1.5c2-1.3 4.1-.1 5.9.9 1.9 1 3.1 1.6 4.1 1 1-.7 1-2 .7-4.1-.2-2.1-.4-4.5 1.5-5.8 2-1.3 4.1-.1 5.9.9 1.9 1 3.1 1.6 4.1 1 1-.7 1-2 .7-4.1-.2-2.1-.4-4.5 1.5-5.8 2-1.3 4.1-.1 5.9.9 1.9 1 3.1 1.6 4.1 1 1-.7 1-2 .7-4.1-.2-2.1-.4-4.5 1.5-5.8 2-1.3 4.1-.1 5.9.9 1.9 1 3.1 1.6 4.1 1 1-.7 1-2 .7-4.1-.2-2.1-.4-4.5 1.5-5.8 2-1.3 4.1-.1 5.9.9 1.9 1 3.1 1.6 4.1 1 1-.7 1-2 .8-4.1-.2-2.1-.4-4.5 1.5-5.8l1 1.5c-1 .7-1 2-.8 4.1.2 2.1.4 4.5-1.5 5.8-2 1.3-4.1.1-5.9-.9-1.9-1-3.1-1.6-4.1-1-1 .7-1 2-.7 4.1.2 2.1.4 4.5-1.5 5.8-2 1.3-4.1.1-5.9-.9-1.9-1-3.1-1.6-4.1-1-1 .7-1 2-.7 4.1.2 2.1.4 4.5-1.5 5.8-2 1.3-4.1.1-5.9-.9-1.9-1-3.1-1.6-4.1-1-1 .7-1 2-.7 4.1.2 2.1.4 4.5-1.5 5.8-2 1.3-4.1.1-5.9-.9-1.9-1-3.1-1.6-4.1-1-1 .7-1 2-.7 4.1.2 2.1.4 4.5-1.5 5.8-.7.4-1.3.6-1.9.6zm525-316c-1.4 0-2.8-.8-4-1.5-1.9-1-3.1-1.6-4.1-1l-1-1.5c2-1.3 4.1-.1 5.9.9 1.9 1 3.1 1.6 4.1 1 1-.7 1-2 .7-4.1-.2-2.1-.4-4.5 1.5-5.8 2-1.3 4.1-.1 5.9.9 1.9 1 3.1 1.6 4.1 1 1-.7 1-2 .7-4.1-.2-2.1-.4-4.5 1.5-5.8 2-1.3 4.1-.1 5.9.9 1.9 1 3.1 1.6 4.1 1 1-.7 1-2 .7-4.1-.2-2.1-.4-4.5 1.5-5.8 2-1.3 4.1-.1 5.9.9 1.9 1 3.1 1.6 4.1 1 1-.7 1-2 .7-4.1-.2-2.1-.4-4.5 1.5-5.8 2-1.3 4.1-.1 5.9.9 1.9 1 3.1 1.6 4.1 1 1-.7 1-2 .8-4.1-.2-2.1-.4-4.5 1.5-5.8l1 1.5c-1 .7-1 2-.8 4.1.2 2.1.4 4.5-1.5 5.8-2 1.3-4.1.1-5.9-.9-1.9-1-3.1-1.6-4.1-1-1 .7-1 2-.7 4.1.2 2.1.4 4.5-1.5 5.8-2 1.3-4.1.1-5.9-.9-1.9-1-3.1-1.6-4.1-1-1 .7-1 2-.7 4.1.2 2.1.4 4.5-1.5 5.8-2 1.3-4.1.1-5.9-.9-1.9-1-3.1-1.6-4.1-1-1 .7-1 2-.7 4.1.2 2.1.4 4.5-1.5 5.8-2 1.3-4.1.1-5.9-.9-1.9-1-3.1-1.6-4.1-1-1 .7-1 2-.7 4.1.2 2.1.4 4.5-1.5 5.8-.7.4-1.3.6-1.9.6zm32 269c-1.4 0-2.8-.8-4-1.5-1.9-1-3.1-1.6-4.1-1l-1-1.5c2-1.3 4.1-.1 5.9.9 1.9 1 3.1 1.6 4.1 1 1-.7 1-2 .7-4.1-.2-2.1-.4-4.5 1.5-5.8 2-1.3 4.1-.1 5.9.9 1.9 1 3.1 1.6 4.1 1 1-.7 1-2 .7-4.1-.2-2.1-.4-4.5 1.5-5.8 2-1.3 4.1-.1 5.9.9 1.9 1 3.1 1.6 4.1 1 1-.7 1-2 .7-4.1-.2-2.1-.4-4.5 1.5-5.8 2-1.3 4.1-.1 5.9.9 1.9 1 3.1 1.6 4.1 1 1-.7 1-2 .7-4.1-.2-2.1-.4-4.5 1.5-5.8 2-1.3 4.1-.1 5.9.9 1.9 1 3.1 1.6 4.1 1 1-.7 1-2 .8-4.1-.2-2.1-.4-4.5 1.5-5.8l1 1.5c-1 .7-1 2-.8 4.1.2 2.1.4 4.5-1.5 5.8-2 1.3-4.1.1-5.9-.9-1.9-1-3.1-1.6-4.1-1-1 .7-1 2-.7 4.1.2 2.1.4 4.5-1.5 5.8-2 1.3-4.1.1-5.9-.9-1.9-1-3.1-1.6-4.1-1-1 .7-1 2-.7 4.1.2 2.1.4 4.5-1.5 5.8-2 1.3-4.1.1-5.9-.9-1.9-1-3.1-1.6-4.1-1-1 .7-1 2-.7 4.1.2 2.1.4 4.5-1.5 5.8-2 1.3-4.1.1-5.9-.9-1.9-1-3.1-1.6-4.1-1-1 .7-1 2-.7 4.1.2 2.1.4 4.5-1.5 5.8-.7.4-1.3.6-1.9.6z" fill="#fff"/><path d="M901.923 194.482a.74.74 0 10.002-1.482.74.74 0 00-.002 1.482zm-3.706 3.706a.74.74 0 10.002-1.482.74.74 0 00-.002 1.482zm-3.891 3.707a.742.742 0 10-.001-1.483.742.742 0 00.001 1.483zm-3.706 3.706a.742.742 0 10-.001-1.483.742.742 0 00.001 1.483zm-3.892 3.891a.742.742 0 10.001-1.483.742.742 0 00-.001 1.483zm-3.706 3.706a.742.742 0 10.001-1.483.742.742 0 00-.001 1.483zm-3.891 3.706a.741.741 0 100-1.483.741.741 0 000 1.483zm-3.706 3.706a.741.741 0 100-1.483.741.741 0 000 1.483zm-3.891 3.706a.74.74 0 100-1.481.74.74 0 000 1.481zm-3.707 3.706a.74.74 0 10.002-1.482.74.74 0 00-.002 1.482zm-3.891 3.706a.74.74 0 10.002-1.48.74.74 0 00-.002 1.48zm-3.706 3.707a.742.742 0 10-.001-1.483.742.742 0 00.001 1.483zm-3.891 3.706a.742.742 0 10-.001-1.483.742.742 0 00.001 1.483zm-3.706 3.706a.742.742 0 10-.001-1.483.742.742 0 00.001 1.483zm-3.892 3.706a.74.74 0 100-1.481.74.74 0 000 1.481zm57.63-47.623a.742.742 0 10-.001-1.483.742.742 0 00.001 1.483zm-3.707 3.706a.742.742 0 10.001-1.483.742.742 0 00-.001 1.483zm-3.891 3.891a.741.741 0 100-1.483.741.741 0 000 1.483zm-3.891 3.706a.741.741 0 100-1.483.741.741 0 000 1.483zm-3.706 3.706a.741.741 0 100-1.483.741.741 0 000 1.483zm-3.892 3.706a.742.742 0 10.001-1.483.742.742 0 00-.001 1.483zm-3.706 3.707a.742.742 0 100-1.483.742.742 0 000 1.483zm-3.891 3.706a.742.742 0 10-.001-1.483.742.742 0 00.001 1.483zm-3.706 3.706a.742.742 0 10-.001-1.483.742.742 0 00.001 1.483zm-3.892 3.706a.742.742 0 10.001-1.483.742.742 0 00-.001 1.483zm-3.706 3.706a.74.74 0 100-1.481.74.74 0 000 1.481zm-3.891 3.706a.741.741 0 100-1.483.741.741 0 000 1.483zm-3.706 3.706a.741.741 0 100-1.483.741.741 0 000 1.483zm-3.892 3.706a.742.742 0 10.001-1.483.742.742 0 00-.001 1.483zM853.188 251a.742.742 0 10.001-1.483.742.742 0 00-.001 1.483zm57.63-47.438a.741.741 0 100-1.483.741.741 0 000 1.483zm-3.891 3.706a.741.741 0 100-1.483.741.741 0 000 1.483zm-3.706 3.706a.74.74 0 100-1.481.74.74 0 000 1.481zm-3.892 3.706a.74.74 0 100-1.481.74.74 0 000 1.481zm-3.706 3.706a.74.74 0 100-1.481.74.74 0 000 1.481zm-3.891 3.707a.742.742 0 10-.001-1.483.742.742 0 00.001 1.483zm-3.706 3.706a.742.742 0 10-.001-1.483.742.742 0 00.001 1.483zm-3.892 3.706a.742.742 0 10.001-1.483.742.742 0 00-.001 1.483zm-3.891 3.706a.741.741 0 100-1.483.741.741 0 000 1.483zm-3.706 3.706a.741.741 0 100-1.483.741.741 0 000 1.483zm-3.892 3.706a.742.742 0 10.001-1.483.742.742 0 00-.001 1.483zm-3.706 3.706a.742.742 0 10.001-1.483.742.742 0 00-.001 1.483zm-3.891 3.706a.741.741 0 100-1.483.741.741 0 000 1.483zm-3.706 3.706a.741.741 0 100-1.483.741.741 0 000 1.483zm-3.891 3.706a.741.741 0 100-1.483.741.741 0 000 1.483zm57.629-47.437a.742.742 0 10-.001-1.483.742.742 0 00.001 1.483zm-3.706 3.706a.742.742 0 10-.001-1.483.742.742 0 00.001 1.483zm-3.891 3.706a.742.742 0 10-.001-1.483.742.742 0 00.001 1.483zm-3.707 3.706a.742.742 0 100-1.483.742.742 0 000 1.483zm-3.891 3.706a.741.741 0 100-1.483.741.741 0 000 1.483zm-3.706 3.706a.741.741 0 100-1.483.741.741 0 000 1.483zm-3.891 3.706a.741.741 0 100-1.483.741.741 0 000 1.483zm-3.706 3.706a.741.741 0 100-1.483.741.741 0 000 1.483zm-3.892 3.706a.741.741 0 100-1.483.741.741 0 000 1.483zm-3.706 3.706a.741.741 0 100-1.483.741.741 0 000 1.483zm-3.891 3.706a.741.741 0 100-1.483.741.741 0 000 1.483zm-3.706 3.706a.74.74 0 100-1.481.74.74 0 000 1.481zm-3.892 3.706a.74.74 0 10.002-1.482.74.74 0 00-.002 1.482zm-3.706 3.707a.74.74 0 100-1.482.74.74 0 000 1.482zm-3.891 3.891a.741.741 0 100-1.483.741.741 0 000 1.483zm57.629-47.623a.741.741 0 100-1.483.741.741 0 000 1.483zm-3.891 3.706a.741.741 0 100-1.483.741.741 0 000 1.483zm-3.706 3.706a.741.741 0 100-1.483.741.741 0 000 1.483zm-3.892 3.706a.74.74 0 100-1.481.74.74 0 000 1.481zm-3.706 3.706a.74.74 0 100-1.481.74.74 0 000 1.481zm-3.891 3.706a.741.741 0 100-1.483.741.741 0 000 1.483zm-3.706 3.706a.741.741 0 100-1.483.741.741 0 000 1.483zm-3.892 3.706a.742.742 0 10.001-1.483.742.742 0 00-.001 1.483zm-3.706 3.707a.742.742 0 100-1.483.742.742 0 000 1.483zm-3.891 3.706a.742.742 0 10-.001-1.483.742.742 0 00.001 1.483zm-3.706 3.706a.742.742 0 10-.001-1.483.742.742 0 00.001 1.483zm-3.892 3.706a.742.742 0 100-1.483.742.742 0 000 1.483zm-3.706 3.891a.742.742 0 10.001-1.483.742.742 0 00-.001 1.483zm-3.891 3.706a.741.741 0 100-1.483.741.741 0 000 1.483zm-3.706 3.706a.741.741 0 100-1.483.741.741 0 000 1.483zm57.629-47.623a.742.742 0 10.001-1.483.742.742 0 00-.001 1.483zm-3.891 3.706a.741.741 0 100-1.483.741.741 0 000 1.483zm-3.706 3.706a.74.74 0 100-1.481.74.74 0 000 1.481zm-3.891 3.706a.74.74 0 100-1.481.74.74 0 000 1.481zm-3.892 3.706a.74.74 0 10.002-1.48.74.74 0 00-.002 1.48zm-3.706 3.707a.74.74 0 100-1.482.74.74 0 000 1.482zm-3.891 3.706a.742.742 0 10-.001-1.483.742.742 0 00.001 1.483zm-3.706 3.706a.742.742 0 10-.001-1.483.742.742 0 00.001 1.483zm-3.892 3.706a.74.74 0 100-1.481.74.74 0 000 1.481zm-3.706 3.706a.74.74 0 100-1.481.74.74 0 000 1.481zm-3.891 3.891a.741.741 0 100-1.483.741.741 0 000 1.483zm-3.706 3.706a.74.74 0 100-1.481.74.74 0 000 1.481zm-3.892 3.707a.742.742 0 100-1.483.742.742 0 000 1.483zm-3.706 3.706a.74.74 0 100-1.482.74.74 0 000 1.482zm-3.891 3.706a.742.742 0 10-.001-1.483.742.742 0 00.001 1.483zm57.629-47.623a.742.742 0 100-1.483.742.742 0 000 1.483zm-3.706 3.706a.742.742 0 100-1.483.742.742 0 000 1.483zm-3.891 3.706a.742.742 0 10-.001-1.483.742.742 0 00.001 1.483zm-3.706 3.706a.741.741 0 100-1.483.741.741 0 000 1.483zm-3.891 3.706a.741.741 0 100-1.483.741.741 0 000 1.483zm-3.706 3.706a.741.741 0 100-1.483.741.741 0 000 1.483zm-3.892 3.706a.74.74 0 100-1.481.74.74 0 000 1.481zm-3.706 3.706a.74.74 0 100-1.481.74.74 0 000 1.481zM897.847 251a.741.741 0 100-1.483.741.741 0 000 1.483zm-3.892 3.892a.742.742 0 100-1.483.742.742 0 000 1.483zm-3.706 3.706a.74.74 0 100-1.482.74.74 0 000 1.482zm-3.891 3.706a.742.742 0 10-.001-1.483.742.742 0 00.001 1.483zm-3.706 3.706a.741.741 0 100-1.483.741.741 0 000 1.483zm-3.892 3.706a.742.742 0 10.001-1.483.742.742 0 00-.001 1.483zm-3.706 3.706a.742.742 0 10.001-1.483.742.742 0 00-.001 1.483zm57.63-47.623a.741.741 0 100-1.483.741.741 0 000 1.483zm-3.892 3.706a.742.742 0 10.001-1.483.742.742 0 00-.001 1.483zm-3.706 3.706a.742.742 0 10.001-1.483.742.742 0 00-.001 1.483zm-3.891 3.706a.741.741 0 100-1.483.741.741 0 000 1.483zm-3.706 3.706a.741.741 0 100-1.483.741.741 0 000 1.483zm-3.892 3.706a.742.742 0 10.001-1.483.742.742 0 00-.001 1.483zm-3.706 3.706a.742.742 0 10.001-1.483.742.742 0 00-.001 1.483zM906 251.927a.741.741 0 100-1.483.741.741 0 000 1.483zm-3.706 3.706a.741.741 0 100-1.483.741.741 0 000 1.483zm-3.891 3.706a.741.741 0 100-1.483.741.741 0 000 1.483zm-3.707 3.706a.742.742 0 10.001-1.483.742.742 0 00-.001 1.483zm-3.891 3.706a.74.74 0 100-1.481.74.74 0 000 1.481zm-3.706 3.706a.741.741 0 100-1.483.741.741 0 000 1.483zm-3.891 3.706a.741.741 0 100-1.483.741.741 0 000 1.483zm-3.706 3.706a.741.741 0 100-1.483.741.741 0 000 1.483zm57.444-47.623a.741.741 0 100-1.483.741.741 0 000 1.483zm-3.707 3.706a.742.742 0 10.001-1.483.742.742 0 00-.001 1.483zm-3.891 3.706a.74.74 0 100-1.481.74.74 0 000 1.481zm-3.706 3.706a.741.741 0 100-1.483.741.741 0 000 1.483zm-3.891 3.706a.741.741 0 100-1.483.741.741 0 000 1.483zm-3.706 3.892a.742.742 0 10-.001-1.483.742.742 0 00.001 1.483zm-3.892 3.706a.742.742 0 10.001-1.483.742.742 0 00-.001 1.483zm-3.706 3.706a.742.742 0 10.001-1.483.742.742 0 00-.001 1.483zm-3.891 3.706a.741.741 0 100-1.483.741.741 0 000 1.483zm-3.706 3.706a.741.741 0 100-1.483.741.741 0 000 1.483zm-3.892 3.706a.742.742 0 10.001-1.483.742.742 0 00-.001 1.483zm-3.706 3.706a.742.742 0 10.001-1.483.742.742 0 00-.001 1.483zm-3.891 3.706a.741.741 0 100-1.483.741.741 0 000 1.483zm-3.706 3.706a.741.741 0 100-1.483.741.741 0 000 1.483zm-3.891 3.706a.74.74 0 100-1.481.74.74 0 000 1.481zm57.629-47.623a.74.74 0 100-1.481.74.74 0 000 1.481zm-3.706 3.706a.74.74 0 100-1.481.74.74 0 000 1.481zm-3.892 3.707a.742.742 0 100-1.483.742.742 0 000 1.483zm-3.706 3.891a.742.742 0 10.001-1.483.742.742 0 00-.001 1.483zm-3.891 3.706a.741.741 0 100-1.483.741.741 0 000 1.483zm-3.891 3.706a.741.741 0 100-1.483.741.741 0 000 1.483zm-3.706 3.706a.741.741 0 100-1.483.741.741 0 000 1.483zm-3.892 3.706a.74.74 0 100-1.481.74.74 0 000 1.481zm-3.706 3.706a.74.74 0 100-1.481.74.74 0 000 1.481zm-3.891 3.706a.74.74 0 100-1.481.74.74 0 000 1.481zm-3.706 3.706a.74.74 0 100-1.481.74.74 0 000 1.481zm-3.892 3.707a.74.74 0 100-1.482.74.74 0 000 1.482zm-3.706 3.706a.74.74 0 100-1.482.74.74 0 000 1.482zm-3.891 3.706a.742.742 0 10-.001-1.483.742.742 0 00.001 1.483zm-3.706 3.706a.742.742 0 10-.001-1.483.742.742 0 00.001 1.483zm57.629-47.623a.742.742 0 10-.001-1.483.742.742 0 00.001 1.483zm-3.891 3.891a.741.741 0 100-1.483.741.741 0 000 1.483zm-3.706 3.706a.741.741 0 100-1.483.741.741 0 000 1.483zm-3.892 3.706a.742.742 0 10.001-1.483.742.742 0 00-.001 1.483zm-3.706 3.706a.742.742 0 10.001-1.483.742.742 0 00-.001 1.483zm-3.891 3.706a.741.741 0 100-1.483.741.741 0 000 1.483zm-3.706 3.706a.741.741 0 100-1.483.741.741 0 000 1.483zm-3.892 3.706a.74.74 0 10.002-1.482.74.74 0 00-.002 1.482zm-3.706 3.706a.74.74 0 10.002-1.482.74.74 0 00-.002 1.482zm-3.891 3.706a.74.74 0 100-1.481.74.74 0 000 1.481zm-3.891 3.707a.741.741 0 100-1.483.741.741 0 000 1.483zm-3.706 3.706a.741.741 0 100-1.483.741.741 0 000 1.483zm-3.892 3.706a.742.742 0 10.001-1.483.742.742 0 00-.001 1.483zm-3.706 3.706a.74.74 0 100-1.481.74.74 0 000 1.481zm-3.891 3.706a.741.741 0 100-1.483.741.741 0 000 1.483zm57.629-47.438a.742.742 0 10.001-1.483.742.742 0 00-.001 1.483zm-3.706 3.706a.74.74 0 100-1.481.74.74 0 000 1.481zm-3.891 3.706a.741.741 0 100-1.483.741.741 0 000 1.483zm-3.706 3.706a.741.741 0 100-1.483.741.741 0 000 1.483zm-3.892 3.706a.74.74 0 10.002-1.48.74.74 0 00-.002 1.48zm-3.706 3.706a.74.74 0 10.002-1.482.74.74 0 00-.002 1.482zm-3.891 3.707a.742.742 0 10-.001-1.483.742.742 0 00.001 1.483zm-3.706 3.706a.742.742 0 10-.001-1.483.742.742 0 00.001 1.483zm-3.892 3.706a.742.742 0 10.001-1.483.742.742 0 00-.001 1.483zm-3.706 3.706a.742.742 0 10.001-1.483.742.742 0 00-.001 1.483zm-3.891 3.706a.741.741 0 100-1.483.741.741 0 000 1.483zm-3.706 3.706a.741.741 0 100-1.483.741.741 0 000 1.483zm-3.891 3.706a.741.741 0 100-1.483.741.741 0 000 1.483zm-3.707 3.706a.742.742 0 10.001-1.483.742.742 0 00-.001 1.483zm-3.891 3.706a.74.74 0 100-1.481.74.74 0 000 1.481zm57.629-47.438a.74.74 0 10.002-1.482.74.74 0 00-.002 1.482zm-3.891 3.706a.74.74 0 100-1.481.74.74 0 000 1.481zm-3.706 3.707a.742.742 0 10-.001-1.483.742.742 0 00.001 1.483zm-3.891 3.706a.742.742 0 10-.001-1.483.742.742 0 00.001 1.483zm-3.706 3.706a.742.742 0 10-.001-1.483.742.742 0 00.001 1.483zm-3.892 3.706a.742.742 0 10.001-1.483.742.742 0 00-.001 1.483zm-3.706 3.706a.74.74 0 100-1.481.74.74 0 000 1.481zm-3.891 3.706a.741.741 0 100-1.483.741.741 0 000 1.483zm-3.706 3.706a.741.741 0 100-1.483.741.741 0 000 1.483zm-3.892 3.706a.742.742 0 10.001-1.483.742.742 0 00-.001 1.483zm-3.706 3.706a.74.74 0 100-1.481.74.74 0 000 1.481zm-3.891 3.706a.741.741 0 100-1.483.741.741 0 000 1.483zm-3.706 3.706a.74.74 0 100-1.481.74.74 0 000 1.481zm-3.891 3.892a.742.742 0 10-.001-1.483.742.742 0 00.001 1.483zm-3.707 3.706a.742.742 0 10.001-1.483.742.742 0 00-.001 1.483zm57.63-47.623a.741.741 0 100-1.483.741.741 0 000 1.483zm-3.891 3.706a.741.741 0 100-1.483.741.741 0 000 1.483zm-3.707 3.706a.742.742 0 10.001-1.483.742.742 0 00-.001 1.483zm-3.891 3.706a.741.741 0 100-1.483.741.741 0 000 1.483zm-3.706 3.706a.741.741 0 100-1.483.741.741 0 000 1.483zm-3.891 3.706a.741.741 0 100-1.483.741.741 0 000 1.483zm-3.892 3.706a.742.742 0 10.001-1.483.742.742 0 00-.001 1.483zm-3.706 3.706a.74.74 0 100-1.481.74.74 0 000 1.481zm-3.891 3.706a.74.74 0 100-1.481.74.74 0 000 1.481zm-3.706 3.706a.74.74 0 100-1.481.74.74 0 000 1.481zm-3.892 3.706a.74.74 0 10.002-1.482.74.74 0 00-.002 1.482zm-3.706 3.892a.74.74 0 100-1.481.74.74 0 000 1.481zm-3.891 3.706a.741.741 0 100-1.483.741.741 0 000 1.483zm-3.706 3.706a.741.741 0 100-1.483.741.741 0 000 1.483zm-3.892 3.706a.742.742 0 10.001-1.483.742.742 0 00-.001 1.483zm57.63-47.623a.741.741 0 100-1.483.741.741 0 000 1.483zm-3.706 3.706a.741.741 0 100-1.483.741.741 0 000 1.483zm-3.892 3.706a.742.742 0 10.001-1.483.742.742 0 00-.001 1.483zm-3.706 3.706a.742.742 0 10.001-1.483.742.742 0 00-.001 1.483zm-3.891 3.706a.741.741 0 100-1.483.741.741 0 000 1.483zm-3.706 3.706a.741.741 0 100-1.483.741.741 0 000 1.483zm-3.891 3.706a.741.741 0 100-1.483.741.741 0 000 1.483zm-3.707 3.706a.74.74 0 10.002-1.482.74.74 0 00-.002 1.482zm-3.891 3.707a.742.742 0 10-.001-1.483.742.742 0 00.001 1.483zm-3.706 3.891a.741.741 0 100-1.483.741.741 0 000 1.483zm-3.891 3.706a.741.741 0 100-1.483.741.741 0 000 1.483zm-3.892 3.706a.742.742 0 10.001-1.483.742.742 0 00-.001 1.483zm-3.706 3.706a.742.742 0 10.001-1.483.742.742 0 00-.001 1.483zm-3.891 3.706a.741.741 0 100-1.483.741.741 0 000 1.483zm-3.706 3.706a.741.741 0 100-1.483.741.741 0 000 1.483z" fill="#8643DC"/><path d="M848 628.2l-.772-1.006L836 635.813l.772 1.006L848 628.2z" fill="#09E6DF"/><path d="M846.763 637.228L838.144 626l-1.006.772 8.62 11.228 1.005-.772z" fill="#09E6DF"/><path d="M933 318.2l-.772-1.006L921 325.813l.772 1.006L933 318.2z" fill="#8643DC"/><path d="M931.763 327.228L923.144 316l-1.006.772 8.62 11.228 1.005-.772z" fill="#8643DC"/><path d="M238.416 182.416a3.466 3.466 0 101.167-6.834 3.466 3.466 0 00-1.167 6.834z" fill="#FF59C1"/><path d="M340.416 753.416a3.466 3.466 0 101.167-6.834 3.466 3.466 0 00-1.167 6.834z" fill="#8643DC"/><path d="M763.416 271.416a3.466 3.466 0 101.167-6.834 3.466 3.466 0 00-1.167 6.834z" fill="#43DC77"/><path d="M632.416 29.416a3.466 3.466 0 101.168-6.833 3.466 3.466 0 00-1.168 6.833z" fill="#F57DC8"/><defs><filter id="filter0_f_1_927" x="101.979" y="30.317" width="816.662" height="819.977" filterUnits="userSpaceOnUse" color-interpolation-filters="sRGB"><feFlood flood-opacity="0" result="BackgroundImageFix"/><feBlend in="SourceGraphic" in2="BackgroundImageFix" result="shape"/><feGaussianBlur stdDeviation="125" result="effect1_foregroundBlur_1_927"/></filter><filter id="filter1_f_1_927" x=".225" y="-.018" width="816.936" height="819.71" filterUnits="userSpaceOnUse" color-interpolation-filters="sRGB"><feFlood flood-opacity="0" result="BackgroundImageFix"/><feBlend in="SourceGraphic" in2="BackgroundImageFix" result="shape"/><feGaussianBlur stdDeviation="125" result="effect1_foregroundBlur_1_927"/></filter><filter id="filter2_f_1_927" x="225.074" y="-117.775" width="816.936" height="819.71" filterUnits="userSpaceOnUse" color-interpolation-filters="sRGB"><feFlood flood-opacity="0" result="BackgroundImageFix"/><feBlend in="SourceGraphic" in2="BackgroundImageFix" result="shape"/><feGaussianBlur stdDeviation="125" result="effect1_foregroundBlur_1_927"/></filter><filter id="filter3_f_1_927" x="28.872" y="104.912" width="816.936" height="819.71" filterUnits="userSpaceOnUse" color-interpolation-filters="sRGB"><feFlood flood-opacity="0" result="BackgroundImageFix"/><feBlend in="SourceGraphic" in2="BackgroundImageFix" result="shape"/><feGaussianBlur stdDeviation="125" result="effect1_foregroundBlur_1_927"/></filter></defs></svg>