<svg width="1002" height="925" fill="none" xmlns="http://www.w3.org/2000/svg"><g opacity=".7"><g filter="url(#filter0_f_1_4)"><path d="M612.356 280.317a186.474 186.474 0 01-260.377 267.008l130.189-133.504 130.188-133.504z" fill="#AC6AFF"/></g><g filter="url(#filter1_f_1_4)"><path d="M306.237 569.692a186.472 186.472 0 01-2.775-263.699 186.475 186.475 0 01263.699-2.774L436.699 436.455 306.237 569.692z" fill="#FF82CD"/></g><g filter="url(#filter2_f_1_4)"><path d="M531.086 451.935A186.472 186.472 0 11792.01 185.462L661.548 318.699 531.086 451.935z" fill="#5AF899" fill-opacity=".7"/></g><g filter="url(#filter3_f_1_4)"><path d="M334.883 674.623a186.476 186.476 0 01-2.774-263.699 186.472 186.472 0 01263.698-2.775L465.345 541.386 334.883 674.623z" fill="#FFDF6C"/></g></g><defs><filter id="filter0_f_1_4" x="101.979" y="30.317" width="816.662" height="819.977" filterUnits="userSpaceOnUse" color-interpolation-filters="sRGB"><feFlood flood-opacity="0" result="BackgroundImageFix"/><feBlend in="SourceGraphic" in2="BackgroundImageFix" result="shape"/><feGaussianBlur stdDeviation="125" result="effect1_foregroundBlur_1_4"/></filter><filter id="filter1_f_1_4" x=".225" y="-.018" width="816.936" height="819.71" filterUnits="userSpaceOnUse" color-interpolation-filters="sRGB"><feFlood flood-opacity="0" result="BackgroundImageFix"/><feBlend in="SourceGraphic" in2="BackgroundImageFix" result="shape"/><feGaussianBlur stdDeviation="125" result="effect1_foregroundBlur_1_4"/></filter><filter id="filter2_f_1_4" x="225.074" y="-117.775" width="816.936" height="819.71" filterUnits="userSpaceOnUse" color-interpolation-filters="sRGB"><feFlood flood-opacity="0" result="BackgroundImageFix"/><feBlend in="SourceGraphic" in2="BackgroundImageFix" result="shape"/><feGaussianBlur stdDeviation="125" result="effect1_foregroundBlur_1_4"/></filter><filter id="filter3_f_1_4" x="28.872" y="104.912" width="816.936" height="819.71" filterUnits="userSpaceOnUse" color-interpolation-filters="sRGB"><feFlood flood-opacity="0" result="BackgroundImageFix"/><feBlend in="SourceGraphic" in2="BackgroundImageFix" result="shape"/><feGaussianBlur stdDeviation="125" result="effect1_foregroundBlur_1_4"/></filter></defs></svg>