<svg width="191" height="46" fill="none" xmlns="http://www.w3.org/2000/svg"><path d="M0 11.733v23.476L19.416 46V13.595l-6.707 6.214v16.376l-1.604-.875v-14.2l-4.14 3.668v8.278l-1.67-.909V14.795l15.03-8.67V0L0 11.733zM20.325 0v6.124l15.02 8.67v17.353l-1.66.909v-8.278l-4.14-3.668v14.2l-1.615.875V19.81l-6.697-6.214V46L40.65 35.21V11.732L20.325 0z" fill="#FD6B3E"/><path d="M60.688 22.192a6.89 6.89 0 01-2.416-.416 5.775 5.775 0 01-1.92-1.216 5.71 5.71 0 01-1.28-1.84 5.88 5.88 0 01-.448-2.32c0-.843.15-1.616.448-2.32a5.71 5.71 0 011.28-1.84 5.744 5.744 0 011.936-1.2 6.574 6.574 0 012.416-.432c.97 0 1.845.17 2.624.512.79.33 1.45.821 1.984 1.472l-1.664 1.536a3.797 3.797 0 00-1.28-.976 3.52 3.52 0 00-1.536-.336c-.523 0-1.003.085-1.44.256-.437.17-.816.416-1.136.736-.32.32-.57.699-.752 1.136-.17.437-.256.923-.256 1.456 0 .533.085 1.019.256 1.456.181.437.432.816.752 1.136.32.32.699.565 1.136.736.437.17.917.256 1.44.256a3.67 3.67 0 001.536-.32 3.9 3.9 0 001.28-1.008l1.664 1.536a5.186 5.186 0 01-1.984 1.488c-.779.341-1.659.512-2.64.512zm11.58 0a6.876 6.876 0 01-2.464-.432 5.918 5.918 0 01-1.952-1.216 5.71 5.71 0 01-1.28-1.84 5.838 5.838 0 01-.448-2.304c0-.832.15-1.6.448-2.304a5.592 5.592 0 011.296-1.84 5.918 5.918 0 011.952-1.216 6.701 6.701 0 012.432-.432c.885 0 1.696.144 2.432.432a5.74 5.74 0 011.936 1.216 5.592 5.592 0 011.296 1.84c.31.693.464 1.461.464 2.304 0 .832-.155 1.605-.464 2.32a5.592 5.592 0 01-1.296 1.84 5.873 5.873 0 01-1.936 1.2 6.574 6.574 0 01-2.416.432zm-.016-2.208c.501 0 .96-.085 1.376-.256a3.265 3.265 0 001.856-1.872c.181-.437.272-.923.272-1.456 0-.533-.09-1.019-.272-1.456a3.265 3.265 0 00-.736-1.136 3.135 3.135 0 00-1.104-.736 3.714 3.714 0 00-1.392-.256 3.71 3.71 0 00-1.392.256 3.34 3.34 0 00-1.104.736c-.32.32-.57.699-.752 1.136-.17.437-.256.923-.256 1.456 0 .523.085 1.008.256 1.456.181.437.427.816.736 1.136a3.3 3.3 0 001.12.736c.427.17.89.256 1.392.256zM80.328 22V10.8h2.144l6.608 8.064h-1.04V10.8h2.56V22h-2.128l-6.624-8.064h1.04V22h-2.56zm18.282.192a6.89 6.89 0 01-2.416-.416 5.775 5.775 0 01-1.92-1.216 5.71 5.71 0 01-1.28-1.84 5.88 5.88 0 01-.448-2.32c0-.843.15-1.616.448-2.32a5.71 5.71 0 011.28-1.84 5.743 5.743 0 011.936-1.2 6.574 6.574 0 012.416-.432c.97 0 1.845.17 2.624.512.789.33 1.451.821 1.984 1.472l-1.664 1.536a3.8 3.8 0 00-1.28-.976 3.52 3.52 0 00-1.536-.336c-.523 0-1.003.085-1.44.256-.438.17-.816.416-1.136.736-.32.32-.57.699-.752 1.136-.17.437-.256.923-.256 1.456 0 .533.085 1.019.256 1.456.181.437.432.816.752 1.136.32.32.698.565 1.136.736.437.17.917.256 1.44.256a3.67 3.67 0 001.536-.32 3.91 3.91 0 001.28-1.008l1.664 1.536a5.186 5.186 0 01-1.984 1.488c-.779.341-1.659.512-2.64.512zm8.585-.192v-9.088h-3.584V10.8h9.76v2.112h-3.584V22h-2.592zm7.571 0V10.8h4.848c1.002 0 1.866.165 2.592.496.725.32 1.285.784 1.68 1.392.394.608.592 1.333.592 2.176 0 .832-.198 1.552-.592 2.16-.395.597-.955 1.056-1.68 1.376-.726.32-1.59.48-2.592.48h-3.408l1.152-1.136V22h-2.592zm7.119 0l-2.799-4.064h2.768L124.686 22h-2.801zm-4.527-3.968l-1.152-1.216h3.264c.8 0 1.397-.17 1.792-.512.394-.352.592-.832.592-1.44 0-.619-.198-1.099-.592-1.44-.395-.341-.992-.512-1.792-.512h-3.264l1.152-1.232v6.352zm14.149 4.16c-1.589 0-2.832-.443-3.728-1.328-.896-.885-1.344-2.15-1.344-3.792V10.8h2.592v6.176c0 1.067.219 1.835.656 2.304.437.47 1.051.704 1.84.704.789 0 1.403-.235 1.84-.704.437-.47.656-1.237.656-2.304V10.8h2.56v6.272c0 1.643-.448 2.907-1.344 3.792-.896.885-2.139 1.328-3.728 1.328zm12.994 0a6.89 6.89 0 01-2.416-.416 5.79 5.79 0 01-1.921-1.216 5.717 5.717 0 01-1.279-1.84c-.299-.704-.448-1.477-.448-2.32 0-.843.149-1.616.448-2.32a5.717 5.717 0 011.279-1.84 5.75 5.75 0 011.937-1.2 6.573 6.573 0 012.416-.432c.97 0 1.845.17 2.624.512.789.33 1.45.821 1.984 1.472l-1.664 1.536a3.8 3.8 0 00-1.28-.976 3.524 3.524 0 00-1.536-.336c-.523 0-1.003.085-1.44.256-.438.17-.816.416-1.136.736-.32.32-.571.699-.752 1.136a3.967 3.967 0 00-.256 1.456c0 .533.085 1.019.256 1.456.181.437.432.816.752 1.136.32.32.698.565 1.136.736.437.17.917.256 1.44.256.554 0 1.066-.107 1.536-.32a3.91 3.91 0 001.28-1.008l1.664 1.536a5.194 5.194 0 01-1.984 1.488c-.779.341-1.659.512-2.64.512zm8.585-.192v-9.088h-3.584V10.8h9.76v2.112h-3.584V22h-2.592zm7.57 0V10.8h2.592V22h-2.592zm10.69.192a6.876 6.876 0 01-2.464-.432 5.918 5.918 0 01-1.952-1.216 5.705 5.705 0 01-1.28-1.84 5.833 5.833 0 01-.448-2.304c0-.832.149-1.6.448-2.304a5.584 5.584 0 011.296-1.84 5.918 5.918 0 011.952-1.216 6.701 6.701 0 012.432-.432c.885 0 1.696.144 2.432.432a5.736 5.736 0 011.936 1.216 5.584 5.584 0 011.296 1.84c.309.693.464 1.461.464 2.304 0 .832-.155 1.605-.464 2.32a5.584 5.584 0 01-1.296 1.84 5.87 5.87 0 01-1.936 1.2 6.573 6.573 0 01-2.416.432zm-.016-2.208c.501 0 .96-.085 1.376-.256a3.27 3.27 0 001.856-1.872c.181-.437.272-.923.272-1.456 0-.533-.091-1.019-.272-1.456a3.27 3.27 0 00-.736-1.136 3.13 3.13 0 00-1.104-.736 3.716 3.716 0 00-1.392-.256 3.71 3.71 0 00-1.392.256 3.34 3.34 0 00-1.104.736c-.32.32-.571.699-.752 1.136a3.967 3.967 0 00-.256 1.456c0 .523.085 1.008.256 1.456.181.437.427.816.736 1.136a3.3 3.3 0 001.12.736c.427.17.891.256 1.392.256zM179.406 22V10.8h2.144l6.608 8.064h-1.04V10.8h2.56V22h-2.128l-6.624-8.064h1.04V22h-2.56z" fill="#000"/><path d="M58.21 37.05c-.52 0-.987-.113-1.4-.34a2.574 2.574 0 01-.96-.95 2.743 2.743 0 01-.35-1.39c0-.527.117-.99.35-1.39a2.5 2.5 0 01.96-.94c.413-.227.88-.34 1.4-.34.447 0 .85.087 1.21.26.36.173.643.433.85.78l-.53.36a1.666 1.666 0 00-.67-.59 2.001 2.001 0 00-.87-.19c-.373 0-.71.087-1.01.26-.3.167-.537.403-.71.71-.173.307-.26.667-.26 1.08 0 .413.087.773.26 1.08.173.307.41.547.71.72.3.167.637.25 1.01.25.313 0 .603-.063.87-.19s.49-.32.67-.58l.53.36c-.207.34-.49.6-.85.78-.36.173-.763.26-1.21.26zm5.237-.05v-4.82l.18.19h-2.17v-.62h4.69v.62h-2.17l.18-.19V37h-.71zm7.337.05a2.46 2.46 0 01-1.23-.31 2.36 2.36 0 01-.88-.91c-.214-.4-.32-.887-.32-1.46s.106-1.057.32-1.45c.213-.4.503-.703.87-.91a2.48 2.48 0 011.24-.31c.5 0 .946.113 1.34.34.4.22.713.533.94.94.226.4.34.863.34 1.39 0 .533-.114 1-.34 1.4-.227.4-.54.713-.94.94-.394.227-.84.34-1.34.34zm-2.71 1.89v-7.19h.68v1.58l-.07 1.05.1 1.06v3.5h-.71zm2.66-2.52c.373 0 .706-.083 1-.25.293-.173.526-.413.7-.72.173-.313.26-.673.26-1.08 0-.407-.087-.763-.26-1.07a1.912 1.912 0 00-.7-.72 1.929 1.929 0 00-1-.26c-.374 0-.71.087-1.01.26a1.91 1.91 0 00-.7.72c-.167.307-.25.663-.25 1.07 0 .407.083.767.25 1.08a1.9 1.9 0 00.7.72c.3.167.636.25 1.01.25zm7.255.63c-.507 0-.963-.113-1.37-.34a2.6 2.6 0 01-.95-.95 2.743 2.743 0 01-.35-1.39c0-.527.117-.99.35-1.39.234-.4.55-.713.95-.94.4-.227.857-.34 1.37-.34.52 0 .98.113 1.38.34.407.227.724.54.95.94.233.4.35.863.35 1.39 0 .52-.117.983-.35 1.39a2.5 2.5 0 01-.95.95c-.406.227-.867.34-1.38.34zm0-.63c.38 0 .717-.083 1.01-.25.294-.173.523-.413.69-.72.174-.313.26-.673.26-1.08 0-.413-.087-.773-.26-1.08a1.769 1.769 0 00-.69-.71 1.928 1.928 0 00-1-.26c-.373 0-.706.087-1 .26a1.838 1.838 0 00-.7.71c-.173.307-.26.667-.26 1.08 0 .407.087.767.26 1.08.173.307.407.547.7.72.294.167.624.25.99.25zm5.098.58v-5.25h.71v4.17l3.51-4.17h.63V37h-.71v-4.18l-3.5 4.18h-.64zm8.784 0v-4.82l.18.19h-2.17v-.62h4.69v.62h-2.17l.18-.19V37h-.71zm6.633.05c-.547 0-1.027-.113-1.44-.34a2.553 2.553 0 01-.97-.95 2.742 2.742 0 01-.35-1.39c0-.52.11-.98.33-1.38.226-.4.533-.713.92-.94a2.54 2.54 0 011.32-.35c.493 0 .93.113 1.31.34.386.22.69.533.91.94.22.4.33.863.33 1.39a.76.76 0 01-.01.11v.11h-4.57v-.53h4.19l-.28.21c0-.38-.084-.717-.25-1.01a1.76 1.76 0 00-.66-.7 1.86 1.86 0 00-.97-.25c-.36 0-.684.083-.97.25-.287.167-.51.4-.67.7-.16.3-.24.643-.24 1.03v.11c0 .4.086.753.26 1.06.18.3.426.537.74.71.32.167.683.25 1.09.25.32 0 .616-.057.89-.17.28-.113.52-.287.72-.52l.4.46c-.234.28-.527.493-.88.64-.347.147-.73.22-1.15.22zm3.764-.06l.05-.61a.8.8 0 01.13.03.87.87 0 00.12.01c.213 0 .383-.08.51-.24.133-.16.233-.373.3-.64.067-.267.113-.567.14-.9.027-.34.05-.68.07-1.02l.09-1.87h3.85V37h-.71v-4.84l.18.21h-2.86l.17-.22-.08 1.52c-.02.453-.057.887-.11 1.3a5.21 5.21 0 01-.23 1.09c-.1.313-.24.56-.42.74a.954.954 0 01-.69.26c-.08 0-.163-.007-.25-.02a5.657 5.657 0 01-.26-.05zm10.438-3.39c.66.007 1.16.153 1.5.44.347.287.52.7.52 1.24 0 .56-.186.99-.56 1.29-.366.3-.9.447-1.6.44l-2.12-.01v-5.25h.71v1.83l1.55.02zm-.18 2.87c.487.007.854-.09 1.1-.29.254-.207.38-.507.38-.9s-.123-.68-.37-.86c-.246-.187-.616-.283-1.11-.29l-1.37-.02v2.34l1.37.02zm4.455.53v-5.25h.71v2.32h3.31v-2.32h.71V37h-.71v-2.32h-3.31V37h-.71zm12.768 0v-5.25h.71V37h-.71zm-2.91-3.4c.66.007 1.163.153 1.51.44.347.287.52.7.52 1.24 0 .56-.187.99-.56 1.29-.373.3-.907.447-1.6.44l-2.08-.01v-5.25h.71v1.83l1.5.02zm-.18 2.87c.493.007.863-.09 1.11-.29.253-.207.38-.507.38-.9s-.123-.68-.37-.86c-.247-.187-.62-.283-1.12-.29l-1.32-.02v2.34l1.32.02zm8.972.58c-.547 0-1.027-.113-1.44-.34a2.546 2.546 0 01-.97-.95 2.736 2.736 0 01-.35-1.39c0-.52.11-.98.33-1.38.226-.4.533-.713.92-.94a2.54 2.54 0 011.32-.35c.493 0 .93.113 1.31.34.386.22.69.533.91.94.22.4.33.863.33 1.39a.76.76 0 01-.01.11v.11h-4.57v-.53h4.19l-.28.21c0-.38-.084-.717-.25-1.01a1.76 1.76 0 00-.66-.7 1.861 1.861 0 00-.97-.25c-.36 0-.684.083-.97.25-.287.167-.51.4-.67.7-.16.3-.24.643-.24 1.03v.11c0 .4.086.753.26 1.06.18.3.426.537.74.71.32.167.683.25 1.09.25.32 0 .616-.057.89-.17.28-.113.52-.287.72-.52l.4.46c-.234.28-.527.493-.88.64-.347.147-.73.22-1.15.22zm11.059 0c-.454 0-.864-.103-1.23-.31a2.357 2.357 0 01-.88-.91c-.214-.4-.32-.887-.32-1.46s.106-1.057.32-1.45c.213-.4.503-.703.87-.91.366-.207.78-.31 1.24-.31.5 0 .946.113 1.34.34.4.22.713.533.94.94.226.4.34.863.34 1.39 0 .533-.114 1-.34 1.4-.227.4-.54.713-.94.94-.394.227-.84.34-1.34.34zm-2.71 1.89v-7.19h.68v1.58l-.07 1.05.1 1.06v3.5h-.71zm2.66-2.52a1.99 1.99 0 001-.25c.293-.173.526-.413.7-.72.173-.313.26-.673.26-1.08 0-.407-.087-.763-.26-1.07a1.918 1.918 0 00-.7-.72 1.931 1.931 0 00-1-.26c-.374 0-.71.087-1.01.26a1.904 1.904 0 00-.7.72c-.167.307-.25.663-.25 1.07 0 .407.083.767.25 1.08a1.9 1.9 0 00.7.72c.3.167.636.25 1.01.25zm8.326.58v-1.16l-.03-.19v-1.94c0-.447-.127-.79-.38-1.03-.247-.24-.617-.36-1.11-.36-.34 0-.664.057-.97.17a2.462 2.462 0 00-.78.45l-.32-.53c.266-.227.586-.4.96-.52.373-.127.766-.19 1.18-.19.68 0 1.203.17 1.57.51.373.333.56.843.56 1.53V37h-.68zm-1.81.05c-.394 0-.737-.063-1.03-.19a1.57 1.57 0 01-.66-.54c-.154-.233-.23-.5-.23-.8 0-.273.063-.52.19-.74.133-.227.346-.407.64-.54.3-.14.7-.21 1.2-.21h1.81v.53h-1.79c-.507 0-.86.09-1.06.27a.876.876 0 00-.29.67c0 .3.116.54.35.72.233.18.56.27.98.27.4 0 .743-.09 1.03-.27.293-.187.506-.453.64-.8l.16.49a1.666 1.666 0 01-.7.83c-.327.207-.74.31-1.24.31zm7.64.01c-.427 0-.807-.07-1.14-.21a2.173 2.173 0 01-.84-.64 2.922 2.922 0 01-.53-1.06c-.12-.427-.18-.92-.18-1.48 0-.5.046-.937.14-1.31.093-.38.223-.707.39-.98.166-.273.36-.503.58-.69.226-.193.47-.347.73-.46.266-.12.54-.21.82-.27l2.36-.55.12.66-2.22.5c-.14.033-.31.08-.51.14-.194.06-.394.15-.6.27-.2.12-.387.287-.56.5-.174.213-.314.49-.42.83-.1.333-.15.75-.15 1.25 0 .107.003.193.01.26l.02.2c.013.067.023.167.03.3l-.31-.26c.073-.407.223-.76.45-1.06.226-.307.51-.543.85-.71.346-.173.73-.26 1.15-.26.486 0 .92.107 1.3.32.38.207.676.497.89.87.22.373.33.807.33 1.3 0 .487-.114.923-.34 1.31-.22.387-.534.69-.94.91-.407.213-.884.32-1.43.32zm.08-.59c.373 0 .703-.083.99-.25.286-.173.51-.407.67-.7.166-.293.25-.623.25-.99 0-.36-.084-.68-.25-.96-.16-.28-.384-.5-.67-.66a1.954 1.954 0 00-1-.25c-.374 0-.704.08-.99.24-.287.153-.514.37-.68.65-.16.28-.24.603-.24.97s.08.697.24.99c.166.293.393.527.68.7.293.173.626.26 1 .26zm7.212.58a2.76 2.76 0 01-1.37-.34c-.4-.233-.717-.55-.95-.95a2.736 2.736 0 01-.35-1.39c0-.527.116-.99.35-1.39.233-.4.55-.713.95-.94.4-.227.856-.34 1.37-.34.52 0 .98.113 1.38.34.406.227.723.54.95.94.233.4.35.863.35 1.39 0 .52-.117.983-.35 1.39-.227.4-.544.717-.95.95-.407.227-.867.34-1.38.34zm0-.63c.38 0 .716-.083 1.01-.25a1.84 1.84 0 00.69-.72c.173-.313.26-.673.26-1.08 0-.413-.087-.773-.26-1.08a1.774 1.774 0 00-.69-.71 1.931 1.931 0 00-1-.26c-.374 0-.707.087-1 .26a1.83 1.83 0 00-.7.71c-.174.307-.26.667-.26 1.08 0 .407.086.767.26 1.08a1.9 1.9 0 00.7.72c.293.167.623.25.99.25zm5.902.58v-4.82l.18.19H172v-.62h4.69v.62h-2.17l.18-.19V37h-.71zm9.746 0v-5.25h.71V37h-.71zm-2.91-3.4c.66.007 1.164.153 1.51.44.347.287.52.7.52 1.24 0 .56-.186.99-.56 1.29-.373.3-.906.447-1.6.44l-2.08-.01v-5.25h.71v1.83l1.5.02zm-.18 2.87c.494.007.864-.09 1.11-.29.254-.207.38-.507.38-.9s-.123-.68-.37-.86c-.246-.187-.62-.283-1.12-.29l-1.32-.02v2.34l1.32.02z" fill="#A3A1A1"/></svg>