<svg width="144" height="31" fill="none" xmlns="http://www.w3.org/2000/svg"><path d="M20.886 8.295h-3.545c-.137-.757-.39-1.424-.762-2a5.595 5.595 0 00-1.363-1.465 5.875 5.875 0 00-1.807-.91 7.055 7.055 0 00-2.102-.306c-1.341 0-2.542.337-3.602 1.011-1.053.674-1.887 1.663-2.5 2.966-.607 1.303-.91 2.894-.91 4.773 0 1.894.303 3.492.91 4.795.613 1.303 1.45 2.288 2.51 2.955 1.062.666 2.255 1 3.58 1 .735 0 1.432-.099 2.091-.296a6.024 6.024 0 001.807-.898 5.44 5.44 0 002.148-3.42l3.545.011a9.497 9.497 0 01-1.102 3.16 8.717 8.717 0 01-2.08 2.477 9.405 9.405 0 01-2.886 1.602c-1.083.379-2.265.568-3.545.568-2.015 0-3.81-.477-5.387-1.432-1.575-.962-2.818-2.337-3.727-4.125-.901-1.787-1.352-3.92-1.352-6.397 0-2.485.454-4.618 1.363-6.398.91-1.788 2.152-3.16 3.728-4.114C7.473.89 9.265.41 11.273.41c1.235 0 2.386.178 3.454.534a9.119 9.119 0 012.898 1.546 8.501 8.501 0 012.125 2.477c.56.97.94 2.08 1.136 3.33zm11.282 16.057c-1.637 0-3.065-.375-4.284-1.125-1.22-.75-2.167-1.799-2.841-3.148-.675-1.348-1.012-2.924-1.012-4.727 0-1.81.337-3.394 1.012-4.75.674-1.356 1.62-2.409 2.84-3.159 1.22-.75 2.648-1.125 4.285-1.125 1.636 0 3.064.375 4.284 1.125 1.22.75 2.166 1.803 2.84 3.16.675 1.355 1.012 2.939 1.012 4.75 0 1.802-.337 3.378-1.011 4.726-.675 1.349-1.622 2.398-2.841 3.148-1.22.75-2.648 1.125-4.284 1.125zm.011-2.852c1.06 0 1.94-.28 2.636-.84.697-.561 1.213-1.308 1.546-2.24.34-.931.511-1.958.511-3.08 0-1.113-.17-2.136-.511-3.067-.333-.94-.849-1.694-1.546-2.262-.697-.568-1.575-.852-2.636-.852-1.068 0-1.955.284-2.66.852-.696.569-1.215 1.322-1.556 2.262-.333.931-.5 1.954-.5 3.068 0 1.121.167 2.148.5 3.08.341.931.86 1.678 1.557 2.238.704.56 1.59.841 2.659.841zM44.097 24V6.545h3.261v2.841h.216c.364-.962.958-1.712 1.784-2.25.826-.545 1.814-.818 2.966-.818 1.166 0 2.144.273 2.932.818.795.546 1.382 1.296 1.761 2.25h.182c.416-.931 1.08-1.674 1.989-2.227.909-.56 1.992-.84 3.25-.84 1.583 0 2.874.495 3.874 1.488 1.008.992 1.512 2.489 1.512 4.489V24h-3.398V12.614c0-1.182-.322-2.038-.966-2.569-.644-.53-1.413-.795-2.307-.795-1.106 0-1.965.34-2.58 1.023-.613.674-.92 1.541-.92 2.602V24h-3.386V12.398c0-.947-.295-1.709-.886-2.284-.591-.576-1.36-.864-2.307-.864a3.3 3.3 0 00-1.784.511 3.76 3.76 0 00-1.307 1.398c-.326.599-.489 1.292-.489 2.08V24h-3.397zm28.28 6.546v-24h3.319v2.829h.284a9.5 9.5 0 01.852-1.261c.372-.478.887-.894 1.546-1.25.659-.364 1.53-.546 2.614-.546 1.409 0 2.666.356 3.772 1.068 1.106.712 1.974 1.739 2.603 3.08.636 1.34.954 2.955.954 4.84 0 1.887-.314 3.505-.943 4.853-.629 1.341-1.493 2.375-2.591 3.102-1.099.72-2.352 1.08-3.761 1.08-1.061 0-1.928-.178-2.603-.534-.666-.356-1.19-.773-1.568-1.25a9.468 9.468 0 01-.875-1.273h-.204v9.262h-3.398zm3.33-15.273c0 1.227.178 2.303.535 3.227.355.924.87 1.648 1.545 2.17.674.516 1.5.773 2.477.773 1.015 0 1.864-.269 2.546-.807.681-.545 1.197-1.284 1.545-2.215.356-.932.534-1.982.534-3.148 0-1.152-.174-2.186-.522-3.102-.341-.917-.857-1.64-1.546-2.171-.682-.53-1.534-.795-2.557-.795-.985 0-1.818.253-2.5.76-.674.508-1.185 1.217-1.534 2.126-.348.909-.523 1.97-.523 3.182zm21.5 9.113c-1.106 0-2.106-.204-3-.613a5.053 5.053 0 01-2.125-1.807c-.515-.788-.772-1.754-.772-2.898 0-.985.19-1.795.568-2.432.379-.636.89-1.14 1.534-1.511a8.014 8.014 0 012.159-.84c.796-.19 1.606-.334 2.432-.433 1.045-.12 1.894-.22 2.545-.295.652-.084 1.125-.216 1.421-.398.295-.182.443-.477.443-.886v-.08c0-.992-.28-1.761-.841-2.307-.553-.545-1.379-.818-2.477-.818-1.144 0-2.046.254-2.705.762-.651.5-1.102 1.056-1.352 1.67l-3.193-.727c.379-1.06.932-1.917 1.659-2.568a6.73 6.73 0 012.534-1.432 9.893 9.893 0 013.011-.455c.697 0 1.436.084 2.216.25a6.49 6.49 0 012.205.887c.689.431 1.254 1.049 1.693 1.852.439.795.659 1.83.659 3.102V24h-3.318v-2.386h-.137c-.219.439-.549.87-.988 1.295-.44.424-1.004.777-1.693 1.057-.69.28-1.516.42-2.478.42zm.739-2.727c.94 0 1.742-.185 2.409-.557.674-.37 1.186-.856 1.534-1.454a3.773 3.773 0 00.534-1.944v-2.25c-.121.122-.356.235-.704.341-.341.099-.731.186-1.171.262-.439.068-.867.132-1.284.193-.416.053-.765.099-1.045.136a8.421 8.421 0 00-1.807.42c-.538.198-.97.482-1.296.853-.318.364-.477.849-.477 1.455 0 .84.31 1.477.932 1.909.621.424 1.413.636 2.375.636zm15.798-8.023V24h-3.397V6.545h3.261v2.841h.216a4.986 4.986 0 011.886-2.227c.864-.56 1.951-.84 3.262-.84 1.189 0 2.231.25 3.125.75.894.492 1.587 1.226 2.079 2.204.493.977.739 2.185.739 3.625V24h-3.398V13.307c0-1.265-.329-2.254-.989-2.966-.659-.72-1.564-1.08-2.716-1.08-.787 0-1.488.17-2.102.512-.606.34-1.087.84-1.443 1.5-.348.651-.523 1.44-.523 2.363zm17.25 16.91c-.507 0-.969-.042-1.386-.125-.417-.076-.727-.16-.932-.25l.818-2.785c.622.167 1.175.239 1.659.216a1.99 1.99 0 001.285-.545c.378-.341.712-.898 1-1.67l.42-1.16-6.386-17.682h3.636l4.42 13.546h.182l4.421-13.546h3.647l-7.193 19.785c-.333.909-.757 1.678-1.273 2.306a4.94 4.94 0 01-1.84 1.432c-.713.318-1.538.477-2.478.477z" fill="#fff"/></svg>