<svg width="33" height="26" viewBox="0 0 33 26" fill="none" xmlns="http://www.w3.org/2000/svg">
<path fill-rule="evenodd" clip-rule="evenodd" d="M13.4766 0.688052L3.45253 4.00531C2.15031 4.43625 1.71059 4.69046 1.27784 5.0564C0.845101 5.42235 0.52564 5.86487 0.314365 6.39102C0.10309 6.91716 0 7.41486 0 8.78777V23.7661C0 24.4336 0.0694306 24.6756 0.199807 24.9196C0.330183 25.1637 0.521505 25.3552 0.765287 25.4857C1.00907 25.6162 1.25088 25.6857 1.9177 25.6857H30.7436C31.4104 25.6857 31.6522 25.6162 31.896 25.4857C32.1398 25.3552 32.3311 25.1637 32.4615 24.9196C32.5919 24.6756 32.6613 24.4336 32.6613 23.7661V8.75484C32.6613 7.39118 32.5601 6.89702 32.3522 6.37391C32.1442 5.85081 31.8295 5.41008 31.4023 5.04383C30.9751 4.67759 30.5408 4.42185 29.2518 3.98053L19.729 0.720191C18.3873 0.260842 17.9248 0.141504 17.3901 0.0618076C16.8553 -0.017889 16.3577 -0.0204465 15.8222 0.0537482C15.2866 0.127943 14.8229 0.24252 13.4766 0.688052ZM2.49323 23.19H10.762V10.5599C10.762 10.0077 11.2097 9.55994 11.762 9.55994H20.8993C21.4516 9.55994 21.8993 10.0077 21.8993 10.5599V23.19H30.1681V8.75484C30.1681 7.78756 30.1329 7.54145 30.0356 7.29663C29.9771 7.14932 29.9007 7.04241 29.7804 6.93927C29.5805 6.76787 29.3592 6.65496 28.4449 6.34192L18.9221 3.08157C17.7818 2.69116 17.4103 2.58802 17.0229 2.53029C16.7231 2.48561 16.4642 2.48428 16.164 2.52588C15.776 2.57962 15.4035 2.67893 14.2592 3.05761L4.23514 6.37486C3.31255 6.68017 3.08927 6.79166 2.88684 6.96284C2.76489 7.06596 2.68725 7.17351 2.62771 7.32178C2.52888 7.5679 2.49323 7.81511 2.49323 8.78777V23.19Z" fill="white"/>
</svg>
